M48
METRIC,0000.00
T01C0.711
T02C0.9
T03C0.965
T04C1.0
T05C1.2
T06C1.4
T07C1.778
T08C3.0
%
T01
X+034211Y+005318
X+033957Y+005318
X+034750Y+005318
X+035004Y+005318
X+035544Y+005318
X+035798Y+005318
T02
X+019510Y+004715
X+019510Y+004969
T03
X+024940Y+003921
X+024940Y+003667
X+024940Y+003413
X+024940Y+003159
X+024940Y+002905
X+024940Y+002651
X+024940Y+002397
X+024686Y+002397
X+024686Y+002651
X+024686Y+002905
X+024686Y+003159
X+024686Y+003413
X+024686Y+003667
X+024686Y+003921
X+024686Y+004175
X+024940Y+004175
X+026908Y+004175
X+026908Y+003921
X+026908Y+003667
X+026908Y+003413
X+027162Y+003413
X+027162Y+003667
X+027162Y+003921
X+027162Y+004175
X+027162Y+003159
X+027162Y+002905
X+027162Y+002651
X+027162Y+002397
X+026908Y+002397
X+026908Y+002651
X+026908Y+002905
X+026908Y+003159
X+029131Y+003159
X+029131Y+002905
X+029131Y+002651
X+029385Y+002651
X+029385Y+002905
X+029385Y+003159
X+029385Y+003413
X+029385Y+003667
X+029385Y+003921
X+029131Y+003921
X+029131Y+003667
X+029131Y+003413
X+029131Y+004175
X+029385Y+004175
X+029385Y+002397
X+029131Y+002397
X+031353Y+002397
X+031607Y+002397
X+031607Y+002651
X+031607Y+002905
X+031607Y+003159
X+031607Y+003413
X+031607Y+003667
X+031607Y+003921
X+031353Y+003921
X+031353Y+003667
X+031353Y+003413
X+031353Y+003159
X+031353Y+002905
X+031353Y+002651
X+031353Y+004175
X+031607Y+004175
X+033576Y+004175
X+033576Y+003921
X+033576Y+003667
X+033576Y+003413
X+033830Y+003413
X+033830Y+003667
X+033830Y+003921
X+033830Y+004175
X+033830Y+003159
X+033830Y+002905
X+033830Y+002651
X+033576Y+002651
X+033576Y+002905
X+033576Y+003159
X+033576Y+002397
X+033830Y+002397
X+035798Y+002397
X+036052Y+002397
X+036052Y+002651
X+036052Y+002905
X+036052Y+003159
X+036052Y+003413
X+036052Y+003667
X+036052Y+003921
X+035798Y+003921
X+035798Y+003667
X+035798Y+003413
X+035798Y+003159
X+035798Y+002905
X+035798Y+002651
X+035798Y+004175
X+036052Y+004175
X+036370Y+005064
X+036370Y+005413
X+036370Y+005763
X+037386Y+005763
X+037386Y+005413
X+037386Y+005064
X+022717Y+004175
X+022717Y+003921
X+022717Y+003667
X+022717Y+003413
X+022717Y+003159
X+022717Y+002905
X+022717Y+002651
X+022717Y+002397
X+022463Y+002397
X+022463Y+002651
X+022463Y+002905
X+022463Y+003159
X+022463Y+003413
X+022463Y+003667
X+022463Y+003921
X+022463Y+004175
X+017574Y+004175
X+017574Y+003921
X+017574Y+003667
X+017574Y+003413
X+017574Y+003159
X+017574Y+002905
X+017574Y+002651
X+017574Y+002397
X+017320Y+002397
X+017320Y+002651
X+017320Y+002905
X+017320Y+003159
X+017320Y+003413
X+017320Y+003667
X+017320Y+003921
X+017320Y+004175
X+015351Y+004175
X+015097Y+004175
X+015097Y+003921
X+015097Y+003667
X+015097Y+003413
X+015097Y+003159
X+015097Y+002905
X+015097Y+002651
X+015351Y+002651
X+015351Y+002905
X+015351Y+003159
X+015351Y+003413
X+015351Y+003667
X+015351Y+003921
X+015351Y+002397
X+015097Y+002397
X+013129Y+002397
X+013129Y+002651
X+013129Y+002905
X+013129Y+003159
X+013129Y+003413
X+013129Y+003667
X+013129Y+003921
X+012875Y+003921
X+012875Y+003667
X+012875Y+003413
X+012875Y+003159
X+012875Y+002905
X+012875Y+002651
X+012875Y+002397
X+012875Y+004175
X+013129Y+004175
X+010906Y+004175
X+010652Y+004175
X+010652Y+003921
X+010652Y+003667
X+010652Y+003413
X+010652Y+003159
X+010652Y+002905
X+010652Y+002651
X+010652Y+002397
X+010906Y+002397
X+010906Y+002651
X+010906Y+002905
X+010906Y+003159
X+010906Y+003413
X+010906Y+003667
X+010906Y+003921
X+008684Y+003921
X+008684Y+003667
X+008684Y+003413
X+008684Y+003159
X+008684Y+002905
X+008684Y+002651
X+008430Y+002651
X+008430Y+002905
X+008430Y+003159
X+008430Y+003413
X+008430Y+003667
X+008430Y+003921
X+008430Y+004175
X+008684Y+004175
X+008684Y+002397
X+008430Y+002397
X+006461Y+002397
X+006207Y+002397
X+006207Y+002651
X+006207Y+002905
X+006207Y+003159
X+006461Y+003159
X+006461Y+002905
X+006461Y+002651
X+006461Y+003413
X+006461Y+003667
X+006461Y+003921
X+006207Y+003921
X+006207Y+003667
X+006207Y+003413
X+006207Y+004175
X+006461Y+004175
X+004239Y+004175
X+004239Y+003921
X+004239Y+003667
X+004239Y+003413
X+003985Y+003413
X+003985Y+003667
X+003985Y+003921
X+003985Y+004175
X+003985Y+003159
X+003985Y+002905
X+003985Y+002651
X+004239Y+002651
X+004239Y+002905
X+004239Y+003159
X+004239Y+002397
X+003985Y+002397
T04
X+020717Y+005382
X+020971Y+005382
X+021225Y+005382
X+021225Y+004239
X+020971Y+004239
T05
X+020114Y+004778
X+021219Y+004778
X+018336Y+004588
X+018336Y+003483
T06
X+018907Y+003794
X+019407Y+003794
X+019407Y+003032
X+018907Y+003032
X+018907Y+002270
X+019407Y+002270
X+019407Y+001508
X+018907Y+001508
X+020749Y+001508
X+021249Y+001508
X+021249Y+002270
X+020749Y+002270
X+020749Y+003032
X+021249Y+003032
X+021249Y+003794
X+020749Y+003794
T07
X+038370Y+004112
X+038370Y+003715
X+038370Y+003319
X+038370Y+002923
X+001572Y+002923
X+001572Y+003319
X+001572Y+003715
X+001572Y+004112
T08
X+001381Y+005636
X+001381Y+001381
X+007985Y+001381
X+007985Y+005636
X+014589Y+005636
X+017891Y+005636
X+022082Y+005636
X+025384Y+005636
X+025384Y+001381
X+022082Y+001381
X+017891Y+001381
X+014589Y+001381
X+031988Y+001381
X+031988Y+005636
X+038592Y+005636
X+038592Y+001381
T00
M30
