G04 DipTrace 3.0.0.1*
G04 moraydular_powerbus_wide_final1.GTL*
%MOMM*%
G04 #@! TF.FileFunction,Copper,L1,Top*
G04 #@! TF.Part,Single*
%AMOUTLINE0*
4,1,20,
1.2689,1.27,
1.70333,1.1938,
2.0855,0.9736,
2.3693,0.63597,
2.5205,0.22163,
2.5209,-0.21943,
2.3704,-0.63403,
2.0872,-0.97217,
1.7054,-1.19303,
1.2711,-1.27,
-1.2689,-1.27,
-1.70333,-1.1938,
-2.0855,-0.9736,
-2.3693,-0.63597,
-2.5205,-0.22163,
-2.5209,0.21943,
-2.3704,0.63403,
-2.0872,0.97217,
-1.7054,1.19303,
-1.2711,1.27,
1.2689,1.27,
0*%
G04 #@! TA.AperFunction,Conductor*
%ADD13C,2.032*%
G04 #@! TA.AperFunction,ComponentPad*
%ADD14C,1.524*%
G04 #@! TA.AperFunction,CopperBalancing*
%ADD22C,0.635*%
G04 #@! TA.AperFunction,ComponentPad*
%ADD25R,1.524X1.524*%
%ADD26C,1.27*%
%ADD27R,1.27X1.27*%
%ADD29R,1.6X1.6*%
%ADD30C,1.6*%
%ADD31C,1.6*%
%ADD32R,1.8X1.8*%
%ADD33C,1.8*%
%ADD34C,3.048*%
%ADD35C,1.524*%
%ADD65OUTLINE0*%
%FSLAX35Y35*%
G04*
G71*
G90*
G75*
G01*
G04 Top*
%LPD*%
X18907001Y3032001D2*
D13*
X19407001D1*
X20748501Y3794001D2*
X21248501D1*
X18907001Y2270001D2*
X19407001D1*
X20748501D2*
X21248501D1*
X12874501Y3159001D2*
D14*
X13128501D1*
X12874501Y2905001D2*
X13128501D1*
X12874501Y2651001D2*
X13128501D1*
X15097001Y3159001D2*
X15351001D1*
X15097001Y2905001D2*
X15351001D1*
X15097001Y2651001D2*
X15351001D1*
X8429501Y3159001D2*
X8683501D1*
X8429501Y2905001D2*
X8683501D1*
X8429501Y2651001D2*
X8683501D1*
X10652001Y3159001D2*
X10906001D1*
X10652001Y2905001D2*
X10906001D1*
X10652001Y2651001D2*
X10906001D1*
X6207001Y3159001D2*
X6461001D1*
X6207001Y2905001D2*
X6461001D1*
X6207001Y2651001D2*
X6461001D1*
X3984501Y3159001D2*
X4238501D1*
X3984501Y2905001D2*
X4238501D1*
X3984501Y2651001D2*
X4238501D1*
X24685501Y3159001D2*
X24939501D1*
X24685501Y2905001D2*
X24939501D1*
X24685501Y2651001D2*
X24939501D1*
X26908001Y3159001D2*
X27162001D1*
X26908001Y2651001D2*
X27162001D1*
X29130501Y3159001D2*
X29384501D1*
X29130501Y2905001D2*
X29384501D1*
X29130501Y2651001D2*
X29384501D1*
X31353001Y3159001D2*
X31607001D1*
X31353001Y2905001D2*
X31607001D1*
X31353001Y2651001D2*
X31607001D1*
X33575501Y3159001D2*
X33829501D1*
X33575501Y2905001D2*
X33829501D1*
X33575501Y2651001D2*
X33829501D1*
X35798001Y3159001D2*
X36052001D1*
X35798001Y2905001D2*
X36052001D1*
X35798001Y2651001D2*
X36052001D1*
X26908001Y2905001D2*
X27162001D1*
X17319501Y3159001D2*
X17573501D1*
X17319501Y2905001D2*
X17573501D1*
X17319501Y2651001D2*
X17573501D1*
X22463001Y3159001D2*
X22717001D1*
X22463001Y2905001D2*
X22717001D1*
X22463001Y2651001D2*
X22717001D1*
X20970751Y5381501D2*
Y5222751D1*
X20875501Y5127501D1*
X19796001D1*
X19637251Y4968751D1*
X19510251D1*
X21248501Y2270001D2*
D13*
Y2587501D1*
X22145501D1*
X22209001Y2651001D1*
X22285201D1*
D14*
X22463001D1*
X18907001Y2270001D2*
D13*
Y2587501D1*
X18018001D1*
X17954501Y2651001D1*
X17751301D1*
D14*
X17573501D1*
X1673807Y5803484D2*
D22*
X7692243D1*
X8277807D2*
X14296243D1*
X14881807D2*
X17598243D1*
X18183807D2*
X21789243D1*
X22374807D2*
X25091243D1*
X25676807D2*
X31695243D1*
X32280807D2*
X36207216D1*
X36531835D2*
X37223216D1*
X37547835D2*
X38299243D1*
X1702457Y5740317D2*
X7663594D1*
X8306457D2*
X14267594D1*
X14910457D2*
X17569594D1*
X18212457D2*
X21760594D1*
X22403457D2*
X25062594D1*
X25705457D2*
X31666594D1*
X32309457D2*
X36203371D1*
X36535556D2*
X37219371D1*
X37551556D2*
X38270594D1*
X1716844Y5677151D2*
X7649207D1*
X8320844D2*
X14253207D1*
X14924844D2*
X17555207D1*
X18226844D2*
X21746207D1*
X22417844D2*
X25048207D1*
X25719844D2*
X31652207D1*
X32323844D2*
X36226315D1*
X36512735D2*
X37242315D1*
X37528735D2*
X38256207D1*
X1718704Y5613984D2*
X7647223D1*
X8322704D2*
X14251223D1*
X14926704D2*
X17553223D1*
X18228704D2*
X21744223D1*
X22419704D2*
X25046223D1*
X25721704D2*
X31650223D1*
X32325704D2*
X36300233D1*
X36438817D2*
X37316233D1*
X37454817D2*
X38254223D1*
X1708410Y5550817D2*
X7657517D1*
X8312410D2*
X14261517D1*
X14916410D2*
X17563517D1*
X18218410D2*
X21754517D1*
X22409410D2*
X25056517D1*
X25711410D2*
X31660517D1*
X32315410D2*
X36278901D1*
X36460025D2*
X37294901D1*
X37476025D2*
X38264517D1*
X1684722Y5487651D2*
X7681329D1*
X8288722D2*
X14285329D1*
X14892722D2*
X17587329D1*
X18194722D2*
X20545288D1*
X21357567D2*
X21778329D1*
X22385722D2*
X25080329D1*
X25687722D2*
X31684329D1*
X32291722D2*
X36219990D1*
X36518936D2*
X37235990D1*
X37534936D2*
X38288329D1*
X1643794Y5424484D2*
X7722257D1*
X8247794D2*
X14326257D1*
X14851794D2*
X17628257D1*
X18153794D2*
X20545288D1*
X21390557D2*
X21819257D1*
X22344794D2*
X25121257D1*
X25646794D2*
X31725257D1*
X32250794D2*
X33801533D1*
X34320497D2*
X34595283D1*
X35114247D2*
X35389033D1*
X35907997D2*
X36202255D1*
X36536796D2*
X37218255D1*
X37552796D2*
X38329257D1*
X1139763Y5361317D2*
X1187403D1*
X1574713D2*
X7791338D1*
X8178713D2*
X14395338D1*
X14782713D2*
X17697338D1*
X18084713D2*
X20545288D1*
X21394898D2*
X21888338D1*
X22275713D2*
X25190338D1*
X25577713D2*
X31794338D1*
X32181713D2*
X33801533D1*
X34358944D2*
X34595283D1*
X35152694D2*
X35389033D1*
X35946444D2*
X36210440D1*
X36528610D2*
X37226440D1*
X37544610D2*
X38398338D1*
X38785713D2*
X38860325D1*
X1139763Y5298151D2*
X20545288D1*
X21373566D2*
X33801533D1*
X34364153D2*
X34595283D1*
X35157903D2*
X35389033D1*
X35951653D2*
X36250128D1*
X36488799D2*
X37266128D1*
X37504799D2*
X38860325D1*
X1139763Y5234984D2*
X20545288D1*
X21053214D2*
X21142337D1*
X21307214D2*
X33801533D1*
X34340093D2*
X34595283D1*
X35133843D2*
X35389033D1*
X35927593D2*
X38860325D1*
X1139763Y5171817D2*
X33801533D1*
X34111393D2*
X34177572D1*
X34243478D2*
X34595283D1*
X34905143D2*
X34971322D1*
X35037228D2*
X35389033D1*
X35698893D2*
X35765072D1*
X35830978D2*
X36243183D1*
X36495868D2*
X37259183D1*
X37511868D2*
X38860325D1*
X1139763Y5108651D2*
X19416303D1*
X19604248D2*
X36208208D1*
X36530843D2*
X37224208D1*
X37546843D2*
X38860325D1*
X1139763Y5045484D2*
X19357764D1*
X19662787D2*
X36202875D1*
X36536052D2*
X37218875D1*
X37552052D2*
X38860325D1*
X1139763Y4982317D2*
X19339408D1*
X19681142D2*
X36224083D1*
X36514968D2*
X37240083D1*
X37530968D2*
X38860325D1*
X1139763Y4919151D2*
X19346478D1*
X19674073D2*
X19932116D1*
X20294934D2*
X21108231D1*
X21328794D2*
X36292172D1*
X36446755D2*
X37308172D1*
X37462755D2*
X38860325D1*
X1139763Y4855984D2*
X19338788D1*
X19681639D2*
X19932116D1*
X20294934D2*
X21055273D1*
X21381752D2*
X38860325D1*
X1139763Y4792817D2*
X19338788D1*
X19681639D2*
X19932116D1*
X20294934D2*
X21037661D1*
X21399363D2*
X38860325D1*
X1139763Y4729651D2*
X18154116D1*
X18516934D2*
X19338788D1*
X19681639D2*
X19932116D1*
X20294934D2*
X21043986D1*
X21393038D2*
X38860325D1*
X1139763Y4666484D2*
X18154116D1*
X18516934D2*
X19338788D1*
X19681639D2*
X19932116D1*
X20294934D2*
X21077349D1*
X21359676D2*
X38860325D1*
X1139763Y4603317D2*
X18154116D1*
X18516934D2*
X19338788D1*
X19681639D2*
X19932116D1*
X20294934D2*
X38860325D1*
X1139763Y4540151D2*
X18154116D1*
X18516934D2*
X38860325D1*
X1139763Y4476984D2*
X18154116D1*
X18516934D2*
X38860325D1*
X1139763Y4413817D2*
X18154116D1*
X18516934D2*
X38860325D1*
X1139763Y4350651D2*
X20843192D1*
X21396139D2*
X38860325D1*
X1139763Y4287484D2*
X1405619D1*
X1737307D2*
X3862523D1*
X4406168D2*
X6085023D1*
X6628668D2*
X8307523D1*
X8851168D2*
X10530023D1*
X11073668D2*
X12752523D1*
X13296168D2*
X14975023D1*
X15518668D2*
X17197523D1*
X17741168D2*
X20806730D1*
X21396139D2*
X22341023D1*
X22884668D2*
X24563523D1*
X25107168D2*
X26786023D1*
X27329668D2*
X29008523D1*
X29552168D2*
X31231023D1*
X31774668D2*
X33453523D1*
X33997168D2*
X35676023D1*
X36219668D2*
X38203869D1*
X38535557D2*
X38860325D1*
X1139763Y4224317D2*
X1356134D1*
X1786793D2*
X3824572D1*
X4406168D2*
X6047072D1*
X6628668D2*
X8269572D1*
X8851168D2*
X10492072D1*
X11073668D2*
X12714572D1*
X13296168D2*
X14937072D1*
X15518668D2*
X17159572D1*
X17741168D2*
X20799908D1*
X21396139D2*
X22303072D1*
X22884668D2*
X24525572D1*
X25107168D2*
X26748072D1*
X27329668D2*
X28970572D1*
X29552168D2*
X31193072D1*
X31774668D2*
X33415572D1*
X33997168D2*
X35638072D1*
X36219668D2*
X38154384D1*
X38585043D2*
X38860325D1*
X1139763Y4161151D2*
X1332941D1*
X1810109D2*
X3817503D1*
X4406168D2*
X6040003D1*
X6628668D2*
X8262503D1*
X8851168D2*
X10485003D1*
X11073668D2*
X12707503D1*
X13296168D2*
X14930003D1*
X15518668D2*
X17152503D1*
X17741168D2*
X20818512D1*
X21396139D2*
X22296003D1*
X22884668D2*
X24518503D1*
X25107168D2*
X26741003D1*
X27329668D2*
X28963503D1*
X29552168D2*
X31186003D1*
X31774668D2*
X33408503D1*
X33997168D2*
X35631003D1*
X36219668D2*
X38131191D1*
X38608359D2*
X38860325D1*
X1139763Y4097984D2*
X1328105D1*
X1814946D2*
X3836479D1*
X4406168D2*
X6058979D1*
X6628668D2*
X8281479D1*
X8851168D2*
X10503979D1*
X11073668D2*
X12726479D1*
X13296168D2*
X14948979D1*
X15518668D2*
X17171479D1*
X17741168D2*
X20877795D1*
X21396139D2*
X22314979D1*
X22884668D2*
X24537479D1*
X25107168D2*
X26759979D1*
X27329668D2*
X28982479D1*
X29552168D2*
X31204979D1*
X31774668D2*
X33427479D1*
X33997168D2*
X35649979D1*
X36219668D2*
X38126355D1*
X38613196D2*
X38860325D1*
X1139763Y4034817D2*
X1340383D1*
X1802668D2*
X3863888D1*
X4406168D2*
X6086388D1*
X6628668D2*
X8308888D1*
X8851168D2*
X10531388D1*
X11073668D2*
X12753888D1*
X13296168D2*
X14976388D1*
X15518668D2*
X17198888D1*
X17741168D2*
X22342388D1*
X22884668D2*
X24564888D1*
X25107168D2*
X26787388D1*
X27329668D2*
X29009888D1*
X29552168D2*
X31232388D1*
X31774668D2*
X33454888D1*
X33997168D2*
X35677388D1*
X36219668D2*
X38138633D1*
X38600918D2*
X38860325D1*
X1139763Y3971651D2*
X1373249D1*
X1769802D2*
X3825068D1*
X4397982D2*
X6047568D1*
X6620482D2*
X8270068D1*
X8842982D2*
X10492568D1*
X11065482D2*
X12715068D1*
X13287982D2*
X14937568D1*
X15510482D2*
X17160068D1*
X17732982D2*
X18661000D1*
X19652989D2*
X20502500D1*
X21494489D2*
X22303568D1*
X22876482D2*
X24526068D1*
X25098982D2*
X26748568D1*
X27321482D2*
X28971068D1*
X29543982D2*
X31193568D1*
X31766482D2*
X33416068D1*
X33988982D2*
X35638568D1*
X36211482D2*
X38171499D1*
X38568052D2*
X38860325D1*
X1139763Y3908484D2*
X1427075D1*
X1715975D2*
X3817379D1*
X4405672D2*
X6039879D1*
X6628172D2*
X8262379D1*
X8850672D2*
X10484879D1*
X11073172D2*
X12707379D1*
X13295672D2*
X14929879D1*
X15518172D2*
X17152379D1*
X17740672D2*
X18595516D1*
X19718473D2*
X20437016D1*
X21559973D2*
X22295879D1*
X22884172D2*
X24518379D1*
X25106672D2*
X26740879D1*
X27329172D2*
X28963379D1*
X29551672D2*
X31185879D1*
X31774172D2*
X33408379D1*
X33996672D2*
X35630879D1*
X36219172D2*
X38225325D1*
X38514225D2*
X38860325D1*
X1139763Y3845317D2*
X1366428D1*
X1776623D2*
X3835734D1*
X4387316D2*
X6058234D1*
X6609816D2*
X8280734D1*
X8832316D2*
X10503234D1*
X11054816D2*
X12725734D1*
X13277316D2*
X14948234D1*
X15499816D2*
X17170734D1*
X17722316D2*
X18568727D1*
X19745387D2*
X20410227D1*
X21586887D2*
X22314234D1*
X22865816D2*
X24536734D1*
X25088316D2*
X26759234D1*
X27310816D2*
X28981734D1*
X29533316D2*
X31204234D1*
X31755816D2*
X33426734D1*
X33978316D2*
X35649234D1*
X36200816D2*
X38164678D1*
X38574873D2*
X38860325D1*
X1139763Y3782151D2*
X1337282D1*
X1805768D2*
X3865252D1*
X4357799D2*
X6087752D1*
X6580299D2*
X8310252D1*
X8802799D2*
X10532752D1*
X11025299D2*
X12755252D1*
X13247799D2*
X14977752D1*
X15470299D2*
X17200252D1*
X17692799D2*
X18563518D1*
X19750472D2*
X20405018D1*
X21591972D2*
X22343752D1*
X22836299D2*
X24566252D1*
X25058799D2*
X26788752D1*
X27281299D2*
X29011252D1*
X29503799D2*
X31233752D1*
X31726299D2*
X33456252D1*
X33948799D2*
X35678752D1*
X36171299D2*
X38135532D1*
X38604018D2*
X38860325D1*
X1139763Y3718984D2*
X1327732D1*
X1815318D2*
X3825440D1*
X4397486D2*
X6047940D1*
X6619986D2*
X8270440D1*
X8842486D2*
X10492940D1*
X11064986D2*
X12715440D1*
X13287486D2*
X14937940D1*
X15509986D2*
X17160440D1*
X17732486D2*
X18577284D1*
X19736705D2*
X20418784D1*
X21578205D2*
X22303940D1*
X22875986D2*
X24526440D1*
X25098486D2*
X26748940D1*
X27320986D2*
X28971440D1*
X29543486D2*
X31193940D1*
X31765986D2*
X33416440D1*
X33988486D2*
X35638940D1*
X36210986D2*
X38125982D1*
X38613568D2*
X38860325D1*
X1139763Y3655817D2*
X1335174D1*
X1807753D2*
X3817255D1*
X4405796D2*
X6039755D1*
X6628296D2*
X8262255D1*
X8850796D2*
X10484755D1*
X11073296D2*
X12707255D1*
X13295796D2*
X14929755D1*
X15518296D2*
X17152255D1*
X17740796D2*
X18302572D1*
X18368354D2*
X18615235D1*
X19698754D2*
X20456735D1*
X21540254D2*
X22295755D1*
X22884296D2*
X24518255D1*
X25106796D2*
X26740755D1*
X27329296D2*
X28963255D1*
X29551796D2*
X31185755D1*
X31774296D2*
X33408255D1*
X33996796D2*
X35630755D1*
X36219296D2*
X38133424D1*
X38606003D2*
X38860325D1*
X1139763Y3592651D2*
X1361715D1*
X1781212D2*
X3834990D1*
X4387936D2*
X6057490D1*
X6610436D2*
X8279990D1*
X8832936D2*
X10502490D1*
X11055436D2*
X12724990D1*
X13277936D2*
X14947490D1*
X15500436D2*
X17169990D1*
X17722936D2*
X18192812D1*
X18478115D2*
X18707509D1*
X19106418D2*
X19207447D1*
X19606480D2*
X20549009D1*
X20947918D2*
X21048947D1*
X21447980D2*
X22313490D1*
X22866436D2*
X24535990D1*
X25088936D2*
X26758490D1*
X27311436D2*
X28980990D1*
X29533936D2*
X31203490D1*
X31756436D2*
X33425990D1*
X33978936D2*
X35648490D1*
X36201436D2*
X38159965D1*
X38579462D2*
X38860325D1*
X1139763Y3529484D2*
X1417153D1*
X1725773D2*
X3866616D1*
X4356434D2*
X6089116D1*
X6578934D2*
X8311616D1*
X8801434D2*
X10534116D1*
X11023934D2*
X12756616D1*
X13246434D2*
X14979116D1*
X15468934D2*
X17201616D1*
X17691434D2*
X18160441D1*
X18510609D2*
X22345116D1*
X22834934D2*
X24567616D1*
X25057434D2*
X26790116D1*
X27279934D2*
X29012616D1*
X29502434D2*
X31235116D1*
X31724934D2*
X33457616D1*
X33947434D2*
X35680116D1*
X36169934D2*
X38215403D1*
X38524023D2*
X38860325D1*
X1139763Y3466317D2*
X1378830D1*
X1764097D2*
X3825937D1*
X4397114D2*
X6048437D1*
X6619614D2*
X8270937D1*
X8842114D2*
X10493437D1*
X11064614D2*
X12715937D1*
X13287114D2*
X14938437D1*
X15509614D2*
X17160937D1*
X17732114D2*
X18154860D1*
X18516190D2*
X22304437D1*
X22875614D2*
X24526937D1*
X25098114D2*
X26749437D1*
X27320614D2*
X28971937D1*
X29543114D2*
X31194437D1*
X31765614D2*
X33416937D1*
X33988114D2*
X35639437D1*
X36210614D2*
X38177080D1*
X38562347D2*
X38860325D1*
X1139763Y3403151D2*
X1343111D1*
X1799939D2*
X3817131D1*
X4405796D2*
X6039631D1*
X6628296D2*
X8262131D1*
X8850796D2*
X10484631D1*
X11073296D2*
X12707131D1*
X13295796D2*
X14929631D1*
X15518296D2*
X17152131D1*
X17740796D2*
X18173216D1*
X18497835D2*
X22295631D1*
X22884296D2*
X24518131D1*
X25106796D2*
X26740631D1*
X27329296D2*
X28963131D1*
X29551796D2*
X31185631D1*
X31774296D2*
X33408131D1*
X33996796D2*
X35630631D1*
X36219296D2*
X38141361D1*
X38598189D2*
X38860325D1*
X1139763Y3339984D2*
X1328601D1*
X1814450D2*
X3834370D1*
X4388681D2*
X6056870D1*
X6611181D2*
X8279370D1*
X8833681D2*
X10501870D1*
X11056181D2*
X12724370D1*
X13278681D2*
X14946870D1*
X15501181D2*
X17169370D1*
X17723681D2*
X18227786D1*
X18443265D2*
X22312870D1*
X22867181D2*
X24535370D1*
X25089681D2*
X26757870D1*
X27312181D2*
X28980370D1*
X29534681D2*
X31202870D1*
X31757181D2*
X33425370D1*
X33979681D2*
X35647870D1*
X36202181D2*
X38126851D1*
X38612700D2*
X38860325D1*
X1139763Y3276817D2*
X1331453D1*
X1811598D2*
X3867981D1*
X4354946D2*
X6090481D1*
X6577446D2*
X8312981D1*
X8799946D2*
X10535481D1*
X11022446D2*
X12757981D1*
X13244946D2*
X14980481D1*
X15467446D2*
X17202981D1*
X17689946D2*
X22346481D1*
X22833446D2*
X24568981D1*
X25055946D2*
X26791481D1*
X27278446D2*
X29013981D1*
X29500946D2*
X31236481D1*
X31723446D2*
X33458981D1*
X33945946D2*
X35681481D1*
X36168446D2*
X38129703D1*
X38609848D2*
X38860325D1*
X1139763Y3213651D2*
X1352289D1*
X1790638D2*
X3826433D1*
X4396618D2*
X6048933D1*
X6619118D2*
X8271433D1*
X8841618D2*
X10493933D1*
X11064118D2*
X12716433D1*
X13286618D2*
X14938933D1*
X15509118D2*
X17161433D1*
X17731618D2*
X18667945D1*
X19646044D2*
X20509445D1*
X20987605D2*
X21009562D1*
X21487544D2*
X22304933D1*
X22875118D2*
X24527433D1*
X25097618D2*
X26749933D1*
X27320118D2*
X28972433D1*
X29542618D2*
X31194933D1*
X31765118D2*
X33417433D1*
X33987618D2*
X35639933D1*
X36210118D2*
X38150539D1*
X38588888D2*
X38860325D1*
X1139763Y3150484D2*
X1397806D1*
X1745121D2*
X3817131D1*
X4405920D2*
X6039631D1*
X6628420D2*
X8262131D1*
X8850920D2*
X10484631D1*
X11073420D2*
X12707131D1*
X13295920D2*
X14929631D1*
X15518420D2*
X17152131D1*
X17740920D2*
X18598740D1*
X19715249D2*
X20440240D1*
X21556749D2*
X22295631D1*
X22884420D2*
X24518131D1*
X25106920D2*
X26740631D1*
X27329420D2*
X28963131D1*
X29551920D2*
X31185631D1*
X31774420D2*
X33408131D1*
X33996920D2*
X35630631D1*
X36219420D2*
X38196056D1*
X38543371D2*
X38860325D1*
X1139763Y3087317D2*
X1393837D1*
X1749090D2*
X3833626D1*
X4389301D2*
X6056126D1*
X6611801D2*
X8278626D1*
X8834301D2*
X10501126D1*
X11056801D2*
X12723626D1*
X13279301D2*
X14946126D1*
X15501801D2*
X17168626D1*
X17724301D2*
X18570091D1*
X19743898D2*
X20411591D1*
X21585398D2*
X22312126D1*
X22867801D2*
X24534626D1*
X25090301D2*
X26757126D1*
X27312801D2*
X28979626D1*
X29535301D2*
X31202126D1*
X31757801D2*
X33424626D1*
X33980301D2*
X35647126D1*
X36202801D2*
X38192087D1*
X38547340D2*
X38860325D1*
X1139763Y3024151D2*
X1350429D1*
X1792622D2*
X3869469D1*
X4353582D2*
X6091969D1*
X6576082D2*
X8314469D1*
X8798582D2*
X10536969D1*
X11021082D2*
X12759469D1*
X13243582D2*
X14981969D1*
X15466082D2*
X17204469D1*
X17688582D2*
X18563518D1*
X19750472D2*
X20405018D1*
X21591972D2*
X22347969D1*
X22832082D2*
X24570469D1*
X25054582D2*
X26792969D1*
X27277082D2*
X29015469D1*
X29499582D2*
X31237969D1*
X31722082D2*
X33460469D1*
X33944582D2*
X35682969D1*
X36167082D2*
X38148679D1*
X38590872D2*
X38860325D1*
X1139763Y2960984D2*
X1330709D1*
X1812218D2*
X3826929D1*
X4396122D2*
X6049429D1*
X6618622D2*
X8271929D1*
X8841122D2*
X10494429D1*
X11063622D2*
X12716929D1*
X13286122D2*
X14939429D1*
X15508622D2*
X17161929D1*
X17731122D2*
X18575796D1*
X19738193D2*
X20417296D1*
X21579693D2*
X22305429D1*
X22874622D2*
X24527929D1*
X25097122D2*
X26750429D1*
X27319622D2*
X28972929D1*
X29542122D2*
X31195429D1*
X31764622D2*
X33417929D1*
X33987122D2*
X35640429D1*
X36209622D2*
X38128959D1*
X38610468D2*
X38860325D1*
X1139763Y2897817D2*
X1328973D1*
X1814078D2*
X3817007D1*
X4405920D2*
X6039507D1*
X6628420D2*
X8262007D1*
X8850920D2*
X10484507D1*
X11073420D2*
X12707007D1*
X13295920D2*
X14929507D1*
X15518420D2*
X17152007D1*
X17740920D2*
X18611887D1*
X19702102D2*
X20453387D1*
X21543602D2*
X22295507D1*
X22884420D2*
X24518007D1*
X25106920D2*
X26740507D1*
X27329420D2*
X28963007D1*
X29551920D2*
X31185507D1*
X31774420D2*
X33408007D1*
X33996920D2*
X35630507D1*
X36219420D2*
X38127223D1*
X38612328D2*
X38860325D1*
X1139763Y2834651D2*
X1344600D1*
X1798327D2*
X3833006D1*
X4390045D2*
X6055506D1*
X6612545D2*
X8278006D1*
X8835045D2*
X10500506D1*
X11057545D2*
X12723006D1*
X13280045D2*
X14945506D1*
X15502545D2*
X17168006D1*
X17725045D2*
X18696223D1*
X19117828D2*
X19196285D1*
X19617766D2*
X20537723D1*
X20959328D2*
X21037785D1*
X21459266D2*
X22311506D1*
X22868545D2*
X24534006D1*
X25091045D2*
X26756506D1*
X27313545D2*
X28979006D1*
X29536045D2*
X31201506D1*
X31758545D2*
X33424006D1*
X33981045D2*
X35646506D1*
X36203545D2*
X38142850D1*
X38596577D2*
X38860325D1*
X1139763Y2771484D2*
X1382055D1*
X1760872D2*
X3870957D1*
X4352094D2*
X6093457D1*
X6574594D2*
X8315957D1*
X8797094D2*
X10538457D1*
X11019594D2*
X12760957D1*
X13242094D2*
X14983457D1*
X15464594D2*
X17205957D1*
X17687094D2*
X22349457D1*
X22830594D2*
X24571957D1*
X25053094D2*
X26794457D1*
X27275594D2*
X29016957D1*
X29498094D2*
X31239457D1*
X31720594D2*
X33461957D1*
X33943094D2*
X35684457D1*
X36165594D2*
X38180305D1*
X38559122D2*
X38860325D1*
X1139763Y2708317D2*
X1463166D1*
X1679885D2*
X3827425D1*
X4395626D2*
X6049925D1*
X6618126D2*
X8272425D1*
X8840626D2*
X10494925D1*
X11063126D2*
X12717425D1*
X13285626D2*
X14939925D1*
X15508126D2*
X17162425D1*
X17730626D2*
X22305925D1*
X22874126D2*
X24528425D1*
X25096626D2*
X26750925D1*
X27319126D2*
X28973425D1*
X29541626D2*
X31195925D1*
X31764126D2*
X33418425D1*
X33986626D2*
X35640925D1*
X36209126D2*
X38261416D1*
X38478135D2*
X38860325D1*
X1139763Y2645151D2*
X3817007D1*
X4406044D2*
X6039507D1*
X6628544D2*
X8262007D1*
X8851044D2*
X10484507D1*
X11073544D2*
X12707007D1*
X13296044D2*
X14929507D1*
X15518544D2*
X17152007D1*
X17741044D2*
X22295507D1*
X22884544D2*
X24518007D1*
X25107044D2*
X26740507D1*
X27329544D2*
X28963007D1*
X29552044D2*
X31185507D1*
X31774544D2*
X33408007D1*
X33997044D2*
X35630507D1*
X36219544D2*
X38860325D1*
X1139763Y2581984D2*
X3832386D1*
X4390665D2*
X6054886D1*
X6613165D2*
X8277386D1*
X8835665D2*
X10499886D1*
X11058165D2*
X12722386D1*
X13280665D2*
X14944886D1*
X15503165D2*
X17167386D1*
X17725665D2*
X22310886D1*
X22869165D2*
X24533386D1*
X25091665D2*
X26755886D1*
X27314165D2*
X28978386D1*
X29536665D2*
X31200886D1*
X31759165D2*
X33423386D1*
X33981665D2*
X35645886D1*
X36204165D2*
X38860325D1*
X1139763Y2518817D2*
X3872445D1*
X4350605D2*
X6094945D1*
X6573105D2*
X8317445D1*
X8795605D2*
X10539945D1*
X11018105D2*
X12762445D1*
X13240605D2*
X14984945D1*
X15463105D2*
X17207445D1*
X17685605D2*
X22350945D1*
X22829105D2*
X24573445D1*
X25051605D2*
X26795945D1*
X27274105D2*
X29018445D1*
X29496605D2*
X31240945D1*
X31719105D2*
X33463445D1*
X33941605D2*
X35685945D1*
X36164105D2*
X38860325D1*
X1139763Y2455651D2*
X3827921D1*
X4395130D2*
X6050421D1*
X6617630D2*
X8272921D1*
X8840130D2*
X10495421D1*
X11062630D2*
X12717921D1*
X13285130D2*
X14940421D1*
X15507630D2*
X17162921D1*
X17730130D2*
X18674891D1*
X19139160D2*
X19174829D1*
X19639098D2*
X20516391D1*
X20980660D2*
X21016329D1*
X21480598D2*
X22306421D1*
X22873630D2*
X24528921D1*
X25096130D2*
X26751421D1*
X27318630D2*
X28973921D1*
X29541130D2*
X31196421D1*
X31763630D2*
X33418921D1*
X33986130D2*
X35641421D1*
X36208630D2*
X38860325D1*
X1139763Y2392484D2*
X3816883D1*
X4406044D2*
X6039383D1*
X6628544D2*
X8261883D1*
X8851044D2*
X10484383D1*
X11073544D2*
X12706883D1*
X13296044D2*
X14929383D1*
X15518544D2*
X17151883D1*
X17741044D2*
X18602089D1*
X19711900D2*
X20443589D1*
X21553400D2*
X22295383D1*
X22884544D2*
X24517883D1*
X25107044D2*
X26740383D1*
X27329544D2*
X28962883D1*
X29552044D2*
X31185383D1*
X31774544D2*
X33407883D1*
X33997044D2*
X35630383D1*
X36219544D2*
X38860325D1*
X1139763Y2329317D2*
X3831766D1*
X4391285D2*
X6054266D1*
X6613785D2*
X8276766D1*
X8836285D2*
X10499266D1*
X11058785D2*
X12721766D1*
X13281285D2*
X14944266D1*
X15503785D2*
X17166766D1*
X17726285D2*
X18571579D1*
X19742410D2*
X20413079D1*
X21583910D2*
X22310266D1*
X22869785D2*
X24532766D1*
X25092285D2*
X26755266D1*
X27314785D2*
X28977766D1*
X29537285D2*
X31200266D1*
X31759785D2*
X33422766D1*
X33982285D2*
X35645266D1*
X36204785D2*
X38860325D1*
X1139763Y2266151D2*
X3883856D1*
X4085195D2*
X4137856D1*
X4339195D2*
X6106356D1*
X6307695D2*
X6360356D1*
X6561695D2*
X8328856D1*
X8530195D2*
X8582856D1*
X8784195D2*
X10551356D1*
X10752695D2*
X10805356D1*
X11006695D2*
X12773856D1*
X12975195D2*
X13027856D1*
X13229195D2*
X14996356D1*
X15197695D2*
X15250356D1*
X15451695D2*
X17218856D1*
X17420195D2*
X17472856D1*
X17674195D2*
X18563518D1*
X19750472D2*
X20405018D1*
X21591972D2*
X22362356D1*
X22563695D2*
X22616356D1*
X22817695D2*
X24584856D1*
X24786195D2*
X24838856D1*
X25040195D2*
X26807356D1*
X27008695D2*
X27061356D1*
X27262695D2*
X29029856D1*
X29231195D2*
X29283856D1*
X29485195D2*
X31252356D1*
X31453695D2*
X31506356D1*
X31707695D2*
X33474856D1*
X33676195D2*
X33728856D1*
X33930195D2*
X35697356D1*
X35898695D2*
X35951356D1*
X36152695D2*
X38860325D1*
X1139763Y2202984D2*
X18574432D1*
X19739557D2*
X20415932D1*
X21581057D2*
X38860325D1*
X1139763Y2139817D2*
X18608538D1*
X19705451D2*
X20450038D1*
X21546951D2*
X38860325D1*
X1139763Y2076651D2*
X18688285D1*
X19125765D2*
X19188224D1*
X19625828D2*
X20529785D1*
X20967265D2*
X21029724D1*
X21467328D2*
X38860325D1*
X1139763Y2013484D2*
X38860325D1*
X1139763Y1950317D2*
X38860325D1*
X1139763Y1887151D2*
X38860325D1*
X1139763Y1823984D2*
X38860325D1*
X1139763Y1760817D2*
X38860325D1*
X1139763Y1697651D2*
X1274650D1*
X1487400D2*
X7878650D1*
X8091400D2*
X14482650D1*
X14695400D2*
X17784650D1*
X17997400D2*
X18681836D1*
X19132215D2*
X19181774D1*
X19632153D2*
X20523336D1*
X20973715D2*
X21023274D1*
X21473653D2*
X21975650D1*
X22188400D2*
X25277650D1*
X25490400D2*
X31881650D1*
X32094400D2*
X38485650D1*
X38698400D2*
X38860325D1*
X1139763Y1634484D2*
X1160144D1*
X1601874D2*
X7764177D1*
X8205874D2*
X14368177D1*
X14809874D2*
X17670177D1*
X18111874D2*
X18605438D1*
X19708552D2*
X20446938D1*
X21550052D2*
X21861177D1*
X22302874D2*
X25163177D1*
X25604874D2*
X31767177D1*
X32208874D2*
X38371177D1*
X38812874D2*
X38860325D1*
X1659545Y1571317D2*
X7706506D1*
X8263545D2*
X14310506D1*
X14867545D2*
X17612506D1*
X18169545D2*
X18573067D1*
X19740922D2*
X20414567D1*
X21582422D2*
X21803506D1*
X22360545D2*
X25105506D1*
X25662545D2*
X31709506D1*
X32266545D2*
X38313506D1*
X1694147Y1508151D2*
X7671903D1*
X8298147D2*
X14275903D1*
X14902147D2*
X17577903D1*
X18204147D2*
X18563518D1*
X19750472D2*
X20405018D1*
X21591972D2*
X21768903D1*
X22395147D2*
X25070903D1*
X25697147D2*
X31674903D1*
X32301147D2*
X38278903D1*
X1713247Y1444984D2*
X7652804D1*
X8317247D2*
X14256804D1*
X14921247D2*
X17558804D1*
X18223247D2*
X18572943D1*
X19741046D2*
X20414443D1*
X21582546D2*
X21749804D1*
X22414247D2*
X25051804D1*
X25716247D2*
X31655804D1*
X32320247D2*
X38259804D1*
X1719448Y1381817D2*
X7646603D1*
X8323448D2*
X14250603D1*
X14927448D2*
X17552603D1*
X18229448D2*
X18605190D1*
X19708800D2*
X20446690D1*
X21550300D2*
X21743603D1*
X22420448D2*
X25045603D1*
X25722448D2*
X31649603D1*
X32326448D2*
X38253603D1*
X1713495Y1318651D2*
X7652432D1*
X8317495D2*
X14256432D1*
X14921495D2*
X17558432D1*
X18223495D2*
X18681340D1*
X19132711D2*
X19181278D1*
X19632773D2*
X20522840D1*
X20974211D2*
X21022778D1*
X21474273D2*
X21749432D1*
X22414495D2*
X25051432D1*
X25716495D2*
X31655432D1*
X32320495D2*
X38259432D1*
X1694767Y1255484D2*
X7671159D1*
X8298767D2*
X14275159D1*
X14902767D2*
X17577159D1*
X18204767D2*
X21768159D1*
X22395767D2*
X25070159D1*
X25697767D2*
X31674159D1*
X32301767D2*
X38278159D1*
X1660661Y1192317D2*
X7705390D1*
X8264661D2*
X14309390D1*
X14868661D2*
X17611390D1*
X18170661D2*
X21802390D1*
X22361661D2*
X25104390D1*
X25663661D2*
X31708390D1*
X32267661D2*
X38312390D1*
X25100293Y3908346D2*
X25096334Y3883348D1*
X25088513Y3859278D1*
X25077023Y3836727D1*
X25062146Y3816251D1*
X25044250Y3798355D1*
X25038850Y3794098D1*
X25053550Y3781050D1*
X25069987Y3761804D1*
X25083211Y3740225D1*
X25092896Y3716842D1*
X25098805Y3692232D1*
X25100791Y3667001D1*
X25098805Y3641769D1*
X25092896Y3617159D1*
X25083211Y3593776D1*
X25069987Y3572197D1*
X25053550Y3552951D1*
X25038850Y3540098D1*
X25053550Y3527050D1*
X25069987Y3507804D1*
X25083211Y3486225D1*
X25092896Y3462842D1*
X25098805Y3438232D1*
X25100791Y3413001D1*
X25098805Y3387769D1*
X25092896Y3363159D1*
X25083211Y3339776D1*
X25069987Y3318197D1*
X25053550Y3298951D1*
X25038850Y3286098D1*
X25055138Y3271439D1*
X25071341Y3251912D1*
X25084281Y3230086D1*
X25093638Y3206501D1*
X25099180Y3181739D1*
X25100791Y3159001D1*
X25098795Y3133705D1*
X25092856Y3109036D1*
X25083123Y3085604D1*
X25069835Y3063988D1*
X25053321Y3044723D1*
X25038923Y3032003D1*
X25055138Y3017439D1*
X25071341Y2997912D1*
X25084281Y2976086D1*
X25093638Y2952501D1*
X25099180Y2927739D1*
X25100791Y2905001D1*
X25098795Y2879705D1*
X25092856Y2855036D1*
X25083123Y2831604D1*
X25069835Y2809988D1*
X25053321Y2790723D1*
X25038923Y2778003D1*
X25055138Y2763439D1*
X25071341Y2743912D1*
X25084281Y2722086D1*
X25093638Y2698501D1*
X25099180Y2673739D1*
X25100791Y2651001D1*
X25098795Y2625705D1*
X25092856Y2601036D1*
X25083123Y2577604D1*
X25069835Y2555988D1*
X25053321Y2536723D1*
X25038923Y2524003D1*
X25053550Y2511050D1*
X25069987Y2491804D1*
X25083211Y2470225D1*
X25092896Y2446842D1*
X25098805Y2422232D1*
X25100791Y2397001D1*
X25098805Y2371769D1*
X25092896Y2347159D1*
X25083211Y2323776D1*
X25069987Y2302197D1*
X25053550Y2282951D1*
X25034304Y2266514D1*
X25012725Y2253290D1*
X24989342Y2243605D1*
X24964732Y2237696D1*
X24939501Y2235711D1*
X24914269Y2237696D1*
X24889659Y2243605D1*
X24866276Y2253290D1*
X24844697Y2266514D1*
X24825451Y2282951D1*
X24812598Y2297651D1*
X24799550Y2282951D1*
X24780304Y2266514D1*
X24758725Y2253290D1*
X24735342Y2243605D1*
X24710732Y2237696D1*
X24685501Y2235711D1*
X24660269Y2237696D1*
X24635659Y2243605D1*
X24612276Y2253290D1*
X24590697Y2266514D1*
X24571451Y2282951D1*
X24555014Y2302197D1*
X24541790Y2323776D1*
X24532105Y2347159D1*
X24526196Y2371769D1*
X24524211Y2397001D1*
X24526196Y2422232D1*
X24532105Y2446842D1*
X24541790Y2470225D1*
X24555014Y2491804D1*
X24571451Y2511050D1*
X24586151Y2523904D1*
X24570768Y2537639D1*
X24554409Y2557035D1*
X24541295Y2578757D1*
X24531749Y2602267D1*
X24526009Y2626983D1*
X24524216Y2652293D1*
X24526414Y2677571D1*
X24532550Y2702192D1*
X24542471Y2725546D1*
X24555932Y2747055D1*
X24572599Y2766186D1*
X24586089Y2777989D1*
X24570768Y2791639D1*
X24554409Y2811035D1*
X24541295Y2832757D1*
X24531749Y2856267D1*
X24526009Y2880983D1*
X24524216Y2906293D1*
X24526414Y2931571D1*
X24532550Y2956192D1*
X24542471Y2979546D1*
X24555932Y3001055D1*
X24572599Y3020186D1*
X24586089Y3031989D1*
X24570768Y3045639D1*
X24554409Y3065035D1*
X24541295Y3086757D1*
X24531749Y3110267D1*
X24526009Y3134983D1*
X24524216Y3160293D1*
X24526414Y3185571D1*
X24532550Y3210192D1*
X24542471Y3233546D1*
X24555932Y3255055D1*
X24572599Y3274186D1*
X24586089Y3285989D1*
X24571451Y3298951D1*
X24555014Y3318197D1*
X24541790Y3339776D1*
X24532105Y3363159D1*
X24526196Y3387769D1*
X24524211Y3413001D1*
X24526196Y3438232D1*
X24532105Y3462842D1*
X24541790Y3486225D1*
X24555014Y3507804D1*
X24571451Y3527050D1*
X24586151Y3539904D1*
X24571451Y3552951D1*
X24555014Y3572197D1*
X24541790Y3593776D1*
X24532105Y3617159D1*
X24526196Y3641769D1*
X24524211Y3667001D1*
X24526196Y3692232D1*
X24532105Y3716842D1*
X24541790Y3740225D1*
X24555014Y3761804D1*
X24571451Y3781050D1*
X24586151Y3793904D1*
X24571451Y3806951D1*
X24555014Y3826197D1*
X24541790Y3847776D1*
X24532105Y3871159D1*
X24526196Y3895769D1*
X24524211Y3921001D1*
X24526196Y3946232D1*
X24532105Y3970842D1*
X24541790Y3994225D1*
X24555014Y4015804D1*
X24571451Y4035050D1*
X24586151Y4047904D1*
X24571451Y4060951D1*
X24555014Y4080197D1*
X24541790Y4101776D1*
X24532105Y4125159D1*
X24526196Y4149769D1*
X24524211Y4175001D1*
X24526196Y4200232D1*
X24532105Y4224842D1*
X24541790Y4248225D1*
X24555014Y4269804D1*
X24571451Y4289050D1*
X24590697Y4305487D1*
X24612276Y4318711D1*
X24635659Y4328396D1*
X24660269Y4334305D1*
X24685501Y4336291D1*
X24710732Y4334305D1*
X24735342Y4328396D1*
X24758725Y4318711D1*
X24778207Y4306889D1*
X24778211Y4336291D1*
X25100791D1*
Y4013710D1*
X25071397D1*
X25083211Y3994225D1*
X25092896Y3970842D1*
X25098805Y3946232D1*
X25100791Y3921001D1*
X25100293Y3908346D1*
X6621793D2*
X6617834Y3883348D1*
X6610013Y3859278D1*
X6598523Y3836727D1*
X6583646Y3816251D1*
X6565750Y3798355D1*
X6560350Y3794098D1*
X6575050Y3781050D1*
X6591487Y3761804D1*
X6604711Y3740225D1*
X6614396Y3716842D1*
X6620305Y3692232D1*
X6622291Y3667001D1*
X6620305Y3641769D1*
X6614396Y3617159D1*
X6604711Y3593776D1*
X6591487Y3572197D1*
X6575050Y3552951D1*
X6560350Y3540098D1*
X6575050Y3527050D1*
X6591487Y3507804D1*
X6604711Y3486225D1*
X6614396Y3462842D1*
X6620305Y3438232D1*
X6622291Y3413001D1*
X6620305Y3387769D1*
X6614396Y3363159D1*
X6604711Y3339776D1*
X6591487Y3318197D1*
X6575050Y3298951D1*
X6560350Y3286098D1*
X6576638Y3271439D1*
X6592841Y3251912D1*
X6605781Y3230086D1*
X6615138Y3206501D1*
X6620680Y3181739D1*
X6622291Y3159001D1*
X6620295Y3133705D1*
X6614356Y3109036D1*
X6604623Y3085604D1*
X6591335Y3063988D1*
X6574821Y3044723D1*
X6560423Y3032003D1*
X6576638Y3017439D1*
X6592841Y2997912D1*
X6605781Y2976086D1*
X6615138Y2952501D1*
X6620680Y2927739D1*
X6622291Y2905001D1*
X6620295Y2879705D1*
X6614356Y2855036D1*
X6604623Y2831604D1*
X6591335Y2809988D1*
X6574821Y2790723D1*
X6560423Y2778003D1*
X6576638Y2763439D1*
X6592841Y2743912D1*
X6605781Y2722086D1*
X6615138Y2698501D1*
X6620680Y2673739D1*
X6622291Y2651001D1*
X6620295Y2625705D1*
X6614356Y2601036D1*
X6604623Y2577604D1*
X6591335Y2555988D1*
X6574821Y2536723D1*
X6560423Y2524003D1*
X6575050Y2511050D1*
X6591487Y2491804D1*
X6604711Y2470225D1*
X6614396Y2446842D1*
X6620305Y2422232D1*
X6622291Y2397001D1*
X6620305Y2371769D1*
X6614396Y2347159D1*
X6604711Y2323776D1*
X6591487Y2302197D1*
X6575050Y2282951D1*
X6555804Y2266514D1*
X6534225Y2253290D1*
X6510842Y2243605D1*
X6486232Y2237696D1*
X6461001Y2235711D1*
X6435769Y2237696D1*
X6411159Y2243605D1*
X6387776Y2253290D1*
X6366197Y2266514D1*
X6346951Y2282951D1*
X6334098Y2297651D1*
X6321050Y2282951D1*
X6301804Y2266514D1*
X6280225Y2253290D1*
X6256842Y2243605D1*
X6232232Y2237696D1*
X6207001Y2235711D1*
X6181769Y2237696D1*
X6157159Y2243605D1*
X6133776Y2253290D1*
X6112197Y2266514D1*
X6092951Y2282951D1*
X6076514Y2302197D1*
X6063290Y2323776D1*
X6053605Y2347159D1*
X6047696Y2371769D1*
X6045711Y2397001D1*
X6047696Y2422232D1*
X6053605Y2446842D1*
X6063290Y2470225D1*
X6076514Y2491804D1*
X6092951Y2511050D1*
X6107651Y2523904D1*
X6092268Y2537639D1*
X6075909Y2557035D1*
X6062795Y2578757D1*
X6053249Y2602267D1*
X6047509Y2626983D1*
X6045716Y2652293D1*
X6047914Y2677571D1*
X6054050Y2702192D1*
X6063971Y2725546D1*
X6077432Y2747055D1*
X6094099Y2766186D1*
X6107589Y2777989D1*
X6092268Y2791639D1*
X6075909Y2811035D1*
X6062795Y2832757D1*
X6053249Y2856267D1*
X6047509Y2880983D1*
X6045716Y2906293D1*
X6047914Y2931571D1*
X6054050Y2956192D1*
X6063971Y2979546D1*
X6077432Y3001055D1*
X6094099Y3020186D1*
X6107589Y3031989D1*
X6092268Y3045639D1*
X6075909Y3065035D1*
X6062795Y3086757D1*
X6053249Y3110267D1*
X6047509Y3134983D1*
X6045716Y3160293D1*
X6047914Y3185571D1*
X6054050Y3210192D1*
X6063971Y3233546D1*
X6077432Y3255055D1*
X6094099Y3274186D1*
X6107589Y3285989D1*
X6092951Y3298951D1*
X6076514Y3318197D1*
X6063290Y3339776D1*
X6053605Y3363159D1*
X6047696Y3387769D1*
X6045711Y3413001D1*
X6047696Y3438232D1*
X6053605Y3462842D1*
X6063290Y3486225D1*
X6076514Y3507804D1*
X6092951Y3527050D1*
X6107651Y3539904D1*
X6092951Y3552951D1*
X6076514Y3572197D1*
X6063290Y3593776D1*
X6053605Y3617159D1*
X6047696Y3641769D1*
X6045711Y3667001D1*
X6047696Y3692232D1*
X6053605Y3716842D1*
X6063290Y3740225D1*
X6076514Y3761804D1*
X6092951Y3781050D1*
X6107651Y3793904D1*
X6092951Y3806951D1*
X6076514Y3826197D1*
X6063290Y3847776D1*
X6053605Y3871159D1*
X6047696Y3895769D1*
X6045711Y3921001D1*
X6047696Y3946232D1*
X6053605Y3970842D1*
X6063290Y3994225D1*
X6076514Y4015804D1*
X6092951Y4035050D1*
X6107651Y4047904D1*
X6092951Y4060951D1*
X6076514Y4080197D1*
X6063290Y4101776D1*
X6053605Y4125159D1*
X6047696Y4149769D1*
X6045711Y4175001D1*
X6047696Y4200232D1*
X6053605Y4224842D1*
X6063290Y4248225D1*
X6076514Y4269804D1*
X6092951Y4289050D1*
X6112197Y4305487D1*
X6133776Y4318711D1*
X6157159Y4328396D1*
X6181769Y4334305D1*
X6207001Y4336291D1*
X6232232Y4334305D1*
X6256842Y4328396D1*
X6280225Y4318711D1*
X6299707Y4306889D1*
X6299711Y4336290D1*
X6622291D1*
Y4013710D1*
X6592897D1*
X6604711Y3994225D1*
X6614396Y3970842D1*
X6620305Y3946232D1*
X6622291Y3921001D1*
X6621793Y3908346D1*
X15511793D2*
X15507834Y3883348D1*
X15500013Y3859278D1*
X15488523Y3836727D1*
X15473646Y3816251D1*
X15455750Y3798355D1*
X15450350Y3794098D1*
X15465050Y3781050D1*
X15481487Y3761804D1*
X15494711Y3740225D1*
X15504396Y3716842D1*
X15510305Y3692232D1*
X15512291Y3667001D1*
X15510305Y3641769D1*
X15504396Y3617159D1*
X15494711Y3593776D1*
X15481487Y3572197D1*
X15465050Y3552951D1*
X15450350Y3540098D1*
X15465050Y3527050D1*
X15481487Y3507804D1*
X15494711Y3486225D1*
X15504396Y3462842D1*
X15510305Y3438232D1*
X15512291Y3413001D1*
X15510305Y3387769D1*
X15504396Y3363159D1*
X15494711Y3339776D1*
X15481487Y3318197D1*
X15465050Y3298951D1*
X15450350Y3286098D1*
X15466638Y3271439D1*
X15482841Y3251912D1*
X15495781Y3230086D1*
X15505138Y3206501D1*
X15510680Y3181739D1*
X15512291Y3159001D1*
X15510295Y3133705D1*
X15504356Y3109036D1*
X15494623Y3085604D1*
X15481335Y3063988D1*
X15464821Y3044723D1*
X15450423Y3032003D1*
X15466638Y3017439D1*
X15482841Y2997912D1*
X15495781Y2976086D1*
X15505138Y2952501D1*
X15510680Y2927739D1*
X15512291Y2905001D1*
X15510295Y2879705D1*
X15504356Y2855036D1*
X15494623Y2831604D1*
X15481335Y2809988D1*
X15464821Y2790723D1*
X15450423Y2778003D1*
X15466638Y2763439D1*
X15482841Y2743912D1*
X15495781Y2722086D1*
X15505138Y2698501D1*
X15510680Y2673739D1*
X15512291Y2651001D1*
X15510295Y2625705D1*
X15504356Y2601036D1*
X15494623Y2577604D1*
X15481335Y2555988D1*
X15464821Y2536723D1*
X15450423Y2524003D1*
X15465050Y2511050D1*
X15481487Y2491804D1*
X15494711Y2470225D1*
X15504396Y2446842D1*
X15510305Y2422232D1*
X15512291Y2397001D1*
X15510305Y2371769D1*
X15504396Y2347159D1*
X15494711Y2323776D1*
X15481487Y2302197D1*
X15465050Y2282951D1*
X15445804Y2266514D1*
X15424225Y2253290D1*
X15400842Y2243605D1*
X15376232Y2237696D1*
X15351001Y2235711D1*
X15325769Y2237696D1*
X15301159Y2243605D1*
X15277776Y2253290D1*
X15256197Y2266514D1*
X15236951Y2282951D1*
X15224098Y2297651D1*
X15211050Y2282951D1*
X15191804Y2266514D1*
X15170225Y2253290D1*
X15146842Y2243605D1*
X15122232Y2237696D1*
X15097001Y2235711D1*
X15071769Y2237696D1*
X15047159Y2243605D1*
X15023776Y2253290D1*
X15002197Y2266514D1*
X14982951Y2282951D1*
X14966514Y2302197D1*
X14953290Y2323776D1*
X14943605Y2347159D1*
X14937696Y2371769D1*
X14935711Y2397001D1*
X14937696Y2422232D1*
X14943605Y2446842D1*
X14953290Y2470225D1*
X14966514Y2491804D1*
X14982951Y2511050D1*
X14997651Y2523904D1*
X14982268Y2537639D1*
X14965909Y2557035D1*
X14952795Y2578757D1*
X14943249Y2602267D1*
X14937509Y2626983D1*
X14935716Y2652293D1*
X14937914Y2677571D1*
X14944050Y2702192D1*
X14953971Y2725546D1*
X14967432Y2747055D1*
X14984099Y2766186D1*
X14997589Y2777989D1*
X14982268Y2791639D1*
X14965909Y2811035D1*
X14952795Y2832757D1*
X14943249Y2856267D1*
X14937509Y2880983D1*
X14935716Y2906293D1*
X14937914Y2931571D1*
X14944050Y2956192D1*
X14953971Y2979546D1*
X14967432Y3001055D1*
X14984099Y3020186D1*
X14997589Y3031989D1*
X14982268Y3045639D1*
X14965909Y3065035D1*
X14952795Y3086757D1*
X14943249Y3110267D1*
X14937509Y3134983D1*
X14935716Y3160293D1*
X14937914Y3185571D1*
X14944050Y3210192D1*
X14953971Y3233546D1*
X14967432Y3255055D1*
X14984099Y3274186D1*
X14997589Y3285989D1*
X14982951Y3298951D1*
X14966514Y3318197D1*
X14953290Y3339776D1*
X14943605Y3363159D1*
X14937696Y3387769D1*
X14935711Y3413001D1*
X14937696Y3438232D1*
X14943605Y3462842D1*
X14953290Y3486225D1*
X14966514Y3507804D1*
X14982951Y3527050D1*
X14997651Y3539904D1*
X14982951Y3552951D1*
X14966514Y3572197D1*
X14953290Y3593776D1*
X14943605Y3617159D1*
X14937696Y3641769D1*
X14935711Y3667001D1*
X14937696Y3692232D1*
X14943605Y3716842D1*
X14953290Y3740225D1*
X14966514Y3761804D1*
X14982951Y3781050D1*
X14997651Y3793904D1*
X14982951Y3806951D1*
X14966514Y3826197D1*
X14953290Y3847776D1*
X14943605Y3871159D1*
X14937696Y3895769D1*
X14935711Y3921001D1*
X14937696Y3946232D1*
X14943605Y3970842D1*
X14953290Y3994225D1*
X14966514Y4015804D1*
X14982951Y4035050D1*
X14997651Y4047904D1*
X14982951Y4060951D1*
X14966514Y4080197D1*
X14953290Y4101776D1*
X14943605Y4125159D1*
X14937696Y4149769D1*
X14935711Y4175001D1*
X14937696Y4200232D1*
X14943605Y4224842D1*
X14953290Y4248225D1*
X14966514Y4269804D1*
X14982951Y4289050D1*
X15002197Y4305487D1*
X15023776Y4318711D1*
X15047159Y4328396D1*
X15071769Y4334305D1*
X15097001Y4336291D1*
X15122232Y4334305D1*
X15146842Y4328396D1*
X15170225Y4318711D1*
X15189707Y4306889D1*
X15189711Y4336290D1*
X15512291D1*
Y4013710D1*
X15482897D1*
X15494711Y3994225D1*
X15504396Y3970842D1*
X15510305Y3946232D1*
X15512291Y3921001D1*
X15511793Y3908346D1*
X33990293D2*
X33986334Y3883348D1*
X33978513Y3859278D1*
X33967023Y3836727D1*
X33952146Y3816251D1*
X33934250Y3798355D1*
X33928850Y3794098D1*
X33943550Y3781050D1*
X33959987Y3761804D1*
X33973211Y3740225D1*
X33982896Y3716842D1*
X33988805Y3692232D1*
X33990791Y3667001D1*
X33988805Y3641769D1*
X33982896Y3617159D1*
X33973211Y3593776D1*
X33959987Y3572197D1*
X33943550Y3552951D1*
X33928850Y3540098D1*
X33943550Y3527050D1*
X33959987Y3507804D1*
X33973211Y3486225D1*
X33982896Y3462842D1*
X33988805Y3438232D1*
X33990791Y3413001D1*
X33988805Y3387769D1*
X33982896Y3363159D1*
X33973211Y3339776D1*
X33959987Y3318197D1*
X33943550Y3298951D1*
X33928850Y3286098D1*
X33945138Y3271439D1*
X33961341Y3251912D1*
X33974281Y3230086D1*
X33983638Y3206501D1*
X33989180Y3181739D1*
X33990791Y3159001D1*
X33988795Y3133705D1*
X33982856Y3109036D1*
X33973123Y3085604D1*
X33959835Y3063988D1*
X33943321Y3044723D1*
X33928923Y3032003D1*
X33945138Y3017439D1*
X33961341Y2997912D1*
X33974281Y2976086D1*
X33983638Y2952501D1*
X33989180Y2927739D1*
X33990791Y2905001D1*
X33988795Y2879705D1*
X33982856Y2855036D1*
X33973123Y2831604D1*
X33959835Y2809988D1*
X33943321Y2790723D1*
X33928923Y2778003D1*
X33945138Y2763439D1*
X33961341Y2743912D1*
X33974281Y2722086D1*
X33983638Y2698501D1*
X33989180Y2673739D1*
X33990791Y2651001D1*
X33988795Y2625705D1*
X33982856Y2601036D1*
X33973123Y2577604D1*
X33959835Y2555988D1*
X33943321Y2536723D1*
X33928923Y2524003D1*
X33943550Y2511050D1*
X33959987Y2491804D1*
X33973211Y2470225D1*
X33982896Y2446842D1*
X33988805Y2422232D1*
X33990791Y2397001D1*
X33988805Y2371769D1*
X33982896Y2347159D1*
X33973211Y2323776D1*
X33959987Y2302197D1*
X33943550Y2282951D1*
X33924304Y2266514D1*
X33902725Y2253290D1*
X33879342Y2243605D1*
X33854732Y2237696D1*
X33829501Y2235711D1*
X33804269Y2237696D1*
X33779659Y2243605D1*
X33756276Y2253290D1*
X33734697Y2266514D1*
X33715451Y2282951D1*
X33702598Y2297651D1*
X33689550Y2282951D1*
X33670304Y2266514D1*
X33648725Y2253290D1*
X33625342Y2243605D1*
X33600732Y2237696D1*
X33575501Y2235711D1*
X33550269Y2237696D1*
X33525659Y2243605D1*
X33502276Y2253290D1*
X33480697Y2266514D1*
X33461451Y2282951D1*
X33445014Y2302197D1*
X33431790Y2323776D1*
X33422105Y2347159D1*
X33416196Y2371769D1*
X33414211Y2397001D1*
X33416196Y2422232D1*
X33422105Y2446842D1*
X33431790Y2470225D1*
X33445014Y2491804D1*
X33461451Y2511050D1*
X33476151Y2523904D1*
X33460768Y2537639D1*
X33444409Y2557035D1*
X33431295Y2578757D1*
X33421749Y2602267D1*
X33416009Y2626983D1*
X33414216Y2652293D1*
X33416414Y2677571D1*
X33422550Y2702192D1*
X33432471Y2725546D1*
X33445932Y2747055D1*
X33462599Y2766186D1*
X33476089Y2777989D1*
X33460768Y2791639D1*
X33444409Y2811035D1*
X33431295Y2832757D1*
X33421749Y2856267D1*
X33416009Y2880983D1*
X33414216Y2906293D1*
X33416414Y2931571D1*
X33422550Y2956192D1*
X33432471Y2979546D1*
X33445932Y3001055D1*
X33462599Y3020186D1*
X33476089Y3031989D1*
X33460768Y3045639D1*
X33444409Y3065035D1*
X33431295Y3086757D1*
X33421749Y3110267D1*
X33416009Y3134983D1*
X33414216Y3160293D1*
X33416414Y3185571D1*
X33422550Y3210192D1*
X33432471Y3233546D1*
X33445932Y3255055D1*
X33462599Y3274186D1*
X33476089Y3285989D1*
X33461451Y3298951D1*
X33445014Y3318197D1*
X33431790Y3339776D1*
X33422105Y3363159D1*
X33416196Y3387769D1*
X33414211Y3413001D1*
X33416196Y3438232D1*
X33422105Y3462842D1*
X33431790Y3486225D1*
X33445014Y3507804D1*
X33461451Y3527050D1*
X33476151Y3539904D1*
X33461451Y3552951D1*
X33445014Y3572197D1*
X33431790Y3593776D1*
X33422105Y3617159D1*
X33416196Y3641769D1*
X33414211Y3667001D1*
X33416196Y3692232D1*
X33422105Y3716842D1*
X33431790Y3740225D1*
X33445014Y3761804D1*
X33461451Y3781050D1*
X33476151Y3793904D1*
X33461451Y3806951D1*
X33445014Y3826197D1*
X33431790Y3847776D1*
X33422105Y3871159D1*
X33416196Y3895769D1*
X33414211Y3921001D1*
X33416196Y3946232D1*
X33422105Y3970842D1*
X33431790Y3994225D1*
X33445014Y4015804D1*
X33461451Y4035050D1*
X33476151Y4047904D1*
X33461451Y4060951D1*
X33445014Y4080197D1*
X33431790Y4101776D1*
X33422105Y4125159D1*
X33416196Y4149769D1*
X33414211Y4175001D1*
X33416196Y4200232D1*
X33422105Y4224842D1*
X33431790Y4248225D1*
X33445014Y4269804D1*
X33461451Y4289050D1*
X33480697Y4305487D1*
X33502276Y4318711D1*
X33525659Y4328396D1*
X33550269Y4334305D1*
X33575501Y4336291D1*
X33600732Y4334305D1*
X33625342Y4328396D1*
X33648725Y4318711D1*
X33668207Y4306889D1*
X33668211Y4336290D1*
X33990791D1*
Y4013710D1*
X33961397D1*
X33973211Y3994225D1*
X33982896Y3970842D1*
X33988805Y3946232D1*
X33990791Y3921001D1*
X33990293Y3908346D1*
X31767793D2*
X31763834Y3883348D1*
X31756013Y3859278D1*
X31744523Y3836727D1*
X31729646Y3816251D1*
X31711750Y3798355D1*
X31706350Y3794098D1*
X31721050Y3781050D1*
X31737487Y3761804D1*
X31750711Y3740225D1*
X31760396Y3716842D1*
X31766305Y3692232D1*
X31768291Y3667001D1*
X31766305Y3641769D1*
X31760396Y3617159D1*
X31750711Y3593776D1*
X31737487Y3572197D1*
X31721050Y3552951D1*
X31706350Y3540098D1*
X31721050Y3527050D1*
X31737487Y3507804D1*
X31750711Y3486225D1*
X31760396Y3462842D1*
X31766305Y3438232D1*
X31768291Y3413001D1*
X31766305Y3387769D1*
X31760396Y3363159D1*
X31750711Y3339776D1*
X31737487Y3318197D1*
X31721050Y3298951D1*
X31706350Y3286098D1*
X31722638Y3271439D1*
X31738841Y3251912D1*
X31751781Y3230086D1*
X31761138Y3206501D1*
X31766680Y3181739D1*
X31768291Y3159001D1*
X31766295Y3133705D1*
X31760356Y3109036D1*
X31750623Y3085604D1*
X31737335Y3063988D1*
X31720821Y3044723D1*
X31706423Y3032003D1*
X31722638Y3017439D1*
X31738841Y2997912D1*
X31751781Y2976086D1*
X31761138Y2952501D1*
X31766680Y2927739D1*
X31768291Y2905001D1*
X31766295Y2879705D1*
X31760356Y2855036D1*
X31750623Y2831604D1*
X31737335Y2809988D1*
X31720821Y2790723D1*
X31706423Y2778003D1*
X31722638Y2763439D1*
X31738841Y2743912D1*
X31751781Y2722086D1*
X31761138Y2698501D1*
X31766680Y2673739D1*
X31768291Y2651001D1*
X31766295Y2625705D1*
X31760356Y2601036D1*
X31750623Y2577604D1*
X31737335Y2555988D1*
X31720821Y2536723D1*
X31706423Y2524003D1*
X31721050Y2511050D1*
X31737487Y2491804D1*
X31750711Y2470225D1*
X31760396Y2446842D1*
X31766305Y2422232D1*
X31768291Y2397001D1*
X31766305Y2371769D1*
X31760396Y2347159D1*
X31750711Y2323776D1*
X31737487Y2302197D1*
X31721050Y2282951D1*
X31701804Y2266514D1*
X31680225Y2253290D1*
X31656842Y2243605D1*
X31632232Y2237696D1*
X31607001Y2235711D1*
X31581769Y2237696D1*
X31557159Y2243605D1*
X31533776Y2253290D1*
X31512197Y2266514D1*
X31492951Y2282951D1*
X31480098Y2297651D1*
X31467050Y2282951D1*
X31447804Y2266514D1*
X31426225Y2253290D1*
X31402842Y2243605D1*
X31378232Y2237696D1*
X31353001Y2235711D1*
X31327769Y2237696D1*
X31303159Y2243605D1*
X31279776Y2253290D1*
X31258197Y2266514D1*
X31238951Y2282951D1*
X31222514Y2302197D1*
X31209290Y2323776D1*
X31199605Y2347159D1*
X31193696Y2371769D1*
X31191711Y2397001D1*
X31193696Y2422232D1*
X31199605Y2446842D1*
X31209290Y2470225D1*
X31222514Y2491804D1*
X31238951Y2511050D1*
X31253651Y2523904D1*
X31238268Y2537639D1*
X31221909Y2557035D1*
X31208795Y2578757D1*
X31199249Y2602267D1*
X31193509Y2626983D1*
X31191716Y2652293D1*
X31193914Y2677571D1*
X31200050Y2702192D1*
X31209971Y2725546D1*
X31223432Y2747055D1*
X31240099Y2766186D1*
X31253589Y2777989D1*
X31238268Y2791639D1*
X31221909Y2811035D1*
X31208795Y2832757D1*
X31199249Y2856267D1*
X31193509Y2880983D1*
X31191716Y2906293D1*
X31193914Y2931571D1*
X31200050Y2956192D1*
X31209971Y2979546D1*
X31223432Y3001055D1*
X31240099Y3020186D1*
X31253589Y3031989D1*
X31238268Y3045639D1*
X31221909Y3065035D1*
X31208795Y3086757D1*
X31199249Y3110267D1*
X31193509Y3134983D1*
X31191716Y3160293D1*
X31193914Y3185571D1*
X31200050Y3210192D1*
X31209971Y3233546D1*
X31223432Y3255055D1*
X31240099Y3274186D1*
X31253589Y3285989D1*
X31238951Y3298951D1*
X31222514Y3318197D1*
X31209290Y3339776D1*
X31199605Y3363159D1*
X31193696Y3387769D1*
X31191711Y3413001D1*
X31193696Y3438232D1*
X31199605Y3462842D1*
X31209290Y3486225D1*
X31222514Y3507804D1*
X31238951Y3527050D1*
X31253651Y3539904D1*
X31238951Y3552951D1*
X31222514Y3572197D1*
X31209290Y3593776D1*
X31199605Y3617159D1*
X31193696Y3641769D1*
X31191711Y3667001D1*
X31193696Y3692232D1*
X31199605Y3716842D1*
X31209290Y3740225D1*
X31222514Y3761804D1*
X31238951Y3781050D1*
X31253651Y3793904D1*
X31238951Y3806951D1*
X31222514Y3826197D1*
X31209290Y3847776D1*
X31199605Y3871159D1*
X31193696Y3895769D1*
X31191711Y3921001D1*
X31193696Y3946232D1*
X31199605Y3970842D1*
X31209290Y3994225D1*
X31222514Y4015804D1*
X31238951Y4035050D1*
X31253651Y4047904D1*
X31238951Y4060951D1*
X31222514Y4080197D1*
X31209290Y4101776D1*
X31199605Y4125159D1*
X31193696Y4149769D1*
X31191711Y4175001D1*
X31193696Y4200232D1*
X31199605Y4224842D1*
X31209290Y4248225D1*
X31222514Y4269804D1*
X31238951Y4289050D1*
X31258197Y4305487D1*
X31279776Y4318711D1*
X31303159Y4328396D1*
X31327769Y4334305D1*
X31353001Y4336291D1*
X31378232Y4334305D1*
X31402842Y4328396D1*
X31426225Y4318711D1*
X31445707Y4306889D1*
X31445711Y4336290D1*
X31768291D1*
Y4013710D1*
X31738897D1*
X31750711Y3994225D1*
X31760396Y3970842D1*
X31766305Y3946232D1*
X31768291Y3921001D1*
X31767793Y3908346D1*
X29545293D2*
X29541334Y3883348D1*
X29533513Y3859278D1*
X29522023Y3836727D1*
X29507146Y3816251D1*
X29489250Y3798355D1*
X29483850Y3794098D1*
X29498550Y3781050D1*
X29514987Y3761804D1*
X29528211Y3740225D1*
X29537896Y3716842D1*
X29543805Y3692232D1*
X29545791Y3667001D1*
X29543805Y3641769D1*
X29537896Y3617159D1*
X29528211Y3593776D1*
X29514987Y3572197D1*
X29498550Y3552951D1*
X29483850Y3540098D1*
X29498550Y3527050D1*
X29514987Y3507804D1*
X29528211Y3486225D1*
X29537896Y3462842D1*
X29543805Y3438232D1*
X29545791Y3413001D1*
X29543805Y3387769D1*
X29537896Y3363159D1*
X29528211Y3339776D1*
X29514987Y3318197D1*
X29498550Y3298951D1*
X29483850Y3286098D1*
X29500138Y3271439D1*
X29516341Y3251912D1*
X29529281Y3230086D1*
X29538638Y3206501D1*
X29544180Y3181739D1*
X29545791Y3159001D1*
X29543795Y3133705D1*
X29537856Y3109036D1*
X29528123Y3085604D1*
X29514835Y3063988D1*
X29498321Y3044723D1*
X29483923Y3032003D1*
X29500138Y3017439D1*
X29516341Y2997912D1*
X29529281Y2976086D1*
X29538638Y2952501D1*
X29544180Y2927739D1*
X29545791Y2905001D1*
X29543795Y2879705D1*
X29537856Y2855036D1*
X29528123Y2831604D1*
X29514835Y2809988D1*
X29498321Y2790723D1*
X29483923Y2778003D1*
X29500138Y2763439D1*
X29516341Y2743912D1*
X29529281Y2722086D1*
X29538638Y2698501D1*
X29544180Y2673739D1*
X29545791Y2651001D1*
X29543795Y2625705D1*
X29537856Y2601036D1*
X29528123Y2577604D1*
X29514835Y2555988D1*
X29498321Y2536723D1*
X29483923Y2524003D1*
X29498550Y2511050D1*
X29514987Y2491804D1*
X29528211Y2470225D1*
X29537896Y2446842D1*
X29543805Y2422232D1*
X29545791Y2397001D1*
X29543805Y2371769D1*
X29537896Y2347159D1*
X29528211Y2323776D1*
X29514987Y2302197D1*
X29498550Y2282951D1*
X29479304Y2266514D1*
X29457725Y2253290D1*
X29434342Y2243605D1*
X29409732Y2237696D1*
X29384501Y2235711D1*
X29359269Y2237696D1*
X29334659Y2243605D1*
X29311276Y2253290D1*
X29289697Y2266514D1*
X29270451Y2282951D1*
X29257598Y2297651D1*
X29244550Y2282951D1*
X29225304Y2266514D1*
X29203725Y2253290D1*
X29180342Y2243605D1*
X29155732Y2237696D1*
X29130501Y2235711D1*
X29105269Y2237696D1*
X29080659Y2243605D1*
X29057276Y2253290D1*
X29035697Y2266514D1*
X29016451Y2282951D1*
X29000014Y2302197D1*
X28986790Y2323776D1*
X28977105Y2347159D1*
X28971196Y2371769D1*
X28969211Y2397001D1*
X28971196Y2422232D1*
X28977105Y2446842D1*
X28986790Y2470225D1*
X29000014Y2491804D1*
X29016451Y2511050D1*
X29031151Y2523904D1*
X29015768Y2537639D1*
X28999409Y2557035D1*
X28986295Y2578757D1*
X28976749Y2602267D1*
X28971009Y2626983D1*
X28969216Y2652293D1*
X28971414Y2677571D1*
X28977550Y2702192D1*
X28987471Y2725546D1*
X29000932Y2747055D1*
X29017599Y2766186D1*
X29031089Y2777989D1*
X29015768Y2791639D1*
X28999409Y2811035D1*
X28986295Y2832757D1*
X28976749Y2856267D1*
X28971009Y2880983D1*
X28969216Y2906293D1*
X28971414Y2931571D1*
X28977550Y2956192D1*
X28987471Y2979546D1*
X29000932Y3001055D1*
X29017599Y3020186D1*
X29031089Y3031989D1*
X29015768Y3045639D1*
X28999409Y3065035D1*
X28986295Y3086757D1*
X28976749Y3110267D1*
X28971009Y3134983D1*
X28969216Y3160293D1*
X28971414Y3185571D1*
X28977550Y3210192D1*
X28987471Y3233546D1*
X29000932Y3255055D1*
X29017599Y3274186D1*
X29031089Y3285989D1*
X29016451Y3298951D1*
X29000014Y3318197D1*
X28986790Y3339776D1*
X28977105Y3363159D1*
X28971196Y3387769D1*
X28969211Y3413001D1*
X28971196Y3438232D1*
X28977105Y3462842D1*
X28986790Y3486225D1*
X29000014Y3507804D1*
X29016451Y3527050D1*
X29031151Y3539904D1*
X29016451Y3552951D1*
X29000014Y3572197D1*
X28986790Y3593776D1*
X28977105Y3617159D1*
X28971196Y3641769D1*
X28969211Y3667001D1*
X28971196Y3692232D1*
X28977105Y3716842D1*
X28986790Y3740225D1*
X29000014Y3761804D1*
X29016451Y3781050D1*
X29031151Y3793904D1*
X29016451Y3806951D1*
X29000014Y3826197D1*
X28986790Y3847776D1*
X28977105Y3871159D1*
X28971196Y3895769D1*
X28969211Y3921001D1*
X28971196Y3946232D1*
X28977105Y3970842D1*
X28986790Y3994225D1*
X29000014Y4015804D1*
X29016451Y4035050D1*
X29031151Y4047904D1*
X29016451Y4060951D1*
X29000014Y4080197D1*
X28986790Y4101776D1*
X28977105Y4125159D1*
X28971196Y4149769D1*
X28969211Y4175001D1*
X28971196Y4200232D1*
X28977105Y4224842D1*
X28986790Y4248225D1*
X29000014Y4269804D1*
X29016451Y4289050D1*
X29035697Y4305487D1*
X29057276Y4318711D1*
X29080659Y4328396D1*
X29105269Y4334305D1*
X29130501Y4336291D1*
X29155732Y4334305D1*
X29180342Y4328396D1*
X29203725Y4318711D1*
X29223207Y4306889D1*
X29223211Y4336290D1*
X29545791D1*
Y4013710D1*
X29516397D1*
X29528211Y3994225D1*
X29537896Y3970842D1*
X29543805Y3946232D1*
X29545791Y3921001D1*
X29545293Y3908346D1*
X27322793D2*
X27318834Y3883348D1*
X27311013Y3859278D1*
X27299523Y3836727D1*
X27284646Y3816251D1*
X27266750Y3798355D1*
X27261350Y3794098D1*
X27276050Y3781050D1*
X27292487Y3761804D1*
X27305711Y3740225D1*
X27315396Y3716842D1*
X27321305Y3692232D1*
X27323291Y3667001D1*
X27321305Y3641769D1*
X27315396Y3617159D1*
X27305711Y3593776D1*
X27292487Y3572197D1*
X27276050Y3552951D1*
X27261350Y3540098D1*
X27276050Y3527050D1*
X27292487Y3507804D1*
X27305711Y3486225D1*
X27315396Y3462842D1*
X27321305Y3438232D1*
X27323291Y3413001D1*
X27321305Y3387769D1*
X27315396Y3363159D1*
X27305711Y3339776D1*
X27292487Y3318197D1*
X27276050Y3298951D1*
X27261350Y3286098D1*
X27277638Y3271439D1*
X27293841Y3251912D1*
X27306781Y3230086D1*
X27316138Y3206501D1*
X27321680Y3181739D1*
X27323291Y3159001D1*
X27321295Y3133705D1*
X27315356Y3109036D1*
X27305623Y3085604D1*
X27292335Y3063988D1*
X27275821Y3044723D1*
X27261423Y3032003D1*
X27277638Y3017439D1*
X27293841Y2997912D1*
X27306781Y2976086D1*
X27316138Y2952501D1*
X27321680Y2927739D1*
X27323291Y2905001D1*
X27321295Y2879705D1*
X27315356Y2855036D1*
X27305623Y2831604D1*
X27292335Y2809988D1*
X27275821Y2790723D1*
X27261423Y2778003D1*
X27277638Y2763439D1*
X27293841Y2743912D1*
X27306781Y2722086D1*
X27316138Y2698501D1*
X27321680Y2673739D1*
X27323291Y2651001D1*
X27321295Y2625705D1*
X27315356Y2601036D1*
X27305623Y2577604D1*
X27292335Y2555988D1*
X27275821Y2536723D1*
X27261423Y2524003D1*
X27276050Y2511050D1*
X27292487Y2491804D1*
X27305711Y2470225D1*
X27315396Y2446842D1*
X27321305Y2422232D1*
X27323291Y2397001D1*
X27321305Y2371769D1*
X27315396Y2347159D1*
X27305711Y2323776D1*
X27292487Y2302197D1*
X27276050Y2282951D1*
X27256804Y2266514D1*
X27235225Y2253290D1*
X27211842Y2243605D1*
X27187232Y2237696D1*
X27162001Y2235711D1*
X27136769Y2237696D1*
X27112159Y2243605D1*
X27088776Y2253290D1*
X27067197Y2266514D1*
X27047951Y2282951D1*
X27035098Y2297651D1*
X27022050Y2282951D1*
X27002804Y2266514D1*
X26981225Y2253290D1*
X26957842Y2243605D1*
X26933232Y2237696D1*
X26908001Y2235711D1*
X26882769Y2237696D1*
X26858159Y2243605D1*
X26834776Y2253290D1*
X26813197Y2266514D1*
X26793951Y2282951D1*
X26777514Y2302197D1*
X26764290Y2323776D1*
X26754605Y2347159D1*
X26748696Y2371769D1*
X26746711Y2397001D1*
X26748696Y2422232D1*
X26754605Y2446842D1*
X26764290Y2470225D1*
X26777514Y2491804D1*
X26793951Y2511050D1*
X26808651Y2523904D1*
X26793268Y2537639D1*
X26776909Y2557035D1*
X26763795Y2578757D1*
X26754249Y2602267D1*
X26748509Y2626983D1*
X26746716Y2652293D1*
X26748914Y2677571D1*
X26755050Y2702192D1*
X26764971Y2725546D1*
X26778432Y2747055D1*
X26795099Y2766186D1*
X26808589Y2777989D1*
X26793268Y2791639D1*
X26776909Y2811035D1*
X26763795Y2832757D1*
X26754249Y2856267D1*
X26748509Y2880983D1*
X26746716Y2906293D1*
X26748914Y2931571D1*
X26755050Y2956192D1*
X26764971Y2979546D1*
X26778432Y3001055D1*
X26795099Y3020186D1*
X26808589Y3031989D1*
X26793268Y3045639D1*
X26776909Y3065035D1*
X26763795Y3086757D1*
X26754249Y3110267D1*
X26748509Y3134983D1*
X26746716Y3160293D1*
X26748914Y3185571D1*
X26755050Y3210192D1*
X26764971Y3233546D1*
X26778432Y3255055D1*
X26795099Y3274186D1*
X26808589Y3285989D1*
X26793951Y3298951D1*
X26777514Y3318197D1*
X26764290Y3339776D1*
X26754605Y3363159D1*
X26748696Y3387769D1*
X26746711Y3413001D1*
X26748696Y3438232D1*
X26754605Y3462842D1*
X26764290Y3486225D1*
X26777514Y3507804D1*
X26793951Y3527050D1*
X26808651Y3539904D1*
X26793951Y3552951D1*
X26777514Y3572197D1*
X26764290Y3593776D1*
X26754605Y3617159D1*
X26748696Y3641769D1*
X26746711Y3667001D1*
X26748696Y3692232D1*
X26754605Y3716842D1*
X26764290Y3740225D1*
X26777514Y3761804D1*
X26793951Y3781050D1*
X26808651Y3793904D1*
X26793951Y3806951D1*
X26777514Y3826197D1*
X26764290Y3847776D1*
X26754605Y3871159D1*
X26748696Y3895769D1*
X26746711Y3921001D1*
X26748696Y3946232D1*
X26754605Y3970842D1*
X26764290Y3994225D1*
X26777514Y4015804D1*
X26793951Y4035050D1*
X26808651Y4047904D1*
X26793951Y4060951D1*
X26777514Y4080197D1*
X26764290Y4101776D1*
X26754605Y4125159D1*
X26748696Y4149769D1*
X26746711Y4175001D1*
X26748696Y4200232D1*
X26754605Y4224842D1*
X26764290Y4248225D1*
X26777514Y4269804D1*
X26793951Y4289050D1*
X26813197Y4305487D1*
X26834776Y4318711D1*
X26858159Y4328396D1*
X26882769Y4334305D1*
X26908001Y4336291D1*
X26933232Y4334305D1*
X26957842Y4328396D1*
X26981225Y4318711D1*
X27000707Y4306889D1*
X27000711Y4336290D1*
X27323291D1*
Y4013710D1*
X27293897D1*
X27305711Y3994225D1*
X27315396Y3970842D1*
X27321305Y3946232D1*
X27323291Y3921001D1*
X27322793Y3908346D1*
X34358632Y5306342D2*
X34354985Y5283313D1*
X34347780Y5261138D1*
X34337194Y5240362D1*
X34323489Y5221499D1*
X34307002Y5205012D1*
X34288139Y5191307D1*
X34267363Y5180721D1*
X34245188Y5173516D1*
X34222159Y5169869D1*
X34198842D1*
X34175813Y5173516D1*
X34153638Y5180721D1*
X34132862Y5191307D1*
X34113999Y5205012D1*
X34105091Y5212590D1*
Y5169410D1*
X33807911D1*
Y5466590D1*
X34105091D1*
X34105432Y5423070D1*
X34123162Y5438212D1*
X34143042Y5450395D1*
X34164584Y5459318D1*
X34187256Y5464761D1*
X34210501Y5466591D1*
X34233745Y5464761D1*
X34256417Y5459318D1*
X34277959Y5450395D1*
X34297840Y5438212D1*
X34315570Y5423070D1*
X34330712Y5405340D1*
X34342895Y5385459D1*
X34351818Y5363917D1*
X34357261Y5341245D1*
X34359091Y5318001D1*
X34358632Y5306342D1*
X35152382D2*
X35148735Y5283313D1*
X35141530Y5261138D1*
X35130944Y5240362D1*
X35117239Y5221499D1*
X35100752Y5205012D1*
X35081889Y5191307D1*
X35061113Y5180721D1*
X35038938Y5173516D1*
X35015909Y5169869D1*
X34992592D1*
X34969563Y5173516D1*
X34947388Y5180721D1*
X34926612Y5191307D1*
X34907749Y5205012D1*
X34898841Y5212590D1*
Y5169410D1*
X34601661D1*
Y5466590D1*
X34898841D1*
X34899182Y5423070D1*
X34916912Y5438212D1*
X34936792Y5450395D1*
X34958334Y5459318D1*
X34981006Y5464761D1*
X35004251Y5466591D1*
X35027495Y5464761D1*
X35050167Y5459318D1*
X35071709Y5450395D1*
X35091590Y5438212D1*
X35109320Y5423070D1*
X35124462Y5405340D1*
X35136645Y5385459D1*
X35145568Y5363917D1*
X35151011Y5341245D1*
X35152841Y5318001D1*
X35152382Y5306342D1*
X35946455Y5311652D2*
X35944425Y5292724D1*
X35939991Y5274211D1*
X35933227Y5256416D1*
X35924244Y5239632D1*
X35913188Y5224134D1*
X35900241Y5210178D1*
X35885617Y5197991D1*
X35869554Y5187773D1*
X35852316Y5179694D1*
X35834188Y5173884D1*
X35815465Y5170440D1*
X35796455Y5169419D1*
X35777471Y5170836D1*
X35758824Y5174668D1*
X35740820Y5180853D1*
X35723754Y5189290D1*
X35707907Y5199839D1*
X35692590Y5213307D1*
X35692591Y5169410D1*
X35395411D1*
Y5466590D1*
X35692591D1*
Y5422810D1*
X35707773Y5436060D1*
X35723608Y5446627D1*
X35740664Y5455083D1*
X35758661Y5461288D1*
X35777304Y5465142D1*
X35796287Y5466581D1*
X35815297Y5465580D1*
X35834024Y5462158D1*
X35852160Y5456369D1*
X35869406Y5448309D1*
X35885480Y5438110D1*
X35900119Y5425939D1*
X35913081Y5411997D1*
X35924155Y5396512D1*
X35933157Y5379739D1*
X35939942Y5361952D1*
X35944396Y5343443D1*
X35946448Y5324517D1*
X35946455Y5311652D1*
X1712060Y5609446D2*
X1708995Y5583551D1*
X1703908Y5557977D1*
X1696831Y5532881D1*
X1687806Y5508418D1*
X1676889Y5484738D1*
X1664148Y5461987D1*
X1649662Y5440307D1*
X1633519Y5419830D1*
X1615819Y5400682D1*
X1596671Y5382982D1*
X1576194Y5366839D1*
X1554514Y5352353D1*
X1531763Y5339612D1*
X1508083Y5328696D1*
X1483620Y5319671D1*
X1458524Y5312593D1*
X1432950Y5307506D1*
X1407055Y5304441D1*
X1381001Y5303417D1*
X1354946Y5304441D1*
X1329051Y5307506D1*
X1303477Y5312593D1*
X1278381Y5319671D1*
X1253918Y5328696D1*
X1230238Y5339612D1*
X1207487Y5352353D1*
X1185807Y5366839D1*
X1165330Y5382982D1*
X1146182Y5400682D1*
X1133391Y5414519D1*
X1133351Y1602353D1*
X1165330Y1633519D1*
X1185807Y1649662D1*
X1207487Y1664148D1*
X1230238Y1676889D1*
X1253918Y1687806D1*
X1278381Y1696831D1*
X1303477Y1703908D1*
X1329051Y1708995D1*
X1354946Y1712060D1*
X1381001Y1713084D1*
X1407055Y1712060D1*
X1432950Y1708995D1*
X1458524Y1703908D1*
X1483620Y1696831D1*
X1508083Y1687806D1*
X1531763Y1676889D1*
X1554514Y1664148D1*
X1576194Y1649662D1*
X1596671Y1633519D1*
X1615819Y1615819D1*
X1633519Y1596671D1*
X1649662Y1576194D1*
X1664148Y1554514D1*
X1676889Y1531763D1*
X1687806Y1508083D1*
X1696831Y1483620D1*
X1703908Y1458524D1*
X1708995Y1432950D1*
X1712060Y1407055D1*
X1713084Y1381001D1*
X1712060Y1354946D1*
X1708995Y1329051D1*
X1703908Y1303477D1*
X1696831Y1278381D1*
X1687806Y1253918D1*
X1676889Y1230238D1*
X1664148Y1207487D1*
X1649662Y1185807D1*
X1633519Y1165330D1*
X1615819Y1146182D1*
X1601982Y1133391D1*
X7763768Y1133351D1*
X7732482Y1165330D1*
X7716339Y1185807D1*
X7701853Y1207487D1*
X7689112Y1230238D1*
X7678196Y1253918D1*
X7669171Y1278381D1*
X7662093Y1303477D1*
X7657006Y1329051D1*
X7653941Y1354946D1*
X7652917Y1381001D1*
X7653941Y1407055D1*
X7657006Y1432950D1*
X7662093Y1458524D1*
X7669171Y1483620D1*
X7678196Y1508083D1*
X7689112Y1531763D1*
X7701853Y1554514D1*
X7716339Y1576194D1*
X7732482Y1596671D1*
X7750182Y1615819D1*
X7769330Y1633519D1*
X7789807Y1649662D1*
X7811487Y1664148D1*
X7834238Y1676889D1*
X7857918Y1687806D1*
X7882381Y1696831D1*
X7907477Y1703908D1*
X7933051Y1708995D1*
X7958946Y1712060D1*
X7985001Y1713084D1*
X8011055Y1712060D1*
X8036950Y1708995D1*
X8062524Y1703908D1*
X8087620Y1696831D1*
X8112083Y1687806D1*
X8135763Y1676889D1*
X8158514Y1664148D1*
X8180194Y1649662D1*
X8200671Y1633519D1*
X8219819Y1615819D1*
X8237519Y1596671D1*
X8253662Y1576194D1*
X8268148Y1554514D1*
X8280889Y1531763D1*
X8291806Y1508083D1*
X8300831Y1483620D1*
X8307908Y1458524D1*
X8312995Y1432950D1*
X8316060Y1407055D1*
X8317084Y1381001D1*
X8316060Y1354946D1*
X8312995Y1329051D1*
X8307908Y1303477D1*
X8300831Y1278381D1*
X8291806Y1253918D1*
X8280889Y1230238D1*
X8268148Y1207487D1*
X8253662Y1185807D1*
X8237519Y1165330D1*
X8219819Y1146182D1*
X8205982Y1133391D1*
X14367768Y1133351D1*
X14336482Y1165330D1*
X14320339Y1185807D1*
X14305853Y1207487D1*
X14293112Y1230238D1*
X14282196Y1253918D1*
X14273171Y1278381D1*
X14266093Y1303477D1*
X14261006Y1329051D1*
X14257941Y1354946D1*
X14256917Y1381001D1*
X14257941Y1407055D1*
X14261006Y1432950D1*
X14266093Y1458524D1*
X14273171Y1483620D1*
X14282196Y1508083D1*
X14293112Y1531763D1*
X14305853Y1554514D1*
X14320339Y1576194D1*
X14336482Y1596671D1*
X14354182Y1615819D1*
X14373330Y1633519D1*
X14393807Y1649662D1*
X14415487Y1664148D1*
X14438238Y1676889D1*
X14461918Y1687806D1*
X14486381Y1696831D1*
X14511477Y1703908D1*
X14537051Y1708995D1*
X14562946Y1712060D1*
X14589001Y1713084D1*
X14615055Y1712060D1*
X14640950Y1708995D1*
X14666524Y1703908D1*
X14691620Y1696831D1*
X14716083Y1687806D1*
X14739763Y1676889D1*
X14762514Y1664148D1*
X14784194Y1649662D1*
X14804671Y1633519D1*
X14823819Y1615819D1*
X14841519Y1596671D1*
X14857662Y1576194D1*
X14872148Y1554514D1*
X14884889Y1531763D1*
X14895806Y1508083D1*
X14904831Y1483620D1*
X14911908Y1458524D1*
X14916995Y1432950D1*
X14920060Y1407055D1*
X14921084Y1381001D1*
X14920060Y1354946D1*
X14916995Y1329051D1*
X14911908Y1303477D1*
X14904831Y1278381D1*
X14895806Y1253918D1*
X14884889Y1230238D1*
X14872148Y1207487D1*
X14857662Y1185807D1*
X14841519Y1165330D1*
X14823819Y1146182D1*
X14809982Y1133391D1*
X17669768Y1133351D1*
X17638482Y1165330D1*
X17622339Y1185807D1*
X17607853Y1207487D1*
X17595112Y1230238D1*
X17584196Y1253918D1*
X17575171Y1278381D1*
X17568093Y1303477D1*
X17563006Y1329051D1*
X17559941Y1354946D1*
X17558917Y1381001D1*
X17559941Y1407055D1*
X17563006Y1432950D1*
X17568093Y1458524D1*
X17575171Y1483620D1*
X17584196Y1508083D1*
X17595112Y1531763D1*
X17607853Y1554514D1*
X17622339Y1576194D1*
X17638482Y1596671D1*
X17656182Y1615819D1*
X17675330Y1633519D1*
X17695807Y1649662D1*
X17717487Y1664148D1*
X17740238Y1676889D1*
X17763918Y1687806D1*
X17788381Y1696831D1*
X17813477Y1703908D1*
X17839051Y1708995D1*
X17864946Y1712060D1*
X17891001Y1713084D1*
X17917055Y1712060D1*
X17942950Y1708995D1*
X17968524Y1703908D1*
X17993620Y1696831D1*
X18018083Y1687806D1*
X18041763Y1676889D1*
X18064514Y1664148D1*
X18086194Y1649662D1*
X18106671Y1633519D1*
X18125819Y1615819D1*
X18143519Y1596671D1*
X18159662Y1576194D1*
X18174148Y1554514D1*
X18186889Y1531763D1*
X18197806Y1508083D1*
X18206831Y1483620D1*
X18213908Y1458524D1*
X18218995Y1432950D1*
X18222060Y1407055D1*
X18223084Y1381001D1*
X18222060Y1354946D1*
X18218995Y1329051D1*
X18213908Y1303477D1*
X18206831Y1278381D1*
X18197806Y1253918D1*
X18186889Y1230238D1*
X18174148Y1207487D1*
X18159662Y1185807D1*
X18143519Y1165330D1*
X18125819Y1146182D1*
X18111982Y1133391D1*
X21860768Y1133351D1*
X21829482Y1165330D1*
X21813339Y1185807D1*
X21798853Y1207487D1*
X21786112Y1230238D1*
X21775196Y1253918D1*
X21766171Y1278381D1*
X21759093Y1303477D1*
X21754006Y1329051D1*
X21750941Y1354946D1*
X21749917Y1381001D1*
X21750941Y1407055D1*
X21754006Y1432950D1*
X21759093Y1458524D1*
X21766171Y1483620D1*
X21775196Y1508083D1*
X21786112Y1531763D1*
X21798853Y1554514D1*
X21813339Y1576194D1*
X21829482Y1596671D1*
X21847182Y1615819D1*
X21866330Y1633519D1*
X21886807Y1649662D1*
X21908487Y1664148D1*
X21931238Y1676889D1*
X21954918Y1687806D1*
X21979381Y1696831D1*
X22004477Y1703908D1*
X22030051Y1708995D1*
X22055946Y1712060D1*
X22082001Y1713084D1*
X22108055Y1712060D1*
X22133950Y1708995D1*
X22159524Y1703908D1*
X22184620Y1696831D1*
X22209083Y1687806D1*
X22232763Y1676889D1*
X22255514Y1664148D1*
X22277194Y1649662D1*
X22297671Y1633519D1*
X22316819Y1615819D1*
X22334519Y1596671D1*
X22350662Y1576194D1*
X22365148Y1554514D1*
X22377889Y1531763D1*
X22388806Y1508083D1*
X22397831Y1483620D1*
X22404908Y1458524D1*
X22409995Y1432950D1*
X22413060Y1407055D1*
X22414084Y1381001D1*
X22413060Y1354946D1*
X22409995Y1329051D1*
X22404908Y1303477D1*
X22397831Y1278381D1*
X22388806Y1253918D1*
X22377889Y1230238D1*
X22365148Y1207487D1*
X22350662Y1185807D1*
X22334519Y1165330D1*
X22316819Y1146182D1*
X22302982Y1133391D1*
X25162768Y1133351D1*
X25131482Y1165330D1*
X25115339Y1185807D1*
X25100853Y1207487D1*
X25088112Y1230238D1*
X25077196Y1253918D1*
X25068171Y1278381D1*
X25061093Y1303477D1*
X25056006Y1329051D1*
X25052941Y1354946D1*
X25051917Y1381001D1*
X25052941Y1407055D1*
X25056006Y1432950D1*
X25061093Y1458524D1*
X25068171Y1483620D1*
X25077196Y1508083D1*
X25088112Y1531763D1*
X25100853Y1554514D1*
X25115339Y1576194D1*
X25131482Y1596671D1*
X25149182Y1615819D1*
X25168330Y1633519D1*
X25188807Y1649662D1*
X25210487Y1664148D1*
X25233238Y1676889D1*
X25256918Y1687806D1*
X25281381Y1696831D1*
X25306477Y1703908D1*
X25332051Y1708995D1*
X25357946Y1712060D1*
X25384001Y1713084D1*
X25410055Y1712060D1*
X25435950Y1708995D1*
X25461524Y1703908D1*
X25486620Y1696831D1*
X25511083Y1687806D1*
X25534763Y1676889D1*
X25557514Y1664148D1*
X25579194Y1649662D1*
X25599671Y1633519D1*
X25618819Y1615819D1*
X25636519Y1596671D1*
X25652662Y1576194D1*
X25667148Y1554514D1*
X25679889Y1531763D1*
X25690806Y1508083D1*
X25699831Y1483620D1*
X25706908Y1458524D1*
X25711995Y1432950D1*
X25715060Y1407055D1*
X25716084Y1381001D1*
X25715060Y1354946D1*
X25711995Y1329051D1*
X25706908Y1303477D1*
X25699831Y1278381D1*
X25690806Y1253918D1*
X25679889Y1230238D1*
X25667148Y1207487D1*
X25652662Y1185807D1*
X25636519Y1165330D1*
X25618819Y1146182D1*
X25604982Y1133391D1*
X31766768Y1133351D1*
X31735482Y1165330D1*
X31719339Y1185807D1*
X31704853Y1207487D1*
X31692112Y1230238D1*
X31681196Y1253918D1*
X31672171Y1278381D1*
X31665093Y1303477D1*
X31660006Y1329051D1*
X31656941Y1354946D1*
X31655917Y1381001D1*
X31656941Y1407055D1*
X31660006Y1432950D1*
X31665093Y1458524D1*
X31672171Y1483620D1*
X31681196Y1508083D1*
X31692112Y1531763D1*
X31704853Y1554514D1*
X31719339Y1576194D1*
X31735482Y1596671D1*
X31753182Y1615819D1*
X31772330Y1633519D1*
X31792807Y1649662D1*
X31814487Y1664148D1*
X31837238Y1676889D1*
X31860918Y1687806D1*
X31885381Y1696831D1*
X31910477Y1703908D1*
X31936051Y1708995D1*
X31961946Y1712060D1*
X31988001Y1713084D1*
X32014055Y1712060D1*
X32039950Y1708995D1*
X32065524Y1703908D1*
X32090620Y1696831D1*
X32115083Y1687806D1*
X32138763Y1676889D1*
X32161514Y1664148D1*
X32183194Y1649662D1*
X32203671Y1633519D1*
X32222819Y1615819D1*
X32240519Y1596671D1*
X32256662Y1576194D1*
X32271148Y1554514D1*
X32283889Y1531763D1*
X32294806Y1508083D1*
X32303831Y1483620D1*
X32310908Y1458524D1*
X32315995Y1432950D1*
X32319060Y1407055D1*
X32320084Y1381001D1*
X32319060Y1354946D1*
X32315995Y1329051D1*
X32310908Y1303477D1*
X32303831Y1278381D1*
X32294806Y1253918D1*
X32283889Y1230238D1*
X32271148Y1207487D1*
X32256662Y1185807D1*
X32240519Y1165330D1*
X32222819Y1146182D1*
X32208982Y1133391D1*
X38370768Y1133351D1*
X38339482Y1165330D1*
X38323339Y1185807D1*
X38308853Y1207487D1*
X38296112Y1230238D1*
X38285196Y1253918D1*
X38276171Y1278381D1*
X38269093Y1303477D1*
X38264006Y1329051D1*
X38260941Y1354946D1*
X38259917Y1381001D1*
X38260941Y1407055D1*
X38264006Y1432950D1*
X38269093Y1458524D1*
X38276171Y1483620D1*
X38285196Y1508083D1*
X38296112Y1531763D1*
X38308853Y1554514D1*
X38323339Y1576194D1*
X38339482Y1596671D1*
X38357182Y1615819D1*
X38376330Y1633519D1*
X38396807Y1649662D1*
X38418487Y1664148D1*
X38441238Y1676889D1*
X38464918Y1687806D1*
X38489381Y1696831D1*
X38514477Y1703908D1*
X38540051Y1708995D1*
X38565946Y1712060D1*
X38592001Y1713084D1*
X38618055Y1712060D1*
X38643950Y1708995D1*
X38669524Y1703908D1*
X38694620Y1696831D1*
X38719083Y1687806D1*
X38742763Y1676889D1*
X38765514Y1664148D1*
X38787194Y1649662D1*
X38807671Y1633519D1*
X38826819Y1615819D1*
X38844519Y1596671D1*
X38866603Y1567302D1*
X38866650Y5448746D1*
X38844519Y5419830D1*
X38826819Y5400682D1*
X38807671Y5382982D1*
X38787194Y5366839D1*
X38765514Y5352353D1*
X38742763Y5339612D1*
X38719083Y5328696D1*
X38694620Y5319671D1*
X38669524Y5312593D1*
X38643950Y5307506D1*
X38618055Y5304441D1*
X38592001Y5303417D1*
X38565946Y5304441D1*
X38540051Y5307506D1*
X38514477Y5312593D1*
X38489381Y5319671D1*
X38464918Y5328696D1*
X38441238Y5339612D1*
X38418487Y5352353D1*
X38396807Y5366839D1*
X38376330Y5382982D1*
X38357182Y5400682D1*
X38339482Y5419830D1*
X38323339Y5440307D1*
X38308853Y5461987D1*
X38296112Y5484738D1*
X38285196Y5508418D1*
X38276171Y5532881D1*
X38269093Y5557977D1*
X38264006Y5583551D1*
X38260941Y5609446D1*
X38259917Y5635501D1*
X38260941Y5661555D1*
X38264006Y5687450D1*
X38269093Y5713024D1*
X38276171Y5738120D1*
X38285196Y5762583D1*
X38296112Y5786263D1*
X38308853Y5809014D1*
X38323339Y5830694D1*
X38339482Y5851171D1*
X38353794Y5866654D1*
X37508718Y5866650D1*
X37523023Y5846774D1*
X37534513Y5824224D1*
X37542334Y5800153D1*
X37546293Y5775155D1*
Y5749846D1*
X37542334Y5724848D1*
X37534513Y5700778D1*
X37523023Y5678227D1*
X37508146Y5657751D1*
X37490250Y5639855D1*
X37469774Y5624978D1*
X37447224Y5613488D1*
X37423153Y5605667D1*
X37398155Y5601708D1*
X37372846D1*
X37347848Y5605667D1*
X37323778Y5613488D1*
X37301227Y5624978D1*
X37280751Y5639855D1*
X37262855Y5657751D1*
X37247978Y5678227D1*
X37236488Y5700778D1*
X37228667Y5724848D1*
X37224708Y5749846D1*
Y5775155D1*
X37228667Y5800153D1*
X37236488Y5824224D1*
X37247978Y5846774D1*
X37262395Y5866667D1*
X36492718Y5866650D1*
X36507023Y5846774D1*
X36518513Y5824224D1*
X36526334Y5800153D1*
X36530293Y5775155D1*
Y5749846D1*
X36526334Y5724848D1*
X36518513Y5700778D1*
X36507023Y5678227D1*
X36492146Y5657751D1*
X36474250Y5639855D1*
X36453774Y5624978D1*
X36431224Y5613488D1*
X36407153Y5605667D1*
X36382155Y5601708D1*
X36356846D1*
X36331848Y5605667D1*
X36307778Y5613488D1*
X36285227Y5624978D1*
X36264751Y5639855D1*
X36246855Y5657751D1*
X36231978Y5678227D1*
X36220488Y5700778D1*
X36212667Y5724848D1*
X36208708Y5749846D1*
Y5775155D1*
X36212667Y5800153D1*
X36220488Y5824224D1*
X36231978Y5846774D1*
X36246395Y5866667D1*
X32226312Y5866650D1*
X32240519Y5851171D1*
X32256662Y5830694D1*
X32271148Y5809014D1*
X32283889Y5786263D1*
X32294806Y5762583D1*
X32303831Y5738120D1*
X32310908Y5713024D1*
X32315995Y5687450D1*
X32319060Y5661555D1*
X32320084Y5635501D1*
X32319060Y5609446D1*
X32315995Y5583551D1*
X32310908Y5557977D1*
X32303831Y5532881D1*
X32294806Y5508418D1*
X32283889Y5484738D1*
X32271148Y5461987D1*
X32256662Y5440307D1*
X32240519Y5419830D1*
X32222819Y5400682D1*
X32203671Y5382982D1*
X32183194Y5366839D1*
X32161514Y5352353D1*
X32138763Y5339612D1*
X32115083Y5328696D1*
X32090620Y5319671D1*
X32065524Y5312593D1*
X32039950Y5307506D1*
X32014055Y5304441D1*
X31988001Y5303417D1*
X31961946Y5304441D1*
X31936051Y5307506D1*
X31910477Y5312593D1*
X31885381Y5319671D1*
X31860918Y5328696D1*
X31837238Y5339612D1*
X31814487Y5352353D1*
X31792807Y5366839D1*
X31772330Y5382982D1*
X31753182Y5400682D1*
X31735482Y5419830D1*
X31719339Y5440307D1*
X31704853Y5461987D1*
X31692112Y5484738D1*
X31681196Y5508418D1*
X31672171Y5532881D1*
X31665093Y5557977D1*
X31660006Y5583551D1*
X31656941Y5609446D1*
X31655917Y5635501D1*
X31656941Y5661555D1*
X31660006Y5687450D1*
X31665093Y5713024D1*
X31672171Y5738120D1*
X31681196Y5762583D1*
X31692112Y5786263D1*
X31704853Y5809014D1*
X31719339Y5830694D1*
X31735482Y5851171D1*
X31749794Y5866654D1*
X25622312Y5866650D1*
X25636519Y5851171D1*
X25652662Y5830694D1*
X25667148Y5809014D1*
X25679889Y5786263D1*
X25690806Y5762583D1*
X25699831Y5738120D1*
X25706908Y5713024D1*
X25711995Y5687450D1*
X25715060Y5661555D1*
X25716084Y5635501D1*
X25715060Y5609446D1*
X25711995Y5583551D1*
X25706908Y5557977D1*
X25699831Y5532881D1*
X25690806Y5508418D1*
X25679889Y5484738D1*
X25667148Y5461987D1*
X25652662Y5440307D1*
X25636519Y5419830D1*
X25618819Y5400682D1*
X25599671Y5382982D1*
X25579194Y5366839D1*
X25557514Y5352353D1*
X25534763Y5339612D1*
X25511083Y5328696D1*
X25486620Y5319671D1*
X25461524Y5312593D1*
X25435950Y5307506D1*
X25410055Y5304441D1*
X25384001Y5303417D1*
X25357946Y5304441D1*
X25332051Y5307506D1*
X25306477Y5312593D1*
X25281381Y5319671D1*
X25256918Y5328696D1*
X25233238Y5339612D1*
X25210487Y5352353D1*
X25188807Y5366839D1*
X25168330Y5382982D1*
X25149182Y5400682D1*
X25131482Y5419830D1*
X25115339Y5440307D1*
X25100853Y5461987D1*
X25088112Y5484738D1*
X25077196Y5508418D1*
X25068171Y5532881D1*
X25061093Y5557977D1*
X25056006Y5583551D1*
X25052941Y5609446D1*
X25051917Y5635501D1*
X25052941Y5661555D1*
X25056006Y5687450D1*
X25061093Y5713024D1*
X25068171Y5738120D1*
X25077196Y5762583D1*
X25088112Y5786263D1*
X25100853Y5809014D1*
X25115339Y5830694D1*
X25131482Y5851171D1*
X25145794Y5866654D1*
X22320312Y5866650D1*
X22334519Y5851171D1*
X22350662Y5830694D1*
X22365148Y5809014D1*
X22377889Y5786263D1*
X22388806Y5762583D1*
X22397831Y5738120D1*
X22404908Y5713024D1*
X22409995Y5687450D1*
X22413060Y5661555D1*
X22414084Y5635501D1*
X22413060Y5609446D1*
X22409995Y5583551D1*
X22404908Y5557977D1*
X22397831Y5532881D1*
X22388806Y5508418D1*
X22377889Y5484738D1*
X22365148Y5461987D1*
X22350662Y5440307D1*
X22334519Y5419830D1*
X22316819Y5400682D1*
X22297671Y5382982D1*
X22277194Y5366839D1*
X22255514Y5352353D1*
X22232763Y5339612D1*
X22209083Y5328696D1*
X22184620Y5319671D1*
X22159524Y5312593D1*
X22133950Y5307506D1*
X22108055Y5304441D1*
X22082001Y5303417D1*
X22055946Y5304441D1*
X22030051Y5307506D1*
X22004477Y5312593D1*
X21979381Y5319671D1*
X21954918Y5328696D1*
X21931238Y5339612D1*
X21908487Y5352353D1*
X21886807Y5366839D1*
X21866330Y5382982D1*
X21847182Y5400682D1*
X21829482Y5419830D1*
X21813339Y5440307D1*
X21798853Y5461987D1*
X21786112Y5484738D1*
X21775196Y5508418D1*
X21766171Y5532881D1*
X21759093Y5557977D1*
X21754006Y5583551D1*
X21750941Y5609446D1*
X21749917Y5635501D1*
X21750941Y5661555D1*
X21754006Y5687450D1*
X21759093Y5713024D1*
X21766171Y5738120D1*
X21775196Y5762583D1*
X21786112Y5786263D1*
X21798853Y5809014D1*
X21813339Y5830694D1*
X21829482Y5851171D1*
X21843794Y5866654D1*
X18129312Y5866650D1*
X18143519Y5851171D1*
X18159662Y5830694D1*
X18174148Y5809014D1*
X18186889Y5786263D1*
X18197806Y5762583D1*
X18206831Y5738120D1*
X18213908Y5713024D1*
X18218995Y5687450D1*
X18222060Y5661555D1*
X18223084Y5635501D1*
X18222060Y5609446D1*
X18218995Y5583551D1*
X18213908Y5557977D1*
X18206831Y5532881D1*
X18197806Y5508418D1*
X18186889Y5484738D1*
X18174148Y5461987D1*
X18159662Y5440307D1*
X18143519Y5419830D1*
X18125819Y5400682D1*
X18106671Y5382982D1*
X18086194Y5366839D1*
X18064514Y5352353D1*
X18041763Y5339612D1*
X18018083Y5328696D1*
X17993620Y5319671D1*
X17968524Y5312593D1*
X17942950Y5307506D1*
X17917055Y5304441D1*
X17891001Y5303417D1*
X17864946Y5304441D1*
X17839051Y5307506D1*
X17813477Y5312593D1*
X17788381Y5319671D1*
X17763918Y5328696D1*
X17740238Y5339612D1*
X17717487Y5352353D1*
X17695807Y5366839D1*
X17675330Y5382982D1*
X17656182Y5400682D1*
X17638482Y5419830D1*
X17622339Y5440307D1*
X17607853Y5461987D1*
X17595112Y5484738D1*
X17584196Y5508418D1*
X17575171Y5532881D1*
X17568093Y5557977D1*
X17563006Y5583551D1*
X17559941Y5609446D1*
X17558917Y5635501D1*
X17559941Y5661555D1*
X17563006Y5687450D1*
X17568093Y5713024D1*
X17575171Y5738120D1*
X17584196Y5762583D1*
X17595112Y5786263D1*
X17607853Y5809014D1*
X17622339Y5830694D1*
X17638482Y5851171D1*
X17652794Y5866654D1*
X14827312Y5866650D1*
X14841519Y5851171D1*
X14857662Y5830694D1*
X14872148Y5809014D1*
X14884889Y5786263D1*
X14895806Y5762583D1*
X14904831Y5738120D1*
X14911908Y5713024D1*
X14916995Y5687450D1*
X14920060Y5661555D1*
X14921084Y5635501D1*
X14920060Y5609446D1*
X14916995Y5583551D1*
X14911908Y5557977D1*
X14904831Y5532881D1*
X14895806Y5508418D1*
X14884889Y5484738D1*
X14872148Y5461987D1*
X14857662Y5440307D1*
X14841519Y5419830D1*
X14823819Y5400682D1*
X14804671Y5382982D1*
X14784194Y5366839D1*
X14762514Y5352353D1*
X14739763Y5339612D1*
X14716083Y5328696D1*
X14691620Y5319671D1*
X14666524Y5312593D1*
X14640950Y5307506D1*
X14615055Y5304441D1*
X14589001Y5303417D1*
X14562946Y5304441D1*
X14537051Y5307506D1*
X14511477Y5312593D1*
X14486381Y5319671D1*
X14461918Y5328696D1*
X14438238Y5339612D1*
X14415487Y5352353D1*
X14393807Y5366839D1*
X14373330Y5382982D1*
X14354182Y5400682D1*
X14336482Y5419830D1*
X14320339Y5440307D1*
X14305853Y5461987D1*
X14293112Y5484738D1*
X14282196Y5508418D1*
X14273171Y5532881D1*
X14266093Y5557977D1*
X14261006Y5583551D1*
X14257941Y5609446D1*
X14256917Y5635501D1*
X14257941Y5661555D1*
X14261006Y5687450D1*
X14266093Y5713024D1*
X14273171Y5738120D1*
X14282196Y5762583D1*
X14293112Y5786263D1*
X14305853Y5809014D1*
X14320339Y5830694D1*
X14336482Y5851171D1*
X14350794Y5866654D1*
X8223312Y5866650D1*
X8237519Y5851171D1*
X8253662Y5830694D1*
X8268148Y5809014D1*
X8280889Y5786263D1*
X8291806Y5762583D1*
X8300831Y5738120D1*
X8307908Y5713024D1*
X8312995Y5687450D1*
X8316060Y5661555D1*
X8317084Y5635501D1*
X8316060Y5609446D1*
X8312995Y5583551D1*
X8307908Y5557977D1*
X8300831Y5532881D1*
X8291806Y5508418D1*
X8280889Y5484738D1*
X8268148Y5461987D1*
X8253662Y5440307D1*
X8237519Y5419830D1*
X8219819Y5400682D1*
X8200671Y5382982D1*
X8180194Y5366839D1*
X8158514Y5352353D1*
X8135763Y5339612D1*
X8112083Y5328696D1*
X8087620Y5319671D1*
X8062524Y5312593D1*
X8036950Y5307506D1*
X8011055Y5304441D1*
X7985001Y5303417D1*
X7958946Y5304441D1*
X7933051Y5307506D1*
X7907477Y5312593D1*
X7882381Y5319671D1*
X7857918Y5328696D1*
X7834238Y5339612D1*
X7811487Y5352353D1*
X7789807Y5366839D1*
X7769330Y5382982D1*
X7750182Y5400682D1*
X7732482Y5419830D1*
X7716339Y5440307D1*
X7701853Y5461987D1*
X7689112Y5484738D1*
X7678196Y5508418D1*
X7669171Y5532881D1*
X7662093Y5557977D1*
X7657006Y5583551D1*
X7653941Y5609446D1*
X7652917Y5635501D1*
X7653941Y5661555D1*
X7657006Y5687450D1*
X7662093Y5713024D1*
X7669171Y5738120D1*
X7678196Y5762583D1*
X7689112Y5786263D1*
X7701853Y5809014D1*
X7716339Y5830694D1*
X7732482Y5851171D1*
X7746794Y5866654D1*
X1619312Y5866650D1*
X1633519Y5851171D1*
X1649662Y5830694D1*
X1664148Y5809014D1*
X1676889Y5786263D1*
X1687806Y5762583D1*
X1696831Y5738120D1*
X1703908Y5713024D1*
X1708995Y5687450D1*
X1712060Y5661555D1*
X1713084Y5635501D1*
X1712060Y5609446D1*
X19077553Y3999731D2*
X19104964Y3993860D1*
X19119815Y3987108D1*
X19157086Y3965633D1*
X19199763Y3990074D1*
X19218724Y3996524D1*
X19271662Y4005692D1*
X19406891Y4006091D1*
X19541970Y4005706D1*
X19598565Y3995780D1*
X19617236Y3988534D1*
X19663685Y3961528D1*
X19678752Y3948332D1*
X19713162Y3907069D1*
X19722806Y3889515D1*
X19741027Y3838972D1*
X19744086Y3819179D1*
X19743925Y3765458D1*
X19740031Y3745812D1*
X19721500Y3695377D1*
X19711121Y3678248D1*
X19676466Y3637199D1*
X19660855Y3624652D1*
X19614238Y3597927D1*
X19595277Y3591477D1*
X19542339Y3582309D1*
X19407111Y3581911D1*
X19273434Y3582173D1*
X19215436Y3592222D1*
X19196765Y3599468D1*
X19156915Y3622369D1*
X19114238Y3597927D1*
X19095277Y3591477D1*
X19042339Y3582309D1*
X18907111Y3581910D1*
X18773434Y3582172D1*
X18715436Y3592222D1*
X18696765Y3599468D1*
X18650316Y3626474D1*
X18635249Y3639669D1*
X18600840Y3680933D1*
X18591195Y3698486D1*
X18572974Y3749029D1*
X18569915Y3768822D1*
X18570077Y3822543D1*
X18573970Y3842189D1*
X18592502Y3892624D1*
X18602881Y3909753D1*
X18637535Y3950802D1*
X18653146Y3963349D1*
X18699763Y3990074D1*
X18718724Y3996524D1*
X18771662Y4005692D1*
X18906891Y4006091D1*
X19041970Y4005706D1*
X19077553Y3999731D1*
Y3237731D2*
X19104964Y3231860D1*
X19119815Y3225108D1*
X19130862Y3218743D1*
X19182953Y3218691D1*
X19205899Y3230716D1*
X19221612Y3235089D1*
X19271662Y3243692D1*
X19406891Y3244091D1*
X19541970Y3243706D1*
X19598565Y3233780D1*
X19617236Y3226534D1*
X19663685Y3199528D1*
X19678752Y3186332D1*
X19713162Y3145069D1*
X19722807Y3127515D1*
X19741027Y3076972D1*
X19744086Y3057179D1*
X19743924Y3003458D1*
X19740031Y2983812D1*
X19721499Y2933377D1*
X19711120Y2916248D1*
X19676466Y2875199D1*
X19660855Y2862652D1*
X19614238Y2835927D1*
X19595277Y2829477D1*
X19542339Y2820309D1*
X19407111Y2819910D1*
X19273434Y2820173D1*
X19215436Y2830222D1*
X19196765Y2837468D1*
X19183139Y2845258D1*
X19131048Y2845310D1*
X19108102Y2833285D1*
X19092389Y2828913D1*
X19042339Y2820309D1*
X18907111Y2819910D1*
X18773434Y2820173D1*
X18715436Y2830222D1*
X18696765Y2837468D1*
X18650316Y2864474D1*
X18635249Y2877669D1*
X18600840Y2918933D1*
X18591195Y2936486D1*
X18572974Y2987029D1*
X18569915Y3006822D1*
X18570077Y3060543D1*
X18573970Y3080189D1*
X18592502Y3130624D1*
X18602881Y3147753D1*
X18637535Y3188802D1*
X18653146Y3201349D1*
X18699763Y3228074D1*
X18718724Y3234524D1*
X18771662Y3243692D1*
X18906891Y3244091D1*
X19041970Y3243706D1*
X19077553Y3237731D1*
X19054846Y2479714D2*
X19104334Y2470074D1*
X19113640Y2466336D1*
X19157035Y2441662D1*
X19199463Y2465930D1*
X19217422Y2472236D1*
X19271330Y2481659D1*
X19324341Y2482091D1*
X19540235Y2481854D1*
X19592034Y2473191D1*
X19610275Y2467836D1*
X19630819Y2456767D1*
X19668522Y2433951D1*
X19675990Y2427256D1*
X19712967Y2383339D1*
X19722297Y2366747D1*
X19740937Y2315293D1*
X19744029Y2296511D1*
X19743950Y2241790D1*
X19740432Y2223083D1*
X19721637Y2171681D1*
X19711932Y2155305D1*
X19676698Y2113437D1*
X19661979Y2101368D1*
X19614538Y2074072D1*
X19596579Y2067765D1*
X19542671Y2058342D1*
X19489661Y2057910D1*
X19273766Y2058147D1*
X19221967Y2066810D1*
X19203726Y2072165D1*
X19183182Y2083234D1*
X19156966Y2098339D1*
X19114538Y2074072D1*
X19096579Y2067765D1*
X19042671Y2058342D1*
X18989661Y2057910D1*
X18773766Y2058147D1*
X18721967Y2066810D1*
X18703726Y2072165D1*
X18683182Y2083234D1*
X18645479Y2106050D1*
X18638012Y2112745D1*
X18602626Y2154524D1*
X18592791Y2170793D1*
X18573064Y2224708D1*
X18569972Y2243490D1*
X18570051Y2298211D1*
X18573569Y2316918D1*
X18592364Y2368321D1*
X18602068Y2384696D1*
X18637303Y2426564D1*
X18652021Y2438634D1*
X18699463Y2465930D1*
X18717422Y2472236D1*
X18771330Y2481659D1*
X18824341Y2482091D1*
X19041685Y2481733D1*
X19054846Y2479714D1*
X19077553Y1713731D2*
X19104964Y1707860D1*
X19119815Y1701108D1*
X19157086Y1679633D1*
X19199763Y1704074D1*
X19218724Y1710524D1*
X19271662Y1719692D1*
X19406891Y1720091D1*
X19541970Y1719706D1*
X19598565Y1709779D1*
X19617236Y1702533D1*
X19663685Y1675528D1*
X19678752Y1662332D1*
X19713161Y1621068D1*
X19722806Y1603515D1*
X19741027Y1552972D1*
X19744086Y1533179D1*
X19743924Y1479458D1*
X19740031Y1459812D1*
X19721500Y1409377D1*
X19711121Y1392248D1*
X19676466Y1351199D1*
X19660855Y1338652D1*
X19614238Y1311927D1*
X19595277Y1305477D1*
X19542339Y1296309D1*
X19407111Y1295910D1*
X19273434Y1296173D1*
X19215436Y1306221D1*
X19196765Y1313468D1*
X19156915Y1336368D1*
X19114238Y1311927D1*
X19095277Y1305477D1*
X19042339Y1296309D1*
X18907111Y1295910D1*
X18773434Y1296173D1*
X18715436Y1306222D1*
X18696765Y1313468D1*
X18650316Y1340473D1*
X18635249Y1353669D1*
X18600839Y1394933D1*
X18591195Y1412486D1*
X18572974Y1463029D1*
X18569915Y1482822D1*
X18570077Y1536543D1*
X18573970Y1556189D1*
X18592501Y1606624D1*
X18602880Y1623753D1*
X18637535Y1664802D1*
X18653146Y1677350D1*
X18699763Y1704074D1*
X18718724Y1710524D1*
X18771662Y1719692D1*
X18938641Y1720091D1*
X19041970Y1719706D1*
X19077553Y1713731D1*
X13289293Y3908346D2*
X13285334Y3883348D1*
X13277513Y3859278D1*
X13266023Y3836727D1*
X13251146Y3816251D1*
X13233250Y3798355D1*
X13227850Y3794098D1*
X13242550Y3781050D1*
X13258987Y3761804D1*
X13272211Y3740225D1*
X13281896Y3716842D1*
X13287805Y3692232D1*
X13289791Y3667001D1*
X13287805Y3641769D1*
X13281896Y3617159D1*
X13272211Y3593776D1*
X13258987Y3572197D1*
X13242550Y3552951D1*
X13227850Y3540098D1*
X13242550Y3527050D1*
X13258987Y3507804D1*
X13272211Y3486225D1*
X13281896Y3462842D1*
X13287805Y3438232D1*
X13289791Y3413001D1*
X13287805Y3387769D1*
X13281896Y3363159D1*
X13272211Y3339776D1*
X13258987Y3318197D1*
X13242550Y3298951D1*
X13227850Y3286098D1*
X13244138Y3271439D1*
X13260341Y3251912D1*
X13273281Y3230086D1*
X13282638Y3206501D1*
X13288180Y3181739D1*
X13289791Y3159001D1*
X13287795Y3133705D1*
X13281856Y3109036D1*
X13272123Y3085604D1*
X13258835Y3063988D1*
X13242321Y3044723D1*
X13227923Y3032003D1*
X13244138Y3017439D1*
X13260341Y2997912D1*
X13273281Y2976086D1*
X13282638Y2952501D1*
X13288180Y2927739D1*
X13289791Y2905001D1*
X13287795Y2879705D1*
X13281856Y2855036D1*
X13272123Y2831604D1*
X13258835Y2809988D1*
X13242321Y2790723D1*
X13227923Y2778003D1*
X13244138Y2763439D1*
X13260341Y2743912D1*
X13273281Y2722086D1*
X13282638Y2698501D1*
X13288180Y2673739D1*
X13289791Y2651001D1*
X13287795Y2625705D1*
X13281856Y2601036D1*
X13272123Y2577604D1*
X13258835Y2555988D1*
X13242321Y2536723D1*
X13227923Y2524003D1*
X13242550Y2511050D1*
X13258987Y2491804D1*
X13272211Y2470225D1*
X13281896Y2446842D1*
X13287805Y2422232D1*
X13289791Y2397001D1*
X13287805Y2371769D1*
X13281896Y2347159D1*
X13272211Y2323776D1*
X13258987Y2302197D1*
X13242550Y2282951D1*
X13223304Y2266514D1*
X13201725Y2253290D1*
X13178342Y2243605D1*
X13153732Y2237696D1*
X13128501Y2235711D1*
X13103269Y2237696D1*
X13078659Y2243605D1*
X13055276Y2253290D1*
X13033697Y2266514D1*
X13014451Y2282951D1*
X13001598Y2297651D1*
X12988550Y2282951D1*
X12969304Y2266514D1*
X12947725Y2253290D1*
X12924342Y2243605D1*
X12899732Y2237696D1*
X12874501Y2235711D1*
X12849269Y2237696D1*
X12824659Y2243605D1*
X12801276Y2253290D1*
X12779697Y2266514D1*
X12760451Y2282951D1*
X12744014Y2302197D1*
X12730790Y2323776D1*
X12721105Y2347159D1*
X12715196Y2371769D1*
X12713211Y2397001D1*
X12715196Y2422232D1*
X12721105Y2446842D1*
X12730790Y2470225D1*
X12744014Y2491804D1*
X12760451Y2511050D1*
X12775151Y2523904D1*
X12759768Y2537639D1*
X12743409Y2557035D1*
X12730295Y2578757D1*
X12720749Y2602267D1*
X12715009Y2626983D1*
X12713216Y2652293D1*
X12715414Y2677571D1*
X12721550Y2702192D1*
X12731471Y2725546D1*
X12744932Y2747055D1*
X12761599Y2766186D1*
X12775089Y2777989D1*
X12759768Y2791639D1*
X12743409Y2811035D1*
X12730295Y2832757D1*
X12720749Y2856267D1*
X12715009Y2880983D1*
X12713216Y2906293D1*
X12715414Y2931571D1*
X12721550Y2956192D1*
X12731471Y2979546D1*
X12744932Y3001055D1*
X12761599Y3020186D1*
X12775089Y3031989D1*
X12759768Y3045639D1*
X12743409Y3065035D1*
X12730295Y3086757D1*
X12720749Y3110267D1*
X12715009Y3134983D1*
X12713216Y3160293D1*
X12715414Y3185571D1*
X12721550Y3210192D1*
X12731471Y3233546D1*
X12744932Y3255055D1*
X12761599Y3274186D1*
X12775089Y3285989D1*
X12760451Y3298951D1*
X12744014Y3318197D1*
X12730790Y3339776D1*
X12721105Y3363159D1*
X12715196Y3387769D1*
X12713211Y3413001D1*
X12715196Y3438232D1*
X12721105Y3462842D1*
X12730790Y3486225D1*
X12744014Y3507804D1*
X12760451Y3527050D1*
X12775151Y3539904D1*
X12760451Y3552951D1*
X12744014Y3572197D1*
X12730790Y3593776D1*
X12721105Y3617159D1*
X12715196Y3641769D1*
X12713211Y3667001D1*
X12715196Y3692232D1*
X12721105Y3716842D1*
X12730790Y3740225D1*
X12744014Y3761804D1*
X12760451Y3781050D1*
X12775151Y3793904D1*
X12760451Y3806951D1*
X12744014Y3826197D1*
X12730790Y3847776D1*
X12721105Y3871159D1*
X12715196Y3895769D1*
X12713211Y3921001D1*
X12715196Y3946232D1*
X12721105Y3970842D1*
X12730790Y3994225D1*
X12744014Y4015804D1*
X12760451Y4035050D1*
X12775151Y4047904D1*
X12760451Y4060951D1*
X12744014Y4080197D1*
X12730790Y4101776D1*
X12721105Y4125159D1*
X12715196Y4149769D1*
X12713211Y4175001D1*
X12715196Y4200232D1*
X12721105Y4224842D1*
X12730790Y4248225D1*
X12744014Y4269804D1*
X12760451Y4289050D1*
X12779697Y4305487D1*
X12801276Y4318711D1*
X12824659Y4328396D1*
X12849269Y4334305D1*
X12874501Y4336291D1*
X12899732Y4334305D1*
X12924342Y4328396D1*
X12947725Y4318711D1*
X12967207Y4306889D1*
X12967211Y4336290D1*
X13289791D1*
Y4013710D1*
X13260397D1*
X13272211Y3994225D1*
X13281896Y3970842D1*
X13287805Y3946232D1*
X13289791Y3921001D1*
X13289293Y3908346D1*
X11066793D2*
X11062834Y3883348D1*
X11055013Y3859278D1*
X11043523Y3836727D1*
X11028646Y3816251D1*
X11010750Y3798355D1*
X11005350Y3794098D1*
X11020050Y3781050D1*
X11036487Y3761804D1*
X11049711Y3740225D1*
X11059396Y3716842D1*
X11065305Y3692232D1*
X11067291Y3667001D1*
X11065305Y3641769D1*
X11059396Y3617159D1*
X11049711Y3593776D1*
X11036487Y3572197D1*
X11020050Y3552951D1*
X11005350Y3540098D1*
X11020050Y3527050D1*
X11036487Y3507804D1*
X11049711Y3486225D1*
X11059396Y3462842D1*
X11065305Y3438232D1*
X11067291Y3413001D1*
X11065305Y3387769D1*
X11059396Y3363159D1*
X11049711Y3339776D1*
X11036487Y3318197D1*
X11020050Y3298951D1*
X11005350Y3286098D1*
X11021638Y3271439D1*
X11037841Y3251912D1*
X11050781Y3230086D1*
X11060138Y3206501D1*
X11065680Y3181739D1*
X11067291Y3159001D1*
X11065295Y3133705D1*
X11059356Y3109036D1*
X11049623Y3085604D1*
X11036335Y3063988D1*
X11019821Y3044723D1*
X11005423Y3032003D1*
X11021638Y3017439D1*
X11037841Y2997912D1*
X11050781Y2976086D1*
X11060138Y2952501D1*
X11065680Y2927739D1*
X11067291Y2905001D1*
X11065295Y2879705D1*
X11059356Y2855036D1*
X11049623Y2831604D1*
X11036335Y2809988D1*
X11019821Y2790723D1*
X11005423Y2778003D1*
X11021638Y2763439D1*
X11037841Y2743912D1*
X11050781Y2722086D1*
X11060138Y2698501D1*
X11065680Y2673739D1*
X11067291Y2651001D1*
X11065295Y2625705D1*
X11059356Y2601036D1*
X11049623Y2577604D1*
X11036335Y2555988D1*
X11019821Y2536723D1*
X11005423Y2524003D1*
X11020050Y2511050D1*
X11036487Y2491804D1*
X11049711Y2470225D1*
X11059396Y2446842D1*
X11065305Y2422232D1*
X11067291Y2397001D1*
X11065305Y2371769D1*
X11059396Y2347159D1*
X11049711Y2323776D1*
X11036487Y2302197D1*
X11020050Y2282951D1*
X11000804Y2266514D1*
X10979225Y2253290D1*
X10955842Y2243605D1*
X10931232Y2237696D1*
X10906001Y2235711D1*
X10880769Y2237696D1*
X10856159Y2243605D1*
X10832776Y2253290D1*
X10811197Y2266514D1*
X10791951Y2282951D1*
X10779098Y2297651D1*
X10766050Y2282951D1*
X10746804Y2266514D1*
X10725225Y2253290D1*
X10701842Y2243605D1*
X10677232Y2237696D1*
X10652001Y2235711D1*
X10626769Y2237696D1*
X10602159Y2243605D1*
X10578776Y2253290D1*
X10557197Y2266514D1*
X10537951Y2282951D1*
X10521514Y2302197D1*
X10508290Y2323776D1*
X10498605Y2347159D1*
X10492696Y2371769D1*
X10490711Y2397001D1*
X10492696Y2422232D1*
X10498605Y2446842D1*
X10508290Y2470225D1*
X10521514Y2491804D1*
X10537951Y2511050D1*
X10552651Y2523904D1*
X10537268Y2537639D1*
X10520909Y2557035D1*
X10507795Y2578757D1*
X10498249Y2602267D1*
X10492509Y2626983D1*
X10490716Y2652293D1*
X10492914Y2677571D1*
X10499050Y2702192D1*
X10508971Y2725546D1*
X10522432Y2747055D1*
X10539099Y2766186D1*
X10552589Y2777989D1*
X10537268Y2791639D1*
X10520909Y2811035D1*
X10507795Y2832757D1*
X10498249Y2856267D1*
X10492509Y2880983D1*
X10490716Y2906293D1*
X10492914Y2931571D1*
X10499050Y2956192D1*
X10508971Y2979546D1*
X10522432Y3001055D1*
X10539099Y3020186D1*
X10552589Y3031989D1*
X10537268Y3045639D1*
X10520909Y3065035D1*
X10507795Y3086757D1*
X10498249Y3110267D1*
X10492509Y3134983D1*
X10490716Y3160293D1*
X10492914Y3185571D1*
X10499050Y3210192D1*
X10508971Y3233546D1*
X10522432Y3255055D1*
X10539099Y3274186D1*
X10552589Y3285989D1*
X10537951Y3298951D1*
X10521514Y3318197D1*
X10508290Y3339776D1*
X10498605Y3363159D1*
X10492696Y3387769D1*
X10490711Y3413001D1*
X10492696Y3438232D1*
X10498605Y3462842D1*
X10508290Y3486225D1*
X10521514Y3507804D1*
X10537951Y3527050D1*
X10552651Y3539904D1*
X10537951Y3552951D1*
X10521514Y3572197D1*
X10508290Y3593776D1*
X10498605Y3617159D1*
X10492696Y3641769D1*
X10490711Y3667001D1*
X10492696Y3692232D1*
X10498605Y3716842D1*
X10508290Y3740225D1*
X10521514Y3761804D1*
X10537951Y3781050D1*
X10552651Y3793904D1*
X10537951Y3806951D1*
X10521514Y3826197D1*
X10508290Y3847776D1*
X10498605Y3871159D1*
X10492696Y3895769D1*
X10490711Y3921001D1*
X10492696Y3946232D1*
X10498605Y3970842D1*
X10508290Y3994225D1*
X10521514Y4015804D1*
X10537951Y4035050D1*
X10552651Y4047904D1*
X10537951Y4060951D1*
X10521514Y4080197D1*
X10508290Y4101776D1*
X10498605Y4125159D1*
X10492696Y4149769D1*
X10490711Y4175001D1*
X10492696Y4200232D1*
X10498605Y4224842D1*
X10508290Y4248225D1*
X10521514Y4269804D1*
X10537951Y4289050D1*
X10557197Y4305487D1*
X10578776Y4318711D1*
X10602159Y4328396D1*
X10626769Y4334305D1*
X10652001Y4336291D1*
X10677232Y4334305D1*
X10701842Y4328396D1*
X10725225Y4318711D1*
X10744707Y4306889D1*
X10744711Y4336290D1*
X11067291D1*
Y4013710D1*
X11037897D1*
X11049711Y3994225D1*
X11059396Y3970842D1*
X11065305Y3946232D1*
X11067291Y3921001D1*
X11066793Y3908346D1*
X8844293D2*
X8840334Y3883348D1*
X8832513Y3859278D1*
X8821023Y3836727D1*
X8806146Y3816251D1*
X8788250Y3798355D1*
X8782850Y3794098D1*
X8797550Y3781050D1*
X8813987Y3761804D1*
X8827211Y3740225D1*
X8836896Y3716842D1*
X8842805Y3692232D1*
X8844791Y3667001D1*
X8842805Y3641769D1*
X8836896Y3617159D1*
X8827211Y3593776D1*
X8813987Y3572197D1*
X8797550Y3552951D1*
X8782850Y3540098D1*
X8797550Y3527050D1*
X8813987Y3507804D1*
X8827211Y3486225D1*
X8836896Y3462842D1*
X8842805Y3438232D1*
X8844791Y3413001D1*
X8842805Y3387769D1*
X8836896Y3363159D1*
X8827211Y3339776D1*
X8813987Y3318197D1*
X8797550Y3298951D1*
X8782850Y3286098D1*
X8799138Y3271439D1*
X8815341Y3251912D1*
X8828281Y3230086D1*
X8837638Y3206501D1*
X8843180Y3181739D1*
X8844791Y3159001D1*
X8842795Y3133705D1*
X8836856Y3109036D1*
X8827123Y3085604D1*
X8813835Y3063988D1*
X8797321Y3044723D1*
X8782923Y3032003D1*
X8799138Y3017439D1*
X8815341Y2997912D1*
X8828281Y2976086D1*
X8837638Y2952501D1*
X8843180Y2927739D1*
X8844791Y2905001D1*
X8842795Y2879705D1*
X8836856Y2855036D1*
X8827123Y2831604D1*
X8813835Y2809988D1*
X8797321Y2790723D1*
X8782923Y2778003D1*
X8799138Y2763439D1*
X8815341Y2743912D1*
X8828281Y2722086D1*
X8837638Y2698501D1*
X8843180Y2673739D1*
X8844791Y2651001D1*
X8842795Y2625705D1*
X8836856Y2601036D1*
X8827123Y2577604D1*
X8813835Y2555988D1*
X8797321Y2536723D1*
X8782923Y2524003D1*
X8797550Y2511050D1*
X8813987Y2491804D1*
X8827211Y2470225D1*
X8836896Y2446842D1*
X8842805Y2422232D1*
X8844791Y2397001D1*
X8842805Y2371769D1*
X8836896Y2347159D1*
X8827211Y2323776D1*
X8813987Y2302197D1*
X8797550Y2282951D1*
X8778304Y2266514D1*
X8756725Y2253290D1*
X8733342Y2243605D1*
X8708732Y2237696D1*
X8683501Y2235711D1*
X8658269Y2237696D1*
X8633659Y2243605D1*
X8610276Y2253290D1*
X8588697Y2266514D1*
X8569451Y2282951D1*
X8556598Y2297651D1*
X8543550Y2282951D1*
X8524304Y2266514D1*
X8502725Y2253290D1*
X8479342Y2243605D1*
X8454732Y2237696D1*
X8429501Y2235711D1*
X8404269Y2237696D1*
X8379659Y2243605D1*
X8356276Y2253290D1*
X8334697Y2266514D1*
X8315451Y2282951D1*
X8299014Y2302197D1*
X8285790Y2323776D1*
X8276105Y2347159D1*
X8270196Y2371769D1*
X8268211Y2397001D1*
X8270196Y2422232D1*
X8276105Y2446842D1*
X8285790Y2470225D1*
X8299014Y2491804D1*
X8315451Y2511050D1*
X8330151Y2523904D1*
X8314768Y2537639D1*
X8298409Y2557035D1*
X8285295Y2578757D1*
X8275749Y2602267D1*
X8270009Y2626983D1*
X8268216Y2652293D1*
X8270414Y2677571D1*
X8276550Y2702192D1*
X8286471Y2725546D1*
X8299932Y2747055D1*
X8316599Y2766186D1*
X8330089Y2777989D1*
X8314768Y2791639D1*
X8298409Y2811035D1*
X8285295Y2832757D1*
X8275749Y2856267D1*
X8270009Y2880983D1*
X8268216Y2906293D1*
X8270414Y2931571D1*
X8276550Y2956192D1*
X8286471Y2979546D1*
X8299932Y3001055D1*
X8316599Y3020186D1*
X8330089Y3031989D1*
X8314768Y3045639D1*
X8298409Y3065035D1*
X8285295Y3086757D1*
X8275749Y3110267D1*
X8270009Y3134983D1*
X8268216Y3160293D1*
X8270414Y3185571D1*
X8276550Y3210192D1*
X8286471Y3233546D1*
X8299932Y3255055D1*
X8316599Y3274186D1*
X8330089Y3285989D1*
X8315451Y3298951D1*
X8299014Y3318197D1*
X8285790Y3339776D1*
X8276105Y3363159D1*
X8270196Y3387769D1*
X8268211Y3413001D1*
X8270196Y3438232D1*
X8276105Y3462842D1*
X8285790Y3486225D1*
X8299014Y3507804D1*
X8315451Y3527050D1*
X8330151Y3539904D1*
X8315451Y3552951D1*
X8299014Y3572197D1*
X8285790Y3593776D1*
X8276105Y3617159D1*
X8270196Y3641769D1*
X8268211Y3667001D1*
X8270196Y3692232D1*
X8276105Y3716842D1*
X8285790Y3740225D1*
X8299014Y3761804D1*
X8315451Y3781050D1*
X8330151Y3793904D1*
X8315451Y3806951D1*
X8299014Y3826197D1*
X8285790Y3847776D1*
X8276105Y3871159D1*
X8270196Y3895769D1*
X8268211Y3921001D1*
X8270196Y3946232D1*
X8276105Y3970842D1*
X8285790Y3994225D1*
X8299014Y4015804D1*
X8315451Y4035050D1*
X8330151Y4047904D1*
X8315451Y4060951D1*
X8299014Y4080197D1*
X8285790Y4101776D1*
X8276105Y4125159D1*
X8270196Y4149769D1*
X8268211Y4175001D1*
X8270196Y4200232D1*
X8276105Y4224842D1*
X8285790Y4248225D1*
X8299014Y4269804D1*
X8315451Y4289050D1*
X8334697Y4305487D1*
X8356276Y4318711D1*
X8379659Y4328396D1*
X8404269Y4334305D1*
X8429501Y4336291D1*
X8454732Y4334305D1*
X8479342Y4328396D1*
X8502725Y4318711D1*
X8522207Y4306889D1*
X8522211Y4336290D1*
X8844791D1*
Y4013710D1*
X8815397D1*
X8827211Y3994225D1*
X8836896Y3970842D1*
X8842805Y3946232D1*
X8844791Y3921001D1*
X8844293Y3908346D1*
X20919053Y1713731D2*
X20946464Y1707860D1*
X20961315Y1701108D1*
X20998586Y1679633D1*
X21041263Y1704074D1*
X21060224Y1710524D1*
X21113162Y1719692D1*
X21248391Y1720091D1*
X21383470Y1719706D1*
X21440065Y1709780D1*
X21458736Y1702533D1*
X21505185Y1675528D1*
X21520252Y1662332D1*
X21554662Y1621069D1*
X21564306Y1603515D1*
X21582527Y1552972D1*
X21585586Y1533179D1*
X21585425Y1479458D1*
X21581531Y1459812D1*
X21563000Y1409377D1*
X21552621Y1392248D1*
X21517966Y1351199D1*
X21502355Y1338652D1*
X21455738Y1311927D1*
X21436777Y1305477D1*
X21383839Y1296309D1*
X21248611Y1295910D1*
X21114934Y1296172D1*
X21056936Y1306222D1*
X21038265Y1313468D1*
X20998415Y1336369D1*
X20955738Y1311927D1*
X20936777Y1305477D1*
X20883839Y1296309D1*
X20748611Y1295910D1*
X20614934Y1296172D1*
X20556936Y1306221D1*
X20538265Y1313467D1*
X20491816Y1340473D1*
X20476749Y1353669D1*
X20442340Y1394933D1*
X20432695Y1412486D1*
X20414474Y1463029D1*
X20411415Y1482822D1*
X20411577Y1536543D1*
X20415470Y1556189D1*
X20434002Y1606624D1*
X20444381Y1623753D1*
X20479035Y1664802D1*
X20494646Y1677349D1*
X20541263Y1704074D1*
X20560224Y1710524D1*
X20613162Y1719692D1*
X20748391Y1720091D1*
X20883470Y1719706D1*
X20919053Y1713731D1*
X20896346Y2479714D2*
X20945834Y2470074D1*
X20955141Y2466336D1*
X20998535Y2441662D1*
X21040963Y2465930D1*
X21058922Y2472236D1*
X21112830Y2481659D1*
X21165841Y2482091D1*
X21383185Y2481733D1*
X21439742Y2471862D1*
X21457554Y2465150D1*
X21504910Y2437716D1*
X21519352Y2425315D1*
X21554468Y2383339D1*
X21563797Y2366747D1*
X21582437Y2315293D1*
X21585529Y2296511D1*
X21585450Y2241790D1*
X21581932Y2223083D1*
X21563137Y2171681D1*
X21553433Y2155305D1*
X21515569Y2110850D1*
X21499828Y2099130D1*
X21456038Y2074072D1*
X21438079Y2067765D1*
X21384171Y2058342D1*
X21331161Y2057910D1*
X21115266Y2058147D1*
X21063467Y2066810D1*
X21045226Y2072165D1*
X21024682Y2083234D1*
X20998466Y2098339D1*
X20956039Y2074071D1*
X20938079Y2067765D1*
X20884171Y2058342D1*
X20831161Y2057911D1*
X20615266Y2058147D1*
X20563467Y2066810D1*
X20545226Y2072165D1*
X20524682Y2083234D1*
X20486979Y2106050D1*
X20479512Y2112745D1*
X20444125Y2154524D1*
X20434291Y2170793D1*
X20414564Y2224708D1*
X20411472Y2243490D1*
X20411552Y2298211D1*
X20415069Y2316918D1*
X20433864Y2368320D1*
X20443569Y2384696D1*
X20478803Y2426564D1*
X20493522Y2438633D1*
X20540963Y2465930D1*
X20558922Y2472236D1*
X20612830Y2481659D1*
X20665841Y2482091D1*
X20883185Y2481733D1*
X20896346Y2479714D1*
X20919053Y3237731D2*
X20946464Y3231860D1*
X20961315Y3225108D1*
X20998586Y3203633D1*
X21041263Y3228074D1*
X21060224Y3234524D1*
X21113162Y3243692D1*
X21248391Y3244091D1*
X21383470Y3243706D1*
X21440065Y3233780D1*
X21458736Y3226534D1*
X21505185Y3199528D1*
X21520252Y3186332D1*
X21554661Y3145068D1*
X21564306Y3127515D1*
X21582527Y3076972D1*
X21585586Y3057179D1*
X21585424Y3003458D1*
X21581531Y2983812D1*
X21562999Y2933377D1*
X21552620Y2916248D1*
X21517966Y2875199D1*
X21502355Y2862652D1*
X21455738Y2835927D1*
X21436777Y2829477D1*
X21383839Y2820309D1*
X21248611Y2819910D1*
X21114934Y2820173D1*
X21056936Y2830222D1*
X21038265Y2837468D1*
X20998415Y2860368D1*
X20955738Y2835927D1*
X20936777Y2829477D1*
X20883839Y2820309D1*
X20748611Y2819910D1*
X20614934Y2820173D1*
X20556936Y2830222D1*
X20538265Y2837468D1*
X20491816Y2864474D1*
X20476749Y2877669D1*
X20442340Y2918933D1*
X20432695Y2936486D1*
X20414474Y2987029D1*
X20411415Y3006822D1*
X20411577Y3060543D1*
X20415470Y3080189D1*
X20434002Y3130624D1*
X20444381Y3147753D1*
X20479035Y3188802D1*
X20494646Y3201349D1*
X20541263Y3228074D1*
X20560224Y3234524D1*
X20613162Y3243692D1*
X20748391Y3244091D1*
X20883470Y3243706D1*
X20919053Y3237731D1*
X20890430Y4004752D2*
X20940065Y3995779D1*
X20958736Y3988533D1*
X20972362Y3980743D1*
X21024453Y3980691D1*
X21047399Y3992717D1*
X21063112Y3997089D1*
X21113162Y4005692D1*
X21280141Y4006091D1*
X21383470Y4005706D1*
X21440065Y3995779D1*
X21458736Y3988533D1*
X21505185Y3961527D1*
X21520252Y3948332D1*
X21554661Y3907068D1*
X21564306Y3889515D1*
X21582527Y3838972D1*
X21585586Y3819179D1*
X21585424Y3765458D1*
X21581531Y3745812D1*
X21562999Y3695377D1*
X21552620Y3678248D1*
X21517966Y3637199D1*
X21502355Y3624652D1*
X21455738Y3597927D1*
X21436777Y3591477D1*
X21383839Y3582309D1*
X21248611Y3581910D1*
X21114934Y3582173D1*
X21056936Y3592222D1*
X21038265Y3599468D1*
X21024639Y3607258D1*
X20972548Y3607310D1*
X20949602Y3595285D1*
X20933889Y3590913D1*
X20883839Y3582309D1*
X20748611Y3581910D1*
X20614934Y3582173D1*
X20556936Y3592222D1*
X20538265Y3599468D1*
X20491816Y3626473D1*
X20476749Y3639669D1*
X20442340Y3680933D1*
X20432695Y3698486D1*
X20414474Y3749029D1*
X20411415Y3768822D1*
X20411577Y3822543D1*
X20415470Y3842189D1*
X20434001Y3892624D1*
X20444380Y3909753D1*
X20479035Y3950802D1*
X20494646Y3963350D1*
X20541263Y3990074D1*
X20560224Y3996524D1*
X20613162Y4005692D1*
X20748391Y4006091D1*
X20882067Y4005829D1*
X20888727Y4005038D1*
X4399293Y3908346D2*
X4395334Y3883348D1*
X4387513Y3859278D1*
X4376023Y3836727D1*
X4361146Y3816251D1*
X4343250Y3798355D1*
X4337850Y3794098D1*
X4352550Y3781050D1*
X4368987Y3761804D1*
X4382211Y3740225D1*
X4391896Y3716842D1*
X4397805Y3692232D1*
X4399791Y3667001D1*
X4397805Y3641769D1*
X4391896Y3617159D1*
X4382211Y3593776D1*
X4368987Y3572197D1*
X4352550Y3552951D1*
X4337850Y3540098D1*
X4352550Y3527050D1*
X4368987Y3507804D1*
X4382211Y3486225D1*
X4391896Y3462842D1*
X4397805Y3438232D1*
X4399791Y3413001D1*
X4397805Y3387769D1*
X4391896Y3363159D1*
X4382211Y3339776D1*
X4368987Y3318197D1*
X4352550Y3298951D1*
X4337850Y3286098D1*
X4354138Y3271439D1*
X4370341Y3251912D1*
X4383281Y3230086D1*
X4392638Y3206501D1*
X4398180Y3181739D1*
X4399791Y3159001D1*
X4397795Y3133705D1*
X4391856Y3109036D1*
X4382123Y3085604D1*
X4368835Y3063988D1*
X4352321Y3044723D1*
X4337923Y3032003D1*
X4354138Y3017439D1*
X4370341Y2997912D1*
X4383281Y2976086D1*
X4392638Y2952501D1*
X4398180Y2927739D1*
X4399791Y2905001D1*
X4397795Y2879705D1*
X4391856Y2855036D1*
X4382123Y2831604D1*
X4368835Y2809988D1*
X4352321Y2790723D1*
X4337923Y2778003D1*
X4354138Y2763439D1*
X4370341Y2743912D1*
X4383281Y2722086D1*
X4392638Y2698501D1*
X4398180Y2673739D1*
X4399791Y2651001D1*
X4397795Y2625705D1*
X4391856Y2601036D1*
X4382123Y2577604D1*
X4368835Y2555988D1*
X4352321Y2536723D1*
X4337923Y2524003D1*
X4352550Y2511050D1*
X4368987Y2491804D1*
X4382211Y2470225D1*
X4391896Y2446842D1*
X4397805Y2422232D1*
X4399791Y2397001D1*
X4397805Y2371769D1*
X4391896Y2347159D1*
X4382211Y2323776D1*
X4368987Y2302197D1*
X4352550Y2282951D1*
X4333304Y2266514D1*
X4311725Y2253290D1*
X4288342Y2243605D1*
X4263732Y2237696D1*
X4238501Y2235711D1*
X4213269Y2237696D1*
X4188659Y2243605D1*
X4165276Y2253290D1*
X4143697Y2266514D1*
X4124451Y2282951D1*
X4111598Y2297651D1*
X4098550Y2282951D1*
X4079304Y2266514D1*
X4057725Y2253290D1*
X4034342Y2243605D1*
X4009732Y2237696D1*
X3984501Y2235711D1*
X3959269Y2237696D1*
X3934659Y2243605D1*
X3911276Y2253290D1*
X3889697Y2266514D1*
X3870451Y2282951D1*
X3854014Y2302197D1*
X3840790Y2323776D1*
X3831105Y2347159D1*
X3825196Y2371769D1*
X3823211Y2397001D1*
X3825196Y2422232D1*
X3831105Y2446842D1*
X3840790Y2470225D1*
X3854014Y2491804D1*
X3870451Y2511050D1*
X3885151Y2523904D1*
X3869768Y2537639D1*
X3853409Y2557035D1*
X3840295Y2578757D1*
X3830749Y2602267D1*
X3825009Y2626983D1*
X3823216Y2652293D1*
X3825414Y2677571D1*
X3831550Y2702192D1*
X3841471Y2725546D1*
X3854932Y2747055D1*
X3871599Y2766186D1*
X3885089Y2777989D1*
X3869768Y2791639D1*
X3853409Y2811035D1*
X3840295Y2832757D1*
X3830749Y2856267D1*
X3825009Y2880983D1*
X3823216Y2906293D1*
X3825414Y2931571D1*
X3831550Y2956192D1*
X3841471Y2979546D1*
X3854932Y3001055D1*
X3871599Y3020186D1*
X3885089Y3031989D1*
X3869768Y3045639D1*
X3853409Y3065035D1*
X3840295Y3086757D1*
X3830749Y3110267D1*
X3825009Y3134983D1*
X3823216Y3160293D1*
X3825414Y3185571D1*
X3831550Y3210192D1*
X3841471Y3233546D1*
X3854932Y3255055D1*
X3871599Y3274186D1*
X3885089Y3285989D1*
X3870451Y3298951D1*
X3854014Y3318197D1*
X3840790Y3339776D1*
X3831105Y3363159D1*
X3825196Y3387769D1*
X3823211Y3413001D1*
X3825196Y3438232D1*
X3831105Y3462842D1*
X3840790Y3486225D1*
X3854014Y3507804D1*
X3870451Y3527050D1*
X3885151Y3539904D1*
X3870451Y3552951D1*
X3854014Y3572197D1*
X3840790Y3593776D1*
X3831105Y3617159D1*
X3825196Y3641769D1*
X3823211Y3667001D1*
X3825196Y3692232D1*
X3831105Y3716842D1*
X3840790Y3740225D1*
X3854014Y3761804D1*
X3870451Y3781050D1*
X3885151Y3793904D1*
X3870451Y3806951D1*
X3854014Y3826197D1*
X3840790Y3847776D1*
X3831105Y3871159D1*
X3825196Y3895769D1*
X3823211Y3921001D1*
X3825196Y3946232D1*
X3831105Y3970842D1*
X3840790Y3994225D1*
X3854014Y4015804D1*
X3870451Y4035050D1*
X3885151Y4047904D1*
X3870451Y4060951D1*
X3854014Y4080197D1*
X3840790Y4101776D1*
X3831105Y4125159D1*
X3825196Y4149769D1*
X3823211Y4175001D1*
X3825196Y4200232D1*
X3831105Y4224842D1*
X3840790Y4248225D1*
X3854014Y4269804D1*
X3870451Y4289050D1*
X3889697Y4305487D1*
X3911276Y4318711D1*
X3934659Y4328396D1*
X3959269Y4334305D1*
X3984501Y4336291D1*
X4009732Y4334305D1*
X4034342Y4328396D1*
X4057725Y4318711D1*
X4077207Y4306889D1*
X4077211Y4336290D1*
X4399791D1*
Y4013710D1*
X4370397D1*
X4382211Y3994225D1*
X4391896Y3970842D1*
X4397805Y3946232D1*
X4399791Y3921001D1*
X4399293Y3908346D1*
X36212793D2*
X36208834Y3883348D1*
X36201013Y3859278D1*
X36189523Y3836727D1*
X36174646Y3816251D1*
X36156750Y3798355D1*
X36151350Y3794098D1*
X36166050Y3781050D1*
X36182487Y3761804D1*
X36195711Y3740225D1*
X36205396Y3716842D1*
X36211305Y3692232D1*
X36213291Y3667001D1*
X36211305Y3641769D1*
X36205396Y3617159D1*
X36195711Y3593776D1*
X36182487Y3572197D1*
X36166050Y3552951D1*
X36151350Y3540098D1*
X36166050Y3527050D1*
X36182487Y3507804D1*
X36195711Y3486225D1*
X36205396Y3462842D1*
X36211305Y3438232D1*
X36213291Y3413001D1*
X36211305Y3387769D1*
X36205396Y3363159D1*
X36195711Y3339776D1*
X36182487Y3318197D1*
X36166050Y3298951D1*
X36151350Y3286098D1*
X36167638Y3271439D1*
X36183841Y3251912D1*
X36196781Y3230086D1*
X36206138Y3206501D1*
X36211680Y3181739D1*
X36213291Y3159001D1*
X36211295Y3133705D1*
X36205356Y3109036D1*
X36195623Y3085604D1*
X36182335Y3063988D1*
X36165821Y3044723D1*
X36151423Y3032003D1*
X36167638Y3017439D1*
X36183841Y2997912D1*
X36196781Y2976086D1*
X36206138Y2952501D1*
X36211680Y2927739D1*
X36213291Y2905001D1*
X36211295Y2879705D1*
X36205356Y2855036D1*
X36195623Y2831604D1*
X36182335Y2809988D1*
X36165821Y2790723D1*
X36151423Y2778003D1*
X36167638Y2763439D1*
X36183841Y2743912D1*
X36196781Y2722086D1*
X36206138Y2698501D1*
X36211680Y2673739D1*
X36213291Y2651001D1*
X36211295Y2625705D1*
X36205356Y2601036D1*
X36195623Y2577604D1*
X36182335Y2555988D1*
X36165821Y2536723D1*
X36151423Y2524003D1*
X36166050Y2511050D1*
X36182487Y2491804D1*
X36195711Y2470225D1*
X36205396Y2446842D1*
X36211305Y2422232D1*
X36213291Y2397001D1*
X36211305Y2371769D1*
X36205396Y2347159D1*
X36195711Y2323776D1*
X36182487Y2302197D1*
X36166050Y2282951D1*
X36146804Y2266514D1*
X36125225Y2253290D1*
X36101842Y2243605D1*
X36077232Y2237696D1*
X36052001Y2235711D1*
X36026769Y2237696D1*
X36002159Y2243605D1*
X35978776Y2253290D1*
X35957197Y2266514D1*
X35937951Y2282951D1*
X35925098Y2297651D1*
X35912050Y2282951D1*
X35892804Y2266514D1*
X35871225Y2253290D1*
X35847842Y2243605D1*
X35823232Y2237696D1*
X35798001Y2235711D1*
X35772769Y2237696D1*
X35748159Y2243605D1*
X35724776Y2253290D1*
X35703197Y2266514D1*
X35683951Y2282951D1*
X35667514Y2302197D1*
X35654290Y2323776D1*
X35644605Y2347159D1*
X35638696Y2371769D1*
X35636711Y2397001D1*
X35638696Y2422232D1*
X35644605Y2446842D1*
X35654290Y2470225D1*
X35667514Y2491804D1*
X35683951Y2511050D1*
X35698651Y2523904D1*
X35683268Y2537639D1*
X35666909Y2557035D1*
X35653795Y2578757D1*
X35644249Y2602267D1*
X35638509Y2626983D1*
X35636716Y2652293D1*
X35638914Y2677571D1*
X35645050Y2702192D1*
X35654971Y2725546D1*
X35668432Y2747055D1*
X35685099Y2766186D1*
X35698589Y2777989D1*
X35683268Y2791639D1*
X35666909Y2811035D1*
X35653795Y2832757D1*
X35644249Y2856267D1*
X35638509Y2880983D1*
X35636716Y2906293D1*
X35638914Y2931571D1*
X35645050Y2956192D1*
X35654971Y2979546D1*
X35668432Y3001055D1*
X35685099Y3020186D1*
X35698589Y3031989D1*
X35683268Y3045639D1*
X35666909Y3065035D1*
X35653795Y3086757D1*
X35644249Y3110267D1*
X35638509Y3134983D1*
X35636716Y3160293D1*
X35638914Y3185571D1*
X35645050Y3210192D1*
X35654971Y3233546D1*
X35668432Y3255055D1*
X35685099Y3274186D1*
X35698589Y3285989D1*
X35683951Y3298951D1*
X35667514Y3318197D1*
X35654290Y3339776D1*
X35644605Y3363159D1*
X35638696Y3387769D1*
X35636711Y3413001D1*
X35638696Y3438232D1*
X35644605Y3462842D1*
X35654290Y3486225D1*
X35667514Y3507804D1*
X35683951Y3527050D1*
X35698651Y3539904D1*
X35683951Y3552951D1*
X35667514Y3572197D1*
X35654290Y3593776D1*
X35644605Y3617159D1*
X35638696Y3641769D1*
X35636711Y3667001D1*
X35638696Y3692232D1*
X35644605Y3716842D1*
X35654290Y3740225D1*
X35667514Y3761804D1*
X35683951Y3781050D1*
X35698651Y3793904D1*
X35683951Y3806951D1*
X35667514Y3826197D1*
X35654290Y3847776D1*
X35644605Y3871159D1*
X35638696Y3895769D1*
X35636711Y3921001D1*
X35638696Y3946232D1*
X35644605Y3970842D1*
X35654290Y3994225D1*
X35667514Y4015804D1*
X35683951Y4035050D1*
X35698651Y4047904D1*
X35683951Y4060951D1*
X35667514Y4080197D1*
X35654290Y4101776D1*
X35644605Y4125159D1*
X35638696Y4149769D1*
X35636711Y4175001D1*
X35638696Y4200232D1*
X35644605Y4224842D1*
X35654290Y4248225D1*
X35667514Y4269804D1*
X35683951Y4289050D1*
X35703197Y4305487D1*
X35724776Y4318711D1*
X35748159Y4328396D1*
X35772769Y4334305D1*
X35798001Y4336291D1*
X35823232Y4334305D1*
X35847842Y4328396D1*
X35871225Y4318711D1*
X35890707Y4306889D1*
X35890711Y4336290D1*
X36213291D1*
Y4013710D1*
X36183897D1*
X36195711Y3994225D1*
X36205396Y3970842D1*
X36211305Y3946232D1*
X36213291Y3921001D1*
X36212793Y3908346D1*
X20583411Y5546590D2*
X20881841D1*
Y5520669D1*
X20905788Y5533272D1*
X20929814Y5541435D1*
X20954807Y5545819D1*
X20980177Y5546321D1*
X21005324Y5542930D1*
X21029655Y5535724D1*
X21052594Y5524876D1*
X21073599Y5510640D1*
X21092175Y5493353D1*
X21097723Y5486970D1*
X21117533Y5507036D1*
X21138491Y5522263D1*
X21161573Y5534024D1*
X21186211Y5542029D1*
X21211798Y5546082D1*
X21237703D1*
X21263290Y5542029D1*
X21287928Y5534024D1*
X21311010Y5522263D1*
X21331968Y5507036D1*
X21350286Y5488718D1*
X21365513Y5467760D1*
X21377274Y5444678D1*
X21385279Y5420040D1*
X21389332Y5394453D1*
Y5368548D1*
X21385279Y5342961D1*
X21377274Y5318323D1*
X21365513Y5295241D1*
X21350286Y5274283D1*
X21331968Y5255965D1*
X21311010Y5240738D1*
X21287928Y5228977D1*
X21263290Y5220972D1*
X21237703Y5216919D1*
X21211798D1*
X21186211Y5220972D1*
X21161573Y5228977D1*
X21138491Y5240738D1*
X21117533Y5255965D1*
X21097804Y5276073D1*
X21080177Y5257886D1*
X21059941Y5242577D1*
X21037597Y5230549D1*
X21013674Y5222088D1*
X20988738Y5217393D1*
X20963376Y5216575D1*
X20938188Y5219654D1*
X20913770Y5226556D1*
X20890698Y5237118D1*
X20881830Y5242438D1*
X20881841Y5216410D1*
X20551661D1*
Y5546590D1*
X20583411D1*
X21059666Y4099408D2*
X21037597Y4087549D1*
X21013674Y4079088D1*
X20988738Y4074393D1*
X20963376Y4073575D1*
X20938188Y4076654D1*
X20913770Y4083556D1*
X20890698Y4094118D1*
X20869517Y4108092D1*
X20850728Y4125146D1*
X20834774Y4144878D1*
X20822033Y4166823D1*
X20812805Y4190460D1*
X20807308Y4215233D1*
X20805673Y4240555D1*
X20807938Y4265829D1*
X20814049Y4290457D1*
X20823863Y4313857D1*
X20837146Y4335478D1*
X20853586Y4354807D1*
X20872794Y4371388D1*
X20894316Y4384830D1*
X20917644Y4394815D1*
X20942226Y4401108D1*
X20967482Y4403558D1*
X20992816Y4402109D1*
X21017628Y4396795D1*
X21041333Y4387741D1*
X21059648Y4377581D1*
X21059661Y4403590D1*
X21389841D1*
Y4073410D1*
X21059661D1*
Y4099331D1*
X19649390Y4879840D2*
X19675341D1*
Y4549660D1*
X19345161D1*
Y4879840D1*
X19370774Y4880427D1*
X19358886Y4902845D1*
X19350574Y4926819D1*
X19346035Y4951785D1*
X19345374Y4977151D1*
X19348609Y5002319D1*
X19355663Y5026694D1*
X19366369Y5049700D1*
X19380474Y5070794D1*
X19397645Y5089476D1*
X19417476Y5105307D1*
X19439499Y5117911D1*
X19463194Y5126992D1*
X19488000Y5132334D1*
X19513332Y5133812D1*
X19538591Y5131390D1*
X19563181Y5125125D1*
X19586520Y5115167D1*
X19608057Y5101749D1*
X19627284Y5085189D1*
X19643745Y5065879D1*
X19657053Y5044273D1*
X19666893Y5020884D1*
X19673032Y4996263D1*
X19675325Y4970992D1*
X19674243Y4949743D1*
X19669393Y4924836D1*
X19660783Y4900966D1*
X19649339Y4879855D1*
X19970161Y4953340D2*
X20288591D1*
Y4603160D1*
X19938411D1*
Y4953340D1*
X19970161D1*
X21393051Y4764513D2*
X21388753Y4737377D1*
X21380263Y4711246D1*
X21367789Y4686766D1*
X21351640Y4664539D1*
X21332212Y4645111D1*
X21309985Y4628962D1*
X21285505Y4616488D1*
X21259374Y4607998D1*
X21232238Y4603700D1*
X21204763D1*
X21177627Y4607998D1*
X21151496Y4616488D1*
X21127016Y4628962D1*
X21104789Y4645111D1*
X21085361Y4664539D1*
X21069212Y4686766D1*
X21056738Y4711246D1*
X21048248Y4737377D1*
X21043950Y4764513D1*
Y4791988D1*
X21048248Y4819124D1*
X21056738Y4845255D1*
X21069212Y4869735D1*
X21085361Y4891962D1*
X21104789Y4911390D1*
X21127016Y4927539D1*
X21151496Y4940013D1*
X21177627Y4948503D1*
X21204763Y4952801D1*
X21232238D1*
X21259374Y4948503D1*
X21285505Y4940013D1*
X21309985Y4927539D1*
X21332212Y4911390D1*
X21351640Y4891962D1*
X21367789Y4869735D1*
X21380263Y4845255D1*
X21388753Y4819124D1*
X21393051Y4791988D1*
Y4764513D1*
X38606508Y4092867D2*
X38600679Y4056060D1*
X38589163Y4020617D1*
X38572244Y3987412D1*
X38550339Y3957263D1*
X38523988Y3930912D1*
X38500562Y3913499D1*
X38523988Y3895849D1*
X38550339Y3869498D1*
X38572244Y3839349D1*
X38589163Y3806144D1*
X38600679Y3770701D1*
X38606508Y3733894D1*
Y3696627D1*
X38600679Y3659820D1*
X38589163Y3624377D1*
X38572244Y3591172D1*
X38550339Y3561023D1*
X38523988Y3534672D1*
X38500562Y3517259D1*
X38520680Y3502383D1*
X38539391Y3485224D1*
X38556164Y3466165D1*
X38570806Y3445425D1*
X38583151Y3423241D1*
X38593057Y3399865D1*
X38600411Y3375566D1*
X38605129Y3350620D1*
X38607157Y3325313D1*
X38606477Y3299991D1*
X38603093Y3274830D1*
X38597042Y3250173D1*
X38588394Y3226304D1*
X38577248Y3203494D1*
X38563730Y3182004D1*
X38547995Y3162080D1*
X38530223Y3143949D1*
X38510618Y3127819D1*
X38500710Y3120911D1*
X38523988Y3103369D1*
X38550339Y3077018D1*
X38572244Y3046869D1*
X38589163Y3013664D1*
X38600679Y2978221D1*
X38606508Y2941414D1*
Y2904147D1*
X38600679Y2867340D1*
X38589163Y2831897D1*
X38572244Y2798692D1*
X38550339Y2768543D1*
X38523988Y2742192D1*
X38493839Y2720287D1*
X38460634Y2703368D1*
X38425191Y2691852D1*
X38388384Y2686023D1*
X38351117D1*
X38314310Y2691852D1*
X38278867Y2703368D1*
X38245662Y2720287D1*
X38215513Y2742192D1*
X38189162Y2768543D1*
X38167257Y2798692D1*
X38150338Y2831897D1*
X38138822Y2867340D1*
X38132993Y2904147D1*
Y2941414D1*
X38138822Y2978221D1*
X38150338Y3013664D1*
X38167257Y3046869D1*
X38189162Y3077018D1*
X38215513Y3103369D1*
X38238940Y3120782D1*
X38216405Y3137674D1*
X38197923Y3155079D1*
X38181404Y3174359D1*
X38167038Y3195291D1*
X38154988Y3217637D1*
X38145393Y3241142D1*
X38138361Y3265536D1*
X38133974Y3290542D1*
X38132281Y3315874D1*
X38133302Y3341241D1*
X38137025Y3366355D1*
X38143408Y3390927D1*
X38152377Y3414678D1*
X38163830Y3437335D1*
X38177637Y3458641D1*
X38193639Y3478351D1*
X38211653Y3496240D1*
X38231475Y3512104D1*
X38238821Y3517135D1*
X38215513Y3534672D1*
X38189162Y3561023D1*
X38167257Y3591172D1*
X38150338Y3624377D1*
X38138822Y3659820D1*
X38132993Y3696627D1*
Y3733894D1*
X38138822Y3770701D1*
X38150338Y3806144D1*
X38167257Y3839349D1*
X38189162Y3869498D1*
X38215513Y3895849D1*
X38238940Y3913262D1*
X38215513Y3930912D1*
X38189162Y3957263D1*
X38167257Y3987412D1*
X38150338Y4020617D1*
X38138822Y4056060D1*
X38132993Y4092867D1*
Y4130134D1*
X38138822Y4166941D1*
X38150338Y4202384D1*
X38167257Y4235589D1*
X38189162Y4265738D1*
X38215513Y4292089D1*
X38245662Y4313994D1*
X38278867Y4330913D1*
X38314310Y4342429D1*
X38351117Y4348258D1*
X38388384D1*
X38425191Y4342429D1*
X38460634Y4330913D1*
X38493839Y4313994D1*
X38523988Y4292089D1*
X38550339Y4265738D1*
X38572244Y4235589D1*
X38589163Y4202384D1*
X38600679Y4166941D1*
X38606508Y4130134D1*
Y4092867D1*
X18192161Y4762840D2*
X18510591D1*
Y4412660D1*
X18160411D1*
Y4762840D1*
X18192161D1*
X18510051Y3469013D2*
X18505753Y3441877D1*
X18497263Y3415746D1*
X18484789Y3391266D1*
X18468640Y3369039D1*
X18449212Y3349611D1*
X18426985Y3333462D1*
X18402505Y3320988D1*
X18376374Y3312498D1*
X18349238Y3308200D1*
X18321763D1*
X18294627Y3312498D1*
X18268496Y3320988D1*
X18244016Y3333462D1*
X18221789Y3349611D1*
X18202361Y3369039D1*
X18186212Y3391266D1*
X18173738Y3415746D1*
X18165248Y3441877D1*
X18160950Y3469013D1*
Y3496488D1*
X18165248Y3523624D1*
X18173738Y3549755D1*
X18186212Y3574235D1*
X18202361Y3596462D1*
X18221789Y3615890D1*
X18244016Y3632039D1*
X18268496Y3644513D1*
X18294627Y3653003D1*
X18321763Y3657301D1*
X18349238D1*
X18376374Y3653003D1*
X18402505Y3644513D1*
X18426985Y3632039D1*
X18449212Y3615890D1*
X18468640Y3596462D1*
X18484789Y3574235D1*
X18497263Y3549755D1*
X18505753Y3523624D1*
X18510051Y3496488D1*
Y3469013D1*
X36530293Y5400596D2*
X36526334Y5375598D1*
X36518513Y5351528D1*
X36507023Y5328977D1*
X36492146Y5308501D1*
X36474250Y5290605D1*
X36453774Y5275728D1*
X36431224Y5264238D1*
X36407153Y5256417D1*
X36382155Y5252458D1*
X36356846D1*
X36331848Y5256417D1*
X36307778Y5264238D1*
X36285227Y5275728D1*
X36264751Y5290605D1*
X36246855Y5308501D1*
X36231978Y5328977D1*
X36220488Y5351528D1*
X36212667Y5375598D1*
X36208708Y5400596D1*
Y5425905D1*
X36212667Y5450903D1*
X36220488Y5474974D1*
X36231978Y5497524D1*
X36246855Y5518000D1*
X36264751Y5535896D1*
X36285227Y5550773D1*
X36307778Y5562263D1*
X36331848Y5570084D1*
X36356846Y5574043D1*
X36382155D1*
X36407153Y5570084D1*
X36431224Y5562263D1*
X36453774Y5550773D1*
X36474250Y5535896D1*
X36492146Y5518000D1*
X36507023Y5497524D1*
X36518513Y5474974D1*
X36526334Y5450903D1*
X36530293Y5425905D1*
Y5400596D1*
X37546293D2*
X37542334Y5375598D1*
X37534513Y5351528D1*
X37523023Y5328977D1*
X37508146Y5308501D1*
X37490250Y5290605D1*
X37469774Y5275728D1*
X37447224Y5264238D1*
X37423153Y5256417D1*
X37398155Y5252458D1*
X37372846D1*
X37347848Y5256417D1*
X37323778Y5264238D1*
X37301227Y5275728D1*
X37280751Y5290605D1*
X37262855Y5308501D1*
X37247978Y5328977D1*
X37236488Y5351528D1*
X37228667Y5375598D1*
X37224708Y5400596D1*
Y5425905D1*
X37228667Y5450903D1*
X37236488Y5474974D1*
X37247978Y5497524D1*
X37262855Y5518000D1*
X37280751Y5535896D1*
X37301227Y5550773D1*
X37323778Y5562263D1*
X37347848Y5570084D1*
X37372846Y5574043D1*
X37398155D1*
X37423153Y5570084D1*
X37447224Y5562263D1*
X37469774Y5550773D1*
X37490250Y5535896D1*
X37508146Y5518000D1*
X37523023Y5497524D1*
X37534513Y5474974D1*
X37542334Y5450903D1*
X37546293Y5425905D1*
Y5400596D1*
X36530293Y5051346D2*
X36526334Y5026348D1*
X36518513Y5002278D1*
X36507023Y4979727D1*
X36492146Y4959251D1*
X36474250Y4941355D1*
X36453774Y4926478D1*
X36431224Y4914988D1*
X36407153Y4907167D1*
X36382155Y4903208D1*
X36356846D1*
X36331848Y4907167D1*
X36307778Y4914988D1*
X36285227Y4926478D1*
X36264751Y4941355D1*
X36246855Y4959251D1*
X36231978Y4979727D1*
X36220488Y5002278D1*
X36212667Y5026348D1*
X36208708Y5051346D1*
Y5076655D1*
X36212667Y5101653D1*
X36220488Y5125724D1*
X36231978Y5148274D1*
X36246855Y5168750D1*
X36264751Y5186646D1*
X36285227Y5201523D1*
X36307778Y5213013D1*
X36331848Y5220834D1*
X36356846Y5224793D1*
X36382155D1*
X36407153Y5220834D1*
X36431224Y5213013D1*
X36453774Y5201523D1*
X36474250Y5186646D1*
X36492146Y5168750D1*
X36507023Y5148274D1*
X36518513Y5125724D1*
X36526334Y5101653D1*
X36530293Y5076655D1*
Y5051346D1*
X37546293D2*
X37542334Y5026348D1*
X37534513Y5002278D1*
X37523023Y4979727D1*
X37508146Y4959251D1*
X37490250Y4941355D1*
X37469774Y4926478D1*
X37447224Y4914988D1*
X37423153Y4907167D1*
X37398155Y4903208D1*
X37372846D1*
X37347848Y4907167D1*
X37323778Y4914988D1*
X37301227Y4926478D1*
X37280751Y4941355D1*
X37262855Y4959251D1*
X37247978Y4979727D1*
X37236488Y5002278D1*
X37228667Y5026348D1*
X37224708Y5051346D1*
Y5076655D1*
X37228667Y5101653D1*
X37236488Y5125724D1*
X37247978Y5148274D1*
X37262855Y5168750D1*
X37280751Y5186646D1*
X37301227Y5201523D1*
X37323778Y5213013D1*
X37347848Y5220834D1*
X37372846Y5224793D1*
X37398155D1*
X37423153Y5220834D1*
X37447224Y5213013D1*
X37469774Y5201523D1*
X37490250Y5186646D1*
X37508146Y5168750D1*
X37523023Y5148274D1*
X37534513Y5125724D1*
X37542334Y5101653D1*
X37546293Y5076655D1*
Y5051346D1*
X22877793Y3908346D2*
X22873834Y3883348D1*
X22866013Y3859278D1*
X22854523Y3836727D1*
X22839646Y3816251D1*
X22821750Y3798355D1*
X22816350Y3794098D1*
X22831050Y3781050D1*
X22847487Y3761804D1*
X22860711Y3740225D1*
X22870396Y3716842D1*
X22876305Y3692232D1*
X22878291Y3667001D1*
X22876305Y3641769D1*
X22870396Y3617159D1*
X22860711Y3593776D1*
X22847487Y3572197D1*
X22831050Y3552951D1*
X22816350Y3540098D1*
X22831050Y3527050D1*
X22847487Y3507804D1*
X22860711Y3486225D1*
X22870396Y3462842D1*
X22876305Y3438232D1*
X22878291Y3413001D1*
X22876305Y3387769D1*
X22870396Y3363159D1*
X22860711Y3339776D1*
X22847487Y3318197D1*
X22831050Y3298951D1*
X22816350Y3286098D1*
X22832638Y3271439D1*
X22848841Y3251912D1*
X22861781Y3230086D1*
X22871138Y3206501D1*
X22876680Y3181739D1*
X22878291Y3159001D1*
X22876295Y3133705D1*
X22870356Y3109036D1*
X22860623Y3085604D1*
X22847335Y3063988D1*
X22830821Y3044723D1*
X22816423Y3032003D1*
X22832638Y3017439D1*
X22848841Y2997912D1*
X22861781Y2976086D1*
X22871138Y2952501D1*
X22876680Y2927739D1*
X22878291Y2905001D1*
X22876295Y2879705D1*
X22870356Y2855036D1*
X22860623Y2831604D1*
X22847335Y2809988D1*
X22830821Y2790723D1*
X22816423Y2778003D1*
X22832638Y2763439D1*
X22848841Y2743912D1*
X22861781Y2722086D1*
X22871138Y2698501D1*
X22876680Y2673739D1*
X22878291Y2651001D1*
X22876295Y2625705D1*
X22870356Y2601036D1*
X22860623Y2577604D1*
X22847335Y2555988D1*
X22830821Y2536723D1*
X22816423Y2524003D1*
X22831050Y2511050D1*
X22847487Y2491804D1*
X22860711Y2470225D1*
X22870396Y2446842D1*
X22876305Y2422232D1*
X22878291Y2397001D1*
X22876305Y2371769D1*
X22870396Y2347159D1*
X22860711Y2323776D1*
X22847487Y2302197D1*
X22831050Y2282951D1*
X22811804Y2266514D1*
X22790225Y2253290D1*
X22766842Y2243605D1*
X22742232Y2237696D1*
X22717001Y2235711D1*
X22691769Y2237696D1*
X22667159Y2243605D1*
X22643776Y2253290D1*
X22622197Y2266514D1*
X22602951Y2282951D1*
X22590098Y2297651D1*
X22577050Y2282951D1*
X22557804Y2266514D1*
X22536225Y2253290D1*
X22512842Y2243605D1*
X22488232Y2237696D1*
X22463001Y2235711D1*
X22437769Y2237696D1*
X22413159Y2243605D1*
X22389776Y2253290D1*
X22368197Y2266514D1*
X22348951Y2282951D1*
X22332514Y2302197D1*
X22319290Y2323776D1*
X22309605Y2347159D1*
X22303696Y2371769D1*
X22301711Y2397001D1*
X22303696Y2422232D1*
X22309605Y2446842D1*
X22319290Y2470225D1*
X22332514Y2491804D1*
X22348951Y2511050D1*
X22363651Y2523904D1*
X22348268Y2537639D1*
X22331909Y2557035D1*
X22318795Y2578757D1*
X22309249Y2602267D1*
X22303509Y2626983D1*
X22301716Y2652293D1*
X22303914Y2677571D1*
X22310050Y2702192D1*
X22319971Y2725546D1*
X22333432Y2747055D1*
X22350099Y2766186D1*
X22363589Y2777989D1*
X22348268Y2791639D1*
X22331909Y2811035D1*
X22318795Y2832757D1*
X22309249Y2856267D1*
X22303509Y2880983D1*
X22301716Y2906293D1*
X22303914Y2931571D1*
X22310050Y2956192D1*
X22319971Y2979546D1*
X22333432Y3001055D1*
X22350099Y3020186D1*
X22363589Y3031989D1*
X22348268Y3045639D1*
X22331909Y3065035D1*
X22318795Y3086757D1*
X22309249Y3110267D1*
X22303509Y3134983D1*
X22301716Y3160293D1*
X22303914Y3185571D1*
X22310050Y3210192D1*
X22319971Y3233546D1*
X22333432Y3255055D1*
X22350099Y3274186D1*
X22363589Y3285989D1*
X22348951Y3298951D1*
X22332514Y3318197D1*
X22319290Y3339776D1*
X22309605Y3363159D1*
X22303696Y3387769D1*
X22301711Y3413001D1*
X22303696Y3438232D1*
X22309605Y3462842D1*
X22319290Y3486225D1*
X22332514Y3507804D1*
X22348951Y3527050D1*
X22363651Y3539904D1*
X22348951Y3552951D1*
X22332514Y3572197D1*
X22319290Y3593776D1*
X22309605Y3617159D1*
X22303696Y3641769D1*
X22301711Y3667001D1*
X22303696Y3692232D1*
X22309605Y3716842D1*
X22319290Y3740225D1*
X22332514Y3761804D1*
X22348951Y3781050D1*
X22363651Y3793904D1*
X22348951Y3806951D1*
X22332514Y3826197D1*
X22319290Y3847776D1*
X22309605Y3871159D1*
X22303696Y3895769D1*
X22301711Y3921001D1*
X22303696Y3946232D1*
X22309605Y3970842D1*
X22319290Y3994225D1*
X22332514Y4015804D1*
X22348951Y4035050D1*
X22363651Y4047904D1*
X22348951Y4060951D1*
X22332514Y4080197D1*
X22319290Y4101776D1*
X22309605Y4125159D1*
X22303696Y4149769D1*
X22301711Y4175001D1*
X22303696Y4200232D1*
X22309605Y4224842D1*
X22319290Y4248225D1*
X22332514Y4269804D1*
X22348951Y4289050D1*
X22368197Y4305487D1*
X22389776Y4318711D1*
X22413159Y4328396D1*
X22437769Y4334305D1*
X22463001Y4336291D1*
X22488232Y4334305D1*
X22512842Y4328396D1*
X22536225Y4318711D1*
X22555707Y4306889D1*
X22555711Y4336290D1*
X22878291D1*
Y4013710D1*
X22848897D1*
X22860711Y3994225D1*
X22870396Y3970842D1*
X22876305Y3946232D1*
X22878291Y3921001D1*
X22877793Y3908346D1*
X17734293D2*
X17730334Y3883348D1*
X17722513Y3859278D1*
X17711023Y3836727D1*
X17696146Y3816251D1*
X17678250Y3798355D1*
X17672850Y3794098D1*
X17687550Y3781050D1*
X17703987Y3761804D1*
X17717211Y3740225D1*
X17726896Y3716842D1*
X17732805Y3692232D1*
X17734791Y3667001D1*
X17732805Y3641769D1*
X17726896Y3617159D1*
X17717211Y3593776D1*
X17703987Y3572197D1*
X17687550Y3552951D1*
X17672850Y3540098D1*
X17687550Y3527050D1*
X17703987Y3507804D1*
X17717211Y3486225D1*
X17726896Y3462842D1*
X17732805Y3438232D1*
X17734791Y3413001D1*
X17732805Y3387769D1*
X17726896Y3363159D1*
X17717211Y3339776D1*
X17703987Y3318197D1*
X17687550Y3298951D1*
X17672850Y3286098D1*
X17689138Y3271439D1*
X17705341Y3251912D1*
X17718281Y3230086D1*
X17727638Y3206501D1*
X17733180Y3181739D1*
X17734791Y3159001D1*
X17732795Y3133705D1*
X17726856Y3109036D1*
X17717123Y3085604D1*
X17703835Y3063988D1*
X17687321Y3044723D1*
X17672923Y3032003D1*
X17689138Y3017439D1*
X17705341Y2997912D1*
X17718281Y2976086D1*
X17727638Y2952501D1*
X17733180Y2927739D1*
X17734791Y2905001D1*
X17732795Y2879705D1*
X17726856Y2855036D1*
X17717123Y2831604D1*
X17703835Y2809988D1*
X17687321Y2790723D1*
X17672923Y2778003D1*
X17689138Y2763439D1*
X17705341Y2743912D1*
X17718281Y2722086D1*
X17727638Y2698501D1*
X17733180Y2673739D1*
X17734791Y2651001D1*
X17732795Y2625705D1*
X17726856Y2601036D1*
X17717123Y2577604D1*
X17703835Y2555988D1*
X17687321Y2536723D1*
X17672923Y2524003D1*
X17687550Y2511050D1*
X17703987Y2491804D1*
X17717211Y2470225D1*
X17726896Y2446842D1*
X17732805Y2422232D1*
X17734791Y2397001D1*
X17732805Y2371769D1*
X17726896Y2347159D1*
X17717211Y2323776D1*
X17703987Y2302197D1*
X17687550Y2282951D1*
X17668304Y2266514D1*
X17646725Y2253290D1*
X17623342Y2243605D1*
X17598732Y2237696D1*
X17573501Y2235711D1*
X17548269Y2237696D1*
X17523659Y2243605D1*
X17500276Y2253290D1*
X17478697Y2266514D1*
X17459451Y2282951D1*
X17446598Y2297651D1*
X17433550Y2282951D1*
X17414304Y2266514D1*
X17392725Y2253290D1*
X17369342Y2243605D1*
X17344732Y2237696D1*
X17319501Y2235711D1*
X17294269Y2237696D1*
X17269659Y2243605D1*
X17246276Y2253290D1*
X17224697Y2266514D1*
X17205451Y2282951D1*
X17189014Y2302197D1*
X17175790Y2323776D1*
X17166105Y2347159D1*
X17160196Y2371769D1*
X17158211Y2397001D1*
X17160196Y2422232D1*
X17166105Y2446842D1*
X17175790Y2470225D1*
X17189014Y2491804D1*
X17205451Y2511050D1*
X17220151Y2523904D1*
X17204768Y2537639D1*
X17188409Y2557035D1*
X17175295Y2578757D1*
X17165749Y2602267D1*
X17160009Y2626983D1*
X17158216Y2652293D1*
X17160414Y2677571D1*
X17166550Y2702192D1*
X17176471Y2725546D1*
X17189932Y2747055D1*
X17206599Y2766186D1*
X17220089Y2777989D1*
X17204768Y2791639D1*
X17188409Y2811035D1*
X17175295Y2832757D1*
X17165749Y2856267D1*
X17160009Y2880983D1*
X17158216Y2906293D1*
X17160414Y2931571D1*
X17166550Y2956192D1*
X17176471Y2979546D1*
X17189932Y3001055D1*
X17206599Y3020186D1*
X17220089Y3031989D1*
X17204768Y3045639D1*
X17188409Y3065035D1*
X17175295Y3086757D1*
X17165749Y3110267D1*
X17160009Y3134983D1*
X17158216Y3160293D1*
X17160414Y3185571D1*
X17166550Y3210192D1*
X17176471Y3233546D1*
X17189932Y3255055D1*
X17206599Y3274186D1*
X17220089Y3285989D1*
X17205451Y3298951D1*
X17189014Y3318197D1*
X17175790Y3339776D1*
X17166105Y3363159D1*
X17160196Y3387769D1*
X17158211Y3413001D1*
X17160196Y3438232D1*
X17166105Y3462842D1*
X17175790Y3486225D1*
X17189014Y3507804D1*
X17205451Y3527050D1*
X17220151Y3539904D1*
X17205451Y3552951D1*
X17189014Y3572197D1*
X17175790Y3593776D1*
X17166105Y3617159D1*
X17160196Y3641769D1*
X17158211Y3667001D1*
X17160196Y3692232D1*
X17166105Y3716842D1*
X17175790Y3740225D1*
X17189014Y3761804D1*
X17205451Y3781050D1*
X17220151Y3793904D1*
X17205451Y3806951D1*
X17189014Y3826197D1*
X17175790Y3847776D1*
X17166105Y3871159D1*
X17160196Y3895769D1*
X17158211Y3921001D1*
X17160196Y3946232D1*
X17166105Y3970842D1*
X17175790Y3994225D1*
X17189014Y4015804D1*
X17205451Y4035050D1*
X17220151Y4047904D1*
X17205451Y4060951D1*
X17189014Y4080197D1*
X17175790Y4101776D1*
X17166105Y4125159D1*
X17160196Y4149769D1*
X17158211Y4175001D1*
X17160196Y4200232D1*
X17166105Y4224842D1*
X17175790Y4248225D1*
X17189014Y4269804D1*
X17205451Y4289050D1*
X17224697Y4305487D1*
X17246276Y4318711D1*
X17269659Y4328396D1*
X17294269Y4334305D1*
X17319501Y4336291D1*
X17344732Y4334305D1*
X17369342Y4328396D1*
X17392725Y4318711D1*
X17412207Y4306889D1*
X17412211Y4336290D1*
X17734791D1*
Y4013710D1*
X17705397D1*
X17717211Y3994225D1*
X17726896Y3970842D1*
X17732805Y3946232D1*
X17734791Y3921001D1*
X17734293Y3908346D1*
X1808258Y2904147D2*
X1802429Y2867340D1*
X1790913Y2831897D1*
X1773994Y2798692D1*
X1752089Y2768543D1*
X1725738Y2742192D1*
X1695589Y2720287D1*
X1662384Y2703368D1*
X1626941Y2691852D1*
X1590134Y2686023D1*
X1552867D1*
X1516060Y2691852D1*
X1480617Y2703368D1*
X1447412Y2720287D1*
X1417263Y2742192D1*
X1390912Y2768543D1*
X1369007Y2798692D1*
X1352088Y2831897D1*
X1340572Y2867340D1*
X1334743Y2904147D1*
Y2941414D1*
X1340572Y2978221D1*
X1352088Y3013664D1*
X1369007Y3046869D1*
X1390912Y3077018D1*
X1417263Y3103369D1*
X1440690Y3120782D1*
X1418155Y3137674D1*
X1399673Y3155079D1*
X1383154Y3174359D1*
X1368788Y3195291D1*
X1356738Y3217637D1*
X1347143Y3241142D1*
X1340111Y3265536D1*
X1335724Y3290542D1*
X1334031Y3315874D1*
X1335052Y3341241D1*
X1338775Y3366355D1*
X1345158Y3390927D1*
X1354127Y3414678D1*
X1365580Y3437335D1*
X1379387Y3458641D1*
X1395389Y3478351D1*
X1413403Y3496240D1*
X1433225Y3512104D1*
X1440571Y3517135D1*
X1417263Y3534672D1*
X1390912Y3561023D1*
X1369007Y3591172D1*
X1352088Y3624377D1*
X1340572Y3659820D1*
X1334743Y3696627D1*
Y3733894D1*
X1340572Y3770701D1*
X1352088Y3806144D1*
X1369007Y3839349D1*
X1390912Y3869498D1*
X1417263Y3895849D1*
X1440690Y3913262D1*
X1417263Y3930912D1*
X1390912Y3957263D1*
X1369007Y3987412D1*
X1352088Y4020617D1*
X1340572Y4056060D1*
X1334743Y4092867D1*
Y4130134D1*
X1340572Y4166941D1*
X1352088Y4202384D1*
X1369007Y4235589D1*
X1390912Y4265738D1*
X1417263Y4292089D1*
X1447412Y4313994D1*
X1480617Y4330913D1*
X1516060Y4342429D1*
X1552867Y4348258D1*
X1590134D1*
X1626941Y4342429D1*
X1662384Y4330913D1*
X1695589Y4313994D1*
X1725738Y4292089D1*
X1752089Y4265738D1*
X1773994Y4235589D1*
X1790913Y4202384D1*
X1802429Y4166941D1*
X1808258Y4130134D1*
Y4092867D1*
X1802429Y4056060D1*
X1790913Y4020617D1*
X1773994Y3987412D1*
X1752089Y3957263D1*
X1725738Y3930912D1*
X1702312Y3913499D1*
X1725738Y3895849D1*
X1752089Y3869498D1*
X1773994Y3839349D1*
X1790913Y3806144D1*
X1802429Y3770701D1*
X1808258Y3733894D1*
Y3696627D1*
X1802429Y3659820D1*
X1790913Y3624377D1*
X1773994Y3591172D1*
X1752089Y3561023D1*
X1725738Y3534672D1*
X1702312Y3517259D1*
X1722430Y3502383D1*
X1741141Y3485224D1*
X1757914Y3466165D1*
X1772556Y3445425D1*
X1784901Y3423241D1*
X1794807Y3399865D1*
X1802161Y3375566D1*
X1806879Y3350620D1*
X1808907Y3325313D1*
X1808227Y3299991D1*
X1804843Y3274830D1*
X1798792Y3250173D1*
X1790144Y3226304D1*
X1778998Y3203494D1*
X1765480Y3182004D1*
X1749745Y3162080D1*
X1731973Y3143949D1*
X1712368Y3127819D1*
X1702460Y3120911D1*
X1725738Y3103369D1*
X1752089Y3077018D1*
X1773994Y3046869D1*
X1790913Y3013664D1*
X1802429Y2978221D1*
X1808258Y2941414D1*
Y2904147D1*
X24939501Y3159001D2*
D14*
X25100667D1*
X24939501Y2905001D2*
X25100667D1*
X24939501Y2651001D2*
X25100667D1*
X24524335D2*
X24685501D1*
X24524335Y2905001D2*
X24685501D1*
X24524335Y3159001D2*
X24685501D1*
X6461001D2*
X6622167D1*
X6461001Y2905001D2*
X6622167D1*
X6461001Y2651001D2*
X6622167D1*
X6045835D2*
X6207001D1*
X6045835Y2905001D2*
X6207001D1*
X6045835Y3159001D2*
X6207001D1*
X15351001D2*
X15512167D1*
X15351001Y2905001D2*
X15512167D1*
X15351001Y2651001D2*
X15512167D1*
X14935835D2*
X15097001D1*
X14935835Y2905001D2*
X15097001D1*
X14935835Y3159001D2*
X15097001D1*
X33829501D2*
X33990667D1*
X33829501Y2905001D2*
X33990667D1*
X33829501Y2651001D2*
X33990667D1*
X33414335D2*
X33575501D1*
X33414335Y2905001D2*
X33575501D1*
X33414335Y3159001D2*
X33575501D1*
X31607001D2*
X31768167D1*
X31607001Y2905001D2*
X31768167D1*
X31607001Y2651001D2*
X31768167D1*
X31191835D2*
X31353001D1*
X31191835Y2905001D2*
X31353001D1*
X31191835Y3159001D2*
X31353001D1*
X29384501D2*
X29545667D1*
X29384501Y2905001D2*
X29545667D1*
X29384501Y2651001D2*
X29545667D1*
X28969335D2*
X29130501D1*
X28969335Y2905001D2*
X29130501D1*
X28969335Y3159001D2*
X29130501D1*
X27162001D2*
X27323167D1*
X27162001Y2905001D2*
X27323167D1*
X27162001Y2651001D2*
X27323167D1*
X26746835D2*
X26908001D1*
X26746835Y2905001D2*
X26908001D1*
X26746835Y3159001D2*
X26908001D1*
X33808035Y5318001D2*
X33956501D1*
X34601785D2*
X34750251D1*
X35798001D2*
X35946467D1*
X18569934Y2270001D2*
X18907001D1*
X19407001D2*
X19744067D1*
X13128501Y3159001D2*
X13289667D1*
X13128501Y2905001D2*
X13289667D1*
X13128501Y2651001D2*
X13289667D1*
X12713335D2*
X12874501D1*
X12713335Y2905001D2*
X12874501D1*
X12713335Y3159001D2*
X12874501D1*
X10906001D2*
X11067167D1*
X10906001Y2905001D2*
X11067167D1*
X10906001Y2651001D2*
X11067167D1*
X10490835D2*
X10652001D1*
X10490835Y2905001D2*
X10652001D1*
X10490835Y3159001D2*
X10652001D1*
X8683501D2*
X8844667D1*
X8683501Y2905001D2*
X8844667D1*
X8683501Y2651001D2*
X8844667D1*
X8268335D2*
X8429501D1*
X8268335Y2905001D2*
X8429501D1*
X8268335Y3159001D2*
X8429501D1*
X20411434Y2270001D2*
X20748501D1*
X21248501D2*
X21585567D1*
X4238501Y3159001D2*
X4399667D1*
X4238501Y2905001D2*
X4399667D1*
X4238501Y2651001D2*
X4399667D1*
X3823335D2*
X3984501D1*
X3823335Y2905001D2*
X3984501D1*
X3823335Y3159001D2*
X3984501D1*
X36052001D2*
X36213167D1*
X36052001Y2905001D2*
X36213167D1*
X36052001Y2651001D2*
X36213167D1*
X35636835D2*
X35798001D1*
X35636835Y2905001D2*
X35798001D1*
X35636835Y3159001D2*
X35798001D1*
X20805785Y4238501D2*
X20970751D1*
X19345285Y4968751D2*
X19675217D1*
X38132385Y3319021D2*
X38607117D1*
X22717001Y3159001D2*
X22878167D1*
X22717001Y2905001D2*
X22878167D1*
X22717001Y2651001D2*
X22878167D1*
X22301835D2*
X22463001D1*
X22301835Y2905001D2*
X22463001D1*
X22301835Y3159001D2*
X22463001D1*
X17573501D2*
X17734667D1*
X17573501Y2905001D2*
X17734667D1*
X17573501Y2651001D2*
X17734667D1*
X17158335D2*
X17319501D1*
X17158335Y2905001D2*
X17319501D1*
X17158335Y3159001D2*
X17319501D1*
X1334135Y3319021D2*
X1808867D1*
X24939501Y3921001D3*
Y3667001D3*
Y3413001D3*
Y3159001D3*
Y2905001D3*
Y2651001D3*
Y2397001D3*
X24685501D3*
Y2651001D3*
Y2905001D3*
Y3159001D3*
Y3413001D3*
Y3667001D3*
Y3921001D3*
Y4175001D3*
D25*
X24939501D3*
D14*
X6461001Y3921001D3*
Y3667001D3*
Y3413001D3*
Y3159001D3*
Y2905001D3*
Y2651001D3*
Y2397001D3*
X6207001D3*
Y2651001D3*
Y2905001D3*
Y3159001D3*
Y3413001D3*
Y3667001D3*
Y3921001D3*
Y4175001D3*
D25*
X6461001D3*
D14*
X15351001Y3921001D3*
Y3667001D3*
Y3413001D3*
Y3159001D3*
Y2905001D3*
Y2651001D3*
Y2397001D3*
X15097001D3*
Y2651001D3*
Y2905001D3*
Y3159001D3*
Y3413001D3*
Y3667001D3*
Y3921001D3*
Y4175001D3*
D25*
X15351001D3*
D14*
X33829501Y3921001D3*
Y3667001D3*
Y3413001D3*
Y3159001D3*
Y2905001D3*
Y2651001D3*
Y2397001D3*
X33575501D3*
Y2651001D3*
Y2905001D3*
Y3159001D3*
Y3413001D3*
Y3667001D3*
Y3921001D3*
Y4175001D3*
D25*
X33829501D3*
D14*
X31607001Y3921001D3*
Y3667001D3*
Y3413001D3*
Y3159001D3*
Y2905001D3*
Y2651001D3*
Y2397001D3*
X31353001D3*
Y2651001D3*
Y2905001D3*
Y3159001D3*
Y3413001D3*
Y3667001D3*
Y3921001D3*
Y4175001D3*
D25*
X31607001D3*
D14*
X29384501Y3921001D3*
Y3667001D3*
Y3413001D3*
Y3159001D3*
Y2905001D3*
Y2651001D3*
Y2397001D3*
X29130501D3*
Y2651001D3*
Y2905001D3*
Y3159001D3*
Y3413001D3*
Y3667001D3*
Y3921001D3*
Y4175001D3*
D25*
X29384501D3*
D14*
X27162001Y3921001D3*
Y3667001D3*
Y3413001D3*
Y3159001D3*
Y2905001D3*
Y2651001D3*
Y2397001D3*
X26908001D3*
Y2651001D3*
Y2905001D3*
Y3159001D3*
Y3413001D3*
Y3667001D3*
Y3921001D3*
Y4175001D3*
D25*
X27162001D3*
D26*
X34210501Y5318001D3*
D27*
X33956501D3*
D26*
X35004251D3*
D27*
X34750251D3*
D26*
X35798001D3*
D27*
X35544001D3*
D65*
X18907001Y3794001D3*
X19407001D3*
X18907001Y3032001D3*
X19407001D3*
X18907001Y2270001D3*
X19407001D3*
X18907001Y1508001D3*
X19407001D3*
D14*
X13128501Y3921001D3*
Y3667001D3*
Y3413001D3*
Y3159001D3*
Y2905001D3*
Y2651001D3*
Y2397001D3*
X12874501D3*
Y2651001D3*
Y2905001D3*
Y3159001D3*
Y3413001D3*
Y3667001D3*
Y3921001D3*
Y4175001D3*
D25*
X13128501D3*
D14*
X10906001Y3921001D3*
Y3667001D3*
Y3413001D3*
Y3159001D3*
Y2905001D3*
Y2651001D3*
Y2397001D3*
X10652001D3*
Y2651001D3*
Y2905001D3*
Y3159001D3*
Y3413001D3*
Y3667001D3*
Y3921001D3*
Y4175001D3*
D25*
X10906001D3*
D14*
X8683501Y3921001D3*
Y3667001D3*
Y3413001D3*
Y3159001D3*
Y2905001D3*
Y2651001D3*
Y2397001D3*
X8429501D3*
Y2651001D3*
Y2905001D3*
Y3159001D3*
Y3413001D3*
Y3667001D3*
Y3921001D3*
Y4175001D3*
D25*
X8683501D3*
D65*
X20748501Y1508001D3*
X21248501D3*
X20748501Y2270001D3*
X21248501D3*
X20748501Y3032001D3*
X21248501D3*
X20748501Y3794001D3*
X21248501D3*
D14*
X4238501Y3921001D3*
Y3667001D3*
Y3413001D3*
Y3159001D3*
Y2905001D3*
Y2651001D3*
Y2397001D3*
X3984501D3*
Y2651001D3*
Y2905001D3*
Y3159001D3*
Y3413001D3*
Y3667001D3*
Y3921001D3*
Y4175001D3*
D25*
X4238501D3*
D14*
X36052001Y3921001D3*
Y3667001D3*
Y3413001D3*
Y3159001D3*
Y2905001D3*
Y2651001D3*
Y2397001D3*
X35798001D3*
Y2651001D3*
Y2905001D3*
Y3159001D3*
Y3413001D3*
Y3667001D3*
Y3921001D3*
Y4175001D3*
D25*
X36052001D3*
D29*
X20716751Y5381501D3*
D30*
X20970751D3*
X21224751D3*
D31*
X20970751Y4238501D3*
D29*
X21224751D3*
X19510251Y4714751D3*
D31*
Y4968751D3*
D32*
X20113501Y4778251D3*
D33*
X21218501D3*
D34*
X38369751Y4111501D3*
Y3715261D3*
Y3319021D3*
Y2922781D3*
D32*
X18335501Y4587751D3*
D33*
Y3482751D3*
D14*
X36369501Y5762501D3*
D35*
X37385501D3*
D14*
X36369501Y5413251D3*
D35*
X37385501D3*
D14*
X36369501Y5064001D3*
D35*
X37385501D3*
D14*
X22717001Y3921001D3*
Y3667001D3*
Y3413001D3*
Y3159001D3*
Y2905001D3*
Y2651001D3*
Y2397001D3*
X22463001D3*
Y2651001D3*
Y2905001D3*
Y3159001D3*
Y3413001D3*
Y3667001D3*
Y3921001D3*
Y4175001D3*
D25*
X22717001D3*
D14*
X17573501Y3921001D3*
Y3667001D3*
Y3413001D3*
Y3159001D3*
Y2905001D3*
Y2651001D3*
Y2397001D3*
X17319501D3*
Y2651001D3*
Y2905001D3*
Y3159001D3*
Y3413001D3*
Y3667001D3*
Y3921001D3*
Y4175001D3*
D25*
X17573501D3*
D34*
X1571501Y2922781D3*
Y3319021D3*
Y3715261D3*
Y4111501D3*
M02*
