G04 DipTrace 3.0.0.1*
G04 moraydular_powerbus_wide_final1.GBL*
%MOMM*%
G04 #@! TF.FileFunction,Copper,L2,Bot*
G04 #@! TF.Part,Single*
%AMOUTLINE0*
4,1,20,
1.2689,1.27,
1.70333,1.1938,
2.0855,0.9736,
2.3693,0.63597,
2.5205,0.22163,
2.5209,-0.21943,
2.3704,-0.63403,
2.0872,-0.97217,
1.7054,-1.19303,
1.2711,-1.27,
-1.2689,-1.27,
-1.70333,-1.1938,
-2.0855,-0.9736,
-2.3693,-0.63597,
-2.5205,-0.22163,
-2.5209,0.21943,
-2.3704,0.63403,
-2.0872,0.97217,
-1.7054,1.19303,
-1.2711,1.27,
1.2689,1.27,
0*%
G04 #@! TA.AperFunction,Conductor*
%ADD13C,2.032*%
G04 #@! TA.AperFunction,ComponentPad*
%ADD14C,1.524*%
G04 #@! TA.AperFunction,Conductor*
%ADD15C,2.54*%
%ADD16C,0.508*%
%ADD17C,1.5*%
%ADD18C,3.048*%
%ADD19C,2.286*%
%ADD20C,1.778*%
%ADD21C,1.016*%
G04 #@! TA.AperFunction,CopperBalancing*
%ADD22C,0.635*%
%ADD23C,0.381*%
G04 #@! TA.AperFunction,ComponentPad*
%ADD25R,1.524X1.524*%
%ADD26C,1.27*%
%ADD27R,1.27X1.27*%
%ADD29R,1.6X1.6*%
%ADD30C,1.6*%
%ADD31C,1.6*%
%ADD32R,1.8X1.8*%
%ADD33C,1.8*%
%ADD34C,3.048*%
%ADD35C,1.524*%
%ADD65OUTLINE0*%
%FSLAX35Y35*%
G04*
G71*
G90*
G75*
G01*
G04 Bottom*
%LPD*%
X18907001Y3032001D2*
D13*
X19407001D1*
X20748501D1*
X21248501D1*
Y3214501D1*
D14*
X21447001Y3413001D1*
D13*
X22203734D1*
X24685501D1*
X24939501D1*
X26908001D1*
X27162001D1*
X29130501D1*
X29384501D1*
X31353001D1*
X31607001D1*
X33575501D1*
X33829501D1*
X35798001D1*
X36052001D1*
X37988751D1*
X38306251Y3730501D1*
D15*
X38354511D1*
D13*
X38369751Y3715261D1*
X37385501Y5413251D2*
D16*
X37417251D1*
X37131501Y5127501D1*
Y4810001D1*
X37226751Y4714751D1*
X38306251D1*
X38655501Y4365501D1*
Y3762251D1*
X38608511Y3715261D1*
X38369751D1*
X18335501Y3482751D2*
D17*
Y3222501D1*
X18589501Y2968501D1*
X18843501D1*
X18907001Y3032001D1*
X15351001Y3413001D2*
D13*
X15097001D1*
X13128501D1*
X12874501D1*
X10906001D1*
X10652001D1*
X8683501D1*
X8429501D1*
X6461001D1*
X6207001D1*
X4238501D1*
X3984501D1*
X15351001D2*
X17141701D1*
D14*
X17319501D1*
X17573501D1*
X17751301D1*
D13*
X18335501D1*
X18525471Y3223031D1*
X18716501Y3032001D1*
X18907001D1*
X1571501Y3715261D2*
D18*
X1777241D1*
X2079501Y3413001D1*
D13*
X3984501D1*
X26908001D2*
D14*
X24939501D1*
X24685501D1*
X22717001D1*
X22463001D1*
X21629501D1*
X21248501Y3032001D1*
D13*
X21822734D1*
X22203734Y3413001D1*
X18907001Y3032001D2*
D15*
Y3286001D1*
D18*
X18811751Y3381251D1*
X18430751D1*
X18272531Y3223031D1*
X18525471D1*
X18907001Y3794001D2*
D13*
X19407001D1*
D15*
X20748501D1*
D13*
X21248501D1*
X18907001D2*
D19*
X17859251D1*
D14*
X17732251Y3667001D1*
X15351001D1*
X21248501Y3794001D2*
Y3825751D1*
D13*
X21351751D1*
Y3794001D1*
D19*
X22177251D1*
D20*
X22304251Y3667001D1*
D14*
X24685501D1*
X15351001D2*
X15097001D1*
X13128501D1*
X12874501D1*
X10906001D1*
X10652001D1*
X8683501D1*
X8429501D1*
X6461001D1*
X6207001D1*
X4238501D1*
X3984501D1*
X24685501D2*
X24939501D1*
X26908001D1*
X27162001D1*
X29130501D1*
X29384501D1*
X31353001D1*
X31607001D1*
X33575501D1*
X33829501D1*
X35798001D1*
X36052001D1*
X21218501Y4778251D2*
X21224751Y4784501D1*
Y5381501D1*
X38369751Y4111501D2*
D15*
Y4143251D1*
X38179251D1*
D14*
X37703001Y3667001D1*
X36052001D1*
X37385501Y5762501D2*
D16*
X36877501Y5254501D1*
Y4746501D1*
X37131501Y4492501D1*
X38211001D1*
X38369751Y4333751D1*
Y4111501D1*
X21224751Y5381501D2*
D14*
Y4238501D1*
Y3817751D1*
X21248501Y3794001D1*
X3984501Y3667001D2*
X3794001D1*
X3730501Y3730501D1*
D13*
Y4175001D1*
X1571501D1*
Y4111501D1*
X15351001Y3667001D2*
D14*
X17319501D1*
X17573501D1*
X17764001D1*
X17891001Y3794001D1*
D15*
X18907001D1*
X22463001Y3667001D2*
D14*
X22717001D1*
X24685501D1*
X24939501D2*
D3*
X19407001Y3794001D2*
D13*
X20748501D1*
X21248501D2*
X21351751D1*
X18907001Y1508001D2*
X19407001D1*
X20748501D1*
X21248501D1*
X18907001D2*
X18621251D1*
D14*
X17732251Y2397001D1*
X15351001D1*
X21248501Y1508001D2*
X21320001D1*
X22209001Y2397001D1*
X24685501D1*
X24939501D1*
X26908001D1*
X27162001D1*
X29130501D1*
X29384501D1*
X31353001D1*
X31607001D1*
X33575501D1*
X33829501D1*
X35798001D1*
X36052001D1*
X15351001D2*
X15097001D1*
X13128501D1*
X12874501D1*
X10906001D1*
X10652001D1*
X8683501D1*
X8429501D1*
X6461001D1*
X6207001D1*
X4238501D1*
X3984501D1*
X36052001D2*
Y2333501D1*
X36941001D1*
D13*
X38274501D1*
D18*
X38369751Y2428751D1*
Y2922781D1*
X37385501Y5064001D2*
D16*
X38306251D1*
X38846001Y4524251D1*
Y3190724D1*
X38473904Y2818627D1*
X38369751Y2922781D1*
X1571501D2*
D18*
Y2270001D1*
X3349501D1*
D14*
X3476501Y2397001D1*
X3984501D1*
X24685501Y3921001D2*
D21*
X24939501D1*
X25003001D1*
X25384001Y4302001D1*
X26463501D1*
X26844501Y3921001D1*
X26908001D1*
X27162001D1*
X27225501D1*
X27606501Y4302001D1*
X28686001D1*
X29067001Y3921001D1*
X29130501D1*
X29384501D1*
X29448001D1*
X29829001Y4302001D1*
X30908501D1*
X31289501Y3921001D1*
X31353001D1*
X31607001D1*
X31670501D1*
X32051501Y4302001D1*
X33131001D1*
X33512001Y3921001D1*
X33575501D1*
X33829501D1*
X33893001D1*
X34274001Y4302001D1*
X35353501D1*
X35734501Y3921001D1*
X35798001D1*
X36052001D1*
X3984501D2*
X4238501D1*
X4302001D1*
X4683001Y4302001D1*
X5762501D1*
X6143501Y3921001D1*
X6207001D1*
X6461001D1*
X6524501D1*
X6905501Y4302001D1*
X7985001D1*
X8366001Y3921001D1*
X8429501D1*
X8683501D1*
X8747001D1*
X9128001Y4302001D1*
X10207501D1*
X10588501Y3921001D1*
X10652001D1*
X10906001D1*
X10969501D1*
X11350501Y4302001D1*
X12430001D1*
X12811001Y3921001D1*
X12874501D1*
X13128501D1*
X13192001D1*
X13573001Y4302001D1*
X14652501D1*
X15033501Y3921001D1*
X15097001D1*
X15351001D1*
X15414501D1*
X15795501Y4302001D1*
X16875001D1*
X17256001Y3921001D1*
X17319501D1*
X17573501D1*
X22463001D2*
X22717001D1*
X22780501D1*
X23161501Y4302001D1*
X24241001D1*
X24622001Y3921001D1*
X24685501D1*
X17573501D2*
X17637001D1*
X17827501Y4111501D1*
Y4619501D1*
X18843501Y5635501D1*
X21320001D1*
X21478751Y5476751D1*
Y4841751D1*
X22399501Y3921001D1*
X22463001D1*
X36369501Y5413251D2*
D16*
Y5381501D1*
X36242501Y5508501D1*
X35194751D1*
X35004251Y5318001D1*
X3984501Y4175001D2*
D21*
X4238501D1*
X4556001Y4492501D1*
X5889501D1*
X6207001Y4175001D1*
X6461001D1*
X6778501Y4492501D1*
X8112001D1*
X8429501Y4175001D1*
X8683501D1*
X9001001Y4492501D1*
X10334501D1*
X10652001Y4175001D1*
X10906001D1*
X11223501Y4492501D1*
X12557001D1*
X12874501Y4175001D1*
X13128501D1*
X13446001Y4492501D1*
X14779501D1*
X15097001Y4175001D1*
X15351001D1*
X24685501D2*
X24939501D1*
X25257001Y4492501D1*
X26590501D1*
X26908001Y4175001D1*
X27162001D1*
X27479501Y4492501D1*
X28813001D1*
X29130501Y4175001D1*
X29384501D1*
X29702001Y4492501D1*
X31035501D1*
X31353001Y4175001D1*
X31607001D1*
X31924501Y4492501D1*
X33258001D1*
X33575501Y4175001D1*
X33829501D1*
X34147001Y4492501D1*
X35480501D1*
X35798001Y4175001D1*
X36052001D1*
X15351001D2*
X15668501Y4492501D1*
X17002001D1*
X17319501Y4175001D1*
X17573501D1*
X24685501D2*
X24368001Y4492501D1*
X23034501D1*
X22717001Y4175001D1*
X22463001D1*
X17573501D2*
Y4683001D1*
X18716501Y5826001D1*
X21447001D1*
X21701001Y5572001D1*
Y4937001D1*
X22463001Y4175001D1*
X36369501Y5762501D2*
D16*
X34655001D1*
X34210501Y5318001D1*
X18335501Y4587751D2*
D17*
X18367251D1*
X18494251Y4714751D1*
D14*
X19510251D1*
X20113501Y4778251D2*
X20716751Y5381501D1*
X19510251Y4714751D2*
X20018251D1*
X20113501Y4810001D1*
Y4778251D1*
X36369501Y5064001D2*
D16*
X35798001D1*
X35544001Y5318001D1*
X1165163Y2365584D2*
D22*
X3794162D1*
X4428839D2*
X6016662D1*
X6651339D2*
X8239162D1*
X8873839D2*
X10461662D1*
X11096339D2*
X12684162D1*
X13318839D2*
X14906662D1*
X15541339D2*
X17129162D1*
X17763839D2*
X18557788D1*
X19756276D2*
X20399288D1*
X21597776D2*
X22272662D1*
X22907339D2*
X24495162D1*
X25129839D2*
X26717662D1*
X27352339D2*
X28940162D1*
X29574839D2*
X31162662D1*
X31797339D2*
X33385162D1*
X34019839D2*
X35607662D1*
X36242339D2*
X38807839D1*
X1165163Y2302417D2*
X3817230D1*
X4405771D2*
X6039730D1*
X6628271D2*
X8262230D1*
X8850771D2*
X10484730D1*
X11073271D2*
X12707230D1*
X13295771D2*
X14929730D1*
X15518271D2*
X17152230D1*
X17740771D2*
X18538564D1*
X19775375D2*
X20380064D1*
X21616875D2*
X22295730D1*
X22884271D2*
X24518230D1*
X25106771D2*
X26740730D1*
X27329271D2*
X28963230D1*
X29551771D2*
X31185730D1*
X31774271D2*
X33408230D1*
X33996771D2*
X35630730D1*
X36219271D2*
X38807839D1*
X1165163Y2239251D2*
X3878250D1*
X4090751D2*
X4132418D1*
X4344751D2*
X6100750D1*
X6313251D2*
X6354918D1*
X6567251D2*
X8323250D1*
X8535751D2*
X8577418D1*
X8789751D2*
X10545750D1*
X10758251D2*
X10799918D1*
X11012251D2*
X12768250D1*
X12980751D2*
X13022418D1*
X13234751D2*
X14990750D1*
X15203251D2*
X15244918D1*
X15457251D2*
X17213250D1*
X17425751D2*
X17467418D1*
X17679751D2*
X18538440D1*
X19775623D2*
X20379940D1*
X21617123D2*
X22356750D1*
X22569251D2*
X22610918D1*
X22823251D2*
X24579250D1*
X24791751D2*
X24833418D1*
X25045751D2*
X26801750D1*
X27014251D2*
X27055918D1*
X27268251D2*
X29024250D1*
X29236751D2*
X29278418D1*
X29490751D2*
X31246750D1*
X31459251D2*
X31500918D1*
X31713251D2*
X33469250D1*
X33681751D2*
X33723418D1*
X33935751D2*
X35691750D1*
X35904251D2*
X35945918D1*
X36158251D2*
X38807839D1*
X1165163Y2176084D2*
X18557168D1*
X19756896D2*
X20398668D1*
X21598396D2*
X38807839D1*
X1165163Y2112917D2*
X18597971D1*
X19716092D2*
X20439471D1*
X21557592D2*
X38807839D1*
X1165163Y2049751D2*
X18685284D1*
X19128841D2*
X19185222D1*
X19628780D2*
X20526784D1*
X20970341D2*
X21026722D1*
X21470280D2*
X38807839D1*
X1165163Y1986584D2*
X38807839D1*
X1165163Y1923417D2*
X38807839D1*
X1165163Y1860251D2*
X38807839D1*
X1165163Y1797084D2*
X38807839D1*
X1165163Y1733917D2*
X18701159D1*
X19112966D2*
X19201097D1*
X19613029D2*
X20542659D1*
X20954466D2*
X21042597D1*
X21454529D2*
X38807839D1*
X1165163Y1670751D2*
X1212307D1*
X1549635D2*
X7816366D1*
X8153635D2*
X14420366D1*
X14757635D2*
X17722366D1*
X18059635D2*
X18602684D1*
X19711255D2*
X20444184D1*
X21552755D2*
X21913366D1*
X22250635D2*
X25215366D1*
X25552635D2*
X31819366D1*
X32156635D2*
X38423366D1*
X38760635D2*
X38807783D1*
X1630126Y1607584D2*
X7735875D1*
X8234126D2*
X14339875D1*
X14838126D2*
X17641875D1*
X18140126D2*
X18559152D1*
X19754788D2*
X20400652D1*
X21596288D2*
X21832875D1*
X22331126D2*
X25134875D1*
X25633126D2*
X31738875D1*
X32237126D2*
X38342875D1*
X1676387Y1544417D2*
X7689614D1*
X8280387D2*
X14293614D1*
X14884387D2*
X17595614D1*
X18186387D2*
X18539060D1*
X19775003D2*
X20380560D1*
X21616503D2*
X21786614D1*
X22377387D2*
X25088614D1*
X25679387D2*
X31692614D1*
X32283387D2*
X38296614D1*
X1703920Y1481251D2*
X7662081D1*
X8307920D2*
X14266081D1*
X14911920D2*
X17568081D1*
X18213920D2*
X18538192D1*
X19775872D2*
X20379692D1*
X21617372D2*
X21759081D1*
X22404920D2*
X25061081D1*
X25706920D2*
X31665081D1*
X32310920D2*
X38269081D1*
X1717315Y1418084D2*
X7648686D1*
X8321315D2*
X14252686D1*
X14925315D2*
X17554686D1*
X18227315D2*
X18555679D1*
X19758260D2*
X20397179D1*
X21599760D2*
X21745686D1*
X22418315D2*
X25047686D1*
X25720315D2*
X31651686D1*
X32324315D2*
X38255686D1*
X1718431Y1354917D2*
X7647570D1*
X8322431D2*
X14251570D1*
X14926431D2*
X17553570D1*
X18228431D2*
X18594623D1*
X19719441D2*
X20436123D1*
X21560941D2*
X21744570D1*
X22419431D2*
X25046570D1*
X25721431D2*
X31650570D1*
X32325431D2*
X38254570D1*
X1707269Y1291751D2*
X7658732D1*
X8311269D2*
X14262732D1*
X14915269D2*
X17564732D1*
X18217269D2*
X18677222D1*
X19136903D2*
X19177290D1*
X19636841D2*
X20518722D1*
X20978403D2*
X21018790D1*
X21478341D2*
X21755732D1*
X22408269D2*
X25057732D1*
X25710269D2*
X31661732D1*
X32314269D2*
X38265732D1*
X1682340Y1228584D2*
X7683661D1*
X8286340D2*
X14287661D1*
X14890340D2*
X17589661D1*
X18192340D2*
X21780661D1*
X22383340D2*
X25082661D1*
X25685340D2*
X31686661D1*
X32289340D2*
X38290661D1*
X1639924Y1165417D2*
X7726077D1*
X8243924D2*
X14330077D1*
X14847924D2*
X17632077D1*
X18149924D2*
X21823077D1*
X22340924D2*
X25125077D1*
X25642924D2*
X31729077D1*
X32246924D2*
X38333077D1*
X25126083Y2390652D2*
X25123497Y2365403D1*
X25117511Y2340739D1*
X25108235Y2317114D1*
X25095840Y2294966D1*
X25080556Y2274704D1*
X25062665Y2256702D1*
X25042498Y2241293D1*
X25020426Y2228762D1*
X24996859Y2219340D1*
X24972232Y2213202D1*
X24947000Y2210461D1*
X24921630Y2211168D1*
X24896590Y2215309D1*
X24872342Y2222808D1*
X24849336Y2233527D1*
X24827997Y2247267D1*
X24812515Y2260172D1*
X24793733Y2244886D1*
X24772101Y2231611D1*
X24748868Y2221394D1*
X24724464Y2214422D1*
X24699340Y2210824D1*
X24673960Y2210668D1*
X24648793Y2213955D1*
X24624305Y2220625D1*
X24600948Y2230555D1*
X24579153Y2243562D1*
X24559325Y2259404D1*
X24541828Y2277790D1*
X24526986Y2298378D1*
X24515074Y2320790D1*
X24506312Y2344610D1*
X24500862Y2369398D1*
X24498825Y2394697D1*
X24500237Y2420038D1*
X24501555Y2428743D1*
X22900927Y2428750D1*
X22903369Y2407952D1*
X22903259Y2384310D1*
X22899816Y2359164D1*
X22892995Y2334718D1*
X22882921Y2311422D1*
X22869780Y2289709D1*
X22853816Y2269978D1*
X22835323Y2252595D1*
X22814643Y2237881D1*
X22792158Y2226107D1*
X22768285Y2217493D1*
X22743463Y2212196D1*
X22718152Y2210314D1*
X22692821Y2211883D1*
X22667936Y2216873D1*
X22643958Y2225193D1*
X22621329Y2236688D1*
X22600469Y2251146D1*
X22590015Y2260172D1*
X22571233Y2244886D1*
X22549601Y2231611D1*
X22526368Y2221394D1*
X22501964Y2214422D1*
X22476840Y2210824D1*
X22451460Y2210668D1*
X22426293Y2213955D1*
X22401805Y2220625D1*
X22378448Y2230555D1*
X22356653Y2243562D1*
X22336825Y2259404D1*
X22319328Y2277790D1*
X22304486Y2298378D1*
X22292574Y2320790D1*
X22283812Y2344610D1*
X22278362Y2369398D1*
X22276325Y2394697D1*
X22277737Y2420038D1*
X22279055Y2428743D1*
X21549816Y2428750D1*
X21575328Y2397836D1*
X21584270Y2382982D1*
X21599306Y2343852D1*
X21606998Y2321781D1*
X21610320Y2304764D1*
X21611068Y2262860D1*
X21610748Y2239488D1*
X21608051Y2222361D1*
X21594417Y2182716D1*
X21586122Y2160864D1*
X21577729Y2145692D1*
X21541926Y2101840D1*
X21529785Y2089462D1*
X21512547Y2077144D1*
X21466693Y2051011D1*
X21450512Y2044784D1*
X21409368Y2036771D1*
X21386296Y2033028D1*
X21312111Y2032510D1*
X21112942Y2032851D1*
X21059079Y2041792D1*
X21042289Y2046118D1*
X21023006Y2054885D1*
X20998424Y2069049D1*
X20966693Y2051011D1*
X20950512Y2044784D1*
X20894891Y2034206D1*
X20875611Y2032511D1*
X20612942Y2032851D1*
X20559079Y2041792D1*
X20542289Y2046118D1*
X20523006Y2054885D1*
X20477448Y2081528D1*
X20463964Y2092428D1*
X20436451Y2124055D1*
X20421674Y2142165D1*
X20412731Y2157019D1*
X20397696Y2196149D1*
X20390004Y2218220D1*
X20386681Y2235237D1*
X20385934Y2277141D1*
X20386253Y2300513D1*
X20388950Y2317640D1*
X20402585Y2357285D1*
X20410880Y2379137D1*
X20419272Y2394309D1*
X20447221Y2428783D1*
X19708316Y2428750D1*
X19733827Y2397836D1*
X19742770Y2382982D1*
X19757805Y2343852D1*
X19765497Y2321781D1*
X19768820Y2304764D1*
X19769567Y2262860D1*
X19769248Y2239488D1*
X19766551Y2222361D1*
X19752916Y2182716D1*
X19744622Y2160864D1*
X19736229Y2145693D1*
X19709866Y2113111D1*
X19694599Y2095413D1*
X19681524Y2084026D1*
X19645594Y2062419D1*
X19625193Y2051011D1*
X19609012Y2044784D1*
X19567868Y2036771D1*
X19544796Y2033028D1*
X19470611Y2032510D1*
X19271442Y2032851D1*
X19217579Y2041792D1*
X19200789Y2046118D1*
X19181506Y2054885D1*
X19156923Y2069049D1*
X19125193Y2051011D1*
X19109012Y2044784D1*
X19067868Y2036771D1*
X19044796Y2033028D1*
X18970611Y2032510D1*
X18771442Y2032851D1*
X18717579Y2041792D1*
X18700789Y2046118D1*
X18681506Y2054885D1*
X18635948Y2081528D1*
X18622464Y2092427D1*
X18594951Y2124055D1*
X18580174Y2142165D1*
X18571231Y2157019D1*
X18556195Y2196149D1*
X18548504Y2218220D1*
X18545181Y2235237D1*
X18544434Y2277141D1*
X18544753Y2300513D1*
X18547450Y2317640D1*
X18561085Y2357285D1*
X18569379Y2379137D1*
X18577772Y2394309D1*
X18605721Y2428784D1*
X17757427Y2428750D1*
X17759869Y2407952D1*
X17759759Y2384310D1*
X17756316Y2359164D1*
X17749495Y2334718D1*
X17739421Y2311422D1*
X17726280Y2289709D1*
X17710316Y2269978D1*
X17691823Y2252595D1*
X17671143Y2237881D1*
X17648658Y2226107D1*
X17624785Y2217493D1*
X17599963Y2212196D1*
X17574652Y2210314D1*
X17549321Y2211883D1*
X17524436Y2216873D1*
X17500458Y2225193D1*
X17477829Y2236688D1*
X17456969Y2251146D1*
X17446515Y2260172D1*
X17427733Y2244886D1*
X17406101Y2231611D1*
X17382868Y2221394D1*
X17358464Y2214422D1*
X17333340Y2210824D1*
X17307960Y2210668D1*
X17282793Y2213955D1*
X17258305Y2220625D1*
X17234948Y2230555D1*
X17213153Y2243562D1*
X17193325Y2259404D1*
X17175828Y2277790D1*
X17160986Y2298378D1*
X17149074Y2320790D1*
X17140312Y2344610D1*
X17134862Y2369398D1*
X17132825Y2394697D1*
X17134237Y2420038D1*
X17135555Y2428743D1*
X15534927Y2428750D1*
X15537369Y2407952D1*
X15537259Y2384310D1*
X15533816Y2359164D1*
X15526995Y2334718D1*
X15516921Y2311422D1*
X15503780Y2289709D1*
X15487816Y2269978D1*
X15469323Y2252595D1*
X15448643Y2237881D1*
X15426158Y2226107D1*
X15402285Y2217493D1*
X15377463Y2212196D1*
X15352152Y2210314D1*
X15326821Y2211883D1*
X15301936Y2216873D1*
X15277958Y2225193D1*
X15255329Y2236688D1*
X15234469Y2251146D1*
X15224015Y2260172D1*
X15205233Y2244886D1*
X15183601Y2231611D1*
X15160368Y2221394D1*
X15135964Y2214422D1*
X15110840Y2210824D1*
X15085460Y2210668D1*
X15060293Y2213955D1*
X15035805Y2220625D1*
X15012448Y2230555D1*
X14990653Y2243562D1*
X14970825Y2259404D1*
X14953328Y2277790D1*
X14938486Y2298378D1*
X14926574Y2320790D1*
X14917812Y2344610D1*
X14912362Y2369398D1*
X14910325Y2394697D1*
X14911737Y2420038D1*
X14913055Y2428743D1*
X13312427Y2428750D1*
X13314869Y2407952D1*
X13314759Y2384310D1*
X13311316Y2359164D1*
X13304495Y2334718D1*
X13294421Y2311422D1*
X13281280Y2289709D1*
X13265316Y2269978D1*
X13246823Y2252595D1*
X13226143Y2237881D1*
X13203658Y2226107D1*
X13179785Y2217493D1*
X13154963Y2212196D1*
X13129652Y2210314D1*
X13104321Y2211883D1*
X13079436Y2216873D1*
X13055458Y2225193D1*
X13032829Y2236688D1*
X13011969Y2251146D1*
X13001515Y2260172D1*
X12982733Y2244886D1*
X12961101Y2231611D1*
X12937868Y2221394D1*
X12913464Y2214422D1*
X12888340Y2210824D1*
X12862960Y2210668D1*
X12837793Y2213955D1*
X12813305Y2220625D1*
X12789948Y2230555D1*
X12768153Y2243562D1*
X12748325Y2259404D1*
X12730828Y2277790D1*
X12715986Y2298378D1*
X12704074Y2320790D1*
X12695312Y2344610D1*
X12689862Y2369398D1*
X12687825Y2394697D1*
X12689237Y2420038D1*
X12690555Y2428743D1*
X11089927Y2428750D1*
X11092369Y2407952D1*
X11092259Y2384310D1*
X11088816Y2359164D1*
X11081995Y2334718D1*
X11071921Y2311422D1*
X11058780Y2289709D1*
X11042816Y2269978D1*
X11024323Y2252595D1*
X11003643Y2237881D1*
X10981158Y2226107D1*
X10957285Y2217493D1*
X10932463Y2212196D1*
X10907152Y2210314D1*
X10881821Y2211883D1*
X10856936Y2216873D1*
X10832958Y2225193D1*
X10810329Y2236688D1*
X10789469Y2251146D1*
X10779015Y2260172D1*
X10760233Y2244886D1*
X10738601Y2231611D1*
X10715368Y2221394D1*
X10690964Y2214422D1*
X10665840Y2210824D1*
X10640460Y2210668D1*
X10615293Y2213955D1*
X10590805Y2220625D1*
X10567448Y2230555D1*
X10545653Y2243562D1*
X10525825Y2259404D1*
X10508328Y2277790D1*
X10493486Y2298378D1*
X10481574Y2320790D1*
X10472812Y2344610D1*
X10467362Y2369398D1*
X10465325Y2394697D1*
X10466737Y2420038D1*
X10468055Y2428743D1*
X8867427Y2428750D1*
X8869869Y2407952D1*
X8869759Y2384310D1*
X8866316Y2359164D1*
X8859495Y2334718D1*
X8849421Y2311422D1*
X8836280Y2289709D1*
X8820316Y2269978D1*
X8801823Y2252595D1*
X8781143Y2237881D1*
X8758658Y2226107D1*
X8734785Y2217493D1*
X8709963Y2212196D1*
X8684652Y2210314D1*
X8659321Y2211883D1*
X8634436Y2216873D1*
X8610458Y2225193D1*
X8587829Y2236688D1*
X8566969Y2251146D1*
X8556515Y2260172D1*
X8537733Y2244886D1*
X8516101Y2231611D1*
X8492868Y2221394D1*
X8468464Y2214422D1*
X8443340Y2210824D1*
X8417960Y2210668D1*
X8392793Y2213955D1*
X8368305Y2220625D1*
X8344948Y2230555D1*
X8323153Y2243562D1*
X8303325Y2259404D1*
X8285828Y2277790D1*
X8270986Y2298378D1*
X8259074Y2320790D1*
X8250312Y2344610D1*
X8244862Y2369398D1*
X8242825Y2394697D1*
X8244237Y2420038D1*
X8245555Y2428743D1*
X6644927Y2428750D1*
X6647369Y2407952D1*
X6647259Y2384310D1*
X6643816Y2359164D1*
X6636995Y2334718D1*
X6626921Y2311422D1*
X6613780Y2289709D1*
X6597816Y2269978D1*
X6579323Y2252595D1*
X6558643Y2237881D1*
X6536158Y2226107D1*
X6512285Y2217493D1*
X6487463Y2212196D1*
X6462152Y2210314D1*
X6436821Y2211883D1*
X6411936Y2216873D1*
X6387958Y2225193D1*
X6365329Y2236688D1*
X6344469Y2251146D1*
X6334015Y2260172D1*
X6315233Y2244886D1*
X6293601Y2231611D1*
X6270368Y2221394D1*
X6245964Y2214422D1*
X6220840Y2210824D1*
X6195460Y2210668D1*
X6170293Y2213955D1*
X6145805Y2220625D1*
X6122448Y2230555D1*
X6100653Y2243562D1*
X6080825Y2259404D1*
X6063328Y2277790D1*
X6048486Y2298378D1*
X6036574Y2320790D1*
X6027812Y2344610D1*
X6022362Y2369398D1*
X6020325Y2394697D1*
X6021737Y2420038D1*
X6023055Y2428743D1*
X4422427Y2428750D1*
X4424869Y2407952D1*
X4424759Y2384310D1*
X4421316Y2359164D1*
X4414495Y2334718D1*
X4404421Y2311422D1*
X4391280Y2289709D1*
X4375316Y2269978D1*
X4356823Y2252595D1*
X4336143Y2237881D1*
X4313658Y2226107D1*
X4289785Y2217493D1*
X4264963Y2212196D1*
X4239652Y2210314D1*
X4214321Y2211883D1*
X4189436Y2216873D1*
X4165458Y2225193D1*
X4142829Y2236688D1*
X4121969Y2251146D1*
X4111515Y2260172D1*
X4092733Y2244886D1*
X4071101Y2231611D1*
X4047868Y2221394D1*
X4023464Y2214422D1*
X3998340Y2210824D1*
X3972960Y2210668D1*
X3947793Y2213955D1*
X3923305Y2220625D1*
X3899948Y2230555D1*
X3878153Y2243562D1*
X3858325Y2259404D1*
X3840828Y2277790D1*
X3825986Y2298378D1*
X3814074Y2320790D1*
X3805312Y2344610D1*
X3799862Y2369398D1*
X3797825Y2394697D1*
X3799237Y2420038D1*
X3800555Y2428743D1*
X1158875Y2428750D1*
X1158751Y1627683D1*
X1185807Y1649662D1*
X1207487Y1664148D1*
X1230238Y1676889D1*
X1253918Y1687806D1*
X1278381Y1696831D1*
X1303477Y1703908D1*
X1329051Y1708995D1*
X1354946Y1712060D1*
X1381001Y1713084D1*
X1407055Y1712060D1*
X1432950Y1708995D1*
X1458524Y1703908D1*
X1483620Y1696831D1*
X1508083Y1687806D1*
X1531763Y1676889D1*
X1554514Y1664148D1*
X1576194Y1649662D1*
X1596671Y1633519D1*
X1615819Y1615819D1*
X1633519Y1596671D1*
X1649662Y1576194D1*
X1664148Y1554514D1*
X1676889Y1531763D1*
X1687806Y1508083D1*
X1696831Y1483620D1*
X1703908Y1458524D1*
X1708995Y1432950D1*
X1712060Y1407055D1*
X1713084Y1381001D1*
X1712060Y1354946D1*
X1708995Y1329051D1*
X1703908Y1303477D1*
X1696831Y1278381D1*
X1687806Y1253918D1*
X1676889Y1230238D1*
X1664148Y1207487D1*
X1649662Y1185807D1*
X1627504Y1158823D1*
X7738318Y1158751D1*
X7716339Y1185807D1*
X7701853Y1207487D1*
X7689112Y1230238D1*
X7678196Y1253918D1*
X7669171Y1278381D1*
X7662093Y1303477D1*
X7657006Y1329051D1*
X7653941Y1354946D1*
X7652917Y1381001D1*
X7653941Y1407055D1*
X7657006Y1432950D1*
X7662093Y1458524D1*
X7669171Y1483620D1*
X7678196Y1508083D1*
X7689112Y1531763D1*
X7701853Y1554514D1*
X7716339Y1576194D1*
X7732482Y1596671D1*
X7750182Y1615819D1*
X7769330Y1633519D1*
X7789807Y1649662D1*
X7811487Y1664148D1*
X7834238Y1676889D1*
X7857918Y1687806D1*
X7882381Y1696831D1*
X7907477Y1703908D1*
X7933051Y1708995D1*
X7958946Y1712060D1*
X7985001Y1713084D1*
X8011055Y1712060D1*
X8036950Y1708995D1*
X8062524Y1703908D1*
X8087620Y1696831D1*
X8112083Y1687806D1*
X8135763Y1676889D1*
X8158514Y1664148D1*
X8180194Y1649662D1*
X8200671Y1633519D1*
X8219819Y1615819D1*
X8237519Y1596671D1*
X8253662Y1576194D1*
X8268148Y1554514D1*
X8280889Y1531763D1*
X8291806Y1508083D1*
X8300831Y1483620D1*
X8307908Y1458524D1*
X8312995Y1432950D1*
X8316060Y1407055D1*
X8317084Y1381001D1*
X8316060Y1354946D1*
X8312995Y1329051D1*
X8307908Y1303477D1*
X8300831Y1278381D1*
X8291806Y1253918D1*
X8280889Y1230238D1*
X8268148Y1207487D1*
X8253662Y1185807D1*
X8231504Y1158823D1*
X14342318Y1158751D1*
X14320339Y1185807D1*
X14305853Y1207487D1*
X14293112Y1230238D1*
X14282196Y1253918D1*
X14273171Y1278381D1*
X14266093Y1303477D1*
X14261006Y1329051D1*
X14257941Y1354946D1*
X14256917Y1381001D1*
X14257941Y1407055D1*
X14261006Y1432950D1*
X14266093Y1458524D1*
X14273171Y1483620D1*
X14282196Y1508083D1*
X14293112Y1531763D1*
X14305853Y1554514D1*
X14320339Y1576194D1*
X14336482Y1596671D1*
X14354182Y1615819D1*
X14373330Y1633519D1*
X14393807Y1649662D1*
X14415487Y1664148D1*
X14438238Y1676889D1*
X14461918Y1687806D1*
X14486381Y1696831D1*
X14511477Y1703908D1*
X14537051Y1708995D1*
X14562946Y1712060D1*
X14589001Y1713084D1*
X14615055Y1712060D1*
X14640950Y1708995D1*
X14666524Y1703908D1*
X14691620Y1696831D1*
X14716083Y1687806D1*
X14739763Y1676889D1*
X14762514Y1664148D1*
X14784194Y1649662D1*
X14804671Y1633519D1*
X14823819Y1615819D1*
X14841519Y1596671D1*
X14857662Y1576194D1*
X14872148Y1554514D1*
X14884889Y1531763D1*
X14895806Y1508083D1*
X14904831Y1483620D1*
X14911908Y1458524D1*
X14916995Y1432950D1*
X14920060Y1407055D1*
X14921084Y1381001D1*
X14920060Y1354946D1*
X14916995Y1329051D1*
X14911908Y1303477D1*
X14904831Y1278381D1*
X14895806Y1253918D1*
X14884889Y1230238D1*
X14872148Y1207487D1*
X14857662Y1185807D1*
X14835504Y1158823D1*
X17644318Y1158751D1*
X17622339Y1185807D1*
X17607853Y1207487D1*
X17595112Y1230238D1*
X17584196Y1253918D1*
X17575171Y1278381D1*
X17568093Y1303477D1*
X17563006Y1329051D1*
X17559941Y1354946D1*
X17558917Y1381001D1*
X17559941Y1407055D1*
X17563006Y1432950D1*
X17568093Y1458524D1*
X17575171Y1483620D1*
X17584196Y1508083D1*
X17595112Y1531763D1*
X17607853Y1554514D1*
X17622339Y1576194D1*
X17638482Y1596671D1*
X17656182Y1615819D1*
X17675330Y1633519D1*
X17695807Y1649662D1*
X17717487Y1664148D1*
X17740238Y1676889D1*
X17763918Y1687806D1*
X17788381Y1696831D1*
X17813477Y1703908D1*
X17839051Y1708995D1*
X17864946Y1712060D1*
X17891001Y1713084D1*
X17917055Y1712060D1*
X17942950Y1708995D1*
X17968524Y1703908D1*
X17993620Y1696831D1*
X18018083Y1687806D1*
X18041763Y1676889D1*
X18064514Y1664148D1*
X18086194Y1649662D1*
X18106671Y1633519D1*
X18125819Y1615819D1*
X18143519Y1596671D1*
X18159662Y1576194D1*
X18174148Y1554514D1*
X18186889Y1531763D1*
X18197806Y1508083D1*
X18206831Y1483620D1*
X18213908Y1458524D1*
X18218995Y1432950D1*
X18222060Y1407055D1*
X18223084Y1381001D1*
X18222060Y1354946D1*
X18218995Y1329051D1*
X18213908Y1303477D1*
X18206831Y1278381D1*
X18197806Y1253918D1*
X18186889Y1230238D1*
X18174148Y1207487D1*
X18159662Y1185807D1*
X18137504Y1158823D1*
X21835318Y1158751D1*
X21813339Y1185807D1*
X21798853Y1207487D1*
X21786112Y1230238D1*
X21775196Y1253918D1*
X21766171Y1278381D1*
X21759093Y1303477D1*
X21754006Y1329051D1*
X21750941Y1354946D1*
X21749917Y1381001D1*
X21750941Y1407055D1*
X21754006Y1432950D1*
X21759093Y1458524D1*
X21766171Y1483620D1*
X21775196Y1508083D1*
X21786112Y1531763D1*
X21798853Y1554514D1*
X21813339Y1576194D1*
X21829482Y1596671D1*
X21847182Y1615819D1*
X21866330Y1633519D1*
X21886807Y1649662D1*
X21908487Y1664148D1*
X21931238Y1676889D1*
X21954918Y1687806D1*
X21979381Y1696831D1*
X22004477Y1703908D1*
X22030051Y1708995D1*
X22055946Y1712060D1*
X22082001Y1713084D1*
X22108055Y1712060D1*
X22133950Y1708995D1*
X22159524Y1703908D1*
X22184620Y1696831D1*
X22209083Y1687806D1*
X22232763Y1676889D1*
X22255514Y1664148D1*
X22277194Y1649662D1*
X22297671Y1633519D1*
X22316819Y1615819D1*
X22334519Y1596671D1*
X22350662Y1576194D1*
X22365148Y1554514D1*
X22377889Y1531763D1*
X22388806Y1508083D1*
X22397831Y1483620D1*
X22404908Y1458524D1*
X22409995Y1432950D1*
X22413060Y1407055D1*
X22414084Y1381001D1*
X22413060Y1354946D1*
X22409995Y1329051D1*
X22404908Y1303477D1*
X22397831Y1278381D1*
X22388806Y1253918D1*
X22377889Y1230238D1*
X22365148Y1207487D1*
X22350662Y1185807D1*
X22328504Y1158823D1*
X25137318Y1158751D1*
X25115339Y1185807D1*
X25100853Y1207487D1*
X25088112Y1230238D1*
X25077196Y1253918D1*
X25068171Y1278381D1*
X25061093Y1303477D1*
X25056006Y1329051D1*
X25052941Y1354946D1*
X25051917Y1381001D1*
X25052941Y1407055D1*
X25056006Y1432950D1*
X25061093Y1458524D1*
X25068171Y1483620D1*
X25077196Y1508083D1*
X25088112Y1531763D1*
X25100853Y1554514D1*
X25115339Y1576194D1*
X25131482Y1596671D1*
X25149182Y1615819D1*
X25168330Y1633519D1*
X25188807Y1649662D1*
X25210487Y1664148D1*
X25233238Y1676889D1*
X25256918Y1687806D1*
X25281381Y1696831D1*
X25306477Y1703908D1*
X25332051Y1708995D1*
X25357946Y1712060D1*
X25384001Y1713084D1*
X25410055Y1712060D1*
X25435950Y1708995D1*
X25461524Y1703908D1*
X25486620Y1696831D1*
X25511083Y1687806D1*
X25534763Y1676889D1*
X25557514Y1664148D1*
X25579194Y1649662D1*
X25599671Y1633519D1*
X25618819Y1615819D1*
X25636519Y1596671D1*
X25652662Y1576194D1*
X25667148Y1554514D1*
X25679889Y1531763D1*
X25690806Y1508083D1*
X25699831Y1483620D1*
X25706908Y1458524D1*
X25711995Y1432950D1*
X25715060Y1407055D1*
X25716084Y1381001D1*
X25715060Y1354946D1*
X25711995Y1329051D1*
X25706908Y1303477D1*
X25699831Y1278381D1*
X25690806Y1253918D1*
X25679889Y1230238D1*
X25667148Y1207487D1*
X25652662Y1185807D1*
X25630504Y1158823D1*
X31741318Y1158751D1*
X31719339Y1185807D1*
X31704853Y1207487D1*
X31692112Y1230238D1*
X31681196Y1253918D1*
X31672171Y1278381D1*
X31665093Y1303477D1*
X31660006Y1329051D1*
X31656941Y1354946D1*
X31655917Y1381001D1*
X31656941Y1407055D1*
X31660006Y1432950D1*
X31665093Y1458524D1*
X31672171Y1483620D1*
X31681196Y1508083D1*
X31692112Y1531763D1*
X31704853Y1554514D1*
X31719339Y1576194D1*
X31735482Y1596671D1*
X31753182Y1615819D1*
X31772330Y1633519D1*
X31792807Y1649662D1*
X31814487Y1664148D1*
X31837238Y1676889D1*
X31860918Y1687806D1*
X31885381Y1696831D1*
X31910477Y1703908D1*
X31936051Y1708995D1*
X31961946Y1712060D1*
X31988001Y1713084D1*
X32014055Y1712060D1*
X32039950Y1708995D1*
X32065524Y1703908D1*
X32090620Y1696831D1*
X32115083Y1687806D1*
X32138763Y1676889D1*
X32161514Y1664148D1*
X32183194Y1649662D1*
X32203671Y1633519D1*
X32222819Y1615819D1*
X32240519Y1596671D1*
X32256662Y1576194D1*
X32271148Y1554514D1*
X32283889Y1531763D1*
X32294806Y1508083D1*
X32303831Y1483620D1*
X32310908Y1458524D1*
X32315995Y1432950D1*
X32319060Y1407055D1*
X32320084Y1381001D1*
X32319060Y1354946D1*
X32315995Y1329051D1*
X32310908Y1303477D1*
X32303831Y1278381D1*
X32294806Y1253918D1*
X32283889Y1230238D1*
X32271148Y1207487D1*
X32256662Y1185807D1*
X32234504Y1158823D1*
X38345318Y1158751D1*
X38323339Y1185807D1*
X38308853Y1207487D1*
X38296112Y1230238D1*
X38285196Y1253918D1*
X38276171Y1278381D1*
X38269093Y1303477D1*
X38264006Y1329051D1*
X38260941Y1354946D1*
X38259917Y1381001D1*
X38260941Y1407055D1*
X38264006Y1432950D1*
X38269093Y1458524D1*
X38276171Y1483620D1*
X38285196Y1508083D1*
X38296112Y1531763D1*
X38308853Y1554514D1*
X38323339Y1576194D1*
X38339482Y1596671D1*
X38357182Y1615819D1*
X38376330Y1633519D1*
X38396807Y1649662D1*
X38418487Y1664148D1*
X38441238Y1676889D1*
X38464918Y1687806D1*
X38489381Y1696831D1*
X38514477Y1703908D1*
X38540051Y1708995D1*
X38565946Y1712060D1*
X38592001Y1713084D1*
X38618055Y1712060D1*
X38643950Y1708995D1*
X38669524Y1703908D1*
X38694620Y1696831D1*
X38719083Y1687806D1*
X38742763Y1676889D1*
X38765514Y1664148D1*
X38787194Y1649662D1*
X38814179Y1627504D1*
X38814250Y2428627D1*
X36235927Y2428750D1*
X36238369Y2407952D1*
X36238259Y2384310D1*
X36234816Y2359164D1*
X36227995Y2334718D1*
X36217921Y2311422D1*
X36204780Y2289709D1*
X36188816Y2269978D1*
X36170323Y2252595D1*
X36149643Y2237881D1*
X36127158Y2226107D1*
X36103285Y2217493D1*
X36078463Y2212196D1*
X36053152Y2210314D1*
X36027821Y2211883D1*
X36002936Y2216873D1*
X35978958Y2225193D1*
X35956329Y2236688D1*
X35935469Y2251146D1*
X35925015Y2260172D1*
X35906233Y2244886D1*
X35884601Y2231611D1*
X35861368Y2221394D1*
X35836964Y2214422D1*
X35811840Y2210824D1*
X35786460Y2210668D1*
X35761293Y2213955D1*
X35736805Y2220625D1*
X35713448Y2230555D1*
X35691653Y2243562D1*
X35671825Y2259404D1*
X35654328Y2277790D1*
X35639486Y2298378D1*
X35627574Y2320790D1*
X35618812Y2344610D1*
X35613362Y2369398D1*
X35611325Y2394697D1*
X35612737Y2420038D1*
X35614055Y2428743D1*
X34013427Y2428750D1*
X34015869Y2407952D1*
X34015759Y2384310D1*
X34012316Y2359164D1*
X34005495Y2334718D1*
X33995421Y2311422D1*
X33982280Y2289709D1*
X33966316Y2269978D1*
X33947823Y2252595D1*
X33927143Y2237881D1*
X33904658Y2226107D1*
X33880785Y2217493D1*
X33855963Y2212196D1*
X33830652Y2210314D1*
X33805321Y2211883D1*
X33780436Y2216873D1*
X33756458Y2225193D1*
X33733829Y2236688D1*
X33712969Y2251146D1*
X33702515Y2260172D1*
X33683733Y2244886D1*
X33662101Y2231611D1*
X33638868Y2221394D1*
X33614464Y2214422D1*
X33589340Y2210824D1*
X33563960Y2210668D1*
X33538793Y2213955D1*
X33514305Y2220625D1*
X33490948Y2230555D1*
X33469153Y2243562D1*
X33449325Y2259404D1*
X33431828Y2277790D1*
X33416986Y2298378D1*
X33405074Y2320790D1*
X33396312Y2344610D1*
X33390862Y2369398D1*
X33388825Y2394697D1*
X33390237Y2420038D1*
X33391555Y2428743D1*
X31790927Y2428750D1*
X31793369Y2407952D1*
X31793259Y2384310D1*
X31789816Y2359164D1*
X31782995Y2334718D1*
X31772921Y2311422D1*
X31759780Y2289709D1*
X31743816Y2269978D1*
X31725323Y2252595D1*
X31704643Y2237881D1*
X31682158Y2226107D1*
X31658285Y2217493D1*
X31633463Y2212196D1*
X31608152Y2210314D1*
X31582821Y2211883D1*
X31557936Y2216873D1*
X31533958Y2225193D1*
X31511329Y2236688D1*
X31490469Y2251146D1*
X31480015Y2260172D1*
X31461233Y2244886D1*
X31439601Y2231611D1*
X31416368Y2221394D1*
X31391964Y2214422D1*
X31366840Y2210824D1*
X31341460Y2210668D1*
X31316293Y2213955D1*
X31291805Y2220625D1*
X31268448Y2230555D1*
X31246653Y2243562D1*
X31226825Y2259404D1*
X31209328Y2277790D1*
X31194486Y2298378D1*
X31182574Y2320790D1*
X31173812Y2344610D1*
X31168362Y2369398D1*
X31166325Y2394697D1*
X31167737Y2420038D1*
X31169055Y2428743D1*
X29568427Y2428750D1*
X29570869Y2407952D1*
X29570759Y2384310D1*
X29567316Y2359164D1*
X29560495Y2334718D1*
X29550421Y2311422D1*
X29537280Y2289709D1*
X29521316Y2269978D1*
X29502823Y2252595D1*
X29482143Y2237881D1*
X29459658Y2226107D1*
X29435785Y2217493D1*
X29410963Y2212196D1*
X29385652Y2210314D1*
X29360321Y2211883D1*
X29335436Y2216873D1*
X29311458Y2225193D1*
X29288829Y2236688D1*
X29267969Y2251146D1*
X29257515Y2260172D1*
X29238733Y2244886D1*
X29217101Y2231611D1*
X29193868Y2221394D1*
X29169464Y2214422D1*
X29144340Y2210824D1*
X29118960Y2210668D1*
X29093793Y2213955D1*
X29069305Y2220625D1*
X29045948Y2230555D1*
X29024153Y2243562D1*
X29004325Y2259404D1*
X28986828Y2277790D1*
X28971986Y2298378D1*
X28960074Y2320790D1*
X28951312Y2344610D1*
X28945862Y2369398D1*
X28943825Y2394697D1*
X28945237Y2420038D1*
X28946555Y2428743D1*
X27345927Y2428750D1*
X27348369Y2407952D1*
X27348259Y2384310D1*
X27344816Y2359164D1*
X27337995Y2334718D1*
X27327921Y2311422D1*
X27314780Y2289709D1*
X27298816Y2269978D1*
X27280323Y2252595D1*
X27259643Y2237881D1*
X27237158Y2226107D1*
X27213285Y2217493D1*
X27188463Y2212196D1*
X27163152Y2210314D1*
X27137821Y2211883D1*
X27112936Y2216873D1*
X27088958Y2225193D1*
X27066329Y2236688D1*
X27045469Y2251146D1*
X27035015Y2260172D1*
X27016233Y2244886D1*
X26994601Y2231611D1*
X26971368Y2221394D1*
X26946964Y2214422D1*
X26921840Y2210824D1*
X26896460Y2210668D1*
X26871293Y2213955D1*
X26846805Y2220625D1*
X26823448Y2230555D1*
X26801653Y2243562D1*
X26781825Y2259404D1*
X26764328Y2277790D1*
X26749486Y2298378D1*
X26737574Y2320790D1*
X26728812Y2344610D1*
X26723362Y2369398D1*
X26721325Y2394697D1*
X26722737Y2420038D1*
X26724055Y2428743D1*
X25123427Y2428750D1*
X25125869Y2407952D1*
X25126083Y2390652D1*
X19059234Y1742732D2*
X19108778Y1733302D1*
X19126484Y1726337D1*
X19157018Y1708986D1*
X19192468Y1728658D1*
X19210509Y1734703D1*
X19266891Y1744723D1*
X19292591Y1745491D1*
X19542502Y1745155D1*
X19590506Y1737247D1*
X19608778Y1733302D1*
X19626484Y1726337D1*
X19676120Y1697769D1*
X19691076Y1686008D1*
X19708302Y1666733D1*
X19736106Y1632522D1*
X19745191Y1615805D1*
X19764850Y1562017D1*
X19768746Y1543393D1*
X19769552Y1517564D1*
X19768863Y1473485D1*
X19765079Y1454838D1*
X19745563Y1400993D1*
X19736577Y1384222D1*
X19720592Y1363917D1*
X19691731Y1330593D1*
X19676846Y1318742D1*
X19627282Y1290037D1*
X19609619Y1282966D1*
X19584316Y1277686D1*
X19540786Y1270712D1*
X19280111Y1270510D1*
X19261022Y1272172D1*
X19205223Y1282699D1*
X19187517Y1289664D1*
X19156983Y1307015D1*
X19121533Y1287343D1*
X19103493Y1281298D1*
X19047110Y1271278D1*
X19021411Y1270510D1*
X18767438Y1271239D1*
X18711359Y1281068D1*
X18693282Y1287004D1*
X18670501Y1299225D1*
X18632673Y1321863D1*
X18618418Y1334464D1*
X18581547Y1378285D1*
X18571516Y1394453D1*
X18561922Y1418457D1*
X18547496Y1460114D1*
X18544676Y1478930D1*
X18544597Y1536190D1*
X18547304Y1555023D1*
X18555385Y1579583D1*
X18571110Y1620768D1*
X18581045Y1636995D1*
X18617790Y1680910D1*
X18631969Y1693596D1*
X18653947Y1707217D1*
X18692468Y1728658D1*
X18710509Y1734703D1*
X18766891Y1744723D1*
X18792591Y1745491D1*
X19042502Y1745155D1*
X19059234Y1742732D1*
X20900734D2*
X20950278Y1733302D1*
X20967984Y1726337D1*
X20998518Y1708986D1*
X21033968Y1728658D1*
X21052009Y1734703D1*
X21108391Y1744723D1*
X21134091Y1745491D1*
X21384001Y1745155D1*
X21432006Y1737247D1*
X21450278Y1733302D1*
X21467984Y1726337D1*
X21517620Y1697770D1*
X21532576Y1686008D1*
X21549802Y1666733D1*
X21577606Y1632522D1*
X21586692Y1615805D1*
X21606350Y1562017D1*
X21610246Y1543393D1*
X21611052Y1517564D1*
X21610363Y1473485D1*
X21606579Y1454838D1*
X21587063Y1400993D1*
X21578077Y1384222D1*
X21562092Y1363917D1*
X21533231Y1330593D1*
X21518346Y1318742D1*
X21468782Y1290037D1*
X21451119Y1282966D1*
X21425816Y1277686D1*
X21382286Y1270712D1*
X21121611Y1270510D1*
X21102630Y1272153D1*
X21046723Y1282699D1*
X21029017Y1289664D1*
X20998483Y1307015D1*
X20963033Y1287343D1*
X20944993Y1281298D1*
X20888610Y1271278D1*
X20862911Y1270510D1*
X20608938Y1271239D1*
X20552859Y1281068D1*
X20534782Y1287004D1*
X20512001Y1299225D1*
X20474173Y1321863D1*
X20459917Y1334464D1*
X20421513Y1380391D1*
X20411866Y1396790D1*
X20394715Y1442318D1*
X20388997Y1460114D1*
X20386177Y1478930D1*
X20386097Y1536190D1*
X20388804Y1555023D1*
X20396885Y1579583D1*
X20412611Y1620768D1*
X20422545Y1636994D1*
X20459290Y1680910D1*
X20473469Y1693596D1*
X20495447Y1707217D1*
X20533968Y1728658D1*
X20552009Y1734703D1*
X20608391Y1744723D1*
X20634091Y1745491D1*
X20884002Y1745155D1*
X20900734Y1742732D1*
X24939501Y2397001D2*
D14*
Y2210435D1*
X24685501Y2397001D2*
Y2210435D1*
X6461001Y2397001D2*
Y2210435D1*
X6207001Y2397001D2*
Y2210435D1*
X15351001Y2397001D2*
Y2210435D1*
X15097001Y2397001D2*
Y2210435D1*
X33829501Y2397001D2*
Y2210435D1*
X33575501Y2397001D2*
Y2210435D1*
X31607001Y2397001D2*
Y2210435D1*
X31353001Y2397001D2*
Y2210435D1*
X29384501Y2397001D2*
Y2210435D1*
X29130501Y2397001D2*
Y2210435D1*
X27162001Y2397001D2*
Y2210435D1*
X26908001Y2397001D2*
Y2210435D1*
X18907001Y1745476D2*
Y1270525D1*
X19407001Y1745476D2*
Y1270525D1*
X13128501Y2397001D2*
Y2210435D1*
X12874501Y2397001D2*
Y2210435D1*
X10906001Y2397001D2*
Y2210435D1*
X10652001Y2397001D2*
Y2210435D1*
X8683501Y2397001D2*
Y2210435D1*
X8429501Y2397001D2*
Y2210435D1*
X20748501Y1745476D2*
Y1270525D1*
X21248501Y1745476D2*
Y1270525D1*
X4238501Y2397001D2*
Y2210435D1*
X3984501Y2397001D2*
Y2210435D1*
X36052001Y2397001D2*
Y2210435D1*
X35798001Y2397001D2*
Y2210435D1*
X22717001Y2397001D2*
Y2210435D1*
X22463001Y2397001D2*
Y2210435D1*
X17573501Y2397001D2*
Y2210435D1*
X17319501Y2397001D2*
Y2210435D1*
X1837122Y3445084D2*
D22*
X3768489D1*
X4454512D2*
X5990989D1*
X6677012D2*
X8213489D1*
X8899512D2*
X10435989D1*
X11122012D2*
X12658489D1*
X13344512D2*
X14880989D1*
X15567012D2*
X17103489D1*
X17789512D2*
X18106466D1*
X18564535D2*
X22246989D1*
X22933012D2*
X24469489D1*
X25155512D2*
X26691989D1*
X27378012D2*
X28914489D1*
X29600512D2*
X31136989D1*
X31823012D2*
X33359489D1*
X34045512D2*
X35581989D1*
X36268012D2*
X38104130D1*
X1859198Y3381917D2*
X3768365D1*
X4454636D2*
X5990865D1*
X6677136D2*
X8213365D1*
X8899636D2*
X10435865D1*
X11122136D2*
X12658365D1*
X13344636D2*
X14880865D1*
X15567136D2*
X17103365D1*
X17789636D2*
X18127054D1*
X18543947D2*
X22246865D1*
X22933136D2*
X24469365D1*
X25155636D2*
X26691865D1*
X27378136D2*
X28914365D1*
X29600636D2*
X31136865D1*
X31823136D2*
X33359365D1*
X34045636D2*
X35581865D1*
X36268136D2*
X38082053D1*
X1866143Y3318751D2*
X3788209D1*
X4434792D2*
X6010709D1*
X6657292D2*
X8233209D1*
X8879792D2*
X10455709D1*
X11102292D2*
X12678209D1*
X13324792D2*
X14900709D1*
X15547292D2*
X17123209D1*
X17769792D2*
X18173811D1*
X18497190D2*
X22266709D1*
X22913292D2*
X24489209D1*
X25135792D2*
X26711709D1*
X27358292D2*
X28934209D1*
X29580792D2*
X31156709D1*
X31803292D2*
X33379209D1*
X34025792D2*
X35601709D1*
X36248292D2*
X38075108D1*
X1859074Y3255584D2*
X3789325D1*
X4433676D2*
X6011825D1*
X6656176D2*
X8234325D1*
X8878676D2*
X10456825D1*
X11101176D2*
X12679325D1*
X13323676D2*
X14901825D1*
X15546176D2*
X17124325D1*
X17768676D2*
X18639023D1*
X19675040D2*
X20480523D1*
X21516540D2*
X22267825D1*
X22912176D2*
X24490325D1*
X25134676D2*
X26712825D1*
X27357176D2*
X28935325D1*
X29579676D2*
X31157825D1*
X31802176D2*
X33380325D1*
X34024676D2*
X35602825D1*
X36247176D2*
X38082177D1*
X1836873Y3192417D2*
X3768737D1*
X4454264D2*
X5991237D1*
X6676764D2*
X8213737D1*
X8899264D2*
X10436237D1*
X11121764D2*
X12658737D1*
X13344264D2*
X14881237D1*
X15566764D2*
X17103737D1*
X17789264D2*
X18567586D1*
X19746478D2*
X20409086D1*
X21587978D2*
X22247237D1*
X22932764D2*
X24469737D1*
X25155264D2*
X26692237D1*
X27377764D2*
X28914737D1*
X29600264D2*
X31137237D1*
X31822764D2*
X33359737D1*
X34045264D2*
X35582237D1*
X36267764D2*
X38104378D1*
X1794830Y3129251D2*
X3768117D1*
X4454884D2*
X5990617D1*
X6677384D2*
X8213117D1*
X8899884D2*
X10435617D1*
X11122384D2*
X12658117D1*
X13344884D2*
X14880617D1*
X15567384D2*
X17103117D1*
X17789884D2*
X18531371D1*
X19782693D2*
X20372871D1*
X21624193D2*
X22246617D1*
X22933384D2*
X24469117D1*
X25155884D2*
X26691617D1*
X27378384D2*
X28914117D1*
X29600884D2*
X31136617D1*
X31823384D2*
X33359117D1*
X34045884D2*
X35581617D1*
X36268384D2*
X38146422D1*
X1827944Y3066084D2*
X3787465D1*
X4435537D2*
X6009965D1*
X6658037D2*
X8232465D1*
X8880537D2*
X10454965D1*
X11103037D2*
X12677465D1*
X13325537D2*
X14899965D1*
X15548037D2*
X17122465D1*
X17770537D2*
X18513263D1*
X19800800D2*
X20354763D1*
X21642300D2*
X22265965D1*
X22914037D2*
X24488465D1*
X25136537D2*
X26710965D1*
X27359037D2*
X28933465D1*
X29581537D2*
X31155965D1*
X31804037D2*
X33378465D1*
X34026537D2*
X35600965D1*
X36249037D2*
X38113307D1*
X1854733Y3002917D2*
X3790069D1*
X4432932D2*
X6012569D1*
X6655432D2*
X8235069D1*
X8877932D2*
X10457569D1*
X11100432D2*
X12680069D1*
X13322932D2*
X14902569D1*
X15545432D2*
X17125069D1*
X17767932D2*
X18512891D1*
X19801172D2*
X20354391D1*
X21642672D2*
X22268569D1*
X22911432D2*
X24491069D1*
X25133932D2*
X26713569D1*
X27356432D2*
X28936069D1*
X29578932D2*
X31158569D1*
X31801432D2*
X33381069D1*
X34023932D2*
X35603569D1*
X36246432D2*
X38086518D1*
X1865647Y2939751D2*
X3768985D1*
X4454016D2*
X5991485D1*
X6676516D2*
X8213985D1*
X8899016D2*
X10436485D1*
X11121516D2*
X12658985D1*
X13344016D2*
X14881485D1*
X15566516D2*
X17103985D1*
X17789016D2*
X18529510D1*
X19784429D2*
X20371010D1*
X21625929D2*
X22247485D1*
X22932516D2*
X24469985D1*
X25155016D2*
X26692485D1*
X27377516D2*
X28914985D1*
X29600016D2*
X31137485D1*
X31822516D2*
X33359985D1*
X34045016D2*
X35582485D1*
X36267516D2*
X38075604D1*
X1866143Y2876584D2*
X3767993D1*
X4455008D2*
X5990493D1*
X6677508D2*
X8212993D1*
X8900008D2*
X10435493D1*
X11122508D2*
X12657993D1*
X13345008D2*
X14880493D1*
X15567508D2*
X17102993D1*
X17790008D2*
X18563369D1*
X19750571D2*
X20404869D1*
X21592071D2*
X22246493D1*
X22933508D2*
X24468993D1*
X25156008D2*
X26691493D1*
X27378508D2*
X28913993D1*
X29601008D2*
X31136493D1*
X31823508D2*
X33358993D1*
X34046008D2*
X35581493D1*
X36268508D2*
X38075108D1*
X1866143Y2813417D2*
X3786844D1*
X4436157D2*
X6009344D1*
X6658657D2*
X8231844D1*
X8881157D2*
X10454344D1*
X11103657D2*
X12676844D1*
X13326157D2*
X14899344D1*
X15548657D2*
X17121844D1*
X17771157D2*
X18630341D1*
X19683598D2*
X20471841D1*
X21525098D2*
X22265344D1*
X22914657D2*
X24487844D1*
X25137157D2*
X26710344D1*
X27359657D2*
X28932844D1*
X29582157D2*
X31155344D1*
X31804657D2*
X33377844D1*
X34027157D2*
X35600344D1*
X36249657D2*
X38075108D1*
X1866143Y2750251D2*
X3790689D1*
X4432312D2*
X6013189D1*
X6654812D2*
X8235689D1*
X8877312D2*
X10458189D1*
X11099812D2*
X12680689D1*
X13322312D2*
X14903189D1*
X15544812D2*
X17125689D1*
X17767312D2*
X22269189D1*
X22910812D2*
X24491689D1*
X25133312D2*
X26714189D1*
X27355812D2*
X28936689D1*
X29578312D2*
X31159189D1*
X31800812D2*
X33381689D1*
X34023312D2*
X35604189D1*
X36245812D2*
X38075108D1*
X1866143Y2687084D2*
X3769109D1*
X4453892D2*
X5991609D1*
X6676392D2*
X8214109D1*
X8898892D2*
X10436609D1*
X11121392D2*
X12659109D1*
X13343892D2*
X14881609D1*
X15566392D2*
X17104109D1*
X17788892D2*
X22247609D1*
X22932392D2*
X24470109D1*
X25154892D2*
X26692609D1*
X27377392D2*
X28915109D1*
X29599892D2*
X31137609D1*
X31822392D2*
X33360109D1*
X34044892D2*
X35582609D1*
X36267392D2*
X38075108D1*
X1866143Y2623917D2*
X3767745D1*
X4455256D2*
X5990245D1*
X6677756D2*
X8212745D1*
X8900256D2*
X10435245D1*
X11122756D2*
X12657745D1*
X13345256D2*
X14880245D1*
X15567756D2*
X17102745D1*
X17790256D2*
X22246245D1*
X22933756D2*
X24468745D1*
X25156256D2*
X26691245D1*
X27378756D2*
X28913745D1*
X29601256D2*
X31136245D1*
X31823756D2*
X33358745D1*
X34046256D2*
X35581245D1*
X36268756D2*
X38075108D1*
X25151495Y3406651D2*
X25149218Y3381369D1*
X25143937Y3356540D1*
X25135727Y3332519D1*
X25124706Y3309652D1*
X25109350Y3286023D1*
X25120337Y3269817D1*
X25135446Y3240164D1*
X25145730Y3208512D1*
X25150937Y3175641D1*
Y3142360D1*
X25145730Y3109489D1*
X25135446Y3077837D1*
X25120337Y3048184D1*
X25109273Y3032038D1*
X25120337Y3015817D1*
X25135446Y2986164D1*
X25145730Y2954512D1*
X25150937Y2921641D1*
Y2888360D1*
X25145730Y2855489D1*
X25135446Y2823837D1*
X25120337Y2794184D1*
X25109273Y2778038D1*
X25120337Y2761817D1*
X25135446Y2732164D1*
X25145730Y2700512D1*
X25150937Y2667641D1*
Y2634360D1*
X25149155Y2619308D1*
X26698277Y2619251D1*
X26695911Y2651001D1*
X26698522Y2684179D1*
X26706291Y2716540D1*
X26719027Y2747287D1*
X26736416Y2775664D1*
X26738228Y2777963D1*
X26727164Y2794184D1*
X26712055Y2823837D1*
X26701771Y2855489D1*
X26696564Y2888360D1*
Y2921641D1*
X26701771Y2954512D1*
X26712055Y2986164D1*
X26727164Y3015817D1*
X26738228Y3031963D1*
X26727164Y3048184D1*
X26712055Y3077837D1*
X26701771Y3109489D1*
X26696564Y3142360D1*
Y3175641D1*
X26701771Y3208512D1*
X26712055Y3240164D1*
X26727164Y3269817D1*
X26738228Y3285963D1*
X26725741Y3304540D1*
X26714089Y3327092D1*
X26705214Y3350875D1*
X26699244Y3375548D1*
X26696264Y3400757D1*
X26696318Y3426142D1*
X26699404Y3451338D1*
X26700117Y3454914D1*
X25147488Y3454910D1*
X25151262Y3424795D1*
X25151495Y3406651D1*
X24475846Y2619308D2*
X24473411Y2651001D1*
X24476022Y2684179D1*
X24483791Y2716540D1*
X24496527Y2747287D1*
X24513916Y2775664D1*
X24515728Y2777963D1*
X24504664Y2794184D1*
X24489555Y2823837D1*
X24479271Y2855489D1*
X24474064Y2888360D1*
Y2921641D1*
X24479271Y2954512D1*
X24489555Y2986164D1*
X24504664Y3015817D1*
X24515728Y3031963D1*
X24504664Y3048184D1*
X24489555Y3077837D1*
X24479271Y3109489D1*
X24474064Y3142360D1*
Y3175641D1*
X24479271Y3208512D1*
X24489555Y3240164D1*
X24504664Y3269817D1*
X24515728Y3285963D1*
X24503241Y3304540D1*
X24491589Y3327092D1*
X24482714Y3350875D1*
X24476744Y3375548D1*
X24473764Y3400757D1*
X24473818Y3426142D1*
X24476904Y3451338D1*
X24477617Y3454914D1*
X22924988Y3454910D1*
X22928762Y3424795D1*
X22928710Y3400308D1*
X22925678Y3375105D1*
X22919655Y3350445D1*
X22910730Y3326681D1*
X22899029Y3304154D1*
X22886850Y3286023D1*
X22897837Y3269817D1*
X22912946Y3240164D1*
X22923230Y3208512D1*
X22928437Y3175641D1*
Y3142360D1*
X22923230Y3109489D1*
X22912946Y3077837D1*
X22897837Y3048184D1*
X22886773Y3032038D1*
X22897837Y3015817D1*
X22912946Y2986164D1*
X22923230Y2954512D1*
X22928437Y2921641D1*
Y2888360D1*
X22923230Y2855489D1*
X22912946Y2823837D1*
X22897837Y2794184D1*
X22886773Y2778038D1*
X22897837Y2761817D1*
X22912946Y2732164D1*
X22923230Y2700512D1*
X22928437Y2667641D1*
Y2634360D1*
X22926655Y2619308D1*
X24475777Y2619251D1*
X6672995Y3406651D2*
X6670718Y3381369D1*
X6665437Y3356540D1*
X6657227Y3332519D1*
X6646206Y3309652D1*
X6630850Y3286023D1*
X6641837Y3269817D1*
X6656946Y3240164D1*
X6667230Y3208512D1*
X6672437Y3175641D1*
Y3142360D1*
X6667230Y3109489D1*
X6656946Y3077837D1*
X6641837Y3048184D1*
X6630773Y3032038D1*
X6641837Y3015817D1*
X6656946Y2986164D1*
X6667230Y2954512D1*
X6672437Y2921641D1*
Y2888360D1*
X6667230Y2855489D1*
X6656946Y2823837D1*
X6641837Y2794184D1*
X6630773Y2778038D1*
X6641837Y2761817D1*
X6656946Y2732164D1*
X6667230Y2700512D1*
X6672437Y2667641D1*
Y2634360D1*
X6670655Y2619308D1*
X8219777Y2619251D1*
X8217411Y2651001D1*
X8220022Y2684179D1*
X8227791Y2716540D1*
X8240527Y2747287D1*
X8257916Y2775664D1*
X8259728Y2777963D1*
X8248664Y2794184D1*
X8233555Y2823837D1*
X8223271Y2855489D1*
X8218064Y2888360D1*
Y2921641D1*
X8223271Y2954512D1*
X8233555Y2986164D1*
X8248664Y3015817D1*
X8259728Y3031963D1*
X8248664Y3048184D1*
X8233555Y3077837D1*
X8223271Y3109489D1*
X8218064Y3142360D1*
Y3175641D1*
X8223271Y3208512D1*
X8233555Y3240164D1*
X8248664Y3269817D1*
X8259728Y3285963D1*
X8247241Y3304540D1*
X8235589Y3327092D1*
X8226714Y3350875D1*
X8220744Y3375548D1*
X8217764Y3400757D1*
X8217818Y3426142D1*
X8220904Y3451338D1*
X8221617Y3454914D1*
X6668988Y3454910D1*
X6672762Y3424795D1*
X6672995Y3406651D1*
X5997346Y2619308D2*
X5994911Y2651001D1*
X5997522Y2684179D1*
X6005291Y2716540D1*
X6018027Y2747287D1*
X6035416Y2775664D1*
X6037228Y2777963D1*
X6026164Y2794184D1*
X6011055Y2823837D1*
X6000771Y2855489D1*
X5995564Y2888360D1*
Y2921641D1*
X6000771Y2954512D1*
X6011055Y2986164D1*
X6026164Y3015817D1*
X6037228Y3031963D1*
X6026164Y3048184D1*
X6011055Y3077837D1*
X6000771Y3109489D1*
X5995564Y3142360D1*
Y3175641D1*
X6000771Y3208512D1*
X6011055Y3240164D1*
X6026164Y3269817D1*
X6037228Y3285963D1*
X6024741Y3304540D1*
X6013089Y3327092D1*
X6004214Y3350875D1*
X5998244Y3375548D1*
X5995264Y3400757D1*
X5995318Y3426142D1*
X5998404Y3451338D1*
X5999117Y3454914D1*
X4446488Y3454911D1*
X4450262Y3424795D1*
X4450210Y3400308D1*
X4447178Y3375105D1*
X4441155Y3350445D1*
X4432230Y3326681D1*
X4420529Y3304154D1*
X4408350Y3286023D1*
X4419337Y3269817D1*
X4434446Y3240164D1*
X4444730Y3208512D1*
X4449937Y3175641D1*
Y3142360D1*
X4444730Y3109489D1*
X4434446Y3077837D1*
X4419337Y3048184D1*
X4408273Y3032038D1*
X4419337Y3015817D1*
X4434446Y2986164D1*
X4444730Y2954512D1*
X4449937Y2921641D1*
Y2888360D1*
X4444730Y2855489D1*
X4434446Y2823837D1*
X4419337Y2794184D1*
X4408273Y2778038D1*
X4419337Y2761817D1*
X4434446Y2732164D1*
X4444730Y2700512D1*
X4449937Y2667641D1*
Y2634360D1*
X4448155Y2619308D1*
X5997277Y2619251D1*
X15562995Y3406651D2*
X15560718Y3381369D1*
X15555437Y3356540D1*
X15547227Y3332519D1*
X15536206Y3309652D1*
X15520850Y3286023D1*
X15531837Y3269817D1*
X15546946Y3240164D1*
X15557230Y3208512D1*
X15562437Y3175641D1*
Y3142360D1*
X15557230Y3109489D1*
X15546946Y3077837D1*
X15531837Y3048184D1*
X15520773Y3032038D1*
X15531837Y3015817D1*
X15546946Y2986164D1*
X15557230Y2954512D1*
X15562437Y2921641D1*
Y2888360D1*
X15557230Y2855489D1*
X15546946Y2823837D1*
X15531837Y2794184D1*
X15520773Y2778038D1*
X15531837Y2761817D1*
X15546946Y2732164D1*
X15557230Y2700512D1*
X15562437Y2667641D1*
Y2634360D1*
X15560655Y2619308D1*
X17109777Y2619251D1*
X17107411Y2651001D1*
X17110022Y2684179D1*
X17117791Y2716540D1*
X17130527Y2747287D1*
X17147916Y2775664D1*
X17149728Y2777963D1*
X17138664Y2794184D1*
X17123555Y2823837D1*
X17113271Y2855489D1*
X17108064Y2888360D1*
Y2921641D1*
X17113271Y2954512D1*
X17123555Y2986164D1*
X17138664Y3015817D1*
X17149728Y3031963D1*
X17138664Y3048184D1*
X17123555Y3077837D1*
X17113271Y3109489D1*
X17108064Y3142360D1*
Y3175641D1*
X17113271Y3208512D1*
X17123555Y3240164D1*
X17138664Y3269817D1*
X17149728Y3285963D1*
X17137241Y3304540D1*
X17125589Y3327092D1*
X17116714Y3350875D1*
X17110744Y3375548D1*
X17107764Y3400757D1*
X17107818Y3426142D1*
X17110904Y3451338D1*
X17111617Y3454914D1*
X15558988Y3454910D1*
X15562762Y3424795D1*
X15562995Y3406651D1*
X14887346Y2619308D2*
X14884911Y2651001D1*
X14887522Y2684179D1*
X14895291Y2716540D1*
X14908027Y2747287D1*
X14925416Y2775664D1*
X14927228Y2777963D1*
X14916164Y2794184D1*
X14901055Y2823837D1*
X14890771Y2855489D1*
X14885564Y2888360D1*
Y2921641D1*
X14890771Y2954512D1*
X14901055Y2986164D1*
X14916164Y3015817D1*
X14927228Y3031963D1*
X14916164Y3048184D1*
X14901055Y3077837D1*
X14890771Y3109489D1*
X14885564Y3142360D1*
Y3175641D1*
X14890771Y3208512D1*
X14901055Y3240164D1*
X14916164Y3269817D1*
X14927228Y3285963D1*
X14914741Y3304540D1*
X14903089Y3327092D1*
X14894214Y3350875D1*
X14888244Y3375548D1*
X14885264Y3400757D1*
X14885318Y3426142D1*
X14888404Y3451338D1*
X14889117Y3454914D1*
X13336488Y3454910D1*
X13340262Y3424795D1*
X13340210Y3400308D1*
X13337178Y3375105D1*
X13331155Y3350445D1*
X13322230Y3326681D1*
X13310529Y3304154D1*
X13298350Y3286023D1*
X13309337Y3269817D1*
X13324446Y3240164D1*
X13334730Y3208512D1*
X13339937Y3175641D1*
Y3142360D1*
X13334730Y3109489D1*
X13324446Y3077837D1*
X13309337Y3048184D1*
X13298273Y3032038D1*
X13309337Y3015817D1*
X13324446Y2986164D1*
X13334730Y2954512D1*
X13339937Y2921641D1*
Y2888360D1*
X13334730Y2855489D1*
X13324446Y2823837D1*
X13309337Y2794184D1*
X13298273Y2778038D1*
X13309337Y2761817D1*
X13324446Y2732164D1*
X13334730Y2700512D1*
X13339937Y2667641D1*
Y2634360D1*
X13338155Y2619308D1*
X14887277Y2619251D1*
X34041495Y3406651D2*
X34039218Y3381369D1*
X34033937Y3356540D1*
X34025727Y3332519D1*
X34014706Y3309652D1*
X33999350Y3286023D1*
X34010337Y3269817D1*
X34025446Y3240164D1*
X34035730Y3208512D1*
X34040937Y3175641D1*
Y3142360D1*
X34035730Y3109489D1*
X34025446Y3077837D1*
X34010337Y3048184D1*
X33999273Y3032038D1*
X34010337Y3015817D1*
X34025446Y2986164D1*
X34035730Y2954512D1*
X34040937Y2921641D1*
Y2888360D1*
X34035730Y2855489D1*
X34025446Y2823837D1*
X34010337Y2794184D1*
X33999273Y2778038D1*
X34010337Y2761817D1*
X34025446Y2732164D1*
X34035730Y2700512D1*
X34040937Y2667641D1*
Y2634360D1*
X34039155Y2619308D1*
X35588277Y2619251D1*
X35585911Y2651001D1*
X35588522Y2684179D1*
X35596291Y2716540D1*
X35609027Y2747287D1*
X35626416Y2775664D1*
X35628228Y2777963D1*
X35617164Y2794184D1*
X35602055Y2823837D1*
X35591771Y2855489D1*
X35586564Y2888360D1*
Y2921641D1*
X35591771Y2954512D1*
X35602055Y2986164D1*
X35617164Y3015817D1*
X35628228Y3031963D1*
X35617164Y3048184D1*
X35602055Y3077837D1*
X35591771Y3109489D1*
X35586564Y3142360D1*
Y3175641D1*
X35591771Y3208512D1*
X35602055Y3240164D1*
X35617164Y3269817D1*
X35628228Y3285963D1*
X35615741Y3304540D1*
X35604089Y3327092D1*
X35595214Y3350875D1*
X35589244Y3375548D1*
X35586264Y3400757D1*
X35586318Y3426142D1*
X35589404Y3451338D1*
X35590117Y3454914D1*
X34037488Y3454910D1*
X34041262Y3424795D1*
X34041495Y3406651D1*
X33365846Y2619308D2*
X33363411Y2651001D1*
X33366022Y2684179D1*
X33373791Y2716540D1*
X33386527Y2747287D1*
X33403916Y2775664D1*
X33405728Y2777963D1*
X33394664Y2794184D1*
X33379555Y2823837D1*
X33369271Y2855489D1*
X33364064Y2888360D1*
Y2921641D1*
X33369271Y2954512D1*
X33379555Y2986164D1*
X33394664Y3015817D1*
X33405728Y3031963D1*
X33394664Y3048184D1*
X33379555Y3077837D1*
X33369271Y3109489D1*
X33364064Y3142360D1*
Y3175641D1*
X33369271Y3208512D1*
X33379555Y3240164D1*
X33394664Y3269817D1*
X33405728Y3285963D1*
X33393241Y3304540D1*
X33381589Y3327092D1*
X33372714Y3350875D1*
X33366744Y3375548D1*
X33363764Y3400757D1*
X33363818Y3426142D1*
X33366904Y3451338D1*
X33367617Y3454914D1*
X31814988Y3454910D1*
X31818762Y3424795D1*
X31818710Y3400308D1*
X31815678Y3375105D1*
X31809655Y3350445D1*
X31800730Y3326681D1*
X31789029Y3304154D1*
X31776850Y3286023D1*
X31787837Y3269817D1*
X31802946Y3240164D1*
X31813230Y3208512D1*
X31818437Y3175641D1*
Y3142360D1*
X31813230Y3109489D1*
X31802946Y3077837D1*
X31787837Y3048184D1*
X31776773Y3032038D1*
X31787837Y3015817D1*
X31802946Y2986164D1*
X31813230Y2954512D1*
X31818437Y2921641D1*
Y2888360D1*
X31813230Y2855489D1*
X31802946Y2823837D1*
X31787837Y2794184D1*
X31776773Y2778038D1*
X31787837Y2761817D1*
X31802946Y2732164D1*
X31813230Y2700512D1*
X31818437Y2667641D1*
Y2634360D1*
X31816655Y2619308D1*
X33365777Y2619251D1*
X31143346Y2619308D2*
X31140911Y2651001D1*
X31143522Y2684179D1*
X31151291Y2716540D1*
X31164027Y2747287D1*
X31181416Y2775664D1*
X31183228Y2777963D1*
X31172164Y2794184D1*
X31157055Y2823837D1*
X31146771Y2855489D1*
X31141564Y2888360D1*
Y2921641D1*
X31146771Y2954512D1*
X31157055Y2986164D1*
X31172164Y3015817D1*
X31183228Y3031963D1*
X31172164Y3048184D1*
X31157055Y3077837D1*
X31146771Y3109489D1*
X31141564Y3142360D1*
Y3175641D1*
X31146771Y3208512D1*
X31157055Y3240164D1*
X31172164Y3269817D1*
X31183228Y3285963D1*
X31170741Y3304540D1*
X31159089Y3327092D1*
X31150214Y3350875D1*
X31144244Y3375548D1*
X31141264Y3400757D1*
X31141318Y3426142D1*
X31144404Y3451338D1*
X31145117Y3454914D1*
X29592488Y3454910D1*
X29596262Y3424795D1*
X29596210Y3400308D1*
X29593178Y3375105D1*
X29587155Y3350445D1*
X29578230Y3326681D1*
X29566529Y3304154D1*
X29554350Y3286023D1*
X29565337Y3269817D1*
X29580446Y3240164D1*
X29590730Y3208512D1*
X29595937Y3175641D1*
Y3142360D1*
X29590730Y3109489D1*
X29580446Y3077837D1*
X29565337Y3048184D1*
X29554273Y3032038D1*
X29565337Y3015817D1*
X29580446Y2986164D1*
X29590730Y2954512D1*
X29595937Y2921641D1*
Y2888360D1*
X29590730Y2855489D1*
X29580446Y2823837D1*
X29565337Y2794184D1*
X29554273Y2778038D1*
X29565337Y2761817D1*
X29580446Y2732164D1*
X29590730Y2700512D1*
X29595937Y2667641D1*
Y2634360D1*
X29594155Y2619308D1*
X31143277Y2619251D1*
X28920846Y2619308D2*
X28918411Y2651001D1*
X28921022Y2684179D1*
X28928791Y2716540D1*
X28941527Y2747287D1*
X28958916Y2775664D1*
X28960728Y2777963D1*
X28949664Y2794184D1*
X28934555Y2823837D1*
X28924271Y2855489D1*
X28919064Y2888360D1*
Y2921641D1*
X28924271Y2954512D1*
X28934555Y2986164D1*
X28949664Y3015817D1*
X28960728Y3031963D1*
X28949664Y3048184D1*
X28934555Y3077837D1*
X28924271Y3109489D1*
X28919064Y3142360D1*
Y3175641D1*
X28924271Y3208512D1*
X28934555Y3240164D1*
X28949664Y3269817D1*
X28960728Y3285963D1*
X28948241Y3304540D1*
X28936589Y3327092D1*
X28927714Y3350875D1*
X28921744Y3375548D1*
X28918764Y3400757D1*
X28918818Y3426142D1*
X28921904Y3451338D1*
X28922617Y3454914D1*
X27369988Y3454910D1*
X27373762Y3424795D1*
X27373710Y3400308D1*
X27370678Y3375105D1*
X27364655Y3350445D1*
X27355730Y3326681D1*
X27344029Y3304154D1*
X27331850Y3286023D1*
X27342837Y3269817D1*
X27357946Y3240164D1*
X27368230Y3208512D1*
X27373437Y3175641D1*
Y3142360D1*
X27368230Y3109489D1*
X27357946Y3077837D1*
X27342837Y3048184D1*
X27331773Y3032038D1*
X27342837Y3015817D1*
X27357946Y2986164D1*
X27368230Y2954512D1*
X27373437Y2921641D1*
Y2888360D1*
X27368230Y2855489D1*
X27357946Y2823837D1*
X27342837Y2794184D1*
X27331773Y2778038D1*
X27342837Y2761817D1*
X27357946Y2732164D1*
X27368230Y2700512D1*
X27373437Y2667641D1*
Y2634360D1*
X27371655Y2619308D1*
X28920777Y2619251D1*
X19063622Y3291750D2*
X19113199Y3282452D1*
X19131162Y3276155D1*
X19156976Y3262326D1*
X19179689Y3274767D1*
X19197497Y3281488D1*
X19225253Y3287325D1*
X19268768Y3294435D1*
X19317991Y3294891D1*
X19543316Y3294564D1*
X19576131Y3289556D1*
X19613199Y3282452D1*
X19631162Y3276155D1*
X19656180Y3262784D1*
X19694085Y3240259D1*
X19708810Y3228198D1*
X19727746Y3207076D1*
X19755660Y3172946D1*
X19765371Y3156575D1*
X19775940Y3130251D1*
X19790497Y3088632D1*
X19794023Y3069927D1*
X19794952Y3041587D1*
X19794399Y2997498D1*
X19791317Y2978715D1*
X19782492Y2951752D1*
X19766891Y2910511D1*
X19757570Y2893915D1*
X19740064Y2871608D1*
X19711301Y2838189D1*
X19696867Y2825782D1*
X19672773Y2810798D1*
X19634312Y2789234D1*
X19616504Y2782512D1*
X19588748Y2776676D1*
X19545233Y2769566D1*
X19496011Y2769111D1*
X19267429Y2769704D1*
X19213190Y2778774D1*
X19194719Y2783367D1*
X19177070Y2790497D1*
X19157026Y2801676D1*
X19134312Y2789234D1*
X19116504Y2782513D1*
X19088748Y2776676D1*
X19045233Y2769566D1*
X18996011Y2769110D1*
X18767429Y2769703D1*
X18713190Y2778774D1*
X18694719Y2783367D1*
X18677070Y2790497D1*
X18625182Y2820195D1*
X18609910Y2831555D1*
X18594427Y2847203D1*
X18557480Y2892315D1*
X18547953Y2908793D1*
X18535884Y2939715D1*
X18523505Y2975369D1*
X18519978Y2994074D1*
X18519049Y3022414D1*
X18519602Y3066503D1*
X18522684Y3085286D1*
X18531509Y3112249D1*
X18547110Y3153490D1*
X18556432Y3170086D1*
X18573937Y3192393D1*
X18602700Y3225812D1*
X18617135Y3238219D1*
X18641228Y3253203D1*
X18679689Y3274767D1*
X18697497Y3281488D1*
X18725253Y3287325D1*
X18768768Y3294435D1*
X18817991Y3294891D1*
X19043316Y3294563D1*
X19063622Y3291750D1*
X12664846Y2619308D2*
X12662411Y2651001D1*
X12665022Y2684179D1*
X12672791Y2716540D1*
X12685527Y2747287D1*
X12702916Y2775664D1*
X12704728Y2777963D1*
X12693664Y2794184D1*
X12678555Y2823837D1*
X12668271Y2855489D1*
X12663064Y2888360D1*
Y2921641D1*
X12668271Y2954512D1*
X12678555Y2986164D1*
X12693664Y3015817D1*
X12704728Y3031963D1*
X12693664Y3048184D1*
X12678555Y3077837D1*
X12668271Y3109489D1*
X12663064Y3142360D1*
Y3175641D1*
X12668271Y3208512D1*
X12678555Y3240164D1*
X12693664Y3269817D1*
X12704728Y3285963D1*
X12692241Y3304540D1*
X12680589Y3327092D1*
X12671714Y3350875D1*
X12665744Y3375548D1*
X12662764Y3400757D1*
X12662818Y3426142D1*
X12665904Y3451338D1*
X12666617Y3454914D1*
X11113988Y3454910D1*
X11117762Y3424795D1*
X11117710Y3400308D1*
X11114678Y3375105D1*
X11108655Y3350445D1*
X11099730Y3326681D1*
X11088029Y3304154D1*
X11075850Y3286023D1*
X11086837Y3269817D1*
X11101946Y3240164D1*
X11112230Y3208512D1*
X11117437Y3175641D1*
Y3142360D1*
X11112230Y3109489D1*
X11101946Y3077837D1*
X11086837Y3048184D1*
X11075773Y3032038D1*
X11086837Y3015817D1*
X11101946Y2986164D1*
X11112230Y2954512D1*
X11117437Y2921641D1*
Y2888360D1*
X11112230Y2855489D1*
X11101946Y2823837D1*
X11086837Y2794184D1*
X11075773Y2778038D1*
X11086837Y2761817D1*
X11101946Y2732164D1*
X11112230Y2700512D1*
X11117437Y2667641D1*
Y2634360D1*
X11115655Y2619308D1*
X12664777Y2619251D1*
X10442346Y2619308D2*
X10439911Y2651001D1*
X10442522Y2684179D1*
X10450291Y2716540D1*
X10463027Y2747287D1*
X10480416Y2775664D1*
X10482228Y2777963D1*
X10471164Y2794184D1*
X10456055Y2823837D1*
X10445771Y2855489D1*
X10440564Y2888360D1*
Y2921641D1*
X10445771Y2954512D1*
X10456055Y2986164D1*
X10471164Y3015817D1*
X10482228Y3031963D1*
X10471164Y3048184D1*
X10456055Y3077837D1*
X10445771Y3109489D1*
X10440564Y3142360D1*
Y3175641D1*
X10445771Y3208512D1*
X10456055Y3240164D1*
X10471164Y3269817D1*
X10482228Y3285963D1*
X10469741Y3304540D1*
X10458089Y3327092D1*
X10449214Y3350875D1*
X10443244Y3375548D1*
X10440264Y3400757D1*
X10440318Y3426142D1*
X10443404Y3451338D1*
X10444117Y3454914D1*
X8891488Y3454910D1*
X8895262Y3424795D1*
X8895210Y3400308D1*
X8892178Y3375105D1*
X8886155Y3350445D1*
X8877230Y3326681D1*
X8865529Y3304154D1*
X8853350Y3286023D1*
X8864337Y3269817D1*
X8879446Y3240164D1*
X8889730Y3208512D1*
X8894937Y3175641D1*
Y3142360D1*
X8889730Y3109489D1*
X8879446Y3077837D1*
X8864337Y3048184D1*
X8853273Y3032038D1*
X8864337Y3015817D1*
X8879446Y2986164D1*
X8889730Y2954512D1*
X8894937Y2921641D1*
Y2888360D1*
X8889730Y2855489D1*
X8879446Y2823837D1*
X8864337Y2794184D1*
X8853273Y2778038D1*
X8864337Y2761817D1*
X8879446Y2732164D1*
X8889730Y2700512D1*
X8894937Y2667641D1*
Y2634360D1*
X8893155Y2619308D1*
X10442277Y2619251D1*
X20905122Y3291750D2*
X20954699Y3282452D1*
X20972662Y3276155D1*
X20998476Y3262326D1*
X21021189Y3274767D1*
X21038997Y3281488D1*
X21066753Y3287325D1*
X21110268Y3294435D1*
X21159491Y3294891D1*
X21384816Y3294564D1*
X21417631Y3289556D1*
X21454699Y3282453D1*
X21472662Y3276155D1*
X21497680Y3262784D1*
X21535585Y3240259D1*
X21550310Y3228198D1*
X21569246Y3207076D1*
X21597160Y3172946D1*
X21606871Y3156575D1*
X21617440Y3130251D1*
X21631997Y3088632D1*
X21635524Y3069927D1*
X21636452Y3041587D1*
X21635899Y2997498D1*
X21632817Y2978715D1*
X21623992Y2951752D1*
X21608391Y2910511D1*
X21599069Y2893916D1*
X21581866Y2871969D1*
X21551706Y2837118D1*
X21537133Y2824874D1*
X21508776Y2807619D1*
X21475812Y2789234D1*
X21458004Y2782513D1*
X21430248Y2776676D1*
X21386733Y2769566D1*
X21337511Y2769110D1*
X21108929Y2769703D1*
X21054690Y2778774D1*
X21036219Y2783367D1*
X21018570Y2790497D1*
X20998525Y2801676D1*
X20975812Y2789234D1*
X20958004Y2782513D1*
X20930248Y2776676D1*
X20886733Y2769566D1*
X20837511Y2769110D1*
X20608929Y2769704D1*
X20554690Y2778774D1*
X20536219Y2783367D1*
X20518570Y2790497D1*
X20466682Y2820195D1*
X20451410Y2831555D1*
X20435927Y2847203D1*
X20398981Y2892314D1*
X20389453Y2908793D1*
X20377384Y2939715D1*
X20365004Y2975369D1*
X20361478Y2994074D1*
X20360549Y3022414D1*
X20361102Y3066503D1*
X20364184Y3085286D1*
X20373009Y3112249D1*
X20388610Y3153490D1*
X20397932Y3170086D1*
X20415437Y3192393D1*
X20444200Y3225812D1*
X20458634Y3238219D1*
X20482728Y3253203D1*
X20521189Y3274767D1*
X20538997Y3281488D1*
X20566753Y3287325D1*
X20610268Y3294435D1*
X20659491Y3294891D1*
X20884816Y3294564D1*
X20905122Y3291750D1*
X3774846Y2619308D2*
X3772411Y2651001D1*
X3775022Y2684179D1*
X3782791Y2716540D1*
X3795527Y2747287D1*
X3812916Y2775664D1*
X3814728Y2777963D1*
X3803664Y2794184D1*
X3788555Y2823837D1*
X3778271Y2855489D1*
X3773064Y2888360D1*
Y2921641D1*
X3778271Y2954512D1*
X3788555Y2986164D1*
X3803664Y3015817D1*
X3814728Y3031963D1*
X3803664Y3048184D1*
X3788555Y3077837D1*
X3778271Y3109489D1*
X3773064Y3142360D1*
Y3175641D1*
X3778271Y3208512D1*
X3788555Y3240164D1*
X3803664Y3269817D1*
X3814728Y3285963D1*
X3802241Y3304540D1*
X3790589Y3327092D1*
X3781714Y3350875D1*
X3775744Y3375548D1*
X3772764Y3400757D1*
X3772818Y3426142D1*
X3775904Y3451338D1*
X3776753Y3455595D1*
X3744489Y3460770D1*
X3712837Y3471055D1*
X3683184Y3486164D1*
X3657112Y3504634D1*
X3647339Y3508239D1*
X1788914Y3508251D1*
X1804732Y3488473D1*
X1817308Y3469652D1*
X1828369Y3449901D1*
X1837846Y3429344D1*
X1845681Y3408107D1*
X1851825Y3386321D1*
X1856241Y3364119D1*
X1858902Y3341640D1*
X1859791Y3319021D1*
X1858902Y3296402D1*
X1856241Y3273922D1*
X1851825Y3251721D1*
X1845681Y3229934D1*
X1837846Y3208697D1*
X1828369Y3188140D1*
X1817308Y3168389D1*
X1804732Y3149568D1*
X1780814Y3121077D1*
X1804732Y3092233D1*
X1817308Y3073412D1*
X1828369Y3053662D1*
X1837846Y3033104D1*
X1845681Y3011867D1*
X1851825Y2990081D1*
X1856242Y2967879D1*
X1858902Y2945400D1*
X1859791Y2891031D1*
Y2619295D1*
X3774777Y2619251D1*
X36263995Y3406651D2*
X36261718Y3381369D1*
X36256437Y3356540D1*
X36248227Y3332519D1*
X36237206Y3309652D1*
X36221850Y3286023D1*
X36232837Y3269817D1*
X36247946Y3240164D1*
X36258230Y3208512D1*
X36263437Y3175641D1*
Y3142360D1*
X36258230Y3109489D1*
X36247946Y3077837D1*
X36232837Y3048184D1*
X36221773Y3032038D1*
X36232837Y3015817D1*
X36247946Y2986164D1*
X36258230Y2954512D1*
X36263437Y2921641D1*
Y2888360D1*
X36258230Y2855489D1*
X36247946Y2823837D1*
X36232837Y2794184D1*
X36221773Y2778038D1*
X36232837Y2761817D1*
X36247946Y2732164D1*
X36258230Y2700512D1*
X36263437Y2667641D1*
Y2634360D1*
X36261655Y2619308D1*
X38081460Y2619251D1*
Y2922781D1*
X38082349Y2945400D1*
X38085010Y2967879D1*
X38089426Y2990081D1*
X38095570Y3011867D1*
X38103405Y3033104D1*
X38112882Y3053662D1*
X38123943Y3073412D1*
X38136519Y3092233D1*
X38150593Y3110075D1*
X38150533Y3131791D1*
X38136519Y3149568D1*
X38123943Y3168389D1*
X38112882Y3188140D1*
X38103405Y3208697D1*
X38095570Y3229934D1*
X38089426Y3251721D1*
X38085010Y3273922D1*
X38082349Y3296402D1*
X38081461Y3319021D1*
X38082349Y3341640D1*
X38085010Y3364119D1*
X38089426Y3386321D1*
X38095570Y3408107D1*
X38103405Y3429344D1*
X38112882Y3449901D1*
X38123943Y3469652D1*
X38136519Y3488473D1*
X38152394Y3508263D1*
X37843767Y3508251D1*
X37827664Y3495416D1*
X37799288Y3478027D1*
X37768540Y3465291D1*
X37736179Y3457521D1*
X37703001Y3454910D1*
X36259988D1*
X36263762Y3424795D1*
X36263995Y3406651D1*
X18561301Y3476401D2*
X18559163Y3451105D1*
X18554200Y3426208D1*
X18546474Y3402026D1*
X18536084Y3378863D1*
X18523160Y3357012D1*
X18507866Y3336749D1*
X18490395Y3318331D1*
X18470968Y3301989D1*
X18449830Y3287930D1*
X18427247Y3276331D1*
X18403506Y3267340D1*
X18378906Y3261070D1*
X18353758Y3257600D1*
X18328379Y3256973D1*
X18303090Y3259198D1*
X18278210Y3264246D1*
X18254054Y3272055D1*
X18230927Y3282524D1*
X18209121Y3295522D1*
X18188910Y3310885D1*
X18170552Y3328419D1*
X18154276Y3347902D1*
X18140290Y3369089D1*
X18128769Y3391711D1*
X18119859Y3415482D1*
X18113673Y3440104D1*
X18110288Y3465264D1*
X18109749Y3490645D1*
X18111067Y3508226D1*
X17904767Y3508251D1*
X17888664Y3495416D1*
X17860287Y3478027D1*
X17829540Y3465291D1*
X17797114Y3457514D1*
X17782336Y3450011D1*
X17785262Y3424795D1*
X17785210Y3400308D1*
X17782178Y3375105D1*
X17776155Y3350445D1*
X17767230Y3326681D1*
X17755529Y3304154D1*
X17743350Y3286023D1*
X17754337Y3269817D1*
X17769446Y3240164D1*
X17779730Y3208512D1*
X17784937Y3175641D1*
Y3142360D1*
X17779730Y3109489D1*
X17769446Y3077837D1*
X17754337Y3048184D1*
X17743273Y3032038D1*
X17754337Y3015817D1*
X17769446Y2986164D1*
X17779730Y2954512D1*
X17784937Y2921641D1*
Y2888360D1*
X17779730Y2855489D1*
X17769446Y2823837D1*
X17754337Y2794184D1*
X17743273Y2778038D1*
X17754337Y2761817D1*
X17769446Y2732164D1*
X17779730Y2700512D1*
X17784937Y2667641D1*
Y2634360D1*
X17783155Y2619308D1*
X22253277Y2619251D1*
X22250911Y2651001D1*
X22253522Y2684179D1*
X22261291Y2716540D1*
X22274027Y2747287D1*
X22291416Y2775664D1*
X22293228Y2777963D1*
X22282164Y2794184D1*
X22267055Y2823837D1*
X22256771Y2855489D1*
X22251564Y2888360D1*
Y2921641D1*
X22256771Y2954512D1*
X22267055Y2986164D1*
X22282164Y3015817D1*
X22293228Y3031963D1*
X22282164Y3048184D1*
X22267055Y3077837D1*
X22256771Y3109489D1*
X22251564Y3142360D1*
Y3175641D1*
X22256771Y3208512D1*
X22267055Y3240164D1*
X22282164Y3269817D1*
X22293228Y3285963D1*
X22280741Y3304540D1*
X22269089Y3327092D1*
X22260214Y3350875D1*
X22254244Y3375548D1*
X22251264Y3400757D1*
X22251318Y3426142D1*
X22253832Y3447938D1*
X22234787Y3453212D1*
X22202198Y3466711D1*
X22172122Y3485141D1*
X22145037Y3508313D1*
X18559859Y3508251D1*
X18561391Y3482751D1*
X18561301Y3476401D1*
X18907001Y3294975D2*
D14*
Y2769025D1*
X19407001Y3294975D2*
Y2769026D1*
X20748501Y3294975D2*
Y2769026D1*
X21248501Y3294976D2*
Y2769026D1*
X18335501Y3482751D2*
Y3256985D1*
X23209956Y4080084D2*
D22*
X24192545D1*
X25432456D2*
X26415045D1*
X27654956D2*
X28637545D1*
X29877456D2*
X30860045D1*
X32099956D2*
X33082545D1*
X34322456D2*
X35305045D1*
X36270493D2*
X38050055D1*
X23146829Y4016917D2*
X24255673D1*
X25369329D2*
X26478173D1*
X27591829D2*
X28700673D1*
X29814329D2*
X30923173D1*
X32036829D2*
X33145673D1*
X34259329D2*
X35368173D1*
X36270493D2*
X37978990D1*
X23083577Y3953751D2*
X24318924D1*
X25306077D2*
X26541424D1*
X27528577D2*
X28763924D1*
X29751077D2*
X30986424D1*
X31973577D2*
X33208924D1*
X34196077D2*
X35431424D1*
X36267888D2*
X37907924D1*
X23020449Y3890584D2*
X24382052D1*
X25242949D2*
X26604552D1*
X27465449D2*
X28827052D1*
X29687949D2*
X31049552D1*
X31910449D2*
X33272052D1*
X34132949D2*
X35494552D1*
X36268260D2*
X37836859D1*
X22183663Y3827417D2*
X22222630D1*
X22957321D2*
X24445180D1*
X25179821D2*
X26667680D1*
X27402321D2*
X28890180D1*
X29624821D2*
X31112680D1*
X31847321D2*
X33335180D1*
X34069821D2*
X35557680D1*
X36248665D2*
X37765794D1*
X22183663Y3764251D2*
X22268197D1*
X22911804D2*
X24490697D1*
X25134304D2*
X26713197D1*
X27356804D2*
X28935697D1*
X29579304D2*
X31158197D1*
X31801804D2*
X33380697D1*
X34024304D2*
X35603197D1*
X36246804D2*
X37694728D1*
X22183663Y3701084D2*
X22247361D1*
X22932640D2*
X24469861D1*
X25155140D2*
X26692361D1*
X27377640D2*
X28914861D1*
X29600140D2*
X31137361D1*
X31822640D2*
X33359861D1*
X34045140D2*
X35582361D1*
X36267640D2*
X37623663D1*
X25121132Y3776398D2*
X25135446Y3748164D1*
X25145730Y3716512D1*
X25149155Y3698693D1*
X26698277Y3698751D1*
X26706291Y3732540D1*
X26719027Y3763287D1*
X26726369Y3776398D1*
X26690040Y3811441D1*
X26386167Y4115314D1*
X25461267Y4115310D1*
X25124201Y3779005D1*
X24475846Y3698693D2*
X24479271Y3716512D1*
X24489555Y3748164D1*
X24503869Y3776398D1*
X24467540Y3811441D1*
X24163667Y4115314D1*
X23238767Y4115310D1*
X22901701Y3779005D1*
X22905974Y3763287D1*
X22918710Y3732540D1*
X22926479Y3700179D1*
X22926655Y3698693D1*
X24475777Y3698751D1*
X34011132Y3776398D2*
X34025446Y3748164D1*
X34035730Y3716512D1*
X34039155Y3698693D1*
X35588277Y3698751D1*
X35596291Y3732540D1*
X35609027Y3763287D1*
X35616369Y3776398D1*
X35580040Y3811441D1*
X35276167Y4115314D1*
X34351267Y4115310D1*
X34014201Y3779005D1*
X33365846Y3698693D2*
X33369271Y3716512D1*
X33379555Y3748164D1*
X33393869Y3776398D1*
X33357540Y3811441D1*
X33053667Y4115314D1*
X32128767Y4115310D1*
X31791701Y3779005D1*
X31795974Y3763287D1*
X31808710Y3732540D1*
X31816479Y3700179D1*
X31816655Y3698693D1*
X33365777Y3698751D1*
X31143346Y3698693D2*
X31146771Y3716512D1*
X31157055Y3748164D1*
X31171369Y3776398D1*
X31135040Y3811441D1*
X30831167Y4115314D1*
X29906267Y4115310D1*
X29569201Y3779005D1*
X29573474Y3763287D1*
X29586210Y3732540D1*
X29593979Y3700179D1*
X29594155Y3698693D1*
X31143277Y3698751D1*
X28920846Y3698693D2*
X28924271Y3716512D1*
X28934555Y3748164D1*
X28948869Y3776398D1*
X28912540Y3811441D1*
X28608667Y4115314D1*
X27683767Y4115311D1*
X27346701Y3779005D1*
X27350974Y3763287D1*
X27363710Y3732540D1*
X27371479Y3700179D1*
X27371655Y3698693D1*
X28920777Y3698751D1*
X36263437Y3904360D2*
X36258230Y3871489D1*
X36247946Y3839837D1*
X36232837Y3810184D1*
X36221773Y3794038D1*
X36232837Y3777817D1*
X36247946Y3748164D1*
X36258230Y3716512D1*
X36261655Y3698693D1*
X37627470Y3698751D1*
X38081610Y4102467D1*
X38082349Y4134120D1*
X38083420Y4143164D1*
X36264205Y4143250D1*
X36264091Y3962910D1*
X36259998D1*
X36263437Y3937641D1*
Y3904360D1*
X22253346Y3698693D2*
X22256771Y3716512D1*
X22267055Y3748164D1*
X22281369Y3776398D1*
X22245040Y3811441D1*
X22177250Y3879232D1*
X22177251Y3698875D1*
X22253277Y3698751D1*
X1864407Y4143584D2*
X3768365D1*
X1907815Y4080417D2*
X3788333D1*
X4731829D2*
X5713673D1*
X6954329D2*
X7936173D1*
X9176829D2*
X10158673D1*
X11399329D2*
X12381173D1*
X13621829D2*
X14603673D1*
X15844329D2*
X16826173D1*
X1970943Y4017251D2*
X3789201D1*
X4668577D2*
X5776924D1*
X6891077D2*
X7999424D1*
X9113577D2*
X10221924D1*
X11336077D2*
X12444424D1*
X13558577D2*
X14666924D1*
X15781077D2*
X16889424D1*
X2034195Y3954084D2*
X3768613D1*
X4605449D2*
X5840052D1*
X6827949D2*
X8062552D1*
X9050449D2*
X10285052D1*
X11272949D2*
X12507552D1*
X13495449D2*
X14730052D1*
X15717949D2*
X16952552D1*
X2097323Y3890917D2*
X3768241D1*
X4542321D2*
X5903180D1*
X6764821D2*
X8125680D1*
X8987321D2*
X10348180D1*
X11209821D2*
X12570680D1*
X13432321D2*
X14793180D1*
X15654821D2*
X17015680D1*
X2160451Y3827751D2*
X3787713D1*
X4479069D2*
X5966432D1*
X6701569D2*
X8188932D1*
X8924069D2*
X10411432D1*
X11146569D2*
X12633932D1*
X13369069D2*
X14856432D1*
X15591569D2*
X17078932D1*
X2223703Y3764584D2*
X3789821D1*
X4433180D2*
X6012321D1*
X6655680D2*
X8234821D1*
X8878180D2*
X10457321D1*
X11100680D2*
X12679821D1*
X13323180D2*
X14902321D1*
X15545680D2*
X17124821D1*
X2286831Y3701417D2*
X3768861D1*
X4454140D2*
X5991361D1*
X6676640D2*
X8213861D1*
X8899140D2*
X10436361D1*
X11121640D2*
X12658861D1*
X13344140D2*
X14881361D1*
X15566640D2*
X17103861D1*
X6672995Y3660651D2*
X6672423Y3650474D1*
X8218041Y3650491D1*
X8217520Y3673799D1*
X8219850Y3699077D1*
X8225184Y3723895D1*
X8233445Y3747898D1*
X8244514Y3770742D1*
X8247847Y3776465D1*
X8211540Y3811441D1*
X7907667Y4115314D1*
X6982767Y4115310D1*
X6645701Y3779005D1*
X6643489Y3775075D1*
X6655094Y3752498D1*
X6663919Y3728696D1*
X6669836Y3704011D1*
X6672762Y3678795D1*
X6672995Y3660651D1*
X5995576Y3650477D2*
X5995020Y3673799D1*
X5997350Y3699077D1*
X6002684Y3723895D1*
X6010945Y3747898D1*
X6022014Y3770742D1*
X6025347Y3776465D1*
X5989040Y3811441D1*
X5685167Y4115314D1*
X4760267Y4115310D1*
X4423201Y3779005D1*
X4420989Y3775075D1*
X4432594Y3752498D1*
X4441419Y3728696D1*
X4447336Y3704011D1*
X4450262Y3678795D1*
X4449923Y3650474D1*
X5995541Y3650491D1*
X15562995Y3660651D2*
X15562423Y3650474D1*
X17108041Y3650491D1*
X17107520Y3673799D1*
X17109850Y3699077D1*
X17115184Y3723895D1*
X17123445Y3747898D1*
X17134514Y3770742D1*
X17137847Y3776465D1*
X17101540Y3811441D1*
X16797667Y4115314D1*
X15872767Y4115310D1*
X15535701Y3779005D1*
X15533489Y3775075D1*
X15545094Y3752498D1*
X15553919Y3728696D1*
X15559836Y3704011D1*
X15562762Y3678795D1*
X15562995Y3660651D1*
X14885576Y3650477D2*
X14885020Y3673799D1*
X14887350Y3699077D1*
X14892684Y3723895D1*
X14900945Y3747898D1*
X14912014Y3770742D1*
X14915347Y3776465D1*
X14879040Y3811441D1*
X14575167Y4115314D1*
X13650267Y4115310D1*
X13313201Y3779005D1*
X13310989Y3775075D1*
X13322594Y3752498D1*
X13331419Y3728696D1*
X13337336Y3704011D1*
X13340262Y3678795D1*
X13339923Y3650474D1*
X14885541Y3650491D1*
X12663076Y3650477D2*
X12662520Y3673799D1*
X12664850Y3699077D1*
X12670184Y3723895D1*
X12678445Y3747898D1*
X12689514Y3770742D1*
X12692847Y3776465D1*
X12656540Y3811441D1*
X12352667Y4115314D1*
X11427767Y4115310D1*
X11090701Y3779005D1*
X11088489Y3775075D1*
X11100094Y3752498D1*
X11108919Y3728696D1*
X11114836Y3704011D1*
X11117762Y3678795D1*
X11117423Y3650474D1*
X12663041Y3650491D1*
X10440576Y3650477D2*
X10440020Y3673799D1*
X10442350Y3699077D1*
X10447684Y3723895D1*
X10455945Y3747898D1*
X10467014Y3770742D1*
X10470347Y3776465D1*
X10434040Y3811441D1*
X10130167Y4115314D1*
X9205267Y4115311D1*
X8868201Y3779005D1*
X8865989Y3775075D1*
X8877594Y3752498D1*
X8886419Y3728696D1*
X8892336Y3704011D1*
X8895262Y3678795D1*
X8894923Y3650474D1*
X10440541Y3650491D1*
X3773076Y3650477D2*
X3772520Y3673799D1*
X3774850Y3699077D1*
X3780184Y3723895D1*
X3788445Y3747898D1*
X3799514Y3770742D1*
X3814652Y3793982D1*
X3803664Y3810184D1*
X3788555Y3839837D1*
X3778271Y3871489D1*
X3773064Y3904360D1*
Y3937641D1*
X3778271Y3970512D1*
X3788555Y4002164D1*
X3803664Y4031817D1*
X3814728Y4047963D1*
X3803664Y4064184D1*
X3788555Y4093837D1*
X3778271Y4125489D1*
X3773064Y4158360D1*
Y4191641D1*
X3774846Y4206693D1*
X1843484Y4206750D1*
X1851825Y4178801D1*
X1856241Y4156599D1*
X1859357Y4122545D1*
X2331416Y3650487D1*
X3773041Y3650491D1*
X6461001Y3667001D2*
D23*
X6672967D1*
X5995035D2*
X6207001D1*
X15351001D2*
X15562967D1*
X14885035D2*
X15097001D1*
X13128501D2*
X13340467D1*
X12662535D2*
X12874501D1*
X10906001D2*
X11117967D1*
X10440035D2*
X10652001D1*
X8683501D2*
X8895467D1*
X8217535D2*
X8429501D1*
X4238501D2*
X4450467D1*
X3772535D2*
X3984501D1*
X17107535D2*
X17319501D1*
D14*
X24939501Y3921001D3*
Y3667001D3*
Y3413001D3*
Y3159001D3*
Y2905001D3*
Y2651001D3*
Y2397001D3*
X24685501D3*
Y2651001D3*
Y2905001D3*
Y3159001D3*
Y3413001D3*
Y3667001D3*
Y3921001D3*
Y4175001D3*
D25*
X24939501D3*
D14*
X6461001Y3921001D3*
Y3667001D3*
Y3413001D3*
Y3159001D3*
Y2905001D3*
Y2651001D3*
Y2397001D3*
X6207001D3*
Y2651001D3*
Y2905001D3*
Y3159001D3*
Y3413001D3*
Y3667001D3*
Y3921001D3*
Y4175001D3*
D25*
X6461001D3*
D14*
X15351001Y3921001D3*
Y3667001D3*
Y3413001D3*
Y3159001D3*
Y2905001D3*
Y2651001D3*
Y2397001D3*
X15097001D3*
Y2651001D3*
Y2905001D3*
Y3159001D3*
Y3413001D3*
Y3667001D3*
Y3921001D3*
Y4175001D3*
D25*
X15351001D3*
D14*
X33829501Y3921001D3*
Y3667001D3*
Y3413001D3*
Y3159001D3*
Y2905001D3*
Y2651001D3*
Y2397001D3*
X33575501D3*
Y2651001D3*
Y2905001D3*
Y3159001D3*
Y3413001D3*
Y3667001D3*
Y3921001D3*
Y4175001D3*
D25*
X33829501D3*
D14*
X31607001Y3921001D3*
Y3667001D3*
Y3413001D3*
Y3159001D3*
Y2905001D3*
Y2651001D3*
Y2397001D3*
X31353001D3*
Y2651001D3*
Y2905001D3*
Y3159001D3*
Y3413001D3*
Y3667001D3*
Y3921001D3*
Y4175001D3*
D25*
X31607001D3*
D14*
X29384501Y3921001D3*
Y3667001D3*
Y3413001D3*
Y3159001D3*
Y2905001D3*
Y2651001D3*
Y2397001D3*
X29130501D3*
Y2651001D3*
Y2905001D3*
Y3159001D3*
Y3413001D3*
Y3667001D3*
Y3921001D3*
Y4175001D3*
D25*
X29384501D3*
D14*
X27162001Y3921001D3*
Y3667001D3*
Y3413001D3*
Y3159001D3*
Y2905001D3*
Y2651001D3*
Y2397001D3*
X26908001D3*
Y2651001D3*
Y2905001D3*
Y3159001D3*
Y3413001D3*
Y3667001D3*
Y3921001D3*
Y4175001D3*
D25*
X27162001D3*
D26*
X34210501Y5318001D3*
D27*
X33956501D3*
D26*
X35004251D3*
D27*
X34750251D3*
D26*
X35798001D3*
D27*
X35544001D3*
D65*
X18907001Y3794001D3*
X19407001D3*
X18907001Y3032001D3*
X19407001D3*
X18907001Y2270001D3*
X19407001D3*
X18907001Y1508001D3*
X19407001D3*
D14*
X13128501Y3921001D3*
Y3667001D3*
Y3413001D3*
Y3159001D3*
Y2905001D3*
Y2651001D3*
Y2397001D3*
X12874501D3*
Y2651001D3*
Y2905001D3*
Y3159001D3*
Y3413001D3*
Y3667001D3*
Y3921001D3*
Y4175001D3*
D25*
X13128501D3*
D14*
X10906001Y3921001D3*
Y3667001D3*
Y3413001D3*
Y3159001D3*
Y2905001D3*
Y2651001D3*
Y2397001D3*
X10652001D3*
Y2651001D3*
Y2905001D3*
Y3159001D3*
Y3413001D3*
Y3667001D3*
Y3921001D3*
Y4175001D3*
D25*
X10906001D3*
D14*
X8683501Y3921001D3*
Y3667001D3*
Y3413001D3*
Y3159001D3*
Y2905001D3*
Y2651001D3*
Y2397001D3*
X8429501D3*
Y2651001D3*
Y2905001D3*
Y3159001D3*
Y3413001D3*
Y3667001D3*
Y3921001D3*
Y4175001D3*
D25*
X8683501D3*
D65*
X20748501Y1508001D3*
X21248501D3*
X20748501Y2270001D3*
X21248501D3*
X20748501Y3032001D3*
X21248501D3*
X20748501Y3794001D3*
X21248501D3*
D14*
X4238501Y3921001D3*
Y3667001D3*
Y3413001D3*
Y3159001D3*
Y2905001D3*
Y2651001D3*
Y2397001D3*
X3984501D3*
Y2651001D3*
Y2905001D3*
Y3159001D3*
Y3413001D3*
Y3667001D3*
Y3921001D3*
Y4175001D3*
D25*
X4238501D3*
D14*
X36052001Y3921001D3*
Y3667001D3*
Y3413001D3*
Y3159001D3*
Y2905001D3*
Y2651001D3*
Y2397001D3*
X35798001D3*
Y2651001D3*
Y2905001D3*
Y3159001D3*
Y3413001D3*
Y3667001D3*
Y3921001D3*
Y4175001D3*
D25*
X36052001D3*
D29*
X20716751Y5381501D3*
D30*
X20970751D3*
X21224751D3*
D31*
X20970751Y4238501D3*
D29*
X21224751D3*
X19510251Y4714751D3*
D31*
Y4968751D3*
D32*
X20113501Y4778251D3*
D33*
X21218501D3*
D34*
X38369751Y4111501D3*
Y3715261D3*
Y3319021D3*
Y2922781D3*
D32*
X18335501Y4587751D3*
D33*
Y3482751D3*
D14*
X36369501Y5762501D3*
D35*
X37385501D3*
D14*
X36369501Y5413251D3*
D35*
X37385501D3*
D14*
X36369501Y5064001D3*
D35*
X37385501D3*
D14*
X22717001Y3921001D3*
Y3667001D3*
Y3413001D3*
Y3159001D3*
Y2905001D3*
Y2651001D3*
Y2397001D3*
X22463001D3*
Y2651001D3*
Y2905001D3*
Y3159001D3*
Y3413001D3*
Y3667001D3*
Y3921001D3*
Y4175001D3*
D25*
X22717001D3*
D14*
X17573501Y3921001D3*
Y3667001D3*
Y3413001D3*
Y3159001D3*
Y2905001D3*
Y2651001D3*
Y2397001D3*
X17319501D3*
Y2651001D3*
Y2905001D3*
Y3159001D3*
Y3413001D3*
Y3667001D3*
Y3921001D3*
Y4175001D3*
D25*
X17573501D3*
D34*
X1571501Y2922781D3*
Y3319021D3*
Y3715261D3*
Y4111501D3*
M02*
