G04 DipTrace 3.0.0.1*
G04 moraydular_powerbus_wide_final1.GTS*
%MOMM*%
G04 #@! TF.FileFunction,Soldermask,Top*
G04 #@! TF.Part,Single*
%AMOUTLINE0*
4,1,20,
1.2689,1.27,
1.70333,1.1938,
2.0855,0.9736,
2.3693,0.63597,
2.5205,0.22163,
2.5209,-0.21943,
2.3704,-0.63403,
2.0872,-0.97217,
1.7054,-1.19303,
1.2711,-1.27,
-1.2689,-1.27,
-1.70333,-1.1938,
-2.0855,-0.9736,
-2.3693,-0.63597,
-2.5205,-0.22163,
-2.5209,0.21943,
-2.3704,0.63403,
-2.0872,0.97217,
-1.7054,1.19303,
-1.2711,1.27,
1.2689,1.27,
0*%
%AMOUTLINE1*
4,1,20,
1.2776,1.37,
1.73798,1.28925,
2.1507,1.05144,
2.4572,0.68681,
2.62048,0.23935,
2.62092,-0.23698,
2.45838,-0.68473,
2.15254,-1.0499,
1.74021,-1.28842,
1.27989,-1.37,
-1.2776,-1.37,
-1.73798,-1.28925,
-2.1507,-1.05144,
-2.4572,-0.68681,
-2.62048,-0.23935,
-2.62092,0.23698,
-2.45838,0.68473,
-2.15254,1.0499,
-1.74021,1.28842,
-1.27989,1.37,
1.2776,1.37,
0*%
%ADD32R,1.8X1.8*%
%ADD33C,1.8*%
%ADD36C,3.0*%
%ADD45C,1.724*%
%ADD47C,3.248*%
%ADD49C,2.0*%
%ADD50R,2.0X2.0*%
%ADD51C,1.8*%
%ADD54R,1.47X1.47*%
%ADD56C,1.47*%
%ADD58R,1.724X1.724*%
%ADD60C,1.724*%
%ADD65OUTLINE0*%
%ADD66OUTLINE1*%
%FSLAX35Y35*%
G04*
G71*
G90*
G75*
G01*
G04 TopMask*
%LPD*%
D60*
X24939501Y3921001D3*
Y3667001D3*
Y3413001D3*
Y3159001D3*
Y2905001D3*
Y2651001D3*
Y2397001D3*
X24685501D3*
Y2651001D3*
Y2905001D3*
Y3159001D3*
Y3413001D3*
Y3667001D3*
Y3921001D3*
Y4175001D3*
D58*
X24939501D3*
D60*
X6461001Y3921001D3*
Y3667001D3*
Y3413001D3*
Y3159001D3*
Y2905001D3*
Y2651001D3*
Y2397001D3*
X6207001D3*
Y2651001D3*
Y2905001D3*
Y3159001D3*
Y3413001D3*
Y3667001D3*
Y3921001D3*
Y4175001D3*
D58*
X6461001D3*
D60*
X15351001Y3921001D3*
Y3667001D3*
Y3413001D3*
Y3159001D3*
Y2905001D3*
Y2651001D3*
Y2397001D3*
X15097001D3*
Y2651001D3*
Y2905001D3*
Y3159001D3*
Y3413001D3*
Y3667001D3*
Y3921001D3*
Y4175001D3*
D58*
X15351001D3*
D60*
X33829501Y3921001D3*
Y3667001D3*
Y3413001D3*
Y3159001D3*
Y2905001D3*
Y2651001D3*
Y2397001D3*
X33575501D3*
Y2651001D3*
Y2905001D3*
Y3159001D3*
Y3413001D3*
Y3667001D3*
Y3921001D3*
Y4175001D3*
D58*
X33829501D3*
D60*
X31607001Y3921001D3*
Y3667001D3*
Y3413001D3*
Y3159001D3*
Y2905001D3*
Y2651001D3*
Y2397001D3*
X31353001D3*
Y2651001D3*
Y2905001D3*
Y3159001D3*
Y3413001D3*
Y3667001D3*
Y3921001D3*
Y4175001D3*
D58*
X31607001D3*
D60*
X29384501Y3921001D3*
Y3667001D3*
Y3413001D3*
Y3159001D3*
Y2905001D3*
Y2651001D3*
Y2397001D3*
X29130501D3*
Y2651001D3*
Y2905001D3*
Y3159001D3*
Y3413001D3*
Y3667001D3*
Y3921001D3*
Y4175001D3*
D58*
X29384501D3*
D60*
X27162001Y3921001D3*
Y3667001D3*
Y3413001D3*
Y3159001D3*
Y2905001D3*
Y2651001D3*
Y2397001D3*
X26908001D3*
Y2651001D3*
Y2905001D3*
Y3159001D3*
Y3413001D3*
Y3667001D3*
Y3921001D3*
Y4175001D3*
D58*
X27162001D3*
D56*
X34210501Y5318001D3*
D54*
X33956501D3*
D56*
X35004251D3*
D54*
X34750251D3*
D56*
X35798001D3*
D54*
X35544001D3*
D36*
X1381001Y5635501D3*
Y1381001D3*
X38592001Y5635501D3*
Y1381001D3*
D65*
X18907001Y3794001D3*
D66*
X19407001D3*
D65*
X18907001Y3032001D3*
D66*
X19407001D3*
D65*
X18907001Y2270001D3*
D66*
X19407001D3*
D65*
X18907001Y1508001D3*
D66*
X19407001D3*
D60*
X13128501Y3921001D3*
Y3667001D3*
Y3413001D3*
Y3159001D3*
Y2905001D3*
Y2651001D3*
Y2397001D3*
X12874501D3*
Y2651001D3*
Y2905001D3*
Y3159001D3*
Y3413001D3*
Y3667001D3*
Y3921001D3*
Y4175001D3*
D58*
X13128501D3*
D60*
X10906001Y3921001D3*
Y3667001D3*
Y3413001D3*
Y3159001D3*
Y2905001D3*
Y2651001D3*
Y2397001D3*
X10652001D3*
Y2651001D3*
Y2905001D3*
Y3159001D3*
Y3413001D3*
Y3667001D3*
Y3921001D3*
Y4175001D3*
D58*
X10906001D3*
D60*
X8683501Y3921001D3*
Y3667001D3*
Y3413001D3*
Y3159001D3*
Y2905001D3*
Y2651001D3*
Y2397001D3*
X8429501D3*
Y2651001D3*
Y2905001D3*
Y3159001D3*
Y3413001D3*
Y3667001D3*
Y3921001D3*
Y4175001D3*
D58*
X8683501D3*
D65*
X20748501Y1508001D3*
D66*
X21248501D3*
D65*
X20748501Y2270001D3*
D66*
X21248501D3*
D65*
X20748501Y3032001D3*
D66*
X21248501D3*
D65*
X20748501Y3794001D3*
D66*
X21248501D3*
D36*
X17891001Y5635501D3*
Y1381001D3*
D60*
X4238501Y3921001D3*
Y3667001D3*
Y3413001D3*
Y3159001D3*
Y2905001D3*
Y2651001D3*
Y2397001D3*
X3984501D3*
Y2651001D3*
Y2905001D3*
Y3159001D3*
Y3413001D3*
Y3667001D3*
Y3921001D3*
Y4175001D3*
D58*
X4238501D3*
D60*
X36052001Y3921001D3*
Y3667001D3*
Y3413001D3*
Y3159001D3*
Y2905001D3*
Y2651001D3*
Y2397001D3*
X35798001D3*
Y2651001D3*
Y2905001D3*
Y3159001D3*
Y3413001D3*
Y3667001D3*
Y3921001D3*
Y4175001D3*
D58*
X36052001D3*
D36*
X7985001Y5635501D3*
Y1381001D3*
X31988001D3*
Y5635501D3*
D32*
X20716751Y5381501D3*
D33*
X20970751D3*
X21224751D3*
D51*
X20970751Y4238501D3*
D32*
X21224751D3*
X19510251Y4714751D3*
D51*
Y4968751D3*
D50*
X20113501Y4778251D3*
D49*
X21218501D3*
D47*
X38369751Y4111501D3*
Y3715261D3*
Y3319021D3*
Y2922781D3*
D50*
X18335501Y4587751D3*
D49*
Y3482751D3*
D60*
X36369501Y5762501D3*
D45*
X37385501D3*
D60*
X36369501Y5413251D3*
D45*
X37385501D3*
D60*
X36369501Y5064001D3*
D45*
X37385501D3*
D60*
X22717001Y3921001D3*
Y3667001D3*
Y3413001D3*
Y3159001D3*
Y2905001D3*
Y2651001D3*
Y2397001D3*
X22463001D3*
Y2651001D3*
Y2905001D3*
Y3159001D3*
Y3413001D3*
Y3667001D3*
Y3921001D3*
Y4175001D3*
D58*
X22717001D3*
D60*
X17573501Y3921001D3*
Y3667001D3*
Y3413001D3*
Y3159001D3*
Y2905001D3*
Y2651001D3*
Y2397001D3*
X17319501D3*
Y2651001D3*
Y2905001D3*
Y3159001D3*
Y3413001D3*
Y3667001D3*
Y3921001D3*
Y4175001D3*
D58*
X17573501D3*
D47*
X1571501Y2922781D3*
Y3319021D3*
Y3715261D3*
Y4111501D3*
D36*
X14589001Y5635501D3*
Y1381001D3*
X25384001D3*
Y5635501D3*
X22082001Y1381001D3*
Y5635501D3*
M02*
