G04 DipTrace 3.0.0.1*
G04 moraydular_powerbus_wide_final1.GTO*
%MOMM*%
G04 #@! TF.FileFunction,Legend,Top*
G04 #@! TF.Part,Single*
%ADD10C,0.25*%
%ADD24C,0.5*%
%ADD62C,0.19608*%
%ADD63C,0.23529*%
%ADD64C,0.15686*%
%FSLAX35Y35*%
G04*
G71*
G90*
G75*
G01*
G04 TopSilk*
%LPD*%
X24939628Y4618739D2*
D10*
Y4683001D1*
X24685374Y4618739D2*
X24939628D1*
X24685374D2*
Y4683001D1*
X24939628Y1889001D2*
Y1953263D1*
X24685374D2*
X24939628D1*
X24685374Y1889001D2*
Y1953263D1*
X24368001Y1889001D2*
X25257001D1*
X24368001Y4683001D2*
X25257001D1*
X24368001Y1889001D2*
Y4683001D1*
X25180547Y3489963D2*
X25257001D1*
X25180547Y3082039D2*
Y3489963D1*
Y3082039D2*
X25257001D1*
Y1889001D2*
Y3082039D1*
Y3489963D2*
Y4683001D1*
X6461128Y4618739D2*
Y4683001D1*
X6206874Y4618739D2*
X6461128D1*
X6206874D2*
Y4683001D1*
X6461128Y1889001D2*
Y1953263D1*
X6206874D2*
X6461128D1*
X6206874Y1889001D2*
Y1953263D1*
X5889501Y1889001D2*
X6778501D1*
X5889501Y4683001D2*
X6778501D1*
X5889501Y1889001D2*
Y4683001D1*
X6702047Y3489963D2*
X6778501D1*
X6702047Y3082039D2*
Y3489963D1*
Y3082039D2*
X6778501D1*
Y1889001D2*
Y3082039D1*
Y3489963D2*
Y4683001D1*
X15351128Y4618739D2*
Y4683001D1*
X15096874Y4618739D2*
X15351128D1*
X15096874D2*
Y4683001D1*
X15351128Y1889001D2*
Y1953263D1*
X15096874D2*
X15351128D1*
X15096874Y1889001D2*
Y1953263D1*
X14779501Y1889001D2*
X15668501D1*
X14779501Y4683001D2*
X15668501D1*
X14779501Y1889001D2*
Y4683001D1*
X15592047Y3489963D2*
X15668501D1*
X15592047Y3082039D2*
Y3489963D1*
Y3082039D2*
X15668501D1*
Y1889001D2*
Y3082039D1*
Y3489963D2*
Y4683001D1*
X33829628Y4618739D2*
Y4683001D1*
X33575374Y4618739D2*
X33829628D1*
X33575374D2*
Y4683001D1*
X33829628Y1889001D2*
Y1953263D1*
X33575374D2*
X33829628D1*
X33575374Y1889001D2*
Y1953263D1*
X33258001Y1889001D2*
X34147001D1*
X33258001Y4683001D2*
X34147001D1*
X33258001Y1889001D2*
Y4683001D1*
X34070547Y3489963D2*
X34147001D1*
X34070547Y3082039D2*
Y3489963D1*
Y3082039D2*
X34147001D1*
Y1889001D2*
Y3082039D1*
Y3489963D2*
Y4683001D1*
X31607128Y4618739D2*
Y4683001D1*
X31352874Y4618739D2*
X31607128D1*
X31352874D2*
Y4683001D1*
X31607128Y1889001D2*
Y1953263D1*
X31352874D2*
X31607128D1*
X31352874Y1889001D2*
Y1953263D1*
X31035501Y1889001D2*
X31924501D1*
X31035501Y4683001D2*
X31924501D1*
X31035501Y1889001D2*
Y4683001D1*
X31848047Y3489963D2*
X31924501D1*
X31848047Y3082039D2*
Y3489963D1*
Y3082039D2*
X31924501D1*
Y1889001D2*
Y3082039D1*
Y3489963D2*
Y4683001D1*
X29384628Y4618739D2*
Y4683001D1*
X29130374Y4618739D2*
X29384628D1*
X29130374D2*
Y4683001D1*
X29384628Y1889001D2*
Y1953263D1*
X29130374D2*
X29384628D1*
X29130374Y1889001D2*
Y1953263D1*
X28813001Y1889001D2*
X29702001D1*
X28813001Y4683001D2*
X29702001D1*
X28813001Y1889001D2*
Y4683001D1*
X29625547Y3489963D2*
X29702001D1*
X29625547Y3082039D2*
Y3489963D1*
Y3082039D2*
X29702001D1*
Y1889001D2*
Y3082039D1*
Y3489963D2*
Y4683001D1*
X27162128Y4618739D2*
Y4683001D1*
X26907874Y4618739D2*
X27162128D1*
X26907874D2*
Y4683001D1*
X27162128Y1889001D2*
Y1953263D1*
X26907874D2*
X27162128D1*
X26907874Y1889001D2*
Y1953263D1*
X26590501Y1889001D2*
X27479501D1*
X26590501Y4683001D2*
X27479501D1*
X26590501Y1889001D2*
Y4683001D1*
X27403047Y3489963D2*
X27479501D1*
X27403047Y3082039D2*
Y3489963D1*
Y3082039D2*
X27479501D1*
Y1889001D2*
Y3082039D1*
Y3489963D2*
Y4683001D1*
X33829517Y5127659D2*
Y5508343D1*
X33830089Y5126897D2*
G03X33830089Y5509104I253481J191104D01*
G01*
X34623267Y5127659D2*
Y5508343D1*
X34623839Y5126897D2*
G03X34623839Y5509104I253481J191104D01*
G01*
X35417017Y5127659D2*
Y5508343D1*
X35417589Y5126897D2*
G03X35417589Y5509104I253481J191104D01*
G01*
X13128628Y4618739D2*
Y4683001D1*
X12874374Y4618739D2*
X13128628D1*
X12874374D2*
Y4683001D1*
X13128628Y1889001D2*
Y1953263D1*
X12874374D2*
X13128628D1*
X12874374Y1889001D2*
Y1953263D1*
X12557001Y1889001D2*
X13446001D1*
X12557001Y4683001D2*
X13446001D1*
X12557001Y1889001D2*
Y4683001D1*
X13369547Y3489963D2*
X13446001D1*
X13369547Y3082039D2*
Y3489963D1*
Y3082039D2*
X13446001D1*
Y1889001D2*
Y3082039D1*
Y3489963D2*
Y4683001D1*
X10906128Y4618739D2*
Y4683001D1*
X10651874Y4618739D2*
X10906128D1*
X10651874D2*
Y4683001D1*
X10906128Y1889001D2*
Y1953263D1*
X10651874D2*
X10906128D1*
X10651874Y1889001D2*
Y1953263D1*
X10334501Y1889001D2*
X11223501D1*
X10334501Y4683001D2*
X11223501D1*
X10334501Y1889001D2*
Y4683001D1*
X11147047Y3489963D2*
X11223501D1*
X11147047Y3082039D2*
Y3489963D1*
Y3082039D2*
X11223501D1*
Y1889001D2*
Y3082039D1*
Y3489963D2*
Y4683001D1*
X8683628Y4618739D2*
Y4683001D1*
X8429374Y4618739D2*
X8683628D1*
X8429374D2*
Y4683001D1*
X8683628Y1889001D2*
Y1953263D1*
X8429374D2*
X8683628D1*
X8429374Y1889001D2*
Y1953263D1*
X8112001Y1889001D2*
X9001001D1*
X8112001Y4683001D2*
X9001001D1*
X8112001Y1889001D2*
Y4683001D1*
X8924547Y3489963D2*
X9001001D1*
X8924547Y3082039D2*
Y3489963D1*
Y3082039D2*
X9001001D1*
Y1889001D2*
Y3082039D1*
Y3489963D2*
Y4683001D1*
X4238628Y4618739D2*
Y4683001D1*
X3984374Y4618739D2*
X4238628D1*
X3984374D2*
Y4683001D1*
X4238628Y1889001D2*
Y1953263D1*
X3984374D2*
X4238628D1*
X3984374Y1889001D2*
Y1953263D1*
X3667001Y1889001D2*
X4556001D1*
X3667001Y4683001D2*
X4556001D1*
X3667001Y1889001D2*
Y4683001D1*
X4479547Y3489963D2*
X4556001D1*
X4479547Y3082039D2*
Y3489963D1*
Y3082039D2*
X4556001D1*
Y1889001D2*
Y3082039D1*
Y3489963D2*
Y4683001D1*
X36052128Y4618739D2*
Y4683001D1*
X35797874Y4618739D2*
X36052128D1*
X35797874D2*
Y4683001D1*
X36052128Y1889001D2*
Y1953263D1*
X35797874D2*
X36052128D1*
X35797874Y1889001D2*
Y1953263D1*
X35480501Y1889001D2*
X36369501D1*
X35480501Y4683001D2*
X36369501D1*
X35480501Y1889001D2*
Y4683001D1*
X36293047Y3489963D2*
X36369501D1*
X36293047Y3082039D2*
Y3489963D1*
Y3082039D2*
X36369501D1*
Y1889001D2*
Y3082039D1*
Y3489963D2*
Y4683001D1*
X20435751Y5616681D2*
X21505751D1*
X20435751Y5666501D2*
X21505751D1*
X20435751Y5196501D2*
X21505751D1*
X20435751D2*
Y5666501D1*
X21505751Y5196501D2*
Y5666501D1*
X21275398Y4390901D2*
X20920103D1*
X21275398Y4086101D2*
X20920103D1*
Y4390901D2*
G03X20920103Y4086101I-152J-152400D01*
G01*
X21275398D2*
G03X21275398Y4390901I152J152400D01*
G01*
X19540273Y4511852D2*
X19480228D1*
X19510251Y4481832D2*
Y4541811D1*
X19256251Y4841825D2*
X19256869Y4859537D1*
X19258722Y4877163D1*
X19261801Y4894616D1*
X19266090Y4911812D1*
X19271569Y4928668D1*
X19278210Y4945100D1*
X19285982Y4961029D1*
X19294846Y4976377D1*
X19304760Y4991070D1*
X19315675Y5005036D1*
X19327538Y5018206D1*
X19340291Y5030517D1*
X19353873Y5041909D1*
X19368216Y5052326D1*
X19383251Y5061718D1*
X19398904Y5070038D1*
X19415100Y5077247D1*
X19431760Y5083308D1*
X19448802Y5088193D1*
X19466144Y5091878D1*
X19483700Y5094345D1*
X19501386Y5095581D1*
X19519115D1*
X19536801Y5094345D1*
X19554357Y5091878D1*
X19571699Y5088193D1*
X19588741Y5083308D1*
X19605401Y5077247D1*
X19621597Y5070038D1*
X19637251Y5061718D1*
X19652286Y5052326D1*
X19666629Y5041909D1*
X19680210Y5030517D1*
X19692963Y5018206D1*
X19704826Y5005036D1*
X19715741Y4991070D1*
X19725655Y4976377D1*
X19734519Y4961029D1*
X19742291Y4945100D1*
X19748932Y4928668D1*
X19754411Y4911812D1*
X19758700Y4894616D1*
X19761779Y4877163D1*
X19763632Y4859537D1*
X19764251Y4841825D1*
X19763632Y4824113D1*
X19761779Y4806488D1*
X19758700Y4789034D1*
X19754411Y4771838D1*
X19748932Y4754983D1*
X19742291Y4738550D1*
X19734519Y4722621D1*
X19725655Y4707273D1*
X19715741Y4692580D1*
X19704826Y4678615D1*
X19692963Y4665444D1*
X19680210Y4653133D1*
X19666629Y4641741D1*
X19652286Y4631324D1*
X19637251Y4621932D1*
X19621597Y4613612D1*
X19605401Y4606403D1*
X19588741Y4600342D1*
X19571699Y4595457D1*
X19554357Y4591772D1*
X19536801Y4589306D1*
X19519115Y4588069D1*
X19501386D1*
X19483700Y4589306D1*
X19466144Y4591772D1*
X19448802Y4595457D1*
X19431760Y4600342D1*
X19415100Y4606403D1*
X19398904Y4613612D1*
X19383251Y4621932D1*
X19368216Y4631324D1*
X19353873Y4641741D1*
X19340291Y4653133D1*
X19327538Y4665444D1*
X19315675Y4678615D1*
X19304760Y4692580D1*
X19294846Y4707273D1*
X19285982Y4722621D1*
X19278210Y4738550D1*
X19271569Y4754983D1*
X19266090Y4771838D1*
X19261801Y4789034D1*
X19258722Y4806488D1*
X19256869Y4824113D1*
X19256251Y4841825D1*
X20425706Y4638251D2*
Y4918251D1*
X20430846D2*
X20901156D1*
X20501521Y4638251D2*
Y4918251D1*
X20901156Y4638251D2*
Y4918251D1*
X20430846Y4638251D2*
X20901156D1*
X38674551Y2724661D2*
X37912551D1*
Y4309621D1*
X38674551D1*
Y2724661D1*
X38141151Y2922781D2*
X37912551D1*
Y4111501D1*
X38141151D1*
Y2922781D1*
X18195501Y4275546D2*
X18475501D1*
Y4270406D2*
Y3800096D1*
X18195501Y4199731D2*
X18475501D1*
X18195501Y3800096D2*
X18475501D1*
X18195501Y4270406D2*
Y3800096D1*
X37131043Y5635501D2*
X36623958D1*
Y5889501D2*
Y5635501D1*
X37131043Y5889501D2*
X36623958D1*
X37131043D2*
Y5635501D1*
Y5286251D2*
X36623958D1*
Y5540251D2*
Y5286251D1*
X37131043Y5540251D2*
X36623958D1*
X37131043D2*
Y5286251D1*
Y4937001D2*
X36623958D1*
Y5191001D2*
Y4937001D1*
X37131043Y5191001D2*
X36623958D1*
X37131043D2*
Y4937001D1*
X22717128Y4618739D2*
Y4683001D1*
X22462874Y4618739D2*
X22717128D1*
X22462874D2*
Y4683001D1*
X22717128Y1889001D2*
Y1953263D1*
X22462874D2*
X22717128D1*
X22462874Y1889001D2*
Y1953263D1*
X22145501Y1889001D2*
X23034501D1*
X22145501Y4683001D2*
X23034501D1*
X22145501Y1889001D2*
Y4683001D1*
X22958047Y3489963D2*
X23034501D1*
X22958047Y3082039D2*
Y3489963D1*
Y3082039D2*
X23034501D1*
Y1889001D2*
Y3082039D1*
Y3489963D2*
Y4683001D1*
X17573628Y4618739D2*
Y4683001D1*
X17319374Y4618739D2*
X17573628D1*
X17319374D2*
Y4683001D1*
X17573628Y1889001D2*
Y1953263D1*
X17319374D2*
X17573628D1*
X17319374Y1889001D2*
Y1953263D1*
X17002001Y1889001D2*
X17891001D1*
X17002001Y4683001D2*
X17891001D1*
X17002001Y1889001D2*
Y4683001D1*
X17814547Y3489963D2*
X17891001D1*
X17814547Y3082039D2*
Y3489963D1*
Y3082039D2*
X17891001D1*
Y1889001D2*
Y3082039D1*
Y3489963D2*
Y4683001D1*
X1266701Y4309621D2*
X2028701D1*
Y2724661D1*
X1266701D1*
Y4309621D1*
X1800101Y4111501D2*
X2028701D1*
Y2922781D1*
X1800101D1*
Y4111501D1*
X2524001Y1762001D2*
D24*
X17922751D1*
X22177251D2*
X38211001D1*
X24852019Y4826451D2*
D62*
X24845842Y4808201D1*
X24833769Y4795987D1*
X24815519Y4789951D1*
X24809482D1*
X24791232Y4795987D1*
X24779159Y4808201D1*
X24772982Y4826451D1*
Y4832487D1*
X24779159Y4850737D1*
X24791232Y4862810D1*
X24809482Y4868847D1*
X24815519D1*
X24833769Y4862810D1*
X24845842Y4850737D1*
X24852019Y4826451D1*
Y4795987D1*
X24845842Y4765664D1*
X24833769Y4747414D1*
X24815519Y4741378D1*
X24803446D1*
X24785196Y4747414D1*
X24779159Y4759628D1*
X6297641Y4838524D2*
Y4844560D1*
X6303677Y4856774D1*
X6309714Y4862810D1*
X6321927Y4868847D1*
X6346214D1*
X6358287Y4862810D1*
X6364324Y4856774D1*
X6370501Y4844560D1*
Y4832487D1*
X6364324Y4820274D1*
X6352251Y4802164D1*
X6291464Y4741378D1*
X6376537D1*
X15257412Y4850737D2*
X15251376Y4862810D1*
X15233126Y4868847D1*
X15221052D1*
X15202802Y4862810D1*
X15190589Y4844560D1*
X15184552Y4814237D1*
Y4783914D1*
X15190589Y4759628D1*
X15202802Y4747414D1*
X15221052Y4741378D1*
X15227089D1*
X15245199Y4747414D1*
X15257412Y4759628D1*
X15263449Y4777878D1*
Y4783914D1*
X15257412Y4802164D1*
X15245199Y4814237D1*
X15227089Y4820274D1*
X15221052D1*
X15202802Y4814237D1*
X15190589Y4802164D1*
X15184552Y4783914D1*
X33625124Y4844560D2*
X33637338Y4850737D1*
X33655588Y4868847D1*
Y4741378D1*
X33707017Y4868847D2*
X33773700D1*
X33737340Y4820274D1*
X33755590D1*
X33767663Y4814237D1*
X33773700Y4808201D1*
X33779877Y4789951D1*
Y4777878D1*
X33773700Y4759628D1*
X33761627Y4747414D1*
X33743377Y4741378D1*
X33725127D1*
X33707017Y4747414D1*
X33700980Y4753591D1*
X33694804Y4765664D1*
X31402624Y4844560D2*
X31414838Y4850737D1*
X31433088Y4868847D1*
Y4741378D1*
X31478480Y4838524D2*
Y4844560D1*
X31484517Y4856774D1*
X31490554Y4862810D1*
X31502767Y4868847D1*
X31527054D1*
X31539127Y4862810D1*
X31545163Y4856774D1*
X31551340Y4844560D1*
Y4832487D1*
X31545163Y4820274D1*
X31533090Y4802164D1*
X31472304Y4741378D1*
X31557377D1*
X29207429Y4844560D2*
X29219643Y4850737D1*
X29237893Y4868847D1*
Y4741378D1*
X29277108Y4844560D2*
X29289322Y4850737D1*
X29307572Y4868847D1*
Y4741378D1*
X26957624Y4844560D2*
X26969838Y4850737D1*
X26988088Y4868847D1*
Y4741378D1*
X27063804Y4868847D2*
X27045554Y4862810D1*
X27033340Y4844560D1*
X27027304Y4814237D1*
Y4795987D1*
X27033340Y4765664D1*
X27045554Y4747414D1*
X27063804Y4741378D1*
X27075877D1*
X27094127Y4747414D1*
X27106200Y4765664D1*
X27112377Y4795987D1*
Y4814237D1*
X27106200Y4844560D1*
X27094127Y4862810D1*
X27075877Y4868847D1*
X27063804D1*
X27106200Y4844560D2*
X27033340Y4765664D1*
X33984872Y5812240D2*
Y5702880D1*
X33930262Y5757490D2*
X34039622D1*
X34151697Y5821295D2*
X34091051D1*
X34085014Y5766685D1*
X34091051Y5772722D1*
X34109301Y5778898D1*
X34127410D1*
X34145660Y5772722D1*
X34157874Y5760648D1*
X34163910Y5742398D1*
Y5730325D1*
X34157874Y5712075D1*
X34145660Y5699862D1*
X34127410Y5693825D1*
X34109301D1*
X34091051Y5699862D1*
X34085014Y5706039D1*
X34078837Y5718112D1*
X34203126Y5821435D2*
X34251699Y5693825D1*
X34300272Y5821435D1*
X34743782Y5812240D2*
Y5702880D1*
X34689173Y5757490D2*
X34798532D1*
X34837748Y5797008D2*
X34849961Y5803185D1*
X34868211Y5821295D1*
Y5693825D1*
X34913604Y5790972D2*
Y5797008D1*
X34919640Y5809222D1*
X34925677Y5815258D1*
X34937890Y5821295D1*
X34962177D1*
X34974250Y5815258D1*
X34980287Y5809222D1*
X34986464Y5797008D1*
Y5784935D1*
X34980287Y5772722D1*
X34968214Y5754612D1*
X34907427Y5693825D1*
X34992500D1*
X35031716Y5821435D2*
X35080289Y5693825D1*
X35128862Y5821435D1*
X35502506Y5757560D2*
X35572698D1*
X35611914Y5797008D2*
X35624128Y5803185D1*
X35642378Y5821295D1*
Y5693825D1*
X35687770Y5790972D2*
Y5797008D1*
X35693807Y5809222D1*
X35699843Y5815258D1*
X35712057Y5821295D1*
X35736343D1*
X35748416Y5815258D1*
X35754453Y5809222D1*
X35760630Y5797008D1*
Y5784935D1*
X35754453Y5772722D1*
X35742380Y5754612D1*
X35681593Y5693825D1*
X35766666D1*
X35805882Y5821435D2*
X35854455Y5693825D1*
X35903028Y5821435D1*
X13031824Y4868847D2*
X12971177D1*
X12965141Y4814237D1*
X12971177Y4820274D1*
X12989427Y4826451D1*
X13007537D1*
X13025787Y4820274D1*
X13038001Y4808201D1*
X13044037Y4789951D1*
Y4777878D1*
X13038001Y4759628D1*
X13025787Y4747414D1*
X13007537Y4741378D1*
X12989427D1*
X12971177Y4747414D1*
X12965141Y4753591D1*
X12958964Y4765664D1*
X10794232Y4741378D2*
Y4868847D1*
X10733446Y4783914D1*
X10824555D1*
X8526177Y4868847D2*
X8592860D1*
X8556501Y4820274D1*
X8574751D1*
X8586824Y4814237D1*
X8592860Y4808201D1*
X8599037Y4789951D1*
Y4777878D1*
X8592860Y4759628D1*
X8580787Y4747414D1*
X8562537Y4741378D1*
X8544287D1*
X8526177Y4747414D1*
X8520141Y4753591D1*
X8513964Y4765664D1*
X4096269Y4844560D2*
X4108482Y4850737D1*
X4126732Y4868847D1*
Y4741378D1*
X35844606Y4844560D2*
X35856820Y4850737D1*
X35875070Y4868847D1*
Y4741378D1*
X35975072D2*
Y4868847D1*
X35914285Y4783914D1*
X36005395D1*
X20766138Y5724878D2*
X20826924Y5852347D1*
X20741851D1*
X20896463D2*
X20878353Y5846310D1*
X20872176Y5834237D1*
Y5822024D1*
X20878353Y5809951D1*
X20890426Y5803774D1*
X20914713Y5797737D1*
X20932963Y5791701D1*
X20945036Y5779487D1*
X20951073Y5767414D1*
Y5749164D1*
X20945036Y5737091D1*
X20938999Y5730914D1*
X20920749Y5724878D1*
X20896463D1*
X20878353Y5730914D1*
X20872176Y5737091D1*
X20866140Y5749164D1*
Y5767414D1*
X20872176Y5779487D1*
X20884390Y5791701D1*
X20902499Y5797737D1*
X20926786Y5803774D1*
X20938999Y5809951D1*
X20945036Y5822024D1*
Y5834237D1*
X20938999Y5846310D1*
X20920749Y5852347D1*
X20896463D1*
X21026788D2*
X21008538Y5846310D1*
X20996325Y5828060D1*
X20990288Y5797737D1*
Y5779487D1*
X20996325Y5749164D1*
X21008538Y5730914D1*
X21026788Y5724878D1*
X21038861D1*
X21057111Y5730914D1*
X21069184Y5749164D1*
X21075361Y5779487D1*
Y5797737D1*
X21069184Y5828060D1*
X21057111Y5846310D1*
X21038861Y5852347D1*
X21026788D1*
X21069184Y5828060D2*
X20996325Y5749164D1*
X21187437Y5852347D2*
X21126790D1*
X21120754Y5797737D1*
X21126790Y5803774D1*
X21145040Y5809951D1*
X21163150D1*
X21181400Y5803774D1*
X21193613Y5791701D1*
X21199650Y5773451D1*
Y5761378D1*
X21193613Y5743128D1*
X21181400Y5730914D1*
X21163150Y5724878D1*
X21145040D1*
X21126790Y5730914D1*
X21120754Y5737091D1*
X21114577Y5749164D1*
X20846085Y4552460D2*
X20858298Y4558637D1*
X20876548Y4576747D1*
Y4449278D1*
X20952264Y4576747D2*
X20934014Y4570710D1*
X20921800Y4552460D1*
X20915764Y4522137D1*
Y4503887D1*
X20921800Y4473564D1*
X20934014Y4455314D1*
X20952264Y4449278D1*
X20964337D1*
X20982587Y4455314D1*
X20994660Y4473564D1*
X21000837Y4503887D1*
Y4522137D1*
X20994660Y4552460D1*
X20982587Y4570710D1*
X20964337Y4576747D1*
X20952264D1*
X20994660Y4552460D2*
X20921800Y4473564D1*
X21076552Y4576747D2*
X21058302Y4570710D1*
X21046089Y4552460D1*
X21040052Y4522137D1*
Y4503887D1*
X21046089Y4473564D1*
X21058302Y4455314D1*
X21076552Y4449278D1*
X21088626D1*
X21106876Y4455314D1*
X21118949Y4473564D1*
X21125126Y4503887D1*
Y4522137D1*
X21118949Y4552460D1*
X21106876Y4570710D1*
X21088626Y4576747D1*
X21076552D1*
X21118949Y4552460D2*
X21046089Y4473564D1*
X21164341Y4534351D2*
Y4449278D1*
Y4510064D2*
X21182591Y4528314D1*
X21194805Y4534351D1*
X21212914D1*
X21225128Y4528314D1*
X21231164Y4510064D1*
Y4449278D1*
X21349417Y4576887D2*
X21270380D1*
Y4449278D1*
Y4516101D2*
X21318953D1*
X19320729Y5257295D2*
X19332942Y5263472D1*
X19351192Y5281582D1*
Y5154113D1*
X19426908Y5281582D2*
X19408658Y5275545D1*
X19396445Y5257295D1*
X19390408Y5226972D1*
Y5208722D1*
X19396445Y5178399D1*
X19408658Y5160149D1*
X19426908Y5154113D1*
X19438981D1*
X19457231Y5160149D1*
X19469304Y5178399D1*
X19475481Y5208722D1*
Y5226972D1*
X19469304Y5257295D1*
X19457231Y5275545D1*
X19438981Y5281582D1*
X19426908D1*
X19469304Y5257295D2*
X19396445Y5178399D1*
X19514697Y5239186D2*
Y5178399D1*
X19520733Y5160289D1*
X19532947Y5154113D1*
X19551197D1*
X19563270Y5160289D1*
X19581520Y5178399D1*
Y5239186D2*
Y5154113D1*
X19699772Y5281722D2*
X19620736D1*
Y5154113D1*
Y5220936D2*
X19669309D1*
X20364333Y5079810D2*
X20376547Y5085987D1*
X20394797Y5104097D1*
Y4976628D1*
X20519086Y5104237D2*
Y4976628D1*
X20434013Y5104237D1*
Y4976628D1*
X20619088D2*
Y5104097D1*
X20558301Y5019164D1*
X20649411D1*
X20725127Y5104097D2*
X20706877Y5098060D1*
X20694663Y5079810D1*
X20688627Y5049487D1*
Y5031237D1*
X20694663Y5000914D1*
X20706877Y4982664D1*
X20725127Y4976628D1*
X20737200D1*
X20755450Y4982664D1*
X20767523Y5000914D1*
X20773700Y5031237D1*
Y5049487D1*
X20767523Y5079810D1*
X20755450Y5098060D1*
X20737200Y5104097D1*
X20725127D1*
X20767523Y5079810D2*
X20694663Y5000914D1*
X20849415Y5104097D2*
X20831165Y5098060D1*
X20818952Y5079810D1*
X20812915Y5049487D1*
Y5031237D1*
X20818952Y5000914D1*
X20831165Y4982664D1*
X20849415Y4976628D1*
X20861488D1*
X20879738Y4982664D1*
X20891812Y5000914D1*
X20897988Y5031237D1*
Y5049487D1*
X20891812Y5079810D1*
X20879738Y5098060D1*
X20861488Y5104097D1*
X20849415D1*
X20891812Y5079810D2*
X20818952Y5000914D1*
X20937204Y5079810D2*
X20949418Y5085987D1*
X20967668Y5104097D1*
Y4976628D1*
X18033941Y3733584D2*
X18027764Y3745797D1*
X18009654Y3764047D1*
X18137124D1*
X18009514Y3888336D2*
X18137124D1*
X18009514Y3803263D1*
X18137124D1*
Y3988338D2*
X18009654D1*
X18094587Y3927551D1*
Y4018661D1*
X18009654Y4094377D2*
X18015691Y4076127D1*
X18033941Y4063913D1*
X18064264Y4057877D1*
X18082514D1*
X18112837Y4063913D1*
X18131087Y4076127D1*
X18137124Y4094377D1*
Y4106450D1*
X18131087Y4124700D1*
X18112837Y4136773D1*
X18082514Y4142950D1*
X18064264D1*
X18033941Y4136773D1*
X18015691Y4124700D1*
X18009654Y4106450D1*
Y4094377D1*
X18033941Y4136773D2*
X18112837Y4063913D1*
X18009654Y4218665D2*
X18015691Y4200415D1*
X18033941Y4188202D1*
X18064264Y4182165D1*
X18082514D1*
X18112837Y4188202D1*
X18131087Y4200415D1*
X18137124Y4218665D1*
Y4230738D1*
X18131087Y4248988D1*
X18112837Y4261062D1*
X18082514Y4267239D1*
X18064264D1*
X18033941Y4261062D1*
X18015691Y4248989D1*
X18009654Y4230739D1*
Y4218665D1*
X18033941Y4261062D2*
X18112837Y4188202D1*
X18033941Y4306454D2*
X18027764Y4318668D1*
X18009654Y4336918D1*
X18137124D1*
X22577857Y4868847D2*
X22559748Y4862810D1*
X22553571Y4850737D1*
Y4838524D1*
X22559748Y4826451D1*
X22571821Y4820274D1*
X22596107Y4814237D1*
X22614357Y4808201D1*
X22626430Y4795987D1*
X22632467Y4783914D1*
Y4765664D1*
X22626430Y4753591D1*
X22620394Y4747414D1*
X22602144Y4741378D1*
X22577857D1*
X22559748Y4747414D1*
X22553571Y4753591D1*
X22547534Y4765664D1*
Y4783914D1*
X22553571Y4795987D1*
X22565784Y4808201D1*
X22583894Y4814237D1*
X22608180Y4820274D1*
X22620394Y4826451D1*
X22626430Y4838524D1*
Y4850737D1*
X22620394Y4862810D1*
X22602144Y4868847D1*
X22577857D1*
X17428251Y4741378D2*
X17489037Y4868847D1*
X17403964D1*
X19926993Y3645830D2*
D63*
Y3514598D1*
X19861462Y3580130D2*
X19992693D1*
X20127184Y3656695D2*
X20054408D1*
X20047165Y3591164D1*
X20054408Y3598408D1*
X20076308Y3605820D1*
X20098040D1*
X20119940Y3598408D1*
X20134596Y3583920D1*
X20141840Y3562020D1*
Y3547532D1*
X20134596Y3525632D1*
X20119940Y3510976D1*
X20098040Y3503732D1*
X20076308D1*
X20054408Y3510976D1*
X20047165Y3518388D1*
X20039752Y3532876D1*
X20188899Y3656864D2*
X20247186Y3503732D1*
X20305474Y3656864D1*
X19863493Y2883830D2*
Y2752598D1*
X19797962Y2818130D2*
X19929193D1*
X19976252Y2865551D2*
X19990908Y2872964D1*
X20012808Y2894695D1*
Y2741732D1*
X20067280Y2858308D2*
Y2865551D1*
X20074523Y2880208D1*
X20081767Y2887451D1*
X20096423Y2894695D1*
X20125567D1*
X20140055Y2887451D1*
X20147299Y2880208D1*
X20154711Y2865551D1*
Y2851064D1*
X20147299Y2836408D1*
X20132811Y2814676D1*
X20059867Y2741732D1*
X20161955D1*
X20209014Y2894864D2*
X20267301Y2741732D1*
X20325589Y2894864D1*
X19827752Y1296174D2*
X19911983D1*
X19959042Y1343511D2*
X19973698Y1350924D1*
X19995598Y1372655D1*
Y1219692D1*
X20050069Y1336268D2*
Y1343511D1*
X20057313Y1358168D1*
X20064556Y1365411D1*
X20079213Y1372655D1*
X20108356D1*
X20122844Y1365411D1*
X20130088Y1358168D1*
X20137500Y1343511D1*
Y1329024D1*
X20130088Y1314368D1*
X20115600Y1292636D1*
X20042656Y1219692D1*
X20144744D1*
X20191803Y1372824D2*
X20250091Y1219692D1*
X20308378Y1372824D1*
X20000512Y2132695D2*
X19978612Y2125451D1*
X19963956Y2103551D1*
X19956712Y2067164D1*
Y2045264D1*
X19963956Y2008876D1*
X19978612Y1986976D1*
X20000512Y1979732D1*
X20015000D1*
X20036900Y1986976D1*
X20051387Y2008876D1*
X20058800Y2045264D1*
Y2067164D1*
X20051387Y2103551D1*
X20036900Y2125451D1*
X20015000Y2132695D1*
X20000512D1*
X20051387Y2103551D2*
X19963956Y2008876D1*
X20105858Y2132864D2*
X20164146Y1979732D1*
X20222434Y2132864D1*
X3059611Y4206656D2*
D62*
X3053574Y4218729D1*
X3041361Y4230942D1*
X3029288Y4236979D1*
X3005001D1*
X2992788Y4230942D1*
X2980715Y4218729D1*
X2974538Y4206656D1*
X2968501Y4188406D1*
Y4157942D1*
X2974538Y4139833D1*
X2980715Y4127619D1*
X2992788Y4115546D1*
X3005001Y4109369D1*
X3029288D1*
X3041361Y4115546D1*
X3053574Y4127619D1*
X3059611Y4139833D1*
Y4157942D1*
X3029288D1*
X3196113Y4109369D2*
X3147400Y4236979D1*
X3098826Y4109369D1*
X3117076Y4151906D2*
X3177863D1*
X3277865Y4236979D2*
Y4109369D1*
X3235329Y4236979D2*
X3320402D1*
X3438514D2*
X3359617D1*
Y4109369D1*
X3438514D1*
X3359617Y4176192D2*
X3408190D1*
X3281861Y3952656D2*
X3275824Y3964729D1*
X3263611Y3976942D1*
X3251538Y3982979D1*
X3227251D1*
X3215038Y3976942D1*
X3202965Y3964729D1*
X3196788Y3952656D1*
X3190751Y3934406D1*
Y3903942D1*
X3196788Y3885833D1*
X3202965Y3873619D1*
X3215038Y3861546D1*
X3227251Y3855369D1*
X3251538D1*
X3263611Y3861546D1*
X3275824Y3873619D1*
X3281861Y3885833D1*
X3321076Y3982979D2*
X3369650Y3855369D1*
X3418223Y3982979D1*
X3118361Y3719784D2*
Y3610424D1*
X3063751Y3665034D2*
X3173111D1*
X3285186Y3728838D2*
X3224540D1*
X3218503Y3674229D1*
X3224540Y3680265D1*
X3242790Y3686442D1*
X3260900D1*
X3279150Y3680265D1*
X3291363Y3668192D1*
X3297400Y3649942D1*
Y3637869D1*
X3291363Y3619619D1*
X3279150Y3607406D1*
X3260900Y3601369D1*
X3242790D1*
X3224540Y3607406D1*
X3218503Y3613583D1*
X3212326Y3625656D1*
X3336615Y3728979D2*
X3385188Y3601369D1*
X3433761Y3728979D1*
X3054861Y3465784D2*
Y3356424D1*
X3000251Y3411034D2*
X3109611D1*
X3148826Y3450552D2*
X3161040Y3456729D1*
X3179290Y3474838D1*
Y3347369D1*
X3224683Y3444515D2*
Y3450552D1*
X3230719Y3462765D1*
X3236756Y3468802D1*
X3248969Y3474838D1*
X3273256D1*
X3285329Y3468802D1*
X3291365Y3462765D1*
X3297542Y3450552D1*
Y3438479D1*
X3291365Y3426265D1*
X3279292Y3408156D1*
X3218506Y3347369D1*
X3303579D1*
X3342794Y3474979D2*
X3391367Y3347369D1*
X3439940Y3474979D1*
X3000251Y2395104D2*
X3070443D1*
X3109659Y2434552D2*
X3121873Y2440729D1*
X3140123Y2458838D1*
Y2331369D1*
X3185515Y2428515D2*
Y2434552D1*
X3191552Y2446765D1*
X3197588Y2452802D1*
X3209802Y2458838D1*
X3234088D1*
X3246161Y2452802D1*
X3252198Y2446765D1*
X3258375Y2434552D1*
Y2422479D1*
X3252198Y2410265D1*
X3240125Y2392156D1*
X3179338Y2331369D1*
X3264411D1*
X3303627Y2458979D2*
X3352200Y2331369D1*
X3400773Y2458979D1*
X3227251Y3220838D2*
X3209001Y3214802D1*
X3196788Y3196552D1*
X3190751Y3166229D1*
Y3147979D1*
X3196788Y3117656D1*
X3209001Y3099406D1*
X3227251Y3093369D1*
X3239324D1*
X3257574Y3099406D1*
X3269647Y3117656D1*
X3275824Y3147979D1*
Y3166229D1*
X3269647Y3196552D1*
X3257574Y3214802D1*
X3239324Y3220838D1*
X3227251D1*
X3269647Y3196552D2*
X3196788Y3117656D1*
X3315040Y3220979D2*
X3363613Y3093369D1*
X3412186Y3220979D1*
X3227251Y2966838D2*
X3209001Y2960802D1*
X3196788Y2942552D1*
X3190751Y2912229D1*
Y2893979D1*
X3196788Y2863656D1*
X3209001Y2845406D1*
X3227251Y2839369D1*
X3239324D1*
X3257574Y2845406D1*
X3269647Y2863656D1*
X3275824Y2893979D1*
Y2912229D1*
X3269647Y2942552D1*
X3257574Y2960802D1*
X3239324Y2966838D1*
X3227251D1*
X3269647Y2942552D2*
X3196788Y2863656D1*
X3315040Y2966979D2*
X3363613Y2839369D1*
X3412186Y2966979D1*
X3227251Y2712838D2*
X3209001Y2706802D1*
X3196788Y2688552D1*
X3190751Y2658229D1*
Y2639979D1*
X3196788Y2609656D1*
X3209001Y2591406D1*
X3227251Y2585369D1*
X3239324D1*
X3257574Y2591406D1*
X3269647Y2609656D1*
X3275824Y2639979D1*
Y2658229D1*
X3269647Y2688552D1*
X3257574Y2706802D1*
X3239324Y2712838D1*
X3227251D1*
X3269647Y2688552D2*
X3196788Y2609656D1*
X3315040Y2712979D2*
X3363613Y2585369D1*
X3412186Y2712979D1*
X2524002Y1585630D2*
D63*
X2589533D1*
X2611433Y1593042D1*
X2618846Y1600286D1*
X2626090Y1614774D1*
Y1629430D1*
X2618846Y1643918D1*
X2611433Y1651330D1*
X2589533Y1658574D1*
X2524002D1*
Y1505442D1*
X2575046Y1585630D2*
X2626090Y1505442D1*
X2767824Y1658574D2*
X2673148D1*
Y1505442D1*
X2767824D1*
X2673148Y1585630D2*
X2731436D1*
X2814883Y1658574D2*
Y1505442D1*
X2865926D1*
X2887826Y1512855D1*
X2902483Y1527342D1*
X2909726Y1541998D1*
X2916970Y1563730D1*
Y1600286D1*
X2909726Y1622186D1*
X2902483Y1636674D1*
X2887826Y1651330D1*
X2865926Y1658574D1*
X2814883D1*
X3214253Y1636674D2*
X3199765Y1651330D1*
X3177865Y1658574D1*
X3148721D1*
X3126821Y1651330D1*
X3112165Y1636674D1*
Y1622186D1*
X3119577Y1607530D1*
X3126821Y1600286D1*
X3141309Y1593042D1*
X3185109Y1578386D1*
X3199765Y1571142D1*
X3207009Y1563730D1*
X3214253Y1549242D1*
Y1527342D1*
X3199765Y1512855D1*
X3177865Y1505442D1*
X3148721D1*
X3126821Y1512855D1*
X3112165Y1527342D1*
X3312355Y1658574D2*
Y1505442D1*
X3261311Y1658574D2*
X3363399D1*
X3410458Y1585630D2*
X3475989D1*
X3497889Y1593042D1*
X3505302Y1600286D1*
X3512546Y1614774D1*
Y1629430D1*
X3505302Y1643918D1*
X3497889Y1651330D1*
X3475989Y1658574D1*
X3410458D1*
Y1505442D1*
X3461502Y1585630D2*
X3512546Y1505442D1*
X3559604Y1658574D2*
Y1505442D1*
X3606663Y1578386D2*
X3672363D1*
X3694095Y1585630D1*
X3701507Y1593042D1*
X3708751Y1607530D1*
Y1629430D1*
X3701507Y1643918D1*
X3694095Y1651330D1*
X3672363Y1658574D1*
X3606663D1*
Y1505442D1*
X3850485Y1658574D2*
X3755810D1*
Y1505442D1*
X3850485D1*
X3755810Y1585630D2*
X3814097D1*
X36877502D2*
X36943033D1*
X36964933Y1593042D1*
X36972346Y1600286D1*
X36979590Y1614774D1*
Y1629430D1*
X36972346Y1643918D1*
X36964933Y1651330D1*
X36943033Y1658574D1*
X36877502D1*
Y1505442D1*
X36928546Y1585630D2*
X36979590Y1505442D1*
X37121324Y1658574D2*
X37026648D1*
Y1505442D1*
X37121324D1*
X37026648Y1585630D2*
X37084936D1*
X37168383Y1658574D2*
Y1505442D1*
X37219426D1*
X37241326Y1512855D1*
X37255983Y1527342D1*
X37263226Y1541998D1*
X37270470Y1563730D1*
Y1600286D1*
X37263226Y1622186D1*
X37255983Y1636674D1*
X37241326Y1651330D1*
X37219426Y1658574D1*
X37168383D1*
X37567753Y1636674D2*
X37553265Y1651330D1*
X37531365Y1658574D1*
X37502221D1*
X37480321Y1651330D1*
X37465665Y1636674D1*
Y1622186D1*
X37473077Y1607530D1*
X37480321Y1600286D1*
X37494809Y1593042D1*
X37538609Y1578386D1*
X37553265Y1571142D1*
X37560509Y1563730D1*
X37567753Y1549242D1*
Y1527342D1*
X37553265Y1512855D1*
X37531365Y1505442D1*
X37502221D1*
X37480321Y1512855D1*
X37465665Y1527342D1*
X37665855Y1658574D2*
Y1505442D1*
X37614811Y1658574D2*
X37716899D1*
X37763958Y1585630D2*
X37829489D1*
X37851389Y1593042D1*
X37858802Y1600286D1*
X37866046Y1614774D1*
Y1629430D1*
X37858802Y1643918D1*
X37851389Y1651330D1*
X37829489Y1658574D1*
X37763958D1*
Y1505442D1*
X37815002Y1585630D2*
X37866046Y1505442D1*
X37913104Y1658574D2*
Y1505442D1*
X37960163Y1578386D2*
X38025863D1*
X38047595Y1585630D1*
X38055007Y1593042D1*
X38062251Y1607530D1*
Y1629430D1*
X38055007Y1643918D1*
X38047595Y1651330D1*
X38025863Y1658574D1*
X37960163D1*
Y1505442D1*
X38203985Y1658574D2*
X38109310D1*
Y1505442D1*
X38203985D1*
X38109310Y1585630D2*
X38167597D1*
X37611845Y4148871D2*
D64*
Y4061383D1*
X37568157Y4105071D2*
X37655645D1*
X37745305Y4156115D2*
X37696788D1*
X37691959Y4112427D1*
X37696788Y4117256D1*
X37711388Y4122198D1*
X37725876D1*
X37740476Y4117256D1*
X37750246Y4107598D1*
X37755076Y4092998D1*
Y4083339D1*
X37750246Y4068739D1*
X37740476Y4058969D1*
X37725876Y4054139D1*
X37711388D1*
X37696788Y4058969D1*
X37691959Y4063910D1*
X37687017Y4073569D1*
X37786448Y4156227D2*
X37825307Y4054139D1*
X37864165Y4156227D1*
X37554228Y3761988D2*
Y3674500D1*
X37510540Y3718188D2*
X37598028D1*
X37629401Y3749802D2*
X37639171Y3754744D1*
X37653771Y3769232D1*
Y3667256D1*
X37690085Y3744973D2*
Y3749802D1*
X37694915Y3759573D1*
X37699744Y3764402D1*
X37709515Y3769232D1*
X37728944D1*
X37738602Y3764402D1*
X37743432Y3759573D1*
X37748373Y3749802D1*
Y3740144D1*
X37743432Y3730373D1*
X37733773Y3715885D1*
X37685144Y3667256D1*
X37753202D1*
X37784575Y3769344D2*
X37823433Y3667256D1*
X37862292Y3769344D1*
X37730240Y3356482D2*
X37715640Y3351652D1*
X37705870Y3337052D1*
X37701040Y3312794D1*
Y3298194D1*
X37705870Y3273935D1*
X37715640Y3259335D1*
X37730240Y3254506D1*
X37739899D1*
X37754499Y3259335D1*
X37764157Y3273935D1*
X37769099Y3298194D1*
Y3312794D1*
X37764157Y3337052D1*
X37754499Y3351652D1*
X37739899Y3356482D1*
X37730240D1*
X37764157Y3337052D2*
X37705870Y3273935D1*
X37800471Y3356594D2*
X37839330Y3254506D1*
X37878188Y3356594D1*
X37542290Y2892744D2*
X37598444D1*
X37629817Y2924302D2*
X37639588Y2929244D1*
X37654188Y2943732D1*
Y2841756D1*
X37690502Y2919473D2*
Y2924302D1*
X37695331Y2934073D1*
X37700160Y2938902D1*
X37709931Y2943732D1*
X37729360D1*
X37739019Y2938902D1*
X37743848Y2934073D1*
X37748789Y2924302D1*
Y2914644D1*
X37743848Y2904873D1*
X37734189Y2890385D1*
X37685560Y2841756D1*
X37753619D1*
X37784991Y2943844D2*
X37823850Y2841756D1*
X37862708Y2943844D1*
X36689982Y5776973D2*
Y5781802D1*
X36694811Y5791573D1*
X36699640Y5796402D1*
X36709411Y5801232D1*
X36728840D1*
X36738499Y5796402D1*
X36743328Y5791573D1*
X36748270Y5781802D1*
Y5772144D1*
X36743328Y5762373D1*
X36733670Y5747885D1*
X36685040Y5699256D1*
X36753099D1*
X36789413Y5776973D2*
Y5781802D1*
X36794242Y5791573D1*
X36799071Y5796402D1*
X36808842Y5801232D1*
X36828271D1*
X36837930Y5796402D1*
X36842759Y5791573D1*
X36847701Y5781802D1*
Y5772144D1*
X36842759Y5762373D1*
X36833101Y5747885D1*
X36784471Y5699256D1*
X36852530D1*
X36913102Y5801232D2*
X36898502Y5796402D1*
X36888732Y5781802D1*
X36883902Y5757544D1*
Y5742944D1*
X36888732Y5718685D1*
X36898502Y5704085D1*
X36913102Y5699256D1*
X36922761D1*
X36937361Y5704085D1*
X36947019Y5718685D1*
X36951961Y5742944D1*
Y5757544D1*
X36947019Y5781802D1*
X36937361Y5796402D1*
X36922761Y5801232D1*
X36913102D1*
X36947019Y5781802D2*
X36888732Y5718685D1*
X36983333Y5752715D2*
X37027021D1*
X37041621Y5757656D1*
X37046563Y5762485D1*
X37051392Y5772144D1*
Y5781915D1*
X37046563Y5791573D1*
X37041621Y5796515D1*
X37027021Y5801344D1*
X36983333D1*
Y5699256D1*
X37017363Y5752715D2*
X37051392Y5699256D1*
X36782251Y5450802D2*
D62*
X36794465Y5456979D1*
X36812715Y5475088D1*
Y5347619D1*
X36851930Y5475229D2*
Y5347619D1*
X36937003Y5475229D2*
X36851930Y5390156D1*
X36882253Y5420619D2*
X36937003Y5347619D1*
X36782251Y5101552D2*
X36794465Y5107729D1*
X36812715Y5125838D1*
Y4998369D1*
X36851930Y5125979D2*
Y4998369D1*
X36937003Y5125979D2*
X36851930Y5040906D1*
X36882253Y5071369D2*
X36937003Y4998369D1*
X2009497Y5629022D2*
D63*
Y5782154D1*
X1951210Y5629022D1*
X1892922Y5782154D1*
Y5629022D1*
X2100356Y5782154D2*
X2085700Y5774910D1*
X2071212Y5760254D1*
X2063800Y5745766D1*
X2056556Y5723866D1*
Y5687310D1*
X2063800Y5665578D1*
X2071212Y5650922D1*
X2085700Y5636435D1*
X2100356Y5629022D1*
X2129500D1*
X2143988Y5636435D1*
X2158644Y5650922D1*
X2165888Y5665578D1*
X2173132Y5687310D1*
Y5723866D1*
X2165888Y5745766D1*
X2158644Y5760254D1*
X2143988Y5774910D1*
X2129500Y5782154D1*
X2100356D1*
X2220190Y5709210D2*
X2285722D1*
X2307622Y5716622D1*
X2315034Y5723866D1*
X2322278Y5738354D1*
Y5753010D1*
X2315034Y5767498D1*
X2307622Y5774910D1*
X2285722Y5782154D1*
X2220190D1*
Y5629022D1*
X2271234Y5709210D2*
X2322278Y5629022D1*
X2486081D2*
X2427625Y5782154D1*
X2369337Y5629022D1*
X2391237Y5680066D2*
X2464181D1*
X2533140Y5782154D2*
X2591427Y5709210D1*
Y5629022D1*
X2649715Y5782154D2*
X2591427Y5709210D1*
X2696774Y5782154D2*
Y5629022D1*
X2747818D1*
X2769718Y5636435D1*
X2784374Y5650922D1*
X2791618Y5665578D1*
X2798861Y5687310D1*
Y5723866D1*
X2791618Y5745766D1*
X2784374Y5760254D1*
X2769718Y5774910D1*
X2747818Y5782154D1*
X2696774D1*
X2845920D2*
Y5672822D1*
X2853164Y5650922D1*
X2867820Y5636435D1*
X2889720Y5629022D1*
X2904208D1*
X2926108Y5636435D1*
X2940764Y5650922D1*
X2948008Y5672822D1*
Y5782154D1*
X2995067D2*
Y5629022D1*
X3082498D1*
X3246301D2*
X3187845Y5782154D1*
X3129557Y5629022D1*
X3151457Y5680066D2*
X3224401D1*
X3293360Y5709210D2*
X3358891D1*
X3380791Y5716622D1*
X3388204Y5723866D1*
X3395447Y5738354D1*
Y5753010D1*
X3388204Y5767498D1*
X3380791Y5774910D1*
X3358891Y5782154D1*
X3293360D1*
Y5629022D1*
X3344404Y5709210D2*
X3395447Y5629022D1*
X3590642Y5701966D2*
X3656342D1*
X3678074Y5709210D1*
X3685486Y5716622D1*
X3692730Y5731110D1*
Y5753010D1*
X3685486Y5767498D1*
X3678074Y5774910D1*
X3656342Y5782154D1*
X3590642D1*
Y5629022D1*
X3783589Y5782154D2*
X3768932Y5774910D1*
X3754445Y5760254D1*
X3747032Y5745766D1*
X3739789Y5723866D1*
Y5687310D1*
X3747032Y5665578D1*
X3754445Y5650922D1*
X3768932Y5636435D1*
X3783589Y5629022D1*
X3812732D1*
X3827220Y5636435D1*
X3841876Y5650922D1*
X3849120Y5665578D1*
X3856364Y5687310D1*
Y5723866D1*
X3849120Y5745766D1*
X3841876Y5760254D1*
X3827220Y5774910D1*
X3812732Y5782154D1*
X3783589D1*
X3903423D2*
X3939979Y5629022D1*
X3976367Y5782154D1*
X4012754Y5629022D1*
X4049310Y5782154D1*
X4191045D2*
X4096369D1*
Y5629022D1*
X4191045D1*
X4096369Y5709210D2*
X4154657D1*
X4238103D2*
X4303635D1*
X4325535Y5716622D1*
X4332947Y5723866D1*
X4340191Y5738354D1*
Y5753010D1*
X4332947Y5767498D1*
X4325535Y5774910D1*
X4303635Y5782154D1*
X4238103D1*
Y5629022D1*
X4289147Y5709210D2*
X4340191Y5629022D1*
X4535386Y5782154D2*
Y5629022D1*
X4601086D1*
X4622986Y5636435D1*
X4630230Y5643678D1*
X4637473Y5658166D1*
Y5680066D1*
X4630230Y5694722D1*
X4622986Y5701966D1*
X4601086Y5709210D1*
X4622986Y5716622D1*
X4630230Y5723866D1*
X4637473Y5738354D1*
Y5753010D1*
X4630230Y5767498D1*
X4622986Y5774910D1*
X4601086Y5782154D1*
X4535386D1*
Y5709210D2*
X4601086D1*
X4684532Y5782154D2*
Y5672822D1*
X4691776Y5650922D1*
X4706432Y5636435D1*
X4728332Y5629022D1*
X4742820D1*
X4764720Y5636435D1*
X4779376Y5650922D1*
X4786620Y5672822D1*
Y5782154D1*
X4935766Y5760254D2*
X4921279Y5774910D1*
X4899379Y5782154D1*
X4870235D1*
X4848335Y5774910D1*
X4833679Y5760254D1*
Y5745766D1*
X4841091Y5731110D1*
X4848335Y5723866D1*
X4862823Y5716622D1*
X4906623Y5701966D1*
X4921279Y5694722D1*
X4928523Y5687310D1*
X4935766Y5672822D1*
Y5650922D1*
X4921279Y5636435D1*
X4899379Y5629022D1*
X4870235D1*
X4848335Y5636435D1*
X4833679Y5650922D1*
X5130961Y5782154D2*
X5167517Y5629022D1*
X5203905Y5782154D1*
X5240293Y5629022D1*
X5276849Y5782154D1*
X5323908D2*
Y5629022D1*
X5370966Y5782154D2*
Y5629022D1*
X5422010D1*
X5443910Y5636435D1*
X5458566Y5650922D1*
X5465810Y5665578D1*
X5473054Y5687310D1*
Y5723866D1*
X5465810Y5745766D1*
X5458566Y5760254D1*
X5443910Y5774910D1*
X5422010Y5782154D1*
X5370966D1*
X5614788D2*
X5520113D1*
Y5629022D1*
X5614788D1*
X5520113Y5709210D2*
X5578401D1*
X5809983Y5782154D2*
X5868271Y5629022D1*
X5926558Y5782154D1*
X5973617Y5752841D2*
X5988273Y5760254D1*
X6010173Y5781985D1*
Y5629022D1*
X2210595Y4148871D2*
D64*
Y4061383D1*
X2166907Y4105071D2*
X2254395D1*
X2344055Y4156115D2*
X2295538D1*
X2290709Y4112427D1*
X2295538Y4117256D1*
X2310138Y4122198D1*
X2324626D1*
X2339226Y4117256D1*
X2348996Y4107598D1*
X2353826Y4092998D1*
Y4083339D1*
X2348996Y4068739D1*
X2339226Y4058969D1*
X2324626Y4054139D1*
X2310138D1*
X2295538Y4058969D1*
X2290709Y4063910D1*
X2285767Y4073569D1*
X2385198Y4156227D2*
X2424057Y4054139D1*
X2462915Y4156227D1*
X2152978Y3761988D2*
Y3674500D1*
X2109290Y3718188D2*
X2196778D1*
X2228151Y3749802D2*
X2237921Y3754744D1*
X2252521Y3769232D1*
Y3667256D1*
X2288835Y3744973D2*
Y3749802D1*
X2293665Y3759573D1*
X2298494Y3764402D1*
X2308265Y3769232D1*
X2327694D1*
X2337352Y3764402D1*
X2342182Y3759573D1*
X2347123Y3749802D1*
Y3740144D1*
X2342182Y3730373D1*
X2332523Y3715885D1*
X2283894Y3667256D1*
X2351952D1*
X2383325Y3769344D2*
X2422183Y3667256D1*
X2461042Y3769344D1*
X2328990Y3356482D2*
X2314390Y3351652D1*
X2304620Y3337052D1*
X2299790Y3312794D1*
Y3298194D1*
X2304620Y3273935D1*
X2314390Y3259335D1*
X2328990Y3254506D1*
X2338649D1*
X2353249Y3259335D1*
X2362907Y3273935D1*
X2367849Y3298194D1*
Y3312794D1*
X2362907Y3337052D1*
X2353249Y3351652D1*
X2338649Y3356482D1*
X2328990D1*
X2362907Y3337052D2*
X2304620Y3273935D1*
X2399221Y3356594D2*
X2438080Y3254506D1*
X2476938Y3356594D1*
X2141040Y2892744D2*
X2197194D1*
X2228567Y2924302D2*
X2238338Y2929244D1*
X2252938Y2943732D1*
Y2841756D1*
X2289252Y2919473D2*
Y2924302D1*
X2294081Y2934073D1*
X2298910Y2938902D1*
X2308681Y2943732D1*
X2328110D1*
X2337769Y2938902D1*
X2342598Y2934073D1*
X2347539Y2924302D1*
Y2914644D1*
X2342598Y2904873D1*
X2332939Y2890385D1*
X2284310Y2841756D1*
X2352369D1*
X2383741Y2943844D2*
X2422600Y2841756D1*
X2461458Y2943844D1*
X36651111Y4206656D2*
D62*
X36645074Y4218729D1*
X36632861Y4230942D1*
X36620788Y4236979D1*
X36596501D1*
X36584288Y4230942D1*
X36572215Y4218729D1*
X36566038Y4206656D1*
X36560001Y4188406D1*
Y4157942D1*
X36566038Y4139833D1*
X36572215Y4127619D1*
X36584288Y4115546D1*
X36596501Y4109369D1*
X36620788D1*
X36632861Y4115546D1*
X36645074Y4127619D1*
X36651111Y4139833D1*
Y4157942D1*
X36620788D1*
X36787613Y4109369D2*
X36738900Y4236979D1*
X36690326Y4109369D1*
X36708576Y4151906D2*
X36769363D1*
X36869365Y4236979D2*
Y4109369D1*
X36826829Y4236979D2*
X36911902D1*
X37030014D2*
X36951117D1*
Y4109369D1*
X37030014D1*
X36951117Y4176192D2*
X36999690D1*
X36873361Y3952656D2*
X36867324Y3964729D1*
X36855111Y3976942D1*
X36843038Y3982979D1*
X36818751D1*
X36806538Y3976942D1*
X36794465Y3964729D1*
X36788288Y3952656D1*
X36782251Y3934406D1*
Y3903942D1*
X36788288Y3885833D1*
X36794465Y3873619D1*
X36806538Y3861546D1*
X36818751Y3855369D1*
X36843038D1*
X36855111Y3861546D1*
X36867324Y3873619D1*
X36873361Y3885833D1*
X36912576Y3982979D2*
X36961150Y3855369D1*
X37009723Y3982979D1*
X36709861Y3719784D2*
Y3610424D1*
X36655251Y3665034D2*
X36764611D1*
X36876686Y3728838D2*
X36816040D1*
X36810003Y3674229D1*
X36816040Y3680265D1*
X36834290Y3686442D1*
X36852400D1*
X36870650Y3680265D1*
X36882863Y3668192D1*
X36888900Y3649942D1*
Y3637869D1*
X36882863Y3619619D1*
X36870650Y3607406D1*
X36852400Y3601369D1*
X36834290D1*
X36816040Y3607406D1*
X36810003Y3613583D1*
X36803826Y3625656D1*
X36928115Y3728979D2*
X36976688Y3601369D1*
X37025261Y3728979D1*
X36646361Y3465784D2*
Y3356424D1*
X36591751Y3411034D2*
X36701111D1*
X36740326Y3450552D2*
X36752540Y3456729D1*
X36770790Y3474838D1*
Y3347369D1*
X36816183Y3444515D2*
Y3450552D1*
X36822219Y3462765D1*
X36828256Y3468802D1*
X36840469Y3474838D1*
X36864756D1*
X36876829Y3468802D1*
X36882865Y3462765D1*
X36889042Y3450552D1*
Y3438479D1*
X36882865Y3426265D1*
X36870792Y3408156D1*
X36810006Y3347369D1*
X36895079D1*
X36934294Y3474979D2*
X36982867Y3347369D1*
X37031440Y3474979D1*
X36591751Y2395104D2*
X36661943D1*
X36701159Y2434552D2*
X36713373Y2440729D1*
X36731623Y2458838D1*
Y2331369D1*
X36777015Y2428515D2*
Y2434552D1*
X36783052Y2446765D1*
X36789088Y2452802D1*
X36801302Y2458838D1*
X36825588D1*
X36837661Y2452802D1*
X36843698Y2446765D1*
X36849875Y2434552D1*
Y2422479D1*
X36843698Y2410265D1*
X36831625Y2392156D1*
X36770838Y2331369D1*
X36855911D1*
X36895127Y2458979D2*
X36943700Y2331369D1*
X36992273Y2458979D1*
X36818751Y3220838D2*
X36800501Y3214802D1*
X36788288Y3196552D1*
X36782251Y3166229D1*
Y3147979D1*
X36788288Y3117656D1*
X36800501Y3099406D1*
X36818751Y3093369D1*
X36830824D1*
X36849074Y3099406D1*
X36861147Y3117656D1*
X36867324Y3147979D1*
Y3166229D1*
X36861147Y3196552D1*
X36849074Y3214802D1*
X36830824Y3220838D1*
X36818751D1*
X36861147Y3196552D2*
X36788288Y3117656D1*
X36906540Y3220979D2*
X36955113Y3093369D1*
X37003686Y3220979D1*
X36818751Y2966838D2*
X36800501Y2960802D1*
X36788288Y2942552D1*
X36782251Y2912229D1*
Y2893979D1*
X36788288Y2863656D1*
X36800501Y2845406D1*
X36818751Y2839369D1*
X36830824D1*
X36849074Y2845406D1*
X36861147Y2863656D1*
X36867324Y2893979D1*
Y2912229D1*
X36861147Y2942552D1*
X36849074Y2960802D1*
X36830824Y2966838D1*
X36818751D1*
X36861147Y2942552D2*
X36788288Y2863656D1*
X36906540Y2966979D2*
X36955113Y2839369D1*
X37003686Y2966979D1*
X36818751Y2712838D2*
X36800501Y2706802D1*
X36788288Y2688552D1*
X36782251Y2658229D1*
Y2639979D1*
X36788288Y2609656D1*
X36800501Y2591406D1*
X36818751Y2585369D1*
X36830824D1*
X36849074Y2591406D1*
X36861147Y2609656D1*
X36867324Y2639979D1*
Y2658229D1*
X36861147Y2688552D1*
X36849074Y2706802D1*
X36830824Y2712838D1*
X36818751D1*
X36861147Y2688552D2*
X36788288Y2609656D1*
X36906540Y2712979D2*
X36955113Y2585369D1*
X37003686Y2712979D1*
M02*
