G04 DipTrace 3.0.0.1*
G04 156bus-narrow.GTO*
%MOMM*%
G04 #@! TF.FileFunction,Legend,Top*
G04 #@! TF.Part,Single*
%ADD10C,0.25*%
%ADD38C,0.15686*%
%FSLAX35Y35*%
G04*
G71*
G90*
G75*
G01*
G04 TopSilk*
%LPD*%
X2128980Y1084300D2*
D10*
X544020D1*
Y322300D1*
X2128980D1*
Y1084300D1*
X1930860Y550900D2*
X742140D1*
Y322300D1*
X1930860D1*
Y550900D1*
X3828980Y1082800D2*
X2244020D1*
Y320800D1*
X3828980D1*
Y1082800D1*
X3630860Y549400D2*
X2442140D1*
Y320800D1*
X3630860D1*
Y549400D1*
X5528980Y1082800D2*
X3944020D1*
Y320800D1*
X5528980D1*
Y1082800D1*
X5330860Y549400D2*
X4142140D1*
Y320800D1*
X5330860D1*
Y549400D1*
X7228980Y1082800D2*
X5644020D1*
Y320800D1*
X7228980D1*
Y1082800D1*
X7030860Y549400D2*
X5842140D1*
Y320800D1*
X7030860D1*
Y549400D1*
X8928980Y1082800D2*
X7344020D1*
Y320800D1*
X8928980D1*
Y1082800D1*
X8730860Y549400D2*
X7542140D1*
Y320800D1*
X8730860D1*
Y549400D1*
X10628980Y1082800D2*
X9044020D1*
Y320800D1*
X10628980D1*
Y1082800D1*
X10430860Y549400D2*
X9242140D1*
Y320800D1*
X10430860D1*
Y549400D1*
X12328980Y1082800D2*
X10744020D1*
Y320800D1*
X12328980D1*
Y1082800D1*
X12130860Y549400D2*
X10942140D1*
Y320800D1*
X12130860D1*
Y549400D1*
X14028980Y1082800D2*
X12444020D1*
Y320800D1*
X14028980D1*
Y1082800D1*
X13830860Y549400D2*
X12642140D1*
Y320800D1*
X13830860D1*
Y549400D1*
X1396983Y1777842D2*
Y1397158D1*
X1396412Y1778604D2*
G03X1396412Y1396396I-253481J-191104D01*
G01*
X2031983Y1777842D2*
Y1397158D1*
X2031412Y1778604D2*
G03X2031412Y1396396I-253481J-191104D01*
G01*
X742188Y220027D2*
D38*
Y132539D1*
X698500Y176227D2*
X785988D1*
X916117Y125295D2*
X984176Y227271D1*
X1143506D2*
X1128906Y222442D1*
X1119135Y207842D1*
X1114306Y183583D1*
Y168983D1*
X1119135Y144725D1*
X1128906Y130125D1*
X1143506Y125295D1*
X1153164D1*
X1167764Y130125D1*
X1177423Y144725D1*
X1182364Y168983D1*
Y183583D1*
X1177423Y207842D1*
X1167764Y222442D1*
X1153164Y227271D1*
X1143506D1*
X1177423Y207842D2*
X1119135Y144725D1*
X1312494Y125295D2*
X1380552Y227271D1*
X1539882D2*
X1525282Y222442D1*
X1515511Y207842D1*
X1510682Y183583D1*
Y168983D1*
X1515511Y144725D1*
X1525282Y130125D1*
X1539882Y125295D1*
X1549540D1*
X1564140Y130125D1*
X1573799Y144725D1*
X1578740Y168983D1*
Y183583D1*
X1573799Y207842D1*
X1564140Y222442D1*
X1549540Y227271D1*
X1539882D1*
X1573799Y207842D2*
X1515511Y144725D1*
X1708870Y125295D2*
X1776929Y227271D1*
X1907058Y176283D2*
X1963212D1*
X2442188Y220027D2*
Y132539D1*
X2398500Y176227D2*
X2485988D1*
X2616117Y125295D2*
X2684176Y227271D1*
X2843506D2*
X2828906Y222442D1*
X2819135Y207842D1*
X2814306Y183583D1*
Y168983D1*
X2819135Y144725D1*
X2828906Y130125D1*
X2843506Y125295D1*
X2853164D1*
X2867764Y130125D1*
X2877423Y144725D1*
X2882364Y168983D1*
Y183583D1*
X2877423Y207842D1*
X2867764Y222442D1*
X2853164Y227271D1*
X2843506D1*
X2877423Y207842D2*
X2819135Y144725D1*
X3012494Y125295D2*
X3080552Y227271D1*
X3239882D2*
X3225282Y222442D1*
X3215511Y207842D1*
X3210682Y183583D1*
Y168983D1*
X3215511Y144725D1*
X3225282Y130125D1*
X3239882Y125295D1*
X3249540D1*
X3264140Y130125D1*
X3273799Y144725D1*
X3278740Y168983D1*
Y183583D1*
X3273799Y207842D1*
X3264140Y222442D1*
X3249540Y227271D1*
X3239882D1*
X3273799Y207842D2*
X3215511Y144725D1*
X3408870Y125295D2*
X3476929Y227271D1*
X3607058Y176283D2*
X3663212D1*
X4142188Y220027D2*
Y132539D1*
X4098500Y176227D2*
X4185988D1*
X4316117Y125295D2*
X4384176Y227271D1*
X4543506D2*
X4528906Y222442D1*
X4519135Y207842D1*
X4514306Y183583D1*
Y168983D1*
X4519135Y144725D1*
X4528906Y130125D1*
X4543506Y125295D1*
X4553164D1*
X4567764Y130125D1*
X4577423Y144725D1*
X4582364Y168983D1*
Y183583D1*
X4577423Y207842D1*
X4567764Y222442D1*
X4553164Y227271D1*
X4543506D1*
X4577423Y207842D2*
X4519135Y144725D1*
X4712494Y125295D2*
X4780552Y227271D1*
X4939882D2*
X4925282Y222442D1*
X4915511Y207842D1*
X4910682Y183583D1*
Y168983D1*
X4915511Y144725D1*
X4925282Y130125D1*
X4939882Y125295D1*
X4949540D1*
X4964140Y130125D1*
X4973799Y144725D1*
X4978740Y168983D1*
Y183583D1*
X4973799Y207842D1*
X4964140Y222442D1*
X4949540Y227271D1*
X4939882D1*
X4973799Y207842D2*
X4915511Y144725D1*
X5108870Y125295D2*
X5176929Y227271D1*
X5307058Y176283D2*
X5363212D1*
X5842188Y220027D2*
Y132539D1*
X5798500Y176227D2*
X5885988D1*
X6016117Y125295D2*
X6084176Y227271D1*
X6243506D2*
X6228906Y222442D1*
X6219135Y207842D1*
X6214306Y183583D1*
Y168983D1*
X6219135Y144725D1*
X6228906Y130125D1*
X6243506Y125295D1*
X6253164D1*
X6267764Y130125D1*
X6277423Y144725D1*
X6282364Y168983D1*
Y183583D1*
X6277423Y207842D1*
X6267764Y222442D1*
X6253164Y227271D1*
X6243506D1*
X6277423Y207842D2*
X6219135Y144725D1*
X6412494Y125295D2*
X6480552Y227271D1*
X6639882D2*
X6625282Y222442D1*
X6615511Y207842D1*
X6610682Y183583D1*
Y168983D1*
X6615511Y144725D1*
X6625282Y130125D1*
X6639882Y125295D1*
X6649540D1*
X6664140Y130125D1*
X6673799Y144725D1*
X6678740Y168983D1*
Y183583D1*
X6673799Y207842D1*
X6664140Y222442D1*
X6649540Y227271D1*
X6639882D1*
X6673799Y207842D2*
X6615511Y144725D1*
X6808870Y125295D2*
X6876929Y227271D1*
X7007058Y176283D2*
X7063212D1*
X7542188Y220027D2*
Y132539D1*
X7498500Y176227D2*
X7585988D1*
X7716117Y125295D2*
X7784176Y227271D1*
X7943506D2*
X7928906Y222442D1*
X7919135Y207842D1*
X7914306Y183583D1*
Y168983D1*
X7919135Y144725D1*
X7928906Y130125D1*
X7943506Y125295D1*
X7953164D1*
X7967764Y130125D1*
X7977423Y144725D1*
X7982364Y168983D1*
Y183583D1*
X7977423Y207842D1*
X7967764Y222442D1*
X7953164Y227271D1*
X7943506D1*
X7977423Y207842D2*
X7919135Y144725D1*
X8112494Y125295D2*
X8180552Y227271D1*
X8339882D2*
X8325282Y222442D1*
X8315511Y207842D1*
X8310682Y183583D1*
Y168983D1*
X8315511Y144725D1*
X8325282Y130125D1*
X8339882Y125295D1*
X8349540D1*
X8364140Y130125D1*
X8373799Y144725D1*
X8378740Y168983D1*
Y183583D1*
X8373799Y207842D1*
X8364140Y222442D1*
X8349540Y227271D1*
X8339882D1*
X8373799Y207842D2*
X8315511Y144725D1*
X8508870Y125295D2*
X8576929Y227271D1*
X8707058Y176283D2*
X8763212D1*
X9242188Y220027D2*
Y132539D1*
X9198500Y176227D2*
X9285988D1*
X9416117Y125295D2*
X9484176Y227271D1*
X9643506D2*
X9628906Y222442D1*
X9619135Y207842D1*
X9614306Y183583D1*
Y168983D1*
X9619135Y144725D1*
X9628906Y130125D1*
X9643506Y125295D1*
X9653164D1*
X9667764Y130125D1*
X9677423Y144725D1*
X9682364Y168983D1*
Y183583D1*
X9677423Y207842D1*
X9667764Y222442D1*
X9653164Y227271D1*
X9643506D1*
X9677423Y207842D2*
X9619135Y144725D1*
X9812494Y125295D2*
X9880552Y227271D1*
X10039882D2*
X10025282Y222442D1*
X10015511Y207842D1*
X10010682Y183583D1*
Y168983D1*
X10015511Y144725D1*
X10025282Y130125D1*
X10039882Y125295D1*
X10049540D1*
X10064140Y130125D1*
X10073799Y144725D1*
X10078740Y168983D1*
Y183583D1*
X10073799Y207842D1*
X10064140Y222442D1*
X10049540Y227271D1*
X10039882D1*
X10073799Y207842D2*
X10015511Y144725D1*
X10208870Y125295D2*
X10276929Y227271D1*
X10407058Y176283D2*
X10463212D1*
X10942188Y220027D2*
Y132539D1*
X10898500Y176227D2*
X10985988D1*
X11116117Y125295D2*
X11184176Y227271D1*
X11343506D2*
X11328906Y222442D1*
X11319135Y207842D1*
X11314306Y183583D1*
Y168983D1*
X11319135Y144725D1*
X11328906Y130125D1*
X11343506Y125295D1*
X11353164D1*
X11367764Y130125D1*
X11377423Y144725D1*
X11382364Y168983D1*
Y183583D1*
X11377423Y207842D1*
X11367764Y222442D1*
X11353164Y227271D1*
X11343506D1*
X11377423Y207842D2*
X11319135Y144725D1*
X11512494Y125295D2*
X11580552Y227271D1*
X11739882D2*
X11725282Y222442D1*
X11715511Y207842D1*
X11710682Y183583D1*
Y168983D1*
X11715511Y144725D1*
X11725282Y130125D1*
X11739882Y125295D1*
X11749540D1*
X11764140Y130125D1*
X11773799Y144725D1*
X11778740Y168983D1*
Y183583D1*
X11773799Y207842D1*
X11764140Y222442D1*
X11749540Y227271D1*
X11739882D1*
X11773799Y207842D2*
X11715511Y144725D1*
X11908870Y125295D2*
X11976929Y227271D1*
X12107058Y176283D2*
X12163212D1*
X12642188Y220027D2*
Y132539D1*
X12598500Y176227D2*
X12685988D1*
X12816117Y125295D2*
X12884176Y227271D1*
X13043506D2*
X13028906Y222442D1*
X13019135Y207842D1*
X13014306Y183583D1*
Y168983D1*
X13019135Y144725D1*
X13028906Y130125D1*
X13043506Y125295D1*
X13053164D1*
X13067764Y130125D1*
X13077423Y144725D1*
X13082364Y168983D1*
Y183583D1*
X13077423Y207842D1*
X13067764Y222442D1*
X13053164Y227271D1*
X13043506D1*
X13077423Y207842D2*
X13019135Y144725D1*
X13212494Y125295D2*
X13280552Y227271D1*
X13439882D2*
X13425282Y222442D1*
X13415511Y207842D1*
X13410682Y183583D1*
Y168983D1*
X13415511Y144725D1*
X13425282Y130125D1*
X13439882Y125295D1*
X13449540D1*
X13464140Y130125D1*
X13473799Y144725D1*
X13478740Y168983D1*
Y183583D1*
X13473799Y207842D1*
X13464140Y222442D1*
X13449540Y227271D1*
X13439882D1*
X13473799Y207842D2*
X13415511Y144725D1*
X13608870Y125295D2*
X13676929Y227271D1*
X13807058Y176283D2*
X13863212D1*
X615188Y1871027D2*
Y1783539D1*
X571500Y1827227D2*
X658988D1*
X690360Y1878383D2*
X729219Y1776295D1*
X768077Y1878383D1*
X2159000Y1827283D2*
X2215154D1*
X2246526Y1878383D2*
X2285385Y1776295D1*
X2324243Y1878383D1*
M02*
