M48
METRIC,0000.00
T01C0.711
T02C1.778
T03C3.3
%
T01
X+001016Y+001587
X+001270Y+001587
X+001651Y+001587
X+001905Y+001587
T02
X+000742Y+000779
X+001138Y+000779
X+001535Y+000779
X+001931Y+000779
X+002442Y+000778
X+002838Y+000778
X+003235Y+000778
X+003631Y+000778
X+004142Y+000778
X+004538Y+000778
X+004935Y+000778
X+005331Y+000778
X+005842Y+000778
X+006238Y+000778
X+006635Y+000778
X+007031Y+000778
X+007542Y+000778
X+007938Y+000778
X+008335Y+000778
X+008731Y+000778
X+009242Y+000778
X+009638Y+000778
X+010035Y+000778
X+010431Y+000778
X+010942Y+000778
X+011338Y+000778
X+011735Y+000778
X+012131Y+000778
X+012642Y+000778
X+013038Y+000778
X+013435Y+000778
X+013831Y+000778
T03
X+000200Y+001587
X+000200Y+000424
X+007300Y+001587
X+014400Y+001587
X+014400Y+000424
T00
M30
