G04 DipTrace 3.0.0.1*
G04 156bus-narrow.GBL*
%MOMM*%
G04 #@! TF.FileFunction,Copper,L2,Bot*
G04 #@! TF.Part,Single*
G04 #@! TA.AperFunction,CopperBalancing*
%ADD14C,0.508*%
%ADD16C,0.635*%
%ADD17C,3.0*%
G04 #@! TA.AperFunction,ComponentPad*
%ADD18C,3.048*%
%ADD21C,1.27*%
%ADD22R,1.27X1.27*%
%FSLAX35Y35*%
G04*
G71*
G90*
G75*
G01*
G04 Bottom*
%LPD*%
X461578Y1746583D2*
D16*
X889409D1*
X1475718D2*
X1524409D1*
X2110718D2*
X7038367D1*
X7561672D2*
X14138337D1*
X491468Y1683417D2*
X834839D1*
X2110718D2*
X7008478D1*
X7591437D2*
X14108571D1*
X505482Y1620250D2*
X813011D1*
X2110718D2*
X6994587D1*
X7605452D2*
X14094557D1*
X505730Y1557083D2*
X812639D1*
X2110718D2*
X6994339D1*
X7605700D2*
X14094309D1*
X492336Y1493917D2*
X833599D1*
X2110718D2*
X7007609D1*
X7592430D2*
X14107579D1*
X463314Y1430750D2*
X886433D1*
X1475718D2*
X1521433D1*
X2110718D2*
X7036755D1*
X7563284D2*
X14136725D1*
X411969Y1367583D2*
X7088101D1*
X7511938D2*
X14188070D1*
X38162Y1304417D2*
X91070D1*
X308905D2*
X7191164D1*
X7408875D2*
X14291134D1*
X38162Y1241250D2*
X14503338D1*
X38162Y1178083D2*
X14503338D1*
X38162Y1114917D2*
X14503338D1*
X38162Y1051750D2*
X640990D1*
X843322D2*
X1037245D1*
X1239577D2*
X1433500D1*
X1635832D2*
X1829631D1*
X2032087D2*
X2345444D1*
X2538847D2*
X2741575D1*
X2935101D2*
X3137830D1*
X3331356D2*
X3534085D1*
X3727611D2*
X4045434D1*
X4238836D2*
X4441689D1*
X4635091D2*
X4837819D1*
X5031346D2*
X5234074D1*
X5427600D2*
X5745423D1*
X5938949D2*
X6141678D1*
X6335080D2*
X6537809D1*
X6731335D2*
X6934064D1*
X7127590D2*
X7445412D1*
X7638938D2*
X7841667D1*
X8035069D2*
X8237922D1*
X8431324D2*
X8634053D1*
X8827579D2*
X9145401D1*
X9338928D2*
X9541656D1*
X9735183D2*
X9937911D1*
X10131313D2*
X10334166D1*
X10527568D2*
X10845391D1*
X11038917D2*
X11241646D1*
X11435172D2*
X11637900D1*
X11831427D2*
X12034155D1*
X12227558D2*
X12545380D1*
X12738906D2*
X12941635D1*
X13135161D2*
X13337890D1*
X13531416D2*
X13734145D1*
X13927671D2*
X14503338D1*
X38162Y988583D2*
X537307D1*
X2135646D2*
X2238908D1*
X3834147D2*
X3938898D1*
X5534137D2*
X5638887D1*
X7234126D2*
X7338876D1*
X8934115D2*
X9038865D1*
X10634104D2*
X10738855D1*
X12334094D2*
X12438844D1*
X14034083D2*
X14503338D1*
X38162Y925417D2*
X487201D1*
X14084933D2*
X14503338D1*
X38162Y862250D2*
X459668D1*
X14112962D2*
X14503338D1*
X38162Y799083D2*
X448134D1*
X14124744D2*
X14503338D1*
X38162Y735917D2*
X450862D1*
X14122388D2*
X14503338D1*
X375382Y672750D2*
X467978D1*
X14105644D2*
X14224657D1*
X442975Y609583D2*
X502952D1*
X14071166D2*
X14156941D1*
X481174Y546417D2*
X566080D1*
X918108D2*
X962335D1*
X1314363D2*
X1358565D1*
X1710618D2*
X1754845D1*
X2106873D2*
X2264085D1*
X2620206D2*
X2660339D1*
X3016461D2*
X3056595D1*
X3412716D2*
X3452807D1*
X3808847D2*
X3964074D1*
X4320195D2*
X4360329D1*
X4716450D2*
X4756584D1*
X5112705D2*
X5152839D1*
X5508960D2*
X5664064D1*
X6020184D2*
X6060318D1*
X6416439D2*
X6456573D1*
X6812694D2*
X6852828D1*
X7208949D2*
X7364053D1*
X7720174D2*
X7760308D1*
X8116429D2*
X8156563D1*
X8512683D2*
X8552817D1*
X8908938D2*
X9064042D1*
X9420163D2*
X9460297D1*
X9816418D2*
X9856552D1*
X10212673D2*
X10252807D1*
X10608928D2*
X10764031D1*
X11120152D2*
X11160296D1*
X11516407D2*
X11556541D1*
X11912662D2*
X11952868D1*
X12308917D2*
X12464145D1*
X12820142D2*
X12860275D1*
X13216396D2*
X13256628D1*
X13612651D2*
X13652785D1*
X14008906D2*
X14118865D1*
X501266Y483250D2*
X14098650D1*
X507219Y420083D2*
X14092820D1*
X499653Y356917D2*
X14100262D1*
X477701Y293750D2*
X14122338D1*
X437021Y230583D2*
X14163018D1*
X499962Y1563692D2*
X497186Y1540230D1*
X492576Y1517059D1*
X486163Y1494320D1*
X477986Y1472154D1*
X468095Y1450699D1*
X456551Y1430085D1*
X443425Y1410441D1*
X428799Y1391888D1*
X412761Y1374539D1*
X395412Y1358501D1*
X376859Y1343875D1*
X357215Y1330749D1*
X336601Y1319205D1*
X315146Y1309314D1*
X292980Y1301137D1*
X270241Y1294724D1*
X247070Y1290114D1*
X223608Y1287338D1*
X200000Y1286410D1*
X176392Y1287338D1*
X152930Y1290114D1*
X129759Y1294724D1*
X107020Y1301137D1*
X84854Y1309314D1*
X63399Y1319205D1*
X31812Y1338081D1*
X31750Y673323D1*
X63399Y691895D1*
X84854Y701786D1*
X107020Y709963D1*
X129759Y716376D1*
X152930Y720986D1*
X176392Y723762D1*
X200000Y724690D1*
X223608Y723762D1*
X247070Y720986D1*
X270241Y716376D1*
X292980Y709963D1*
X315146Y701786D1*
X336601Y691895D1*
X357215Y680351D1*
X376859Y667225D1*
X395412Y652599D1*
X412761Y636561D1*
X428799Y619212D1*
X443425Y600659D1*
X456551Y581015D1*
X468095Y560401D1*
X477986Y538946D1*
X486163Y516780D1*
X492576Y494041D1*
X497186Y470870D1*
X499962Y447408D1*
X500890Y423800D1*
X499962Y400192D1*
X497186Y376730D1*
X492576Y353559D1*
X486163Y330820D1*
X477986Y308654D1*
X468095Y287199D1*
X456551Y266585D1*
X443425Y246941D1*
X423098Y222221D1*
X14176499Y222250D1*
X14156575Y246941D1*
X14143449Y266585D1*
X14131905Y287199D1*
X14122014Y308654D1*
X14113837Y330820D1*
X14107424Y353559D1*
X14102814Y376730D1*
X14100038Y400192D1*
X14099110Y423800D1*
X14100038Y447408D1*
X14102814Y470870D1*
X14107424Y494041D1*
X14113837Y516780D1*
X14122014Y538946D1*
X14131905Y560401D1*
X14143449Y581015D1*
X14156575Y600659D1*
X14171201Y619212D1*
X14187239Y636561D1*
X14204588Y652599D1*
X14223141Y667225D1*
X14242785Y680351D1*
X14263399Y691895D1*
X14284854Y701786D1*
X14307020Y709963D1*
X14329759Y716376D1*
X14352930Y720986D1*
X14376392Y723762D1*
X14400000Y724690D1*
X14423608Y723762D1*
X14447070Y720986D1*
X14470241Y716376D1*
X14492980Y709963D1*
X14509691Y703798D1*
X14509750Y1307083D1*
X14470241Y1294724D1*
X14447070Y1290114D1*
X14423608Y1287338D1*
X14400000Y1286410D1*
X14376392Y1287338D1*
X14352930Y1290114D1*
X14329759Y1294724D1*
X14307020Y1301137D1*
X14284854Y1309314D1*
X14263399Y1319205D1*
X14242785Y1330749D1*
X14223141Y1343875D1*
X14204588Y1358501D1*
X14187239Y1374539D1*
X14171201Y1391888D1*
X14156575Y1410441D1*
X14143449Y1430085D1*
X14131905Y1450699D1*
X14122014Y1472154D1*
X14113837Y1494320D1*
X14107424Y1517059D1*
X14102814Y1540230D1*
X14100038Y1563692D1*
X14099110Y1587300D1*
X14100038Y1610908D1*
X14102814Y1634370D1*
X14107424Y1657541D1*
X14113837Y1680280D1*
X14122014Y1702446D1*
X14131905Y1723901D1*
X14143449Y1744515D1*
X14156575Y1764159D1*
X14171201Y1782712D1*
X14197743Y1809771D1*
X7502550Y1809750D1*
X7528799Y1782712D1*
X7543425Y1764159D1*
X7556551Y1744515D1*
X7568095Y1723901D1*
X7577986Y1702446D1*
X7586163Y1680280D1*
X7592576Y1657541D1*
X7597186Y1634370D1*
X7599962Y1610908D1*
X7600890Y1587300D1*
X7599962Y1563692D1*
X7597186Y1540230D1*
X7592576Y1517059D1*
X7586163Y1494320D1*
X7577986Y1472154D1*
X7568095Y1450699D1*
X7556551Y1430085D1*
X7543425Y1410441D1*
X7528799Y1391888D1*
X7512761Y1374539D1*
X7495412Y1358501D1*
X7476859Y1343875D1*
X7457215Y1330749D1*
X7436601Y1319205D1*
X7415146Y1309314D1*
X7392980Y1301137D1*
X7370241Y1294724D1*
X7347070Y1290114D1*
X7323608Y1287338D1*
X7300000Y1286410D1*
X7276392Y1287338D1*
X7252930Y1290114D1*
X7229759Y1294724D1*
X7207020Y1301137D1*
X7184854Y1309314D1*
X7163399Y1319205D1*
X7142785Y1330749D1*
X7123141Y1343875D1*
X7104588Y1358501D1*
X7087239Y1374539D1*
X7071201Y1391888D1*
X7056575Y1410441D1*
X7043449Y1430085D1*
X7031905Y1450699D1*
X7022014Y1472154D1*
X7013837Y1494320D1*
X7007424Y1517059D1*
X7002814Y1540230D1*
X7000038Y1563692D1*
X6999110Y1587300D1*
X7000038Y1610908D1*
X7002814Y1634370D1*
X7007424Y1657541D1*
X7013837Y1680280D1*
X7022014Y1702446D1*
X7031905Y1723901D1*
X7043449Y1744515D1*
X7056575Y1764159D1*
X7071201Y1782712D1*
X7097743Y1809771D1*
X402704Y1809750D1*
X428799Y1782712D1*
X443425Y1764159D1*
X456551Y1744515D1*
X468095Y1723901D1*
X477986Y1702446D1*
X486163Y1680280D1*
X492576Y1657541D1*
X497186Y1634370D1*
X499962Y1610908D1*
X500890Y1587300D1*
X499962Y1563692D1*
X940083Y570186D2*
X911593Y546268D1*
X892771Y533692D1*
X873021Y522632D1*
X852464Y513155D1*
X831227Y505320D1*
X809440Y499175D1*
X787238Y494759D1*
X764759Y492099D1*
X742140Y491210D1*
X719521Y492099D1*
X697042Y494759D1*
X674840Y499175D1*
X653053Y505320D1*
X631816Y513155D1*
X611259Y522632D1*
X591509Y533692D1*
X572687Y546268D1*
X554911Y560283D1*
X538288Y575648D1*
X522923Y592271D1*
X508908Y610047D1*
X496332Y628869D1*
X485272Y648619D1*
X475795Y669176D1*
X467960Y690413D1*
X461815Y712200D1*
X457399Y734402D1*
X454739Y756881D1*
X453850Y779500D1*
X454739Y802119D1*
X457399Y824598D1*
X461815Y846800D1*
X467960Y868587D1*
X475795Y889824D1*
X485272Y910381D1*
X496332Y930131D1*
X508908Y948953D1*
X522923Y966729D1*
X538288Y983352D1*
X554911Y998717D1*
X572687Y1012732D1*
X591509Y1025308D1*
X611259Y1036368D1*
X631816Y1045845D1*
X653053Y1053680D1*
X674840Y1059825D1*
X697042Y1064241D1*
X719521Y1066901D1*
X742140Y1067790D1*
X764759Y1066901D1*
X787238Y1064241D1*
X809440Y1059825D1*
X831227Y1053680D1*
X852464Y1045845D1*
X873021Y1036368D1*
X892771Y1025308D1*
X911593Y1012732D1*
X940083Y988814D1*
X961733Y1007331D1*
X987844Y1025366D1*
X1015779Y1040422D1*
X1045199Y1052316D1*
X1075749Y1060904D1*
X1107057Y1066083D1*
X1138745Y1067790D1*
X1170429Y1066003D1*
X1201724Y1060745D1*
X1232252Y1052079D1*
X1261642Y1040110D1*
X1289539Y1024983D1*
X1315604Y1006882D1*
X1336487Y988917D1*
X1357973Y1007331D1*
X1384084Y1025366D1*
X1412019Y1040422D1*
X1441439Y1052316D1*
X1471989Y1060904D1*
X1503297Y1066083D1*
X1534985Y1067790D1*
X1566669Y1066003D1*
X1597964Y1060745D1*
X1628492Y1052079D1*
X1657882Y1040110D1*
X1685779Y1024983D1*
X1711844Y1006882D1*
X1732727Y988917D1*
X1761407Y1012732D1*
X1780229Y1025308D1*
X1799979Y1036368D1*
X1820536Y1045845D1*
X1841773Y1053680D1*
X1863560Y1059825D1*
X1885762Y1064241D1*
X1908241Y1066901D1*
X1930860Y1067790D1*
X1953479Y1066901D1*
X1975958Y1064241D1*
X1998160Y1059825D1*
X2019947Y1053680D1*
X2041184Y1045845D1*
X2061741Y1036368D1*
X2081491Y1025308D1*
X2100313Y1012732D1*
X2118089Y998717D1*
X2134712Y983352D1*
X2150077Y966729D1*
X2164092Y948953D1*
X2176668Y930131D1*
X2186821Y912001D1*
X2208908Y947453D1*
X2222923Y965229D1*
X2238288Y981852D1*
X2254911Y997217D1*
X2272687Y1011232D1*
X2291509Y1023808D1*
X2311259Y1034868D1*
X2331816Y1044345D1*
X2353053Y1052180D1*
X2374840Y1058325D1*
X2397042Y1062741D1*
X2419521Y1065401D1*
X2442140Y1066290D1*
X2464759Y1065401D1*
X2487238Y1062741D1*
X2509440Y1058325D1*
X2531227Y1052180D1*
X2552464Y1044345D1*
X2573021Y1034868D1*
X2592771Y1023808D1*
X2611593Y1011232D1*
X2640083Y987314D1*
X2661733Y1005831D1*
X2687844Y1023866D1*
X2715779Y1038922D1*
X2745199Y1050816D1*
X2775749Y1059404D1*
X2807057Y1064583D1*
X2838745Y1066290D1*
X2870429Y1064503D1*
X2901724Y1059245D1*
X2932252Y1050579D1*
X2961642Y1038610D1*
X2989539Y1023483D1*
X3015604Y1005382D1*
X3036487Y987417D1*
X3057973Y1005831D1*
X3084084Y1023866D1*
X3112019Y1038922D1*
X3141439Y1050816D1*
X3171989Y1059404D1*
X3203297Y1064583D1*
X3234985Y1066290D1*
X3266669Y1064503D1*
X3297964Y1059245D1*
X3328492Y1050579D1*
X3357882Y1038610D1*
X3385779Y1023483D1*
X3411844Y1005382D1*
X3432727Y987417D1*
X3461407Y1011232D1*
X3480229Y1023808D1*
X3499979Y1034868D1*
X3520536Y1044345D1*
X3541773Y1052180D1*
X3563560Y1058325D1*
X3585762Y1062741D1*
X3608241Y1065401D1*
X3630860Y1066290D1*
X3653479Y1065401D1*
X3675958Y1062741D1*
X3698160Y1058325D1*
X3719947Y1052180D1*
X3741184Y1044345D1*
X3761741Y1034868D1*
X3781491Y1023808D1*
X3800313Y1011232D1*
X3818089Y997217D1*
X3834712Y981852D1*
X3850077Y965229D1*
X3864092Y947453D1*
X3876668Y928631D1*
X3886475Y911118D1*
X3896332Y928631D1*
X3908908Y947453D1*
X3922923Y965229D1*
X3938288Y981852D1*
X3954911Y997217D1*
X3972687Y1011232D1*
X3991509Y1023808D1*
X4011259Y1034868D1*
X4031816Y1044345D1*
X4053053Y1052180D1*
X4074840Y1058325D1*
X4097042Y1062741D1*
X4119521Y1065401D1*
X4142140Y1066290D1*
X4164759Y1065401D1*
X4187238Y1062741D1*
X4209440Y1058325D1*
X4231227Y1052180D1*
X4252464Y1044345D1*
X4273021Y1034868D1*
X4292771Y1023808D1*
X4311593Y1011232D1*
X4340083Y987314D1*
X4361733Y1005831D1*
X4387844Y1023866D1*
X4415779Y1038922D1*
X4445199Y1050816D1*
X4475749Y1059404D1*
X4507057Y1064583D1*
X4538745Y1066290D1*
X4570429Y1064503D1*
X4601724Y1059245D1*
X4632252Y1050579D1*
X4661642Y1038610D1*
X4689539Y1023483D1*
X4715604Y1005382D1*
X4736487Y987417D1*
X4757973Y1005831D1*
X4784084Y1023866D1*
X4812019Y1038922D1*
X4841439Y1050816D1*
X4871989Y1059404D1*
X4903297Y1064583D1*
X4934985Y1066290D1*
X4966669Y1064503D1*
X4997964Y1059245D1*
X5028492Y1050579D1*
X5057882Y1038610D1*
X5085779Y1023483D1*
X5111844Y1005382D1*
X5132727Y987417D1*
X5161407Y1011232D1*
X5180229Y1023808D1*
X5199979Y1034868D1*
X5220536Y1044345D1*
X5241773Y1052180D1*
X5263560Y1058325D1*
X5285762Y1062741D1*
X5308241Y1065401D1*
X5330860Y1066290D1*
X5353479Y1065401D1*
X5375958Y1062741D1*
X5398160Y1058325D1*
X5419947Y1052180D1*
X5441184Y1044345D1*
X5461741Y1034868D1*
X5481491Y1023808D1*
X5500313Y1011232D1*
X5518089Y997217D1*
X5534712Y981852D1*
X5550077Y965229D1*
X5564092Y947453D1*
X5576668Y928631D1*
X5586475Y911118D1*
X5596332Y928631D1*
X5608908Y947453D1*
X5622923Y965229D1*
X5638288Y981852D1*
X5654911Y997217D1*
X5672687Y1011232D1*
X5691509Y1023808D1*
X5711259Y1034868D1*
X5731816Y1044345D1*
X5753053Y1052180D1*
X5774840Y1058325D1*
X5797042Y1062741D1*
X5819521Y1065401D1*
X5842140Y1066290D1*
X5864759Y1065401D1*
X5887238Y1062741D1*
X5909440Y1058325D1*
X5931227Y1052180D1*
X5952464Y1044345D1*
X5973021Y1034868D1*
X5992771Y1023808D1*
X6011593Y1011232D1*
X6040083Y987314D1*
X6061733Y1005831D1*
X6087844Y1023866D1*
X6115779Y1038922D1*
X6145199Y1050816D1*
X6175749Y1059404D1*
X6207057Y1064583D1*
X6238745Y1066290D1*
X6270429Y1064503D1*
X6301724Y1059245D1*
X6332252Y1050579D1*
X6361642Y1038610D1*
X6389539Y1023483D1*
X6415604Y1005382D1*
X6436487Y987417D1*
X6457973Y1005831D1*
X6484084Y1023866D1*
X6512019Y1038922D1*
X6541439Y1050816D1*
X6571989Y1059404D1*
X6603297Y1064583D1*
X6634985Y1066290D1*
X6666669Y1064503D1*
X6697964Y1059245D1*
X6728492Y1050579D1*
X6757882Y1038610D1*
X6785779Y1023483D1*
X6811844Y1005382D1*
X6832727Y987417D1*
X6861407Y1011232D1*
X6880229Y1023808D1*
X6899979Y1034868D1*
X6920536Y1044345D1*
X6941773Y1052180D1*
X6963560Y1058325D1*
X6985762Y1062741D1*
X7008241Y1065401D1*
X7030860Y1066290D1*
X7053479Y1065401D1*
X7075958Y1062741D1*
X7098160Y1058325D1*
X7119947Y1052180D1*
X7141184Y1044345D1*
X7161741Y1034868D1*
X7181491Y1023808D1*
X7200313Y1011232D1*
X7218089Y997217D1*
X7234712Y981852D1*
X7250077Y965229D1*
X7264092Y947453D1*
X7276668Y928631D1*
X7286475Y911118D1*
X7296332Y928631D1*
X7308908Y947453D1*
X7322923Y965229D1*
X7338288Y981852D1*
X7354911Y997217D1*
X7372687Y1011232D1*
X7391509Y1023808D1*
X7411259Y1034868D1*
X7431816Y1044345D1*
X7453053Y1052180D1*
X7474840Y1058325D1*
X7497042Y1062741D1*
X7519521Y1065401D1*
X7542140Y1066290D1*
X7564759Y1065401D1*
X7587238Y1062741D1*
X7609440Y1058325D1*
X7631227Y1052180D1*
X7652464Y1044345D1*
X7673021Y1034868D1*
X7692771Y1023808D1*
X7711593Y1011232D1*
X7740083Y987314D1*
X7761733Y1005831D1*
X7787844Y1023866D1*
X7815779Y1038922D1*
X7845199Y1050816D1*
X7875749Y1059404D1*
X7907057Y1064583D1*
X7938745Y1066290D1*
X7970429Y1064503D1*
X8001724Y1059245D1*
X8032252Y1050579D1*
X8061642Y1038610D1*
X8089539Y1023483D1*
X8115604Y1005382D1*
X8136487Y987417D1*
X8157973Y1005831D1*
X8184084Y1023866D1*
X8212019Y1038922D1*
X8241439Y1050816D1*
X8271989Y1059404D1*
X8303297Y1064583D1*
X8334985Y1066290D1*
X8366669Y1064503D1*
X8397964Y1059245D1*
X8428492Y1050579D1*
X8457882Y1038610D1*
X8485779Y1023483D1*
X8511844Y1005382D1*
X8532727Y987417D1*
X8561407Y1011232D1*
X8580229Y1023808D1*
X8599979Y1034868D1*
X8620536Y1044345D1*
X8641773Y1052180D1*
X8663560Y1058325D1*
X8685762Y1062741D1*
X8708241Y1065401D1*
X8730860Y1066290D1*
X8753479Y1065401D1*
X8775958Y1062741D1*
X8798160Y1058325D1*
X8819947Y1052180D1*
X8841184Y1044345D1*
X8861741Y1034868D1*
X8881491Y1023808D1*
X8900313Y1011232D1*
X8918089Y997217D1*
X8934712Y981852D1*
X8950077Y965229D1*
X8964092Y947453D1*
X8976668Y928631D1*
X8986475Y911118D1*
X8996332Y928631D1*
X9008908Y947453D1*
X9022923Y965229D1*
X9038288Y981852D1*
X9054911Y997217D1*
X9072687Y1011232D1*
X9091509Y1023808D1*
X9111259Y1034868D1*
X9131816Y1044345D1*
X9153053Y1052180D1*
X9174840Y1058325D1*
X9197042Y1062741D1*
X9219521Y1065401D1*
X9242140Y1066290D1*
X9264759Y1065401D1*
X9287238Y1062741D1*
X9309440Y1058325D1*
X9331227Y1052180D1*
X9352464Y1044345D1*
X9373021Y1034868D1*
X9392771Y1023808D1*
X9411593Y1011232D1*
X9440083Y987314D1*
X9461733Y1005831D1*
X9487844Y1023866D1*
X9515779Y1038922D1*
X9545199Y1050816D1*
X9575749Y1059404D1*
X9607057Y1064583D1*
X9638745Y1066290D1*
X9670429Y1064503D1*
X9701724Y1059245D1*
X9732252Y1050579D1*
X9761642Y1038610D1*
X9789539Y1023483D1*
X9815604Y1005382D1*
X9836487Y987417D1*
X9857973Y1005831D1*
X9884084Y1023866D1*
X9912019Y1038922D1*
X9941439Y1050816D1*
X9971989Y1059404D1*
X10003297Y1064583D1*
X10034985Y1066290D1*
X10066669Y1064503D1*
X10097964Y1059245D1*
X10128492Y1050579D1*
X10157882Y1038610D1*
X10185779Y1023483D1*
X10211844Y1005382D1*
X10232727Y987417D1*
X10261407Y1011232D1*
X10280229Y1023808D1*
X10299979Y1034868D1*
X10320536Y1044345D1*
X10341773Y1052180D1*
X10363560Y1058325D1*
X10385762Y1062741D1*
X10408241Y1065401D1*
X10430860Y1066290D1*
X10453479Y1065401D1*
X10475958Y1062741D1*
X10498160Y1058325D1*
X10519947Y1052180D1*
X10541184Y1044345D1*
X10561741Y1034868D1*
X10581491Y1023808D1*
X10600313Y1011232D1*
X10618089Y997217D1*
X10634712Y981852D1*
X10650077Y965229D1*
X10664092Y947453D1*
X10676668Y928631D1*
X10686475Y911118D1*
X10696332Y928631D1*
X10708908Y947453D1*
X10722923Y965229D1*
X10738288Y981852D1*
X10754911Y997217D1*
X10772687Y1011232D1*
X10791509Y1023808D1*
X10811259Y1034868D1*
X10831816Y1044345D1*
X10853053Y1052180D1*
X10874840Y1058325D1*
X10897042Y1062741D1*
X10919521Y1065401D1*
X10942140Y1066290D1*
X10964759Y1065401D1*
X10987238Y1062741D1*
X11009440Y1058325D1*
X11031227Y1052180D1*
X11052464Y1044345D1*
X11073021Y1034868D1*
X11092771Y1023808D1*
X11111593Y1011232D1*
X11140083Y987314D1*
X11161733Y1005831D1*
X11187844Y1023866D1*
X11215779Y1038922D1*
X11245199Y1050816D1*
X11275749Y1059404D1*
X11307057Y1064583D1*
X11338745Y1066290D1*
X11370429Y1064503D1*
X11401724Y1059245D1*
X11432252Y1050579D1*
X11461642Y1038610D1*
X11489539Y1023483D1*
X11515604Y1005382D1*
X11536487Y987417D1*
X11557973Y1005831D1*
X11584084Y1023866D1*
X11612019Y1038922D1*
X11641439Y1050816D1*
X11671989Y1059404D1*
X11703297Y1064583D1*
X11734985Y1066290D1*
X11766669Y1064503D1*
X11797964Y1059245D1*
X11828492Y1050579D1*
X11857882Y1038610D1*
X11885779Y1023483D1*
X11911844Y1005382D1*
X11932727Y987417D1*
X11961407Y1011232D1*
X11980229Y1023808D1*
X11999979Y1034868D1*
X12020536Y1044345D1*
X12041773Y1052180D1*
X12063560Y1058325D1*
X12085762Y1062741D1*
X12108241Y1065401D1*
X12130860Y1066290D1*
X12153479Y1065401D1*
X12175958Y1062741D1*
X12198160Y1058325D1*
X12219947Y1052180D1*
X12241184Y1044345D1*
X12261741Y1034868D1*
X12281491Y1023808D1*
X12300313Y1011232D1*
X12318089Y997217D1*
X12334712Y981852D1*
X12350077Y965229D1*
X12364092Y947453D1*
X12376668Y928631D1*
X12386475Y911118D1*
X12396332Y928631D1*
X12408908Y947453D1*
X12422923Y965229D1*
X12438288Y981852D1*
X12454911Y997217D1*
X12472687Y1011232D1*
X12491509Y1023808D1*
X12511259Y1034868D1*
X12531816Y1044345D1*
X12553053Y1052180D1*
X12574840Y1058325D1*
X12597042Y1062741D1*
X12619521Y1065401D1*
X12642140Y1066290D1*
X12664759Y1065401D1*
X12687238Y1062741D1*
X12709440Y1058325D1*
X12731227Y1052180D1*
X12752464Y1044345D1*
X12773021Y1034868D1*
X12792771Y1023808D1*
X12811593Y1011232D1*
X12840083Y987314D1*
X12861733Y1005831D1*
X12887844Y1023866D1*
X12915779Y1038922D1*
X12945199Y1050816D1*
X12975749Y1059404D1*
X13007057Y1064583D1*
X13038745Y1066290D1*
X13070429Y1064503D1*
X13101724Y1059245D1*
X13132252Y1050579D1*
X13161642Y1038610D1*
X13189539Y1023483D1*
X13215604Y1005382D1*
X13236487Y987417D1*
X13257973Y1005831D1*
X13284084Y1023866D1*
X13312019Y1038922D1*
X13341439Y1050816D1*
X13371989Y1059404D1*
X13403297Y1064583D1*
X13434985Y1066290D1*
X13466669Y1064503D1*
X13497964Y1059245D1*
X13528492Y1050579D1*
X13557882Y1038610D1*
X13585779Y1023483D1*
X13611844Y1005382D1*
X13632727Y987417D1*
X13661407Y1011232D1*
X13680229Y1023808D1*
X13699979Y1034868D1*
X13720536Y1044345D1*
X13741773Y1052180D1*
X13763560Y1058325D1*
X13785762Y1062741D1*
X13808241Y1065401D1*
X13830860Y1066290D1*
X13853479Y1065401D1*
X13875958Y1062741D1*
X13898160Y1058325D1*
X13919947Y1052180D1*
X13941184Y1044345D1*
X13961741Y1034868D1*
X13981491Y1023808D1*
X14000313Y1011232D1*
X14018089Y997217D1*
X14034712Y981852D1*
X14050077Y965229D1*
X14064092Y947453D1*
X14076668Y928631D1*
X14087728Y908881D1*
X14097205Y888324D1*
X14105040Y867087D1*
X14111185Y845300D1*
X14115601Y823098D1*
X14118261Y800619D1*
X14119150Y778000D1*
X14118261Y755381D1*
X14115601Y732902D1*
X14111185Y710700D1*
X14105040Y688913D1*
X14097205Y667676D1*
X14087728Y647119D1*
X14076668Y627369D1*
X14064092Y608547D1*
X14050077Y590771D1*
X14034712Y574148D1*
X14018089Y558783D1*
X14000313Y544768D1*
X13981491Y532192D1*
X13961741Y521132D1*
X13941184Y511655D1*
X13919947Y503820D1*
X13898160Y497675D1*
X13875958Y493259D1*
X13853479Y490599D1*
X13830860Y489710D1*
X13808241Y490599D1*
X13785762Y493259D1*
X13763560Y497675D1*
X13741773Y503820D1*
X13720536Y511655D1*
X13699979Y521132D1*
X13680229Y532192D1*
X13661407Y544768D1*
X13632917Y568686D1*
X13608098Y547747D1*
X13581739Y530075D1*
X13553599Y515407D1*
X13524016Y503921D1*
X13493351Y495756D1*
X13461974Y491011D1*
X13430265Y489743D1*
X13398609Y491968D1*
X13367390Y497659D1*
X13336985Y506746D1*
X13307763Y519121D1*
X13280078Y534632D1*
X13254266Y553092D1*
X13236497Y568596D1*
X13211858Y547747D1*
X13185499Y530075D1*
X13157359Y515407D1*
X13127776Y503921D1*
X13097111Y495756D1*
X13065734Y491011D1*
X13034025Y489743D1*
X13002369Y491968D1*
X12971150Y497659D1*
X12940745Y506746D1*
X12911523Y519121D1*
X12883838Y534632D1*
X12858026Y553092D1*
X12840257Y568596D1*
X12811593Y544768D1*
X12792771Y532192D1*
X12773021Y521132D1*
X12752464Y511655D1*
X12731227Y503820D1*
X12709440Y497675D1*
X12687238Y493259D1*
X12664759Y490599D1*
X12642140Y489710D1*
X12619521Y490599D1*
X12597042Y493259D1*
X12574840Y497675D1*
X12553053Y503820D1*
X12531816Y511655D1*
X12511259Y521132D1*
X12491509Y532192D1*
X12472687Y544768D1*
X12454911Y558783D1*
X12438288Y574148D1*
X12422923Y590771D1*
X12408908Y608547D1*
X12396332Y627369D1*
X12386525Y644882D1*
X12376668Y627369D1*
X12364092Y608547D1*
X12350077Y590771D1*
X12334712Y574148D1*
X12318089Y558783D1*
X12300313Y544768D1*
X12281491Y532192D1*
X12261741Y521132D1*
X12241184Y511655D1*
X12219947Y503820D1*
X12198160Y497675D1*
X12175958Y493259D1*
X12153479Y490599D1*
X12130860Y489710D1*
X12108241Y490599D1*
X12085762Y493259D1*
X12063560Y497675D1*
X12041773Y503820D1*
X12020536Y511655D1*
X11999979Y521132D1*
X11980229Y532192D1*
X11961407Y544768D1*
X11932917Y568686D1*
X11908098Y547747D1*
X11881739Y530075D1*
X11853599Y515407D1*
X11824016Y503921D1*
X11793351Y495756D1*
X11761974Y491011D1*
X11730265Y489743D1*
X11698609Y491968D1*
X11667390Y497659D1*
X11636985Y506746D1*
X11607763Y519121D1*
X11580078Y534632D1*
X11554266Y553092D1*
X11536497Y568596D1*
X11511858Y547747D1*
X11485499Y530075D1*
X11457359Y515407D1*
X11427776Y503921D1*
X11397111Y495756D1*
X11365734Y491011D1*
X11334025Y489743D1*
X11302369Y491968D1*
X11271150Y497659D1*
X11240745Y506746D1*
X11211523Y519121D1*
X11183838Y534632D1*
X11158026Y553092D1*
X11140257Y568596D1*
X11111593Y544768D1*
X11092771Y532192D1*
X11073021Y521132D1*
X11052464Y511655D1*
X11031227Y503820D1*
X11009440Y497675D1*
X10987238Y493259D1*
X10964759Y490599D1*
X10942140Y489710D1*
X10919521Y490599D1*
X10897042Y493259D1*
X10874840Y497675D1*
X10853053Y503820D1*
X10831816Y511655D1*
X10811259Y521132D1*
X10791509Y532192D1*
X10772687Y544768D1*
X10754911Y558783D1*
X10738288Y574148D1*
X10722923Y590771D1*
X10708908Y608547D1*
X10696332Y627369D1*
X10686525Y644882D1*
X10676668Y627369D1*
X10664092Y608547D1*
X10650077Y590771D1*
X10634712Y574148D1*
X10618089Y558783D1*
X10600313Y544768D1*
X10581491Y532192D1*
X10561741Y521132D1*
X10541184Y511655D1*
X10519947Y503820D1*
X10498160Y497675D1*
X10475958Y493259D1*
X10453479Y490599D1*
X10430860Y489710D1*
X10408241Y490599D1*
X10385762Y493259D1*
X10363560Y497675D1*
X10341773Y503820D1*
X10320536Y511655D1*
X10299979Y521132D1*
X10280229Y532192D1*
X10261407Y544768D1*
X10232917Y568686D1*
X10208098Y547747D1*
X10181739Y530075D1*
X10153599Y515407D1*
X10124016Y503921D1*
X10093351Y495756D1*
X10061974Y491011D1*
X10030265Y489743D1*
X9998609Y491968D1*
X9967390Y497659D1*
X9936985Y506746D1*
X9907763Y519121D1*
X9880078Y534632D1*
X9854266Y553092D1*
X9836497Y568596D1*
X9811858Y547747D1*
X9785499Y530075D1*
X9757359Y515407D1*
X9727776Y503921D1*
X9697111Y495756D1*
X9665734Y491011D1*
X9634025Y489743D1*
X9602369Y491968D1*
X9571150Y497659D1*
X9540745Y506746D1*
X9511523Y519121D1*
X9483838Y534632D1*
X9458026Y553092D1*
X9440257Y568596D1*
X9411593Y544768D1*
X9392771Y532192D1*
X9373021Y521132D1*
X9352464Y511655D1*
X9331227Y503820D1*
X9309440Y497675D1*
X9287238Y493259D1*
X9264759Y490599D1*
X9242140Y489710D1*
X9219521Y490599D1*
X9197042Y493259D1*
X9174840Y497675D1*
X9153053Y503820D1*
X9131816Y511655D1*
X9111259Y521132D1*
X9091509Y532192D1*
X9072687Y544768D1*
X9054911Y558783D1*
X9038288Y574148D1*
X9022923Y590771D1*
X9008908Y608547D1*
X8996332Y627369D1*
X8986525Y644882D1*
X8976668Y627369D1*
X8964092Y608547D1*
X8950077Y590771D1*
X8934712Y574148D1*
X8918089Y558783D1*
X8900313Y544768D1*
X8881491Y532192D1*
X8861741Y521132D1*
X8841184Y511655D1*
X8819947Y503820D1*
X8798160Y497675D1*
X8775958Y493259D1*
X8753479Y490599D1*
X8730860Y489710D1*
X8708241Y490599D1*
X8685762Y493259D1*
X8663560Y497675D1*
X8641773Y503820D1*
X8620536Y511655D1*
X8599979Y521132D1*
X8580229Y532192D1*
X8561407Y544768D1*
X8532917Y568686D1*
X8508098Y547747D1*
X8481739Y530075D1*
X8453599Y515407D1*
X8424016Y503921D1*
X8393351Y495756D1*
X8361974Y491011D1*
X8330265Y489743D1*
X8298609Y491968D1*
X8267390Y497659D1*
X8236985Y506746D1*
X8207763Y519121D1*
X8180078Y534632D1*
X8154266Y553092D1*
X8136497Y568596D1*
X8111858Y547747D1*
X8085499Y530075D1*
X8057359Y515407D1*
X8027776Y503921D1*
X7997111Y495756D1*
X7965734Y491011D1*
X7934025Y489743D1*
X7902369Y491968D1*
X7871150Y497659D1*
X7840745Y506746D1*
X7811523Y519121D1*
X7783838Y534632D1*
X7758026Y553092D1*
X7740257Y568596D1*
X7711593Y544768D1*
X7692771Y532192D1*
X7673021Y521132D1*
X7652464Y511655D1*
X7631227Y503820D1*
X7609440Y497675D1*
X7587238Y493259D1*
X7564759Y490599D1*
X7542140Y489710D1*
X7519521Y490599D1*
X7497042Y493259D1*
X7474840Y497675D1*
X7453053Y503820D1*
X7431816Y511655D1*
X7411259Y521132D1*
X7391509Y532192D1*
X7372687Y544768D1*
X7354911Y558783D1*
X7338288Y574148D1*
X7322923Y590771D1*
X7308908Y608547D1*
X7296332Y627369D1*
X7286525Y644882D1*
X7276668Y627369D1*
X7264092Y608547D1*
X7250077Y590771D1*
X7234712Y574148D1*
X7218089Y558783D1*
X7200313Y544768D1*
X7181491Y532192D1*
X7161741Y521132D1*
X7141184Y511655D1*
X7119947Y503820D1*
X7098160Y497675D1*
X7075958Y493259D1*
X7053479Y490599D1*
X7030860Y489710D1*
X7008241Y490599D1*
X6985762Y493259D1*
X6963560Y497675D1*
X6941773Y503820D1*
X6920536Y511655D1*
X6899979Y521132D1*
X6880229Y532192D1*
X6861407Y544768D1*
X6832917Y568686D1*
X6808098Y547747D1*
X6781739Y530075D1*
X6753599Y515407D1*
X6724016Y503921D1*
X6693351Y495756D1*
X6661974Y491011D1*
X6630265Y489743D1*
X6598609Y491968D1*
X6567390Y497659D1*
X6536985Y506746D1*
X6507763Y519121D1*
X6480078Y534632D1*
X6454266Y553092D1*
X6436497Y568596D1*
X6411858Y547747D1*
X6385499Y530075D1*
X6357359Y515407D1*
X6327776Y503921D1*
X6297111Y495756D1*
X6265734Y491011D1*
X6234025Y489743D1*
X6202369Y491968D1*
X6171150Y497659D1*
X6140745Y506746D1*
X6111523Y519121D1*
X6083838Y534632D1*
X6058026Y553092D1*
X6040257Y568596D1*
X6011593Y544768D1*
X5992771Y532192D1*
X5973021Y521132D1*
X5952464Y511655D1*
X5931227Y503820D1*
X5909440Y497675D1*
X5887238Y493259D1*
X5864759Y490599D1*
X5842140Y489710D1*
X5819521Y490599D1*
X5797042Y493259D1*
X5774840Y497675D1*
X5753053Y503820D1*
X5731816Y511655D1*
X5711259Y521132D1*
X5691509Y532192D1*
X5672687Y544768D1*
X5654911Y558783D1*
X5638288Y574148D1*
X5622923Y590771D1*
X5608908Y608547D1*
X5596332Y627369D1*
X5586525Y644882D1*
X5576668Y627369D1*
X5564092Y608547D1*
X5550077Y590771D1*
X5534712Y574148D1*
X5518089Y558783D1*
X5500313Y544768D1*
X5481491Y532192D1*
X5461741Y521132D1*
X5441184Y511655D1*
X5419947Y503820D1*
X5398160Y497675D1*
X5375958Y493259D1*
X5353479Y490599D1*
X5330860Y489710D1*
X5308241Y490599D1*
X5285762Y493259D1*
X5263560Y497675D1*
X5241773Y503820D1*
X5220536Y511655D1*
X5199979Y521132D1*
X5180229Y532192D1*
X5161407Y544768D1*
X5132917Y568686D1*
X5108098Y547747D1*
X5081739Y530075D1*
X5053599Y515407D1*
X5024016Y503921D1*
X4993351Y495756D1*
X4961974Y491011D1*
X4930265Y489743D1*
X4898609Y491968D1*
X4867390Y497659D1*
X4836985Y506746D1*
X4807763Y519121D1*
X4780078Y534632D1*
X4754266Y553092D1*
X4736497Y568596D1*
X4711858Y547747D1*
X4685499Y530075D1*
X4657359Y515407D1*
X4627776Y503921D1*
X4597111Y495756D1*
X4565734Y491011D1*
X4534025Y489743D1*
X4502369Y491968D1*
X4471150Y497659D1*
X4440745Y506746D1*
X4411523Y519121D1*
X4383838Y534632D1*
X4358026Y553092D1*
X4340257Y568596D1*
X4311593Y544768D1*
X4292771Y532192D1*
X4273021Y521132D1*
X4252464Y511655D1*
X4231227Y503820D1*
X4209440Y497675D1*
X4187238Y493259D1*
X4164759Y490599D1*
X4142140Y489710D1*
X4119521Y490599D1*
X4097042Y493259D1*
X4074840Y497675D1*
X4053053Y503820D1*
X4031816Y511655D1*
X4011259Y521132D1*
X3991509Y532192D1*
X3972687Y544768D1*
X3954911Y558783D1*
X3938288Y574148D1*
X3922923Y590771D1*
X3908908Y608547D1*
X3896332Y627369D1*
X3886525Y644882D1*
X3876668Y627369D1*
X3864092Y608547D1*
X3850077Y590771D1*
X3834712Y574148D1*
X3818089Y558783D1*
X3800313Y544768D1*
X3781491Y532192D1*
X3761741Y521132D1*
X3741184Y511655D1*
X3719947Y503820D1*
X3698160Y497675D1*
X3675958Y493259D1*
X3653479Y490599D1*
X3630860Y489710D1*
X3608241Y490599D1*
X3585762Y493259D1*
X3563560Y497675D1*
X3541773Y503820D1*
X3520536Y511655D1*
X3499979Y521132D1*
X3480229Y532192D1*
X3461407Y544768D1*
X3432917Y568686D1*
X3408098Y547747D1*
X3381739Y530075D1*
X3353599Y515407D1*
X3324016Y503921D1*
X3293351Y495756D1*
X3261974Y491011D1*
X3230265Y489743D1*
X3198609Y491968D1*
X3167390Y497659D1*
X3136985Y506746D1*
X3107763Y519121D1*
X3080078Y534632D1*
X3054266Y553092D1*
X3036497Y568596D1*
X3011858Y547747D1*
X2985499Y530075D1*
X2957359Y515407D1*
X2927776Y503921D1*
X2897111Y495756D1*
X2865734Y491011D1*
X2834025Y489743D1*
X2802369Y491968D1*
X2771150Y497659D1*
X2740745Y506746D1*
X2711523Y519121D1*
X2683838Y534632D1*
X2658026Y553092D1*
X2640257Y568596D1*
X2611593Y544768D1*
X2592771Y532192D1*
X2573021Y521132D1*
X2552464Y511655D1*
X2531227Y503820D1*
X2509440Y497675D1*
X2487238Y493259D1*
X2464759Y490599D1*
X2442140Y489710D1*
X2419521Y490599D1*
X2397042Y493259D1*
X2374840Y497675D1*
X2353053Y503820D1*
X2331816Y511655D1*
X2311259Y521132D1*
X2291509Y532192D1*
X2272687Y544768D1*
X2254911Y558783D1*
X2238288Y574148D1*
X2222923Y590771D1*
X2208908Y608547D1*
X2196332Y627369D1*
X2186179Y645499D1*
X2164092Y610047D1*
X2150077Y592271D1*
X2134712Y575648D1*
X2118089Y560283D1*
X2100313Y546268D1*
X2081491Y533692D1*
X2061741Y522632D1*
X2041184Y513155D1*
X2019947Y505320D1*
X1998160Y499175D1*
X1975958Y494759D1*
X1953479Y492099D1*
X1930860Y491210D1*
X1908241Y492099D1*
X1885762Y494759D1*
X1863560Y499175D1*
X1841773Y505320D1*
X1820536Y513155D1*
X1799979Y522632D1*
X1780229Y533692D1*
X1761407Y546268D1*
X1732917Y570186D1*
X1708098Y549247D1*
X1681739Y531575D1*
X1653599Y516907D1*
X1624016Y505421D1*
X1593351Y497256D1*
X1561974Y492511D1*
X1530265Y491243D1*
X1498609Y493468D1*
X1467390Y499159D1*
X1436985Y508246D1*
X1407763Y520621D1*
X1380078Y536132D1*
X1354266Y554592D1*
X1336497Y570096D1*
X1311858Y549247D1*
X1285499Y531575D1*
X1257359Y516907D1*
X1227776Y505421D1*
X1197111Y497256D1*
X1165734Y492511D1*
X1134025Y491243D1*
X1102369Y493468D1*
X1071150Y499159D1*
X1040745Y508246D1*
X1011523Y520621D1*
X983838Y536132D1*
X958026Y554592D1*
X940257Y570096D1*
X1070611Y1395893D2*
X1047191Y1390565D1*
X1016000Y1388110D1*
X984809Y1390565D1*
X954385Y1397869D1*
X925479Y1409842D1*
X898801Y1426190D1*
X875010Y1446510D1*
X854690Y1470301D1*
X838342Y1496979D1*
X826369Y1525885D1*
X819065Y1556309D1*
X816610Y1587500D1*
X819065Y1618691D1*
X826369Y1649115D1*
X838342Y1678021D1*
X854690Y1704699D1*
X875010Y1728490D1*
X898801Y1748810D1*
X925479Y1765158D1*
X954385Y1777131D1*
X984809Y1784435D1*
X1016000Y1786890D1*
X1047191Y1784435D1*
X1070611Y1779107D1*
X1070610Y1786890D1*
X1469390D1*
Y1669787D1*
X1481295Y1692173D1*
X1495968Y1712885D1*
X1513153Y1731565D1*
X1532573Y1747910D1*
X1553912Y1761656D1*
X1576824Y1772579D1*
X1600938Y1780503D1*
X1625864Y1785299D1*
X1651197Y1786890D1*
X1676527Y1785249D1*
X1701443Y1780404D1*
X1705624Y1779239D1*
X1705610Y1786890D1*
X2104390D1*
Y1388110D1*
X1705610D1*
Y1395675D1*
X1678364Y1389997D1*
X1653051Y1388121D1*
X1627704Y1389476D1*
X1602735Y1394040D1*
X1578548Y1401739D1*
X1555536Y1412449D1*
X1534070Y1425995D1*
X1514499Y1442159D1*
X1497140Y1460679D1*
X1482275Y1481253D1*
X1469388Y1505249D1*
X1469390Y1388110D1*
X1070610D1*
Y1395725D1*
X1138380Y1067666D2*
D17*
Y491334D1*
X1534620Y1067666D2*
Y491334D1*
X2838380Y1066166D2*
Y489834D1*
X3234620Y1066166D2*
Y489834D1*
X4538380Y1066166D2*
Y489834D1*
X4934620Y1066166D2*
Y489834D1*
X6238380Y1066166D2*
Y489834D1*
X6634620Y1066166D2*
Y489834D1*
X7938380Y1066166D2*
Y489834D1*
X8334620Y1066166D2*
Y489834D1*
X9638380Y1066166D2*
Y489834D1*
X10034620Y1066166D2*
Y489834D1*
X11338380Y1066166D2*
Y489834D1*
X11734620Y1066166D2*
Y489834D1*
X13038380Y1066166D2*
Y489834D1*
X13434620Y1066166D2*
Y489834D1*
X1270000Y1786766D2*
D14*
Y1388234D1*
X1651000Y1786766D2*
Y1388234D1*
D18*
X742140Y779500D3*
X1138380D3*
X1534620D3*
X1930860D3*
X2442140Y778000D3*
X2838380D3*
X3234620D3*
X3630860D3*
X4142140D3*
X4538380D3*
X4934620D3*
X5330860D3*
X5842140D3*
X6238380D3*
X6634620D3*
X7030860D3*
X7542140D3*
X7938380D3*
X8334620D3*
X8730860D3*
X9242140D3*
X9638380D3*
X10034620D3*
X10430860D3*
X10942140D3*
X11338380D3*
X11734620D3*
X12130860D3*
X12642140D3*
X13038380D3*
X13434620D3*
X13830860D3*
D21*
X1016000Y1587500D3*
D22*
X1270000D3*
D21*
X1651000D3*
D22*
X1905000D3*
M02*
