G04 DipTrace 3.0.0.1*
G04 156bus-narrow.GTS*
%MOMM*%
G04 #@! TF.FileFunction,Soldermask,Top*
G04 #@! TF.Part,Single*
%ADD23C,3.3*%
%ADD27R,1.47X1.47*%
%ADD29C,1.47*%
%ADD31R,1.5X1.7*%
%ADD33R,1.7X1.5*%
%ADD35C,3.248*%
%FSLAX35Y35*%
G04*
G71*
G90*
G75*
G01*
G04 TopMask*
%LPD*%
D23*
X200000Y1587300D3*
X14400000D3*
D35*
X742140Y779500D3*
X1138380D3*
X1534620D3*
X1930860D3*
X2442140Y778000D3*
X2838380D3*
X3234620D3*
X3630860D3*
X4142140D3*
X4538380D3*
X4934620D3*
X5330860D3*
X5842140D3*
X6238380D3*
X6634620D3*
X7030860D3*
X7542140D3*
X7938380D3*
X8334620D3*
X8730860D3*
X9242140D3*
X9638380D3*
X10034620D3*
X10430860D3*
X10942140D3*
X11338380D3*
X11734620D3*
X12130860D3*
X12642140D3*
X13038380D3*
X13434620D3*
X13830860D3*
D23*
X200000Y423800D3*
X14400000D3*
D33*
X698500Y1397000D3*
Y1587000D3*
D31*
X2159000Y1587500D3*
X2349000D3*
D29*
X1016000D3*
D27*
X1270000D3*
D29*
X1651000D3*
D27*
X1905000D3*
D23*
X7300000Y1587300D3*
M02*
