G04 DipTrace 3.0.0.1*
G04 156bus-narrow.GTL*
%MOMM*%
G04 #@! TF.FileFunction,Copper,L1,Top*
G04 #@! TF.Part,Single*
G04 #@! TA.AperFunction,Conductor*
%ADD13C,3.048*%
%ADD14C,0.508*%
%ADD15C,2.54*%
G04 #@! TA.AperFunction,ComponentPad*
%ADD18C,3.048*%
%ADD19R,1.5X1.3*%
%ADD20R,1.3X1.5*%
G04 #@! TA.AperFunction,ComponentPad*
%ADD21C,1.27*%
%ADD22R,1.27X1.27*%
%FSLAX35Y35*%
G04*
G71*
G90*
G75*
G01*
G04 Top*
%LPD*%
X742140Y779500D2*
D13*
Y591360D1*
X1016000Y317500D1*
X2442140D1*
X4142140D1*
X5842140D1*
X7542140D1*
X9242140D1*
X10942140D1*
X12446000D1*
X12636500Y508000D1*
Y772360D1*
X12642140Y778000D1*
X10942140D2*
Y317500D1*
X9242140Y778000D2*
Y317500D1*
X7542140Y778000D2*
Y317500D1*
X5842140Y778000D2*
Y317500D1*
X4142140Y778000D2*
Y317500D1*
X2442140Y778000D2*
Y317500D1*
X742140Y779500D2*
D14*
Y1353360D1*
X698500Y1397000D1*
X1930860Y779500D2*
D13*
Y978360D1*
X2222500Y1270000D1*
X3630860D1*
X5330860D1*
X7030860D1*
D15*
Y1143000D1*
D13*
X7493000D1*
X7620000Y1270000D1*
X8763000D1*
X10430860D1*
X12130860D1*
X13716000D1*
X13843000Y1143000D1*
Y790140D1*
X13830860Y778000D1*
X12130860D2*
Y1270000D1*
X10430860Y778000D2*
Y1270000D1*
X8730860Y778000D2*
X8763000D1*
Y1270000D1*
X7030860Y778000D2*
Y1143000D1*
X5330860Y778000D2*
Y1270000D1*
X3630860Y778000D2*
Y1270000D1*
X1930860Y779500D2*
D14*
Y1105360D1*
X2349500Y1524000D1*
Y1587000D1*
X2349000Y1587500D1*
X698500Y1587000D2*
X1015500D1*
X1016000Y1587500D1*
X2159000D2*
X1905000D1*
D18*
X742140Y779500D3*
X1138380D3*
X1534620D3*
X1930860D3*
X2442140Y778000D3*
X2838380D3*
X3234620D3*
X3630860D3*
X4142140D3*
X4538380D3*
X4934620D3*
X5330860D3*
X5842140D3*
X6238380D3*
X6634620D3*
X7030860D3*
X7542140D3*
X7938380D3*
X8334620D3*
X8730860D3*
X9242140D3*
X9638380D3*
X10034620D3*
X10430860D3*
X10942140D3*
X11338380D3*
X11734620D3*
X12130860D3*
X12642140D3*
X13038380D3*
X13434620D3*
X13830860D3*
D19*
X698500Y1397000D3*
Y1587000D3*
D20*
X2159000Y1587500D3*
X2349000D3*
D21*
X1016000D3*
D22*
X1270000D3*
D21*
X1651000D3*
D22*
X1905000D3*
M02*
