M48
METRIC,0000.00
T01C0.711
T02C0.9
T03C0.965
T04C1.0
T05C1.2
T06C1.4
T07C1.778
T08C3.0
%
T01
X+015415Y+005318
X+015161Y+005318
X+015954Y+005318
X+016208Y+005318
X+016748Y+005318
X+017002Y+005318
T02
X+009001Y+005286
X+009255Y+005286
X+008493Y+005286
X+008239Y+005286
X+010112Y+004905
X+010112Y+004651
T03
X+012938Y+003921
X+012938Y+003667
X+012938Y+003413
X+012938Y+003159
X+012938Y+002905
X+012938Y+002651
X+012938Y+002397
X+012684Y+002397
X+012684Y+002651
X+012684Y+002905
X+012684Y+003159
X+012684Y+003413
X+012684Y+003667
X+012684Y+003921
X+012684Y+004175
X+012938Y+004175
X+013954Y+004175
X+013954Y+003921
X+013954Y+003667
X+013954Y+003413
X+014208Y+003413
X+014208Y+003667
X+014208Y+003921
X+014208Y+004175
X+015224Y+004175
X+015224Y+003921
X+015224Y+003667
X+015224Y+003413
X+015478Y+003413
X+015478Y+003667
X+015478Y+003921
X+015478Y+004175
X+015478Y+003159
X+015478Y+002905
X+015478Y+002651
X+015478Y+002397
X+015224Y+002397
X+015224Y+002651
X+015224Y+002905
X+015224Y+003159
X+014208Y+003159
X+014208Y+002905
X+014208Y+002651
X+014208Y+002397
X+013954Y+002397
X+013954Y+002651
X+013954Y+002905
X+013954Y+003159
X+016494Y+003159
X+016494Y+002905
X+016494Y+002651
X+016748Y+002651
X+016748Y+002905
X+016748Y+003159
X+016748Y+003413
X+016748Y+003667
X+016748Y+003921
X+016494Y+003921
X+016494Y+003667
X+016494Y+003413
X+016494Y+004175
X+016748Y+004175
X+017764Y+004175
X+018018Y+004175
X+018018Y+003921
X+018018Y+003667
X+018018Y+003413
X+018018Y+003159
X+018018Y+002905
X+018018Y+002651
X+018018Y+002397
X+017764Y+002397
X+017764Y+002651
X+017764Y+002905
X+017764Y+003159
X+017764Y+003413
X+017764Y+003667
X+017764Y+003921
X+017574Y+005064
X+017574Y+005413
X+017574Y+005763
X+018590Y+005763
X+018590Y+005413
X+018590Y+005064
X+019034Y+004175
X+019034Y+003921
X+019034Y+003667
X+019034Y+003413
X+019288Y+003413
X+019288Y+003667
X+019288Y+003921
X+019288Y+004175
X+019288Y+003159
X+019288Y+002905
X+019288Y+002651
X+019288Y+002397
X+019034Y+002397
X+019034Y+002651
X+019034Y+002905
X+019034Y+003159
X+016748Y+002397
X+016494Y+002397
X+008747Y+002397
X+008493Y+002397
X+008493Y+002651
X+008493Y+002905
X+008493Y+003159
X+008493Y+003413
X+008493Y+003667
X+008493Y+003921
X+008493Y+004175
X+008747Y+004175
X+008747Y+003921
X+008747Y+003667
X+008747Y+003413
X+008747Y+003159
X+008747Y+002905
X+008747Y+002651
X+007477Y+002651
X+007477Y+002905
X+007477Y+003159
X+007223Y+003159
X+007223Y+002905
X+007223Y+002651
X+007223Y+002397
X+007477Y+002397
X+007477Y+003413
X+007477Y+003667
X+007477Y+003921
X+007223Y+003921
X+007223Y+003667
X+007223Y+003413
X+007223Y+004175
X+007477Y+004175
X+006207Y+004175
X+005953Y+004175
X+005953Y+003921
X+005953Y+003667
X+005953Y+003413
X+005953Y+003159
X+005953Y+002905
X+005953Y+002651
X+005953Y+002397
X+006207Y+002397
X+006207Y+002651
X+006207Y+002905
X+006207Y+003159
X+006207Y+003413
X+006207Y+003667
X+006207Y+003921
X+004937Y+003921
X+004937Y+003667
X+004937Y+003413
X+004683Y+003413
X+004683Y+003667
X+004683Y+003921
X+004683Y+004175
X+004937Y+004175
X+004937Y+003159
X+004937Y+002905
X+004937Y+002651
X+004683Y+002651
X+004683Y+002905
X+004683Y+003159
X+004683Y+002397
X+004937Y+002397
X+003667Y+002397
X+003667Y+002651
X+003667Y+002905
X+003667Y+003159
X+003667Y+003413
X+003667Y+003667
X+003667Y+003921
X+003667Y+004175
X+003413Y+004175
X+003413Y+003921
X+003413Y+003667
X+003413Y+003413
X+003413Y+003159
X+003413Y+002905
X+003413Y+002651
X+003413Y+002397
X+002397Y+002397
X+002143Y+002397
X+002143Y+002651
X+002143Y+002905
X+002143Y+003159
X+002397Y+003159
X+002397Y+002905
X+002397Y+002651
X+002397Y+003413
X+002397Y+003667
X+002397Y+003921
X+002397Y+004175
X+002143Y+004175
X+002143Y+003921
X+002143Y+003667
X+002143Y+003413
T04
X+011319Y+005382
X+011573Y+005382
X+011827Y+005382
X+011827Y+004239
X+011573Y+004239
T05
X+010716Y+004778
X+011821Y+004778
X+009446Y+004651
X+009446Y+003546
T06
X+009954Y+003794
X+010454Y+003794
X+010454Y+003032
X+009954Y+003032
X+009954Y+002270
X+010454Y+002270
X+010390Y+001508
X+009890Y+001508
X+011287Y+001508
X+011787Y+001508
X+011724Y+002270
X+011224Y+002270
X+011224Y+003032
X+011724Y+003032
X+011724Y+003794
X+011224Y+003794
T07
X+020463Y+004112
X+020463Y+003715
X+020463Y+003319
X+020463Y+002923
T08
X+001381Y+005636
X+001381Y+001381
X+007604Y+001381
X+007604Y+005636
X+014399Y+005636
X+014399Y+001381
X+020622Y+001381
X+020622Y+005636
T00
M30
