G04 DipTrace 2.4.0.2*
%INbusboard_12_place_ext_workfinal.GTS*%
%MOMM*%
%ADD17C,1.8*%
%ADD32R,1.8X1.8*%
%ADD33C,1.8*%
%ADD36C,3.0*%
%ADD45C,1.724*%
%ADD47C,3.248*%
%ADD49C,2.0*%
%ADD50R,2.0X2.0*%
%ADD53C,1.7*%
%ADD55R,1.7X1.7*%
%ADD57R,1.47X1.47*%
%ADD59C,1.47*%
%ADD61R,1.724X1.724*%
%ADD63C,1.724*%
%FSLAX53Y53*%
G04*
G71*
G90*
G75*
G01*
%LNTopMask*%
%LPD*%
D63*
X129380Y39210D3*
Y36670D3*
Y34130D3*
Y31590D3*
Y29050D3*
Y26510D3*
Y23970D3*
X126840D3*
Y26510D3*
Y29050D3*
Y31590D3*
Y34130D3*
Y36670D3*
Y39210D3*
Y41750D3*
D61*
X129380D3*
D63*
X36670Y39210D3*
Y36670D3*
Y34130D3*
Y31590D3*
Y29050D3*
Y26510D3*
Y23970D3*
X34130D3*
Y26510D3*
Y29050D3*
Y31590D3*
Y34130D3*
Y36670D3*
Y39210D3*
Y41750D3*
D61*
X36670D3*
D63*
X87470Y39210D3*
Y36670D3*
Y34130D3*
Y31590D3*
Y29050D3*
Y26510D3*
Y23970D3*
X84930D3*
Y26510D3*
Y29050D3*
Y31590D3*
Y34130D3*
Y36670D3*
Y39210D3*
Y41750D3*
D61*
X87470D3*
D63*
X180180Y39210D3*
Y36670D3*
Y34130D3*
Y31590D3*
Y29050D3*
Y26510D3*
Y23970D3*
X177640D3*
Y26510D3*
Y29050D3*
Y31590D3*
Y34130D3*
Y36670D3*
Y39210D3*
Y41750D3*
D61*
X180180D3*
D63*
X167480Y39210D3*
Y36670D3*
Y34130D3*
Y31590D3*
Y29050D3*
Y26510D3*
Y23970D3*
X164940D3*
Y26510D3*
Y29050D3*
Y31590D3*
Y34130D3*
Y36670D3*
Y39210D3*
Y41750D3*
D61*
X167480D3*
D63*
X154780Y39210D3*
Y36670D3*
Y34130D3*
Y31590D3*
Y29050D3*
Y26510D3*
Y23970D3*
X152240D3*
Y26510D3*
Y29050D3*
Y31590D3*
Y34130D3*
Y36670D3*
Y39210D3*
Y41750D3*
D61*
X154780D3*
D63*
X142080Y39210D3*
Y36670D3*
Y34130D3*
Y31590D3*
Y29050D3*
Y26510D3*
Y23970D3*
X139540D3*
Y26510D3*
Y29050D3*
Y31590D3*
Y34130D3*
Y36670D3*
Y39210D3*
Y41750D3*
D61*
X142080D3*
D59*
X154145Y53180D3*
D57*
X151605D3*
D59*
X162083D3*
D57*
X159543D3*
D59*
X170020D3*
D57*
X167480D3*
D36*
X13810Y56355D3*
Y13810D3*
X206215Y56355D3*
Y13810D3*
G36*
X100804Y39210D2*
X101238Y39134D1*
X101621Y38914D1*
X101904Y38576D1*
X102056Y38162D1*
Y37721D1*
X101905Y37306D1*
X101622Y36968D1*
X101240Y36747D1*
X100806Y36670D1*
X98266D1*
X97832Y36746D1*
X97450Y36966D1*
X97166Y37304D1*
X97015Y37718D1*
X97014Y38159D1*
X97165Y38574D1*
X97448Y38912D1*
X97830Y39133D1*
X98264Y39210D1*
X100804D1*
G37*
G36*
X105813Y39310D2*
X106273Y39229D1*
X106686Y38991D1*
X106992Y38627D1*
X107155Y38179D1*
X107156Y37703D1*
X106993Y37255D1*
X106688Y36890D1*
X106275Y36652D1*
X105815Y36570D1*
X103257D1*
X102797Y36651D1*
X102384Y36889D1*
X102078Y37253D1*
X101915Y37701D1*
X101914Y38177D1*
X102077Y38625D1*
X102382Y38990D1*
X102795Y39228D1*
X103255Y39310D1*
X105813D1*
G37*
G36*
X100804Y31590D2*
X101238Y31514D1*
X101621Y31294D1*
X101904Y30956D1*
X102056Y30542D1*
Y30101D1*
X101905Y29686D1*
X101622Y29348D1*
X101240Y29127D1*
X100806Y29050D1*
X98266D1*
X97832Y29126D1*
X97450Y29346D1*
X97166Y29684D1*
X97015Y30098D1*
X97014Y30539D1*
X97165Y30954D1*
X97448Y31292D1*
X97830Y31513D1*
X98264Y31590D1*
X100804D1*
G37*
G36*
X105813Y31690D2*
X106273Y31609D1*
X106686Y31371D1*
X106992Y31007D1*
X107155Y30559D1*
X107156Y30083D1*
X106993Y29635D1*
X106688Y29270D1*
X106275Y29032D1*
X105815Y28950D1*
X103257D1*
X102797Y29031D1*
X102384Y29269D1*
X102078Y29633D1*
X101915Y30081D1*
X101914Y30557D1*
X102077Y31005D1*
X102382Y31370D1*
X102795Y31608D1*
X103255Y31690D1*
X105813D1*
G37*
G36*
X100804Y23970D2*
X101238Y23894D1*
X101621Y23674D1*
X101904Y23336D1*
X102056Y22922D1*
Y22481D1*
X101905Y22066D1*
X101622Y21728D1*
X101240Y21507D1*
X100806Y21430D1*
X98266D1*
X97832Y21506D1*
X97450Y21726D1*
X97166Y22064D1*
X97015Y22478D1*
X97014Y22919D1*
X97165Y23334D1*
X97448Y23672D1*
X97830Y23893D1*
X98264Y23970D1*
X100804D1*
G37*
G36*
X105813Y24070D2*
X106273Y23989D1*
X106686Y23751D1*
X106992Y23387D1*
X107155Y22939D1*
X107156Y22463D1*
X106993Y22015D1*
X106688Y21650D1*
X106275Y21412D1*
X105815Y21330D1*
X103257D1*
X102797Y21411D1*
X102384Y21649D1*
X102078Y22013D1*
X101915Y22461D1*
X101914Y22937D1*
X102077Y23385D1*
X102382Y23750D1*
X102795Y23988D1*
X103255Y24070D1*
X105813D1*
G37*
G36*
X100169Y16350D2*
X100603Y16274D1*
X100986Y16054D1*
X101269Y15716D1*
X101421Y15302D1*
Y14861D1*
X101270Y14446D1*
X100987Y14108D1*
X100605Y13887D1*
X100171Y13810D1*
X97631D1*
X97197Y13886D1*
X96815Y14106D1*
X96531Y14444D1*
X96380Y14858D1*
X96379Y15299D1*
X96530Y15714D1*
X96813Y16052D1*
X97195Y16273D1*
X97629Y16350D1*
X100169D1*
G37*
G36*
X105178Y16450D2*
X105638Y16369D1*
X106051Y16131D1*
X106357Y15767D1*
X106520Y15319D1*
X106521Y14843D1*
X106358Y14395D1*
X106053Y14030D1*
X105640Y13792D1*
X105180Y13710D1*
X102622D1*
X102162Y13791D1*
X101749Y14029D1*
X101443Y14393D1*
X101280Y14841D1*
X101279Y15317D1*
X101442Y15765D1*
X101747Y16130D1*
X102160Y16368D1*
X102620Y16450D1*
X105178D1*
G37*
D63*
X74770Y39210D3*
Y36670D3*
Y34130D3*
Y31590D3*
Y29050D3*
Y26510D3*
Y23970D3*
X72230D3*
Y26510D3*
Y29050D3*
Y31590D3*
Y34130D3*
Y36670D3*
Y39210D3*
Y41750D3*
D61*
X74770D3*
D63*
X62070Y39210D3*
Y36670D3*
Y34130D3*
Y31590D3*
Y29050D3*
Y26510D3*
Y23970D3*
X59530D3*
Y26510D3*
Y29050D3*
Y31590D3*
Y34130D3*
Y36670D3*
Y39210D3*
Y41750D3*
D61*
X62070D3*
D63*
X49370Y39210D3*
Y36670D3*
Y34130D3*
Y31590D3*
Y29050D3*
Y26510D3*
Y23970D3*
X46830D3*
Y26510D3*
Y29050D3*
Y31590D3*
Y34130D3*
Y36670D3*
Y39210D3*
Y41750D3*
D61*
X49370D3*
G36*
X114139Y16350D2*
X114573Y16274D1*
X114956Y16054D1*
X115239Y15716D1*
X115391Y15302D1*
Y14861D1*
X115240Y14446D1*
X114957Y14108D1*
X114575Y13887D1*
X114141Y13810D1*
X111601D1*
X111167Y13886D1*
X110785Y14106D1*
X110501Y14444D1*
X110350Y14858D1*
X110349Y15299D1*
X110500Y15714D1*
X110783Y16052D1*
X111165Y16273D1*
X111599Y16350D1*
X114139D1*
G37*
G36*
X119148Y16450D2*
X119608Y16369D1*
X120021Y16131D1*
X120327Y15767D1*
X120490Y15319D1*
X120491Y14843D1*
X120328Y14395D1*
X120023Y14030D1*
X119610Y13792D1*
X119150Y13710D1*
X116592D1*
X116132Y13791D1*
X115719Y14029D1*
X115413Y14393D1*
X115250Y14841D1*
X115249Y15317D1*
X115412Y15765D1*
X115717Y16130D1*
X116130Y16368D1*
X116590Y16450D1*
X119148D1*
G37*
G36*
X113504Y23970D2*
X113938Y23894D1*
X114321Y23674D1*
X114604Y23336D1*
X114756Y22922D1*
Y22481D1*
X114605Y22066D1*
X114322Y21728D1*
X113940Y21507D1*
X113506Y21430D1*
X110966D1*
X110532Y21506D1*
X110150Y21726D1*
X109866Y22064D1*
X109715Y22478D1*
X109714Y22919D1*
X109865Y23334D1*
X110148Y23672D1*
X110530Y23893D1*
X110964Y23970D1*
X113504D1*
G37*
G36*
X118513Y24070D2*
X118973Y23989D1*
X119386Y23751D1*
X119692Y23387D1*
X119855Y22939D1*
X119856Y22463D1*
X119693Y22015D1*
X119388Y21650D1*
X118975Y21412D1*
X118515Y21330D1*
X115957D1*
X115497Y21411D1*
X115084Y21649D1*
X114778Y22013D1*
X114615Y22461D1*
X114614Y22937D1*
X114777Y23385D1*
X115082Y23750D1*
X115495Y23988D1*
X115955Y24070D1*
X118513D1*
G37*
G36*
X113504Y31590D2*
X113938Y31514D1*
X114321Y31294D1*
X114604Y30956D1*
X114756Y30542D1*
Y30101D1*
X114605Y29686D1*
X114322Y29348D1*
X113940Y29127D1*
X113506Y29050D1*
X110966D1*
X110532Y29126D1*
X110150Y29346D1*
X109866Y29684D1*
X109715Y30098D1*
X109714Y30539D1*
X109865Y30954D1*
X110148Y31292D1*
X110530Y31513D1*
X110964Y31590D1*
X113504D1*
G37*
G36*
X118513Y31690D2*
X118973Y31609D1*
X119386Y31371D1*
X119692Y31007D1*
X119855Y30559D1*
X119856Y30083D1*
X119693Y29635D1*
X119388Y29270D1*
X118975Y29032D1*
X118515Y28950D1*
X115957D1*
X115497Y29031D1*
X115084Y29269D1*
X114778Y29633D1*
X114615Y30081D1*
X114614Y30557D1*
X114777Y31005D1*
X115082Y31370D1*
X115495Y31608D1*
X115955Y31690D1*
X118513D1*
G37*
G36*
X113504Y39210D2*
X113938Y39134D1*
X114321Y38914D1*
X114604Y38576D1*
X114756Y38162D1*
Y37721D1*
X114605Y37306D1*
X114322Y36968D1*
X113940Y36747D1*
X113506Y36670D1*
X110966D1*
X110532Y36746D1*
X110150Y36966D1*
X109866Y37304D1*
X109715Y37718D1*
X109714Y38159D1*
X109865Y38574D1*
X110148Y38912D1*
X110530Y39133D1*
X110964Y39210D1*
X113504D1*
G37*
G36*
X118513Y39310D2*
X118973Y39229D1*
X119386Y38991D1*
X119692Y38627D1*
X119855Y38179D1*
X119856Y37703D1*
X119693Y37255D1*
X119388Y36890D1*
X118975Y36652D1*
X118515Y36570D1*
X115957D1*
X115497Y36651D1*
X115084Y36889D1*
X114778Y37253D1*
X114615Y37701D1*
X114614Y38177D1*
X114777Y38625D1*
X115082Y38990D1*
X115495Y39228D1*
X115955Y39310D1*
X118513D1*
G37*
D55*
X90010Y52863D3*
D53*
X92550D3*
D55*
X82390D3*
D53*
X84930D3*
D63*
X23970Y39210D3*
Y36670D3*
Y34130D3*
Y31590D3*
Y29050D3*
Y26510D3*
Y23970D3*
X21430D3*
Y26510D3*
Y29050D3*
Y31590D3*
Y34130D3*
Y36670D3*
Y39210D3*
Y41750D3*
D61*
X23970D3*
D63*
X192880Y39210D3*
Y36670D3*
Y34130D3*
Y31590D3*
Y29050D3*
Y26510D3*
Y23970D3*
X190340D3*
Y26510D3*
Y29050D3*
Y31590D3*
Y34130D3*
Y36670D3*
Y39210D3*
Y41750D3*
D61*
X192880D3*
D36*
X76040Y56355D3*
Y13810D3*
X143985D3*
Y56355D3*
D32*
X113188Y53815D3*
D33*
X115728D3*
X118268D3*
D17*
X115728Y42385D3*
D32*
X118268D3*
X101123Y46513D3*
D17*
Y49053D3*
D50*
X107155Y47783D3*
D49*
X118205D3*
D47*
X204628Y41115D3*
Y37153D3*
Y33190D3*
Y29228D3*
D50*
X94455Y46513D3*
D49*
Y35463D3*
D63*
X175735Y57625D3*
D45*
X185895D3*
D63*
X175735Y54133D3*
D45*
X185895D3*
D63*
X175735Y50640D3*
D45*
X185895D3*
M02*
