G04 DipTrace 2.4.0.2*
%INbusboard_12_place_ext_workfinal.GTL*%
%MOMM*%
%ADD13C,2.032*%
%ADD14C,1.524*%
%ADD20C,1.6*%
%ADD22C,0.635*%
%ADD24R,1.524X1.524*%
%ADD25C,1.27*%
%ADD26R,1.27X1.27*%
%ADD28R,1.5X1.5*%
%ADD29C,1.5*%
%ADD30R,1.6X1.6*%
%ADD31C,1.6*%
%ADD32R,1.8X1.8*%
%ADD33C,1.8*%
%ADD34C,3.048*%
%ADD35C,1.524*%
%FSLAX53Y53*%
G04*
G71*
G90*
G75*
G01*
%LNTop*%
%LPD*%
X99535Y30320D2*
D13*
X104535D1*
X112235Y37940D2*
X117235D1*
X99535Y22700D2*
X104535D1*
X112235D2*
X117235D1*
X72230Y31590D2*
D14*
X74770D1*
X72230Y29050D2*
X74770D1*
X72230Y26510D2*
X74770D1*
X84930Y31590D2*
X87470D1*
X84930Y29050D2*
X87470D1*
X84930Y26510D2*
X87470D1*
X46830Y31590D2*
X49370D1*
X46830Y29050D2*
X49370D1*
X46830Y26510D2*
X49370D1*
X59530Y31590D2*
X62070D1*
X59530Y29050D2*
X62070D1*
X59530Y26510D2*
X62070D1*
X34130Y31590D2*
X36670D1*
X34130Y29050D2*
X36670D1*
X34130Y26510D2*
X36670D1*
X21430Y31590D2*
X23970D1*
X21430Y29050D2*
X23970D1*
X21430Y26510D2*
X23970D1*
X126840Y31590D2*
X129380D1*
X126840Y29050D2*
X129380D1*
X126840Y26510D2*
X129380D1*
X139540Y31590D2*
X142080D1*
X139540Y26510D2*
X142080D1*
X152240Y31590D2*
X154780D1*
X152240Y29050D2*
X154780D1*
X152240Y26510D2*
X154780D1*
X164940Y31590D2*
X167480D1*
X164940Y29050D2*
X167480D1*
X164940Y26510D2*
X167480D1*
X177640Y31590D2*
X180180D1*
X177640Y29050D2*
X180180D1*
X177640Y26510D2*
X180180D1*
X190340Y31590D2*
X192880D1*
X190340Y29050D2*
X192880D1*
X190340Y26510D2*
X192880D1*
X115728Y53815D2*
D20*
Y55403D1*
D13*
Y52228D1*
X139540Y29050D2*
D14*
X142080D1*
X16740Y58035D2*
D22*
X73108D1*
X78970D2*
X141053D1*
X146915D2*
X174113D1*
X177355D2*
X184273D1*
X187515D2*
X203283D1*
X17028Y57403D2*
X72830D1*
X79258D2*
X140775D1*
X147203D2*
X174073D1*
X177395D2*
X184233D1*
X187555D2*
X203005D1*
X17167Y56772D2*
X72681D1*
X79397D2*
X140626D1*
X147342D2*
X174301D1*
X177167D2*
X184461D1*
X187327D2*
X202856D1*
X17186Y56140D2*
X72662D1*
X79416D2*
X140607D1*
X147361D2*
X175045D1*
X176423D2*
X185205D1*
X186583D2*
X202837D1*
X17087Y55508D2*
X72771D1*
X79317D2*
X140716D1*
X147262D2*
X174827D1*
X176641D2*
X184987D1*
X186801D2*
X202946D1*
X16849Y54877D2*
X72999D1*
X79079D2*
X111476D1*
X119590D2*
X140944D1*
X147024D2*
X174242D1*
X177226D2*
X184402D1*
X187386D2*
X203174D1*
X16432Y54245D2*
X73416D1*
X78662D2*
X80728D1*
X85796D2*
X88348D1*
X93416D2*
X111476D1*
X119927D2*
X141361D1*
X146607D2*
X150052D1*
X155249D2*
X157990D1*
X163187D2*
X165927D1*
X171124D2*
X174063D1*
X177405D2*
X184223D1*
X187565D2*
X203591D1*
X11397Y53613D2*
X11870D1*
X15748D2*
X74100D1*
X77978D2*
X80728D1*
X86411D2*
X88348D1*
X94031D2*
X111476D1*
X119967D2*
X142045D1*
X145923D2*
X150052D1*
X155626D2*
X157990D1*
X163564D2*
X165927D1*
X171501D2*
X174143D1*
X177325D2*
X184303D1*
X187485D2*
X204275D1*
X208153D2*
X208601D1*
X11397Y52982D2*
X80728D1*
X86590D2*
X88348D1*
X94210D2*
X111476D1*
X119759D2*
X150052D1*
X155676D2*
X157990D1*
X163613D2*
X165927D1*
X171551D2*
X174539D1*
X176929D2*
X184699D1*
X187089D2*
X208601D1*
X11397Y52350D2*
X80728D1*
X86511D2*
X88348D1*
X94131D2*
X111476D1*
X116554D2*
X117439D1*
X119094D2*
X150052D1*
X155438D2*
X157990D1*
X163375D2*
X165927D1*
X171313D2*
X208601D1*
X11397Y51718D2*
X80728D1*
X86114D2*
X88348D1*
X93734D2*
X150052D1*
X153156D2*
X153813D1*
X154475D2*
X157990D1*
X161093D2*
X161750D1*
X162413D2*
X165927D1*
X169031D2*
X169688D1*
X170350D2*
X174470D1*
X176998D2*
X184630D1*
X187158D2*
X208601D1*
X11397Y51087D2*
X174123D1*
X177345D2*
X184283D1*
X187505D2*
X208601D1*
X11397Y50455D2*
X100185D1*
X102058D2*
X174073D1*
X177405D2*
X184233D1*
X187565D2*
X208601D1*
X11397Y49823D2*
X99600D1*
X102644D2*
X174281D1*
X177187D2*
X184441D1*
X187347D2*
X208601D1*
X11397Y49192D2*
X99411D1*
X102832D2*
X105344D1*
X108974D2*
X117102D1*
X119312D2*
X174966D1*
X176512D2*
X185126D1*
X186672D2*
X208601D1*
X11397Y48560D2*
X99480D1*
X102763D2*
X105344D1*
X108974D2*
X116576D1*
X119838D2*
X208601D1*
X11397Y47928D2*
X92644D1*
X96274D2*
X99411D1*
X102832D2*
X105344D1*
X108974D2*
X116397D1*
X120017D2*
X208601D1*
X11397Y47297D2*
X92644D1*
X96274D2*
X99411D1*
X102832D2*
X105344D1*
X108974D2*
X116457D1*
X119947D2*
X208601D1*
X11397Y46665D2*
X92644D1*
X96274D2*
X99411D1*
X102832D2*
X105344D1*
X108974D2*
X116794D1*
X119620D2*
X208601D1*
X11397Y46033D2*
X92644D1*
X96274D2*
X99411D1*
X102832D2*
X105344D1*
X108974D2*
X208601D1*
X11397Y45402D2*
X92644D1*
X96274D2*
X99411D1*
X102832D2*
X208601D1*
X11397Y44770D2*
X92644D1*
X96274D2*
X208601D1*
X11397Y44138D2*
X208601D1*
X11397Y43507D2*
X114453D1*
X119977D2*
X208601D1*
X11397Y42875D2*
X20215D1*
X25650D2*
X32915D1*
X38350D2*
X45615D1*
X51050D2*
X58315D1*
X63750D2*
X71015D1*
X76450D2*
X83715D1*
X89150D2*
X114085D1*
X119977D2*
X125625D1*
X131060D2*
X138325D1*
X143760D2*
X151025D1*
X156460D2*
X163725D1*
X169160D2*
X176425D1*
X181860D2*
X189125D1*
X194560D2*
X202966D1*
X206287D2*
X208601D1*
X11397Y42243D2*
X19828D1*
X25650D2*
X32528D1*
X38350D2*
X45228D1*
X51050D2*
X57928D1*
X63750D2*
X70628D1*
X76450D2*
X83328D1*
X89150D2*
X114016D1*
X119977D2*
X125238D1*
X131060D2*
X137938D1*
X143760D2*
X150638D1*
X156460D2*
X163338D1*
X169160D2*
X176038D1*
X181860D2*
X188738D1*
X194560D2*
X202479D1*
X206784D2*
X208601D1*
X11397Y41612D2*
X19758D1*
X25650D2*
X32458D1*
X38350D2*
X45158D1*
X51050D2*
X57858D1*
X63750D2*
X70558D1*
X76450D2*
X83258D1*
X89150D2*
X114205D1*
X119977D2*
X125168D1*
X131060D2*
X137868D1*
X143760D2*
X150568D1*
X156460D2*
X163268D1*
X169160D2*
X175968D1*
X181860D2*
X188668D1*
X194560D2*
X202241D1*
X207012D2*
X208601D1*
X11397Y40980D2*
X19947D1*
X25650D2*
X32647D1*
X38350D2*
X45347D1*
X51050D2*
X58047D1*
X63750D2*
X70747D1*
X76450D2*
X83447D1*
X89150D2*
X114800D1*
X119977D2*
X125357D1*
X131060D2*
X138057D1*
X143760D2*
X150757D1*
X156460D2*
X163457D1*
X169160D2*
X176157D1*
X181860D2*
X188857D1*
X194560D2*
X202192D1*
X207061D2*
X208601D1*
X11397Y40348D2*
X20225D1*
X25650D2*
X32925D1*
X38350D2*
X45625D1*
X51050D2*
X58325D1*
X63750D2*
X71025D1*
X76450D2*
X83725D1*
X89150D2*
X125635D1*
X131060D2*
X138335D1*
X143760D2*
X151035D1*
X156460D2*
X163735D1*
X169160D2*
X176435D1*
X181860D2*
X189135D1*
X194560D2*
X202321D1*
X206942D2*
X208601D1*
X11397Y39717D2*
X19838D1*
X25560D2*
X32538D1*
X38260D2*
X45238D1*
X50960D2*
X57938D1*
X63660D2*
X70638D1*
X76360D2*
X83338D1*
X89060D2*
X97079D1*
X106989D2*
X109779D1*
X119689D2*
X125248D1*
X130970D2*
X137948D1*
X143670D2*
X150648D1*
X156370D2*
X163348D1*
X169070D2*
X176048D1*
X181770D2*
X188748D1*
X194470D2*
X202648D1*
X206615D2*
X208601D1*
X11397Y39085D2*
X19758D1*
X25640D2*
X32458D1*
X38340D2*
X45158D1*
X51040D2*
X57858D1*
X63740D2*
X70558D1*
X76440D2*
X83258D1*
X89140D2*
X96425D1*
X107654D2*
X109125D1*
X120354D2*
X125168D1*
X131050D2*
X137868D1*
X143750D2*
X150568D1*
X156450D2*
X163268D1*
X169150D2*
X175968D1*
X181850D2*
X188668D1*
X194550D2*
X203184D1*
X206069D2*
X208601D1*
X11397Y38453D2*
X19947D1*
X25461D2*
X32647D1*
X38161D2*
X45347D1*
X50861D2*
X58047D1*
X63561D2*
X70747D1*
X76261D2*
X83447D1*
X88961D2*
X96157D1*
X107922D2*
X108857D1*
X120622D2*
X125357D1*
X130871D2*
X138057D1*
X143571D2*
X150757D1*
X156271D2*
X163457D1*
X168971D2*
X176157D1*
X181671D2*
X188857D1*
X194371D2*
X202579D1*
X206674D2*
X208601D1*
X11397Y37822D2*
X20234D1*
X25164D2*
X32934D1*
X37864D2*
X45634D1*
X50564D2*
X58334D1*
X63264D2*
X71034D1*
X75964D2*
X83734D1*
X88664D2*
X96097D1*
X107972D2*
X108797D1*
X120672D2*
X125644D1*
X130574D2*
X138344D1*
X143274D2*
X151044D1*
X155974D2*
X163744D1*
X168674D2*
X176444D1*
X181374D2*
X189144D1*
X194074D2*
X202281D1*
X206972D2*
X208601D1*
X11397Y37190D2*
X19838D1*
X25560D2*
X32538D1*
X38260D2*
X45238D1*
X50960D2*
X57938D1*
X63660D2*
X70638D1*
X76360D2*
X83338D1*
X89060D2*
X94103D1*
X94805D2*
X96236D1*
X107833D2*
X108936D1*
X120533D2*
X125248D1*
X130970D2*
X137948D1*
X143670D2*
X150648D1*
X156370D2*
X163348D1*
X169070D2*
X176048D1*
X181770D2*
X188748D1*
X194470D2*
X202192D1*
X207061D2*
X208601D1*
X11397Y36558D2*
X19758D1*
X25640D2*
X32458D1*
X38340D2*
X45158D1*
X51040D2*
X57858D1*
X63740D2*
X70558D1*
X76440D2*
X83258D1*
X89140D2*
X93021D1*
X95887D2*
X96623D1*
X107456D2*
X109323D1*
X120156D2*
X125168D1*
X131050D2*
X137868D1*
X143750D2*
X150568D1*
X156450D2*
X163268D1*
X169150D2*
X175968D1*
X181850D2*
X188668D1*
X194550D2*
X202261D1*
X206992D2*
X208601D1*
X11397Y35927D2*
X19937D1*
X25461D2*
X32637D1*
X38161D2*
X45337D1*
X50861D2*
X58037D1*
X63561D2*
X70737D1*
X76261D2*
X83437D1*
X88961D2*
X92704D1*
X96204D2*
X97546D1*
X101532D2*
X102536D1*
X106533D2*
X110246D1*
X114232D2*
X115236D1*
X119233D2*
X125347D1*
X130871D2*
X138047D1*
X143571D2*
X150747D1*
X156271D2*
X163447D1*
X168971D2*
X176147D1*
X181671D2*
X188847D1*
X194371D2*
X202529D1*
X206724D2*
X208601D1*
X11397Y35295D2*
X20254D1*
X25144D2*
X32954D1*
X37844D2*
X45654D1*
X50544D2*
X58354D1*
X63244D2*
X71054D1*
X75944D2*
X83754D1*
X88644D2*
X92644D1*
X96264D2*
X125664D1*
X130554D2*
X138364D1*
X143254D2*
X151064D1*
X155954D2*
X163764D1*
X168654D2*
X176464D1*
X181354D2*
X189164D1*
X194054D2*
X203085D1*
X206168D2*
X208601D1*
X11397Y34663D2*
X19847D1*
X25551D2*
X32547D1*
X38251D2*
X45247D1*
X50951D2*
X57947D1*
X63651D2*
X70647D1*
X76351D2*
X83347D1*
X89051D2*
X92833D1*
X96075D2*
X125257D1*
X130961D2*
X137957D1*
X143661D2*
X150657D1*
X156361D2*
X163357D1*
X169061D2*
X176057D1*
X181761D2*
X188757D1*
X194461D2*
X202698D1*
X206555D2*
X208601D1*
X11397Y34032D2*
X19758D1*
X25640D2*
X32458D1*
X38340D2*
X45158D1*
X51040D2*
X57858D1*
X63740D2*
X70558D1*
X76440D2*
X83258D1*
X89140D2*
X93378D1*
X95530D2*
X125168D1*
X131050D2*
X137868D1*
X143750D2*
X150568D1*
X156450D2*
X163268D1*
X169150D2*
X175968D1*
X181850D2*
X188668D1*
X194550D2*
X202341D1*
X206913D2*
X208601D1*
X11397Y33400D2*
X19927D1*
X25471D2*
X32627D1*
X38171D2*
X45327D1*
X50871D2*
X58027D1*
X63571D2*
X70727D1*
X76271D2*
X83427D1*
X88971D2*
X125337D1*
X130881D2*
X138037D1*
X143581D2*
X150737D1*
X156281D2*
X163437D1*
X168981D2*
X176137D1*
X181681D2*
X188837D1*
X194381D2*
X202202D1*
X207051D2*
X208601D1*
X11397Y32768D2*
X20264D1*
X25134D2*
X32964D1*
X37834D2*
X45664D1*
X50534D2*
X58364D1*
X63234D2*
X71064D1*
X75934D2*
X83764D1*
X88634D2*
X125674D1*
X130544D2*
X138374D1*
X143244D2*
X151074D1*
X155944D2*
X163774D1*
X168644D2*
X176474D1*
X181344D2*
X189174D1*
X194044D2*
X202231D1*
X207032D2*
X208601D1*
X11397Y32137D2*
X19847D1*
X25551D2*
X32547D1*
X38251D2*
X45247D1*
X50951D2*
X57947D1*
X63651D2*
X70647D1*
X76351D2*
X83347D1*
X89051D2*
X97149D1*
X106930D2*
X109849D1*
X114629D2*
X114843D1*
X119630D2*
X125257D1*
X130961D2*
X137957D1*
X143661D2*
X150657D1*
X156361D2*
X163357D1*
X169061D2*
X176057D1*
X181761D2*
X188757D1*
X194461D2*
X202440D1*
X206823D2*
X208601D1*
X11397Y31505D2*
X19758D1*
X25640D2*
X32458D1*
X38340D2*
X45158D1*
X51040D2*
X57858D1*
X63740D2*
X70558D1*
X76440D2*
X83258D1*
X89140D2*
X96454D1*
X107614D2*
X109154D1*
X120314D2*
X125168D1*
X131050D2*
X137868D1*
X143750D2*
X150568D1*
X156450D2*
X163268D1*
X169150D2*
X175968D1*
X181850D2*
X188668D1*
X194550D2*
X202896D1*
X206367D2*
X208601D1*
X11397Y30873D2*
X19927D1*
X25481D2*
X32627D1*
X38181D2*
X45327D1*
X50881D2*
X58027D1*
X63581D2*
X70727D1*
X76281D2*
X83427D1*
X88981D2*
X96167D1*
X107902D2*
X108867D1*
X120602D2*
X125337D1*
X130891D2*
X138037D1*
X143591D2*
X150737D1*
X156291D2*
X163437D1*
X168991D2*
X176137D1*
X181691D2*
X188837D1*
X194391D2*
X202856D1*
X206407D2*
X208601D1*
X11397Y30242D2*
X20284D1*
X25124D2*
X32984D1*
X37824D2*
X45684D1*
X50524D2*
X58384D1*
X63224D2*
X71084D1*
X75924D2*
X83784D1*
X88624D2*
X96097D1*
X107972D2*
X108797D1*
X120672D2*
X125694D1*
X130534D2*
X138394D1*
X143234D2*
X151094D1*
X155934D2*
X163794D1*
X168634D2*
X176494D1*
X181334D2*
X189194D1*
X194034D2*
X202420D1*
X206843D2*
X208601D1*
X11397Y29610D2*
X19857D1*
X25551D2*
X32557D1*
X38251D2*
X45257D1*
X50951D2*
X57957D1*
X63651D2*
X70657D1*
X76351D2*
X83357D1*
X89051D2*
X96226D1*
X107843D2*
X108926D1*
X120543D2*
X125267D1*
X130961D2*
X137967D1*
X143661D2*
X150667D1*
X156361D2*
X163367D1*
X169061D2*
X176067D1*
X181761D2*
X188767D1*
X194461D2*
X202221D1*
X207032D2*
X208601D1*
X11397Y28978D2*
X19758D1*
X25640D2*
X32458D1*
X38340D2*
X45158D1*
X51040D2*
X57858D1*
X63740D2*
X70558D1*
X76440D2*
X83258D1*
X89140D2*
X96583D1*
X107485D2*
X109283D1*
X120185D2*
X125168D1*
X131050D2*
X137868D1*
X143750D2*
X150568D1*
X156450D2*
X163268D1*
X169150D2*
X175968D1*
X181850D2*
X188668D1*
X194550D2*
X202202D1*
X207051D2*
X208601D1*
X11397Y28347D2*
X19917D1*
X25481D2*
X32617D1*
X38181D2*
X45317D1*
X50881D2*
X58017D1*
X63581D2*
X70717D1*
X76281D2*
X83417D1*
X88981D2*
X97427D1*
X101641D2*
X102427D1*
X106642D2*
X110127D1*
X114341D2*
X115127D1*
X119342D2*
X125327D1*
X130891D2*
X138027D1*
X143591D2*
X150727D1*
X156291D2*
X163427D1*
X168991D2*
X176127D1*
X181691D2*
X188827D1*
X194391D2*
X202360D1*
X206893D2*
X208601D1*
X11397Y27715D2*
X20294D1*
X25104D2*
X32994D1*
X37804D2*
X45694D1*
X50504D2*
X58394D1*
X63204D2*
X71094D1*
X75904D2*
X83794D1*
X88604D2*
X125704D1*
X130514D2*
X138404D1*
X143214D2*
X151104D1*
X155914D2*
X163804D1*
X168614D2*
X176504D1*
X181314D2*
X189204D1*
X194014D2*
X202737D1*
X206526D2*
X208601D1*
X11397Y27083D2*
X19857D1*
X25541D2*
X32557D1*
X38241D2*
X45257D1*
X50941D2*
X57957D1*
X63641D2*
X70657D1*
X76341D2*
X83357D1*
X89041D2*
X125267D1*
X130951D2*
X137967D1*
X143651D2*
X150667D1*
X156351D2*
X163367D1*
X169051D2*
X176067D1*
X181751D2*
X188767D1*
X194451D2*
X203541D1*
X205712D2*
X208601D1*
X11397Y26452D2*
X19758D1*
X25650D2*
X32458D1*
X38350D2*
X45158D1*
X51050D2*
X57858D1*
X63750D2*
X70558D1*
X76450D2*
X83258D1*
X89150D2*
X125168D1*
X131060D2*
X137868D1*
X143760D2*
X150568D1*
X156460D2*
X163268D1*
X169160D2*
X175968D1*
X181860D2*
X188668D1*
X194560D2*
X208601D1*
X11397Y25820D2*
X19907D1*
X25491D2*
X32607D1*
X38191D2*
X45307D1*
X50891D2*
X58007D1*
X63591D2*
X70707D1*
X76291D2*
X83407D1*
X88991D2*
X125317D1*
X130901D2*
X138017D1*
X143601D2*
X150717D1*
X156301D2*
X163417D1*
X169001D2*
X176117D1*
X181701D2*
X188817D1*
X194401D2*
X208601D1*
X11397Y25188D2*
X20314D1*
X25094D2*
X33014D1*
X37794D2*
X45714D1*
X50494D2*
X58414D1*
X63194D2*
X71114D1*
X75894D2*
X83814D1*
X88594D2*
X125724D1*
X130504D2*
X138424D1*
X143204D2*
X151124D1*
X155904D2*
X163824D1*
X168604D2*
X176524D1*
X181304D2*
X189224D1*
X194004D2*
X208601D1*
X11397Y24557D2*
X19867D1*
X25531D2*
X32567D1*
X38231D2*
X45267D1*
X50931D2*
X57967D1*
X63631D2*
X70667D1*
X76331D2*
X83367D1*
X89031D2*
X97218D1*
X101860D2*
X102219D1*
X106860D2*
X109918D1*
X114560D2*
X114919D1*
X119560D2*
X125277D1*
X130941D2*
X137977D1*
X143641D2*
X150677D1*
X156341D2*
X163377D1*
X169041D2*
X176077D1*
X181741D2*
X188777D1*
X194441D2*
X208601D1*
X11397Y23925D2*
X19758D1*
X25650D2*
X32458D1*
X38350D2*
X45158D1*
X51050D2*
X57858D1*
X63750D2*
X70558D1*
X76450D2*
X83258D1*
X89150D2*
X96484D1*
X107585D2*
X109184D1*
X120285D2*
X125168D1*
X131060D2*
X137868D1*
X143760D2*
X150568D1*
X156460D2*
X163268D1*
X169160D2*
X175968D1*
X181860D2*
X188668D1*
X194560D2*
X208601D1*
X11397Y23293D2*
X19907D1*
X25501D2*
X32607D1*
X38201D2*
X45307D1*
X50901D2*
X58007D1*
X63601D2*
X70707D1*
X76301D2*
X83407D1*
X89001D2*
X96176D1*
X107892D2*
X108876D1*
X120592D2*
X125317D1*
X130911D2*
X138017D1*
X143611D2*
X150717D1*
X156311D2*
X163417D1*
X169011D2*
X176117D1*
X181711D2*
X188817D1*
X194411D2*
X208601D1*
X11397Y22662D2*
X20423D1*
X22435D2*
X22963D1*
X24975D2*
X33123D1*
X35135D2*
X35663D1*
X37675D2*
X45823D1*
X47835D2*
X48363D1*
X50375D2*
X58523D1*
X60535D2*
X61063D1*
X63075D2*
X71223D1*
X73235D2*
X73763D1*
X75775D2*
X83923D1*
X85935D2*
X86463D1*
X88475D2*
X96097D1*
X107972D2*
X108797D1*
X120672D2*
X125833D1*
X127845D2*
X128373D1*
X130385D2*
X138533D1*
X140545D2*
X141073D1*
X143085D2*
X151233D1*
X153245D2*
X153773D1*
X155785D2*
X163933D1*
X165945D2*
X166473D1*
X168485D2*
X176633D1*
X178645D2*
X179173D1*
X181185D2*
X189333D1*
X191345D2*
X191873D1*
X193885D2*
X208601D1*
X11397Y22030D2*
X96206D1*
X107862D2*
X108906D1*
X120562D2*
X208601D1*
X11397Y21398D2*
X96553D1*
X107515D2*
X109253D1*
X120215D2*
X208601D1*
X11397Y20767D2*
X97347D1*
X101721D2*
X102348D1*
X106721D2*
X110047D1*
X114421D2*
X115048D1*
X119421D2*
X208601D1*
X11397Y20135D2*
X208601D1*
X11397Y19503D2*
X208601D1*
X11397Y18872D2*
X208601D1*
X11397Y18240D2*
X208601D1*
X11397Y17608D2*
X208601D1*
X11397Y16977D2*
X12743D1*
X14875D2*
X74973D1*
X77105D2*
X96653D1*
X101155D2*
X101653D1*
X106156D2*
X110623D1*
X115125D2*
X115623D1*
X120126D2*
X142918D1*
X145050D2*
X205148D1*
X207280D2*
X208601D1*
X11397Y16345D2*
X11602D1*
X16016D2*
X73832D1*
X78246D2*
X95889D1*
X106920D2*
X109859D1*
X120890D2*
X141777D1*
X146191D2*
X204007D1*
X16591Y15713D2*
X73257D1*
X78821D2*
X95561D1*
X107237D2*
X109531D1*
X121207D2*
X141202D1*
X146766D2*
X203432D1*
X16938Y15082D2*
X72910D1*
X79168D2*
X95462D1*
X107337D2*
X109432D1*
X121307D2*
X140855D1*
X147113D2*
X203085D1*
X17127Y14450D2*
X72721D1*
X79357D2*
X95561D1*
X107237D2*
X109531D1*
X121207D2*
X140666D1*
X147302D2*
X202896D1*
X17196Y13818D2*
X72652D1*
X79426D2*
X95879D1*
X106920D2*
X109849D1*
X120890D2*
X140597D1*
X147371D2*
X202827D1*
X17137Y13187D2*
X72711D1*
X79367D2*
X96643D1*
X101155D2*
X101643D1*
X106156D2*
X110613D1*
X115125D2*
X115613D1*
X120126D2*
X140656D1*
X147312D2*
X202886D1*
X16948Y12555D2*
X72900D1*
X79178D2*
X140845D1*
X147123D2*
X203075D1*
X16601Y11923D2*
X73247D1*
X78831D2*
X141192D1*
X146776D2*
X203422D1*
X130962Y38895D2*
X130870Y38591D1*
X130720Y38312D1*
X130518Y38067D1*
X130372Y37948D1*
X130536Y37794D1*
X130734Y37547D1*
X130879Y37265D1*
X130967Y36960D1*
X130993Y36670D1*
X130962Y36355D1*
X130870Y36051D1*
X130720Y35772D1*
X130518Y35527D1*
X130372Y35408D1*
X130536Y35254D1*
X130734Y35007D1*
X130879Y34725D1*
X130967Y34420D1*
X130993Y34130D1*
X130962Y33815D1*
X130870Y33511D1*
X130720Y33232D1*
X130518Y32987D1*
X130372Y32868D1*
X130621Y32620D1*
X130799Y32357D1*
X130921Y32065D1*
X130985Y31754D1*
X130988Y31463D1*
X130932Y31151D1*
X130816Y30856D1*
X130645Y30589D1*
X130425Y30361D1*
X130374Y30320D1*
X130621Y30080D1*
X130799Y29817D1*
X130921Y29525D1*
X130985Y29214D1*
X130988Y28923D1*
X130932Y28611D1*
X130816Y28316D1*
X130645Y28049D1*
X130425Y27821D1*
X130374Y27780D1*
X130621Y27540D1*
X130799Y27277D1*
X130921Y26985D1*
X130985Y26674D1*
X130988Y26383D1*
X130932Y26071D1*
X130816Y25776D1*
X130645Y25509D1*
X130425Y25281D1*
X130374Y25240D1*
X130536Y25094D1*
X130734Y24847D1*
X130879Y24565D1*
X130967Y24260D1*
X130993Y23970D1*
X130962Y23655D1*
X130870Y23351D1*
X130720Y23072D1*
X130518Y22827D1*
X130273Y22627D1*
X129993Y22478D1*
X129689Y22387D1*
X129374Y22357D1*
X129058Y22390D1*
X128755Y22483D1*
X128477Y22634D1*
X128233Y22836D1*
X128114Y22983D1*
X127978Y22827D1*
X127733Y22627D1*
X127453Y22478D1*
X127149Y22387D1*
X126834Y22357D1*
X126518Y22390D1*
X126215Y22483D1*
X125937Y22634D1*
X125693Y22836D1*
X125493Y23083D1*
X125346Y23363D1*
X125256Y23667D1*
X125227Y23983D1*
X125261Y24298D1*
X125356Y24601D1*
X125508Y24879D1*
X125711Y25122D1*
X125858Y25240D1*
X125693Y25376D1*
X125493Y25623D1*
X125346Y25903D1*
X125256Y26207D1*
X125227Y26523D1*
X125261Y26838D1*
X125356Y27141D1*
X125508Y27419D1*
X125711Y27662D1*
X125847Y27781D1*
X125649Y27962D1*
X125459Y28216D1*
X125323Y28503D1*
X125245Y28810D1*
X125229Y29126D1*
X125275Y29440D1*
X125381Y29739D1*
X125544Y30011D1*
X125757Y30245D1*
X125847Y30321D1*
X125649Y30502D1*
X125459Y30756D1*
X125323Y31043D1*
X125245Y31350D1*
X125229Y31666D1*
X125275Y31980D1*
X125381Y32279D1*
X125544Y32551D1*
X125757Y32785D1*
X125847Y32861D1*
X125693Y32996D1*
X125493Y33243D1*
X125346Y33523D1*
X125256Y33827D1*
X125227Y34143D1*
X125261Y34458D1*
X125356Y34761D1*
X125508Y35039D1*
X125711Y35282D1*
X125858Y35400D1*
X125693Y35536D1*
X125493Y35783D1*
X125346Y36063D1*
X125256Y36367D1*
X125227Y36683D1*
X125261Y36998D1*
X125356Y37301D1*
X125508Y37579D1*
X125711Y37822D1*
X125858Y37940D1*
X125693Y38076D1*
X125493Y38323D1*
X125346Y38603D1*
X125256Y38907D1*
X125227Y39223D1*
X125261Y39538D1*
X125356Y39841D1*
X125508Y40119D1*
X125711Y40362D1*
X125858Y40480D1*
X125693Y40616D1*
X125493Y40863D1*
X125346Y41143D1*
X125256Y41447D1*
X125227Y41763D1*
X125261Y42078D1*
X125356Y42381D1*
X125508Y42659D1*
X125711Y42902D1*
X125958Y43100D1*
X126239Y43247D1*
X126544Y43335D1*
X126859Y43363D1*
X127174Y43328D1*
X127477Y43232D1*
X127762Y43072D1*
X127767Y43363D1*
X130993D1*
Y40137D1*
X130705D1*
X130879Y39805D1*
X130967Y39500D1*
X130993Y39210D1*
X130962Y38895D1*
X38252D2*
X38160Y38591D1*
X38010Y38312D1*
X37808Y38067D1*
X37662Y37948D1*
X37826Y37794D1*
X38024Y37547D1*
X38169Y37265D1*
X38257Y36960D1*
X38283Y36670D1*
X38252Y36355D1*
X38160Y36051D1*
X38010Y35772D1*
X37808Y35527D1*
X37662Y35408D1*
X37826Y35254D1*
X38024Y35007D1*
X38169Y34725D1*
X38257Y34420D1*
X38283Y34130D1*
X38252Y33815D1*
X38160Y33511D1*
X38010Y33232D1*
X37808Y32987D1*
X37662Y32868D1*
X37911Y32620D1*
X38089Y32357D1*
X38211Y32065D1*
X38275Y31754D1*
X38278Y31463D1*
X38222Y31151D1*
X38106Y30856D1*
X37935Y30589D1*
X37715Y30361D1*
X37664Y30320D1*
X37911Y30080D1*
X38089Y29817D1*
X38211Y29525D1*
X38275Y29214D1*
X38278Y28923D1*
X38222Y28611D1*
X38106Y28316D1*
X37935Y28049D1*
X37715Y27821D1*
X37664Y27780D1*
X37911Y27540D1*
X38089Y27277D1*
X38211Y26985D1*
X38275Y26674D1*
X38278Y26383D1*
X38222Y26071D1*
X38106Y25776D1*
X37935Y25509D1*
X37715Y25281D1*
X37664Y25240D1*
X37826Y25094D1*
X38024Y24847D1*
X38169Y24565D1*
X38257Y24260D1*
X38283Y23970D1*
X38252Y23655D1*
X38160Y23351D1*
X38010Y23072D1*
X37808Y22827D1*
X37563Y22627D1*
X37283Y22478D1*
X36979Y22387D1*
X36664Y22357D1*
X36348Y22390D1*
X36045Y22483D1*
X35767Y22634D1*
X35523Y22836D1*
X35404Y22983D1*
X35268Y22827D1*
X35023Y22627D1*
X34743Y22478D1*
X34439Y22387D1*
X34124Y22357D1*
X33808Y22390D1*
X33505Y22483D1*
X33227Y22634D1*
X32983Y22836D1*
X32783Y23083D1*
X32636Y23363D1*
X32546Y23667D1*
X32517Y23983D1*
X32551Y24298D1*
X32646Y24601D1*
X32798Y24879D1*
X33001Y25122D1*
X33148Y25240D1*
X32983Y25376D1*
X32783Y25623D1*
X32636Y25903D1*
X32546Y26207D1*
X32517Y26523D1*
X32551Y26838D1*
X32646Y27141D1*
X32798Y27419D1*
X33001Y27662D1*
X33137Y27781D1*
X32939Y27962D1*
X32749Y28216D1*
X32613Y28503D1*
X32535Y28810D1*
X32519Y29126D1*
X32565Y29440D1*
X32671Y29739D1*
X32834Y30011D1*
X33047Y30245D1*
X33137Y30321D1*
X32939Y30502D1*
X32749Y30756D1*
X32613Y31043D1*
X32535Y31350D1*
X32519Y31666D1*
X32565Y31980D1*
X32671Y32279D1*
X32834Y32551D1*
X33047Y32785D1*
X33137Y32861D1*
X32983Y32996D1*
X32783Y33243D1*
X32636Y33523D1*
X32546Y33827D1*
X32517Y34143D1*
X32551Y34458D1*
X32646Y34761D1*
X32798Y35039D1*
X33001Y35282D1*
X33148Y35400D1*
X32983Y35536D1*
X32783Y35783D1*
X32636Y36063D1*
X32546Y36367D1*
X32517Y36683D1*
X32551Y36998D1*
X32646Y37301D1*
X32798Y37579D1*
X33001Y37822D1*
X33148Y37940D1*
X32983Y38076D1*
X32783Y38323D1*
X32636Y38603D1*
X32546Y38907D1*
X32517Y39223D1*
X32551Y39538D1*
X32646Y39841D1*
X32798Y40119D1*
X33001Y40362D1*
X33148Y40480D1*
X32983Y40616D1*
X32783Y40863D1*
X32636Y41143D1*
X32546Y41447D1*
X32517Y41763D1*
X32551Y42078D1*
X32646Y42381D1*
X32798Y42659D1*
X33001Y42902D1*
X33248Y43100D1*
X33529Y43247D1*
X33834Y43335D1*
X34149Y43363D1*
X34464Y43328D1*
X34767Y43232D1*
X35052Y43072D1*
X35057Y43363D1*
X38283D1*
Y40137D1*
X37995D1*
X38169Y39805D1*
X38257Y39500D1*
X38283Y39210D1*
X38252Y38895D1*
X89052D2*
X88960Y38591D1*
X88810Y38312D1*
X88608Y38067D1*
X88462Y37948D1*
X88626Y37794D1*
X88824Y37547D1*
X88969Y37265D1*
X89057Y36960D1*
X89083Y36670D1*
X89052Y36355D1*
X88960Y36051D1*
X88810Y35772D1*
X88608Y35527D1*
X88462Y35408D1*
X88626Y35254D1*
X88824Y35007D1*
X88969Y34725D1*
X89057Y34420D1*
X89083Y34130D1*
X89052Y33815D1*
X88960Y33511D1*
X88810Y33232D1*
X88608Y32987D1*
X88462Y32868D1*
X88711Y32620D1*
X88889Y32357D1*
X89011Y32065D1*
X89075Y31754D1*
X89078Y31463D1*
X89022Y31151D1*
X88906Y30856D1*
X88735Y30589D1*
X88515Y30361D1*
X88464Y30320D1*
X88711Y30080D1*
X88889Y29817D1*
X89011Y29525D1*
X89075Y29214D1*
X89078Y28923D1*
X89022Y28611D1*
X88906Y28316D1*
X88735Y28049D1*
X88515Y27821D1*
X88464Y27780D1*
X88711Y27540D1*
X88889Y27277D1*
X89011Y26985D1*
X89075Y26674D1*
X89078Y26383D1*
X89022Y26071D1*
X88906Y25776D1*
X88735Y25509D1*
X88515Y25281D1*
X88464Y25240D1*
X88626Y25094D1*
X88824Y24847D1*
X88969Y24565D1*
X89057Y24260D1*
X89083Y23970D1*
X89052Y23655D1*
X88960Y23351D1*
X88810Y23072D1*
X88608Y22827D1*
X88363Y22627D1*
X88083Y22478D1*
X87779Y22387D1*
X87464Y22357D1*
X87148Y22390D1*
X86845Y22483D1*
X86567Y22634D1*
X86323Y22836D1*
X86204Y22983D1*
X86068Y22827D1*
X85823Y22627D1*
X85543Y22478D1*
X85239Y22387D1*
X84924Y22357D1*
X84608Y22390D1*
X84305Y22483D1*
X84027Y22634D1*
X83783Y22836D1*
X83583Y23083D1*
X83436Y23363D1*
X83346Y23667D1*
X83317Y23983D1*
X83351Y24298D1*
X83446Y24601D1*
X83598Y24879D1*
X83801Y25122D1*
X83948Y25240D1*
X83783Y25376D1*
X83583Y25623D1*
X83436Y25903D1*
X83346Y26207D1*
X83317Y26523D1*
X83351Y26838D1*
X83446Y27141D1*
X83598Y27419D1*
X83801Y27662D1*
X83937Y27781D1*
X83739Y27962D1*
X83549Y28216D1*
X83413Y28503D1*
X83335Y28810D1*
X83319Y29126D1*
X83365Y29440D1*
X83471Y29739D1*
X83634Y30011D1*
X83847Y30245D1*
X83937Y30321D1*
X83739Y30502D1*
X83549Y30756D1*
X83413Y31043D1*
X83335Y31350D1*
X83319Y31666D1*
X83365Y31980D1*
X83471Y32279D1*
X83634Y32551D1*
X83847Y32785D1*
X83937Y32861D1*
X83783Y32996D1*
X83583Y33243D1*
X83436Y33523D1*
X83346Y33827D1*
X83317Y34143D1*
X83351Y34458D1*
X83446Y34761D1*
X83598Y35039D1*
X83801Y35282D1*
X83948Y35400D1*
X83783Y35536D1*
X83583Y35783D1*
X83436Y36063D1*
X83346Y36367D1*
X83317Y36683D1*
X83351Y36998D1*
X83446Y37301D1*
X83598Y37579D1*
X83801Y37822D1*
X83948Y37940D1*
X83783Y38076D1*
X83583Y38323D1*
X83436Y38603D1*
X83346Y38907D1*
X83317Y39223D1*
X83351Y39538D1*
X83446Y39841D1*
X83598Y40119D1*
X83801Y40362D1*
X83948Y40480D1*
X83783Y40616D1*
X83583Y40863D1*
X83436Y41143D1*
X83346Y41447D1*
X83317Y41763D1*
X83351Y42078D1*
X83446Y42381D1*
X83598Y42659D1*
X83801Y42902D1*
X84048Y43100D1*
X84329Y43247D1*
X84634Y43335D1*
X84949Y43363D1*
X85264Y43328D1*
X85567Y43232D1*
X85852Y43072D1*
X85857Y43363D1*
X89083D1*
Y40137D1*
X88795D1*
X88969Y39805D1*
X89057Y39500D1*
X89083Y39210D1*
X89052Y38895D1*
X181762D2*
X181670Y38591D1*
X181520Y38312D1*
X181318Y38067D1*
X181172Y37948D1*
X181336Y37794D1*
X181534Y37547D1*
X181679Y37265D1*
X181767Y36960D1*
X181793Y36670D1*
X181762Y36355D1*
X181670Y36051D1*
X181520Y35772D1*
X181318Y35527D1*
X181172Y35408D1*
X181336Y35254D1*
X181534Y35007D1*
X181679Y34725D1*
X181767Y34420D1*
X181793Y34130D1*
X181762Y33815D1*
X181670Y33511D1*
X181520Y33232D1*
X181318Y32987D1*
X181172Y32868D1*
X181421Y32620D1*
X181599Y32357D1*
X181721Y32065D1*
X181785Y31754D1*
X181788Y31463D1*
X181732Y31151D1*
X181616Y30856D1*
X181445Y30589D1*
X181225Y30361D1*
X181174Y30320D1*
X181421Y30080D1*
X181599Y29817D1*
X181721Y29525D1*
X181785Y29214D1*
X181788Y28923D1*
X181732Y28611D1*
X181616Y28316D1*
X181445Y28049D1*
X181225Y27821D1*
X181174Y27780D1*
X181421Y27540D1*
X181599Y27277D1*
X181721Y26985D1*
X181785Y26674D1*
X181788Y26383D1*
X181732Y26071D1*
X181616Y25776D1*
X181445Y25509D1*
X181225Y25281D1*
X181174Y25240D1*
X181336Y25094D1*
X181534Y24847D1*
X181679Y24565D1*
X181767Y24260D1*
X181793Y23970D1*
X181762Y23655D1*
X181670Y23351D1*
X181520Y23072D1*
X181318Y22827D1*
X181073Y22627D1*
X180793Y22478D1*
X180489Y22387D1*
X180174Y22357D1*
X179858Y22390D1*
X179555Y22483D1*
X179277Y22634D1*
X179033Y22836D1*
X178914Y22983D1*
X178778Y22827D1*
X178533Y22627D1*
X178253Y22478D1*
X177949Y22387D1*
X177634Y22357D1*
X177318Y22390D1*
X177015Y22483D1*
X176737Y22634D1*
X176493Y22836D1*
X176293Y23083D1*
X176146Y23363D1*
X176056Y23667D1*
X176027Y23983D1*
X176061Y24298D1*
X176156Y24601D1*
X176308Y24879D1*
X176511Y25122D1*
X176658Y25240D1*
X176493Y25376D1*
X176293Y25623D1*
X176146Y25903D1*
X176056Y26207D1*
X176027Y26523D1*
X176061Y26838D1*
X176156Y27141D1*
X176308Y27419D1*
X176511Y27662D1*
X176647Y27781D1*
X176449Y27962D1*
X176259Y28216D1*
X176123Y28503D1*
X176045Y28810D1*
X176029Y29126D1*
X176075Y29440D1*
X176181Y29739D1*
X176344Y30011D1*
X176557Y30245D1*
X176647Y30321D1*
X176449Y30502D1*
X176259Y30756D1*
X176123Y31043D1*
X176045Y31350D1*
X176029Y31666D1*
X176075Y31980D1*
X176181Y32279D1*
X176344Y32551D1*
X176557Y32785D1*
X176647Y32861D1*
X176493Y32996D1*
X176293Y33243D1*
X176146Y33523D1*
X176056Y33827D1*
X176027Y34143D1*
X176061Y34458D1*
X176156Y34761D1*
X176308Y35039D1*
X176511Y35282D1*
X176658Y35400D1*
X176493Y35536D1*
X176293Y35783D1*
X176146Y36063D1*
X176056Y36367D1*
X176027Y36683D1*
X176061Y36998D1*
X176156Y37301D1*
X176308Y37579D1*
X176511Y37822D1*
X176658Y37940D1*
X176493Y38076D1*
X176293Y38323D1*
X176146Y38603D1*
X176056Y38907D1*
X176027Y39223D1*
X176061Y39538D1*
X176156Y39841D1*
X176308Y40119D1*
X176511Y40362D1*
X176658Y40480D1*
X176493Y40616D1*
X176293Y40863D1*
X176146Y41143D1*
X176056Y41447D1*
X176027Y41763D1*
X176061Y42078D1*
X176156Y42381D1*
X176308Y42659D1*
X176511Y42902D1*
X176758Y43100D1*
X177039Y43247D1*
X177344Y43335D1*
X177659Y43363D1*
X177974Y43328D1*
X178277Y43232D1*
X178562Y43072D1*
X178567Y43363D1*
X181793D1*
Y40137D1*
X181505D1*
X181679Y39805D1*
X181767Y39500D1*
X181793Y39210D1*
X181762Y38895D1*
X169062D2*
X168970Y38591D1*
X168820Y38312D1*
X168618Y38067D1*
X168472Y37948D1*
X168636Y37794D1*
X168834Y37547D1*
X168979Y37265D1*
X169067Y36960D1*
X169093Y36670D1*
X169062Y36355D1*
X168970Y36051D1*
X168820Y35772D1*
X168618Y35527D1*
X168472Y35408D1*
X168636Y35254D1*
X168834Y35007D1*
X168979Y34725D1*
X169067Y34420D1*
X169093Y34130D1*
X169062Y33815D1*
X168970Y33511D1*
X168820Y33232D1*
X168618Y32987D1*
X168472Y32868D1*
X168721Y32620D1*
X168899Y32357D1*
X169021Y32065D1*
X169085Y31754D1*
X169088Y31463D1*
X169032Y31151D1*
X168916Y30856D1*
X168745Y30589D1*
X168525Y30361D1*
X168474Y30320D1*
X168721Y30080D1*
X168899Y29817D1*
X169021Y29525D1*
X169085Y29214D1*
X169088Y28923D1*
X169032Y28611D1*
X168916Y28316D1*
X168745Y28049D1*
X168525Y27821D1*
X168474Y27780D1*
X168721Y27540D1*
X168899Y27277D1*
X169021Y26985D1*
X169085Y26674D1*
X169088Y26383D1*
X169032Y26071D1*
X168916Y25776D1*
X168745Y25509D1*
X168525Y25281D1*
X168474Y25240D1*
X168636Y25094D1*
X168834Y24847D1*
X168979Y24565D1*
X169067Y24260D1*
X169093Y23970D1*
X169062Y23655D1*
X168970Y23351D1*
X168820Y23072D1*
X168618Y22827D1*
X168373Y22627D1*
X168093Y22478D1*
X167789Y22387D1*
X167474Y22357D1*
X167158Y22390D1*
X166855Y22483D1*
X166577Y22634D1*
X166333Y22836D1*
X166214Y22983D1*
X166078Y22827D1*
X165833Y22627D1*
X165553Y22478D1*
X165249Y22387D1*
X164934Y22357D1*
X164618Y22390D1*
X164315Y22483D1*
X164037Y22634D1*
X163793Y22836D1*
X163593Y23083D1*
X163446Y23363D1*
X163356Y23667D1*
X163327Y23983D1*
X163361Y24298D1*
X163456Y24601D1*
X163608Y24879D1*
X163811Y25122D1*
X163958Y25240D1*
X163793Y25376D1*
X163593Y25623D1*
X163446Y25903D1*
X163356Y26207D1*
X163327Y26523D1*
X163361Y26838D1*
X163456Y27141D1*
X163608Y27419D1*
X163811Y27662D1*
X163947Y27781D1*
X163749Y27962D1*
X163559Y28216D1*
X163423Y28503D1*
X163345Y28810D1*
X163329Y29126D1*
X163375Y29440D1*
X163481Y29739D1*
X163644Y30011D1*
X163857Y30245D1*
X163947Y30321D1*
X163749Y30502D1*
X163559Y30756D1*
X163423Y31043D1*
X163345Y31350D1*
X163329Y31666D1*
X163375Y31980D1*
X163481Y32279D1*
X163644Y32551D1*
X163857Y32785D1*
X163947Y32861D1*
X163793Y32996D1*
X163593Y33243D1*
X163446Y33523D1*
X163356Y33827D1*
X163327Y34143D1*
X163361Y34458D1*
X163456Y34761D1*
X163608Y35039D1*
X163811Y35282D1*
X163958Y35400D1*
X163793Y35536D1*
X163593Y35783D1*
X163446Y36063D1*
X163356Y36367D1*
X163327Y36683D1*
X163361Y36998D1*
X163456Y37301D1*
X163608Y37579D1*
X163811Y37822D1*
X163958Y37940D1*
X163793Y38076D1*
X163593Y38323D1*
X163446Y38603D1*
X163356Y38907D1*
X163327Y39223D1*
X163361Y39538D1*
X163456Y39841D1*
X163608Y40119D1*
X163811Y40362D1*
X163958Y40480D1*
X163793Y40616D1*
X163593Y40863D1*
X163446Y41143D1*
X163356Y41447D1*
X163327Y41763D1*
X163361Y42078D1*
X163456Y42381D1*
X163608Y42659D1*
X163811Y42902D1*
X164058Y43100D1*
X164339Y43247D1*
X164644Y43335D1*
X164959Y43363D1*
X165274Y43328D1*
X165577Y43232D1*
X165862Y43072D1*
X165867Y43363D1*
X169093D1*
Y40137D1*
X168805D1*
X168979Y39805D1*
X169067Y39500D1*
X169093Y39210D1*
X169062Y38895D1*
X156362D2*
X156270Y38591D1*
X156120Y38312D1*
X155918Y38067D1*
X155772Y37948D1*
X155936Y37794D1*
X156134Y37547D1*
X156279Y37265D1*
X156367Y36960D1*
X156393Y36670D1*
X156362Y36355D1*
X156270Y36051D1*
X156120Y35772D1*
X155918Y35527D1*
X155772Y35408D1*
X155936Y35254D1*
X156134Y35007D1*
X156279Y34725D1*
X156367Y34420D1*
X156393Y34130D1*
X156362Y33815D1*
X156270Y33511D1*
X156120Y33232D1*
X155918Y32987D1*
X155772Y32868D1*
X156021Y32620D1*
X156199Y32357D1*
X156321Y32065D1*
X156385Y31754D1*
X156388Y31463D1*
X156332Y31151D1*
X156216Y30856D1*
X156045Y30589D1*
X155825Y30361D1*
X155774Y30320D1*
X156021Y30080D1*
X156199Y29817D1*
X156321Y29525D1*
X156385Y29214D1*
X156388Y28923D1*
X156332Y28611D1*
X156216Y28316D1*
X156045Y28049D1*
X155825Y27821D1*
X155774Y27780D1*
X156021Y27540D1*
X156199Y27277D1*
X156321Y26985D1*
X156385Y26674D1*
X156388Y26383D1*
X156332Y26071D1*
X156216Y25776D1*
X156045Y25509D1*
X155825Y25281D1*
X155774Y25240D1*
X155936Y25094D1*
X156134Y24847D1*
X156279Y24565D1*
X156367Y24260D1*
X156393Y23970D1*
X156362Y23655D1*
X156270Y23351D1*
X156120Y23072D1*
X155918Y22827D1*
X155673Y22627D1*
X155393Y22478D1*
X155089Y22387D1*
X154774Y22357D1*
X154458Y22390D1*
X154155Y22483D1*
X153877Y22634D1*
X153633Y22836D1*
X153514Y22983D1*
X153378Y22827D1*
X153133Y22627D1*
X152853Y22478D1*
X152549Y22387D1*
X152234Y22357D1*
X151918Y22390D1*
X151615Y22483D1*
X151337Y22634D1*
X151093Y22836D1*
X150893Y23083D1*
X150746Y23363D1*
X150656Y23667D1*
X150627Y23983D1*
X150661Y24298D1*
X150756Y24601D1*
X150908Y24879D1*
X151111Y25122D1*
X151258Y25240D1*
X151093Y25376D1*
X150893Y25623D1*
X150746Y25903D1*
X150656Y26207D1*
X150627Y26523D1*
X150661Y26838D1*
X150756Y27141D1*
X150908Y27419D1*
X151111Y27662D1*
X151247Y27781D1*
X151049Y27962D1*
X150859Y28216D1*
X150723Y28503D1*
X150645Y28810D1*
X150629Y29126D1*
X150675Y29440D1*
X150781Y29739D1*
X150944Y30011D1*
X151157Y30245D1*
X151247Y30321D1*
X151049Y30502D1*
X150859Y30756D1*
X150723Y31043D1*
X150645Y31350D1*
X150629Y31666D1*
X150675Y31980D1*
X150781Y32279D1*
X150944Y32551D1*
X151157Y32785D1*
X151247Y32861D1*
X151093Y32996D1*
X150893Y33243D1*
X150746Y33523D1*
X150656Y33827D1*
X150627Y34143D1*
X150661Y34458D1*
X150756Y34761D1*
X150908Y35039D1*
X151111Y35282D1*
X151258Y35400D1*
X151093Y35536D1*
X150893Y35783D1*
X150746Y36063D1*
X150656Y36367D1*
X150627Y36683D1*
X150661Y36998D1*
X150756Y37301D1*
X150908Y37579D1*
X151111Y37822D1*
X151258Y37940D1*
X151093Y38076D1*
X150893Y38323D1*
X150746Y38603D1*
X150656Y38907D1*
X150627Y39223D1*
X150661Y39538D1*
X150756Y39841D1*
X150908Y40119D1*
X151111Y40362D1*
X151258Y40480D1*
X151093Y40616D1*
X150893Y40863D1*
X150746Y41143D1*
X150656Y41447D1*
X150627Y41763D1*
X150661Y42078D1*
X150756Y42381D1*
X150908Y42659D1*
X151111Y42902D1*
X151358Y43100D1*
X151639Y43247D1*
X151944Y43335D1*
X152259Y43363D1*
X152574Y43328D1*
X152877Y43232D1*
X153162Y43072D1*
X153167Y43363D1*
X156393D1*
Y40137D1*
X156105D1*
X156279Y39805D1*
X156367Y39500D1*
X156393Y39210D1*
X156362Y38895D1*
X143662D2*
X143570Y38591D1*
X143420Y38312D1*
X143218Y38067D1*
X143072Y37948D1*
X143236Y37794D1*
X143434Y37547D1*
X143579Y37265D1*
X143667Y36960D1*
X143693Y36670D1*
X143662Y36355D1*
X143570Y36051D1*
X143420Y35772D1*
X143218Y35527D1*
X143072Y35408D1*
X143236Y35254D1*
X143434Y35007D1*
X143579Y34725D1*
X143667Y34420D1*
X143693Y34130D1*
X143662Y33815D1*
X143570Y33511D1*
X143420Y33232D1*
X143218Y32987D1*
X143072Y32868D1*
X143321Y32620D1*
X143499Y32357D1*
X143621Y32065D1*
X143685Y31754D1*
X143688Y31463D1*
X143632Y31151D1*
X143516Y30856D1*
X143345Y30589D1*
X143125Y30361D1*
X143074Y30320D1*
X143321Y30080D1*
X143499Y29817D1*
X143621Y29525D1*
X143685Y29214D1*
X143688Y28923D1*
X143632Y28611D1*
X143516Y28316D1*
X143345Y28049D1*
X143125Y27821D1*
X143074Y27780D1*
X143321Y27540D1*
X143499Y27277D1*
X143621Y26985D1*
X143685Y26674D1*
X143688Y26383D1*
X143632Y26071D1*
X143516Y25776D1*
X143345Y25509D1*
X143125Y25281D1*
X143074Y25240D1*
X143236Y25094D1*
X143434Y24847D1*
X143579Y24565D1*
X143667Y24260D1*
X143693Y23970D1*
X143662Y23655D1*
X143570Y23351D1*
X143420Y23072D1*
X143218Y22827D1*
X142973Y22627D1*
X142693Y22478D1*
X142389Y22387D1*
X142074Y22357D1*
X141758Y22390D1*
X141455Y22483D1*
X141177Y22634D1*
X140933Y22836D1*
X140814Y22983D1*
X140678Y22827D1*
X140433Y22627D1*
X140153Y22478D1*
X139849Y22387D1*
X139534Y22357D1*
X139218Y22390D1*
X138915Y22483D1*
X138637Y22634D1*
X138393Y22836D1*
X138193Y23083D1*
X138046Y23363D1*
X137956Y23667D1*
X137927Y23983D1*
X137961Y24298D1*
X138056Y24601D1*
X138208Y24879D1*
X138411Y25122D1*
X138558Y25240D1*
X138393Y25376D1*
X138193Y25623D1*
X138046Y25903D1*
X137956Y26207D1*
X137927Y26523D1*
X137961Y26838D1*
X138056Y27141D1*
X138208Y27419D1*
X138411Y27662D1*
X138547Y27781D1*
X138349Y27962D1*
X138159Y28216D1*
X138023Y28503D1*
X137945Y28810D1*
X137929Y29126D1*
X137975Y29440D1*
X138081Y29739D1*
X138244Y30011D1*
X138457Y30245D1*
X138547Y30321D1*
X138349Y30502D1*
X138159Y30756D1*
X138023Y31043D1*
X137945Y31350D1*
X137929Y31666D1*
X137975Y31980D1*
X138081Y32279D1*
X138244Y32551D1*
X138457Y32785D1*
X138547Y32861D1*
X138393Y32996D1*
X138193Y33243D1*
X138046Y33523D1*
X137956Y33827D1*
X137927Y34143D1*
X137961Y34458D1*
X138056Y34761D1*
X138208Y35039D1*
X138411Y35282D1*
X138558Y35400D1*
X138393Y35536D1*
X138193Y35783D1*
X138046Y36063D1*
X137956Y36367D1*
X137927Y36683D1*
X137961Y36998D1*
X138056Y37301D1*
X138208Y37579D1*
X138411Y37822D1*
X138558Y37940D1*
X138393Y38076D1*
X138193Y38323D1*
X138046Y38603D1*
X137956Y38907D1*
X137927Y39223D1*
X137961Y39538D1*
X138056Y39841D1*
X138208Y40119D1*
X138411Y40362D1*
X138558Y40480D1*
X138393Y40616D1*
X138193Y40863D1*
X138046Y41143D1*
X137956Y41447D1*
X137927Y41763D1*
X137961Y42078D1*
X138056Y42381D1*
X138208Y42659D1*
X138411Y42902D1*
X138658Y43100D1*
X138939Y43247D1*
X139244Y43335D1*
X139559Y43363D1*
X139874Y43328D1*
X140177Y43232D1*
X140462Y43072D1*
X140467Y43363D1*
X143693D1*
Y40137D1*
X143405D1*
X143579Y39805D1*
X143667Y39500D1*
X143693Y39210D1*
X143662Y38895D1*
X155597Y52865D2*
X155497Y52564D1*
X155336Y52291D1*
X155120Y52059D1*
X154861Y51878D1*
X154568Y51756D1*
X154256Y51698D1*
X153940Y51708D1*
X153632Y51785D1*
X153348Y51926D1*
X153091Y52126D1*
Y51694D1*
X150119D1*
Y54666D1*
X153091D1*
Y54227D1*
X153243Y54361D1*
X153514Y54525D1*
X153813Y54628D1*
X154128Y54666D1*
X154443Y54636D1*
X154745Y54539D1*
X155020Y54381D1*
X155255Y54168D1*
X155439Y53911D1*
X155564Y53620D1*
X155631Y53180D1*
X155597Y52865D1*
X163535D2*
X163435Y52564D1*
X163273Y52291D1*
X163058Y52059D1*
X162798Y51878D1*
X162506Y51756D1*
X162194Y51698D1*
X161877Y51708D1*
X161570Y51785D1*
X161286Y51926D1*
X161028Y52126D1*
Y51694D1*
X158057D1*
Y54666D1*
X161028D1*
Y54227D1*
X161180Y54361D1*
X161451Y54525D1*
X161751Y54628D1*
X162065Y54666D1*
X162381Y54636D1*
X162683Y54539D1*
X162957Y54381D1*
X163192Y54168D1*
X163376Y53911D1*
X163502Y53620D1*
X163568Y53180D1*
X163535Y52865D1*
X171505Y53117D2*
X171457Y52803D1*
X171345Y52507D1*
X171172Y52241D1*
X170947Y52018D1*
X170679Y51848D1*
X170382Y51739D1*
X170068Y51695D1*
X169752Y51718D1*
X169448Y51809D1*
X169170Y51961D1*
X168966Y52126D1*
Y51694D1*
X165994D1*
Y54666D1*
X168966D1*
X168974Y54236D1*
X169222Y54433D1*
X169506Y54574D1*
X169813Y54651D1*
X170130Y54662D1*
X170442Y54605D1*
X170734Y54483D1*
X170994Y54302D1*
X171210Y54070D1*
X171372Y53797D1*
X171472Y53497D1*
X171506Y53180D1*
X171505Y53117D1*
X17116Y56038D2*
X16995Y55416D1*
X16759Y54827D1*
X16414Y54295D1*
X15975Y53837D1*
X15457Y53472D1*
X14879Y53211D1*
X14262Y53065D1*
X13629Y53039D1*
X13002Y53134D1*
X12405Y53346D1*
X11858Y53668D1*
X11383Y54088D1*
X11338Y54141D1*
X11334Y44062D1*
Y16012D1*
X11679Y16357D1*
X12202Y16715D1*
X12783Y16968D1*
X13402Y17106D1*
X14036Y17123D1*
X14661Y17020D1*
X15256Y16800D1*
X15798Y16470D1*
X16267Y16044D1*
X16647Y15536D1*
X16923Y14966D1*
X17086Y14353D1*
X17131Y13810D1*
X17070Y13179D1*
X16891Y12571D1*
X16599Y12008D1*
X16206Y11511D1*
X16011Y11326D1*
X18001Y11334D1*
X73831D1*
X73408Y11785D1*
X73071Y12322D1*
X72842Y12914D1*
X72730Y13538D1*
X72739Y14172D1*
X72868Y14792D1*
X73112Y15377D1*
X73464Y15905D1*
X73909Y16357D1*
X74432Y16715D1*
X75013Y16968D1*
X75632Y17106D1*
X76266Y17123D1*
X76891Y17020D1*
X77486Y16800D1*
X78028Y16470D1*
X78497Y16044D1*
X78877Y15536D1*
X79153Y14966D1*
X79316Y14353D1*
X79361Y13810D1*
X79300Y13179D1*
X79121Y12571D1*
X78829Y12008D1*
X78436Y11511D1*
X78241Y11326D1*
X80231Y11334D1*
X141776D1*
X141353Y11785D1*
X141016Y12322D1*
X140787Y12914D1*
X140675Y13538D1*
X140684Y14172D1*
X140813Y14792D1*
X141057Y15377D1*
X141409Y15905D1*
X141854Y16357D1*
X142377Y16715D1*
X142958Y16968D1*
X143577Y17106D1*
X144211Y17123D1*
X144836Y17020D1*
X145431Y16800D1*
X145973Y16470D1*
X146442Y16044D1*
X146822Y15536D1*
X147098Y14966D1*
X147261Y14353D1*
X147306Y13810D1*
X147245Y13179D1*
X147066Y12571D1*
X146774Y12008D1*
X146381Y11511D1*
X146186Y11326D1*
X148176Y11334D1*
X204006D1*
X203583Y11785D1*
X203246Y12322D1*
X203017Y12914D1*
X202905Y13538D1*
X202914Y14172D1*
X203043Y14792D1*
X203287Y15377D1*
X203639Y15905D1*
X204084Y16357D1*
X204607Y16715D1*
X205188Y16968D1*
X205807Y17106D1*
X206441Y17123D1*
X207066Y17020D1*
X207661Y16800D1*
X208203Y16470D1*
X208665Y16051D1*
X208667Y54107D1*
X208380Y53837D1*
X207862Y53472D1*
X207284Y53211D1*
X206667Y53065D1*
X206034Y53039D1*
X205407Y53134D1*
X204810Y53346D1*
X204263Y53668D1*
X203788Y54088D1*
X203402Y54591D1*
X203118Y55157D1*
X202946Y55768D1*
X202894Y56400D1*
X202964Y57030D1*
X203151Y57636D1*
X203450Y58195D1*
X203831Y58664D1*
X187126Y58667D1*
X187249Y58502D1*
X187394Y58220D1*
X187482Y57915D1*
X187508Y57625D1*
X187477Y57310D1*
X187385Y57006D1*
X187235Y56727D1*
X187033Y56482D1*
X186788Y56282D1*
X186508Y56133D1*
X186204Y56042D1*
X185889Y56012D1*
X185573Y56045D1*
X185270Y56138D1*
X184992Y56289D1*
X184748Y56491D1*
X184548Y56738D1*
X184401Y57018D1*
X184311Y57322D1*
X184282Y57638D1*
X184316Y57953D1*
X184411Y58256D1*
X184563Y58534D1*
X184671Y58663D1*
X176966Y58667D1*
X177089Y58502D1*
X177234Y58220D1*
X177322Y57915D1*
X177348Y57625D1*
X177317Y57310D1*
X177225Y57006D1*
X177075Y56727D1*
X176873Y56482D1*
X176628Y56282D1*
X176348Y56133D1*
X176044Y56042D1*
X175729Y56012D1*
X175413Y56045D1*
X175110Y56138D1*
X174832Y56289D1*
X174588Y56491D1*
X174388Y56738D1*
X174241Y57018D1*
X174151Y57322D1*
X174122Y57638D1*
X174156Y57953D1*
X174251Y58256D1*
X174403Y58534D1*
X174511Y58663D1*
X148977Y58667D1*
X146367D1*
X146644Y58344D1*
X146974Y57803D1*
X147194Y57208D1*
X147298Y56583D1*
X147291Y56038D1*
X147170Y55416D1*
X146934Y54827D1*
X146589Y54295D1*
X146150Y53837D1*
X145632Y53472D1*
X145054Y53211D1*
X144437Y53065D1*
X143804Y53039D1*
X143177Y53134D1*
X142580Y53346D1*
X142033Y53668D1*
X141558Y54088D1*
X141172Y54591D1*
X140888Y55157D1*
X140716Y55768D1*
X140664Y56400D1*
X140734Y57030D1*
X140921Y57636D1*
X141220Y58195D1*
X141601Y58664D1*
X78422Y58667D1*
X78699Y58344D1*
X79029Y57803D1*
X79249Y57208D1*
X79353Y56583D1*
X79346Y56038D1*
X79225Y55416D1*
X78989Y54827D1*
X78644Y54295D1*
X78205Y53837D1*
X77687Y53472D1*
X77109Y53211D1*
X76492Y53065D1*
X75859Y53039D1*
X75232Y53134D1*
X74635Y53346D1*
X74088Y53668D1*
X73613Y54088D1*
X73227Y54591D1*
X72943Y55157D1*
X72771Y55768D1*
X72719Y56400D1*
X72789Y57030D1*
X72976Y57636D1*
X73275Y58195D1*
X73656Y58664D1*
X16192Y58667D1*
X16469Y58344D1*
X16799Y57803D1*
X17019Y57208D1*
X17123Y56583D1*
X17116Y56038D1*
X101241Y39997D2*
X101385Y39972D1*
X101663Y39871D1*
X102032Y39657D1*
X102404Y39870D1*
X102681Y39971D1*
X103264Y40061D1*
X105951Y40048D1*
X106385Y39972D1*
X106663Y39871D1*
X107045Y39651D1*
X107272Y39461D1*
X107556Y39123D1*
X107704Y38868D1*
X107855Y38453D1*
X107906Y38162D1*
X107907Y37721D1*
X107856Y37430D1*
X107705Y37016D1*
X107558Y36760D1*
X107275Y36421D1*
X107048Y36231D1*
X106666Y36010D1*
X106389Y35909D1*
X105806Y35819D1*
X103119Y35832D1*
X102685Y35908D1*
X102407Y36009D1*
X102038Y36223D1*
X101666Y36010D1*
X101389Y35909D1*
X100806Y35819D1*
X98119Y35832D1*
X97685Y35908D1*
X97407Y36009D1*
X97025Y36229D1*
X96798Y36419D1*
X96514Y36757D1*
X96366Y37012D1*
X96215Y37427D1*
X96164Y37718D1*
X96163Y38159D1*
X96214Y38450D1*
X96365Y38864D1*
X96512Y39120D1*
X96795Y39459D1*
X97022Y39649D1*
X97404Y39870D1*
X97681Y39971D1*
X98264Y40061D1*
X100951Y40048D1*
X101241Y39997D1*
Y32377D2*
X101385Y32352D1*
X101663Y32251D1*
X101783Y32182D1*
X102303Y32187D1*
X102655Y32346D1*
X103264Y32441D1*
X105951Y32428D1*
X106385Y32352D1*
X106663Y32251D1*
X107045Y32031D1*
X107272Y31841D1*
X107556Y31503D1*
X107704Y31248D1*
X107855Y30833D1*
X107906Y30542D1*
X107907Y30101D1*
X107856Y29810D1*
X107705Y29396D1*
X107558Y29140D1*
X107275Y28801D1*
X107048Y28611D1*
X106666Y28390D1*
X106389Y28289D1*
X105806Y28199D1*
X103119Y28212D1*
X102685Y28288D1*
X102407Y28389D1*
X102287Y28458D1*
X101767Y28453D1*
X101415Y28294D1*
X100806Y28199D1*
X98119Y28212D1*
X97685Y28288D1*
X97407Y28389D1*
X97025Y28609D1*
X96798Y28799D1*
X96514Y29137D1*
X96366Y29392D1*
X96215Y29807D1*
X96164Y30098D1*
X96163Y30539D1*
X96214Y30830D1*
X96365Y31244D1*
X96512Y31500D1*
X96795Y31839D1*
X97022Y32029D1*
X97404Y32250D1*
X97681Y32351D1*
X98264Y32441D1*
X100951Y32428D1*
X101241Y32377D1*
X101013Y24797D2*
X101508Y24701D1*
X101718Y24599D1*
X102041Y24420D1*
X102518Y24685D1*
X102744Y24742D1*
X103264Y24821D1*
X105951Y24808D1*
X106508Y24701D1*
X106718Y24599D1*
X107150Y24340D1*
X107313Y24173D1*
X107630Y23781D1*
X107725Y23568D1*
X107889Y23091D1*
X107906Y22859D1*
X107897Y22355D1*
X107834Y22131D1*
X107653Y21660D1*
X107517Y21471D1*
X107186Y21091D1*
X106993Y20960D1*
X106552Y20715D1*
X106326Y20658D1*
X105806Y20579D1*
X103119Y20592D1*
X102562Y20699D1*
X102352Y20801D1*
X102029Y20980D1*
X101552Y20715D1*
X101326Y20658D1*
X100806Y20579D1*
X98119Y20592D1*
X97562Y20699D1*
X97352Y20801D1*
X96920Y21061D1*
X96757Y21228D1*
X96440Y21619D1*
X96345Y21832D1*
X96181Y22309D1*
X96164Y22541D1*
X96173Y23045D1*
X96236Y23269D1*
X96417Y23740D1*
X96553Y23929D1*
X96884Y24309D1*
X97077Y24441D1*
X97518Y24685D1*
X97744Y24742D1*
X98264Y24821D1*
X100951Y24808D1*
X101013Y24797D1*
X100606Y17137D2*
X100750Y17112D1*
X101028Y17011D1*
X101397Y16797D1*
X101769Y17010D1*
X102046Y17111D1*
X102629Y17201D1*
X105316Y17188D1*
X105750Y17112D1*
X106028Y17011D1*
X106410Y16791D1*
X106637Y16601D1*
X106921Y16263D1*
X107069Y16008D1*
X107220Y15593D1*
X107271Y15302D1*
X107272Y14861D1*
X107221Y14570D1*
X107070Y14156D1*
X106923Y13900D1*
X106640Y13561D1*
X106413Y13371D1*
X106031Y13150D1*
X105754Y13049D1*
X105171Y12959D1*
X102484Y12972D1*
X102050Y13048D1*
X101772Y13149D1*
X101403Y13363D1*
X101031Y13150D1*
X100754Y13049D1*
X100171Y12959D1*
X97484Y12972D1*
X97050Y13048D1*
X96772Y13149D1*
X96390Y13369D1*
X96163Y13559D1*
X95879Y13897D1*
X95731Y14152D1*
X95580Y14567D1*
X95529Y14858D1*
X95528Y15299D1*
X95579Y15590D1*
X95730Y16004D1*
X95877Y16260D1*
X96160Y16599D1*
X96387Y16789D1*
X96769Y17010D1*
X97046Y17111D1*
X97629Y17201D1*
X100316Y17188D1*
X100606Y17137D1*
X76352Y38895D2*
X76260Y38591D1*
X76110Y38312D1*
X75908Y38067D1*
X75762Y37948D1*
X75926Y37794D1*
X76124Y37547D1*
X76269Y37265D1*
X76357Y36960D1*
X76383Y36670D1*
X76352Y36355D1*
X76260Y36051D1*
X76110Y35772D1*
X75908Y35527D1*
X75762Y35408D1*
X75926Y35254D1*
X76124Y35007D1*
X76269Y34725D1*
X76357Y34420D1*
X76383Y34130D1*
X76352Y33815D1*
X76260Y33511D1*
X76110Y33232D1*
X75908Y32987D1*
X75762Y32868D1*
X76011Y32620D1*
X76189Y32357D1*
X76311Y32065D1*
X76375Y31754D1*
X76378Y31463D1*
X76322Y31151D1*
X76206Y30856D1*
X76035Y30589D1*
X75815Y30361D1*
X75764Y30320D1*
X76011Y30080D1*
X76189Y29817D1*
X76311Y29525D1*
X76375Y29214D1*
X76378Y28923D1*
X76322Y28611D1*
X76206Y28316D1*
X76035Y28049D1*
X75815Y27821D1*
X75764Y27780D1*
X76011Y27540D1*
X76189Y27277D1*
X76311Y26985D1*
X76375Y26674D1*
X76378Y26383D1*
X76322Y26071D1*
X76206Y25776D1*
X76035Y25509D1*
X75815Y25281D1*
X75764Y25240D1*
X75926Y25094D1*
X76124Y24847D1*
X76269Y24565D1*
X76357Y24260D1*
X76383Y23970D1*
X76352Y23655D1*
X76260Y23351D1*
X76110Y23072D1*
X75908Y22827D1*
X75663Y22627D1*
X75383Y22478D1*
X75079Y22387D1*
X74764Y22357D1*
X74448Y22390D1*
X74145Y22483D1*
X73867Y22634D1*
X73623Y22836D1*
X73504Y22983D1*
X73368Y22827D1*
X73123Y22627D1*
X72843Y22478D1*
X72539Y22387D1*
X72224Y22357D1*
X71908Y22390D1*
X71605Y22483D1*
X71327Y22634D1*
X71083Y22836D1*
X70883Y23083D1*
X70736Y23363D1*
X70646Y23667D1*
X70617Y23983D1*
X70651Y24298D1*
X70746Y24601D1*
X70898Y24879D1*
X71101Y25122D1*
X71248Y25240D1*
X71083Y25376D1*
X70883Y25623D1*
X70736Y25903D1*
X70646Y26207D1*
X70617Y26523D1*
X70651Y26838D1*
X70746Y27141D1*
X70898Y27419D1*
X71101Y27662D1*
X71237Y27781D1*
X71039Y27962D1*
X70849Y28216D1*
X70713Y28503D1*
X70635Y28810D1*
X70619Y29126D1*
X70665Y29440D1*
X70771Y29739D1*
X70934Y30011D1*
X71147Y30245D1*
X71237Y30321D1*
X71039Y30502D1*
X70849Y30756D1*
X70713Y31043D1*
X70635Y31350D1*
X70619Y31666D1*
X70665Y31980D1*
X70771Y32279D1*
X70934Y32551D1*
X71147Y32785D1*
X71237Y32861D1*
X71083Y32996D1*
X70883Y33243D1*
X70736Y33523D1*
X70646Y33827D1*
X70617Y34143D1*
X70651Y34458D1*
X70746Y34761D1*
X70898Y35039D1*
X71101Y35282D1*
X71248Y35400D1*
X71083Y35536D1*
X70883Y35783D1*
X70736Y36063D1*
X70646Y36367D1*
X70617Y36683D1*
X70651Y36998D1*
X70746Y37301D1*
X70898Y37579D1*
X71101Y37822D1*
X71248Y37940D1*
X71083Y38076D1*
X70883Y38323D1*
X70736Y38603D1*
X70646Y38907D1*
X70617Y39223D1*
X70651Y39538D1*
X70746Y39841D1*
X70898Y40119D1*
X71101Y40362D1*
X71248Y40480D1*
X71083Y40616D1*
X70883Y40863D1*
X70736Y41143D1*
X70646Y41447D1*
X70617Y41763D1*
X70651Y42078D1*
X70746Y42381D1*
X70898Y42659D1*
X71101Y42902D1*
X71348Y43100D1*
X71629Y43247D1*
X71934Y43335D1*
X72249Y43363D1*
X72564Y43328D1*
X72867Y43232D1*
X73152Y43072D1*
X73157Y43363D1*
X76383D1*
Y40137D1*
X76095D1*
X76269Y39805D1*
X76357Y39500D1*
X76383Y39210D1*
X76352Y38895D1*
X63652D2*
X63560Y38591D1*
X63410Y38312D1*
X63208Y38067D1*
X63062Y37948D1*
X63226Y37794D1*
X63424Y37547D1*
X63569Y37265D1*
X63657Y36960D1*
X63683Y36670D1*
X63652Y36355D1*
X63560Y36051D1*
X63410Y35772D1*
X63208Y35527D1*
X63062Y35408D1*
X63226Y35254D1*
X63424Y35007D1*
X63569Y34725D1*
X63657Y34420D1*
X63683Y34130D1*
X63652Y33815D1*
X63560Y33511D1*
X63410Y33232D1*
X63208Y32987D1*
X63062Y32868D1*
X63311Y32620D1*
X63489Y32357D1*
X63611Y32065D1*
X63675Y31754D1*
X63678Y31463D1*
X63622Y31151D1*
X63506Y30856D1*
X63335Y30589D1*
X63115Y30361D1*
X63064Y30320D1*
X63311Y30080D1*
X63489Y29817D1*
X63611Y29525D1*
X63675Y29214D1*
X63678Y28923D1*
X63622Y28611D1*
X63506Y28316D1*
X63335Y28049D1*
X63115Y27821D1*
X63064Y27780D1*
X63311Y27540D1*
X63489Y27277D1*
X63611Y26985D1*
X63675Y26674D1*
X63678Y26383D1*
X63622Y26071D1*
X63506Y25776D1*
X63335Y25509D1*
X63115Y25281D1*
X63064Y25240D1*
X63226Y25094D1*
X63424Y24847D1*
X63569Y24565D1*
X63657Y24260D1*
X63683Y23970D1*
X63652Y23655D1*
X63560Y23351D1*
X63410Y23072D1*
X63208Y22827D1*
X62963Y22627D1*
X62683Y22478D1*
X62379Y22387D1*
X62064Y22357D1*
X61748Y22390D1*
X61445Y22483D1*
X61167Y22634D1*
X60923Y22836D1*
X60804Y22983D1*
X60668Y22827D1*
X60423Y22627D1*
X60143Y22478D1*
X59839Y22387D1*
X59524Y22357D1*
X59208Y22390D1*
X58905Y22483D1*
X58627Y22634D1*
X58383Y22836D1*
X58183Y23083D1*
X58036Y23363D1*
X57946Y23667D1*
X57917Y23983D1*
X57951Y24298D1*
X58046Y24601D1*
X58198Y24879D1*
X58401Y25122D1*
X58548Y25240D1*
X58383Y25376D1*
X58183Y25623D1*
X58036Y25903D1*
X57946Y26207D1*
X57917Y26523D1*
X57951Y26838D1*
X58046Y27141D1*
X58198Y27419D1*
X58401Y27662D1*
X58537Y27781D1*
X58339Y27962D1*
X58149Y28216D1*
X58013Y28503D1*
X57935Y28810D1*
X57919Y29126D1*
X57965Y29440D1*
X58071Y29739D1*
X58234Y30011D1*
X58447Y30245D1*
X58537Y30321D1*
X58339Y30502D1*
X58149Y30756D1*
X58013Y31043D1*
X57935Y31350D1*
X57919Y31666D1*
X57965Y31980D1*
X58071Y32279D1*
X58234Y32551D1*
X58447Y32785D1*
X58537Y32861D1*
X58383Y32996D1*
X58183Y33243D1*
X58036Y33523D1*
X57946Y33827D1*
X57917Y34143D1*
X57951Y34458D1*
X58046Y34761D1*
X58198Y35039D1*
X58401Y35282D1*
X58548Y35400D1*
X58383Y35536D1*
X58183Y35783D1*
X58036Y36063D1*
X57946Y36367D1*
X57917Y36683D1*
X57951Y36998D1*
X58046Y37301D1*
X58198Y37579D1*
X58401Y37822D1*
X58548Y37940D1*
X58383Y38076D1*
X58183Y38323D1*
X58036Y38603D1*
X57946Y38907D1*
X57917Y39223D1*
X57951Y39538D1*
X58046Y39841D1*
X58198Y40119D1*
X58401Y40362D1*
X58548Y40480D1*
X58383Y40616D1*
X58183Y40863D1*
X58036Y41143D1*
X57946Y41447D1*
X57917Y41763D1*
X57951Y42078D1*
X58046Y42381D1*
X58198Y42659D1*
X58401Y42902D1*
X58648Y43100D1*
X58929Y43247D1*
X59234Y43335D1*
X59549Y43363D1*
X59864Y43328D1*
X60167Y43232D1*
X60452Y43072D1*
X60457Y43363D1*
X63683D1*
Y40137D1*
X63395D1*
X63569Y39805D1*
X63657Y39500D1*
X63683Y39210D1*
X63652Y38895D1*
X50952D2*
X50860Y38591D1*
X50710Y38312D1*
X50508Y38067D1*
X50362Y37948D1*
X50526Y37794D1*
X50724Y37547D1*
X50869Y37265D1*
X50957Y36960D1*
X50983Y36670D1*
X50952Y36355D1*
X50860Y36051D1*
X50710Y35772D1*
X50508Y35527D1*
X50362Y35408D1*
X50526Y35254D1*
X50724Y35007D1*
X50869Y34725D1*
X50957Y34420D1*
X50983Y34130D1*
X50952Y33815D1*
X50860Y33511D1*
X50710Y33232D1*
X50508Y32987D1*
X50362Y32868D1*
X50611Y32620D1*
X50789Y32357D1*
X50911Y32065D1*
X50975Y31754D1*
X50978Y31463D1*
X50922Y31151D1*
X50806Y30856D1*
X50635Y30589D1*
X50415Y30361D1*
X50364Y30320D1*
X50611Y30080D1*
X50789Y29817D1*
X50911Y29525D1*
X50975Y29214D1*
X50978Y28923D1*
X50922Y28611D1*
X50806Y28316D1*
X50635Y28049D1*
X50415Y27821D1*
X50364Y27780D1*
X50611Y27540D1*
X50789Y27277D1*
X50911Y26985D1*
X50975Y26674D1*
X50978Y26383D1*
X50922Y26071D1*
X50806Y25776D1*
X50635Y25509D1*
X50415Y25281D1*
X50364Y25240D1*
X50526Y25094D1*
X50724Y24847D1*
X50869Y24565D1*
X50957Y24260D1*
X50983Y23970D1*
X50952Y23655D1*
X50860Y23351D1*
X50710Y23072D1*
X50508Y22827D1*
X50263Y22627D1*
X49983Y22478D1*
X49679Y22387D1*
X49364Y22357D1*
X49048Y22390D1*
X48745Y22483D1*
X48467Y22634D1*
X48223Y22836D1*
X48104Y22983D1*
X47968Y22827D1*
X47723Y22627D1*
X47443Y22478D1*
X47139Y22387D1*
X46824Y22357D1*
X46508Y22390D1*
X46205Y22483D1*
X45927Y22634D1*
X45683Y22836D1*
X45483Y23083D1*
X45336Y23363D1*
X45246Y23667D1*
X45217Y23983D1*
X45251Y24298D1*
X45346Y24601D1*
X45498Y24879D1*
X45701Y25122D1*
X45848Y25240D1*
X45683Y25376D1*
X45483Y25623D1*
X45336Y25903D1*
X45246Y26207D1*
X45217Y26523D1*
X45251Y26838D1*
X45346Y27141D1*
X45498Y27419D1*
X45701Y27662D1*
X45837Y27781D1*
X45639Y27962D1*
X45449Y28216D1*
X45313Y28503D1*
X45235Y28810D1*
X45219Y29126D1*
X45265Y29440D1*
X45371Y29739D1*
X45534Y30011D1*
X45747Y30245D1*
X45837Y30321D1*
X45639Y30502D1*
X45449Y30756D1*
X45313Y31043D1*
X45235Y31350D1*
X45219Y31666D1*
X45265Y31980D1*
X45371Y32279D1*
X45534Y32551D1*
X45747Y32785D1*
X45837Y32861D1*
X45683Y32996D1*
X45483Y33243D1*
X45336Y33523D1*
X45246Y33827D1*
X45217Y34143D1*
X45251Y34458D1*
X45346Y34761D1*
X45498Y35039D1*
X45701Y35282D1*
X45848Y35400D1*
X45683Y35536D1*
X45483Y35783D1*
X45336Y36063D1*
X45246Y36367D1*
X45217Y36683D1*
X45251Y36998D1*
X45346Y37301D1*
X45498Y37579D1*
X45701Y37822D1*
X45848Y37940D1*
X45683Y38076D1*
X45483Y38323D1*
X45336Y38603D1*
X45246Y38907D1*
X45217Y39223D1*
X45251Y39538D1*
X45346Y39841D1*
X45498Y40119D1*
X45701Y40362D1*
X45848Y40480D1*
X45683Y40616D1*
X45483Y40863D1*
X45336Y41143D1*
X45246Y41447D1*
X45217Y41763D1*
X45251Y42078D1*
X45346Y42381D1*
X45498Y42659D1*
X45701Y42902D1*
X45948Y43100D1*
X46229Y43247D1*
X46534Y43335D1*
X46849Y43363D1*
X47164Y43328D1*
X47467Y43232D1*
X47752Y43072D1*
X47757Y43363D1*
X50983D1*
Y40137D1*
X50695D1*
X50869Y39805D1*
X50957Y39500D1*
X50983Y39210D1*
X50952Y38895D1*
X114576Y17137D2*
X114720Y17112D1*
X114998Y17011D1*
X115367Y16797D1*
X115739Y17010D1*
X116016Y17111D1*
X116599Y17201D1*
X119286Y17188D1*
X119720Y17112D1*
X119998Y17011D1*
X120380Y16791D1*
X120607Y16601D1*
X120891Y16263D1*
X121039Y16008D1*
X121190Y15593D1*
X121241Y15302D1*
X121242Y14861D1*
X121191Y14570D1*
X121040Y14156D1*
X120893Y13900D1*
X120610Y13561D1*
X120383Y13371D1*
X120001Y13150D1*
X119724Y13049D1*
X119141Y12959D1*
X116454Y12972D1*
X116020Y13048D1*
X115742Y13149D1*
X115373Y13363D1*
X115001Y13150D1*
X114724Y13049D1*
X114141Y12959D1*
X111454Y12972D1*
X111020Y13048D1*
X110742Y13149D1*
X110360Y13369D1*
X110133Y13559D1*
X109849Y13897D1*
X109701Y14152D1*
X109550Y14567D1*
X109499Y14858D1*
X109498Y15299D1*
X109549Y15590D1*
X109700Y16004D1*
X109847Y16260D1*
X110130Y16599D1*
X110357Y16789D1*
X110739Y17010D1*
X111016Y17111D1*
X111599Y17201D1*
X114286Y17188D1*
X114576Y17137D1*
X113713Y24797D2*
X114208Y24701D1*
X114418Y24599D1*
X114741Y24420D1*
X115218Y24685D1*
X115444Y24742D1*
X115964Y24821D1*
X118651Y24808D1*
X119208Y24701D1*
X119418Y24599D1*
X119850Y24340D1*
X120013Y24173D1*
X120330Y23781D1*
X120425Y23568D1*
X120589Y23091D1*
X120606Y22859D1*
X120597Y22355D1*
X120534Y22131D1*
X120353Y21660D1*
X120217Y21471D1*
X119886Y21091D1*
X119693Y20960D1*
X119252Y20715D1*
X119026Y20658D1*
X118506Y20579D1*
X115819Y20592D1*
X115262Y20699D1*
X115052Y20801D1*
X114729Y20980D1*
X114252Y20715D1*
X114026Y20658D1*
X113506Y20579D1*
X110819Y20592D1*
X110262Y20699D1*
X110052Y20801D1*
X109620Y21061D1*
X109457Y21228D1*
X109140Y21619D1*
X109045Y21832D1*
X108881Y22309D1*
X108864Y22541D1*
X108873Y23045D1*
X108936Y23269D1*
X109117Y23740D1*
X109253Y23929D1*
X109584Y24309D1*
X109777Y24441D1*
X110218Y24685D1*
X110444Y24742D1*
X110964Y24821D1*
X113651Y24808D1*
X113713Y24797D1*
X113941Y32377D2*
X114085Y32352D1*
X114363Y32251D1*
X114732Y32037D1*
X115104Y32250D1*
X115381Y32351D1*
X115964Y32441D1*
X118651Y32428D1*
X119085Y32352D1*
X119363Y32251D1*
X119745Y32031D1*
X119972Y31841D1*
X120256Y31503D1*
X120404Y31248D1*
X120555Y30833D1*
X120606Y30542D1*
X120607Y30101D1*
X120556Y29810D1*
X120405Y29396D1*
X120258Y29140D1*
X119975Y28801D1*
X119748Y28611D1*
X119366Y28390D1*
X119089Y28289D1*
X118506Y28199D1*
X115819Y28212D1*
X115385Y28288D1*
X115107Y28389D1*
X114738Y28603D1*
X114366Y28390D1*
X114089Y28289D1*
X113506Y28199D1*
X110819Y28212D1*
X110385Y28288D1*
X110107Y28389D1*
X109725Y28609D1*
X109498Y28799D1*
X109214Y29137D1*
X109066Y29392D1*
X108915Y29807D1*
X108864Y30098D1*
X108863Y30539D1*
X108914Y30830D1*
X109065Y31244D1*
X109212Y31500D1*
X109495Y31839D1*
X109722Y32029D1*
X110104Y32250D1*
X110381Y32351D1*
X110964Y32441D1*
X113651Y32428D1*
X113941Y32377D1*
Y39997D2*
X114085Y39972D1*
X114363Y39871D1*
X114483Y39802D1*
X115003Y39807D1*
X115355Y39966D1*
X115964Y40061D1*
X118651Y40048D1*
X119085Y39972D1*
X119363Y39871D1*
X119745Y39651D1*
X119972Y39461D1*
X120256Y39123D1*
X120404Y38868D1*
X120555Y38453D1*
X120606Y38162D1*
X120607Y37721D1*
X120556Y37430D1*
X120405Y37016D1*
X120258Y36760D1*
X119975Y36421D1*
X119748Y36231D1*
X119366Y36010D1*
X119089Y35909D1*
X118506Y35819D1*
X115819Y35832D1*
X115385Y35908D1*
X115107Y36009D1*
X114987Y36078D1*
X114467Y36073D1*
X114115Y35914D1*
X113506Y35819D1*
X110819Y35832D1*
X110385Y35908D1*
X110107Y36009D1*
X109725Y36229D1*
X109498Y36419D1*
X109214Y36757D1*
X109066Y37012D1*
X108915Y37427D1*
X108864Y37718D1*
X108863Y38159D1*
X108914Y38450D1*
X109065Y38864D1*
X109212Y39120D1*
X109495Y39459D1*
X109722Y39649D1*
X110104Y39870D1*
X110381Y39971D1*
X110964Y40061D1*
X113651Y40048D1*
X113941Y39997D1*
X88727Y54463D2*
X91611D1*
Y54156D1*
X92002Y54367D1*
X92309Y54445D1*
X92626Y54462D1*
X92940Y54415D1*
X93238Y54308D1*
X93509Y54144D1*
X93743Y53930D1*
X93930Y53674D1*
X94063Y53386D1*
X94136Y53078D1*
X94151Y52863D1*
X94120Y52547D1*
X94027Y52244D1*
X93876Y51965D1*
X93673Y51722D1*
X93426Y51523D1*
X93145Y51376D1*
X92841Y51288D1*
X92525Y51262D1*
X92210Y51298D1*
X91908Y51396D1*
X91609Y51570D1*
X91611Y51262D1*
X88409D1*
Y54463D1*
X88727D1*
X81107D2*
X83991D1*
Y54156D1*
X84382Y54367D1*
X84689Y54445D1*
X85006Y54462D1*
X85320Y54415D1*
X85618Y54308D1*
X85889Y54144D1*
X86123Y53930D1*
X86310Y53674D1*
X86443Y53386D1*
X86516Y53078D1*
X86531Y52863D1*
X86500Y52547D1*
X86407Y52244D1*
X86256Y51965D1*
X86053Y51722D1*
X85806Y51523D1*
X85525Y51376D1*
X85221Y51288D1*
X84905Y51262D1*
X84590Y51298D1*
X84288Y51396D1*
X83989Y51570D1*
X83991Y51262D1*
X80789D1*
Y54463D1*
X81107D1*
X25552Y38895D2*
X25460Y38591D1*
X25310Y38312D1*
X25108Y38067D1*
X24962Y37948D1*
X25126Y37794D1*
X25324Y37547D1*
X25469Y37265D1*
X25557Y36960D1*
X25583Y36670D1*
X25552Y36355D1*
X25460Y36051D1*
X25310Y35772D1*
X25108Y35527D1*
X24962Y35408D1*
X25126Y35254D1*
X25324Y35007D1*
X25469Y34725D1*
X25557Y34420D1*
X25583Y34130D1*
X25552Y33815D1*
X25460Y33511D1*
X25310Y33232D1*
X25108Y32987D1*
X24962Y32868D1*
X25211Y32620D1*
X25389Y32357D1*
X25511Y32065D1*
X25575Y31754D1*
X25578Y31463D1*
X25522Y31151D1*
X25406Y30856D1*
X25235Y30589D1*
X25015Y30361D1*
X24964Y30320D1*
X25211Y30080D1*
X25389Y29817D1*
X25511Y29525D1*
X25575Y29214D1*
X25578Y28923D1*
X25522Y28611D1*
X25406Y28316D1*
X25235Y28049D1*
X25015Y27821D1*
X24964Y27780D1*
X25211Y27540D1*
X25389Y27277D1*
X25511Y26985D1*
X25575Y26674D1*
X25578Y26383D1*
X25522Y26071D1*
X25406Y25776D1*
X25235Y25509D1*
X25015Y25281D1*
X24964Y25240D1*
X25126Y25094D1*
X25324Y24847D1*
X25469Y24565D1*
X25557Y24260D1*
X25583Y23970D1*
X25552Y23655D1*
X25460Y23351D1*
X25310Y23072D1*
X25108Y22827D1*
X24863Y22627D1*
X24583Y22478D1*
X24279Y22387D1*
X23964Y22357D1*
X23648Y22390D1*
X23345Y22483D1*
X23067Y22634D1*
X22823Y22836D1*
X22704Y22983D1*
X22568Y22827D1*
X22323Y22627D1*
X22043Y22478D1*
X21739Y22387D1*
X21424Y22357D1*
X21108Y22390D1*
X20805Y22483D1*
X20527Y22634D1*
X20283Y22836D1*
X20083Y23083D1*
X19936Y23363D1*
X19846Y23667D1*
X19817Y23983D1*
X19851Y24298D1*
X19946Y24601D1*
X20098Y24879D1*
X20301Y25122D1*
X20448Y25240D1*
X20283Y25376D1*
X20083Y25623D1*
X19936Y25903D1*
X19846Y26207D1*
X19817Y26523D1*
X19851Y26838D1*
X19946Y27141D1*
X20098Y27419D1*
X20301Y27662D1*
X20437Y27781D1*
X20239Y27962D1*
X20049Y28216D1*
X19913Y28503D1*
X19835Y28810D1*
X19819Y29126D1*
X19865Y29440D1*
X19971Y29739D1*
X20134Y30011D1*
X20347Y30245D1*
X20437Y30321D1*
X20239Y30502D1*
X20049Y30756D1*
X19913Y31043D1*
X19835Y31350D1*
X19819Y31666D1*
X19865Y31980D1*
X19971Y32279D1*
X20134Y32551D1*
X20347Y32785D1*
X20437Y32861D1*
X20283Y32996D1*
X20083Y33243D1*
X19936Y33523D1*
X19846Y33827D1*
X19817Y34143D1*
X19851Y34458D1*
X19946Y34761D1*
X20098Y35039D1*
X20301Y35282D1*
X20448Y35400D1*
X20283Y35536D1*
X20083Y35783D1*
X19936Y36063D1*
X19846Y36367D1*
X19817Y36683D1*
X19851Y36998D1*
X19946Y37301D1*
X20098Y37579D1*
X20301Y37822D1*
X20448Y37940D1*
X20283Y38076D1*
X20083Y38323D1*
X19936Y38603D1*
X19846Y38907D1*
X19817Y39223D1*
X19851Y39538D1*
X19946Y39841D1*
X20098Y40119D1*
X20301Y40362D1*
X20448Y40480D1*
X20283Y40616D1*
X20083Y40863D1*
X19936Y41143D1*
X19846Y41447D1*
X19817Y41763D1*
X19851Y42078D1*
X19946Y42381D1*
X20098Y42659D1*
X20301Y42902D1*
X20548Y43100D1*
X20829Y43247D1*
X21134Y43335D1*
X21449Y43363D1*
X21764Y43328D1*
X22067Y43232D1*
X22352Y43072D1*
X22357Y43363D1*
X25583D1*
Y40137D1*
X25295D1*
X25469Y39805D1*
X25557Y39500D1*
X25583Y39210D1*
X25552Y38895D1*
X194462D2*
X194370Y38591D1*
X194220Y38312D1*
X194018Y38067D1*
X193872Y37948D1*
X194036Y37794D1*
X194234Y37547D1*
X194379Y37265D1*
X194467Y36960D1*
X194493Y36670D1*
X194462Y36355D1*
X194370Y36051D1*
X194220Y35772D1*
X194018Y35527D1*
X193872Y35408D1*
X194036Y35254D1*
X194234Y35007D1*
X194379Y34725D1*
X194467Y34420D1*
X194493Y34130D1*
X194462Y33815D1*
X194370Y33511D1*
X194220Y33232D1*
X194018Y32987D1*
X193872Y32868D1*
X194121Y32620D1*
X194299Y32357D1*
X194421Y32065D1*
X194485Y31754D1*
X194488Y31463D1*
X194432Y31151D1*
X194316Y30856D1*
X194145Y30589D1*
X193925Y30361D1*
X193874Y30320D1*
X194121Y30080D1*
X194299Y29817D1*
X194421Y29525D1*
X194485Y29214D1*
X194488Y28923D1*
X194432Y28611D1*
X194316Y28316D1*
X194145Y28049D1*
X193925Y27821D1*
X193874Y27780D1*
X194121Y27540D1*
X194299Y27277D1*
X194421Y26985D1*
X194485Y26674D1*
X194488Y26383D1*
X194432Y26071D1*
X194316Y25776D1*
X194145Y25509D1*
X193925Y25281D1*
X193874Y25240D1*
X194036Y25094D1*
X194234Y24847D1*
X194379Y24565D1*
X194467Y24260D1*
X194493Y23970D1*
X194462Y23655D1*
X194370Y23351D1*
X194220Y23072D1*
X194018Y22827D1*
X193773Y22627D1*
X193493Y22478D1*
X193189Y22387D1*
X192874Y22357D1*
X192558Y22390D1*
X192255Y22483D1*
X191977Y22634D1*
X191733Y22836D1*
X191614Y22983D1*
X191478Y22827D1*
X191233Y22627D1*
X190953Y22478D1*
X190649Y22387D1*
X190334Y22357D1*
X190018Y22390D1*
X189715Y22483D1*
X189437Y22634D1*
X189193Y22836D1*
X188993Y23083D1*
X188846Y23363D1*
X188756Y23667D1*
X188727Y23983D1*
X188761Y24298D1*
X188856Y24601D1*
X189008Y24879D1*
X189211Y25122D1*
X189358Y25240D1*
X189193Y25376D1*
X188993Y25623D1*
X188846Y25903D1*
X188756Y26207D1*
X188727Y26523D1*
X188761Y26838D1*
X188856Y27141D1*
X189008Y27419D1*
X189211Y27662D1*
X189347Y27781D1*
X189149Y27962D1*
X188959Y28216D1*
X188823Y28503D1*
X188745Y28810D1*
X188729Y29126D1*
X188775Y29440D1*
X188881Y29739D1*
X189044Y30011D1*
X189257Y30245D1*
X189347Y30321D1*
X189149Y30502D1*
X188959Y30756D1*
X188823Y31043D1*
X188745Y31350D1*
X188729Y31666D1*
X188775Y31980D1*
X188881Y32279D1*
X189044Y32551D1*
X189257Y32785D1*
X189347Y32861D1*
X189193Y32996D1*
X188993Y33243D1*
X188846Y33523D1*
X188756Y33827D1*
X188727Y34143D1*
X188761Y34458D1*
X188856Y34761D1*
X189008Y35039D1*
X189211Y35282D1*
X189358Y35400D1*
X189193Y35536D1*
X188993Y35783D1*
X188846Y36063D1*
X188756Y36367D1*
X188727Y36683D1*
X188761Y36998D1*
X188856Y37301D1*
X189008Y37579D1*
X189211Y37822D1*
X189358Y37940D1*
X189193Y38076D1*
X188993Y38323D1*
X188846Y38603D1*
X188756Y38907D1*
X188727Y39223D1*
X188761Y39538D1*
X188856Y39841D1*
X189008Y40119D1*
X189211Y40362D1*
X189358Y40480D1*
X189193Y40616D1*
X188993Y40863D1*
X188846Y41143D1*
X188756Y41447D1*
X188727Y41763D1*
X188761Y42078D1*
X188856Y42381D1*
X189008Y42659D1*
X189211Y42902D1*
X189458Y43100D1*
X189739Y43247D1*
X190044Y43335D1*
X190359Y43363D1*
X190674Y43328D1*
X190977Y43232D1*
X191262Y43072D1*
X191267Y43363D1*
X194493D1*
Y40137D1*
X194205D1*
X194379Y39805D1*
X194467Y39500D1*
X194493Y39210D1*
X194462Y38895D1*
X111854Y55466D2*
X114838D1*
X114853Y55215D1*
X115137Y55357D1*
X115442Y55441D1*
X115758Y55466D1*
X116073Y55429D1*
X116375Y55333D1*
X116654Y55182D1*
X116898Y54979D1*
X116998Y54869D1*
X117238Y55105D1*
X117503Y55278D1*
X117797Y55397D1*
X118108Y55458D1*
X118425D1*
X118736Y55398D1*
X119030Y55279D1*
X119296Y55106D1*
X119524Y54886D1*
X119705Y54626D1*
X119834Y54336D1*
X119905Y54027D1*
X119918Y53815D1*
X119888Y53499D1*
X119798Y53196D1*
X119651Y52914D1*
X119454Y52667D1*
X119212Y52461D1*
X118936Y52306D1*
X118635Y52206D1*
X118321Y52165D1*
X118004Y52185D1*
X117698Y52266D1*
X117412Y52403D1*
X117158Y52593D1*
X117005Y52761D1*
X116724Y52498D1*
X116454Y52332D1*
X116157Y52221D1*
X115844Y52168D1*
X115527Y52176D1*
X115218Y52245D1*
X114927Y52371D1*
X114837Y52425D1*
X114838Y52164D1*
X111537D1*
Y55466D1*
X111854D1*
X116618Y40995D2*
X116337Y40851D1*
X116033Y40763D1*
X115717Y40734D1*
X115402Y40767D1*
X115099Y40859D1*
X114818Y41007D1*
X114572Y41206D1*
X114368Y41449D1*
X114214Y41726D1*
X114116Y42027D1*
X114077Y42342D1*
X114099Y42658D1*
X114182Y42964D1*
X114321Y43249D1*
X114512Y43502D1*
X114748Y43714D1*
X115020Y43877D1*
X115318Y43984D1*
X115631Y44033D1*
X115948Y44021D1*
X116257Y43949D1*
X116546Y43819D1*
X116615Y43777D1*
X116617Y44036D1*
X119918D1*
Y40734D1*
X116617D1*
Y41002D1*
X102518Y48163D2*
X102773D1*
Y44862D1*
X99472D1*
Y48163D1*
X99728Y48169D1*
X99585Y48452D1*
X99498Y48757D1*
X99472Y49073D1*
X99506Y49388D1*
X99600Y49691D1*
X99750Y49970D1*
X99951Y50216D1*
X100195Y50418D1*
X100473Y50570D1*
X100775Y50666D1*
X101090Y50703D1*
X101406Y50679D1*
X101712Y50595D1*
X101995Y50454D1*
X102247Y50261D1*
X102457Y50024D1*
X102618Y49751D1*
X102724Y49452D1*
X102771Y49138D1*
X102754Y48800D1*
X102675Y48492D1*
X102540Y48206D1*
X102514Y48164D1*
X105722Y49533D2*
X108906D1*
Y46032D1*
X105404D1*
Y49533D1*
X105722D1*
X119927Y47467D2*
X119842Y47161D1*
X119703Y46876D1*
X119515Y46621D1*
X119284Y46404D1*
X119018Y46232D1*
X118725Y46111D1*
X118415Y46044D1*
X118098Y46035D1*
X117784Y46083D1*
X117485Y46187D1*
X117209Y46343D1*
X116966Y46546D1*
X116763Y46790D1*
X116607Y47066D1*
X116504Y47366D1*
X116457Y47679D1*
X116467Y47996D1*
X116534Y48306D1*
X116656Y48599D1*
X116829Y48865D1*
X117047Y49095D1*
X117302Y49283D1*
X117588Y49421D1*
X117893Y49505D1*
X118209Y49533D1*
X118525Y49504D1*
X118830Y49418D1*
X119115Y49279D1*
X119370Y49090D1*
X119586Y48858D1*
X119758Y48592D1*
X119878Y48298D1*
X119944Y47988D1*
X119956Y47783D1*
X119927Y47467D1*
X206981Y40798D2*
X206918Y40488D1*
X206814Y40188D1*
X206671Y39905D1*
X206491Y39643D1*
X206278Y39408D1*
X205928Y39134D1*
X206279Y38859D1*
X206492Y38624D1*
X206671Y38362D1*
X206814Y38079D1*
X206918Y37780D1*
X206981Y37469D1*
X207002Y37153D1*
X206981Y36836D1*
X206918Y36525D1*
X206814Y36225D1*
X206671Y35942D1*
X206491Y35681D1*
X206278Y35445D1*
X205928Y35171D1*
X206185Y34983D1*
X206452Y34711D1*
X206671Y34400D1*
X206838Y34058D1*
X206948Y33694D1*
X206999Y33317D1*
X206989Y32937D1*
X206918Y32563D1*
X206788Y32205D1*
X206603Y31872D1*
X206367Y31574D1*
X206087Y31317D1*
X205937Y31209D1*
X206279Y30935D1*
X206492Y30699D1*
X206671Y30438D1*
X206814Y30154D1*
X206918Y29855D1*
X206981Y29544D1*
X207002Y29228D1*
X206981Y28911D1*
X206918Y28600D1*
X206814Y28301D1*
X206671Y28017D1*
X206491Y27756D1*
X206278Y27521D1*
X206036Y27316D1*
X205769Y27145D1*
X205481Y27012D1*
X205178Y26918D1*
X204865Y26865D1*
X204548Y26854D1*
X204232Y26886D1*
X203924Y26960D1*
X203628Y27074D1*
X203349Y27226D1*
X203094Y27414D1*
X202866Y27635D1*
X202669Y27884D1*
X202508Y28157D1*
X202384Y28449D1*
X202300Y28755D1*
X202258Y29069D1*
Y29387D1*
X202300Y29701D1*
X202384Y30007D1*
X202508Y30299D1*
X202670Y30572D1*
X202866Y30821D1*
X203094Y31042D1*
X203326Y31212D1*
X203143Y31336D1*
X202866Y31597D1*
X202634Y31899D1*
X202454Y32234D1*
X202329Y32594D1*
X202263Y32969D1*
X202258Y33349D1*
X202314Y33726D1*
X202429Y34088D1*
X202601Y34428D1*
X202824Y34736D1*
X203094Y35004D1*
X203318Y35171D1*
X203094Y35339D1*
X202866Y35560D1*
X202669Y35809D1*
X202508Y36082D1*
X202384Y36374D1*
X202300Y36680D1*
X202258Y36994D1*
Y37312D1*
X202300Y37626D1*
X202384Y37932D1*
X202508Y38224D1*
X202670Y38497D1*
X202866Y38746D1*
X203094Y38966D1*
X203326Y39137D1*
X203094Y39302D1*
X202866Y39522D1*
X202669Y39771D1*
X202508Y40044D1*
X202384Y40336D1*
X202300Y40642D1*
X202258Y40957D1*
Y41274D1*
X202300Y41588D1*
X202384Y41894D1*
X202508Y42186D1*
X202670Y42459D1*
X202866Y42708D1*
X203094Y42929D1*
X203350Y43117D1*
X203628Y43269D1*
X203924Y43383D1*
X204233Y43457D1*
X204549Y43489D1*
X204866Y43478D1*
X205178Y43425D1*
X205481Y43331D1*
X205769Y43197D1*
X206037Y43027D1*
X206279Y42822D1*
X206492Y42586D1*
X206671Y42325D1*
X206814Y42042D1*
X206918Y41742D1*
X206981Y41431D1*
X207002Y41115D1*
X206981Y40798D1*
X93022Y48263D2*
X96206D1*
Y44762D1*
X92704D1*
Y48263D1*
X93022D1*
X96177Y35147D2*
X96092Y34841D1*
X95953Y34556D1*
X95765Y34301D1*
X95534Y34084D1*
X95268Y33912D1*
X94975Y33791D1*
X94665Y33724D1*
X94348Y33715D1*
X94034Y33763D1*
X93735Y33867D1*
X93459Y34023D1*
X93216Y34226D1*
X93013Y34470D1*
X92857Y34746D1*
X92754Y35046D1*
X92707Y35359D1*
X92717Y35676D1*
X92784Y35986D1*
X92906Y36279D1*
X93079Y36545D1*
X93297Y36775D1*
X93552Y36963D1*
X93838Y37101D1*
X94143Y37185D1*
X94459Y37213D1*
X94775Y37184D1*
X95080Y37098D1*
X95365Y36959D1*
X95620Y36770D1*
X95836Y36538D1*
X96008Y36272D1*
X96128Y35978D1*
X96194Y35668D1*
X96206Y35463D1*
X96177Y35147D1*
X177317Y53817D2*
X177225Y53514D1*
X177075Y53234D1*
X176873Y52990D1*
X176628Y52789D1*
X176348Y52641D1*
X176044Y52550D1*
X175729Y52520D1*
X175413Y52552D1*
X175110Y52646D1*
X174832Y52796D1*
X174588Y52999D1*
X174388Y53245D1*
X174241Y53526D1*
X174151Y53830D1*
X174122Y54145D1*
X174156Y54461D1*
X174251Y54763D1*
X174403Y55041D1*
X174606Y55284D1*
X174853Y55483D1*
X175134Y55629D1*
X175439Y55718D1*
X175754Y55745D1*
X176069Y55710D1*
X176372Y55614D1*
X176649Y55461D1*
X176891Y55257D1*
X177089Y55009D1*
X177234Y54727D1*
X177322Y54423D1*
X177348Y54133D1*
X177317Y53817D1*
X187477D2*
X187385Y53514D1*
X187235Y53234D1*
X187033Y52990D1*
X186788Y52789D1*
X186508Y52641D1*
X186204Y52550D1*
X185889Y52520D1*
X185573Y52552D1*
X185270Y52646D1*
X184992Y52796D1*
X184748Y52999D1*
X184548Y53245D1*
X184401Y53526D1*
X184311Y53830D1*
X184282Y54145D1*
X184316Y54461D1*
X184411Y54763D1*
X184563Y55041D1*
X184766Y55284D1*
X185013Y55483D1*
X185294Y55629D1*
X185599Y55718D1*
X185914Y55745D1*
X186229Y55710D1*
X186532Y55614D1*
X186809Y55461D1*
X187051Y55257D1*
X187249Y55009D1*
X187394Y54727D1*
X187482Y54423D1*
X187508Y54133D1*
X187477Y53817D1*
X177317Y50325D2*
X177225Y50021D1*
X177075Y49742D1*
X176873Y49497D1*
X176628Y49297D1*
X176348Y49148D1*
X176044Y49057D1*
X175729Y49027D1*
X175413Y49060D1*
X175110Y49153D1*
X174832Y49304D1*
X174588Y49506D1*
X174388Y49753D1*
X174241Y50033D1*
X174151Y50337D1*
X174122Y50653D1*
X174156Y50968D1*
X174251Y51271D1*
X174403Y51549D1*
X174606Y51792D1*
X174853Y51990D1*
X175134Y52137D1*
X175439Y52225D1*
X175754Y52253D1*
X176069Y52218D1*
X176372Y52122D1*
X176649Y51969D1*
X176891Y51764D1*
X177089Y51517D1*
X177234Y51235D1*
X177322Y50930D1*
X177348Y50640D1*
X177317Y50325D1*
X187477D2*
X187385Y50021D1*
X187235Y49742D1*
X187033Y49497D1*
X186788Y49297D1*
X186508Y49148D1*
X186204Y49057D1*
X185889Y49027D1*
X185573Y49060D1*
X185270Y49153D1*
X184992Y49304D1*
X184748Y49506D1*
X184548Y49753D1*
X184401Y50033D1*
X184311Y50337D1*
X184282Y50653D1*
X184316Y50968D1*
X184411Y51271D1*
X184563Y51549D1*
X184766Y51792D1*
X185013Y51990D1*
X185294Y52137D1*
X185599Y52225D1*
X185914Y52253D1*
X186229Y52218D1*
X186532Y52122D1*
X186809Y51969D1*
X187051Y51764D1*
X187249Y51517D1*
X187394Y51235D1*
X187482Y50930D1*
X187508Y50640D1*
X187477Y50325D1*
X129380Y31590D2*
D14*
X130992D1*
X129380Y29050D2*
X130992D1*
X129380Y26510D2*
X130992D1*
X125228D2*
X126840D1*
X125228Y29050D2*
X126840D1*
X125228Y31590D2*
X126840D1*
X36670D2*
X38282D1*
X36670Y29050D2*
X38282D1*
X36670Y26510D2*
X38282D1*
X32518D2*
X34130D1*
X32518Y29050D2*
X34130D1*
X32518Y31590D2*
X34130D1*
X87470D2*
X89082D1*
X87470Y29050D2*
X89082D1*
X87470Y26510D2*
X89082D1*
X83318D2*
X84930D1*
X83318Y29050D2*
X84930D1*
X83318Y31590D2*
X84930D1*
X180180D2*
X181792D1*
X180180Y29050D2*
X181792D1*
X180180Y26510D2*
X181792D1*
X176028D2*
X177640D1*
X176028Y29050D2*
X177640D1*
X176028Y31590D2*
X177640D1*
X167480D2*
X169092D1*
X167480Y29050D2*
X169092D1*
X167480Y26510D2*
X169092D1*
X163328D2*
X164940D1*
X163328Y29050D2*
X164940D1*
X163328Y31590D2*
X164940D1*
X154780D2*
X156392D1*
X154780Y29050D2*
X156392D1*
X154780Y26510D2*
X156392D1*
X150628D2*
X152240D1*
X150628Y29050D2*
X152240D1*
X150628Y31590D2*
X152240D1*
X142080D2*
X143692D1*
X142080Y29050D2*
X143692D1*
X142080Y26510D2*
X143692D1*
X137928D2*
X139540D1*
X137928Y29050D2*
X139540D1*
X137928Y31590D2*
X139540D1*
X150120Y53180D2*
X151605D1*
X158058D2*
X159543D1*
X170020D2*
X171505D1*
X96164Y22700D2*
X99535D1*
X104535D2*
X107906D1*
X74770Y31590D2*
X76382D1*
X74770Y29050D2*
X76382D1*
X74770Y26510D2*
X76382D1*
X70618D2*
X72230D1*
X70618Y29050D2*
X72230D1*
X70618Y31590D2*
X72230D1*
X62070D2*
X63682D1*
X62070Y29050D2*
X63682D1*
X62070Y26510D2*
X63682D1*
X57918D2*
X59530D1*
X57918Y29050D2*
X59530D1*
X57918Y31590D2*
X59530D1*
X49370D2*
X50982D1*
X49370Y29050D2*
X50982D1*
X49370Y26510D2*
X50982D1*
X45218D2*
X46830D1*
X45218Y29050D2*
X46830D1*
X45218Y31590D2*
X46830D1*
X108864Y22700D2*
X112235D1*
X117235D2*
X120606D1*
X23970Y31590D2*
X25582D1*
X23970Y29050D2*
X25582D1*
X23970Y26510D2*
X25582D1*
X19818D2*
X21430D1*
X19818Y29050D2*
X21430D1*
X19818Y31590D2*
X21430D1*
X192880D2*
X194492D1*
X192880Y29050D2*
X194492D1*
X192880Y26510D2*
X194492D1*
X188728D2*
X190340D1*
X188728Y29050D2*
X190340D1*
X188728Y31590D2*
X190340D1*
X114078Y42385D2*
X115728D1*
X99473Y49053D2*
X102772D1*
X202254Y33190D2*
X207001D1*
X129380Y39210D3*
Y36670D3*
Y34130D3*
Y31590D3*
Y29050D3*
Y26510D3*
Y23970D3*
X126840D3*
Y26510D3*
Y29050D3*
Y31590D3*
Y34130D3*
Y36670D3*
Y39210D3*
Y41750D3*
D24*
X129380D3*
D14*
X36670Y39210D3*
Y36670D3*
Y34130D3*
Y31590D3*
Y29050D3*
Y26510D3*
Y23970D3*
X34130D3*
Y26510D3*
Y29050D3*
Y31590D3*
Y34130D3*
Y36670D3*
Y39210D3*
Y41750D3*
D24*
X36670D3*
D14*
X87470Y39210D3*
Y36670D3*
Y34130D3*
Y31590D3*
Y29050D3*
Y26510D3*
Y23970D3*
X84930D3*
Y26510D3*
Y29050D3*
Y31590D3*
Y34130D3*
Y36670D3*
Y39210D3*
Y41750D3*
D24*
X87470D3*
D14*
X180180Y39210D3*
Y36670D3*
Y34130D3*
Y31590D3*
Y29050D3*
Y26510D3*
Y23970D3*
X177640D3*
Y26510D3*
Y29050D3*
Y31590D3*
Y34130D3*
Y36670D3*
Y39210D3*
Y41750D3*
D24*
X180180D3*
D14*
X167480Y39210D3*
Y36670D3*
Y34130D3*
Y31590D3*
Y29050D3*
Y26510D3*
Y23970D3*
X164940D3*
Y26510D3*
Y29050D3*
Y31590D3*
Y34130D3*
Y36670D3*
Y39210D3*
Y41750D3*
D24*
X167480D3*
D14*
X154780Y39210D3*
Y36670D3*
Y34130D3*
Y31590D3*
Y29050D3*
Y26510D3*
Y23970D3*
X152240D3*
Y26510D3*
Y29050D3*
Y31590D3*
Y34130D3*
Y36670D3*
Y39210D3*
Y41750D3*
D24*
X154780D3*
D14*
X142080Y39210D3*
Y36670D3*
Y34130D3*
Y31590D3*
Y29050D3*
Y26510D3*
Y23970D3*
X139540D3*
Y26510D3*
Y29050D3*
Y31590D3*
Y34130D3*
Y36670D3*
Y39210D3*
Y41750D3*
D24*
X142080D3*
D25*
X154145Y53180D3*
D26*
X151605D3*
D25*
X162083D3*
D26*
X159543D3*
D25*
X170020D3*
D26*
X167480D3*
G36*
X100804Y39210D2*
X101238Y39134D1*
X101621Y38914D1*
X101904Y38576D1*
X102056Y38162D1*
Y37721D1*
X101905Y37306D1*
X101622Y36968D1*
X101240Y36747D1*
X100806Y36670D1*
X98266D1*
X97832Y36746D1*
X97450Y36966D1*
X97166Y37304D1*
X97015Y37718D1*
X97014Y38159D1*
X97165Y38574D1*
X97448Y38912D1*
X97830Y39133D1*
X98264Y39210D1*
X100804D1*
G37*
G36*
X105804D2*
X106238Y39134D1*
X106621Y38914D1*
X106904Y38576D1*
X107056Y38162D1*
Y37721D1*
X106905Y37306D1*
X106622Y36968D1*
X106240Y36747D1*
X105806Y36670D1*
X103266D1*
X102832Y36746D1*
X102450Y36966D1*
X102166Y37304D1*
X102015Y37718D1*
X102014Y38159D1*
X102165Y38574D1*
X102448Y38912D1*
X102830Y39133D1*
X103264Y39210D1*
X105804D1*
G37*
G36*
X100804Y31590D2*
X101238Y31514D1*
X101621Y31294D1*
X101904Y30956D1*
X102056Y30542D1*
Y30101D1*
X101905Y29686D1*
X101622Y29348D1*
X101240Y29127D1*
X100806Y29050D1*
X98266D1*
X97832Y29126D1*
X97450Y29346D1*
X97166Y29684D1*
X97015Y30098D1*
X97014Y30539D1*
X97165Y30954D1*
X97448Y31292D1*
X97830Y31513D1*
X98264Y31590D1*
X100804D1*
G37*
G36*
X105804D2*
X106238Y31514D1*
X106621Y31294D1*
X106904Y30956D1*
X107056Y30542D1*
Y30101D1*
X106905Y29686D1*
X106622Y29348D1*
X106240Y29127D1*
X105806Y29050D1*
X103266D1*
X102832Y29126D1*
X102450Y29346D1*
X102166Y29684D1*
X102015Y30098D1*
X102014Y30539D1*
X102165Y30954D1*
X102448Y31292D1*
X102830Y31513D1*
X103264Y31590D1*
X105804D1*
G37*
G36*
X100804Y23970D2*
X101238Y23894D1*
X101621Y23674D1*
X101904Y23336D1*
X102056Y22922D1*
Y22481D1*
X101905Y22066D1*
X101622Y21728D1*
X101240Y21507D1*
X100806Y21430D1*
X98266D1*
X97832Y21506D1*
X97450Y21726D1*
X97166Y22064D1*
X97015Y22478D1*
X97014Y22919D1*
X97165Y23334D1*
X97448Y23672D1*
X97830Y23893D1*
X98264Y23970D1*
X100804D1*
G37*
G36*
X105804D2*
X106238Y23894D1*
X106621Y23674D1*
X106904Y23336D1*
X107056Y22922D1*
Y22481D1*
X106905Y22066D1*
X106622Y21728D1*
X106240Y21507D1*
X105806Y21430D1*
X103266D1*
X102832Y21506D1*
X102450Y21726D1*
X102166Y22064D1*
X102015Y22478D1*
X102014Y22919D1*
X102165Y23334D1*
X102448Y23672D1*
X102830Y23893D1*
X103264Y23970D1*
X105804D1*
G37*
G36*
X100169Y16350D2*
X100603Y16274D1*
X100986Y16054D1*
X101269Y15716D1*
X101421Y15302D1*
Y14861D1*
X101270Y14446D1*
X100987Y14108D1*
X100605Y13887D1*
X100171Y13810D1*
X97631D1*
X97197Y13886D1*
X96815Y14106D1*
X96531Y14444D1*
X96380Y14858D1*
X96379Y15299D1*
X96530Y15714D1*
X96813Y16052D1*
X97195Y16273D1*
X97629Y16350D1*
X100169D1*
G37*
G36*
X105169D2*
X105603Y16274D1*
X105986Y16054D1*
X106269Y15716D1*
X106421Y15302D1*
Y14861D1*
X106270Y14446D1*
X105987Y14108D1*
X105605Y13887D1*
X105171Y13810D1*
X102631D1*
X102197Y13886D1*
X101815Y14106D1*
X101531Y14444D1*
X101380Y14858D1*
X101379Y15299D1*
X101530Y15714D1*
X101813Y16052D1*
X102195Y16273D1*
X102629Y16350D1*
X105169D1*
G37*
D14*
X74770Y39210D3*
Y36670D3*
Y34130D3*
Y31590D3*
Y29050D3*
Y26510D3*
Y23970D3*
X72230D3*
Y26510D3*
Y29050D3*
Y31590D3*
Y34130D3*
Y36670D3*
Y39210D3*
Y41750D3*
D24*
X74770D3*
D14*
X62070Y39210D3*
Y36670D3*
Y34130D3*
Y31590D3*
Y29050D3*
Y26510D3*
Y23970D3*
X59530D3*
Y26510D3*
Y29050D3*
Y31590D3*
Y34130D3*
Y36670D3*
Y39210D3*
Y41750D3*
D24*
X62070D3*
D14*
X49370Y39210D3*
Y36670D3*
Y34130D3*
Y31590D3*
Y29050D3*
Y26510D3*
Y23970D3*
X46830D3*
Y26510D3*
Y29050D3*
Y31590D3*
Y34130D3*
Y36670D3*
Y39210D3*
Y41750D3*
D24*
X49370D3*
G36*
X114139Y16350D2*
X114573Y16274D1*
X114956Y16054D1*
X115239Y15716D1*
X115391Y15302D1*
Y14861D1*
X115240Y14446D1*
X114957Y14108D1*
X114575Y13887D1*
X114141Y13810D1*
X111601D1*
X111167Y13886D1*
X110785Y14106D1*
X110501Y14444D1*
X110350Y14858D1*
X110349Y15299D1*
X110500Y15714D1*
X110783Y16052D1*
X111165Y16273D1*
X111599Y16350D1*
X114139D1*
G37*
G36*
X119139D2*
X119573Y16274D1*
X119956Y16054D1*
X120239Y15716D1*
X120391Y15302D1*
Y14861D1*
X120240Y14446D1*
X119957Y14108D1*
X119575Y13887D1*
X119141Y13810D1*
X116601D1*
X116167Y13886D1*
X115785Y14106D1*
X115501Y14444D1*
X115350Y14858D1*
X115349Y15299D1*
X115500Y15714D1*
X115783Y16052D1*
X116165Y16273D1*
X116599Y16350D1*
X119139D1*
G37*
G36*
X113504Y23970D2*
X113938Y23894D1*
X114321Y23674D1*
X114604Y23336D1*
X114756Y22922D1*
Y22481D1*
X114605Y22066D1*
X114322Y21728D1*
X113940Y21507D1*
X113506Y21430D1*
X110966D1*
X110532Y21506D1*
X110150Y21726D1*
X109866Y22064D1*
X109715Y22478D1*
X109714Y22919D1*
X109865Y23334D1*
X110148Y23672D1*
X110530Y23893D1*
X110964Y23970D1*
X113504D1*
G37*
G36*
X118504D2*
X118938Y23894D1*
X119321Y23674D1*
X119604Y23336D1*
X119756Y22922D1*
Y22481D1*
X119605Y22066D1*
X119322Y21728D1*
X118940Y21507D1*
X118506Y21430D1*
X115966D1*
X115532Y21506D1*
X115150Y21726D1*
X114866Y22064D1*
X114715Y22478D1*
X114714Y22919D1*
X114865Y23334D1*
X115148Y23672D1*
X115530Y23893D1*
X115964Y23970D1*
X118504D1*
G37*
G36*
X113504Y31590D2*
X113938Y31514D1*
X114321Y31294D1*
X114604Y30956D1*
X114756Y30542D1*
Y30101D1*
X114605Y29686D1*
X114322Y29348D1*
X113940Y29127D1*
X113506Y29050D1*
X110966D1*
X110532Y29126D1*
X110150Y29346D1*
X109866Y29684D1*
X109715Y30098D1*
X109714Y30539D1*
X109865Y30954D1*
X110148Y31292D1*
X110530Y31513D1*
X110964Y31590D1*
X113504D1*
G37*
G36*
X118504D2*
X118938Y31514D1*
X119321Y31294D1*
X119604Y30956D1*
X119756Y30542D1*
Y30101D1*
X119605Y29686D1*
X119322Y29348D1*
X118940Y29127D1*
X118506Y29050D1*
X115966D1*
X115532Y29126D1*
X115150Y29346D1*
X114866Y29684D1*
X114715Y30098D1*
X114714Y30539D1*
X114865Y30954D1*
X115148Y31292D1*
X115530Y31513D1*
X115964Y31590D1*
X118504D1*
G37*
G36*
X113504Y39210D2*
X113938Y39134D1*
X114321Y38914D1*
X114604Y38576D1*
X114756Y38162D1*
Y37721D1*
X114605Y37306D1*
X114322Y36968D1*
X113940Y36747D1*
X113506Y36670D1*
X110966D1*
X110532Y36746D1*
X110150Y36966D1*
X109866Y37304D1*
X109715Y37718D1*
X109714Y38159D1*
X109865Y38574D1*
X110148Y38912D1*
X110530Y39133D1*
X110964Y39210D1*
X113504D1*
G37*
G36*
X118504D2*
X118938Y39134D1*
X119321Y38914D1*
X119604Y38576D1*
X119756Y38162D1*
Y37721D1*
X119605Y37306D1*
X119322Y36968D1*
X118940Y36747D1*
X118506Y36670D1*
X115966D1*
X115532Y36746D1*
X115150Y36966D1*
X114866Y37304D1*
X114715Y37718D1*
X114714Y38159D1*
X114865Y38574D1*
X115148Y38912D1*
X115530Y39133D1*
X115964Y39210D1*
X118504D1*
G37*
D28*
X90010Y52863D3*
D29*
X92550D3*
D28*
X82390D3*
D29*
X84930D3*
D14*
X23970Y39210D3*
Y36670D3*
Y34130D3*
Y31590D3*
Y29050D3*
Y26510D3*
Y23970D3*
X21430D3*
Y26510D3*
Y29050D3*
Y31590D3*
Y34130D3*
Y36670D3*
Y39210D3*
Y41750D3*
D24*
X23970D3*
D14*
X192880Y39210D3*
Y36670D3*
Y34130D3*
Y31590D3*
Y29050D3*
Y26510D3*
Y23970D3*
X190340D3*
Y26510D3*
Y29050D3*
Y31590D3*
Y34130D3*
Y36670D3*
Y39210D3*
Y41750D3*
D24*
X192880D3*
D30*
X113188Y53815D3*
D31*
X115728D3*
X118268D3*
D20*
X115728Y42385D3*
D30*
X118268D3*
X101123Y46513D3*
D20*
Y49053D3*
D32*
X107155Y47783D3*
D33*
X118205D3*
D34*
X204628Y41115D3*
Y37153D3*
Y33190D3*
Y29228D3*
D32*
X94455Y46513D3*
D33*
Y35463D3*
D14*
X175735Y57625D3*
D35*
X185895D3*
D14*
X175735Y54133D3*
D35*
X185895D3*
D14*
X175735Y50640D3*
D35*
X185895D3*
M02*
