M48
METRIC,0000.00
T01C0.711
T02C0.9
T03C0.965
T04C1.0
T05C1.016
T06C1.1
T07C1.2
T08C1.778
T09C3.0
T10C3.505
T11C4.013
%
T01
X+021225Y+005318
X+020971Y+005318
X+021765Y+005318
X+022019Y+005318
X+022558Y+005318
X+022812Y+005318
T02
X+010430Y+005064
X+010430Y+005318
X+009795Y+004683
X+009795Y+004429
X+009795Y+002524
X+009795Y+002270
T03
X+013224Y+003921
X+013224Y+003667
X+013224Y+003413
X+013224Y+003159
X+013224Y+002905
X+013224Y+002651
X+013224Y+002397
X+012970Y+002397
X+012970Y+002651
X+012970Y+002905
X+012970Y+003159
X+012970Y+003413
X+012970Y+003667
X+012970Y+003921
X+012970Y+004175
X+013224Y+004175
X+014938Y+004175
X+014938Y+003921
X+014938Y+003667
X+014938Y+003413
X+015192Y+003413
X+015192Y+003667
X+015192Y+003921
X+015192Y+004175
X+015192Y+003159
X+015192Y+002905
X+015192Y+002651
X+015192Y+002397
X+014938Y+002397
X+014938Y+002651
X+014938Y+002905
X+014938Y+003159
X+016907Y+003159
X+016907Y+002905
X+016907Y+002651
X+017161Y+002651
X+017161Y+002905
X+017161Y+003159
X+017161Y+003413
X+017161Y+003667
X+017161Y+003921
X+016907Y+003921
X+016907Y+003667
X+016907Y+003413
X+016907Y+004175
X+017161Y+004175
X+018875Y+004175
X+019129Y+004175
X+019129Y+003921
X+019129Y+003667
X+019129Y+003413
X+019129Y+003159
X+019129Y+002905
X+019129Y+002651
X+019129Y+002397
X+018875Y+002397
X+018875Y+002651
X+018875Y+002905
X+018875Y+003159
X+018875Y+003413
X+018875Y+003667
X+018875Y+003921
X+020844Y+003921
X+020844Y+003667
X+020844Y+003413
X+020844Y+003159
X+020844Y+002905
X+020844Y+002651
X+021098Y+002651
X+021098Y+002905
X+021098Y+003159
X+021098Y+003413
X+021098Y+003667
X+021098Y+003921
X+021098Y+004175
X+020844Y+004175
X+020844Y+002397
X+021098Y+002397
X+022812Y+002397
X+023066Y+002397
X+023066Y+002651
X+023066Y+002905
X+023066Y+003159
X+023066Y+003413
X+023066Y+003667
X+023066Y+003921
X+022812Y+003921
X+022812Y+003667
X+022812Y+003413
X+022812Y+003159
X+022812Y+002905
X+022812Y+002651
X+022812Y+004175
X+023066Y+004175
X+023384Y+005064
X+023384Y+005413
X+023384Y+005763
X+024400Y+005763
X+024400Y+005413
X+024400Y+005064
X+017161Y+002397
X+016907Y+002397
X+011255Y+002397
X+011255Y+002651
X+011255Y+002905
X+011255Y+003159
X+011255Y+003413
X+011255Y+003667
X+011255Y+003921
X+011001Y+003921
X+011001Y+003667
X+011001Y+003413
X+011001Y+003159
X+011001Y+002905
X+011001Y+002651
X+011001Y+002397
X+011001Y+004175
X+011255Y+004175
T04
X+011351Y+005509
X+011605Y+005509
X+011859Y+005509
X+012652Y+005064
X+012906Y+005064
X+009160Y+004683
X+009160Y+004429
X+007572Y+004683
X+007572Y+004937
X+007572Y+002334
X+007572Y+002080
X+009160Y+002270
X+009160Y+002524
T05
X+001285Y+002667
X+001301Y+004477
T06
X+003502Y+005122
X+003502Y+004372
X+003502Y+002645
X+003502Y+001895
X+005598Y+001895
X+005598Y+002645
X+005598Y+004372
X+005598Y+005122
T07
X+011097Y+005032
X+010366Y+004366
X+010366Y+003261
X+008715Y+003350
X+008715Y+003642
X+008233Y+003985
X+008715Y+004747
X+008842Y+005382
X+008588Y+005382
X+008334Y+005382
X+007128Y+003985
X+007102Y+003032
X+008207Y+003032
X+008715Y+002245
X+008842Y+001635
X+008588Y+001635
X+008334Y+001635
X+012202Y+005032
X+002048Y+005572
X+002048Y+004467
X+002048Y+002677
X+002048Y+001572
T08
X+025384Y+004112
X+025384Y+003715
X+025384Y+003319
X+025384Y+002923
T09
X+025606Y+005636
X+025606Y+001381
X+020272Y+001381
X+020272Y+005636
X+013478Y+005636
X+013478Y+001381
X+006683Y+001381
X+006683Y+005636
X+001349Y+005636
X+001349Y+001381
T10
X+001794Y+003604
X+002094Y+003134
T11
X+002394Y+003604
T00
M30
