G04 DipTrace 3.0.0.1*
G04 moraydular_powerbus_powered_skiff.GTS*
%MOMM*%
G04 #@! TF.FileFunction,Soldermask,Top*
G04 #@! TF.Part,Single*
%ADD18C,1.8*%
%ADD33R,1.8X1.8*%
%ADD34C,1.8*%
%ADD42C,3.0*%
%ADD53C,1.978*%
%ADD55C,2.05*%
%ADD57R,2.05X2.05*%
%ADD59C,5.2038*%
%ADD61C,4.7212*%
%ADD63C,1.724*%
%ADD65C,3.248*%
%ADD67C,2.0*%
%ADD68R,2.0X2.0*%
%ADD72R,1.47X1.47*%
%ADD74C,1.47*%
%ADD76R,1.724X1.724*%
%ADD78C,1.724*%
%FSLAX35Y35*%
G04*
G71*
G90*
G75*
G01*
G04 TopMask*
%LPD*%
D78*
X13223751Y3921001D3*
Y3667001D3*
Y3413001D3*
Y3159001D3*
Y2905001D3*
Y2651001D3*
Y2397001D3*
X12969751D3*
Y2651001D3*
Y2905001D3*
Y3159001D3*
Y3413001D3*
Y3667001D3*
Y3921001D3*
Y4175001D3*
D76*
X13223751D3*
D78*
X21097751Y3921001D3*
Y3667001D3*
Y3413001D3*
Y3159001D3*
Y2905001D3*
Y2651001D3*
Y2397001D3*
X20843751D3*
Y2651001D3*
Y2905001D3*
Y3159001D3*
Y3413001D3*
Y3667001D3*
Y3921001D3*
Y4175001D3*
D76*
X21097751D3*
D78*
X19129251Y3921001D3*
Y3667001D3*
Y3413001D3*
Y3159001D3*
Y2905001D3*
Y2651001D3*
Y2397001D3*
X18875251D3*
Y2651001D3*
Y2905001D3*
Y3159001D3*
Y3413001D3*
Y3667001D3*
Y3921001D3*
Y4175001D3*
D76*
X19129251D3*
D78*
X17160751Y3921001D3*
Y3667001D3*
Y3413001D3*
Y3159001D3*
Y2905001D3*
Y2651001D3*
Y2397001D3*
X16906751D3*
Y2651001D3*
Y2905001D3*
Y3159001D3*
Y3413001D3*
Y3667001D3*
Y3921001D3*
Y4175001D3*
D76*
X17160751D3*
D78*
X15192251Y3921001D3*
Y3667001D3*
Y3413001D3*
Y3159001D3*
Y2905001D3*
Y2651001D3*
Y2397001D3*
X14938251D3*
Y2651001D3*
Y2905001D3*
Y3159001D3*
Y3413001D3*
Y3667001D3*
Y3921001D3*
Y4175001D3*
D76*
X15192251D3*
D74*
X21224751Y5318001D3*
D72*
X20970751D3*
D74*
X22018501D3*
D72*
X21764501D3*
D74*
X22812251D3*
D72*
X22558251D3*
D42*
X25606251Y5635501D3*
Y1381001D3*
X1349251Y5635501D3*
Y1381001D3*
D78*
X23066251Y3921001D3*
Y3667001D3*
Y3413001D3*
Y3159001D3*
Y2905001D3*
Y2651001D3*
Y2397001D3*
X22812251D3*
Y2651001D3*
Y2905001D3*
Y3159001D3*
Y3413001D3*
Y3667001D3*
Y3921001D3*
Y4175001D3*
D76*
X23066251D3*
D42*
X20272251Y1381001D3*
Y5635501D3*
D33*
X11350501Y5508501D3*
D34*
X11604501D3*
X11858501D3*
D18*
X12906251Y5064001D3*
D33*
X12652251D3*
X10429751D3*
D18*
Y5318001D3*
D68*
X11096501Y5032251D3*
D67*
X12201501D3*
D65*
X25384001Y4111501D3*
Y3715261D3*
Y3319021D3*
Y2922781D3*
D68*
X10366251Y4365501D3*
D67*
Y3260501D3*
D78*
X23383751Y5762501D3*
D63*
X24399751D3*
D78*
X23383751Y5413251D3*
D63*
X24399751D3*
D78*
X23383751Y5064001D3*
D63*
X24399751D3*
D78*
X11255251Y3921001D3*
Y3667001D3*
Y3413001D3*
Y3159001D3*
Y2905001D3*
Y2651001D3*
Y2397001D3*
X11001251D3*
Y2651001D3*
Y2905001D3*
Y3159001D3*
Y3413001D3*
Y3667001D3*
Y3921001D3*
Y4175001D3*
D76*
X11255251D3*
D42*
X13477751Y1381001D3*
Y5635501D3*
X6683251Y1381001D3*
Y5635501D3*
D61*
X1793751Y3603501D3*
D59*
X2393751D3*
D61*
X2093751Y3133501D3*
D68*
X8334251Y5381501D3*
D67*
X8842251D3*
X8588251D3*
D68*
X8842251Y1635001D3*
D67*
X8334251D3*
X8588251D3*
D68*
X2047751Y5572001D3*
D67*
Y4467001D3*
D68*
Y2676501D3*
D67*
Y1571501D3*
D68*
X7127751Y3984501D3*
D67*
X8232751D3*
D68*
X7102251Y3032001D3*
D67*
X8207251D3*
D33*
X9794751Y4683001D3*
D18*
Y4429001D3*
D33*
Y2524001D3*
D18*
Y2270001D3*
D57*
X3502251Y5121501D3*
D55*
Y4371501D3*
D57*
Y2645001D3*
D55*
Y1895001D3*
D57*
X5597751Y5121501D3*
D55*
Y4371501D3*
D57*
Y2645001D3*
D55*
Y1895001D3*
D68*
X8715251Y4746501D3*
D67*
Y3641501D3*
D68*
Y3349501D3*
D67*
Y2244501D3*
D18*
X9159751Y2270001D3*
D33*
Y2524001D3*
D18*
Y4429001D3*
D33*
Y4683001D3*
D18*
X7572251Y2079501D3*
D33*
Y2333501D3*
D18*
Y4683001D3*
D33*
Y4937001D3*
D53*
X1285104Y2666897D3*
X1300981Y4476837D3*
M02*
