G04 DipTrace 2.4.0.2*
%INbusboard_12_place_ext_workfinal.GTO*%
%MOMM*%
%ADD10C,0.25*%
%ADD23C,0.5*%
%ADD65C,0.196*%
%ADD66C,0.235*%
%ADD67C,0.157*%
%FSLAX53Y53*%
G04*
G71*
G90*
G75*
G01*
%LNTopSilk*%
%LPD*%
X129381Y46187D2*
D10*
Y46830D1*
X126839Y46187D2*
X129381D1*
X126839D2*
Y46830D1*
X129381Y18890D2*
Y19533D1*
X126839D2*
X129381D1*
X126839Y18890D2*
Y19533D1*
X123665Y18890D2*
X132555D1*
X123665Y46830D2*
X132555D1*
X123665Y18890D2*
Y46830D1*
X131790Y34900D2*
X132555D1*
X131790Y30820D2*
Y34900D1*
Y30820D2*
X132555D1*
Y18890D2*
Y30820D1*
Y34900D2*
Y46830D1*
X36671Y46187D2*
Y46830D1*
X34129Y46187D2*
X36671D1*
X34129D2*
Y46830D1*
X36671Y18890D2*
Y19533D1*
X34129D2*
X36671D1*
X34129Y18890D2*
Y19533D1*
X30955Y18890D2*
X39845D1*
X30955Y46830D2*
X39845D1*
X30955Y18890D2*
Y46830D1*
X39080Y34900D2*
X39845D1*
X39080Y30820D2*
Y34900D1*
Y30820D2*
X39845D1*
Y18890D2*
Y30820D1*
Y34900D2*
Y46830D1*
X87471Y46187D2*
Y46830D1*
X84929Y46187D2*
X87471D1*
X84929D2*
Y46830D1*
X87471Y18890D2*
Y19533D1*
X84929D2*
X87471D1*
X84929Y18890D2*
Y19533D1*
X81755Y18890D2*
X90645D1*
X81755Y46830D2*
X90645D1*
X81755Y18890D2*
Y46830D1*
X89880Y34900D2*
X90645D1*
X89880Y30820D2*
Y34900D1*
Y30820D2*
X90645D1*
Y18890D2*
Y30820D1*
Y34900D2*
Y46830D1*
X180181Y46187D2*
Y46830D1*
X177639Y46187D2*
X180181D1*
X177639D2*
Y46830D1*
X180181Y18890D2*
Y19533D1*
X177639D2*
X180181D1*
X177639Y18890D2*
Y19533D1*
X174465Y18890D2*
X183355D1*
X174465Y46830D2*
X183355D1*
X174465Y18890D2*
Y46830D1*
X182590Y34900D2*
X183355D1*
X182590Y30820D2*
Y34900D1*
Y30820D2*
X183355D1*
Y18890D2*
Y30820D1*
Y34900D2*
Y46830D1*
X167481Y46187D2*
Y46830D1*
X164939Y46187D2*
X167481D1*
X164939D2*
Y46830D1*
X167481Y18890D2*
Y19533D1*
X164939D2*
X167481D1*
X164939Y18890D2*
Y19533D1*
X161765Y18890D2*
X170655D1*
X161765Y46830D2*
X170655D1*
X161765Y18890D2*
Y46830D1*
X169890Y34900D2*
X170655D1*
X169890Y30820D2*
Y34900D1*
Y30820D2*
X170655D1*
Y18890D2*
Y30820D1*
Y34900D2*
Y46830D1*
X154781Y46187D2*
Y46830D1*
X152239Y46187D2*
X154781D1*
X152239D2*
Y46830D1*
X154781Y18890D2*
Y19533D1*
X152239D2*
X154781D1*
X152239Y18890D2*
Y19533D1*
X149065Y18890D2*
X157955D1*
X149065Y46830D2*
X157955D1*
X149065Y18890D2*
Y46830D1*
X157190Y34900D2*
X157955D1*
X157190Y30820D2*
Y34900D1*
Y30820D2*
X157955D1*
Y18890D2*
Y30820D1*
Y34900D2*
Y46830D1*
X142081Y46187D2*
Y46830D1*
X139539Y46187D2*
X142081D1*
X139539D2*
Y46830D1*
X142081Y18890D2*
Y19533D1*
X139539D2*
X142081D1*
X139539Y18890D2*
Y19533D1*
X136365Y18890D2*
X145255D1*
X136365Y46830D2*
X145255D1*
X136365Y18890D2*
Y46830D1*
X144490Y34900D2*
X145255D1*
X144490Y30820D2*
Y34900D1*
Y30820D2*
X145255D1*
Y18890D2*
Y30820D1*
Y34900D2*
Y46830D1*
X150335Y51277D2*
Y55083D1*
X150341Y51269D2*
G03X150341Y55091I2535J1911D01*
G01*
X158273Y51277D2*
Y55083D1*
X158278Y51269D2*
G03X158278Y55091I2535J1911D01*
G01*
X166210Y51277D2*
Y55083D1*
X166216Y51269D2*
G03X166216Y55091I2535J1911D01*
G01*
X74771Y46187D2*
Y46830D1*
X72229Y46187D2*
X74771D1*
X72229D2*
Y46830D1*
X74771Y18890D2*
Y19533D1*
X72229D2*
X74771D1*
X72229Y18890D2*
Y19533D1*
X69055Y18890D2*
X77945D1*
X69055Y46830D2*
X77945D1*
X69055Y18890D2*
Y46830D1*
X77180Y34900D2*
X77945D1*
X77180Y30820D2*
Y34900D1*
Y30820D2*
X77945D1*
Y18890D2*
Y30820D1*
Y34900D2*
Y46830D1*
X62071Y46187D2*
Y46830D1*
X59529Y46187D2*
X62071D1*
X59529D2*
Y46830D1*
X62071Y18890D2*
Y19533D1*
X59529D2*
X62071D1*
X59529Y18890D2*
Y19533D1*
X56355Y18890D2*
X65245D1*
X56355Y46830D2*
X65245D1*
X56355Y18890D2*
Y46830D1*
X64480Y34900D2*
X65245D1*
X64480Y30820D2*
Y34900D1*
Y30820D2*
X65245D1*
Y18890D2*
Y30820D1*
Y34900D2*
Y46830D1*
X49371Y46187D2*
Y46830D1*
X46829Y46187D2*
X49371D1*
X46829D2*
Y46830D1*
X49371Y18890D2*
Y19533D1*
X46829D2*
X49371D1*
X46829Y18890D2*
Y19533D1*
X43655Y18890D2*
X52545D1*
X43655Y46830D2*
X52545D1*
X43655Y18890D2*
Y46830D1*
X51780Y34900D2*
X52545D1*
X51780Y30820D2*
Y34900D1*
Y30820D2*
X52545D1*
Y18890D2*
Y30820D1*
Y34900D2*
Y46830D1*
X93820Y51593D2*
Y54133D1*
X88740Y51593D2*
X93820D1*
X88740D2*
Y54133D1*
X93820D1*
X86200Y51593D2*
Y54133D1*
X81120Y51593D2*
X86200D1*
X81120D2*
Y54133D1*
X86200D1*
X23971Y46187D2*
Y46830D1*
X21429Y46187D2*
X23971D1*
X21429D2*
Y46830D1*
X23971Y18890D2*
Y19533D1*
X21429D2*
X23971D1*
X21429Y18890D2*
Y19533D1*
X18255Y18890D2*
X27145D1*
X18255Y46830D2*
X27145D1*
X18255Y18890D2*
Y46830D1*
X26380Y34900D2*
X27145D1*
X26380Y30820D2*
Y34900D1*
Y30820D2*
X27145D1*
Y18890D2*
Y30820D1*
Y34900D2*
Y46830D1*
X192881Y46187D2*
Y46830D1*
X190339Y46187D2*
X192881D1*
X190339D2*
Y46830D1*
X192881Y18890D2*
Y19533D1*
X190339D2*
X192881D1*
X190339Y18890D2*
Y19533D1*
X187165Y18890D2*
X196055D1*
X187165Y46830D2*
X196055D1*
X187165Y18890D2*
Y46830D1*
X195290Y34900D2*
X196055D1*
X195290Y30820D2*
Y34900D1*
Y30820D2*
X196055D1*
Y18890D2*
Y30820D1*
Y34900D2*
Y46830D1*
X110378Y56167D2*
X121078D1*
X110378Y56665D2*
X121078D1*
X110378Y51965D2*
X121078D1*
X110378D2*
Y56665D1*
X121078Y51965D2*
Y56665D1*
X118774Y43909D2*
X115221D1*
X118774Y40861D2*
X115221D1*
Y43909D2*
G03X115221Y40861I-2J-1524D01*
G01*
X118774D2*
G03X118774Y43909I2J1524D01*
G01*
X101423Y44484D2*
X100822D1*
X101123Y44183D2*
Y44783D1*
X98583Y47783D2*
X98589Y47960D1*
X98607Y48137D1*
X98638Y48311D1*
X98681Y48483D1*
X98736Y48652D1*
X98802Y48816D1*
X98880Y48975D1*
X98968Y49129D1*
X99068Y49276D1*
X99177Y49415D1*
X99295Y49547D1*
X99423Y49670D1*
X99559Y49784D1*
X99702Y49888D1*
X99853Y49982D1*
X100009Y50065D1*
X100171Y50137D1*
X100338Y50198D1*
X100508Y50247D1*
X100681Y50284D1*
X100857Y50308D1*
X101034Y50321D1*
X101211D1*
X101388Y50308D1*
X101564Y50284D1*
X101737Y50247D1*
X101907Y50198D1*
X102074Y50137D1*
X102236Y50065D1*
X102393Y49982D1*
X102543Y49888D1*
X102686Y49784D1*
X102822Y49670D1*
X102950Y49547D1*
X103068Y49415D1*
X103177Y49276D1*
X103277Y49129D1*
X103365Y48975D1*
X103443Y48816D1*
X103509Y48652D1*
X103564Y48483D1*
X103607Y48311D1*
X103638Y48137D1*
X103656Y47960D1*
X103663Y47783D1*
X103656Y47606D1*
X103638Y47430D1*
X103607Y47255D1*
X103564Y47083D1*
X103509Y46915D1*
X103443Y46751D1*
X103365Y46591D1*
X103277Y46438D1*
X103177Y46291D1*
X103068Y46151D1*
X102950Y46019D1*
X102822Y45896D1*
X102686Y45782D1*
X102543Y45678D1*
X102393Y45584D1*
X102236Y45501D1*
X102074Y45429D1*
X101907Y45368D1*
X101737Y45320D1*
X101564Y45283D1*
X101388Y45258D1*
X101211Y45246D1*
X101034D1*
X100857Y45258D1*
X100681Y45283D1*
X100508Y45320D1*
X100338Y45368D1*
X100171Y45429D1*
X100009Y45501D1*
X99853Y45584D1*
X99702Y45678D1*
X99559Y45782D1*
X99423Y45896D1*
X99295Y46019D1*
X99177Y46151D1*
X99068Y46291D1*
X98968Y46438D1*
X98880Y46591D1*
X98802Y46751D1*
X98736Y46915D1*
X98681Y47083D1*
X98638Y47255D1*
X98607Y47430D1*
X98589Y47606D1*
X98583Y47783D1*
X110277Y46383D2*
Y49183D1*
X110328D2*
X115032D1*
X111035Y46383D2*
Y49183D1*
X115032Y46383D2*
Y49183D1*
X110328Y46383D2*
X115032D1*
X207676Y27247D2*
X200056D1*
Y43096D1*
X207676D1*
Y27247D1*
X202342Y29228D2*
X200056D1*
Y41115D1*
X202342D1*
Y29228D1*
X93055Y43390D2*
X95855D1*
Y43339D2*
Y38636D1*
X93055Y42632D2*
X95855D1*
X93055Y38636D2*
X95855D1*
X93055Y43339D2*
Y38636D1*
X183350Y56355D2*
X178280D1*
Y58895D2*
Y56355D1*
X183350Y58895D2*
X178280D1*
X183350D2*
Y56355D1*
Y52863D2*
X178280D1*
Y55403D2*
Y52863D1*
X183350Y55403D2*
X178280D1*
X183350D2*
Y52863D1*
Y49370D2*
X178280D1*
Y51910D2*
Y49370D1*
X183350Y51910D2*
X178280D1*
X183350D2*
Y49370D1*
X17620Y17620D2*
D23*
X91280D1*
X123030D2*
X196690D1*
X127928Y47414D2*
D65*
X128535Y48688D1*
X127685D1*
X35036Y48385D2*
Y48446D1*
X35097Y48568D1*
X35157Y48628D1*
X35279Y48688D1*
X35522D1*
X35643Y48628D1*
X35703Y48568D1*
X35765Y48446D1*
Y48325D1*
X35703Y48203D1*
X35583Y48022D1*
X34975Y47414D1*
X35825D1*
X86534Y48507D2*
X86474Y48628D1*
X86291Y48688D1*
X86171D1*
X85988Y48628D1*
X85866Y48446D1*
X85806Y48142D1*
Y47839D1*
X85866Y47596D1*
X85988Y47474D1*
X86171Y47414D1*
X86231D1*
X86412Y47474D1*
X86534Y47596D1*
X86594Y47779D1*
Y47839D1*
X86534Y48022D1*
X86412Y48142D1*
X86231Y48203D1*
X86171D1*
X85988Y48142D1*
X85866Y48022D1*
X85806Y47839D1*
X178409Y48446D2*
X178531Y48507D1*
X178714Y48688D1*
Y47414D1*
X179106Y48446D2*
X179228Y48507D1*
X179411Y48688D1*
Y47414D1*
X165436Y48446D2*
X165558Y48507D1*
X165741Y48688D1*
Y47414D1*
X166498Y48688D2*
X166316Y48628D1*
X166193Y48446D1*
X166133Y48142D1*
Y47960D1*
X166193Y47657D1*
X166316Y47474D1*
X166498Y47414D1*
X166619D1*
X166801Y47474D1*
X166922Y47657D1*
X166984Y47960D1*
Y48142D1*
X166922Y48446D1*
X166801Y48628D1*
X166619Y48688D1*
X166498D1*
X166922Y48446D2*
X166193Y47657D1*
X153905Y48265D2*
X153843Y48082D1*
X153723Y47960D1*
X153540Y47900D1*
X153480D1*
X153297Y47960D1*
X153177Y48082D1*
X153115Y48265D1*
Y48325D1*
X153177Y48507D1*
X153297Y48628D1*
X153480Y48688D1*
X153540D1*
X153723Y48628D1*
X153843Y48507D1*
X153905Y48265D1*
Y47960D1*
X153843Y47657D1*
X153723Y47474D1*
X153540Y47414D1*
X153419D1*
X153237Y47474D1*
X153177Y47596D1*
X140689Y48688D2*
X140507Y48628D1*
X140446Y48507D1*
Y48385D1*
X140507Y48265D1*
X140628Y48203D1*
X140871Y48142D1*
X141054Y48082D1*
X141174Y47960D1*
X141235Y47839D1*
Y47657D1*
X141174Y47536D1*
X141114Y47474D1*
X140931Y47414D1*
X140689D1*
X140507Y47474D1*
X140446Y47536D1*
X140385Y47657D1*
Y47839D1*
X140446Y47960D1*
X140568Y48082D1*
X140749Y48142D1*
X140992Y48203D1*
X141114Y48265D1*
X141174Y48385D1*
Y48507D1*
X141114Y48628D1*
X140931Y48688D1*
X140689D1*
X151889Y58122D2*
Y57029D1*
X151343Y57575D2*
X152436D1*
X153557Y58213D2*
X152951D1*
X152890Y57667D1*
X152951Y57727D1*
X153133Y57789D1*
X153314D1*
X153497Y57727D1*
X153619Y57606D1*
X153679Y57424D1*
Y57303D1*
X153619Y57121D1*
X153497Y56999D1*
X153314Y56938D1*
X153133D1*
X152951Y56999D1*
X152890Y57060D1*
X152828Y57181D1*
X154071Y58214D2*
X154557Y56938D1*
X155043Y58214D1*
X159478Y58122D2*
Y57029D1*
X158932Y57575D2*
X160025D1*
X160417Y57970D2*
X160540Y58032D1*
X160722Y58213D1*
Y56938D1*
X161176Y57910D2*
Y57970D1*
X161236Y58092D1*
X161297Y58153D1*
X161419Y58213D1*
X161662D1*
X161783Y58153D1*
X161843Y58092D1*
X161905Y57970D1*
Y57849D1*
X161843Y57727D1*
X161722Y57546D1*
X161114Y56938D1*
X161965D1*
X162357Y58214D2*
X162843Y56938D1*
X163329Y58214D1*
X167065Y57576D2*
X167767D1*
X168159Y57970D2*
X168281Y58032D1*
X168464Y58213D1*
Y56938D1*
X168918Y57910D2*
Y57970D1*
X168978Y58092D1*
X169038Y58153D1*
X169161Y58213D1*
X169403D1*
X169524Y58153D1*
X169585Y58092D1*
X169646Y57970D1*
Y57849D1*
X169585Y57727D1*
X169464Y57546D1*
X168856Y56938D1*
X169707D1*
X170099Y58214D2*
X170585Y56938D1*
X171070Y58214D1*
X73803Y48688D2*
X73197D1*
X73136Y48142D1*
X73197Y48203D1*
X73379Y48265D1*
X73560D1*
X73743Y48203D1*
X73865Y48082D1*
X73925Y47900D1*
Y47779D1*
X73865Y47596D1*
X73743Y47474D1*
X73560Y47414D1*
X73379D1*
X73197Y47474D1*
X73136Y47536D1*
X73075Y47657D1*
X60952Y47414D2*
Y48688D1*
X60344Y47839D1*
X61256D1*
X47797Y48688D2*
X48464D1*
X48100Y48203D1*
X48283D1*
X48403Y48142D1*
X48464Y48082D1*
X48525Y47900D1*
Y47779D1*
X48464Y47596D1*
X48343Y47474D1*
X48160Y47414D1*
X47978D1*
X47797Y47474D1*
X47736Y47536D1*
X47675Y47657D1*
X89781Y55689D2*
X89720Y55810D1*
X89598Y55932D1*
X89477Y55992D1*
X89235D1*
X89112Y55932D1*
X88992Y55810D1*
X88930Y55689D1*
X88870Y55507D1*
Y55202D1*
X88930Y55021D1*
X88992Y54899D1*
X89112Y54778D1*
X89235Y54716D1*
X89477D1*
X89598Y54778D1*
X89720Y54899D1*
X89781Y55021D1*
X90173Y55992D2*
X90659Y54716D1*
X91144Y55992D1*
X91536Y54506D2*
X92690D1*
X93690Y55992D2*
Y55021D1*
X93630Y54838D1*
X93568Y54778D1*
X93448Y54716D1*
X93325D1*
X93205Y54778D1*
X93144Y54838D1*
X93083Y55021D1*
Y55142D1*
X80948Y55689D2*
X80888Y55810D1*
X80765Y55932D1*
X80645Y55992D1*
X80402D1*
X80280Y55932D1*
X80159Y55810D1*
X80097Y55689D1*
X80037Y55507D1*
Y55202D1*
X80097Y55021D1*
X80159Y54899D1*
X80280Y54778D1*
X80402Y54716D1*
X80645D1*
X80765Y54778D1*
X80888Y54899D1*
X80948Y55021D1*
Y55202D1*
X80645D1*
X82313Y54716D2*
X81826Y55992D1*
X81340Y54716D1*
X81523Y55142D2*
X82130D1*
X83131Y55992D2*
Y54716D1*
X82705Y55992D2*
X83556D1*
X84737D2*
X83948D1*
Y54716D1*
X84737D1*
X83948Y55385D2*
X84434D1*
X85129Y54506D2*
X86283D1*
X87283Y55992D2*
Y55021D1*
X87223Y54838D1*
X87161Y54778D1*
X87040Y54716D1*
X86918D1*
X86797Y54778D1*
X86737Y54838D1*
X86675Y55021D1*
Y55142D1*
X22548Y48446D2*
X22670Y48507D1*
X22852Y48688D1*
Y47414D1*
X190836Y48446D2*
X190958Y48507D1*
X191141Y48688D1*
Y47414D1*
X191595Y48385D2*
Y48446D1*
X191655Y48568D1*
X191716Y48628D1*
X191838Y48688D1*
X192081D1*
X192201Y48628D1*
X192262Y48568D1*
X192323Y48446D1*
Y48325D1*
X192262Y48203D1*
X192141Y48022D1*
X191533Y47414D1*
X192384D1*
X113681Y57249D2*
X114289Y58523D1*
X113439D1*
X114985D2*
X114804Y58463D1*
X114742Y58342D1*
Y58220D1*
X114804Y58100D1*
X114924Y58038D1*
X115167Y57977D1*
X115350Y57917D1*
X115470Y57795D1*
X115531Y57674D1*
Y57492D1*
X115470Y57371D1*
X115410Y57309D1*
X115227Y57249D1*
X114985D1*
X114804Y57309D1*
X114742Y57371D1*
X114681Y57492D1*
Y57674D1*
X114742Y57795D1*
X114864Y57917D1*
X115045Y57977D1*
X115288Y58038D1*
X115410Y58100D1*
X115470Y58220D1*
Y58342D1*
X115410Y58463D1*
X115227Y58523D1*
X114985D1*
X116288D2*
X116105Y58463D1*
X115983Y58281D1*
X115923Y57977D1*
Y57795D1*
X115983Y57492D1*
X116105Y57309D1*
X116288Y57249D1*
X116409D1*
X116591Y57309D1*
X116712Y57492D1*
X116774Y57795D1*
Y57977D1*
X116712Y58281D1*
X116591Y58463D1*
X116409Y58523D1*
X116288D1*
X116712Y58281D2*
X115983Y57492D1*
X117894Y58523D2*
X117288D1*
X117228Y57977D1*
X117288Y58038D1*
X117470Y58100D1*
X117652D1*
X117834Y58038D1*
X117956Y57917D1*
X118017Y57735D1*
Y57614D1*
X117956Y57431D1*
X117834Y57309D1*
X117652Y57249D1*
X117470D1*
X117288Y57309D1*
X117228Y57371D1*
X117166Y57492D1*
X114481Y45525D2*
X114603Y45586D1*
X114785Y45767D1*
Y44493D1*
X115543Y45767D2*
X115360Y45707D1*
X115238Y45525D1*
X115178Y45221D1*
Y45039D1*
X115238Y44736D1*
X115360Y44553D1*
X115543Y44493D1*
X115663D1*
X115846Y44553D1*
X115967Y44736D1*
X116028Y45039D1*
Y45221D1*
X115967Y45525D1*
X115846Y45707D1*
X115663Y45767D1*
X115543D1*
X115967Y45525D2*
X115238Y44736D1*
X116786Y45767D2*
X116603Y45707D1*
X116481Y45525D1*
X116421Y45221D1*
Y45039D1*
X116481Y44736D1*
X116603Y44553D1*
X116786Y44493D1*
X116906D1*
X117089Y44553D1*
X117209Y44736D1*
X117271Y45039D1*
Y45221D1*
X117209Y45525D1*
X117089Y45707D1*
X116906Y45767D1*
X116786D1*
X117209Y45525D2*
X116481Y44736D1*
X117663Y45344D2*
Y44493D1*
Y45101D2*
X117846Y45283D1*
X117968Y45344D1*
X118149D1*
X118271Y45283D1*
X118332Y45101D1*
Y44493D1*
X119514Y45769D2*
X118724D1*
Y44493D1*
Y45161D2*
X119210D1*
X99227Y51938D2*
X99349Y52000D1*
X99532Y52181D1*
Y50906D1*
X100289Y52181D2*
X100107Y52120D1*
X99984Y51938D1*
X99924Y51635D1*
Y51452D1*
X99984Y51149D1*
X100107Y50966D1*
X100289Y50906D1*
X100410D1*
X100592Y50966D1*
X100713Y51149D1*
X100775Y51452D1*
Y51635D1*
X100713Y51938D1*
X100592Y52120D1*
X100410Y52181D1*
X100289D1*
X100713Y51938D2*
X99984Y51149D1*
X101167Y51757D2*
Y51149D1*
X101227Y50968D1*
X101349Y50906D1*
X101532D1*
X101653Y50968D1*
X101835Y51149D1*
Y51757D2*
Y50906D1*
X103018Y52182D2*
X102227D1*
Y50906D1*
Y51574D2*
X102713D1*
X109663Y50798D2*
X109785Y50860D1*
X109968Y51041D1*
Y49766D1*
X111211Y51042D2*
Y49766D1*
X110360Y51042D1*
Y49766D1*
X112211D2*
Y51041D1*
X111603Y50192D1*
X112514D1*
X113271Y51041D2*
X113089Y50981D1*
X112967Y50798D1*
X112906Y50495D1*
Y50312D1*
X112967Y50009D1*
X113089Y49827D1*
X113271Y49766D1*
X113392D1*
X113574Y49827D1*
X113695Y50009D1*
X113757Y50312D1*
Y50495D1*
X113695Y50798D1*
X113574Y50981D1*
X113392Y51041D1*
X113271D1*
X113695Y50798D2*
X112967Y50009D1*
X114514Y51041D2*
X114332Y50981D1*
X114210Y50798D1*
X114149Y50495D1*
Y50312D1*
X114210Y50009D1*
X114332Y49827D1*
X114514Y49766D1*
X114635D1*
X114817Y49827D1*
X114938Y50009D1*
X115000Y50312D1*
Y50495D1*
X114938Y50798D1*
X114817Y50981D1*
X114635Y51041D1*
X114514D1*
X114938Y50798D2*
X114210Y50009D1*
X115392Y50798D2*
X115514Y50860D1*
X115697Y51041D1*
Y49766D1*
X91439Y37971D2*
X91378Y38093D1*
X91197Y38275D1*
X92471D1*
X91195Y39518D2*
X92471D1*
X91195Y38668D1*
X92471D1*
Y40518D2*
X91197D1*
X92046Y39911D1*
Y40822D1*
X91197Y41579D2*
X91257Y41396D1*
X91439Y41274D1*
X91743Y41214D1*
X91925D1*
X92228Y41274D1*
X92411Y41396D1*
X92471Y41579D1*
Y41699D1*
X92411Y41882D1*
X92228Y42003D1*
X91925Y42064D1*
X91743D1*
X91439Y42003D1*
X91257Y41882D1*
X91197Y41699D1*
Y41579D1*
X91439Y42003D2*
X92228Y41274D1*
X91197Y42822D2*
X91257Y42639D1*
X91439Y42517D1*
X91743Y42457D1*
X91925D1*
X92228Y42517D1*
X92411Y42639D1*
X92471Y42822D1*
Y42942D1*
X92411Y43125D1*
X92228Y43246D1*
X91925Y43307D1*
X91743D1*
X91439Y43246D1*
X91257Y43125D1*
X91197Y42942D1*
Y42822D1*
X91439Y43246D2*
X92228Y42517D1*
X91439Y43700D2*
X91378Y43822D1*
X91197Y44004D1*
X92471D1*
X105607Y35823D2*
D66*
Y34511D1*
X104952Y35166D2*
X106264D1*
X107609Y35932D2*
X106882D1*
X106809Y35277D1*
X106882Y35349D1*
X107101Y35423D1*
X107318D1*
X107537Y35349D1*
X107683Y35204D1*
X107756Y34985D1*
Y34840D1*
X107683Y34621D1*
X107537Y34475D1*
X107318Y34402D1*
X107101D1*
X106882Y34475D1*
X106809Y34549D1*
X106735Y34694D1*
X108226Y35934D2*
X108809Y34402D1*
X109392Y35934D1*
X104972Y28203D2*
Y26891D1*
X104317Y27546D2*
X105629D1*
X106100Y28021D2*
X106247Y28095D1*
X106466Y28312D1*
Y26782D1*
X107010Y27948D2*
Y28021D1*
X107083Y28167D1*
X107155Y28240D1*
X107302Y28312D1*
X107593D1*
X107738Y28240D1*
X107810Y28167D1*
X107885Y28021D1*
Y27876D1*
X107810Y27729D1*
X107666Y27512D1*
X106936Y26782D1*
X107957D1*
X108428Y28314D2*
X109011Y26782D1*
X109593Y28314D1*
X104615Y12327D2*
X105457D1*
X105928Y12800D2*
X106074Y12874D1*
X106293Y13092D1*
Y11562D1*
X106838Y12728D2*
Y12800D1*
X106911Y12947D1*
X106983Y13019D1*
X107130Y13092D1*
X107421D1*
X107566Y13019D1*
X107638Y12947D1*
X107713Y12800D1*
Y12655D1*
X107638Y12509D1*
X107494Y12291D1*
X106764Y11562D1*
X107785D1*
X108256Y13093D2*
X108838Y11562D1*
X109421Y13093D1*
X106343Y20692D2*
X106124Y20620D1*
X105977Y20401D1*
X105905Y20037D1*
Y19818D1*
X105977Y19454D1*
X106124Y19235D1*
X106343Y19162D1*
X106487D1*
X106706Y19235D1*
X106851Y19454D1*
X106925Y19818D1*
Y20037D1*
X106851Y20401D1*
X106706Y20620D1*
X106487Y20692D1*
X106343D1*
X106851Y20401D2*
X105977Y19454D1*
X107396Y20694D2*
X107979Y19162D1*
X108562Y20694D1*
X13451Y42067D2*
D65*
X13391Y42187D1*
X13269Y42309D1*
X13148Y42370D1*
X12905D1*
X12783Y42309D1*
X12662Y42187D1*
X12600Y42067D1*
X12540Y41884D1*
Y41579D1*
X12600Y41398D1*
X12662Y41276D1*
X12783Y41155D1*
X12905Y41094D1*
X13148D1*
X13269Y41155D1*
X13391Y41276D1*
X13451Y41398D1*
Y41579D1*
X13148D1*
X14816Y41094D2*
X14329Y42370D1*
X13843Y41094D1*
X14026Y41519D2*
X14634D1*
X15634Y42370D2*
Y41094D1*
X15208Y42370D2*
X16059D1*
X17240D2*
X16451D1*
Y41094D1*
X17240D1*
X16451Y41762D2*
X16937D1*
X15674Y39527D2*
X15613Y39647D1*
X15491Y39769D1*
X15370Y39830D1*
X15128D1*
X15005Y39769D1*
X14885Y39647D1*
X14823Y39527D1*
X14763Y39344D1*
Y39039D1*
X14823Y38858D1*
X14885Y38736D1*
X15005Y38615D1*
X15128Y38554D1*
X15370D1*
X15491Y38615D1*
X15613Y38736D1*
X15674Y38858D1*
X16066Y39830D2*
X16551Y38554D1*
X17037Y39830D1*
X14039Y37198D2*
Y36104D1*
X13493Y36650D2*
X14586D1*
X15707Y37288D2*
X15100D1*
X15040Y36742D1*
X15100Y36803D1*
X15283Y36864D1*
X15464D1*
X15646Y36803D1*
X15769Y36682D1*
X15829Y36499D1*
Y36379D1*
X15769Y36196D1*
X15646Y36074D1*
X15464Y36014D1*
X15283D1*
X15100Y36074D1*
X15040Y36136D1*
X14978Y36257D1*
X16221Y37290D2*
X16707Y36014D1*
X17193Y37290D1*
X13404Y34658D2*
Y33564D1*
X12858Y34110D2*
X13951D1*
X14343Y34506D2*
X14465Y34567D1*
X14648Y34748D1*
Y33474D1*
X15102Y34445D2*
Y34506D1*
X15162Y34628D1*
X15223Y34688D1*
X15345Y34748D1*
X15588D1*
X15708Y34688D1*
X15769Y34628D1*
X15830Y34506D1*
Y34385D1*
X15769Y34263D1*
X15648Y34082D1*
X15040Y33474D1*
X15891D1*
X16283Y34750D2*
X16769Y33474D1*
X17254Y34750D1*
X12858Y23951D2*
X13559D1*
X13952Y24346D2*
X14074Y24407D1*
X14256Y24588D1*
Y23314D1*
X14710Y24285D2*
Y24346D1*
X14771Y24468D1*
X14831Y24528D1*
X14953Y24588D1*
X15196D1*
X15317Y24528D1*
X15377Y24468D1*
X15439Y24346D1*
Y24225D1*
X15377Y24103D1*
X15256Y23922D1*
X14648Y23314D1*
X15499D1*
X15891Y24590D2*
X16377Y23314D1*
X16863Y24590D1*
X15128Y32208D2*
X14945Y32148D1*
X14823Y31966D1*
X14763Y31662D1*
Y31480D1*
X14823Y31177D1*
X14945Y30994D1*
X15128Y30934D1*
X15248D1*
X15431Y30994D1*
X15551Y31177D1*
X15613Y31480D1*
Y31662D1*
X15551Y31966D1*
X15431Y32148D1*
X15248Y32208D1*
X15128D1*
X15551Y31966D2*
X14823Y31177D1*
X16005Y32210D2*
X16491Y30934D1*
X16977Y32210D1*
X15128Y29668D2*
X14945Y29608D1*
X14823Y29426D1*
X14763Y29122D1*
Y28940D1*
X14823Y28637D1*
X14945Y28454D1*
X15128Y28394D1*
X15248D1*
X15431Y28454D1*
X15551Y28637D1*
X15613Y28940D1*
Y29122D1*
X15551Y29426D1*
X15431Y29608D1*
X15248Y29668D1*
X15128D1*
X15551Y29426D2*
X14823Y28637D1*
X16005Y29670D2*
X16491Y28394D1*
X16977Y29670D1*
X15128Y27128D2*
X14945Y27068D1*
X14823Y26886D1*
X14763Y26582D1*
Y26400D1*
X14823Y26097D1*
X14945Y25914D1*
X15128Y25854D1*
X15248D1*
X15431Y25914D1*
X15551Y26097D1*
X15613Y26400D1*
Y26582D1*
X15551Y26886D1*
X15431Y27068D1*
X15248Y27128D1*
X15128D1*
X15551Y26886D2*
X14823Y26097D1*
X16005Y27130D2*
X16491Y25854D1*
X16977Y27130D1*
X17620Y15856D2*
D66*
X18275D1*
X18494Y15930D1*
X18568Y16003D1*
X18641Y16148D1*
Y16294D1*
X18568Y16439D1*
X18494Y16513D1*
X18275Y16586D1*
X17620D1*
Y15054D1*
X18130Y15856D2*
X18641Y15054D1*
X20058Y16586D2*
X19111D1*
Y15054D1*
X20058D1*
X19111Y15856D2*
X19694D1*
X20529Y16586D2*
Y15054D1*
X21039D1*
X21258Y15129D1*
X21405Y15273D1*
X21477Y15420D1*
X21550Y15637D1*
Y16003D1*
X21477Y16222D1*
X21405Y16367D1*
X21258Y16513D1*
X21039Y16586D1*
X20529D1*
X24523Y16367D2*
X24378Y16513D1*
X24159Y16586D1*
X23867D1*
X23648Y16513D1*
X23502Y16367D1*
Y16222D1*
X23576Y16075D1*
X23648Y16003D1*
X23793Y15930D1*
X24231Y15784D1*
X24378Y15711D1*
X24450Y15637D1*
X24523Y15492D1*
Y15273D1*
X24378Y15129D1*
X24159Y15054D1*
X23867D1*
X23648Y15129D1*
X23502Y15273D1*
X25504Y16586D2*
Y15054D1*
X24993Y16586D2*
X26014D1*
X26485Y15856D2*
X27140D1*
X27359Y15930D1*
X27433Y16003D1*
X27505Y16148D1*
Y16294D1*
X27433Y16439D1*
X27359Y16513D1*
X27140Y16586D1*
X26485D1*
Y15054D1*
X26995Y15856D2*
X27505Y15054D1*
X27976Y16586D2*
Y15054D1*
X28447Y15784D2*
X29104D1*
X29321Y15856D1*
X29395Y15930D1*
X29468Y16075D1*
Y16294D1*
X29395Y16439D1*
X29321Y16513D1*
X29104Y16586D1*
X28447D1*
Y15054D1*
X30885Y16586D2*
X29938D1*
Y15054D1*
X30885D1*
X29938Y15856D2*
X30521D1*
X123030D2*
X123685D1*
X123904Y15930D1*
X123978Y16003D1*
X124051Y16148D1*
Y16294D1*
X123978Y16439D1*
X123904Y16513D1*
X123685Y16586D1*
X123030D1*
Y15054D1*
X123540Y15856D2*
X124051Y15054D1*
X125468Y16586D2*
X124521D1*
Y15054D1*
X125468D1*
X124521Y15856D2*
X125104D1*
X125939Y16586D2*
Y15054D1*
X126449D1*
X126668Y15129D1*
X126815Y15273D1*
X126887Y15420D1*
X126960Y15637D1*
Y16003D1*
X126887Y16222D1*
X126815Y16367D1*
X126668Y16513D1*
X126449Y16586D1*
X125939D1*
X129933Y16367D2*
X129788Y16513D1*
X129569Y16586D1*
X129277D1*
X129058Y16513D1*
X128912Y16367D1*
Y16222D1*
X128986Y16075D1*
X129058Y16003D1*
X129203Y15930D1*
X129641Y15784D1*
X129788Y15711D1*
X129860Y15637D1*
X129933Y15492D1*
Y15273D1*
X129788Y15129D1*
X129569Y15054D1*
X129277D1*
X129058Y15129D1*
X128912Y15273D1*
X130914Y16586D2*
Y15054D1*
X130403Y16586D2*
X131424D1*
X131895Y15856D2*
X132550D1*
X132769Y15930D1*
X132843Y16003D1*
X132915Y16148D1*
Y16294D1*
X132843Y16439D1*
X132769Y16513D1*
X132550Y16586D1*
X131895D1*
Y15054D1*
X132405Y15856D2*
X132915Y15054D1*
X133386Y16586D2*
Y15054D1*
X133857Y15784D2*
X134514D1*
X134731Y15856D1*
X134805Y15930D1*
X134878Y16075D1*
Y16294D1*
X134805Y16439D1*
X134731Y16513D1*
X134514Y16586D1*
X133857D1*
Y15054D1*
X136295Y16586D2*
X135348D1*
Y15054D1*
X136295D1*
X135348Y15856D2*
X135931D1*
X19485Y57345D2*
D65*
Y58621D1*
X18999Y57345D1*
X18514Y58621D1*
Y57345D1*
X20242Y58621D2*
X20120Y58561D1*
X19999Y58439D1*
X19938Y58318D1*
X19877Y58135D1*
Y57831D1*
X19938Y57650D1*
X19999Y57528D1*
X20120Y57407D1*
X20242Y57345D1*
X20485D1*
X20606Y57407D1*
X20728Y57528D1*
X20788Y57650D1*
X20849Y57831D1*
Y58135D1*
X20788Y58318D1*
X20728Y58439D1*
X20606Y58561D1*
X20485Y58621D1*
X20242D1*
X21241Y58013D2*
X21787D1*
X21970Y58075D1*
X22031Y58135D1*
X22092Y58256D1*
Y58378D1*
X22031Y58499D1*
X21970Y58561D1*
X21787Y58621D1*
X21241D1*
Y57345D1*
X21666Y58013D2*
X22092Y57345D1*
X23457D2*
X22970Y58621D1*
X22484Y57345D1*
X22666Y57770D2*
X23274D1*
X23849Y58621D2*
X24335Y58013D1*
Y57345D1*
X24820Y58621D2*
X24335Y58013D1*
X25212Y58621D2*
Y57345D1*
X25638D1*
X25820Y57407D1*
X25942Y57528D1*
X26003Y57650D1*
X26063Y57831D1*
Y58135D1*
X26003Y58318D1*
X25942Y58439D1*
X25820Y58561D1*
X25638Y58621D1*
X25212D1*
X26455D2*
Y57710D1*
X26516Y57528D1*
X26638Y57407D1*
X26820Y57345D1*
X26941D1*
X27124Y57407D1*
X27246Y57528D1*
X27306Y57710D1*
Y58621D1*
X27698D2*
Y57345D1*
X28427D1*
X29792D2*
X29305Y58621D1*
X28819Y57345D1*
X29001Y57770D2*
X29609D1*
X30184Y58013D2*
X30730D1*
X30913Y58075D1*
X30974Y58135D1*
X31035Y58256D1*
Y58378D1*
X30974Y58499D1*
X30913Y58561D1*
X30730Y58621D1*
X30184D1*
Y57345D1*
X30609Y58013D2*
X31035Y57345D1*
X32661Y57953D2*
X33209D1*
X33390Y58013D1*
X33452Y58075D1*
X33512Y58196D1*
Y58378D1*
X33452Y58499D1*
X33390Y58561D1*
X33209Y58621D1*
X32661D1*
Y57345D1*
X34269Y58621D2*
X34147Y58561D1*
X34026Y58439D1*
X33965Y58318D1*
X33904Y58135D1*
Y57831D1*
X33965Y57650D1*
X34026Y57528D1*
X34147Y57407D1*
X34269Y57345D1*
X34512D1*
X34633Y57407D1*
X34755Y57528D1*
X34815Y57650D1*
X34876Y57831D1*
Y58135D1*
X34815Y58318D1*
X34755Y58439D1*
X34633Y58561D1*
X34512Y58621D1*
X34269D1*
X35268D2*
X35572Y57345D1*
X35876Y58621D1*
X36179Y57345D1*
X36484Y58621D1*
X37665D2*
X36876D1*
Y57345D1*
X37665D1*
X36876Y58013D2*
X37361D1*
X38057D2*
X38603D1*
X38785Y58075D1*
X38847Y58135D1*
X38908Y58256D1*
Y58378D1*
X38847Y58499D1*
X38785Y58561D1*
X38603Y58621D1*
X38057D1*
Y57345D1*
X38482Y58013D2*
X38908Y57345D1*
X40534Y58621D2*
Y57345D1*
X41082D1*
X41264Y57407D1*
X41325Y57467D1*
X41385Y57588D1*
Y57770D1*
X41325Y57893D1*
X41264Y57953D1*
X41082Y58013D1*
X41264Y58075D1*
X41325Y58135D1*
X41385Y58256D1*
Y58378D1*
X41325Y58499D1*
X41264Y58561D1*
X41082Y58621D1*
X40534D1*
Y58013D2*
X41082D1*
X41777Y58621D2*
Y57710D1*
X41837Y57528D1*
X41960Y57407D1*
X42142Y57345D1*
X42263D1*
X42445Y57407D1*
X42567Y57528D1*
X42628Y57710D1*
Y58621D1*
X43871Y58439D2*
X43750Y58561D1*
X43567Y58621D1*
X43325D1*
X43142Y58561D1*
X43020Y58439D1*
Y58318D1*
X43082Y58196D1*
X43142Y58135D1*
X43263Y58075D1*
X43628Y57953D1*
X43750Y57893D1*
X43810Y57831D1*
X43871Y57710D1*
Y57528D1*
X43750Y57407D1*
X43567Y57345D1*
X43325D1*
X43142Y57407D1*
X43020Y57528D1*
X45497Y58621D2*
X45983Y57345D1*
X46469Y58621D1*
X46861Y58377D2*
X46983Y58439D1*
X47166Y58620D1*
Y57345D1*
X197048Y41489D2*
D67*
Y40614D1*
X196612Y41051D2*
X197486D1*
X198383Y41561D2*
X197898D1*
X197850Y41124D1*
X197898Y41173D1*
X198044Y41222D1*
X198189D1*
X198335Y41173D1*
X198432Y41076D1*
X198481Y40930D1*
Y40833D1*
X198432Y40687D1*
X198335Y40590D1*
X198189Y40541D1*
X198044D1*
X197898Y40590D1*
X197850Y40639D1*
X197800Y40736D1*
X198794Y41562D2*
X199183Y40541D1*
X199572Y41562D1*
X196472Y37620D2*
Y36745D1*
X196035Y37182D2*
X196910D1*
X197224Y37498D2*
X197322Y37547D1*
X197468Y37692D1*
Y36673D1*
X197831Y37450D2*
Y37498D1*
X197879Y37596D1*
X197927Y37644D1*
X198025Y37692D1*
X198219D1*
X198316Y37644D1*
X198364Y37596D1*
X198414Y37498D1*
Y37401D1*
X198364Y37304D1*
X198268Y37159D1*
X197781Y36673D1*
X198462D1*
X198776Y37693D2*
X199164Y36673D1*
X199553Y37693D1*
X198232Y33565D2*
X198086Y33517D1*
X197989Y33371D1*
X197940Y33128D1*
Y32982D1*
X197989Y32739D1*
X198086Y32593D1*
X198232Y32545D1*
X198329D1*
X198475Y32593D1*
X198572Y32739D1*
X198621Y32982D1*
Y33128D1*
X198572Y33371D1*
X198475Y33517D1*
X198329Y33565D1*
X198232D1*
X198572Y33371D2*
X197989Y32739D1*
X198935Y33566D2*
X199323Y32545D1*
X199712Y33566D1*
X196353Y28927D2*
X196914D1*
X197228Y29243D2*
X197326Y29292D1*
X197472Y29437D1*
Y28418D1*
X197835Y29195D2*
Y29243D1*
X197883Y29341D1*
X197932Y29389D1*
X198029Y29437D1*
X198224D1*
X198320Y29389D1*
X198368Y29341D1*
X198418Y29243D1*
Y29146D1*
X198368Y29049D1*
X198272Y28904D1*
X197786Y28418D1*
X198466D1*
X198780Y29438D2*
X199168Y28418D1*
X199557Y29438D1*
X178940Y57770D2*
Y57818D1*
X178988Y57916D1*
X179036Y57964D1*
X179134Y58012D1*
X179328D1*
X179425Y57964D1*
X179473Y57916D1*
X179523Y57818D1*
Y57721D1*
X179473Y57624D1*
X179377Y57479D1*
X178890Y56993D1*
X179571D1*
X179934Y57770D2*
Y57818D1*
X179982Y57916D1*
X180031Y57964D1*
X180128Y58012D1*
X180323D1*
X180419Y57964D1*
X180468Y57916D1*
X180517Y57818D1*
Y57721D1*
X180468Y57624D1*
X180371Y57479D1*
X179885Y56993D1*
X180565D1*
X181171Y58012D2*
X181025Y57964D1*
X180927Y57818D1*
X180879Y57575D1*
Y57429D1*
X180927Y57187D1*
X181025Y57041D1*
X181171Y56993D1*
X181268D1*
X181414Y57041D1*
X181510Y57187D1*
X181560Y57429D1*
Y57575D1*
X181510Y57818D1*
X181414Y57964D1*
X181268Y58012D1*
X181171D1*
X181510Y57818D2*
X180927Y57187D1*
X181873Y57527D2*
X182310D1*
X182456Y57577D1*
X182506Y57625D1*
X182554Y57721D1*
Y57819D1*
X182506Y57916D1*
X182456Y57965D1*
X182310Y58013D1*
X181873D1*
Y56993D1*
X182214Y57527D2*
X182554Y56993D1*
X179863Y54508D2*
D65*
X179985Y54570D1*
X180167Y54751D1*
Y53476D1*
X180559Y54752D2*
Y53476D1*
X181410Y54752D2*
X180559Y53902D1*
X180863Y54206D2*
X181410Y53476D1*
X179863Y51016D2*
X179985Y51077D1*
X180167Y51258D1*
Y49984D1*
X180559Y51260D2*
Y49984D1*
X181410Y51260D2*
X180559Y50409D1*
X180863Y50714D2*
X181410Y49984D1*
M02*
