G04 DipTrace 2.4.0.2*
%INbusboard_12_place_ext_workfinal.GBL*%
%MOMM*%
%ADD13C,2.032*%
%ADD14C,1.524*%
%ADD15C,2.54*%
%ADD16C,0.508*%
%ADD17C,1.8*%
%ADD18C,1.5*%
%ADD19C,3.048*%
%ADD20C,1.6*%
%ADD21C,1.016*%
%ADD22C,0.635*%
%ADD24R,1.524X1.524*%
%ADD25C,1.27*%
%ADD26R,1.27X1.27*%
%ADD28R,1.5X1.5*%
%ADD29C,1.5*%
%ADD30R,1.6X1.6*%
%ADD31C,1.6*%
%ADD32R,1.8X1.8*%
%ADD33C,1.8*%
%ADD34C,3.048*%
%ADD35C,1.524*%
%FSLAX53Y53*%
G04*
G71*
G90*
G75*
G01*
%LNBottom*%
%LPD*%
X99535Y30320D2*
D13*
X104535D1*
X112235D1*
X117235D1*
X121760D1*
D14*
X125570Y34130D1*
D13*
X126840D1*
X99535Y30320D2*
X98900D1*
X95090Y34130D1*
X90886D1*
X87470D1*
X84930D1*
X74770D1*
X72230D1*
X62070D1*
X59530D1*
X49370D1*
X46830D1*
X36670D1*
X34130D1*
X23970D1*
X21430D1*
X126840D2*
X129380D1*
X139540D1*
X142080D1*
X152240D1*
X154780D1*
X164940D1*
X167480D1*
X177640D1*
X180180D1*
X190340D1*
X192880D1*
X21430D2*
X18890D1*
X192880D2*
D14*
X194658D1*
D13*
X199865D1*
X203040Y37305D1*
D15*
X204475D1*
D13*
X204628Y37153D1*
X185895Y54133D2*
D16*
X183355Y51593D1*
Y49688D1*
X185895Y47148D1*
X203358D1*
X207485Y43020D1*
Y38893D1*
X205745Y37153D1*
X204628D1*
X94455Y35463D2*
D17*
Y35405D1*
D13*
X98900Y30960D1*
Y30320D1*
X94455Y35463D2*
D14*
X92218D1*
X90886Y34130D1*
X94455Y35463D2*
D18*
X96678D1*
Y33178D1*
X99535Y30320D1*
Y37940D2*
D13*
X104535D1*
X112235D1*
X117235D1*
X99535D2*
D14*
X91280D1*
X90010Y36670D1*
X87470D1*
X117235Y37940D2*
X123030D1*
X124300Y36670D1*
X126840D1*
X87470D2*
X84930D1*
X74770D1*
X72230D1*
X62070D1*
X59530D1*
X49370D1*
X46830D1*
X36670D1*
X34130D1*
X23970D1*
X21430D1*
X126840D2*
X129380D1*
X139540D1*
X142080D1*
X152240D1*
X154780D1*
X164940D1*
X167480D1*
X177640D1*
X180180D1*
X190340D1*
X192880D1*
X118205Y47783D2*
X118268Y47845D1*
Y53815D1*
X204628Y41115D2*
X200500D1*
X196055Y36670D1*
X192880D1*
X185895Y57625D2*
D16*
X185578D1*
X181450Y53498D1*
Y48418D1*
X184943Y44925D1*
X200818D1*
X204628Y41115D1*
X118268Y53815D2*
D14*
Y42385D1*
Y38973D1*
X117235Y37940D1*
X98900Y15080D2*
D13*
X103900D1*
X112870D1*
X117870D1*
X98900D2*
X90010Y23970D1*
D14*
X87470D1*
X117870Y15080D2*
D13*
X126760Y23970D1*
D14*
X126840D1*
X129380D1*
X139540D1*
X142080D1*
X152240D1*
X154780D1*
X164940D1*
X167480D1*
X177640D1*
X180180D1*
X190340D1*
X192880D1*
X87470D2*
X84930D1*
X74770D1*
X72230D1*
X62070D1*
X59530D1*
X49370D1*
X46830D1*
X36670D1*
X34130D1*
X23970D1*
X21430D1*
X192880D2*
X193515D1*
D13*
X204628D1*
D19*
Y29228D1*
X185895Y50640D2*
D16*
X202723D1*
X208755Y44608D1*
Y32542D1*
X205034Y28821D1*
X204628Y29228D1*
X126840Y39210D2*
D21*
X129380D1*
X139540D1*
X142080D1*
X152240D1*
X154780D1*
X164940D1*
X167480D1*
X177640D1*
X180180D1*
X190340D1*
X192880D1*
X92550Y52863D2*
Y53498D1*
X95408Y56355D1*
X123665D1*
X124300Y55720D1*
Y40480D1*
X125570Y39210D1*
X126840D1*
X175735Y54133D2*
D16*
X174465D1*
X173195Y55403D1*
X164305D1*
X162083Y53180D1*
X21430Y39210D2*
D21*
X23970D1*
X34130D1*
X36670D1*
X46830D1*
X49370D1*
X59530D1*
X62070D1*
X72230D1*
X74770D1*
X84930D1*
X87470D1*
X88740D1*
X90010Y40480D1*
Y52863D1*
X21430Y41750D2*
X23970D1*
X34130D1*
X36670D1*
X46830D1*
X49370D1*
X59530D1*
X62070D1*
X72230D1*
X74770D1*
X84930D1*
X87470D1*
X82390Y52863D2*
Y48418D1*
X87153Y43655D1*
Y42068D1*
X87470Y41750D1*
X126840D2*
X129380D1*
X139540D1*
X142080D1*
X152240D1*
X154780D1*
X164940D1*
X167480D1*
X177640D1*
X180180D1*
X190340D1*
X192880D1*
X84930Y52863D2*
X85883D1*
X91598Y58578D1*
X125253D1*
X126840Y56990D1*
Y41750D1*
X175735Y57625D2*
D16*
X155733D1*
X154145Y56038D1*
Y53180D1*
X94455Y46513D2*
D18*
X101123D1*
D14*
X105568D1*
X112870Y53815D1*
X113188D1*
X107155Y47783D2*
X113188Y53815D1*
X101123Y46513D2*
X105885D1*
X107155Y47783D1*
X175735Y50640D2*
D16*
X170020D1*
X167480Y53180D1*
X11651Y25561D2*
D22*
X19764D1*
X25636D2*
X32464D1*
X38336D2*
X45164D1*
X51036D2*
X57864D1*
X63736D2*
X70564D1*
X76436D2*
X83264D1*
X89136D2*
X125174D1*
X131046D2*
X137874D1*
X143746D2*
X150574D1*
X156446D2*
X163274D1*
X169146D2*
X175974D1*
X181846D2*
X188674D1*
X194546D2*
X208379D1*
X11651Y24929D2*
X19764D1*
X25636D2*
X32464D1*
X38336D2*
X45164D1*
X51036D2*
X57864D1*
X63736D2*
X70564D1*
X76436D2*
X83264D1*
X89136D2*
X97383D1*
X101687D2*
X102384D1*
X106688D2*
X110083D1*
X114387D2*
X115084D1*
X119388D2*
X125174D1*
X131046D2*
X137874D1*
X143746D2*
X150574D1*
X156446D2*
X163274D1*
X169146D2*
X175974D1*
X181846D2*
X188674D1*
X194546D2*
X208379D1*
X11651Y24298D2*
X19526D1*
X25874D2*
X32226D1*
X38574D2*
X44926D1*
X51274D2*
X57626D1*
X63974D2*
X70326D1*
X76674D2*
X83026D1*
X89374D2*
X96470D1*
X107601D2*
X109170D1*
X120301D2*
X124936D1*
X131284D2*
X137636D1*
X143984D2*
X150336D1*
X156684D2*
X163036D1*
X169384D2*
X175736D1*
X182084D2*
X188436D1*
X194784D2*
X208379D1*
X11651Y23666D2*
X19526D1*
X25874D2*
X32226D1*
X38574D2*
X44926D1*
X51274D2*
X57626D1*
X63974D2*
X70326D1*
X76674D2*
X83026D1*
X89374D2*
X96044D1*
X108027D2*
X108744D1*
X120727D2*
X124936D1*
X131284D2*
X137636D1*
X143984D2*
X150336D1*
X156684D2*
X163036D1*
X169384D2*
X175736D1*
X182084D2*
X188436D1*
X194784D2*
X208379D1*
X11651Y23034D2*
X19754D1*
X25646D2*
X32454D1*
X38346D2*
X45154D1*
X51046D2*
X57854D1*
X63746D2*
X70554D1*
X76446D2*
X83254D1*
X89146D2*
X95855D1*
X108216D2*
X108559D1*
X120916D2*
X125164D1*
X131056D2*
X137864D1*
X143756D2*
X150564D1*
X156456D2*
X163264D1*
X169156D2*
X175964D1*
X181856D2*
X188664D1*
X194556D2*
X208379D1*
X11651Y22403D2*
X20350D1*
X22511D2*
X22892D1*
X25051D2*
X33050D1*
X35211D2*
X35592D1*
X37751D2*
X45750D1*
X47911D2*
X48292D1*
X50451D2*
X58450D1*
X60611D2*
X60992D1*
X63151D2*
X71150D1*
X73311D2*
X73692D1*
X75851D2*
X83850D1*
X86011D2*
X86392D1*
X88551D2*
X95845D1*
X108226D2*
X108543D1*
X120926D2*
X125760D1*
X127921D2*
X128302D1*
X130461D2*
X138460D1*
X140621D2*
X141002D1*
X143161D2*
X151160D1*
X153321D2*
X153702D1*
X155861D2*
X163860D1*
X166021D2*
X166402D1*
X168561D2*
X176560D1*
X178721D2*
X179102D1*
X181261D2*
X189260D1*
X191421D2*
X191802D1*
X193961D2*
X208379D1*
X11651Y21771D2*
X96034D1*
X108037D2*
X108734D1*
X120737D2*
X208379D1*
X11651Y21139D2*
X96440D1*
X107630D2*
X109140D1*
X120330D2*
X208379D1*
X11651Y20508D2*
X97294D1*
X101776D2*
X102294D1*
X106777D2*
X109994D1*
X114476D2*
X114994D1*
X119477D2*
X208379D1*
X11651Y19876D2*
X208379D1*
X11651Y19244D2*
X208379D1*
X11651Y18613D2*
X208379D1*
X11651Y17981D2*
X208379D1*
X11651Y17349D2*
X96887D1*
X100923D2*
X101878D1*
X105924D2*
X110857D1*
X114893D2*
X115848D1*
X119894D2*
X208379D1*
X11651Y16718D2*
X12144D1*
X15476D2*
X74374D1*
X77706D2*
X95865D1*
X106936D2*
X109835D1*
X120906D2*
X142319D1*
X145651D2*
X204549D1*
X207881D2*
X208379D1*
X16289Y16086D2*
X73561D1*
X78519D2*
X95428D1*
X107372D2*
X109398D1*
X121342D2*
X141506D1*
X146464D2*
X203736D1*
X16756Y15454D2*
X73094D1*
X78986D2*
X95220D1*
X107581D2*
X109190D1*
X121551D2*
X141039D1*
X146931D2*
X203269D1*
X17034Y14823D2*
X72816D1*
X79264D2*
X95210D1*
X107591D2*
X109180D1*
X121561D2*
X140761D1*
X147209D2*
X202991D1*
X17173Y14191D2*
X72677D1*
X79403D2*
X95389D1*
X107412D2*
X109359D1*
X121382D2*
X140622D1*
X147348D2*
X202852D1*
X17182Y13559D2*
X72668D1*
X79412D2*
X95766D1*
X107035D2*
X109736D1*
X121005D2*
X140613D1*
X147357D2*
X202843D1*
X17073Y12928D2*
X72777D1*
X79303D2*
X96589D1*
X101221D2*
X101591D1*
X106211D2*
X110559D1*
X115191D2*
X115561D1*
X120181D2*
X140722D1*
X147248D2*
X202952D1*
X16825Y12296D2*
X73025D1*
X79055D2*
X140970D1*
X147000D2*
X203200D1*
X16409Y11664D2*
X73441D1*
X78639D2*
X141386D1*
X146584D2*
X203616D1*
X131217Y26184D2*
X131140Y25887D1*
X131009Y25598D1*
X130742Y25243D1*
X130918Y25029D1*
X131075Y24753D1*
X131183Y24455D1*
X131239Y24143D1*
X131237Y23780D1*
X131178Y23468D1*
X131067Y23171D1*
X130908Y22897D1*
X130704Y22654D1*
X130462Y22449D1*
X130189Y22288D1*
X129893Y22175D1*
X129582Y22114D1*
X129265Y22107D1*
X128951Y22153D1*
X128650Y22252D1*
X128369Y22400D1*
X128111Y22601D1*
X127816Y22379D1*
X127533Y22237D1*
X127230Y22144D1*
X126915Y22105D1*
X126598Y22119D1*
X126288Y22186D1*
X125994Y22306D1*
X125725Y22473D1*
X125488Y22683D1*
X125289Y22930D1*
X125136Y23208D1*
X125031Y23507D1*
X124979Y23820D1*
X124981Y24137D1*
X125036Y24450D1*
X125143Y24748D1*
X125299Y25024D1*
X125471Y25239D1*
X125289Y25470D1*
X125136Y25748D1*
X125031Y26047D1*
X125007Y26194D1*
X89306Y26193D1*
X89230Y25887D1*
X89099Y25598D1*
X88832Y25243D1*
X89008Y25029D1*
X89165Y24753D1*
X89273Y24455D1*
X89329Y24143D1*
X89327Y23780D1*
X89268Y23468D1*
X89157Y23171D1*
X88998Y22897D1*
X88794Y22654D1*
X88552Y22449D1*
X88279Y22288D1*
X87983Y22175D1*
X87672Y22114D1*
X87355Y22107D1*
X87041Y22153D1*
X86740Y22252D1*
X86459Y22400D1*
X86201Y22601D1*
X85906Y22379D1*
X85623Y22237D1*
X85320Y22144D1*
X85005Y22105D1*
X84688Y22119D1*
X84378Y22186D1*
X84084Y22306D1*
X83815Y22473D1*
X83578Y22683D1*
X83379Y22930D1*
X83226Y23208D1*
X83121Y23507D1*
X83069Y23820D1*
X83071Y24137D1*
X83126Y24450D1*
X83233Y24748D1*
X83389Y25024D1*
X83561Y25239D1*
X83379Y25470D1*
X83226Y25748D1*
X83121Y26047D1*
X83097Y26194D1*
X76606Y26193D1*
X76530Y25887D1*
X76399Y25598D1*
X76132Y25243D1*
X76308Y25029D1*
X76465Y24753D1*
X76573Y24455D1*
X76629Y24143D1*
X76627Y23780D1*
X76568Y23468D1*
X76457Y23171D1*
X76298Y22897D1*
X76094Y22654D1*
X75852Y22449D1*
X75579Y22288D1*
X75283Y22175D1*
X74972Y22114D1*
X74655Y22107D1*
X74341Y22153D1*
X74040Y22252D1*
X73759Y22400D1*
X73501Y22601D1*
X73206Y22379D1*
X72923Y22237D1*
X72620Y22144D1*
X72305Y22105D1*
X71988Y22119D1*
X71678Y22186D1*
X71384Y22306D1*
X71115Y22473D1*
X70878Y22683D1*
X70679Y22930D1*
X70526Y23208D1*
X70421Y23507D1*
X70369Y23820D1*
X70371Y24137D1*
X70426Y24450D1*
X70533Y24748D1*
X70689Y25024D1*
X70861Y25239D1*
X70679Y25470D1*
X70526Y25748D1*
X70421Y26047D1*
X70397Y26194D1*
X63906Y26193D1*
X63830Y25887D1*
X63699Y25598D1*
X63432Y25243D1*
X63608Y25029D1*
X63765Y24753D1*
X63873Y24455D1*
X63929Y24143D1*
X63927Y23780D1*
X63868Y23468D1*
X63757Y23171D1*
X63598Y22897D1*
X63394Y22654D1*
X63152Y22449D1*
X62879Y22288D1*
X62583Y22175D1*
X62272Y22114D1*
X61955Y22107D1*
X61641Y22153D1*
X61340Y22252D1*
X61059Y22400D1*
X60801Y22601D1*
X60506Y22379D1*
X60223Y22237D1*
X59920Y22144D1*
X59605Y22105D1*
X59288Y22119D1*
X58978Y22186D1*
X58684Y22306D1*
X58415Y22473D1*
X58178Y22683D1*
X57979Y22930D1*
X57826Y23208D1*
X57721Y23507D1*
X57669Y23820D1*
X57671Y24137D1*
X57726Y24450D1*
X57833Y24748D1*
X57989Y25024D1*
X58161Y25239D1*
X57979Y25470D1*
X57826Y25748D1*
X57721Y26047D1*
X57697Y26194D1*
X51206Y26193D1*
X51130Y25887D1*
X50999Y25598D1*
X50732Y25243D1*
X50908Y25029D1*
X51065Y24753D1*
X51173Y24455D1*
X51229Y24143D1*
X51227Y23780D1*
X51168Y23468D1*
X51057Y23171D1*
X50898Y22897D1*
X50694Y22654D1*
X50452Y22449D1*
X50179Y22288D1*
X49883Y22175D1*
X49572Y22114D1*
X49255Y22107D1*
X48941Y22153D1*
X48640Y22252D1*
X48359Y22400D1*
X48101Y22601D1*
X47806Y22379D1*
X47523Y22237D1*
X47220Y22144D1*
X46905Y22105D1*
X46588Y22119D1*
X46278Y22186D1*
X45984Y22306D1*
X45715Y22473D1*
X45478Y22683D1*
X45279Y22930D1*
X45126Y23208D1*
X45021Y23507D1*
X44969Y23820D1*
X44971Y24137D1*
X45026Y24450D1*
X45133Y24748D1*
X45289Y25024D1*
X45461Y25239D1*
X45279Y25470D1*
X45126Y25748D1*
X45021Y26047D1*
X44997Y26194D1*
X38506Y26193D1*
X38430Y25887D1*
X38299Y25598D1*
X38032Y25243D1*
X38208Y25029D1*
X38365Y24753D1*
X38473Y24455D1*
X38529Y24143D1*
X38527Y23780D1*
X38468Y23468D1*
X38357Y23171D1*
X38198Y22897D1*
X37994Y22654D1*
X37752Y22449D1*
X37479Y22288D1*
X37183Y22175D1*
X36872Y22114D1*
X36555Y22107D1*
X36241Y22153D1*
X35940Y22252D1*
X35659Y22400D1*
X35401Y22601D1*
X35106Y22379D1*
X34823Y22237D1*
X34520Y22144D1*
X34205Y22105D1*
X33888Y22119D1*
X33578Y22186D1*
X33284Y22306D1*
X33015Y22473D1*
X32778Y22683D1*
X32579Y22930D1*
X32426Y23208D1*
X32321Y23507D1*
X32269Y23820D1*
X32271Y24137D1*
X32326Y24450D1*
X32433Y24748D1*
X32589Y25024D1*
X32761Y25239D1*
X32579Y25470D1*
X32426Y25748D1*
X32321Y26047D1*
X32297Y26194D1*
X25806Y26193D1*
X25730Y25887D1*
X25599Y25598D1*
X25332Y25243D1*
X25508Y25029D1*
X25665Y24753D1*
X25773Y24455D1*
X25829Y24143D1*
X25827Y23780D1*
X25768Y23468D1*
X25657Y23171D1*
X25498Y22897D1*
X25294Y22654D1*
X25052Y22449D1*
X24779Y22288D1*
X24483Y22175D1*
X24172Y22114D1*
X23855Y22107D1*
X23541Y22153D1*
X23240Y22252D1*
X22959Y22400D1*
X22701Y22601D1*
X22406Y22379D1*
X22123Y22237D1*
X21820Y22144D1*
X21505Y22105D1*
X21188Y22119D1*
X20878Y22186D1*
X20584Y22306D1*
X20315Y22473D1*
X20078Y22683D1*
X19879Y22930D1*
X19726Y23208D1*
X19621Y23507D1*
X19569Y23820D1*
X19571Y24137D1*
X19626Y24450D1*
X19733Y24748D1*
X19889Y25024D1*
X20061Y25239D1*
X19879Y25470D1*
X19726Y25748D1*
X19621Y26047D1*
X19597Y26194D1*
X11588Y26193D1*
Y16281D1*
X11932Y16549D1*
X12486Y16856D1*
X13089Y17052D1*
X13718Y17130D1*
X14351Y17086D1*
X14964Y16924D1*
X15535Y16648D1*
X16043Y16268D1*
X16469Y15799D1*
X16799Y15258D1*
X17019Y14663D1*
X17123Y14038D1*
X17116Y13493D1*
X16995Y12871D1*
X16759Y12282D1*
X16414Y11750D1*
X16278Y11593D1*
X21113Y11588D1*
X73569D1*
X73227Y12046D1*
X72943Y12612D1*
X72771Y13223D1*
X72719Y13855D1*
X72789Y14485D1*
X72976Y15091D1*
X73275Y15650D1*
X73675Y16142D1*
X74162Y16549D1*
X74716Y16856D1*
X75319Y17052D1*
X75948Y17130D1*
X76581Y17086D1*
X77194Y16924D1*
X77765Y16648D1*
X78273Y16268D1*
X78699Y15799D1*
X79029Y15258D1*
X79249Y14663D1*
X79353Y14038D1*
X79346Y13493D1*
X79225Y12871D1*
X78989Y12282D1*
X78644Y11750D1*
X78508Y11593D1*
X83343Y11588D1*
X141514D1*
X141172Y12046D1*
X140888Y12612D1*
X140716Y13223D1*
X140664Y13855D1*
X140734Y14485D1*
X140921Y15091D1*
X141220Y15650D1*
X141620Y16142D1*
X142107Y16549D1*
X142661Y16856D1*
X143264Y17052D1*
X143893Y17130D1*
X144526Y17086D1*
X145139Y16924D1*
X145710Y16648D1*
X146218Y16268D1*
X146644Y15799D1*
X146974Y15258D1*
X147194Y14663D1*
X147298Y14038D1*
X147291Y13493D1*
X147170Y12871D1*
X146934Y12282D1*
X146589Y11750D1*
X146453Y11593D1*
X151288Y11588D1*
X203744D1*
X203402Y12046D1*
X203118Y12612D1*
X202946Y13223D1*
X202894Y13855D1*
X202964Y14485D1*
X203151Y15091D1*
X203450Y15650D1*
X203850Y16142D1*
X204337Y16549D1*
X204891Y16856D1*
X205494Y17052D1*
X206123Y17130D1*
X206756Y17086D1*
X207369Y16924D1*
X207940Y16648D1*
X208440Y16275D1*
X208438Y26193D1*
X194716D1*
X194640Y25887D1*
X194509Y25598D1*
X194242Y25243D1*
X194418Y25029D1*
X194575Y24753D1*
X194683Y24455D1*
X194739Y24143D1*
X194737Y23780D1*
X194678Y23468D1*
X194567Y23171D1*
X194408Y22897D1*
X194204Y22654D1*
X193962Y22449D1*
X193689Y22288D1*
X193393Y22175D1*
X193082Y22114D1*
X192765Y22107D1*
X192451Y22153D1*
X192150Y22252D1*
X191869Y22400D1*
X191611Y22601D1*
X191316Y22379D1*
X191033Y22237D1*
X190730Y22144D1*
X190415Y22105D1*
X190098Y22119D1*
X189788Y22186D1*
X189494Y22306D1*
X189225Y22473D1*
X188988Y22683D1*
X188789Y22930D1*
X188636Y23208D1*
X188531Y23507D1*
X188479Y23820D1*
X188481Y24137D1*
X188536Y24450D1*
X188643Y24748D1*
X188799Y25024D1*
X188971Y25239D1*
X188789Y25470D1*
X188636Y25748D1*
X188531Y26047D1*
X188507Y26194D1*
X182016Y26193D1*
X181940Y25887D1*
X181809Y25598D1*
X181542Y25243D1*
X181718Y25029D1*
X181875Y24753D1*
X181983Y24455D1*
X182039Y24143D1*
X182037Y23780D1*
X181978Y23468D1*
X181867Y23171D1*
X181708Y22897D1*
X181504Y22654D1*
X181262Y22449D1*
X180989Y22288D1*
X180693Y22175D1*
X180382Y22114D1*
X180065Y22107D1*
X179751Y22153D1*
X179450Y22252D1*
X179169Y22400D1*
X178911Y22601D1*
X178616Y22379D1*
X178333Y22237D1*
X178030Y22144D1*
X177715Y22105D1*
X177398Y22119D1*
X177088Y22186D1*
X176794Y22306D1*
X176525Y22473D1*
X176288Y22683D1*
X176089Y22930D1*
X175936Y23208D1*
X175831Y23507D1*
X175779Y23820D1*
X175781Y24137D1*
X175836Y24450D1*
X175943Y24748D1*
X176099Y25024D1*
X176271Y25239D1*
X176089Y25470D1*
X175936Y25748D1*
X175831Y26047D1*
X175807Y26194D1*
X169316Y26193D1*
X169240Y25887D1*
X169109Y25598D1*
X168842Y25243D1*
X169018Y25029D1*
X169175Y24753D1*
X169283Y24455D1*
X169339Y24143D1*
X169337Y23780D1*
X169278Y23468D1*
X169167Y23171D1*
X169008Y22897D1*
X168804Y22654D1*
X168562Y22449D1*
X168289Y22288D1*
X167993Y22175D1*
X167682Y22114D1*
X167365Y22107D1*
X167051Y22153D1*
X166750Y22252D1*
X166469Y22400D1*
X166211Y22601D1*
X165916Y22379D1*
X165633Y22237D1*
X165330Y22144D1*
X165015Y22105D1*
X164698Y22119D1*
X164388Y22186D1*
X164094Y22306D1*
X163825Y22473D1*
X163588Y22683D1*
X163389Y22930D1*
X163236Y23208D1*
X163131Y23507D1*
X163079Y23820D1*
X163081Y24137D1*
X163136Y24450D1*
X163243Y24748D1*
X163399Y25024D1*
X163571Y25239D1*
X163389Y25470D1*
X163236Y25748D1*
X163131Y26047D1*
X163107Y26194D1*
X156616Y26193D1*
X156540Y25887D1*
X156409Y25598D1*
X156142Y25243D1*
X156318Y25029D1*
X156475Y24753D1*
X156583Y24455D1*
X156639Y24143D1*
X156637Y23780D1*
X156578Y23468D1*
X156467Y23171D1*
X156308Y22897D1*
X156104Y22654D1*
X155862Y22449D1*
X155589Y22288D1*
X155293Y22175D1*
X154982Y22114D1*
X154665Y22107D1*
X154351Y22153D1*
X154050Y22252D1*
X153769Y22400D1*
X153511Y22601D1*
X153216Y22379D1*
X152933Y22237D1*
X152630Y22144D1*
X152315Y22105D1*
X151998Y22119D1*
X151688Y22186D1*
X151394Y22306D1*
X151125Y22473D1*
X150888Y22683D1*
X150689Y22930D1*
X150536Y23208D1*
X150431Y23507D1*
X150379Y23820D1*
X150381Y24137D1*
X150436Y24450D1*
X150543Y24748D1*
X150699Y25024D1*
X150871Y25239D1*
X150689Y25470D1*
X150536Y25748D1*
X150431Y26047D1*
X150407Y26194D1*
X143916Y26193D1*
X143840Y25887D1*
X143709Y25598D1*
X143442Y25243D1*
X143618Y25029D1*
X143775Y24753D1*
X143883Y24455D1*
X143939Y24143D1*
X143937Y23780D1*
X143878Y23468D1*
X143767Y23171D1*
X143608Y22897D1*
X143404Y22654D1*
X143162Y22449D1*
X142889Y22288D1*
X142593Y22175D1*
X142282Y22114D1*
X141965Y22107D1*
X141651Y22153D1*
X141350Y22252D1*
X141069Y22400D1*
X140811Y22601D1*
X140516Y22379D1*
X140233Y22237D1*
X139930Y22144D1*
X139615Y22105D1*
X139298Y22119D1*
X138988Y22186D1*
X138694Y22306D1*
X138425Y22473D1*
X138188Y22683D1*
X137989Y22930D1*
X137836Y23208D1*
X137731Y23507D1*
X137679Y23820D1*
X137681Y24137D1*
X137736Y24450D1*
X137843Y24748D1*
X137999Y25024D1*
X138171Y25239D1*
X137989Y25470D1*
X137836Y25748D1*
X137731Y26047D1*
X137707Y26194D1*
X131216Y26193D1*
X101284Y25008D2*
X101716Y24889D1*
X102037Y24709D1*
X102276Y24849D1*
X102637Y24981D1*
X103264Y25075D1*
X105995Y25058D1*
X106429Y24982D1*
X106790Y24851D1*
X107172Y24631D1*
X107466Y24385D1*
X107750Y24047D1*
X107942Y23715D1*
X108093Y23300D1*
X108160Y22923D1*
X108161Y22482D1*
X108095Y22104D1*
X107944Y21689D1*
X107752Y21357D1*
X107469Y21018D1*
X107175Y20771D1*
X106794Y20551D1*
X106433Y20419D1*
X105806Y20325D1*
X103075Y20342D1*
X102641Y20418D1*
X102280Y20549D1*
X102033Y20691D1*
X101794Y20551D1*
X101433Y20419D1*
X100806Y20325D1*
X98075Y20342D1*
X97641Y20418D1*
X97280Y20549D1*
X96898Y20769D1*
X96604Y21015D1*
X96320Y21353D1*
X96128Y21685D1*
X95977Y22100D1*
X95910Y22477D1*
X95909Y22918D1*
X95976Y23296D1*
X96126Y23711D1*
X96318Y24043D1*
X96601Y24382D1*
X96895Y24629D1*
X97276Y24849D1*
X97637Y24981D1*
X98264Y25075D1*
X100995Y25058D1*
X101284Y25008D1*
X100422Y17427D2*
X100978Y17313D1*
X101265Y17168D1*
X101401Y17090D1*
X101814Y17310D1*
X102127Y17383D1*
X102640Y17455D1*
X105296Y17448D1*
X105918Y17333D1*
X106155Y17231D1*
X106693Y16902D1*
X106913Y16667D1*
X107225Y16271D1*
X107351Y15975D1*
X107508Y15497D1*
X107526Y15176D1*
X107510Y14672D1*
X107416Y14364D1*
X107229Y13896D1*
X107036Y13639D1*
X106700Y13264D1*
X106431Y13088D1*
X105986Y12850D1*
X105673Y12777D1*
X105161Y12705D1*
X102504Y12712D1*
X101882Y12827D1*
X101645Y12929D1*
X101399Y13071D1*
X100986Y12850D1*
X100673Y12777D1*
X100161Y12705D1*
X97504Y12712D1*
X96882Y12827D1*
X96645Y12929D1*
X96107Y13258D1*
X95887Y13493D1*
X95575Y13889D1*
X95449Y14185D1*
X95292Y14663D1*
X95275Y14984D1*
X95290Y15488D1*
X95384Y15796D1*
X95571Y16264D1*
X95764Y16521D1*
X96100Y16896D1*
X96369Y17072D1*
X96814Y17310D1*
X97127Y17383D1*
X97640Y17455D1*
X100296Y17448D1*
X100422Y17427D1*
X114392D2*
X114948Y17313D1*
X115235Y17168D1*
X115371Y17090D1*
X115784Y17310D1*
X116097Y17383D1*
X116610Y17455D1*
X119266Y17448D1*
X119888Y17333D1*
X120125Y17231D1*
X120663Y16902D1*
X120883Y16667D1*
X121195Y16271D1*
X121321Y15975D1*
X121478Y15497D1*
X121496Y15176D1*
X121480Y14672D1*
X121386Y14364D1*
X121199Y13896D1*
X121006Y13639D1*
X120670Y13264D1*
X120401Y13088D1*
X119956Y12850D1*
X119643Y12777D1*
X119131Y12705D1*
X116474Y12712D1*
X115852Y12827D1*
X115615Y12929D1*
X115369Y13071D1*
X114956Y12850D1*
X114643Y12777D1*
X114131Y12705D1*
X111474Y12712D1*
X110852Y12827D1*
X110615Y12929D1*
X110077Y13258D1*
X109857Y13493D1*
X109545Y13889D1*
X109419Y14185D1*
X109262Y14663D1*
X109245Y14984D1*
X109260Y15488D1*
X109354Y15796D1*
X109541Y16264D1*
X109734Y16521D1*
X110070Y16896D1*
X110339Y17072D1*
X110784Y17310D1*
X111097Y17383D1*
X111610Y17455D1*
X114266Y17448D1*
X114392Y17427D1*
X113984Y25008D2*
X114416Y24889D1*
X114737Y24709D1*
X114976Y24849D1*
X115337Y24981D1*
X115964Y25075D1*
X118695Y25058D1*
X119129Y24982D1*
X119490Y24851D1*
X119872Y24631D1*
X120166Y24385D1*
X120450Y24047D1*
X120642Y23715D1*
X120793Y23300D1*
X120860Y22923D1*
X120861Y22482D1*
X120795Y22104D1*
X120644Y21689D1*
X120452Y21357D1*
X120169Y21018D1*
X119875Y20771D1*
X119494Y20551D1*
X119133Y20419D1*
X118506Y20325D1*
X115775Y20342D1*
X115341Y20418D1*
X114980Y20549D1*
X114733Y20691D1*
X114494Y20551D1*
X114133Y20419D1*
X113506Y20325D1*
X110775Y20342D1*
X110341Y20418D1*
X109980Y20549D1*
X109598Y20769D1*
X109304Y21015D1*
X109020Y21353D1*
X108828Y21685D1*
X108677Y22100D1*
X108610Y22477D1*
X108609Y22918D1*
X108676Y23296D1*
X108826Y23711D1*
X109018Y24043D1*
X109301Y24382D1*
X109595Y24629D1*
X109976Y24849D1*
X110337Y24981D1*
X110964Y25075D1*
X113695Y25058D1*
X113984Y25008D1*
X129380Y23970D2*
D14*
Y22104D1*
X126840Y23970D2*
Y22104D1*
X36670Y23970D2*
Y22104D1*
X34130Y23970D2*
Y22104D1*
X87470Y23970D2*
Y22104D1*
X84930Y23970D2*
Y22104D1*
X180180Y23970D2*
Y22104D1*
X177640Y23970D2*
Y22104D1*
X167480Y23970D2*
Y22104D1*
X164940Y23970D2*
Y22104D1*
X154780Y23970D2*
Y22104D1*
X152240Y23970D2*
Y22104D1*
X142080Y23970D2*
Y22104D1*
X139540Y23970D2*
Y22104D1*
X98900Y17455D2*
Y12705D1*
X103900Y17455D2*
Y12705D1*
X74770Y23970D2*
Y22104D1*
X72230Y23970D2*
Y22104D1*
X62070Y23970D2*
Y22104D1*
X59530Y23970D2*
Y22104D1*
X49370Y23970D2*
Y22104D1*
X46830Y23970D2*
Y22104D1*
X112870Y17455D2*
Y12705D1*
X117870Y17455D2*
Y12705D1*
X23970Y23970D2*
Y22104D1*
X21430Y23970D2*
Y22104D1*
X192880Y23970D2*
Y22104D1*
X190340Y23970D2*
Y22104D1*
X11651Y38578D2*
D22*
X19605D1*
X200668D2*
X202356D1*
X11651Y37947D2*
X19992D1*
X200033D2*
X202059D1*
X11651Y37315D2*
X19615D1*
X199408D2*
X201940D1*
X11651Y36683D2*
X19496D1*
X198773D2*
X201979D1*
X11651Y36052D2*
X19605D1*
X92093D2*
X92478D1*
X96438D2*
X96767D1*
X120003D2*
X122217D1*
X198138D2*
X202178D1*
X11651Y35420D2*
X19982D1*
X91468D2*
X92392D1*
X96518D2*
X122842D1*
X197513D2*
X202585D1*
X11651Y34788D2*
X19615D1*
X25785D2*
X32315D1*
X38485D2*
X45015D1*
X51185D2*
X57715D1*
X63885D2*
X70415D1*
X76585D2*
X83115D1*
X89285D2*
X92501D1*
X96409D2*
X125025D1*
X131195D2*
X137725D1*
X143895D2*
X150425D1*
X156595D2*
X163125D1*
X169295D2*
X175825D1*
X181995D2*
X188525D1*
X194695D2*
X202475D1*
X11651Y34157D2*
X19496D1*
X25904D2*
X32196D1*
X38604D2*
X44896D1*
X51304D2*
X57596D1*
X64004D2*
X70296D1*
X76704D2*
X82996D1*
X89404D2*
X92869D1*
X96042D2*
X124906D1*
X131314D2*
X137606D1*
X144014D2*
X150306D1*
X156714D2*
X163006D1*
X169414D2*
X175706D1*
X182114D2*
X188406D1*
X194814D2*
X202118D1*
X11651Y33525D2*
X19605D1*
X25795D2*
X32305D1*
X38495D2*
X45005D1*
X51195D2*
X57705D1*
X63895D2*
X70405D1*
X76595D2*
X83105D1*
X89295D2*
X93881D1*
X95029D2*
X125015D1*
X131205D2*
X137715D1*
X143905D2*
X150415D1*
X156605D2*
X163115D1*
X169305D2*
X175815D1*
X182005D2*
X188515D1*
X194705D2*
X201960D1*
X11651Y32893D2*
X19972D1*
X25428D2*
X32672D1*
X38128D2*
X45372D1*
X50828D2*
X58072D1*
X63528D2*
X70772D1*
X76228D2*
X83472D1*
X88928D2*
X125382D1*
X130838D2*
X138082D1*
X143538D2*
X150782D1*
X156238D2*
X163482D1*
X168938D2*
X176182D1*
X181638D2*
X188882D1*
X194338D2*
X201950D1*
X11651Y32262D2*
X19625D1*
X25775D2*
X32325D1*
X38475D2*
X45025D1*
X51175D2*
X57725D1*
X63875D2*
X70425D1*
X76575D2*
X83125D1*
X89275D2*
X96857D1*
X107214D2*
X109557D1*
X119914D2*
X125035D1*
X131185D2*
X137735D1*
X143885D2*
X150435D1*
X156585D2*
X163135D1*
X169285D2*
X175835D1*
X181985D2*
X188535D1*
X194685D2*
X202108D1*
X11651Y31630D2*
X19496D1*
X25904D2*
X32196D1*
X38604D2*
X44896D1*
X51304D2*
X57596D1*
X64004D2*
X70296D1*
X76704D2*
X82996D1*
X89404D2*
X96232D1*
X107839D2*
X108932D1*
X120539D2*
X124906D1*
X131314D2*
X137606D1*
X144014D2*
X150306D1*
X156714D2*
X163006D1*
X169414D2*
X175706D1*
X182114D2*
X188406D1*
X194814D2*
X202446D1*
X11651Y30998D2*
X19595D1*
X25805D2*
X32295D1*
X38505D2*
X44995D1*
X51205D2*
X57695D1*
X63905D2*
X70395D1*
X76605D2*
X83095D1*
X89305D2*
X95944D1*
X108126D2*
X108644D1*
X120826D2*
X125005D1*
X131215D2*
X137705D1*
X143915D2*
X150405D1*
X156615D2*
X163105D1*
X169315D2*
X175805D1*
X182015D2*
X188505D1*
X194715D2*
X202624D1*
X11651Y30367D2*
X19953D1*
X25447D2*
X32653D1*
X38147D2*
X45353D1*
X50847D2*
X58053D1*
X63547D2*
X70753D1*
X76247D2*
X83453D1*
X88947D2*
X95845D1*
X108226D2*
X108543D1*
X120926D2*
X125363D1*
X130857D2*
X138063D1*
X143557D2*
X150763D1*
X156257D2*
X163463D1*
X168957D2*
X176163D1*
X181657D2*
X188863D1*
X194357D2*
X202198D1*
X11651Y29735D2*
X19625D1*
X25775D2*
X32325D1*
X38475D2*
X45025D1*
X51175D2*
X57725D1*
X63875D2*
X70425D1*
X76575D2*
X83125D1*
X89275D2*
X95905D1*
X108166D2*
X108605D1*
X120866D2*
X125035D1*
X131185D2*
X137735D1*
X143885D2*
X150435D1*
X156585D2*
X163135D1*
X169285D2*
X175835D1*
X181985D2*
X188535D1*
X194685D2*
X201989D1*
X11651Y29103D2*
X19496D1*
X25904D2*
X32196D1*
X38604D2*
X44896D1*
X51304D2*
X57596D1*
X64004D2*
X70296D1*
X76704D2*
X82996D1*
X89404D2*
X96163D1*
X107908D2*
X108863D1*
X120608D2*
X124906D1*
X131314D2*
X137606D1*
X144014D2*
X150306D1*
X156714D2*
X163006D1*
X169414D2*
X175706D1*
X182114D2*
X188406D1*
X194814D2*
X201940D1*
X11651Y28472D2*
X19595D1*
X25805D2*
X32295D1*
X38505D2*
X44995D1*
X51205D2*
X57695D1*
X63905D2*
X70395D1*
X76605D2*
X83095D1*
X89305D2*
X96708D1*
X107362D2*
X109408D1*
X120062D2*
X125005D1*
X131215D2*
X137705D1*
X143915D2*
X150405D1*
X156615D2*
X163105D1*
X169315D2*
X175805D1*
X182015D2*
X188505D1*
X194715D2*
X201940D1*
X131246Y34067D2*
X131208Y33752D1*
X131118Y33448D1*
X130977Y33163D1*
X130791Y32907D1*
X130747Y32858D1*
X131018Y32486D1*
X131146Y32196D1*
X131223Y31889D1*
X131247Y31590D1*
X131220Y31274D1*
X131140Y30967D1*
X131009Y30678D1*
X130742Y30323D1*
X131018Y29946D1*
X131146Y29656D1*
X131223Y29349D1*
X131247Y29050D1*
X131220Y28734D1*
X131140Y28427D1*
X131079Y28292D1*
X137823Y28303D1*
X137731Y28587D1*
X137679Y28900D1*
X137681Y29217D1*
X137736Y29530D1*
X137843Y29828D1*
X137999Y30104D1*
X138168Y30311D1*
X137989Y30550D1*
X137836Y30828D1*
X137731Y31127D1*
X137679Y31440D1*
X137681Y31757D1*
X137736Y32070D1*
X137843Y32368D1*
X137999Y32644D1*
X138168Y32851D1*
X137955Y33144D1*
X137811Y33426D1*
X137717Y33729D1*
X137675Y34044D1*
X137687Y34360D1*
X137753Y34671D1*
X137799Y34804D1*
X131124Y34796D1*
X131212Y34491D1*
X131247Y34130D1*
X131246Y34067D1*
X125141Y28279D2*
X125031Y28587D1*
X124979Y28900D1*
X124981Y29217D1*
X125036Y29530D1*
X125143Y29828D1*
X125299Y30104D1*
X125468Y30311D1*
X125289Y30550D1*
X125136Y30828D1*
X125031Y31127D1*
X124979Y31440D1*
X124981Y31757D1*
X125036Y32070D1*
X125143Y32368D1*
X125299Y32644D1*
X125468Y32851D1*
X125255Y33144D1*
X125111Y33426D1*
X125017Y33729D1*
X124975Y34044D1*
X124987Y34360D1*
X125053Y34671D1*
X125099Y34804D1*
X124300Y34803D1*
X123984Y34830D1*
X123677Y34910D1*
X123388Y35041D1*
X123090Y35248D1*
X122257Y36073D1*
X119953Y36061D1*
X119494Y35791D1*
X119133Y35659D1*
X118506Y35565D1*
X115775Y35582D1*
X115341Y35658D1*
X114980Y35789D1*
X114924Y35821D1*
X114546Y35819D1*
X114214Y35678D1*
X113690Y35582D1*
X113189Y35565D1*
X110775Y35582D1*
X110341Y35658D1*
X109980Y35789D1*
X109924Y35821D1*
X106847Y35819D1*
X106514Y35678D1*
X105990Y35582D1*
X105489Y35565D1*
X103075Y35582D1*
X102641Y35658D1*
X102280Y35789D1*
X102224Y35821D1*
X101846Y35819D1*
X101514Y35678D1*
X100990Y35582D1*
X100489Y35565D1*
X98075Y35582D1*
X97641Y35658D1*
X97280Y35789D1*
X96891Y36015D1*
X96678Y36073D1*
X96370D1*
X96448Y35677D1*
X96456Y35336D1*
X96396Y34960D1*
X96266Y34602D1*
X96071Y34276D1*
X95818Y33992D1*
X95515Y33761D1*
X95175Y33591D1*
X94808Y33489D1*
X94429Y33458D1*
X94051Y33499D1*
X93687Y33610D1*
X93351Y33789D1*
X93055Y34027D1*
X92809Y34318D1*
X92623Y34649D1*
X92502Y35010D1*
X92452Y35387D1*
X92473Y35767D1*
X92546Y36074D1*
X92044Y36073D1*
X91330Y35350D1*
X91088Y35146D1*
X90814Y34985D1*
X90517Y34873D1*
X90160Y34809D1*
X89214Y34796D1*
X89302Y34491D1*
X89337Y34130D1*
X89310Y33814D1*
X89230Y33507D1*
X89099Y33218D1*
X88921Y32956D1*
X88837Y32858D1*
X89108Y32486D1*
X89236Y32196D1*
X89313Y31889D1*
X89337Y31590D1*
X89310Y31274D1*
X89230Y30967D1*
X89099Y30678D1*
X88832Y30323D1*
X89108Y29946D1*
X89236Y29656D1*
X89313Y29349D1*
X89337Y29050D1*
X89310Y28734D1*
X89230Y28427D1*
X89136Y28220D1*
X97163Y28237D1*
X96742Y28498D1*
X96522Y28733D1*
X96210Y29129D1*
X96084Y29425D1*
X95927Y29903D1*
X95910Y30224D1*
X95925Y30728D1*
X96019Y31036D1*
X96206Y31504D1*
X96399Y31761D1*
X96735Y32136D1*
X97004Y32312D1*
X97449Y32550D1*
X97762Y32623D1*
X98275Y32695D1*
X100931Y32688D1*
X101553Y32573D1*
X101790Y32471D1*
X102036Y32330D1*
X102449Y32550D1*
X102762Y32623D1*
X103275Y32695D1*
X105931Y32688D1*
X106553Y32573D1*
X106790Y32471D1*
X107328Y32142D1*
X107548Y31907D1*
X107860Y31511D1*
X107986Y31215D1*
X108143Y30737D1*
X108161Y30416D1*
X108145Y29912D1*
X108051Y29604D1*
X107864Y29136D1*
X107671Y28879D1*
X107335Y28504D1*
X107066Y28328D1*
X106933Y28251D1*
X109815Y28264D1*
X109442Y28498D1*
X109222Y28733D1*
X108910Y29129D1*
X108784Y29425D1*
X108627Y29903D1*
X108610Y30224D1*
X108625Y30728D1*
X108719Y31036D1*
X108906Y31504D1*
X109099Y31761D1*
X109435Y32136D1*
X109704Y32312D1*
X110149Y32550D1*
X110462Y32623D1*
X110975Y32695D1*
X113631Y32688D1*
X114253Y32573D1*
X114490Y32471D1*
X114736Y32330D1*
X115149Y32550D1*
X115462Y32623D1*
X115975Y32695D1*
X118631Y32688D1*
X119253Y32573D1*
X119490Y32471D1*
X120028Y32142D1*
X120248Y31907D1*
X120560Y31511D1*
X120686Y31215D1*
X120843Y30737D1*
X120861Y30416D1*
X120845Y29912D1*
X120751Y29604D1*
X120564Y29136D1*
X120371Y28879D1*
X120035Y28504D1*
X119766Y28328D1*
X119671Y28273D1*
X125143Y28282D1*
X38536Y34067D2*
X38498Y33752D1*
X38408Y33448D1*
X38267Y33163D1*
X38081Y32907D1*
X38037Y32858D1*
X38308Y32486D1*
X38436Y32196D1*
X38513Y31889D1*
X38537Y31590D1*
X38510Y31274D1*
X38430Y30967D1*
X38299Y30678D1*
X38032Y30323D1*
X38308Y29946D1*
X38436Y29656D1*
X38513Y29349D1*
X38537Y29050D1*
X38510Y28734D1*
X38430Y28427D1*
X38303Y28147D1*
X44289Y28151D1*
X45192Y28152D1*
X45021Y28587D1*
X44969Y28900D1*
X44971Y29217D1*
X45026Y29530D1*
X45133Y29828D1*
X45289Y30104D1*
X45458Y30311D1*
X45279Y30550D1*
X45126Y30828D1*
X45021Y31127D1*
X44969Y31440D1*
X44971Y31757D1*
X45026Y32070D1*
X45133Y32368D1*
X45289Y32644D1*
X45458Y32851D1*
X45245Y33144D1*
X45101Y33426D1*
X45007Y33729D1*
X44965Y34044D1*
X44977Y34360D1*
X45043Y34671D1*
X45089Y34804D1*
X38414Y34796D1*
X38502Y34491D1*
X38537Y34130D1*
X38536Y34067D1*
X32517Y28123D2*
X32426Y28288D1*
X32321Y28587D1*
X32269Y28900D1*
X32271Y29217D1*
X32326Y29530D1*
X32433Y29828D1*
X32589Y30104D1*
X32758Y30311D1*
X32579Y30550D1*
X32426Y30828D1*
X32321Y31127D1*
X32269Y31440D1*
X32271Y31757D1*
X32326Y32070D1*
X32433Y32368D1*
X32589Y32644D1*
X32758Y32851D1*
X32545Y33144D1*
X32401Y33426D1*
X32307Y33729D1*
X32265Y34044D1*
X32277Y34360D1*
X32343Y34671D1*
X32389Y34804D1*
X25714Y34796D1*
X25802Y34491D1*
X25837Y34130D1*
X25810Y33814D1*
X25730Y33507D1*
X25599Y33218D1*
X25421Y32956D1*
X25337Y32858D1*
X25608Y32486D1*
X25736Y32196D1*
X25813Y31889D1*
X25837Y31590D1*
X25810Y31274D1*
X25730Y30967D1*
X25599Y30678D1*
X25332Y30323D1*
X25608Y29946D1*
X25736Y29656D1*
X25813Y29349D1*
X25837Y29050D1*
X25810Y28734D1*
X25730Y28427D1*
X25582Y28114D1*
X29684Y28127D1*
X32512Y28132D1*
X83269Y28210D2*
X83121Y28587D1*
X83069Y28900D1*
X83071Y29217D1*
X83126Y29530D1*
X83233Y29828D1*
X83389Y30104D1*
X83558Y30311D1*
X83379Y30550D1*
X83226Y30828D1*
X83121Y31127D1*
X83069Y31440D1*
X83071Y31757D1*
X83126Y32070D1*
X83233Y32368D1*
X83389Y32644D1*
X83558Y32851D1*
X83345Y33144D1*
X83201Y33426D1*
X83107Y33729D1*
X83065Y34044D1*
X83077Y34360D1*
X83143Y34671D1*
X83189Y34804D1*
X76514Y34796D1*
X76602Y34491D1*
X76637Y34130D1*
X76610Y33814D1*
X76530Y33507D1*
X76399Y33218D1*
X76221Y32956D1*
X76137Y32858D1*
X76408Y32486D1*
X76536Y32196D1*
X76613Y31889D1*
X76637Y31590D1*
X76610Y31274D1*
X76530Y30967D1*
X76399Y30678D1*
X76132Y30323D1*
X76408Y29946D1*
X76536Y29656D1*
X76613Y29349D1*
X76637Y29050D1*
X76610Y28734D1*
X76530Y28427D1*
X76428Y28201D1*
X83253Y28214D1*
X182046Y34067D2*
X182008Y33752D1*
X181918Y33448D1*
X181777Y33163D1*
X181591Y32907D1*
X181547Y32858D1*
X181818Y32486D1*
X181946Y32196D1*
X182023Y31889D1*
X182047Y31590D1*
X182020Y31274D1*
X181940Y30967D1*
X181809Y30678D1*
X181542Y30323D1*
X181818Y29946D1*
X181946Y29656D1*
X182023Y29349D1*
X182047Y29050D1*
X182020Y28734D1*
X181920Y28382D1*
X183989Y28377D1*
X188603Y28385D1*
X188531Y28587D1*
X188479Y28900D1*
X188481Y29217D1*
X188536Y29530D1*
X188643Y29828D1*
X188799Y30104D1*
X188968Y30311D1*
X188789Y30550D1*
X188636Y30828D1*
X188531Y31127D1*
X188479Y31440D1*
X188481Y31757D1*
X188536Y32070D1*
X188643Y32368D1*
X188799Y32644D1*
X188968Y32851D1*
X188755Y33144D1*
X188611Y33426D1*
X188517Y33729D1*
X188475Y34044D1*
X188487Y34360D1*
X188553Y34671D1*
X188599Y34804D1*
X181924Y34796D1*
X182012Y34491D1*
X182047Y34130D1*
X182046Y34067D1*
X175906Y28372D2*
X175831Y28587D1*
X175779Y28900D1*
X175781Y29217D1*
X175836Y29530D1*
X175943Y29828D1*
X176099Y30104D1*
X176268Y30311D1*
X176089Y30550D1*
X175936Y30828D1*
X175831Y31127D1*
X175779Y31440D1*
X175781Y31757D1*
X175836Y32070D1*
X175943Y32368D1*
X176099Y32644D1*
X176268Y32851D1*
X176055Y33144D1*
X175911Y33426D1*
X175817Y33729D1*
X175775Y34044D1*
X175787Y34360D1*
X175853Y34671D1*
X175899Y34804D1*
X169224Y34796D1*
X169312Y34491D1*
X169347Y34130D1*
X169320Y33814D1*
X169240Y33507D1*
X169109Y33218D1*
X168931Y32956D1*
X168847Y32858D1*
X169118Y32486D1*
X169246Y32196D1*
X169323Y31889D1*
X169347Y31590D1*
X169320Y31274D1*
X169240Y30967D1*
X169109Y30678D1*
X168842Y30323D1*
X169118Y29946D1*
X169246Y29656D1*
X169323Y29349D1*
X169347Y29050D1*
X169320Y28734D1*
X169203Y28346D1*
X171607Y28357D1*
X175903Y28364D1*
X163219Y28335D2*
X163131Y28587D1*
X163079Y28900D1*
X163081Y29217D1*
X163136Y29530D1*
X163243Y29828D1*
X163399Y30104D1*
X163568Y30311D1*
X163389Y30550D1*
X163236Y30828D1*
X163131Y31127D1*
X163079Y31440D1*
X163081Y31757D1*
X163136Y32070D1*
X163243Y32368D1*
X163399Y32644D1*
X163568Y32851D1*
X163355Y33144D1*
X163211Y33426D1*
X163117Y33729D1*
X163075Y34044D1*
X163087Y34360D1*
X163153Y34671D1*
X163199Y34804D1*
X156524Y34796D1*
X156612Y34491D1*
X156647Y34130D1*
X156620Y33814D1*
X156540Y33507D1*
X156409Y33218D1*
X156231Y32956D1*
X156147Y32858D1*
X156418Y32486D1*
X156546Y32196D1*
X156623Y31889D1*
X156647Y31590D1*
X156620Y31274D1*
X156540Y30967D1*
X156409Y30678D1*
X156142Y30323D1*
X156418Y29946D1*
X156546Y29656D1*
X156623Y29349D1*
X156647Y29050D1*
X156620Y28734D1*
X156495Y28328D1*
X163203Y28344D1*
X150526Y28316D2*
X150431Y28587D1*
X150379Y28900D1*
X150381Y29217D1*
X150436Y29530D1*
X150543Y29828D1*
X150699Y30104D1*
X150868Y30311D1*
X150689Y30550D1*
X150536Y30828D1*
X150431Y31127D1*
X150379Y31440D1*
X150381Y31757D1*
X150436Y32070D1*
X150543Y32368D1*
X150699Y32644D1*
X150868Y32851D1*
X150655Y33144D1*
X150511Y33426D1*
X150417Y33729D1*
X150375Y34044D1*
X150387Y34360D1*
X150453Y34671D1*
X150499Y34804D1*
X143824Y34796D1*
X143912Y34491D1*
X143947Y34130D1*
X143920Y33814D1*
X143840Y33507D1*
X143709Y33218D1*
X143531Y32956D1*
X143447Y32858D1*
X143718Y32486D1*
X143846Y32196D1*
X143923Y31889D1*
X143947Y31590D1*
X143920Y31274D1*
X143840Y30967D1*
X143709Y30678D1*
X143442Y30323D1*
X143718Y29946D1*
X143846Y29656D1*
X143923Y29349D1*
X143947Y29050D1*
X143920Y28734D1*
X143787Y28310D1*
X150523Y28323D1*
X70579Y28193D2*
X70421Y28587D1*
X70369Y28900D1*
X70371Y29217D1*
X70426Y29530D1*
X70533Y29828D1*
X70689Y30104D1*
X70858Y30311D1*
X70679Y30550D1*
X70526Y30828D1*
X70421Y31127D1*
X70369Y31440D1*
X70371Y31757D1*
X70426Y32070D1*
X70533Y32368D1*
X70689Y32644D1*
X70858Y32851D1*
X70645Y33144D1*
X70501Y33426D1*
X70407Y33729D1*
X70365Y34044D1*
X70377Y34360D1*
X70443Y34671D1*
X70489Y34804D1*
X63814Y34796D1*
X63902Y34491D1*
X63937Y34130D1*
X63910Y33814D1*
X63830Y33507D1*
X63699Y33218D1*
X63521Y32956D1*
X63437Y32858D1*
X63708Y32486D1*
X63836Y32196D1*
X63913Y31889D1*
X63937Y31590D1*
X63910Y31274D1*
X63830Y30967D1*
X63699Y30678D1*
X63432Y30323D1*
X63708Y29946D1*
X63836Y29656D1*
X63913Y29349D1*
X63937Y29050D1*
X63910Y28734D1*
X63830Y28427D1*
X63720Y28183D1*
X70572Y28194D1*
X57888Y28175D2*
X57721Y28587D1*
X57669Y28900D1*
X57671Y29217D1*
X57726Y29530D1*
X57833Y29828D1*
X57989Y30104D1*
X58158Y30311D1*
X57979Y30550D1*
X57826Y30828D1*
X57721Y31127D1*
X57669Y31440D1*
X57671Y31757D1*
X57726Y32070D1*
X57833Y32368D1*
X57989Y32644D1*
X58158Y32851D1*
X57945Y33144D1*
X57801Y33426D1*
X57707Y33729D1*
X57665Y34044D1*
X57677Y34360D1*
X57743Y34671D1*
X57789Y34804D1*
X51114Y34796D1*
X51202Y34491D1*
X51237Y34130D1*
X51210Y33814D1*
X51130Y33507D1*
X50999Y33218D1*
X50821Y32956D1*
X50737Y32858D1*
X51008Y32486D1*
X51136Y32196D1*
X51213Y31889D1*
X51237Y31590D1*
X51210Y31274D1*
X51130Y30967D1*
X50999Y30678D1*
X50732Y30323D1*
X51008Y29946D1*
X51136Y29656D1*
X51213Y29349D1*
X51237Y29050D1*
X51210Y28734D1*
X51130Y28427D1*
X51011Y28165D1*
X57872Y28173D1*
X19827Y28106D2*
X19726Y28288D1*
X19621Y28587D1*
X19569Y28900D1*
X19571Y29217D1*
X19626Y29530D1*
X19733Y29828D1*
X19889Y30104D1*
X20058Y30311D1*
X19879Y30550D1*
X19726Y30828D1*
X19621Y31127D1*
X19569Y31440D1*
X19571Y31757D1*
X19626Y32070D1*
X19733Y32368D1*
X19889Y32644D1*
X20058Y32851D1*
X19845Y33144D1*
X19701Y33426D1*
X19607Y33729D1*
X19565Y34044D1*
X19577Y34360D1*
X19643Y34671D1*
X19760Y34965D1*
X19926Y35236D1*
X20061Y35399D1*
X19839Y35694D1*
X19697Y35977D1*
X19604Y36280D1*
X19565Y36595D1*
X19579Y36912D1*
X19646Y37222D1*
X19766Y37516D1*
X19895Y37732D1*
X19733Y37448D1*
X19889Y37724D1*
X20059Y37946D1*
X19879Y38170D1*
X19726Y38448D1*
X19621Y38747D1*
X19594Y38914D1*
X17938Y38903D1*
X11588Y38893D1*
Y28107D1*
X13809Y28102D1*
X19812Y28111D1*
X194746Y34067D2*
X194708Y33752D1*
X194618Y33448D1*
X194477Y33163D1*
X194291Y32907D1*
X194247Y32858D1*
X194518Y32486D1*
X194646Y32196D1*
X194723Y31889D1*
X194747Y31590D1*
X194720Y31274D1*
X194640Y30967D1*
X194509Y30678D1*
X194242Y30323D1*
X194518Y29946D1*
X194646Y29656D1*
X194723Y29349D1*
X194747Y29050D1*
X194720Y28734D1*
X194628Y28400D1*
X200499Y28404D1*
X201999Y28415D1*
X202018Y29545D1*
X202075Y29857D1*
X202169Y30160D1*
X202299Y30449D1*
X202464Y30721D1*
X202659Y30970D1*
X202888Y31198D1*
X202662Y31445D1*
X202466Y31694D1*
X202301Y31966D1*
X202171Y32255D1*
X202076Y32558D1*
X202018Y32870D1*
X201999Y33186D1*
X202017Y33503D1*
X202074Y33815D1*
X202168Y34118D1*
X202298Y34408D1*
X202461Y34680D1*
X202657Y34930D1*
X202904Y35173D1*
X202704Y35360D1*
X202466Y35657D1*
X202272Y35985D1*
X202128Y36337D1*
X202037Y36706D1*
X201999Y37085D1*
X202017Y37465D1*
X202090Y37839D1*
X202216Y38198D1*
X202392Y38536D1*
X202615Y38844D1*
X202900Y39134D1*
X202823Y39208D1*
X201225Y39200D1*
X197375Y35350D1*
X197133Y35146D1*
X196859Y34985D1*
X196562Y34873D1*
X196205Y34809D1*
X194616Y34803D1*
X194683Y34615D1*
X194739Y34303D1*
X194746Y34067D1*
X99535Y32695D2*
D14*
Y30320D1*
X104535Y32695D2*
Y30320D1*
X112235Y32695D2*
Y30320D1*
X117235Y32695D2*
Y30320D1*
X94455Y35463D2*
Y33459D1*
X129380Y39210D3*
Y36670D3*
Y34130D3*
Y31590D3*
Y29050D3*
Y26510D3*
Y23970D3*
X126840D3*
Y26510D3*
Y29050D3*
Y31590D3*
Y34130D3*
Y36670D3*
Y39210D3*
Y41750D3*
D24*
X129380D3*
D14*
X36670Y39210D3*
Y36670D3*
Y34130D3*
Y31590D3*
Y29050D3*
Y26510D3*
Y23970D3*
X34130D3*
Y26510D3*
Y29050D3*
Y31590D3*
Y34130D3*
Y36670D3*
Y39210D3*
Y41750D3*
D24*
X36670D3*
D14*
X87470Y39210D3*
Y36670D3*
Y34130D3*
Y31590D3*
Y29050D3*
Y26510D3*
Y23970D3*
X84930D3*
Y26510D3*
Y29050D3*
Y31590D3*
Y34130D3*
Y36670D3*
Y39210D3*
Y41750D3*
D24*
X87470D3*
D14*
X180180Y39210D3*
Y36670D3*
Y34130D3*
Y31590D3*
Y29050D3*
Y26510D3*
Y23970D3*
X177640D3*
Y26510D3*
Y29050D3*
Y31590D3*
Y34130D3*
Y36670D3*
Y39210D3*
Y41750D3*
D24*
X180180D3*
D14*
X167480Y39210D3*
Y36670D3*
Y34130D3*
Y31590D3*
Y29050D3*
Y26510D3*
Y23970D3*
X164940D3*
Y26510D3*
Y29050D3*
Y31590D3*
Y34130D3*
Y36670D3*
Y39210D3*
Y41750D3*
D24*
X167480D3*
D14*
X154780Y39210D3*
Y36670D3*
Y34130D3*
Y31590D3*
Y29050D3*
Y26510D3*
Y23970D3*
X152240D3*
Y26510D3*
Y29050D3*
Y31590D3*
Y34130D3*
Y36670D3*
Y39210D3*
Y41750D3*
D24*
X154780D3*
D14*
X142080Y39210D3*
Y36670D3*
Y34130D3*
Y31590D3*
Y29050D3*
Y26510D3*
Y23970D3*
X139540D3*
Y26510D3*
Y29050D3*
Y31590D3*
Y34130D3*
Y36670D3*
Y39210D3*
Y41750D3*
D24*
X142080D3*
D25*
X154145Y53180D3*
D26*
X151605D3*
D25*
X162083D3*
D26*
X159543D3*
D25*
X170020D3*
D26*
X167480D3*
G36*
X100804Y39210D2*
X101238Y39134D1*
X101621Y38914D1*
X101904Y38576D1*
X102056Y38162D1*
Y37721D1*
X101905Y37306D1*
X101622Y36968D1*
X101240Y36747D1*
X100806Y36670D1*
X98266D1*
X97832Y36746D1*
X97450Y36966D1*
X97166Y37304D1*
X97015Y37718D1*
X97014Y38159D1*
X97165Y38574D1*
X97448Y38912D1*
X97830Y39133D1*
X98264Y39210D1*
X100804D1*
G37*
G36*
X105804D2*
X106238Y39134D1*
X106621Y38914D1*
X106904Y38576D1*
X107056Y38162D1*
Y37721D1*
X106905Y37306D1*
X106622Y36968D1*
X106240Y36747D1*
X105806Y36670D1*
X103266D1*
X102832Y36746D1*
X102450Y36966D1*
X102166Y37304D1*
X102015Y37718D1*
X102014Y38159D1*
X102165Y38574D1*
X102448Y38912D1*
X102830Y39133D1*
X103264Y39210D1*
X105804D1*
G37*
G36*
X100804Y31590D2*
X101238Y31514D1*
X101621Y31294D1*
X101904Y30956D1*
X102056Y30542D1*
Y30101D1*
X101905Y29686D1*
X101622Y29348D1*
X101240Y29127D1*
X100806Y29050D1*
X98266D1*
X97832Y29126D1*
X97450Y29346D1*
X97166Y29684D1*
X97015Y30098D1*
X97014Y30539D1*
X97165Y30954D1*
X97448Y31292D1*
X97830Y31513D1*
X98264Y31590D1*
X100804D1*
G37*
G36*
X105804D2*
X106238Y31514D1*
X106621Y31294D1*
X106904Y30956D1*
X107056Y30542D1*
Y30101D1*
X106905Y29686D1*
X106622Y29348D1*
X106240Y29127D1*
X105806Y29050D1*
X103266D1*
X102832Y29126D1*
X102450Y29346D1*
X102166Y29684D1*
X102015Y30098D1*
X102014Y30539D1*
X102165Y30954D1*
X102448Y31292D1*
X102830Y31513D1*
X103264Y31590D1*
X105804D1*
G37*
G36*
X100804Y23970D2*
X101238Y23894D1*
X101621Y23674D1*
X101904Y23336D1*
X102056Y22922D1*
Y22481D1*
X101905Y22066D1*
X101622Y21728D1*
X101240Y21507D1*
X100806Y21430D1*
X98266D1*
X97832Y21506D1*
X97450Y21726D1*
X97166Y22064D1*
X97015Y22478D1*
X97014Y22919D1*
X97165Y23334D1*
X97448Y23672D1*
X97830Y23893D1*
X98264Y23970D1*
X100804D1*
G37*
G36*
X105804D2*
X106238Y23894D1*
X106621Y23674D1*
X106904Y23336D1*
X107056Y22922D1*
Y22481D1*
X106905Y22066D1*
X106622Y21728D1*
X106240Y21507D1*
X105806Y21430D1*
X103266D1*
X102832Y21506D1*
X102450Y21726D1*
X102166Y22064D1*
X102015Y22478D1*
X102014Y22919D1*
X102165Y23334D1*
X102448Y23672D1*
X102830Y23893D1*
X103264Y23970D1*
X105804D1*
G37*
G36*
X100169Y16350D2*
X100603Y16274D1*
X100986Y16054D1*
X101269Y15716D1*
X101421Y15302D1*
Y14861D1*
X101270Y14446D1*
X100987Y14108D1*
X100605Y13887D1*
X100171Y13810D1*
X97631D1*
X97197Y13886D1*
X96815Y14106D1*
X96531Y14444D1*
X96380Y14858D1*
X96379Y15299D1*
X96530Y15714D1*
X96813Y16052D1*
X97195Y16273D1*
X97629Y16350D1*
X100169D1*
G37*
G36*
X105169D2*
X105603Y16274D1*
X105986Y16054D1*
X106269Y15716D1*
X106421Y15302D1*
Y14861D1*
X106270Y14446D1*
X105987Y14108D1*
X105605Y13887D1*
X105171Y13810D1*
X102631D1*
X102197Y13886D1*
X101815Y14106D1*
X101531Y14444D1*
X101380Y14858D1*
X101379Y15299D1*
X101530Y15714D1*
X101813Y16052D1*
X102195Y16273D1*
X102629Y16350D1*
X105169D1*
G37*
D14*
X74770Y39210D3*
Y36670D3*
Y34130D3*
Y31590D3*
Y29050D3*
Y26510D3*
Y23970D3*
X72230D3*
Y26510D3*
Y29050D3*
Y31590D3*
Y34130D3*
Y36670D3*
Y39210D3*
Y41750D3*
D24*
X74770D3*
D14*
X62070Y39210D3*
Y36670D3*
Y34130D3*
Y31590D3*
Y29050D3*
Y26510D3*
Y23970D3*
X59530D3*
Y26510D3*
Y29050D3*
Y31590D3*
Y34130D3*
Y36670D3*
Y39210D3*
Y41750D3*
D24*
X62070D3*
D14*
X49370Y39210D3*
Y36670D3*
Y34130D3*
Y31590D3*
Y29050D3*
Y26510D3*
Y23970D3*
X46830D3*
Y26510D3*
Y29050D3*
Y31590D3*
Y34130D3*
Y36670D3*
Y39210D3*
Y41750D3*
D24*
X49370D3*
G36*
X114139Y16350D2*
X114573Y16274D1*
X114956Y16054D1*
X115239Y15716D1*
X115391Y15302D1*
Y14861D1*
X115240Y14446D1*
X114957Y14108D1*
X114575Y13887D1*
X114141Y13810D1*
X111601D1*
X111167Y13886D1*
X110785Y14106D1*
X110501Y14444D1*
X110350Y14858D1*
X110349Y15299D1*
X110500Y15714D1*
X110783Y16052D1*
X111165Y16273D1*
X111599Y16350D1*
X114139D1*
G37*
G36*
X119139D2*
X119573Y16274D1*
X119956Y16054D1*
X120239Y15716D1*
X120391Y15302D1*
Y14861D1*
X120240Y14446D1*
X119957Y14108D1*
X119575Y13887D1*
X119141Y13810D1*
X116601D1*
X116167Y13886D1*
X115785Y14106D1*
X115501Y14444D1*
X115350Y14858D1*
X115349Y15299D1*
X115500Y15714D1*
X115783Y16052D1*
X116165Y16273D1*
X116599Y16350D1*
X119139D1*
G37*
G36*
X113504Y23970D2*
X113938Y23894D1*
X114321Y23674D1*
X114604Y23336D1*
X114756Y22922D1*
Y22481D1*
X114605Y22066D1*
X114322Y21728D1*
X113940Y21507D1*
X113506Y21430D1*
X110966D1*
X110532Y21506D1*
X110150Y21726D1*
X109866Y22064D1*
X109715Y22478D1*
X109714Y22919D1*
X109865Y23334D1*
X110148Y23672D1*
X110530Y23893D1*
X110964Y23970D1*
X113504D1*
G37*
G36*
X118504D2*
X118938Y23894D1*
X119321Y23674D1*
X119604Y23336D1*
X119756Y22922D1*
Y22481D1*
X119605Y22066D1*
X119322Y21728D1*
X118940Y21507D1*
X118506Y21430D1*
X115966D1*
X115532Y21506D1*
X115150Y21726D1*
X114866Y22064D1*
X114715Y22478D1*
X114714Y22919D1*
X114865Y23334D1*
X115148Y23672D1*
X115530Y23893D1*
X115964Y23970D1*
X118504D1*
G37*
G36*
X113504Y31590D2*
X113938Y31514D1*
X114321Y31294D1*
X114604Y30956D1*
X114756Y30542D1*
Y30101D1*
X114605Y29686D1*
X114322Y29348D1*
X113940Y29127D1*
X113506Y29050D1*
X110966D1*
X110532Y29126D1*
X110150Y29346D1*
X109866Y29684D1*
X109715Y30098D1*
X109714Y30539D1*
X109865Y30954D1*
X110148Y31292D1*
X110530Y31513D1*
X110964Y31590D1*
X113504D1*
G37*
G36*
X118504D2*
X118938Y31514D1*
X119321Y31294D1*
X119604Y30956D1*
X119756Y30542D1*
Y30101D1*
X119605Y29686D1*
X119322Y29348D1*
X118940Y29127D1*
X118506Y29050D1*
X115966D1*
X115532Y29126D1*
X115150Y29346D1*
X114866Y29684D1*
X114715Y30098D1*
X114714Y30539D1*
X114865Y30954D1*
X115148Y31292D1*
X115530Y31513D1*
X115964Y31590D1*
X118504D1*
G37*
G36*
X113504Y39210D2*
X113938Y39134D1*
X114321Y38914D1*
X114604Y38576D1*
X114756Y38162D1*
Y37721D1*
X114605Y37306D1*
X114322Y36968D1*
X113940Y36747D1*
X113506Y36670D1*
X110966D1*
X110532Y36746D1*
X110150Y36966D1*
X109866Y37304D1*
X109715Y37718D1*
X109714Y38159D1*
X109865Y38574D1*
X110148Y38912D1*
X110530Y39133D1*
X110964Y39210D1*
X113504D1*
G37*
G36*
X118504D2*
X118938Y39134D1*
X119321Y38914D1*
X119604Y38576D1*
X119756Y38162D1*
Y37721D1*
X119605Y37306D1*
X119322Y36968D1*
X118940Y36747D1*
X118506Y36670D1*
X115966D1*
X115532Y36746D1*
X115150Y36966D1*
X114866Y37304D1*
X114715Y37718D1*
X114714Y38159D1*
X114865Y38574D1*
X115148Y38912D1*
X115530Y39133D1*
X115964Y39210D1*
X118504D1*
G37*
D28*
X90010Y52863D3*
D29*
X92550D3*
D28*
X82390D3*
D29*
X84930D3*
D14*
X23970Y39210D3*
Y36670D3*
Y34130D3*
Y31590D3*
Y29050D3*
Y26510D3*
Y23970D3*
X21430D3*
Y26510D3*
Y29050D3*
Y31590D3*
Y34130D3*
Y36670D3*
Y39210D3*
Y41750D3*
D24*
X23970D3*
D14*
X192880Y39210D3*
Y36670D3*
Y34130D3*
Y31590D3*
Y29050D3*
Y26510D3*
Y23970D3*
X190340D3*
Y26510D3*
Y29050D3*
Y31590D3*
Y34130D3*
Y36670D3*
Y39210D3*
Y41750D3*
D24*
X192880D3*
D30*
X113188Y53815D3*
D31*
X115728D3*
X118268D3*
D20*
X115728Y42385D3*
D30*
X118268D3*
X101123Y46513D3*
D20*
Y49053D3*
D32*
X107155Y47783D3*
D33*
X118205D3*
D34*
X204628Y41115D3*
Y37153D3*
Y33190D3*
Y29228D3*
D32*
X94455Y46513D3*
D33*
Y35463D3*
D14*
X175735Y57625D3*
D35*
X185895D3*
D14*
X175735Y54133D3*
D35*
X185895D3*
D14*
X175735Y50640D3*
D35*
X185895D3*
M02*
