G04 DipTrace 2.4.0.2*
%INpsu_1.GTO*%
%MOMM*%
%ADD10C,0.25*%
%ADD31C,0.203*%
%ADD35C,0.18*%
%ADD45C,0.152*%
%ADD91C,0.196*%
%ADD92C,0.235*%
%ADD93C,0.314*%
%FSLAX53Y53*%
G04*
G71*
G90*
G75*
G01*
%LNTopSilk*%
%LPD*%
X189581Y88440D2*
D10*
Y89040D1*
X189281Y88740D2*
X189881D1*
X190342D2*
X190348Y88917D1*
X190366Y89094D1*
X190397Y89268D1*
X190440Y89440D1*
X190495Y89609D1*
X190561Y89773D1*
X190639Y89932D1*
X190727Y90086D1*
X190827Y90233D1*
X190936Y90373D1*
X191054Y90504D1*
X191182Y90628D1*
X191318Y90742D1*
X191461Y90846D1*
X191611Y90940D1*
X191768Y91023D1*
X191930Y91095D1*
X192096Y91156D1*
X192266Y91205D1*
X192440Y91241D1*
X192615Y91266D1*
X192792Y91278D1*
X192969D1*
X193146Y91266D1*
X193322Y91241D1*
X193495Y91205D1*
X193665Y91156D1*
X193832Y91095D1*
X193994Y91023D1*
X194150Y90940D1*
X194301Y90846D1*
X194444Y90742D1*
X194580Y90628D1*
X194707Y90504D1*
X194826Y90373D1*
X194935Y90233D1*
X195034Y90086D1*
X195123Y89932D1*
X195200Y89773D1*
X195267Y89609D1*
X195321Y89440D1*
X195364Y89268D1*
X195395Y89094D1*
X195414Y88917D1*
X195420Y88740D1*
X195414Y88563D1*
X195395Y88387D1*
X195364Y88212D1*
X195321Y88040D1*
X195267Y87871D1*
X195200Y87707D1*
X195123Y87548D1*
X195034Y87394D1*
X194935Y87247D1*
X194826Y87107D1*
X194707Y86976D1*
X194580Y86852D1*
X194444Y86738D1*
X194301Y86634D1*
X194150Y86540D1*
X193994Y86457D1*
X193832Y86385D1*
X193665Y86324D1*
X193495Y86275D1*
X193322Y86239D1*
X193146Y86214D1*
X192969Y86202D1*
X192792D1*
X192615Y86214D1*
X192440Y86239D1*
X192266Y86275D1*
X192096Y86324D1*
X191930Y86385D1*
X191768Y86457D1*
X191611Y86540D1*
X191461Y86634D1*
X191318Y86738D1*
X191182Y86852D1*
X191054Y86976D1*
X190936Y87107D1*
X190827Y87247D1*
X190727Y87394D1*
X190639Y87548D1*
X190561Y87707D1*
X190495Y87871D1*
X190440Y88040D1*
X190397Y88212D1*
X190366Y88387D1*
X190348Y88563D1*
X190342Y88740D1*
X189581Y55420D2*
Y56020D1*
X189281Y55720D2*
X189881D1*
X190342D2*
X190348Y55897D1*
X190366Y56074D1*
X190397Y56248D1*
X190440Y56420D1*
X190495Y56589D1*
X190561Y56753D1*
X190639Y56912D1*
X190727Y57066D1*
X190827Y57213D1*
X190936Y57353D1*
X191054Y57484D1*
X191182Y57608D1*
X191318Y57722D1*
X191461Y57826D1*
X191611Y57920D1*
X191768Y58003D1*
X191930Y58075D1*
X192096Y58136D1*
X192266Y58185D1*
X192440Y58221D1*
X192615Y58246D1*
X192792Y58258D1*
X192969D1*
X193146Y58246D1*
X193322Y58221D1*
X193495Y58185D1*
X193665Y58136D1*
X193832Y58075D1*
X193994Y58003D1*
X194150Y57920D1*
X194301Y57826D1*
X194444Y57722D1*
X194580Y57608D1*
X194707Y57484D1*
X194826Y57353D1*
X194935Y57213D1*
X195034Y57066D1*
X195123Y56912D1*
X195200Y56753D1*
X195267Y56589D1*
X195321Y56420D1*
X195364Y56248D1*
X195395Y56074D1*
X195414Y55897D1*
X195420Y55720D1*
X195414Y55543D1*
X195395Y55367D1*
X195364Y55192D1*
X195321Y55020D1*
X195267Y54851D1*
X195200Y54687D1*
X195123Y54528D1*
X195034Y54374D1*
X194935Y54227D1*
X194826Y54087D1*
X194707Y53956D1*
X194580Y53832D1*
X194444Y53718D1*
X194301Y53614D1*
X194150Y53520D1*
X193994Y53437D1*
X193832Y53365D1*
X193665Y53304D1*
X193495Y53255D1*
X193322Y53219D1*
X193146Y53194D1*
X192969Y53182D1*
X192792D1*
X192615Y53194D1*
X192440Y53219D1*
X192266Y53255D1*
X192096Y53304D1*
X191930Y53365D1*
X191768Y53437D1*
X191611Y53520D1*
X191461Y53614D1*
X191318Y53718D1*
X191182Y53832D1*
X191054Y53956D1*
X190936Y54087D1*
X190827Y54227D1*
X190727Y54374D1*
X190639Y54528D1*
X190561Y54687D1*
X190495Y54851D1*
X190440Y55020D1*
X190397Y55192D1*
X190366Y55367D1*
X190348Y55543D1*
X190342Y55720D1*
X189581Y41450D2*
Y42050D1*
X189281Y41750D2*
X189881D1*
X190342D2*
X190348Y41927D1*
X190366Y42104D1*
X190397Y42278D1*
X190440Y42450D1*
X190495Y42619D1*
X190561Y42783D1*
X190639Y42942D1*
X190727Y43096D1*
X190827Y43243D1*
X190936Y43383D1*
X191054Y43514D1*
X191182Y43638D1*
X191318Y43752D1*
X191461Y43856D1*
X191611Y43950D1*
X191768Y44033D1*
X191930Y44105D1*
X192096Y44166D1*
X192266Y44215D1*
X192440Y44251D1*
X192615Y44276D1*
X192792Y44288D1*
X192969D1*
X193146Y44276D1*
X193322Y44251D1*
X193495Y44215D1*
X193665Y44166D1*
X193832Y44105D1*
X193994Y44033D1*
X194150Y43950D1*
X194301Y43856D1*
X194444Y43752D1*
X194580Y43638D1*
X194707Y43514D1*
X194826Y43383D1*
X194935Y43243D1*
X195034Y43096D1*
X195123Y42942D1*
X195200Y42783D1*
X195267Y42619D1*
X195321Y42450D1*
X195364Y42278D1*
X195395Y42104D1*
X195414Y41927D1*
X195420Y41750D1*
X195414Y41573D1*
X195395Y41397D1*
X195364Y41222D1*
X195321Y41050D1*
X195267Y40881D1*
X195200Y40717D1*
X195123Y40558D1*
X195034Y40404D1*
X194935Y40257D1*
X194826Y40117D1*
X194707Y39986D1*
X194580Y39862D1*
X194444Y39748D1*
X194301Y39644D1*
X194150Y39550D1*
X193994Y39467D1*
X193832Y39395D1*
X193665Y39334D1*
X193495Y39285D1*
X193322Y39249D1*
X193146Y39224D1*
X192969Y39212D1*
X192792D1*
X192615Y39224D1*
X192440Y39249D1*
X192266Y39285D1*
X192096Y39334D1*
X191930Y39395D1*
X191768Y39467D1*
X191611Y39550D1*
X191461Y39644D1*
X191318Y39748D1*
X191182Y39862D1*
X191054Y39986D1*
X190936Y40117D1*
X190827Y40257D1*
X190727Y40404D1*
X190639Y40558D1*
X190561Y40717D1*
X190495Y40881D1*
X190440Y41050D1*
X190397Y41222D1*
X190366Y41397D1*
X190348Y41573D1*
X190342Y41750D1*
X191104Y94836D2*
X194656D1*
X191104Y97884D2*
X194656D1*
Y94836D2*
G03X194656Y97884I2J1524D01*
G01*
X191104D2*
G03X191104Y94836I-2J-1524D01*
G01*
Y61816D2*
X194656D1*
X191104Y64864D2*
X194656D1*
Y61816D2*
G03X194656Y64864I2J1524D01*
G01*
X191104D2*
G03X191104Y61816I-2J-1524D01*
G01*
Y32606D2*
X194656D1*
X191104Y35654D2*
X194656D1*
Y32606D2*
G03X194656Y35654I2J1524D01*
G01*
X191104D2*
G03X191104Y32606I-2J-1524D01*
G01*
X131666Y100676D2*
Y97124D1*
X134714Y100676D2*
Y97124D1*
X131666D2*
G03X134714Y97124I1524J-2D01*
G01*
Y100676D2*
G03X131666Y100676I-1524J2D01*
G01*
Y66386D2*
Y62834D1*
X134714Y66386D2*
Y62834D1*
X131666D2*
G03X134714Y62834I1524J-2D01*
G01*
Y66386D2*
G03X131666Y66386I-1524J2D01*
G01*
Y32096D2*
Y28544D1*
X134714Y32096D2*
Y28544D1*
X131666D2*
G03X134714Y28544I1524J-2D01*
G01*
Y32096D2*
G03X131666Y32096I-1524J2D01*
G01*
X126540Y102199D2*
X127140D1*
X126840Y102499D2*
Y101899D1*
X124300Y98899D2*
X124306Y99076D1*
X124325Y99253D1*
X124356Y99427D1*
X124398Y99599D1*
X124453Y99768D1*
X124520Y99932D1*
X124597Y100091D1*
X124686Y100245D1*
X124785Y100392D1*
X124894Y100531D1*
X125013Y100663D1*
X125140Y100786D1*
X125276Y100900D1*
X125420Y101004D1*
X125570Y101098D1*
X125727Y101181D1*
X125889Y101253D1*
X126055Y101314D1*
X126226Y101363D1*
X126399Y101400D1*
X126575Y101424D1*
X126751Y101437D1*
X126929D1*
X127106Y101424D1*
X127281Y101400D1*
X127454Y101363D1*
X127625Y101314D1*
X127792Y101253D1*
X127953Y101181D1*
X128110Y101098D1*
X128260Y101004D1*
X128404Y100900D1*
X128540Y100786D1*
X128667Y100663D1*
X128786Y100531D1*
X128895Y100392D1*
X128994Y100245D1*
X129083Y100091D1*
X129160Y99932D1*
X129227Y99768D1*
X129282Y99599D1*
X129325Y99427D1*
X129355Y99253D1*
X129374Y99076D1*
X129380Y98899D1*
X129374Y98722D1*
X129355Y98546D1*
X129325Y98371D1*
X129282Y98199D1*
X129227Y98031D1*
X129160Y97867D1*
X129083Y97707D1*
X128994Y97554D1*
X128895Y97407D1*
X128786Y97267D1*
X128667Y97135D1*
X128540Y97012D1*
X128404Y96898D1*
X128260Y96794D1*
X128110Y96700D1*
X127953Y96617D1*
X127792Y96545D1*
X127625Y96484D1*
X127454Y96436D1*
X127281Y96399D1*
X127106Y96374D1*
X126929Y96362D1*
X126751D1*
X126575Y96374D1*
X126399Y96399D1*
X126226Y96436D1*
X126055Y96484D1*
X125889Y96545D1*
X125727Y96617D1*
X125570Y96700D1*
X125420Y96794D1*
X125276Y96898D1*
X125140Y97012D1*
X125013Y97135D1*
X124894Y97267D1*
X124785Y97407D1*
X124686Y97554D1*
X124597Y97707D1*
X124520Y97867D1*
X124453Y98031D1*
X124398Y98199D1*
X124356Y98371D1*
X124325Y98546D1*
X124306Y98722D1*
X124300Y98899D1*
X126540Y67909D2*
X127140D1*
X126840Y68209D2*
Y67609D1*
X124300Y64609D2*
X124306Y64786D1*
X124325Y64963D1*
X124356Y65137D1*
X124398Y65309D1*
X124453Y65478D1*
X124520Y65642D1*
X124597Y65801D1*
X124686Y65955D1*
X124785Y66102D1*
X124894Y66241D1*
X125013Y66373D1*
X125140Y66496D1*
X125276Y66610D1*
X125420Y66714D1*
X125570Y66808D1*
X125727Y66891D1*
X125889Y66963D1*
X126055Y67024D1*
X126226Y67073D1*
X126399Y67110D1*
X126575Y67134D1*
X126751Y67147D1*
X126929D1*
X127106Y67134D1*
X127281Y67110D1*
X127454Y67073D1*
X127625Y67024D1*
X127792Y66963D1*
X127953Y66891D1*
X128110Y66808D1*
X128260Y66714D1*
X128404Y66610D1*
X128540Y66496D1*
X128667Y66373D1*
X128786Y66241D1*
X128895Y66102D1*
X128994Y65955D1*
X129083Y65801D1*
X129160Y65642D1*
X129227Y65478D1*
X129282Y65309D1*
X129325Y65137D1*
X129355Y64963D1*
X129374Y64786D1*
X129380Y64609D1*
X129374Y64432D1*
X129355Y64256D1*
X129325Y64081D1*
X129282Y63909D1*
X129227Y63741D1*
X129160Y63577D1*
X129083Y63417D1*
X128994Y63264D1*
X128895Y63117D1*
X128786Y62977D1*
X128667Y62845D1*
X128540Y62722D1*
X128404Y62608D1*
X128260Y62504D1*
X128110Y62410D1*
X127953Y62327D1*
X127792Y62255D1*
X127625Y62194D1*
X127454Y62146D1*
X127281Y62109D1*
X127106Y62084D1*
X126929Y62072D1*
X126751D1*
X126575Y62084D1*
X126399Y62109D1*
X126226Y62146D1*
X126055Y62194D1*
X125889Y62255D1*
X125727Y62327D1*
X125570Y62410D1*
X125420Y62504D1*
X125276Y62608D1*
X125140Y62722D1*
X125013Y62845D1*
X124894Y62977D1*
X124785Y63117D1*
X124686Y63264D1*
X124597Y63417D1*
X124520Y63577D1*
X124453Y63741D1*
X124398Y63909D1*
X124356Y64081D1*
X124325Y64256D1*
X124306Y64432D1*
X124300Y64609D1*
X126540Y33619D2*
X127140D1*
X126840Y33919D2*
Y33319D1*
X124300Y30319D2*
X124306Y30496D1*
X124325Y30673D1*
X124356Y30847D1*
X124398Y31019D1*
X124453Y31188D1*
X124520Y31352D1*
X124597Y31511D1*
X124686Y31665D1*
X124785Y31812D1*
X124894Y31951D1*
X125013Y32083D1*
X125140Y32206D1*
X125276Y32320D1*
X125420Y32424D1*
X125570Y32518D1*
X125727Y32601D1*
X125889Y32673D1*
X126055Y32734D1*
X126226Y32783D1*
X126399Y32820D1*
X126575Y32844D1*
X126751Y32857D1*
X126929D1*
X127106Y32844D1*
X127281Y32820D1*
X127454Y32783D1*
X127625Y32734D1*
X127792Y32673D1*
X127953Y32601D1*
X128110Y32518D1*
X128260Y32424D1*
X128404Y32320D1*
X128540Y32206D1*
X128667Y32083D1*
X128786Y31951D1*
X128895Y31812D1*
X128994Y31665D1*
X129083Y31511D1*
X129160Y31352D1*
X129227Y31188D1*
X129282Y31019D1*
X129325Y30847D1*
X129355Y30673D1*
X129374Y30496D1*
X129380Y30319D1*
X129374Y30142D1*
X129355Y29966D1*
X129325Y29791D1*
X129282Y29619D1*
X129227Y29451D1*
X129160Y29287D1*
X129083Y29127D1*
X128994Y28974D1*
X128895Y28827D1*
X128786Y28687D1*
X128667Y28555D1*
X128540Y28432D1*
X128404Y28318D1*
X128260Y28214D1*
X128110Y28120D1*
X127953Y28037D1*
X127792Y27965D1*
X127625Y27904D1*
X127454Y27856D1*
X127281Y27819D1*
X127106Y27794D1*
X126929Y27782D1*
X126751D1*
X126575Y27794D1*
X126399Y27819D1*
X126226Y27856D1*
X126055Y27904D1*
X125889Y27965D1*
X125727Y28037D1*
X125570Y28120D1*
X125420Y28214D1*
X125276Y28318D1*
X125140Y28432D1*
X125013Y28555D1*
X124894Y28687D1*
X124785Y28827D1*
X124686Y28974D1*
X124597Y29127D1*
X124520Y29287D1*
X124453Y29451D1*
X124398Y29619D1*
X124356Y29791D1*
X124325Y29966D1*
X124306Y30142D1*
X124300Y30319D1*
X88869Y94836D2*
X92421D1*
X88869Y97884D2*
X92421D1*
Y94836D2*
G03X92421Y97884I2J1524D01*
G01*
X88869D2*
G03X88869Y94836I-2J-1524D01*
G01*
X93056Y69944D2*
X89504D1*
X93056Y66896D2*
X89504D1*
Y69944D2*
G03X89504Y66896I-2J-1524D01*
G01*
X93056D2*
G03X93056Y69944I2J1524D01*
G01*
X89504Y26256D2*
X93056D1*
X89504Y29304D2*
X93056D1*
Y26256D2*
G03X93056Y29304I2J1524D01*
G01*
X89504D2*
G03X89504Y26256I-2J-1524D01*
G01*
X94579Y75070D2*
Y74470D1*
X94879Y74770D2*
X94279D1*
X88740D2*
X88746Y74947D1*
X88765Y75124D1*
X88796Y75298D1*
X88839Y75470D1*
X88893Y75639D1*
X88960Y75803D1*
X89037Y75962D1*
X89126Y76116D1*
X89225Y76263D1*
X89334Y76403D1*
X89453Y76534D1*
X89580Y76658D1*
X89716Y76772D1*
X89859Y76876D1*
X90010Y76970D1*
X90166Y77053D1*
X90328Y77125D1*
X90495Y77186D1*
X90665Y77235D1*
X90838Y77271D1*
X91014Y77296D1*
X91191Y77308D1*
X91368D1*
X91545Y77296D1*
X91720Y77271D1*
X91894Y77235D1*
X92064Y77186D1*
X92230Y77125D1*
X92392Y77053D1*
X92549Y76970D1*
X92699Y76876D1*
X92842Y76772D1*
X92978Y76658D1*
X93106Y76534D1*
X93224Y76403D1*
X93333Y76263D1*
X93433Y76116D1*
X93521Y75962D1*
X93599Y75803D1*
X93665Y75639D1*
X93720Y75470D1*
X93763Y75298D1*
X93794Y75124D1*
X93812Y74947D1*
X93818Y74770D1*
X93812Y74593D1*
X93794Y74417D1*
X93763Y74242D1*
X93720Y74070D1*
X93665Y73901D1*
X93599Y73737D1*
X93521Y73578D1*
X93433Y73424D1*
X93333Y73277D1*
X93224Y73137D1*
X93106Y73006D1*
X92978Y72882D1*
X92842Y72768D1*
X92699Y72664D1*
X92549Y72570D1*
X92392Y72487D1*
X92230Y72415D1*
X92064Y72354D1*
X91894Y72305D1*
X91720Y72269D1*
X91545Y72244D1*
X91368Y72232D1*
X91191D1*
X91014Y72244D1*
X90838Y72269D1*
X90665Y72305D1*
X90495Y72354D1*
X90328Y72415D1*
X90166Y72487D1*
X90010Y72570D1*
X89859Y72664D1*
X89716Y72768D1*
X89580Y72882D1*
X89453Y73006D1*
X89334Y73137D1*
X89225Y73277D1*
X89126Y73424D1*
X89037Y73578D1*
X88960Y73737D1*
X88893Y73901D1*
X88839Y74070D1*
X88796Y74242D1*
X88765Y74417D1*
X88746Y74593D1*
X88740Y74770D1*
X87346Y89710D2*
Y90310D1*
X87046Y90010D2*
X87646D1*
X88107D2*
X88113Y90187D1*
X88131Y90364D1*
X88162Y90538D1*
X88205Y90710D1*
X88260Y90879D1*
X88326Y91043D1*
X88404Y91202D1*
X88492Y91356D1*
X88592Y91503D1*
X88701Y91643D1*
X88819Y91774D1*
X88947Y91898D1*
X89083Y92012D1*
X89226Y92116D1*
X89376Y92210D1*
X89533Y92293D1*
X89695Y92365D1*
X89861Y92426D1*
X90031Y92475D1*
X90205Y92511D1*
X90380Y92536D1*
X90557Y92548D1*
X90734D1*
X90911Y92536D1*
X91087Y92511D1*
X91260Y92475D1*
X91430Y92426D1*
X91597Y92365D1*
X91759Y92293D1*
X91915Y92210D1*
X92066Y92116D1*
X92209Y92012D1*
X92345Y91898D1*
X92472Y91774D1*
X92591Y91643D1*
X92700Y91503D1*
X92799Y91356D1*
X92888Y91202D1*
X92965Y91043D1*
X93032Y90879D1*
X93086Y90710D1*
X93129Y90538D1*
X93160Y90364D1*
X93179Y90187D1*
X93185Y90010D1*
X93179Y89833D1*
X93160Y89657D1*
X93129Y89482D1*
X93086Y89310D1*
X93032Y89141D1*
X92965Y88977D1*
X92888Y88818D1*
X92799Y88664D1*
X92700Y88517D1*
X92591Y88377D1*
X92472Y88246D1*
X92345Y88122D1*
X92209Y88008D1*
X92066Y87904D1*
X91915Y87810D1*
X91759Y87727D1*
X91597Y87655D1*
X91430Y87594D1*
X91260Y87545D1*
X91087Y87509D1*
X90911Y87484D1*
X90734Y87472D1*
X90557D1*
X90380Y87484D1*
X90205Y87509D1*
X90031Y87545D1*
X89861Y87594D1*
X89695Y87655D1*
X89533Y87727D1*
X89376Y87810D1*
X89226Y87904D1*
X89083Y88008D1*
X88947Y88122D1*
X88819Y88246D1*
X88701Y88377D1*
X88592Y88517D1*
X88492Y88664D1*
X88404Y88818D1*
X88326Y88977D1*
X88260Y89141D1*
X88205Y89310D1*
X88162Y89482D1*
X88131Y89657D1*
X88113Y89833D1*
X88107Y90010D1*
X87981Y21130D2*
Y21730D1*
X87681Y21430D2*
X88281D1*
X88742D2*
X88748Y21607D1*
X88766Y21784D1*
X88797Y21958D1*
X88840Y22130D1*
X88895Y22299D1*
X88961Y22463D1*
X89039Y22622D1*
X89127Y22776D1*
X89227Y22923D1*
X89336Y23063D1*
X89454Y23194D1*
X89582Y23318D1*
X89718Y23432D1*
X89861Y23536D1*
X90011Y23630D1*
X90168Y23713D1*
X90330Y23785D1*
X90496Y23846D1*
X90666Y23895D1*
X90840Y23931D1*
X91015Y23956D1*
X91192Y23968D1*
X91369D1*
X91546Y23956D1*
X91722Y23931D1*
X91895Y23895D1*
X92065Y23846D1*
X92232Y23785D1*
X92394Y23713D1*
X92550Y23630D1*
X92701Y23536D1*
X92844Y23432D1*
X92980Y23318D1*
X93107Y23194D1*
X93226Y23063D1*
X93335Y22923D1*
X93434Y22776D1*
X93523Y22622D1*
X93600Y22463D1*
X93667Y22299D1*
X93721Y22130D1*
X93764Y21958D1*
X93795Y21784D1*
X93814Y21607D1*
X93820Y21430D1*
X93814Y21253D1*
X93795Y21077D1*
X93764Y20902D1*
X93721Y20730D1*
X93667Y20561D1*
X93600Y20397D1*
X93523Y20238D1*
X93434Y20084D1*
X93335Y19937D1*
X93226Y19797D1*
X93107Y19666D1*
X92980Y19542D1*
X92844Y19428D1*
X92701Y19324D1*
X92550Y19230D1*
X92394Y19147D1*
X92232Y19075D1*
X92065Y19014D1*
X91895Y18965D1*
X91722Y18929D1*
X91546Y18904D1*
X91369Y18892D1*
X91192D1*
X91015Y18904D1*
X90840Y18929D1*
X90666Y18965D1*
X90496Y19014D1*
X90330Y19075D1*
X90168Y19147D1*
X90011Y19230D1*
X89861Y19324D1*
X89718Y19428D1*
X89582Y19542D1*
X89454Y19666D1*
X89336Y19797D1*
X89227Y19937D1*
X89127Y20084D1*
X89039Y20238D1*
X88961Y20397D1*
X88895Y20561D1*
X88840Y20730D1*
X88797Y20902D1*
X88766Y21077D1*
X88748Y21253D1*
X88742Y21430D1*
X60929Y18636D2*
X64481D1*
X60929Y21684D2*
X64481D1*
Y18636D2*
G03X64481Y21684I2J1524D01*
G01*
X60929D2*
G03X60929Y18636I-2J-1524D01*
G01*
X67656Y85184D2*
X64104D1*
X67656Y82136D2*
X64104D1*
Y85184D2*
G03X64104Y82136I-2J-1524D01*
G01*
X67656D2*
G03X67656Y85184I2J1524D01*
G01*
X61100Y65121D2*
X60500D1*
X60800Y64821D2*
Y65421D1*
X58260Y68421D2*
X58266Y68598D1*
X58285Y68774D1*
X58316Y68949D1*
X58358Y69121D1*
X58413Y69289D1*
X58480Y69453D1*
X58557Y69613D1*
X58646Y69766D1*
X58745Y69913D1*
X58854Y70053D1*
X58973Y70185D1*
X59100Y70308D1*
X59236Y70422D1*
X59380Y70526D1*
X59530Y70620D1*
X59687Y70703D1*
X59849Y70775D1*
X60015Y70836D1*
X60186Y70884D1*
X60359Y70921D1*
X60535Y70946D1*
X60711Y70958D1*
X60889D1*
X61066Y70946D1*
X61241Y70921D1*
X61414Y70884D1*
X61585Y70836D1*
X61752Y70775D1*
X61913Y70703D1*
X62070Y70620D1*
X62220Y70526D1*
X62364Y70422D1*
X62500Y70308D1*
X62627Y70185D1*
X62746Y70053D1*
X62855Y69913D1*
X62954Y69766D1*
X63043Y69613D1*
X63120Y69453D1*
X63187Y69289D1*
X63242Y69121D1*
X63285Y68949D1*
X63315Y68774D1*
X63334Y68598D1*
X63340Y68421D1*
X63334Y68244D1*
X63315Y68067D1*
X63285Y67893D1*
X63242Y67721D1*
X63187Y67552D1*
X63120Y67388D1*
X63043Y67229D1*
X62954Y67075D1*
X62855Y66928D1*
X62746Y66789D1*
X62627Y66657D1*
X62500Y66534D1*
X62364Y66420D1*
X62220Y66316D1*
X62070Y66222D1*
X61913Y66139D1*
X61752Y66067D1*
X61585Y66006D1*
X61414Y65957D1*
X61241Y65920D1*
X61066Y65896D1*
X60889Y65883D1*
X60711D1*
X60535Y65896D1*
X60359Y65920D1*
X60186Y65957D1*
X60015Y66006D1*
X59849Y66067D1*
X59687Y66139D1*
X59530Y66222D1*
X59380Y66316D1*
X59236Y66420D1*
X59100Y66534D1*
X58973Y66657D1*
X58854Y66789D1*
X58745Y66928D1*
X58646Y67075D1*
X58557Y67229D1*
X58480Y67388D1*
X58413Y67552D1*
X58358Y67721D1*
X58316Y67893D1*
X58285Y68067D1*
X58266Y68244D1*
X58260Y68421D1*
X61100Y53691D2*
X60500D1*
X60800Y53391D2*
Y53991D1*
X58260Y56991D2*
X58266Y57168D1*
X58285Y57344D1*
X58316Y57519D1*
X58358Y57691D1*
X58413Y57859D1*
X58480Y58023D1*
X58557Y58183D1*
X58646Y58336D1*
X58745Y58483D1*
X58854Y58623D1*
X58973Y58755D1*
X59100Y58878D1*
X59236Y58992D1*
X59380Y59096D1*
X59530Y59190D1*
X59687Y59273D1*
X59849Y59345D1*
X60015Y59406D1*
X60186Y59454D1*
X60359Y59491D1*
X60535Y59516D1*
X60711Y59528D1*
X60889D1*
X61066Y59516D1*
X61241Y59491D1*
X61414Y59454D1*
X61585Y59406D1*
X61752Y59345D1*
X61913Y59273D1*
X62070Y59190D1*
X62220Y59096D1*
X62364Y58992D1*
X62500Y58878D1*
X62627Y58755D1*
X62746Y58623D1*
X62855Y58483D1*
X62954Y58336D1*
X63043Y58183D1*
X63120Y58023D1*
X63187Y57859D1*
X63242Y57691D1*
X63285Y57519D1*
X63315Y57344D1*
X63334Y57168D1*
X63340Y56991D1*
X63334Y56814D1*
X63315Y56637D1*
X63285Y56463D1*
X63242Y56291D1*
X63187Y56122D1*
X63120Y55958D1*
X63043Y55799D1*
X62954Y55645D1*
X62855Y55498D1*
X62746Y55359D1*
X62627Y55227D1*
X62500Y55104D1*
X62364Y54990D1*
X62220Y54886D1*
X62070Y54792D1*
X61913Y54709D1*
X61752Y54637D1*
X61585Y54576D1*
X61414Y54527D1*
X61241Y54490D1*
X61066Y54466D1*
X60889Y54453D1*
X60711D1*
X60535Y54466D1*
X60359Y54490D1*
X60186Y54527D1*
X60015Y54576D1*
X59849Y54637D1*
X59687Y54709D1*
X59530Y54792D1*
X59380Y54886D1*
X59236Y54990D1*
X59100Y55104D1*
X58973Y55227D1*
X58854Y55359D1*
X58745Y55498D1*
X58646Y55645D1*
X58557Y55799D1*
X58480Y55958D1*
X58413Y56122D1*
X58358Y56291D1*
X58316Y56463D1*
X58285Y56637D1*
X58266Y56814D1*
X58260Y56991D1*
X35100Y90769D2*
X35700D1*
X35400Y91069D2*
Y90469D1*
X32860Y87469D2*
X32866Y87646D1*
X32885Y87823D1*
X32916Y87997D1*
X32958Y88169D1*
X33013Y88338D1*
X33080Y88502D1*
X33157Y88661D1*
X33246Y88815D1*
X33345Y88962D1*
X33454Y89101D1*
X33573Y89233D1*
X33700Y89356D1*
X33836Y89470D1*
X33980Y89574D1*
X34130Y89668D1*
X34287Y89751D1*
X34449Y89823D1*
X34615Y89884D1*
X34786Y89933D1*
X34959Y89970D1*
X35135Y89994D1*
X35311Y90007D1*
X35489D1*
X35666Y89994D1*
X35841Y89970D1*
X36014Y89933D1*
X36185Y89884D1*
X36352Y89823D1*
X36513Y89751D1*
X36670Y89668D1*
X36820Y89574D1*
X36964Y89470D1*
X37100Y89356D1*
X37227Y89233D1*
X37346Y89101D1*
X37455Y88962D1*
X37554Y88815D1*
X37643Y88661D1*
X37720Y88502D1*
X37787Y88338D1*
X37842Y88169D1*
X37885Y87997D1*
X37915Y87823D1*
X37934Y87646D1*
X37940Y87469D1*
X37934Y87292D1*
X37915Y87116D1*
X37885Y86941D1*
X37842Y86769D1*
X37787Y86601D1*
X37720Y86437D1*
X37643Y86277D1*
X37554Y86124D1*
X37455Y85977D1*
X37346Y85837D1*
X37227Y85705D1*
X37100Y85582D1*
X36964Y85468D1*
X36820Y85364D1*
X36670Y85270D1*
X36513Y85187D1*
X36352Y85115D1*
X36185Y85054D1*
X36014Y85006D1*
X35841Y84969D1*
X35666Y84944D1*
X35489Y84932D1*
X35311D1*
X35135Y84944D1*
X34959Y84969D1*
X34786Y85006D1*
X34615Y85054D1*
X34449Y85115D1*
X34287Y85187D1*
X34130Y85270D1*
X33980Y85364D1*
X33836Y85468D1*
X33700Y85582D1*
X33573Y85705D1*
X33454Y85837D1*
X33345Y85977D1*
X33246Y86124D1*
X33157Y86277D1*
X33080Y86437D1*
X33013Y86601D1*
X32958Y86769D1*
X32916Y86941D1*
X32885Y87116D1*
X32866Y87292D1*
X32860Y87469D1*
X42720Y50129D2*
X43320D1*
X43020Y50429D2*
Y49829D1*
X40480Y46829D2*
X40486Y47006D1*
X40505Y47183D1*
X40536Y47357D1*
X40578Y47529D1*
X40633Y47698D1*
X40700Y47862D1*
X40777Y48021D1*
X40866Y48175D1*
X40965Y48322D1*
X41074Y48461D1*
X41193Y48593D1*
X41320Y48716D1*
X41456Y48830D1*
X41600Y48934D1*
X41750Y49028D1*
X41907Y49111D1*
X42069Y49183D1*
X42235Y49244D1*
X42406Y49293D1*
X42579Y49330D1*
X42755Y49354D1*
X42931Y49367D1*
X43109D1*
X43286Y49354D1*
X43461Y49330D1*
X43634Y49293D1*
X43805Y49244D1*
X43972Y49183D1*
X44133Y49111D1*
X44290Y49028D1*
X44440Y48934D1*
X44584Y48830D1*
X44720Y48716D1*
X44847Y48593D1*
X44966Y48461D1*
X45075Y48322D1*
X45174Y48175D1*
X45263Y48021D1*
X45340Y47862D1*
X45407Y47698D1*
X45462Y47529D1*
X45505Y47357D1*
X45535Y47183D1*
X45554Y47006D1*
X45560Y46829D1*
X45554Y46652D1*
X45535Y46476D1*
X45505Y46301D1*
X45462Y46129D1*
X45407Y45961D1*
X45340Y45797D1*
X45263Y45637D1*
X45174Y45484D1*
X45075Y45337D1*
X44966Y45197D1*
X44847Y45065D1*
X44720Y44942D1*
X44584Y44828D1*
X44440Y44724D1*
X44290Y44630D1*
X44133Y44547D1*
X43972Y44475D1*
X43805Y44414D1*
X43634Y44366D1*
X43461Y44329D1*
X43286Y44304D1*
X43109Y44292D1*
X42931D1*
X42755Y44304D1*
X42579Y44329D1*
X42406Y44366D1*
X42235Y44414D1*
X42069Y44475D1*
X41907Y44547D1*
X41750Y44630D1*
X41600Y44724D1*
X41456Y44828D1*
X41320Y44942D1*
X41193Y45065D1*
X41074Y45197D1*
X40965Y45337D1*
X40866Y45484D1*
X40777Y45637D1*
X40700Y45797D1*
X40633Y45961D1*
X40578Y46129D1*
X40536Y46301D1*
X40505Y46476D1*
X40486Y46652D1*
X40480Y46829D1*
X69108Y77440D2*
Y74640D1*
X69057D2*
X64353D1*
X68350Y77440D2*
Y74640D1*
X64353Y77440D2*
Y74640D1*
X69057Y77440D2*
X64353D1*
X65192Y49240D2*
Y52040D1*
X65243D2*
X69947D1*
X65950Y49240D2*
Y52040D1*
X69947Y49240D2*
Y52040D1*
X65243Y49240D2*
X69947D1*
X53050Y72918D2*
X55850D1*
Y72867D2*
Y68163D1*
X53050Y72160D2*
X55850D1*
X53050Y68163D2*
X55850D1*
X53050Y72867D2*
Y68163D1*
Y55138D2*
X55850D1*
Y55087D2*
Y50383D1*
X53050Y54380D2*
X55850D1*
X53050Y50383D2*
X55850D1*
X53050Y55087D2*
Y50383D1*
X199814Y63213D2*
D31*
Y69232D1*
Y63213D2*
X206266D1*
Y69310D1*
X199814D1*
X206266Y83467D2*
Y77448D1*
Y83467D2*
X199814D1*
Y77370D1*
X206266D1*
X107790Y88740D2*
D10*
X105250D1*
X107790Y83660D2*
Y88740D1*
Y83660D2*
X105250D1*
Y88740D1*
Y48100D2*
X107790D1*
X105250Y53180D2*
Y48100D1*
Y53180D2*
X107790D1*
Y48100D1*
Y23970D2*
X105250D1*
X107790Y18890D2*
Y23970D1*
Y18890D2*
X105250D1*
Y23970D1*
X196377Y49297D2*
X196387Y49591D1*
X196418Y49884D1*
X196470Y50174D1*
X196541Y50460D1*
X196633Y50740D1*
X196744Y51013D1*
X196874Y51278D1*
X197022Y51533D1*
X197188Y51777D1*
X197371Y52009D1*
X197569Y52228D1*
X197783Y52432D1*
X198010Y52622D1*
X198250Y52795D1*
X198502Y52951D1*
X198764Y53089D1*
X199035Y53209D1*
X199313Y53309D1*
X199599Y53391D1*
X199889Y53452D1*
X200182Y53493D1*
X200478Y53513D1*
X200775D1*
X201071Y53493D1*
X201365Y53452D1*
X201655Y53391D1*
X201940Y53309D1*
X202219Y53209D1*
X202490Y53089D1*
X202752Y52951D1*
X203003Y52795D1*
X203243Y52622D1*
X203470Y52432D1*
X203684Y52228D1*
X203882Y52009D1*
X204065Y51777D1*
X204231Y51533D1*
X204379Y51278D1*
X204509Y51013D1*
X204620Y50740D1*
X204712Y50460D1*
X204784Y50174D1*
X204835Y49884D1*
X204866Y49591D1*
X204877Y49297D1*
X204866Y49003D1*
X204835Y48710D1*
X204784Y48420D1*
X204712Y48134D1*
X204620Y47854D1*
X204509Y47581D1*
X204379Y47317D1*
X204231Y47062D1*
X204065Y46817D1*
X203882Y46585D1*
X203684Y46367D1*
X203470Y46162D1*
X203243Y45973D1*
X203003Y45800D1*
X202752Y45644D1*
X202490Y45505D1*
X202219Y45386D1*
X201940Y45285D1*
X201655Y45204D1*
X201365Y45142D1*
X201071Y45101D1*
X200775Y45081D1*
X200478D1*
X200182Y45101D1*
X199889Y45142D1*
X199599Y45204D1*
X199313Y45285D1*
X199035Y45386D1*
X198764Y45505D1*
X198502Y45644D1*
X198250Y45800D1*
X198010Y45973D1*
X197783Y46162D1*
X197569Y46367D1*
X197371Y46585D1*
X197188Y46817D1*
X197022Y47062D1*
X196874Y47317D1*
X196744Y47581D1*
X196633Y47854D1*
X196541Y48134D1*
X196470Y48420D1*
X196418Y48710D1*
X196387Y49003D1*
X196377Y49297D1*
X200485Y51954D2*
D35*
G02X199234Y51496I-493J-590D01*
G01*
X200452Y51954D2*
G03X201700Y51496I491J-590D01*
G01*
X199242Y51554D2*
X198368D1*
X202585Y51478D2*
X201709D1*
X111287Y100097D2*
D10*
X111297Y100391D1*
X111328Y100684D1*
X111380Y100974D1*
X111451Y101260D1*
X111543Y101540D1*
X111654Y101813D1*
X111784Y102078D1*
X111932Y102333D1*
X112098Y102577D1*
X112281Y102809D1*
X112479Y103028D1*
X112693Y103232D1*
X112920Y103422D1*
X113160Y103595D1*
X113412Y103751D1*
X113674Y103889D1*
X113945Y104009D1*
X114223Y104109D1*
X114509Y104191D1*
X114799Y104252D1*
X115092Y104293D1*
X115388Y104313D1*
X115685D1*
X115981Y104293D1*
X116275Y104252D1*
X116565Y104191D1*
X116850Y104109D1*
X117129Y104009D1*
X117400Y103889D1*
X117662Y103751D1*
X117913Y103595D1*
X118153Y103422D1*
X118380Y103232D1*
X118594Y103028D1*
X118792Y102809D1*
X118975Y102577D1*
X119141Y102333D1*
X119289Y102078D1*
X119419Y101813D1*
X119530Y101540D1*
X119622Y101260D1*
X119694Y100974D1*
X119745Y100684D1*
X119776Y100391D1*
X119787Y100097D1*
X119776Y99803D1*
X119745Y99510D1*
X119694Y99220D1*
X119622Y98934D1*
X119530Y98654D1*
X119419Y98381D1*
X119289Y98117D1*
X119141Y97862D1*
X118975Y97617D1*
X118792Y97385D1*
X118594Y97167D1*
X118380Y96962D1*
X118153Y96773D1*
X117913Y96600D1*
X117662Y96444D1*
X117400Y96305D1*
X117129Y96186D1*
X116850Y96085D1*
X116565Y96004D1*
X116275Y95942D1*
X115981Y95901D1*
X115685Y95881D1*
X115388D1*
X115092Y95901D1*
X114799Y95942D1*
X114509Y96004D1*
X114223Y96085D1*
X113945Y96186D1*
X113674Y96305D1*
X113412Y96444D1*
X113160Y96600D1*
X112920Y96773D1*
X112693Y96962D1*
X112479Y97167D1*
X112281Y97385D1*
X112098Y97617D1*
X111932Y97862D1*
X111784Y98117D1*
X111654Y98381D1*
X111543Y98654D1*
X111451Y98934D1*
X111380Y99220D1*
X111328Y99510D1*
X111297Y99803D1*
X111287Y100097D1*
X115395Y102754D2*
D35*
G02X114144Y102296I-493J-590D01*
G01*
X115362Y102754D2*
G03X116610Y102296I491J-590D01*
G01*
X114152Y102354D2*
X113278D1*
X117495Y102278D2*
X116619D1*
X113827Y63267D2*
D10*
X113837Y63561D1*
X113868Y63854D1*
X113920Y64144D1*
X113991Y64430D1*
X114083Y64710D1*
X114194Y64983D1*
X114324Y65248D1*
X114472Y65503D1*
X114638Y65747D1*
X114821Y65979D1*
X115019Y66198D1*
X115233Y66402D1*
X115460Y66592D1*
X115700Y66765D1*
X115952Y66921D1*
X116214Y67059D1*
X116485Y67179D1*
X116763Y67279D1*
X117049Y67361D1*
X117339Y67422D1*
X117632Y67463D1*
X117928Y67483D1*
X118225D1*
X118521Y67463D1*
X118815Y67422D1*
X119105Y67361D1*
X119390Y67279D1*
X119669Y67179D1*
X119940Y67059D1*
X120202Y66921D1*
X120453Y66765D1*
X120693Y66592D1*
X120920Y66402D1*
X121134Y66198D1*
X121332Y65979D1*
X121515Y65747D1*
X121681Y65503D1*
X121829Y65248D1*
X121959Y64983D1*
X122070Y64710D1*
X122162Y64430D1*
X122234Y64144D1*
X122285Y63854D1*
X122316Y63561D1*
X122327Y63267D1*
X122316Y62973D1*
X122285Y62680D1*
X122234Y62390D1*
X122162Y62104D1*
X122070Y61824D1*
X121959Y61551D1*
X121829Y61287D1*
X121681Y61032D1*
X121515Y60787D1*
X121332Y60555D1*
X121134Y60337D1*
X120920Y60132D1*
X120693Y59943D1*
X120453Y59770D1*
X120202Y59614D1*
X119940Y59475D1*
X119669Y59356D1*
X119390Y59255D1*
X119105Y59174D1*
X118815Y59112D1*
X118521Y59071D1*
X118225Y59051D1*
X117928D1*
X117632Y59071D1*
X117339Y59112D1*
X117049Y59174D1*
X116763Y59255D1*
X116485Y59356D1*
X116214Y59475D1*
X115952Y59614D1*
X115700Y59770D1*
X115460Y59943D1*
X115233Y60132D1*
X115019Y60337D1*
X114821Y60555D1*
X114638Y60787D1*
X114472Y61032D1*
X114324Y61287D1*
X114194Y61551D1*
X114083Y61824D1*
X113991Y62104D1*
X113920Y62390D1*
X113868Y62680D1*
X113837Y62973D1*
X113827Y63267D1*
X117935Y65924D2*
D35*
G02X116684Y65466I-493J-590D01*
G01*
X117902Y65924D2*
G03X119150Y65466I491J-590D01*
G01*
X116692Y65524D2*
X115818D1*
X120035Y65448D2*
X119159D1*
X113827Y31517D2*
D10*
X113837Y31811D1*
X113868Y32104D1*
X113920Y32394D1*
X113991Y32680D1*
X114083Y32960D1*
X114194Y33233D1*
X114324Y33498D1*
X114472Y33753D1*
X114638Y33997D1*
X114821Y34229D1*
X115019Y34448D1*
X115233Y34652D1*
X115460Y34842D1*
X115700Y35015D1*
X115952Y35171D1*
X116214Y35309D1*
X116485Y35429D1*
X116763Y35529D1*
X117049Y35611D1*
X117339Y35672D1*
X117632Y35713D1*
X117928Y35733D1*
X118225D1*
X118521Y35713D1*
X118815Y35672D1*
X119105Y35611D1*
X119390Y35529D1*
X119669Y35429D1*
X119940Y35309D1*
X120202Y35171D1*
X120453Y35015D1*
X120693Y34842D1*
X120920Y34652D1*
X121134Y34448D1*
X121332Y34229D1*
X121515Y33997D1*
X121681Y33753D1*
X121829Y33498D1*
X121959Y33233D1*
X122070Y32960D1*
X122162Y32680D1*
X122234Y32394D1*
X122285Y32104D1*
X122316Y31811D1*
X122327Y31517D1*
X122316Y31223D1*
X122285Y30930D1*
X122234Y30640D1*
X122162Y30354D1*
X122070Y30074D1*
X121959Y29801D1*
X121829Y29537D1*
X121681Y29282D1*
X121515Y29037D1*
X121332Y28805D1*
X121134Y28587D1*
X120920Y28382D1*
X120693Y28193D1*
X120453Y28020D1*
X120202Y27864D1*
X119940Y27725D1*
X119669Y27606D1*
X119390Y27505D1*
X119105Y27424D1*
X118815Y27362D1*
X118521Y27321D1*
X118225Y27301D1*
X117928D1*
X117632Y27321D1*
X117339Y27362D1*
X117049Y27424D1*
X116763Y27505D1*
X116485Y27606D1*
X116214Y27725D1*
X115952Y27864D1*
X115700Y28020D1*
X115460Y28193D1*
X115233Y28382D1*
X115019Y28587D1*
X114821Y28805D1*
X114638Y29037D1*
X114472Y29282D1*
X114324Y29537D1*
X114194Y29801D1*
X114083Y30074D1*
X113991Y30354D1*
X113920Y30640D1*
X113868Y30930D1*
X113837Y31223D1*
X113827Y31517D1*
X117935Y34174D2*
D35*
G02X116684Y33716I-493J-590D01*
G01*
X117902Y34174D2*
G03X119150Y33716I491J-590D01*
G01*
X116692Y33774D2*
X115818D1*
X120035Y33698D2*
X119159D1*
X25240Y23337D2*
D10*
Y27143D1*
X25246Y23329D2*
G03X25246Y27151I2535J1911D01*
G01*
X25240Y98267D2*
Y102073D1*
X25246Y98259D2*
G03X25246Y102081I2535J1911D01*
G01*
X25240Y48737D2*
Y52543D1*
X25246Y48729D2*
G03X25246Y52551I2535J1911D01*
G01*
X176370Y81119D2*
X148430D1*
Y106520D1*
X176370D1*
Y81119D1*
Y46829D2*
X148430D1*
Y72230D1*
X176370D1*
Y46829D1*
Y12539D2*
X148430D1*
Y37940D1*
X176370D1*
Y12539D1*
X187800Y106520D2*
X137000D1*
Y81120D1*
X187800D1*
Y106520D1*
Y72230D2*
X137000D1*
Y46830D1*
X187800D1*
Y72230D1*
Y37940D2*
X137000D1*
Y12540D1*
X187800D1*
Y37940D1*
X107147Y101440D2*
X91923D1*
Y106520D2*
Y101440D1*
X107147Y106520D2*
X91923D1*
X107147D2*
Y101440D1*
X107782Y58260D2*
X92558D1*
Y63340D2*
Y58260D1*
X107782Y63340D2*
X92558D1*
X107782D2*
Y58260D1*
Y32860D2*
X92558D1*
Y37940D2*
Y32860D1*
X107782Y37940D2*
X92558D1*
X107782D2*
Y32860D1*
X79850Y73502D2*
Y65878D1*
X77310D2*
X79850D1*
X77310Y73502D2*
Y65878D1*
Y73502D2*
X79850D1*
X77310Y48098D2*
Y55722D1*
X79850D2*
X77310D1*
X79850Y48098D2*
Y55722D1*
Y48098D2*
X77310D1*
X36670Y27782D2*
Y20158D1*
X34130D2*
X36670D1*
X34130Y27782D2*
Y20158D1*
Y27782D2*
X36670D1*
X48100Y65878D2*
Y73502D1*
X50640D2*
X48100D1*
X50640Y65878D2*
Y73502D1*
Y65878D2*
X48100D1*
Y48098D2*
Y55722D1*
X50640D2*
X48100D1*
X50640Y48098D2*
Y55722D1*
Y48098D2*
X48100D1*
X36670Y102712D2*
Y95088D1*
X34130D2*
X36670D1*
X34130Y102712D2*
Y95088D1*
Y102712D2*
X36670D1*
X34130Y45558D2*
Y53182D1*
X36670D2*
X34130D1*
X36670Y45558D2*
Y53182D1*
Y45558D2*
X34130D1*
X114148Y90010D2*
X129372D1*
Y84930D2*
Y90010D1*
X114148Y84930D2*
X129372D1*
X114148D2*
Y90010D1*
Y53180D2*
X129372D1*
Y48100D2*
Y53180D1*
X114148Y48100D2*
X129372D1*
X114148D2*
Y53180D1*
Y25240D2*
X129372D1*
Y20160D2*
Y25240D1*
X114148Y20160D2*
X129372D1*
X114148D2*
Y25240D1*
X64940Y70830D2*
Y66030D1*
X74440Y70830D2*
Y66030D1*
X68020Y70530D2*
X71020D1*
X64940Y70830D2*
X65790D1*
Y70530D1*
X73490D2*
Y70830D1*
X74440D1*
X64940Y66030D2*
X74440D1*
X65790Y70520D2*
X66090D1*
X73490D2*
X73340D1*
X64940Y59400D2*
Y54600D1*
X74440Y59400D2*
Y54600D1*
X68020Y59100D2*
X71020D1*
X64940Y59400D2*
X65790D1*
Y59100D1*
X73490D2*
Y59400D1*
X74440D1*
X64940Y54600D2*
X74440D1*
X65790Y59090D2*
X66090D1*
X73490D2*
X73340D1*
X68574Y26750D2*
X57974D1*
X68574Y26250D2*
X57974D1*
X68574Y31150D2*
X57974D1*
X68574D2*
Y26250D1*
X57974Y31150D2*
Y26250D1*
X59610Y93980D2*
X69610D1*
Y89480D1*
X59610D1*
Y93980D1*
Y93080D2*
X69610D1*
X54827Y13303D2*
D35*
G02X53557Y13303I-635J-1D01*
G01*
X43395Y12921D2*
G02X42379Y13683I-508J382D01*
G01*
X49111Y13100D2*
G02X47799Y13464I-636J255D01*
G01*
X43138Y19399D2*
G02X42623Y20563I-254J584D01*
G01*
X54827Y13303D2*
Y24350D1*
X47791Y13429D2*
X48782Y16451D1*
X52844Y18662D2*
X53557Y13250D1*
X47255Y21481D2*
X43138Y19399D1*
X51549Y19016D2*
X49111Y13100D1*
X47791Y17188D2*
X43345Y12871D1*
X48095Y20593D2*
X42379Y13658D1*
X71853Y26130D2*
X54827D1*
X48474Y23842D2*
X42606Y20540D1*
X52836Y18599D2*
G03X51524Y18966I-676J111D01*
G01*
X48732Y16351D2*
G03X47715Y17113I-510J378D01*
G01*
X48095Y20565D2*
G03X47200Y21453I-535J355D01*
G01*
X73122Y37177D2*
G03X71853Y37177I-635J1D01*
G01*
X84301Y36797D2*
G03X83284Y37559I-509J380D01*
G01*
X78880Y37016D2*
G03X77568Y37380I-676J110D01*
G01*
X84056Y29917D2*
G03X83542Y31081I-261J581D01*
G01*
X71853Y37177D2*
Y26130D1*
X78889Y37051D2*
X77902Y34029D1*
X73835Y31818D2*
X73122Y37230D1*
X79425Y28999D2*
X83542Y31081D1*
X75130Y31464D2*
X77568Y37380D1*
X78889Y33292D2*
X83339Y37609D1*
X78585Y29887D2*
X84301Y36822D1*
X78205Y26638D2*
X84073Y29940D1*
X75156Y31514D2*
G02X73844Y31881I-636J256D01*
G01*
X78969Y33367D2*
G02X77952Y34129I-508J382D01*
G01*
X79479Y29030D2*
G02X78585Y29915I-361J530D01*
G01*
X54827Y37177D2*
G03X53557Y37177I-635J1D01*
G01*
X43395Y37559D2*
G03X42379Y36797I-508J-382D01*
G01*
X49111Y37380D2*
G03X47799Y37016I-636J-255D01*
G01*
X43138Y31081D2*
G03X42623Y29917I-254J-584D01*
G01*
X54827Y37177D2*
Y26130D1*
X47791Y37051D2*
X48782Y34029D1*
X52844Y31818D2*
X53557Y37230D1*
X47255Y28999D2*
X43138Y31081D1*
X51549Y31464D2*
X49111Y37380D1*
X47791Y33292D2*
X43345Y37609D1*
X48095Y29887D2*
X42379Y36822D1*
X48474Y26638D2*
X42606Y29940D1*
X52836Y31881D2*
G02X51524Y31514I-676J-111D01*
G01*
X48732Y34129D2*
G02X47715Y33367I-510J-378D01*
G01*
X48095Y29915D2*
G02X47200Y29030I-534J-355D01*
G01*
X73122Y13303D2*
G02X71853Y13303I-635J-1D01*
G01*
X84301Y13683D2*
G02X83284Y12921I-509J-380D01*
G01*
X78880Y13464D2*
G02X77568Y13100I-676J-110D01*
G01*
X84056Y20563D2*
G02X83542Y19399I-261J-581D01*
G01*
X71853Y13303D2*
Y24350D1*
X78889Y13429D2*
X77902Y16451D1*
X73835Y18662D2*
X73122Y13250D1*
X79425Y21481D2*
X83542Y19399D1*
X75130Y19016D2*
X77568Y13100D1*
X78889Y17188D2*
X83339Y12871D1*
X78585Y20593D2*
X84301Y13658D1*
X78205Y23842D2*
X84073Y20540D1*
X75156Y18966D2*
G03X73844Y18599I-636J-256D01*
G01*
X78969Y17113D2*
G03X77952Y16351I-508J-382D01*
G01*
X79479Y21451D2*
G03X78585Y20565I-361J-530D01*
G01*
X70962Y21810D2*
D45*
Y23842D1*
X71853Y24350D2*
X70962D1*
X68841D1*
X57839D1*
X54827D1*
X70962D2*
X70583Y23716D1*
X70709D1*
X71342D2*
X70962Y24350D1*
X70709Y23716D2*
X70962Y24224D1*
X70709Y23716D2*
X71216D1*
X70962Y24224D2*
Y24350D1*
Y24224D2*
X71216Y23716D1*
X71342D1*
X71216D2*
X70962Y23842D1*
Y24224D1*
Y23842D2*
X70709Y23716D1*
X57839Y24350D2*
D35*
Y26100D1*
X68841Y24350D2*
Y26100D1*
X56097Y83153D2*
G02X54827Y83153I-635J-1D01*
G01*
X44665Y82771D2*
G02X43649Y83533I-508J382D01*
G01*
X50381Y82950D2*
G02X49069Y83314I-636J255D01*
G01*
X44408Y89249D2*
G02X43893Y90413I-254J584D01*
G01*
X56097Y83153D2*
Y94200D1*
X49061Y83279D2*
X50052Y86301D1*
X54114Y88512D2*
X54827Y83100D1*
X48525Y91331D2*
X44408Y89249D1*
X52819Y88866D2*
X50381Y82950D1*
X49061Y87038D2*
X44615Y82721D1*
X49365Y90443D2*
X43649Y83508D1*
X73123Y95980D2*
X56097D1*
X49744Y93692D2*
X43876Y90390D1*
X54106Y88449D2*
G03X52794Y88816I-676J111D01*
G01*
X50002Y86201D2*
G03X48985Y86963I-510J378D01*
G01*
X49365Y90415D2*
G03X48470Y91303I-535J355D01*
G01*
X74392Y107027D2*
G03X73123Y107027I-635J1D01*
G01*
X85571Y106647D2*
G03X84554Y107409I-509J380D01*
G01*
X80150Y106866D2*
G03X78838Y107230I-676J110D01*
G01*
X85326Y99767D2*
G03X84812Y100931I-261J581D01*
G01*
X73123Y107027D2*
Y95980D1*
X80159Y106901D2*
X79172Y103879D1*
X75105Y101668D2*
X74392Y107080D1*
X80695Y98849D2*
X84812Y100931D1*
X76400Y101314D2*
X78838Y107230D1*
X80159Y103142D2*
X84609Y107459D1*
X79855Y99737D2*
X85571Y106672D1*
X79475Y96488D2*
X85343Y99790D1*
X76426Y101364D2*
G02X75114Y101731I-636J256D01*
G01*
X80239Y103217D2*
G02X79222Y103979I-508J382D01*
G01*
X80749Y98880D2*
G02X79855Y99765I-361J530D01*
G01*
X56097Y107027D2*
G03X54827Y107027I-635J1D01*
G01*
X44665Y107409D2*
G03X43649Y106647I-508J-382D01*
G01*
X50381Y107230D2*
G03X49069Y106866I-636J-255D01*
G01*
X44408Y100931D2*
G03X43893Y99767I-254J-584D01*
G01*
X56097Y107027D2*
Y95980D1*
X49061Y106901D2*
X50052Y103879D1*
X54114Y101668D2*
X54827Y107080D1*
X48525Y98849D2*
X44408Y100931D1*
X52819Y101314D2*
X50381Y107230D1*
X49061Y103142D2*
X44615Y107459D1*
X49365Y99737D2*
X43649Y106672D1*
X49744Y96488D2*
X43876Y99790D1*
X54106Y101731D2*
G02X52794Y101364I-676J-111D01*
G01*
X50002Y103979D2*
G02X48985Y103217I-510J-378D01*
G01*
X49365Y99765D2*
G02X48470Y98880I-534J-355D01*
G01*
X74392Y83153D2*
G02X73123Y83153I-635J-1D01*
G01*
X85571Y83533D2*
G02X84554Y82771I-509J-380D01*
G01*
X80150Y83314D2*
G02X78838Y82950I-676J-110D01*
G01*
X85326Y90413D2*
G02X84812Y89249I-261J-581D01*
G01*
X73123Y83153D2*
Y94200D1*
X80159Y83279D2*
X79172Y86301D1*
X75105Y88512D2*
X74392Y83100D1*
X80695Y91331D2*
X84812Y89249D1*
X76400Y88866D2*
X78838Y82950D1*
X80159Y87038D2*
X84609Y82721D1*
X79855Y90443D2*
X85571Y83508D1*
X79475Y93692D2*
X85343Y90390D1*
X76426Y88816D2*
G03X75114Y88449I-636J-256D01*
G01*
X80239Y86963D2*
G03X79222Y86201I-508J-382D01*
G01*
X80749Y91301D2*
G03X79855Y90415I-361J-530D01*
G01*
X72232Y91660D2*
D45*
Y93692D1*
X73123Y94200D2*
X72232D1*
X70111D1*
X59109D1*
X56097D1*
X72232D2*
X71853Y93566D1*
X71979D1*
X72612D2*
X72232Y94200D1*
X71979Y93566D2*
X72232Y94074D1*
X71979Y93566D2*
X72486D1*
X72232Y94074D2*
Y94200D1*
Y94074D2*
X72486Y93566D1*
X72612D1*
X72486D2*
X72232Y93692D1*
Y94074D1*
Y93692D2*
X71979Y93566D1*
X59109Y94200D2*
D35*
Y95950D1*
X70111Y94200D2*
Y95950D1*
X192457Y92837D2*
D91*
X192397Y92957D1*
X192275Y93080D1*
X192154Y93140D1*
X191911D1*
X191789Y93080D1*
X191669Y92957D1*
X191607Y92837D1*
X191546Y92654D1*
Y92350D1*
X191607Y92168D1*
X191669Y92046D1*
X191789Y91926D1*
X191911Y91864D1*
X192154D1*
X192275Y91926D1*
X192397Y92046D1*
X192457Y92168D1*
X192850Y92896D2*
X192972Y92957D1*
X193154Y93138D1*
Y91864D1*
X192184Y59817D2*
X192124Y59937D1*
X192002Y60060D1*
X191881Y60120D1*
X191638D1*
X191516Y60060D1*
X191395Y59937D1*
X191334Y59817D1*
X191273Y59634D1*
Y59330D1*
X191334Y59148D1*
X191395Y59026D1*
X191516Y58906D1*
X191638Y58844D1*
X191881D1*
X192002Y58906D1*
X192124Y59026D1*
X192184Y59148D1*
X192638Y59815D2*
Y59876D1*
X192699Y59998D1*
X192759Y60058D1*
X192881Y60118D1*
X193124D1*
X193245Y60058D1*
X193305Y59998D1*
X193367Y59876D1*
Y59755D1*
X193305Y59633D1*
X193184Y59452D1*
X192577Y58844D1*
X193427D1*
X192184Y45847D2*
X192124Y45967D1*
X192002Y46090D1*
X191881Y46150D1*
X191638D1*
X191516Y46090D1*
X191395Y45967D1*
X191334Y45847D1*
X191273Y45664D1*
Y45360D1*
X191334Y45178D1*
X191395Y45056D1*
X191516Y44936D1*
X191638Y44874D1*
X191881D1*
X192002Y44936D1*
X192124Y45056D1*
X192184Y45178D1*
X192699Y46148D2*
X193366D1*
X193002Y45663D1*
X193184D1*
X193305Y45602D1*
X193366Y45542D1*
X193427Y45360D1*
Y45239D1*
X193366Y45056D1*
X193245Y44934D1*
X193062Y44874D1*
X192880D1*
X192699Y44934D1*
X192638Y44996D1*
X192577Y45117D1*
X192684Y99441D2*
X192624Y99561D1*
X192501Y99684D1*
X192381Y99744D1*
X192138D1*
X192016Y99684D1*
X191895Y99561D1*
X191833Y99441D1*
X191773Y99258D1*
Y98954D1*
X191833Y98772D1*
X191895Y98650D1*
X192016Y98530D1*
X192138Y98468D1*
X192381D1*
X192501Y98530D1*
X192624Y98650D1*
X192684Y98772D1*
X193684Y98468D2*
Y99742D1*
X193076Y98893D1*
X193987D1*
X192714Y66421D2*
X192654Y66541D1*
X192532Y66664D1*
X192411Y66724D1*
X192168D1*
X192046Y66664D1*
X191925Y66541D1*
X191863Y66421D1*
X191803Y66238D1*
Y65934D1*
X191863Y65752D1*
X191925Y65630D1*
X192046Y65510D1*
X192168Y65448D1*
X192411D1*
X192532Y65510D1*
X192654Y65630D1*
X192714Y65752D1*
X193835Y66722D2*
X193228D1*
X193168Y66176D1*
X193228Y66237D1*
X193411Y66299D1*
X193592D1*
X193774Y66237D1*
X193897Y66116D1*
X193957Y65934D1*
Y65813D1*
X193897Y65630D1*
X193774Y65508D1*
X193592Y65448D1*
X193411D1*
X193228Y65508D1*
X193168Y65570D1*
X193106Y65691D1*
X192745Y37211D2*
X192685Y37331D1*
X192562Y37454D1*
X192442Y37514D1*
X192199D1*
X192077Y37454D1*
X191956Y37331D1*
X191894Y37211D1*
X191834Y37028D1*
Y36724D1*
X191894Y36542D1*
X191956Y36420D1*
X192077Y36300D1*
X192199Y36238D1*
X192442D1*
X192562Y36300D1*
X192685Y36420D1*
X192745Y36542D1*
X193866Y37331D2*
X193805Y37452D1*
X193623Y37512D1*
X193502D1*
X193320Y37452D1*
X193198Y37270D1*
X193137Y36966D1*
Y36663D1*
X193198Y36420D1*
X193320Y36298D1*
X193502Y36238D1*
X193563D1*
X193744Y36298D1*
X193866Y36420D1*
X193926Y36603D1*
Y36663D1*
X193866Y36846D1*
X193744Y36966D1*
X193563Y37027D1*
X193502D1*
X193320Y36966D1*
X193198Y36846D1*
X193137Y36663D1*
X130109Y98386D2*
X129989Y98325D1*
X129867Y98203D1*
X129806Y98082D1*
Y97840D1*
X129867Y97717D1*
X129989Y97597D1*
X130109Y97535D1*
X130292Y97475D1*
X130597D1*
X130778Y97535D1*
X130900Y97597D1*
X131020Y97717D1*
X131082Y97840D1*
Y98082D1*
X131020Y98203D1*
X130900Y98325D1*
X130778Y98386D1*
X130050Y98778D2*
X129989Y98900D1*
X129808Y99083D1*
X131082D1*
X129808Y99597D2*
Y100264D1*
X130293Y99900D1*
Y100083D1*
X130354Y100203D1*
X130414Y100264D1*
X130597Y100325D1*
X130717D1*
X130900Y100264D1*
X131022Y100143D1*
X131082Y99960D1*
Y99778D1*
X131022Y99597D1*
X130960Y99536D1*
X130839Y99475D1*
X130109Y64066D2*
X129989Y64005D1*
X129867Y63883D1*
X129806Y63762D1*
Y63519D1*
X129867Y63397D1*
X129989Y63277D1*
X130109Y63215D1*
X130292Y63154D1*
X130597D1*
X130778Y63215D1*
X130900Y63277D1*
X131020Y63397D1*
X131082Y63519D1*
Y63762D1*
X131020Y63883D1*
X130900Y64005D1*
X130778Y64066D1*
X130050Y64458D2*
X129989Y64580D1*
X129808Y64762D1*
X131082D1*
Y65762D2*
X129808D1*
X130657Y65154D1*
Y66066D1*
X130109Y29806D2*
X129989Y29745D1*
X129867Y29623D1*
X129806Y29502D1*
Y29260D1*
X129867Y29137D1*
X129989Y29017D1*
X130109Y28955D1*
X130292Y28895D1*
X130597D1*
X130778Y28955D1*
X130900Y29017D1*
X131020Y29137D1*
X131082Y29260D1*
Y29502D1*
X131020Y29623D1*
X130900Y29745D1*
X130778Y29806D1*
X130050Y30198D2*
X129989Y30320D1*
X129808Y30503D1*
X131082D1*
X129808Y31623D2*
Y31017D1*
X130354Y30956D1*
X130293Y31017D1*
X130232Y31199D1*
Y31380D1*
X130293Y31563D1*
X130414Y31685D1*
X130597Y31745D1*
X130717D1*
X130900Y31685D1*
X131022Y31563D1*
X131082Y31380D1*
Y31199D1*
X131022Y31017D1*
X130960Y30956D1*
X130839Y30895D1*
X126357Y104056D2*
X126296Y104177D1*
X126174Y104299D1*
X126053Y104359D1*
X125811D1*
X125688Y104299D1*
X125568Y104177D1*
X125506Y104056D1*
X125446Y103873D1*
Y103569D1*
X125506Y103388D1*
X125568Y103265D1*
X125688Y103145D1*
X125811Y103083D1*
X126053D1*
X126174Y103145D1*
X126296Y103265D1*
X126357Y103388D1*
X126749Y104115D2*
X126871Y104177D1*
X127053Y104358D1*
Y103083D1*
X128174Y104177D2*
X128114Y104297D1*
X127931Y104358D1*
X127811D1*
X127628Y104297D1*
X127506Y104115D1*
X127446Y103812D1*
Y103508D1*
X127506Y103265D1*
X127628Y103143D1*
X127811Y103083D1*
X127871D1*
X128052Y103143D1*
X128174Y103265D1*
X128235Y103448D1*
Y103508D1*
X128174Y103691D1*
X128052Y103812D1*
X127871Y103872D1*
X127811D1*
X127628Y103812D1*
X127506Y103691D1*
X127446Y103508D1*
X126326Y69766D2*
X126265Y69887D1*
X126143Y70009D1*
X126022Y70069D1*
X125780D1*
X125657Y70009D1*
X125537Y69887D1*
X125475Y69766D1*
X125415Y69583D1*
Y69279D1*
X125475Y69098D1*
X125537Y68975D1*
X125657Y68855D1*
X125780Y68793D1*
X126022D1*
X126143Y68855D1*
X126265Y68975D1*
X126326Y69098D1*
X126718Y69825D2*
X126840Y69887D1*
X127023Y70068D1*
Y68793D1*
X127658D2*
X128265Y70068D1*
X127415D1*
X126326Y35476D2*
X126266Y35597D1*
X126144Y35719D1*
X126023Y35779D1*
X125780D1*
X125658Y35719D1*
X125537Y35597D1*
X125476Y35476D1*
X125415Y35293D1*
Y34989D1*
X125476Y34808D1*
X125537Y34685D1*
X125658Y34565D1*
X125780Y34503D1*
X126023D1*
X126144Y34565D1*
X126266Y34685D1*
X126326Y34808D1*
X126719Y35535D2*
X126841Y35597D1*
X127023Y35778D1*
Y34503D1*
X127719Y35778D2*
X127537Y35717D1*
X127476Y35597D1*
Y35474D1*
X127537Y35354D1*
X127658Y35292D1*
X127901Y35232D1*
X128084Y35171D1*
X128204Y35049D1*
X128265Y34928D1*
Y34746D1*
X128204Y34625D1*
X128144Y34563D1*
X127961Y34503D1*
X127719D1*
X127537Y34563D1*
X127476Y34625D1*
X127415Y34746D1*
Y34928D1*
X127476Y35049D1*
X127598Y35171D1*
X127779Y35232D1*
X128022Y35292D1*
X128144Y35354D1*
X128204Y35474D1*
Y35597D1*
X128144Y35717D1*
X127961Y35778D1*
X127719D1*
X89858Y99441D2*
X89797Y99561D1*
X89675Y99684D1*
X89554Y99744D1*
X89312D1*
X89189Y99684D1*
X89069Y99561D1*
X89007Y99441D1*
X88947Y99258D1*
Y98954D1*
X89007Y98772D1*
X89069Y98650D1*
X89189Y98530D1*
X89312Y98468D1*
X89554D1*
X89675Y98530D1*
X89797Y98650D1*
X89858Y98772D1*
X90312Y99439D2*
Y99500D1*
X90372Y99622D1*
X90432Y99682D1*
X90554Y99742D1*
X90797D1*
X90918Y99682D1*
X90978Y99622D1*
X91040Y99500D1*
Y99379D1*
X90978Y99257D1*
X90858Y99076D1*
X90250Y98468D1*
X91101D1*
X91554Y99439D2*
Y99500D1*
X91615Y99622D1*
X91675Y99682D1*
X91797Y99742D1*
X92040D1*
X92161Y99682D1*
X92221Y99622D1*
X92283Y99500D1*
Y99379D1*
X92221Y99257D1*
X92101Y99076D1*
X91493Y98468D1*
X92343D1*
X90493Y71501D2*
X90432Y71621D1*
X90310Y71744D1*
X90189Y71804D1*
X89947D1*
X89824Y71744D1*
X89704Y71621D1*
X89642Y71501D1*
X89582Y71318D1*
Y71014D1*
X89642Y70832D1*
X89704Y70710D1*
X89824Y70590D1*
X89947Y70528D1*
X90189D1*
X90310Y70590D1*
X90432Y70710D1*
X90493Y70832D1*
X90947Y71499D2*
Y71560D1*
X91007Y71682D1*
X91067Y71742D1*
X91189Y71802D1*
X91432D1*
X91553Y71742D1*
X91613Y71682D1*
X91675Y71560D1*
Y71439D1*
X91613Y71317D1*
X91493Y71136D1*
X90885Y70528D1*
X91736D1*
X92250Y71802D2*
X92917D1*
X92553Y71317D1*
X92736D1*
X92856Y71256D1*
X92917Y71196D1*
X92978Y71014D1*
Y70893D1*
X92917Y70710D1*
X92796Y70588D1*
X92613Y70528D1*
X92431D1*
X92250Y70588D1*
X92189Y70650D1*
X92128Y70771D1*
X90462Y30861D2*
X90402Y30981D1*
X90280Y31104D1*
X90159Y31164D1*
X89916D1*
X89794Y31104D1*
X89674Y30981D1*
X89612Y30861D1*
X89551Y30678D1*
Y30374D1*
X89612Y30192D1*
X89674Y30070D1*
X89794Y29950D1*
X89916Y29888D1*
X90159D1*
X90280Y29950D1*
X90402Y30070D1*
X90462Y30192D1*
X90916Y30859D2*
Y30920D1*
X90977Y31042D1*
X91037Y31102D1*
X91159Y31162D1*
X91402D1*
X91523Y31102D1*
X91583Y31042D1*
X91645Y30920D1*
Y30799D1*
X91583Y30677D1*
X91463Y30496D1*
X90855Y29888D1*
X91705D1*
X92705D2*
Y31162D1*
X92098Y30313D1*
X93009D1*
X91022Y78867D2*
X90962Y78987D1*
X90840Y79110D1*
X90719Y79170D1*
X90476D1*
X90354Y79110D1*
X90233Y78987D1*
X90172Y78867D1*
X90111Y78684D1*
Y78380D1*
X90172Y78198D1*
X90233Y78076D1*
X90354Y77956D1*
X90476Y77894D1*
X90719D1*
X90840Y77956D1*
X90962Y78076D1*
X91022Y78198D1*
X91476Y78865D2*
Y78926D1*
X91537Y79048D1*
X91597Y79108D1*
X91719Y79168D1*
X91962D1*
X92083Y79108D1*
X92143Y79048D1*
X92205Y78926D1*
Y78805D1*
X92143Y78683D1*
X92022Y78502D1*
X91414Y77894D1*
X92265D1*
X93386Y79168D2*
X92780D1*
X92719Y78622D1*
X92780Y78683D1*
X92962Y78745D1*
X93143D1*
X93326Y78683D1*
X93448Y78562D1*
X93508Y78380D1*
Y78259D1*
X93448Y78076D1*
X93326Y77954D1*
X93143Y77894D1*
X92962D1*
X92780Y77954D1*
X92719Y78016D1*
X92657Y78137D1*
X89359Y94107D2*
X89299Y94227D1*
X89176Y94350D1*
X89056Y94410D1*
X88813D1*
X88691Y94350D1*
X88570Y94227D1*
X88508Y94107D1*
X88448Y93924D1*
Y93620D1*
X88508Y93438D1*
X88570Y93316D1*
X88691Y93196D1*
X88813Y93134D1*
X89056D1*
X89176Y93196D1*
X89299Y93316D1*
X89359Y93438D1*
X89813Y94105D2*
Y94166D1*
X89873Y94288D1*
X89934Y94348D1*
X90056Y94408D1*
X90299D1*
X90419Y94348D1*
X90480Y94288D1*
X90541Y94166D1*
Y94045D1*
X90480Y93923D1*
X90359Y93742D1*
X89751Y93134D1*
X90602D1*
X91723Y94227D2*
X91662Y94348D1*
X91480Y94408D1*
X91359D1*
X91176Y94348D1*
X91054Y94166D1*
X90994Y93862D1*
Y93559D1*
X91054Y93316D1*
X91176Y93194D1*
X91359Y93134D1*
X91419D1*
X91600Y93194D1*
X91723Y93316D1*
X91783Y93499D1*
Y93559D1*
X91723Y93742D1*
X91600Y93862D1*
X91419Y93923D1*
X91359D1*
X91176Y93862D1*
X91054Y93742D1*
X90994Y93559D1*
X89963Y25527D2*
X89903Y25647D1*
X89780Y25770D1*
X89660Y25830D1*
X89417D1*
X89295Y25770D1*
X89174Y25647D1*
X89112Y25527D1*
X89052Y25344D1*
Y25040D1*
X89112Y24858D1*
X89174Y24736D1*
X89295Y24616D1*
X89417Y24554D1*
X89660D1*
X89780Y24616D1*
X89903Y24736D1*
X89963Y24858D1*
X90417Y25525D2*
Y25586D1*
X90477Y25708D1*
X90538Y25768D1*
X90660Y25828D1*
X90903D1*
X91023Y25768D1*
X91084Y25708D1*
X91146Y25586D1*
Y25465D1*
X91084Y25343D1*
X90963Y25162D1*
X90355Y24554D1*
X91206D1*
X91841D2*
X92449Y25828D1*
X91598D1*
X61918Y23241D2*
X61858Y23361D1*
X61736Y23484D1*
X61615Y23544D1*
X61372D1*
X61250Y23484D1*
X61129Y23361D1*
X61068Y23241D1*
X61007Y23058D1*
Y22754D1*
X61068Y22572D1*
X61129Y22450D1*
X61250Y22330D1*
X61372Y22268D1*
X61615D1*
X61736Y22330D1*
X61858Y22450D1*
X61918Y22572D1*
X62372Y23239D2*
Y23300D1*
X62433Y23422D1*
X62493Y23482D1*
X62615Y23542D1*
X62858D1*
X62979Y23482D1*
X63039Y23422D1*
X63101Y23300D1*
Y23179D1*
X63039Y23057D1*
X62918Y22876D1*
X62311Y22268D1*
X63161D1*
X63857Y23542D2*
X63676Y23482D1*
X63614Y23361D1*
Y23239D1*
X63676Y23119D1*
X63796Y23057D1*
X64039Y22996D1*
X64222Y22936D1*
X64342Y22814D1*
X64403Y22693D1*
Y22511D1*
X64342Y22390D1*
X64282Y22328D1*
X64100Y22268D1*
X63857D1*
X63676Y22328D1*
X63614Y22390D1*
X63553Y22511D1*
Y22693D1*
X63614Y22814D1*
X63736Y22936D1*
X63917Y22996D1*
X64160Y23057D1*
X64282Y23119D1*
X64342Y23239D1*
Y23361D1*
X64282Y23482D1*
X64100Y23542D1*
X63857D1*
X65123Y86741D2*
X65062Y86861D1*
X64940Y86984D1*
X64820Y87044D1*
X64577D1*
X64455Y86984D1*
X64334Y86861D1*
X64272Y86741D1*
X64212Y86558D1*
Y86254D1*
X64272Y86072D1*
X64334Y85950D1*
X64455Y85830D1*
X64577Y85768D1*
X64820D1*
X64940Y85830D1*
X65062Y85950D1*
X65123Y86072D1*
X65577Y86739D2*
Y86800D1*
X65637Y86922D1*
X65698Y86982D1*
X65820Y87042D1*
X66063D1*
X66183Y86982D1*
X66244Y86922D1*
X66305Y86800D1*
Y86679D1*
X66244Y86557D1*
X66123Y86376D1*
X65515Y85768D1*
X66366D1*
X67548Y86619D2*
X67486Y86436D1*
X67366Y86314D1*
X67183Y86254D1*
X67123D1*
X66940Y86314D1*
X66820Y86436D1*
X66758Y86619D1*
Y86679D1*
X66820Y86861D1*
X66940Y86982D1*
X67123Y87042D1*
X67183D1*
X67366Y86982D1*
X67486Y86861D1*
X67548Y86619D1*
Y86314D1*
X67486Y86011D1*
X67366Y85828D1*
X67183Y85768D1*
X67063D1*
X66880Y85828D1*
X66820Y85950D1*
X60013Y72516D2*
X59952Y72637D1*
X59830Y72759D1*
X59709Y72820D1*
X59467D1*
X59344Y72759D1*
X59224Y72637D1*
X59162Y72516D1*
X59102Y72334D1*
Y72029D1*
X59162Y71848D1*
X59224Y71726D1*
X59344Y71605D1*
X59467Y71544D1*
X59709D1*
X59830Y71605D1*
X59952Y71726D1*
X60013Y71848D1*
X60527Y72818D2*
X61194D1*
X60830Y72333D1*
X61013D1*
X61133Y72272D1*
X61194Y72212D1*
X61256Y72029D1*
Y71909D1*
X61194Y71726D1*
X61073Y71604D1*
X60891Y71544D1*
X60708D1*
X60527Y71604D1*
X60467Y71666D1*
X60405Y71786D1*
X62013Y72818D2*
X61830Y72758D1*
X61708Y72575D1*
X61648Y72272D1*
Y72090D1*
X61708Y71786D1*
X61830Y71604D1*
X62013Y71544D1*
X62133D1*
X62316Y71604D1*
X62437Y71786D1*
X62498Y72090D1*
Y72272D1*
X62437Y72575D1*
X62316Y72758D1*
X62133Y72818D1*
X62013D1*
X62437Y72575D2*
X61708Y71786D1*
X60286Y61086D2*
X60225Y61207D1*
X60103Y61329D1*
X59982Y61390D1*
X59740D1*
X59617Y61329D1*
X59497Y61207D1*
X59435Y61086D1*
X59375Y60904D1*
Y60599D1*
X59435Y60418D1*
X59497Y60296D1*
X59617Y60175D1*
X59740Y60114D1*
X59982D1*
X60103Y60175D1*
X60225Y60296D1*
X60286Y60418D1*
X60800Y61388D2*
X61467D1*
X61103Y60903D1*
X61286D1*
X61406Y60842D1*
X61467Y60782D1*
X61529Y60599D1*
Y60479D1*
X61467Y60296D1*
X61346Y60174D1*
X61164Y60114D1*
X60981D1*
X60800Y60174D1*
X60740Y60236D1*
X60678Y60356D1*
X61921Y61145D2*
X62043Y61207D1*
X62225Y61388D1*
Y60114D1*
X34613Y84196D2*
X34552Y84317D1*
X34430Y84439D1*
X34309Y84499D1*
X34067D1*
X33944Y84439D1*
X33824Y84317D1*
X33762Y84196D1*
X33702Y84014D1*
Y83709D1*
X33762Y83528D1*
X33824Y83406D1*
X33944Y83285D1*
X34067Y83223D1*
X34309D1*
X34430Y83285D1*
X34552Y83406D1*
X34613Y83528D1*
X35127Y84498D2*
X35794D1*
X35430Y84012D1*
X35613D1*
X35733Y83952D1*
X35794Y83892D1*
X35856Y83709D1*
Y83588D1*
X35794Y83406D1*
X35673Y83284D1*
X35491Y83223D1*
X35308D1*
X35127Y83284D1*
X35067Y83345D1*
X35005Y83466D1*
X36309Y84195D2*
Y84255D1*
X36370Y84377D1*
X36430Y84438D1*
X36552Y84498D1*
X36795D1*
X36916Y84438D1*
X36976Y84377D1*
X37038Y84255D1*
Y84134D1*
X36976Y84012D1*
X36856Y83831D1*
X36248Y83223D1*
X37098D1*
X42233Y51986D2*
X42172Y52107D1*
X42050Y52229D1*
X41929Y52289D1*
X41687D1*
X41564Y52229D1*
X41444Y52107D1*
X41382Y51986D1*
X41322Y51803D1*
Y51499D1*
X41382Y51318D1*
X41444Y51195D1*
X41564Y51075D1*
X41687Y51013D1*
X41929D1*
X42050Y51075D1*
X42172Y51195D1*
X42233Y51318D1*
X42747Y52288D2*
X43414D1*
X43050Y51802D1*
X43233D1*
X43353Y51742D1*
X43414Y51681D1*
X43476Y51499D1*
Y51378D1*
X43414Y51195D1*
X43293Y51073D1*
X43111Y51013D1*
X42928D1*
X42747Y51073D1*
X42687Y51135D1*
X42625Y51256D1*
X43990Y52288D2*
X44657D1*
X44293Y51802D1*
X44476D1*
X44596Y51742D1*
X44657Y51681D1*
X44718Y51499D1*
Y51378D1*
X44657Y51195D1*
X44536Y51073D1*
X44353Y51013D1*
X44171D1*
X43990Y51073D1*
X43929Y51135D1*
X43868Y51256D1*
X65931Y76755D2*
Y75478D1*
X66357D1*
X66539Y75540D1*
X66661Y75661D1*
X66722Y75783D1*
X66782Y75964D1*
Y76269D1*
X66722Y76451D1*
X66661Y76572D1*
X66539Y76694D1*
X66357Y76755D1*
X65931D1*
X67174Y76510D2*
X67296Y76572D1*
X67479Y76753D1*
Y75478D1*
X66548Y51355D2*
Y50078D1*
X66974D1*
X67156Y50140D1*
X67278Y50261D1*
X67339Y50383D1*
X67399Y50564D1*
Y50869D1*
X67339Y51051D1*
X67278Y51172D1*
X67156Y51294D1*
X66974Y51355D1*
X66548D1*
X67853Y51050D2*
Y51110D1*
X67913Y51232D1*
X67974Y51293D1*
X68096Y51353D1*
X68339D1*
X68459Y51293D1*
X68520Y51232D1*
X68581Y51110D1*
Y50990D1*
X68520Y50867D1*
X68399Y50686D1*
X67791Y50078D1*
X68642D1*
X53735Y69468D2*
X55012D1*
Y69894D1*
X54950Y70076D1*
X54829Y70198D1*
X54707Y70259D1*
X54526Y70319D1*
X54221D1*
X54039Y70259D1*
X53918Y70198D1*
X53796Y70076D1*
X53735Y69894D1*
Y69468D1*
X53737Y70833D2*
Y71500D1*
X54223Y71136D1*
Y71319D1*
X54283Y71440D1*
X54343Y71500D1*
X54526Y71562D1*
X54647D1*
X54829Y71500D1*
X54951Y71379D1*
X55012Y71197D1*
Y71014D1*
X54951Y70833D1*
X54889Y70773D1*
X54769Y70711D1*
X53735Y51658D2*
X55012D1*
Y52083D1*
X54950Y52266D1*
X54829Y52388D1*
X54707Y52448D1*
X54526Y52509D1*
X54221D1*
X54039Y52448D1*
X53918Y52388D1*
X53796Y52266D1*
X53735Y52083D1*
Y51658D1*
X55012Y53509D2*
X53737D1*
X54586Y52901D1*
Y53812D1*
X203087Y86978D2*
X202296D1*
Y85702D1*
Y86370D2*
X202782D1*
X203479Y86734D2*
X203601Y86795D1*
X203784Y86976D1*
Y85702D1*
X106476Y90600D2*
Y89628D1*
X106415Y89446D1*
X106353Y89386D1*
X106233Y89324D1*
X106111D1*
X105990Y89386D1*
X105929Y89446D1*
X105868Y89628D1*
Y89749D1*
X106868Y90356D2*
X106990Y90417D1*
X107172Y90598D1*
Y89324D1*
X106202Y55040D2*
Y54068D1*
X106142Y53886D1*
X106080Y53826D1*
X105960Y53764D1*
X105837D1*
X105717Y53826D1*
X105656Y53886D1*
X105595Y54068D1*
Y54189D1*
X106656Y54735D2*
Y54796D1*
X106717Y54918D1*
X106777Y54978D1*
X106899Y55038D1*
X107142D1*
X107263Y54978D1*
X107323Y54918D1*
X107385Y54796D1*
Y54675D1*
X107323Y54553D1*
X107203Y54372D1*
X106595Y53764D1*
X107445D1*
X106202Y25830D2*
Y24858D1*
X106142Y24676D1*
X106080Y24616D1*
X105960Y24554D1*
X105837D1*
X105717Y24616D1*
X105656Y24676D1*
X105595Y24858D1*
Y24979D1*
X106717Y25828D2*
X107384D1*
X107020Y25343D1*
X107203D1*
X107323Y25282D1*
X107384Y25222D1*
X107445Y25040D1*
Y24919D1*
X107384Y24736D1*
X107263Y24614D1*
X107080Y24554D1*
X106898D1*
X106717Y24614D1*
X106656Y24676D1*
X106595Y24797D1*
X199914Y55376D2*
Y54100D1*
X200643D1*
X201035Y55131D2*
X201157Y55193D1*
X201339Y55374D1*
Y54100D1*
X114551Y106176D2*
Y104900D1*
X115280D1*
X115733Y105871D2*
Y105931D1*
X115794Y106054D1*
X115854Y106114D1*
X115976Y106174D1*
X116219D1*
X116340Y106114D1*
X116400Y106054D1*
X116462Y105931D1*
Y105811D1*
X116400Y105689D1*
X116280Y105507D1*
X115672Y104900D1*
X116522D1*
X117091Y69346D2*
Y68070D1*
X117820D1*
X118334Y69344D2*
X119001D1*
X118637Y68859D1*
X118820D1*
X118940Y68798D1*
X119001Y68738D1*
X119062Y68555D1*
Y68435D1*
X119001Y68252D1*
X118880Y68130D1*
X118697Y68070D1*
X118515D1*
X118334Y68130D1*
X118273Y68192D1*
X118212Y68312D1*
X117061Y37596D2*
Y36320D1*
X117789D1*
X118789D2*
Y37594D1*
X118182Y36745D1*
X119093D1*
X26173Y30274D2*
Y28998D1*
X26902D1*
X28083Y30274D2*
X27294D1*
Y28998D1*
X28083D1*
X27294Y29666D2*
X27779D1*
X28475Y30274D2*
Y28998D1*
X28900D1*
X29083Y29060D1*
X29205Y29181D1*
X29265Y29303D1*
X29326Y29484D1*
Y29789D1*
X29265Y29971D1*
X29205Y30092D1*
X29083Y30214D1*
X28900Y30274D1*
X28475D1*
X29718Y30030D2*
X29840Y30092D1*
X30022Y30273D1*
Y28998D1*
X25900Y105204D2*
Y103928D1*
X26629D1*
X27810Y105204D2*
X27021D1*
Y103928D1*
X27810D1*
X27021Y104596D2*
X27506D1*
X28202Y105204D2*
Y103928D1*
X28627D1*
X28810Y103990D1*
X28932Y104111D1*
X28992Y104233D1*
X29053Y104414D1*
Y104719D1*
X28992Y104901D1*
X28932Y105022D1*
X28810Y105144D1*
X28627Y105204D1*
X28202D1*
X29506Y104900D2*
Y104960D1*
X29567Y105082D1*
X29627Y105143D1*
X29749Y105203D1*
X29992D1*
X30113Y105143D1*
X30173Y105082D1*
X30235Y104960D1*
Y104839D1*
X30173Y104717D1*
X30053Y104536D1*
X29445Y103928D1*
X30295D1*
X25900Y55674D2*
Y54398D1*
X26629D1*
X27810Y55674D2*
X27021D1*
Y54398D1*
X27810D1*
X27021Y55066D2*
X27506D1*
X28202Y55674D2*
Y54398D1*
X28627D1*
X28810Y54460D1*
X28932Y54581D1*
X28992Y54703D1*
X29053Y54884D1*
Y55189D1*
X28992Y55371D1*
X28932Y55492D1*
X28810Y55614D1*
X28627Y55674D1*
X28202D1*
X29567Y55673D2*
X30234D1*
X29870Y55187D1*
X30053D1*
X30173Y55127D1*
X30234Y55066D1*
X30295Y54884D1*
Y54763D1*
X30234Y54581D1*
X30113Y54459D1*
X29930Y54398D1*
X29748D1*
X29567Y54459D1*
X29506Y54520D1*
X29445Y54641D1*
X158267Y108380D2*
Y107104D1*
X159510Y108197D2*
X159390Y108320D1*
X159207Y108380D1*
X158964D1*
X158782Y108320D1*
X158660Y108197D1*
Y108077D1*
X158721Y107955D1*
X158782Y107894D1*
X158903Y107834D1*
X159268Y107712D1*
X159390Y107651D1*
X159450Y107590D1*
X159510Y107469D1*
Y107286D1*
X159390Y107166D1*
X159207Y107104D1*
X158964D1*
X158782Y107166D1*
X158660Y107286D1*
X160268Y108380D2*
X160145Y108320D1*
X160025Y108197D1*
X159963Y108077D1*
X159903Y107894D1*
Y107590D1*
X159963Y107408D1*
X160025Y107286D1*
X160145Y107166D1*
X160268Y107104D1*
X160510D1*
X160631Y107166D1*
X160753Y107286D1*
X160814Y107408D1*
X160874Y107590D1*
Y107894D1*
X160814Y108077D1*
X160753Y108197D1*
X160631Y108320D1*
X160510Y108380D1*
X160268D1*
X161266D2*
Y107104D1*
X161995D1*
X163621Y108136D2*
X163744Y108197D1*
X163926Y108378D1*
Y107104D1*
X165047Y108378D2*
X164440D1*
X164380Y107832D1*
X164440Y107893D1*
X164623Y107955D1*
X164804D1*
X164986Y107893D1*
X165109Y107772D1*
X165169Y107590D1*
Y107469D1*
X165109Y107286D1*
X164986Y107164D1*
X164804Y107104D1*
X164623D1*
X164440Y107164D1*
X164380Y107226D1*
X164318Y107347D1*
X165561Y108380D2*
X166047Y107104D1*
X166533Y108380D1*
X158267Y74090D2*
Y72814D1*
X159510Y73907D2*
X159390Y74030D1*
X159207Y74090D1*
X158964D1*
X158782Y74030D1*
X158660Y73907D1*
Y73787D1*
X158721Y73665D1*
X158782Y73604D1*
X158903Y73544D1*
X159268Y73422D1*
X159390Y73361D1*
X159450Y73300D1*
X159510Y73179D1*
Y72996D1*
X159390Y72876D1*
X159207Y72814D1*
X158964D1*
X158782Y72876D1*
X158660Y72996D1*
X160268Y74090D2*
X160145Y74030D1*
X160025Y73907D1*
X159963Y73787D1*
X159903Y73604D1*
Y73300D1*
X159963Y73118D1*
X160025Y72996D1*
X160145Y72876D1*
X160268Y72814D1*
X160510D1*
X160631Y72876D1*
X160753Y72996D1*
X160814Y73118D1*
X160874Y73300D1*
Y73604D1*
X160814Y73787D1*
X160753Y73907D1*
X160631Y74030D1*
X160510Y74090D1*
X160268D1*
X161266D2*
Y72814D1*
X161995D1*
X163621Y73846D2*
X163744Y73907D1*
X163926Y74088D1*
Y72814D1*
X165047Y74088D2*
X164440D1*
X164380Y73542D1*
X164440Y73603D1*
X164623Y73665D1*
X164804D1*
X164986Y73603D1*
X165109Y73482D1*
X165169Y73300D1*
Y73179D1*
X165109Y72996D1*
X164986Y72874D1*
X164804Y72814D1*
X164623D1*
X164440Y72874D1*
X164380Y72936D1*
X164318Y73057D1*
X165561Y74090D2*
X166047Y72814D1*
X166533Y74090D1*
X158616Y39800D2*
Y38524D1*
X159859Y39617D2*
X159738Y39740D1*
X159556Y39800D1*
X159313D1*
X159130Y39740D1*
X159008Y39617D1*
Y39497D1*
X159070Y39375D1*
X159130Y39314D1*
X159251Y39254D1*
X159616Y39132D1*
X159738Y39071D1*
X159798Y39010D1*
X159859Y38889D1*
Y38706D1*
X159738Y38586D1*
X159556Y38524D1*
X159313D1*
X159130Y38586D1*
X159008Y38706D1*
X160616Y39800D2*
X160494Y39740D1*
X160373Y39617D1*
X160311Y39497D1*
X160251Y39314D1*
Y39010D1*
X160311Y38828D1*
X160373Y38706D1*
X160494Y38586D1*
X160616Y38524D1*
X160859D1*
X160980Y38586D1*
X161102Y38706D1*
X161162Y38828D1*
X161222Y39010D1*
Y39314D1*
X161162Y39497D1*
X161102Y39617D1*
X160980Y39740D1*
X160859Y39800D1*
X160616D1*
X161615D2*
Y38524D1*
X162343D1*
X164698Y39798D2*
X164092D1*
X164032Y39252D1*
X164092Y39313D1*
X164274Y39375D1*
X164456D1*
X164638Y39313D1*
X164760Y39192D1*
X164821Y39010D1*
Y38889D1*
X164760Y38706D1*
X164638Y38584D1*
X164456Y38524D1*
X164274D1*
X164092Y38584D1*
X164032Y38646D1*
X163970Y38767D1*
X165213Y39800D2*
X165698Y38524D1*
X166184Y39800D1*
X98761Y104087D2*
X99307D1*
X99490Y104148D1*
X99552Y104209D1*
X99612Y104330D1*
Y104452D1*
X99552Y104572D1*
X99490Y104634D1*
X99307Y104695D1*
X98761D1*
Y103418D1*
X99187Y104087D2*
X99612Y103418D1*
X100004Y104450D2*
X100126Y104512D1*
X100309Y104693D1*
Y103418D1*
X99123Y60907D2*
X99669D1*
X99852Y60968D1*
X99914Y61029D1*
X99974Y61150D1*
Y61272D1*
X99914Y61392D1*
X99852Y61454D1*
X99669Y61515D1*
X99123D1*
Y60238D1*
X99549Y60907D2*
X99974Y60238D1*
X100428Y61210D2*
Y61270D1*
X100488Y61392D1*
X100549Y61453D1*
X100671Y61513D1*
X100914D1*
X101034Y61453D1*
X101095Y61392D1*
X101156Y61270D1*
Y61150D1*
X101095Y61027D1*
X100974Y60846D1*
X100366Y60238D1*
X101217D1*
X99123Y35507D2*
X99669D1*
X99852Y35568D1*
X99914Y35629D1*
X99974Y35750D1*
Y35872D1*
X99914Y35992D1*
X99852Y36054D1*
X99669Y36115D1*
X99123D1*
Y34838D1*
X99549Y35507D2*
X99974Y34838D1*
X100488Y36113D2*
X101155D1*
X100791Y35627D1*
X100974D1*
X101095Y35567D1*
X101155Y35507D1*
X101217Y35324D1*
Y35203D1*
X101155Y35021D1*
X101034Y34899D1*
X100852Y34838D1*
X100669D1*
X100488Y34899D1*
X100428Y34961D1*
X100366Y35081D1*
X78473Y68613D2*
Y69159D1*
X78412Y69342D1*
X78351Y69403D1*
X78230Y69464D1*
X78108D1*
X77988Y69403D1*
X77926Y69342D1*
X77865Y69159D1*
Y68613D1*
X79142D1*
X78473Y69038D2*
X79142Y69464D1*
Y70464D2*
X77867D1*
X78716Y69856D1*
Y70767D1*
X78473Y50863D2*
Y51409D1*
X78412Y51592D1*
X78351Y51654D1*
X78230Y51714D1*
X78108D1*
X77988Y51654D1*
X77926Y51592D1*
X77865Y51409D1*
Y50863D1*
X79142D1*
X78473Y51289D2*
X79142Y51714D1*
X77867Y52835D2*
Y52228D1*
X78413Y52168D1*
X78353Y52228D1*
X78291Y52411D1*
Y52592D1*
X78353Y52774D1*
X78473Y52896D1*
X78656Y52957D1*
X78777D1*
X78959Y52896D1*
X79081Y52774D1*
X79142Y52592D1*
Y52411D1*
X79081Y52228D1*
X79019Y52168D1*
X78899Y52106D1*
X35293Y22954D2*
Y23500D1*
X35232Y23683D1*
X35171Y23744D1*
X35050Y23805D1*
X34928D1*
X34808Y23744D1*
X34746Y23683D1*
X34685Y23500D1*
Y22954D1*
X35962D1*
X35293Y23379D2*
X35962Y23805D1*
X34868Y24926D2*
X34747Y24865D1*
X34687Y24683D1*
Y24562D1*
X34747Y24379D1*
X34930Y24257D1*
X35233Y24197D1*
X35536D1*
X35779Y24257D1*
X35901Y24379D1*
X35962Y24562D1*
Y24622D1*
X35901Y24803D1*
X35779Y24926D1*
X35597Y24986D1*
X35536D1*
X35354Y24926D1*
X35233Y24803D1*
X35173Y24622D1*
Y24562D1*
X35233Y24379D1*
X35354Y24257D1*
X35536Y24197D1*
X49263Y68643D2*
Y69189D1*
X49202Y69372D1*
X49141Y69434D1*
X49020Y69494D1*
X48898D1*
X48778Y69434D1*
X48716Y69372D1*
X48655Y69189D1*
Y68643D1*
X49932D1*
X49263Y69069D2*
X49932Y69494D1*
Y70129D2*
X48657Y70737D1*
Y69886D1*
X49263Y50864D2*
Y51410D1*
X49202Y51592D1*
X49141Y51654D1*
X49020Y51715D1*
X48898D1*
X48778Y51654D1*
X48716Y51592D1*
X48655Y51410D1*
Y50864D1*
X49932D1*
X49263Y51289D2*
X49932Y51715D1*
X48657Y52410D2*
X48717Y52229D1*
X48838Y52167D1*
X48960D1*
X49081Y52229D1*
X49143Y52350D1*
X49203Y52593D1*
X49263Y52775D1*
X49385Y52896D1*
X49506Y52956D1*
X49689D1*
X49809Y52896D1*
X49871Y52835D1*
X49932Y52653D1*
Y52410D1*
X49871Y52229D1*
X49809Y52167D1*
X49689Y52107D1*
X49506D1*
X49385Y52167D1*
X49263Y52289D1*
X49203Y52470D1*
X49143Y52713D1*
X49081Y52835D1*
X48960Y52896D1*
X48838D1*
X48717Y52835D1*
X48657Y52653D1*
Y52410D1*
X35293Y97883D2*
Y98429D1*
X35232Y98612D1*
X35171Y98674D1*
X35050Y98734D1*
X34928D1*
X34808Y98674D1*
X34746Y98612D1*
X34685Y98429D1*
Y97883D1*
X35962D1*
X35293Y98309D2*
X35962Y98734D1*
X35111Y99917D2*
X35293Y99855D1*
X35415Y99734D1*
X35476Y99552D1*
Y99491D1*
X35415Y99309D1*
X35293Y99188D1*
X35111Y99126D1*
X35050D1*
X34868Y99188D1*
X34747Y99309D1*
X34687Y99491D1*
Y99552D1*
X34747Y99734D1*
X34868Y99855D1*
X35111Y99917D1*
X35415D1*
X35719Y99855D1*
X35901Y99734D1*
X35962Y99552D1*
Y99431D1*
X35901Y99248D1*
X35779Y99188D1*
X35293Y47975D2*
Y48521D1*
X35232Y48703D1*
X35171Y48765D1*
X35050Y48826D1*
X34928D1*
X34808Y48765D1*
X34746Y48703D1*
X34685Y48521D1*
Y47975D1*
X35962D1*
X35293Y48400D2*
X35962Y48826D1*
X34930Y49218D2*
X34868Y49340D1*
X34687Y49522D1*
X35962D1*
X34687Y50279D2*
X34747Y50097D1*
X34930Y49975D1*
X35233Y49914D1*
X35415D1*
X35719Y49975D1*
X35901Y50097D1*
X35962Y50279D1*
Y50400D1*
X35901Y50583D1*
X35719Y50703D1*
X35415Y50765D1*
X35233D1*
X34930Y50703D1*
X34747Y50583D1*
X34687Y50400D1*
Y50279D1*
X34930Y50703D2*
X35719Y49975D1*
X120426Y87577D2*
X120972D1*
X121154Y87638D1*
X121216Y87699D1*
X121277Y87820D1*
Y87942D1*
X121216Y88062D1*
X121154Y88124D1*
X120972Y88185D1*
X120426D1*
Y86908D1*
X120851Y87577D2*
X121277Y86908D1*
X121669Y88185D2*
Y86908D1*
X122397D1*
X122790Y87940D2*
X122912Y88002D1*
X123094Y88183D1*
Y86908D1*
X120153Y50747D2*
X120699D1*
X120881Y50808D1*
X120943Y50869D1*
X121004Y50990D1*
Y51112D1*
X120943Y51232D1*
X120881Y51294D1*
X120699Y51355D1*
X120153D1*
Y50078D1*
X120578Y50747D2*
X121004Y50078D1*
X121396Y51355D2*
Y50078D1*
X122124D1*
X122578Y51050D2*
Y51110D1*
X122639Y51232D1*
X122699Y51293D1*
X122821Y51353D1*
X123064D1*
X123185Y51293D1*
X123245Y51232D1*
X123307Y51110D1*
Y50990D1*
X123245Y50867D1*
X123124Y50686D1*
X122516Y50078D1*
X123367D1*
X120153Y22807D2*
X120699D1*
X120881Y22868D1*
X120943Y22929D1*
X121004Y23050D1*
Y23172D1*
X120943Y23292D1*
X120881Y23354D1*
X120699Y23415D1*
X120153D1*
Y22138D1*
X120578Y22807D2*
X121004Y22138D1*
X121396Y23415D2*
Y22138D1*
X122124D1*
X122639Y23413D2*
X123305D1*
X122942Y22927D1*
X123124D1*
X123245Y22867D1*
X123305Y22807D1*
X123367Y22624D1*
Y22503D1*
X123305Y22321D1*
X123185Y22199D1*
X123002Y22138D1*
X122820D1*
X122639Y22199D1*
X122578Y22261D1*
X122516Y22381D1*
X68720Y72690D2*
Y71414D1*
X68295Y72690D2*
X69146D1*
X69538Y72082D2*
X70084D1*
X70266Y72144D1*
X70328Y72204D1*
X70388Y72325D1*
Y72447D1*
X70328Y72568D1*
X70266Y72630D1*
X70084Y72690D1*
X69538D1*
Y71414D1*
X69963Y72082D2*
X70388Y71414D1*
X70781Y72446D2*
X70903Y72507D1*
X71085Y72688D1*
Y71414D1*
X68447Y61260D2*
Y59984D1*
X68022Y61260D2*
X68872D1*
X69265Y60652D2*
X69811D1*
X69993Y60714D1*
X70055Y60774D1*
X70115Y60895D1*
Y61017D1*
X70055Y61138D1*
X69993Y61200D1*
X69811Y61260D1*
X69265D1*
Y59984D1*
X69690Y60652D2*
X70115Y59984D1*
X70569Y60955D2*
Y61016D1*
X70630Y61138D1*
X70690Y61198D1*
X70812Y61258D1*
X71055D1*
X71176Y61198D1*
X71236Y61138D1*
X71298Y61016D1*
Y60895D1*
X71236Y60773D1*
X71115Y60592D1*
X70508Y59984D1*
X71358D1*
X62500Y33010D2*
Y32099D1*
X62560Y31916D1*
X62682Y31796D1*
X62865Y31734D1*
X62986D1*
X63168Y31796D1*
X63290Y31916D1*
X63351Y32099D1*
Y33010D1*
X63743Y32766D2*
X63865Y32827D1*
X64047Y33008D1*
Y31734D1*
X63563Y95840D2*
Y94929D1*
X63624Y94746D1*
X63746Y94626D1*
X63928Y94564D1*
X64049D1*
X64231Y94626D1*
X64354Y94746D1*
X64414Y94929D1*
Y95840D1*
X64868Y95535D2*
Y95596D1*
X64928Y95718D1*
X64989Y95778D1*
X65111Y95838D1*
X65354D1*
X65474Y95778D1*
X65535Y95718D1*
X65596Y95596D1*
Y95475D1*
X65535Y95353D1*
X65414Y95172D1*
X64806Y94564D1*
X65657D1*
X200747Y100548D2*
X200565Y100488D1*
X200443Y100305D1*
X200382Y100002D1*
Y99819D1*
X200443Y99516D1*
X200565Y99334D1*
X200747Y99273D1*
X200868D1*
X201050Y99334D1*
X201171Y99516D1*
X201233Y99819D1*
Y100002D1*
X201171Y100305D1*
X201050Y100488D1*
X200868Y100548D1*
X200747D1*
X201171Y100305D2*
X200443Y99516D1*
X201625Y100549D2*
X202111Y99273D1*
X202597Y100549D1*
X202989Y99063D2*
X204143D1*
X204535Y100549D2*
Y99273D1*
X205778Y100549D2*
Y99273D1*
X204927Y100549D1*
Y99273D1*
X199454Y95377D2*
Y94284D1*
X198908Y94830D2*
X200001D1*
X200455Y95165D2*
Y95225D1*
X200516Y95347D1*
X200576Y95408D1*
X200698Y95468D1*
X200941D1*
X201062Y95408D1*
X201122Y95347D1*
X201184Y95225D1*
Y95104D1*
X201122Y94982D1*
X201001Y94801D1*
X200393Y94193D1*
X201244D1*
X202244D2*
Y95468D1*
X201636Y94619D1*
X202547D1*
X202940Y95469D2*
X203425Y94193D1*
X203911Y95469D1*
X204303Y93983D2*
X205457D1*
X205849Y95469D2*
Y94193D1*
X207092Y95469D2*
Y94193D1*
X206242Y95469D1*
Y94193D1*
X19506Y103510D2*
D92*
Y102197D1*
X18851Y102853D2*
X20163D1*
X20634Y103327D2*
X20780Y103401D1*
X20999Y103618D1*
Y102089D1*
X21544Y103254D2*
Y103327D1*
X21616Y103473D1*
X21689Y103546D1*
X21835Y103618D1*
X22127D1*
X22272Y103546D1*
X22344Y103473D1*
X22418Y103327D1*
Y103182D1*
X22344Y103035D1*
X22199Y102818D1*
X21470Y102089D1*
X22491D1*
X22961Y103620D2*
X23544Y102089D1*
X24127Y103620D1*
X18851Y59673D2*
X19693D1*
X20164Y60147D2*
X20310Y60221D1*
X20529Y60438D1*
Y58909D1*
X21074Y60074D2*
Y60147D1*
X21146Y60293D1*
X21219Y60366D1*
X21365Y60438D1*
X21657D1*
X21802Y60366D1*
X21874Y60293D1*
X21948Y60147D1*
Y60002D1*
X21874Y59855D1*
X21729Y59638D1*
X21000Y58909D1*
X22021D1*
X22491Y60440D2*
X23074Y58909D1*
X23657Y60440D1*
X19328Y81989D2*
X19109Y81917D1*
X18962Y81698D1*
X18890Y81334D1*
Y81115D1*
X18962Y80751D1*
X19109Y80532D1*
X19328Y80459D1*
X19473D1*
X19692Y80532D1*
X19837Y80751D1*
X19911Y81115D1*
Y81334D1*
X19837Y81698D1*
X19692Y81917D1*
X19473Y81989D1*
X19328D1*
X19837Y81698D2*
X18962Y80751D1*
X20381Y81991D2*
X20964Y80459D1*
X21547Y81991D1*
X19545Y38700D2*
Y37388D1*
X18890Y38043D2*
X20202D1*
X21547Y38809D2*
X20819D1*
X20747Y38154D1*
X20819Y38226D1*
X21038Y38300D1*
X21256D1*
X21475Y38226D1*
X21621Y38081D1*
X21694Y37862D1*
Y37717D1*
X21621Y37498D1*
X21475Y37352D1*
X21256Y37279D1*
X21038D1*
X20819Y37352D1*
X20747Y37426D1*
X20673Y37571D1*
X22164Y38811D2*
X22747Y37279D1*
X23330Y38811D1*
X193728Y22992D2*
Y24523D1*
X193145Y22992D1*
X192563Y24523D1*
Y22992D1*
X194563Y24013D2*
X194418Y23940D1*
X194271Y23794D1*
X194199Y23575D1*
Y23430D1*
X194271Y23211D1*
X194418Y23066D1*
X194563Y22992D1*
X194782D1*
X194928Y23066D1*
X195073Y23211D1*
X195147Y23430D1*
Y23575D1*
X195073Y23794D1*
X194928Y23940D1*
X194782Y24013D1*
X194563D1*
X195618D2*
Y22992D1*
Y23575D2*
X195692Y23794D1*
X195837Y23940D1*
X195983Y24013D1*
X196202D1*
X197547D2*
Y22992D1*
Y23794D2*
X197402Y23940D1*
X197256Y24013D1*
X197039D1*
X196892Y23940D1*
X196747Y23794D1*
X196673Y23575D1*
Y23430D1*
X196747Y23211D1*
X196892Y23066D1*
X197039Y22992D1*
X197256D1*
X197402Y23066D1*
X197547Y23211D1*
X198092Y24013D2*
X198528Y22992D1*
X198384Y22700D1*
X198237Y22554D1*
X198092Y22481D1*
X198018D1*
X198966Y24013D2*
X198528Y22992D1*
X200311Y24523D2*
Y22992D1*
Y23794D2*
X200166Y23940D1*
X200020Y24013D1*
X199801D1*
X199656Y23940D1*
X199509Y23794D1*
X199437Y23575D1*
Y23430D1*
X199509Y23211D1*
X199656Y23066D1*
X199801Y22992D1*
X200020D1*
X200166Y23066D1*
X200311Y23211D1*
X200782Y24013D2*
Y23283D1*
X200854Y23066D1*
X201001Y22992D1*
X201220D1*
X201365Y23066D1*
X201584Y23283D1*
Y24013D2*
Y22992D1*
X202054Y24523D2*
Y22992D1*
X203399Y24013D2*
Y22992D1*
Y23794D2*
X203254Y23940D1*
X203108Y24013D1*
X202890D1*
X202744Y23940D1*
X202599Y23794D1*
X202525Y23575D1*
Y23430D1*
X202599Y23211D1*
X202744Y23066D1*
X202890Y22992D1*
X203108D1*
X203254Y23066D1*
X203399Y23211D1*
X203870Y24013D2*
Y22992D1*
Y23575D2*
X203944Y23794D1*
X204089Y23940D1*
X204235Y24013D1*
X204454D1*
X190658Y21983D2*
X191240Y20452D1*
X191823Y21983D1*
X192294D2*
X192366Y21911D1*
X192440Y21983D1*
X192366Y22057D1*
X192294Y21983D1*
X192366Y21473D2*
Y20452D1*
X192911Y21473D2*
Y20452D1*
Y21035D2*
X192985Y21254D1*
X193130Y21400D1*
X193277Y21473D1*
X193496D1*
X194185Y21983D2*
Y20743D1*
X194258Y20526D1*
X194404Y20452D1*
X194549D1*
X193966Y21473D2*
X194477D1*
X195894D2*
Y20452D1*
Y21254D2*
X195749Y21400D1*
X195603Y21473D1*
X195385D1*
X195239Y21400D1*
X195094Y21254D1*
X195020Y21035D1*
Y20890D1*
X195094Y20671D1*
X195239Y20526D1*
X195385Y20452D1*
X195603D1*
X195749Y20526D1*
X195894Y20671D1*
X197846Y21181D2*
X198503D1*
X198720Y21254D1*
X198794Y21328D1*
X198867Y21473D1*
Y21692D1*
X198794Y21837D1*
X198720Y21911D1*
X198503Y21983D1*
X197846D1*
Y20452D1*
X200358Y21764D2*
X200213Y21911D1*
X199994Y21983D1*
X199703D1*
X199484Y21911D1*
X199337Y21764D1*
Y21619D1*
X199411Y21473D1*
X199484Y21400D1*
X199629Y21328D1*
X200067Y21181D1*
X200213Y21109D1*
X200286Y21035D1*
X200358Y20890D1*
Y20671D1*
X200213Y20526D1*
X199994Y20452D1*
X199703D1*
X199484Y20526D1*
X199337Y20671D1*
X200829Y21983D2*
Y20890D1*
X200901Y20671D1*
X201048Y20526D1*
X201267Y20452D1*
X201412D1*
X201631Y20526D1*
X201777Y20671D1*
X201850Y20890D1*
Y21983D1*
X204240Y21982D2*
X204021Y21909D1*
X203874Y21690D1*
X203802Y21326D1*
Y21107D1*
X203874Y20743D1*
X204021Y20524D1*
X204240Y20452D1*
X204385D1*
X204604Y20524D1*
X204748Y20743D1*
X204823Y21107D1*
Y21326D1*
X204748Y21690D1*
X204604Y21909D1*
X204385Y21982D1*
X204240D1*
X204748Y21690D2*
X203874Y20743D1*
X205366Y20598D2*
X205293Y20524D1*
X205366Y20452D1*
X205440Y20524D1*
X205366Y20598D1*
X206785Y21764D2*
X206712Y21909D1*
X206493Y21982D1*
X206348D1*
X206129Y21909D1*
X205983Y21690D1*
X205910Y21326D1*
Y20962D1*
X205983Y20671D1*
X206129Y20524D1*
X206348Y20452D1*
X206421D1*
X206638Y20524D1*
X206785Y20671D1*
X206857Y20890D1*
Y20962D1*
X206785Y21181D1*
X206638Y21326D1*
X206421Y21399D1*
X206348D1*
X206129Y21326D1*
X205983Y21181D1*
X205910Y20962D1*
X174947Y86401D2*
D93*
Y88443D1*
X174320Y87081D2*
Y88443D1*
Y87470D2*
X174028Y87178D1*
X173833Y87081D1*
X173543D1*
X173347Y87178D1*
X173251Y87470D1*
Y88443D1*
X169857Y91233D2*
X168734D1*
X168983Y95433D2*
Y97183D1*
X169857Y96309D2*
X168107D1*
X169278Y83081D2*
X169570Y83177D1*
X169766Y83469D1*
X169862Y83954D1*
Y84246D1*
X169766Y84731D1*
X169570Y85023D1*
X169278Y85120D1*
X169085D1*
X168793Y85023D1*
X168600Y84731D1*
X168501Y84246D1*
Y83954D1*
X168600Y83469D1*
X168793Y83177D1*
X169085Y83081D1*
X169278D1*
X168600Y83469D2*
X169766Y84731D1*
X167874Y85120D2*
X166513Y83081D1*
X165885Y83469D2*
X165690Y83370D1*
X165398Y83081D1*
Y85120D1*
X156580Y88159D2*
X156775Y88255D1*
X156968Y88451D1*
X157067Y88644D1*
X157164Y88936D1*
Y89423D1*
X157067Y89713D1*
X156968Y89908D1*
X156775Y90101D1*
X156580Y90200D1*
X156191D1*
X155998Y90101D1*
X155802Y89908D1*
X155706Y89713D1*
X155609Y89423D1*
Y88936D1*
X155706Y88644D1*
X155802Y88451D1*
X155998Y88255D1*
X156191Y88159D1*
X156580D1*
X154982Y88839D2*
Y89812D1*
X154885Y90101D1*
X154690Y90200D1*
X154398D1*
X154205Y90101D1*
X153913Y89812D1*
Y88839D2*
Y90200D1*
X152993Y88159D2*
Y89812D1*
X152897Y90101D1*
X152701Y90200D1*
X152508D1*
X153285Y88839D2*
X152605D1*
X157164Y84100D2*
X156041D1*
X160291Y93241D2*
Y95283D1*
X160972Y93241D2*
X159611D1*
X158983Y93922D2*
Y95283D1*
Y94506D2*
X158884Y94214D1*
X158691Y94018D1*
X158496Y93922D1*
X158204D1*
X157576Y93241D2*
X157480Y93338D1*
X157381Y93241D1*
X157480Y93142D1*
X157576Y93241D1*
X157480Y93922D2*
Y95283D1*
X156754Y93922D2*
Y95283D1*
Y94310D2*
X156462Y94018D1*
X156266Y93922D1*
X155976D1*
X155781Y94018D1*
X155684Y94310D1*
Y95283D1*
Y94310D2*
X155392Y94018D1*
X155197Y93922D1*
X154907D1*
X154712Y94018D1*
X154613Y94310D1*
Y95283D1*
X156290Y103546D2*
Y105296D1*
X157164Y104422D2*
X155414D1*
X174947Y52111D2*
Y54153D1*
X174320Y52791D2*
Y54153D1*
Y53180D2*
X174028Y52888D1*
X173833Y52791D1*
X173543D1*
X173347Y52888D1*
X173251Y53180D1*
Y54153D1*
X169857Y56943D2*
X168734D1*
X168983Y61143D2*
Y62893D1*
X169857Y62019D2*
X168107D1*
X169278Y48791D2*
X169570Y48887D1*
X169766Y49179D1*
X169862Y49664D1*
Y49956D1*
X169766Y50441D1*
X169570Y50733D1*
X169278Y50830D1*
X169085D1*
X168793Y50733D1*
X168600Y50441D1*
X168501Y49956D1*
Y49664D1*
X168600Y49179D1*
X168793Y48887D1*
X169085Y48791D1*
X169278D1*
X168600Y49179D2*
X169766Y50441D1*
X167874Y50830D2*
X166513Y48791D1*
X165885Y49179D2*
X165690Y49080D1*
X165398Y48791D1*
Y50830D1*
X156580Y53869D2*
X156775Y53965D1*
X156968Y54161D1*
X157067Y54354D1*
X157164Y54646D1*
Y55133D1*
X157067Y55423D1*
X156968Y55618D1*
X156775Y55811D1*
X156580Y55910D1*
X156191D1*
X155998Y55811D1*
X155802Y55618D1*
X155706Y55423D1*
X155609Y55133D1*
Y54646D1*
X155706Y54354D1*
X155802Y54161D1*
X155998Y53965D1*
X156191Y53869D1*
X156580D1*
X154982Y54549D2*
Y55522D1*
X154885Y55811D1*
X154690Y55910D1*
X154398D1*
X154205Y55811D1*
X153913Y55522D1*
Y54549D2*
Y55910D1*
X152993Y53869D2*
Y55522D1*
X152897Y55811D1*
X152701Y55910D1*
X152508D1*
X153285Y54549D2*
X152605D1*
X157164Y49810D2*
X156041D1*
X160291Y58951D2*
Y60993D1*
X160972Y58951D2*
X159611D1*
X158983Y59632D2*
Y60993D1*
Y60216D2*
X158884Y59924D1*
X158691Y59728D1*
X158496Y59632D1*
X158204D1*
X157576Y58951D2*
X157480Y59048D1*
X157381Y58951D1*
X157480Y58852D1*
X157576Y58951D1*
X157480Y59632D2*
Y60993D1*
X156754Y59632D2*
Y60993D1*
Y60020D2*
X156462Y59728D1*
X156266Y59632D1*
X155976D1*
X155781Y59728D1*
X155684Y60020D1*
Y60993D1*
Y60020D2*
X155392Y59728D1*
X155197Y59632D1*
X154907D1*
X154712Y59728D1*
X154613Y60020D1*
Y60993D1*
X156290Y69256D2*
Y71006D1*
X157164Y70132D2*
X155414D1*
X174947Y17821D2*
Y19863D1*
X174320Y18501D2*
Y19863D1*
Y18890D2*
X174028Y18598D1*
X173833Y18501D1*
X173543D1*
X173347Y18598D1*
X173251Y18890D1*
Y19863D1*
X169857Y22653D2*
X168734D1*
X168983Y26853D2*
Y28603D1*
X169857Y27729D2*
X168107D1*
X169278Y14501D2*
X169570Y14597D1*
X169766Y14889D1*
X169862Y15374D1*
Y15666D1*
X169766Y16151D1*
X169570Y16443D1*
X169278Y16540D1*
X169085D1*
X168793Y16443D1*
X168600Y16151D1*
X168501Y15666D1*
Y15374D1*
X168600Y14889D1*
X168793Y14597D1*
X169085Y14501D1*
X169278D1*
X168600Y14889D2*
X169766Y16151D1*
X167874Y16540D2*
X166513Y14501D1*
X165885Y14889D2*
X165690Y14790D1*
X165398Y14501D1*
Y16540D1*
X156580Y19579D2*
X156775Y19675D1*
X156968Y19871D1*
X157067Y20064D1*
X157164Y20356D1*
Y20843D1*
X157067Y21133D1*
X156968Y21328D1*
X156775Y21521D1*
X156580Y21620D1*
X156191D1*
X155998Y21521D1*
X155802Y21328D1*
X155706Y21133D1*
X155609Y20843D1*
Y20356D1*
X155706Y20064D1*
X155802Y19871D1*
X155998Y19675D1*
X156191Y19579D1*
X156580D1*
X154982Y20259D2*
Y21232D1*
X154885Y21521D1*
X154690Y21620D1*
X154398D1*
X154205Y21521D1*
X153913Y21232D1*
Y20259D2*
Y21620D1*
X152993Y19579D2*
Y21232D1*
X152897Y21521D1*
X152701Y21620D1*
X152508D1*
X153285Y20259D2*
X152605D1*
X157164Y15520D2*
X156041D1*
X160291Y24661D2*
Y26703D1*
X160972Y24661D2*
X159611D1*
X158983Y25342D2*
Y26703D1*
Y25926D2*
X158884Y25634D1*
X158691Y25438D1*
X158496Y25342D1*
X158204D1*
X157576Y24661D2*
X157480Y24758D1*
X157381Y24661D1*
X157480Y24562D1*
X157576Y24661D1*
X157480Y25342D2*
Y26703D1*
X156754Y25342D2*
Y26703D1*
Y25730D2*
X156462Y25438D1*
X156266Y25342D1*
X155976D1*
X155781Y25438D1*
X155684Y25730D1*
Y26703D1*
Y25730D2*
X155392Y25438D1*
X155197Y25342D1*
X154907D1*
X154712Y25438D1*
X154613Y25730D1*
Y26703D1*
X156290Y34966D2*
Y36716D1*
X157164Y35842D2*
X155414D1*
X177263Y102864D2*
Y101115D1*
X176390Y101988D2*
X178139D1*
X178767Y103011D2*
X179544Y100970D1*
X180321Y103011D1*
X180949D2*
X181045Y102915D1*
X181144Y103011D1*
X181045Y103110D1*
X180949Y103011D1*
X181045Y102331D2*
Y100970D1*
X181772Y102331D2*
Y100970D1*
Y101942D2*
X182064Y102234D1*
X182259Y102331D1*
X182549D1*
X182744Y102234D1*
X182841Y101942D1*
Y100970D1*
X176705Y97222D2*
X177828D1*
X178455Y98244D2*
X179232Y96202D1*
X180010Y98244D1*
X180637D2*
X180734Y98147D1*
X180832Y98244D1*
X180734Y98343D1*
X180637Y98244D1*
X180734Y97563D2*
Y96202D1*
X181460Y97563D2*
Y96202D1*
Y97175D2*
X181752Y97467D1*
X181947Y97563D1*
X182237D1*
X182432Y97467D1*
X182529Y97175D1*
Y96202D1*
X143009Y104167D2*
Y102418D1*
X142135Y103291D2*
X143885D1*
X144512Y104314D2*
X145290Y102273D1*
X146067Y104314D1*
X147179Y103634D2*
X146986Y103537D1*
X146791Y103342D1*
X146694Y103050D1*
Y102857D1*
X146791Y102565D1*
X146986Y102372D1*
X147179Y102273D1*
X147471D1*
X147667Y102372D1*
X147860Y102565D1*
X147959Y102857D1*
Y103050D1*
X147860Y103342D1*
X147667Y103537D1*
X147471Y103634D1*
X147179D1*
X148586D2*
Y102661D1*
X148683Y102372D1*
X148878Y102273D1*
X149170D1*
X149363Y102372D1*
X149655Y102661D1*
Y103634D2*
Y102273D1*
X150575Y104314D2*
Y102661D1*
X150672Y102372D1*
X150867Y102273D1*
X151060D1*
X150283Y103634D2*
X150964D1*
X177070Y86207D2*
X177944D1*
X178236Y86306D1*
X178335Y86402D1*
X178432Y86596D1*
Y86791D1*
X178335Y86984D1*
X178236Y87083D1*
X177944Y87180D1*
X177070D1*
Y85138D1*
X177751Y86207D2*
X178432Y85138D1*
X179156Y85333D2*
X179059Y85234D1*
X179156Y85138D1*
X179254Y85234D1*
X179156Y85333D1*
X181340Y86694D2*
X181243Y86888D1*
X181048Y87083D1*
X180854Y87180D1*
X180466D1*
X180270Y87083D1*
X180077Y86888D1*
X179978Y86694D1*
X179882Y86402D1*
Y85915D1*
X179978Y85625D1*
X180077Y85430D1*
X180270Y85237D1*
X180466Y85138D1*
X180854D1*
X181048Y85237D1*
X181243Y85430D1*
X181340Y85625D1*
X182064Y85333D2*
X181967Y85234D1*
X182064Y85138D1*
X182163Y85234D1*
X182064Y85333D1*
X142450Y93445D2*
X143573D1*
X144201Y94467D2*
X144978Y92425D1*
X145755Y94467D1*
X146868Y93786D2*
X146675Y93690D1*
X146479Y93494D1*
X146383Y93202D1*
Y93009D1*
X146479Y92717D1*
X146675Y92524D1*
X146868Y92425D1*
X147160D1*
X147355Y92524D1*
X147548Y92717D1*
X147647Y93009D1*
Y93202D1*
X147548Y93494D1*
X147355Y93690D1*
X147160Y93786D1*
X146868D1*
X148275D2*
Y92814D1*
X148371Y92524D1*
X148567Y92425D1*
X148859D1*
X149052Y92524D1*
X149344Y92814D1*
Y93786D2*
Y92425D1*
X150263Y94467D2*
Y92814D1*
X150360Y92524D1*
X150555Y92425D1*
X150748D1*
X149971Y93786D2*
X150652D1*
X144101Y85277D2*
Y83235D1*
X143421Y85277D2*
X144782D1*
X145409Y84597D2*
Y83235D1*
Y84013D2*
X145508Y84305D1*
X145701Y84500D1*
X145897Y84597D1*
X146189D1*
X146816Y85277D2*
X146913Y85181D1*
X147011Y85277D1*
X146913Y85376D1*
X146816Y85277D1*
X146913Y84597D2*
Y83235D1*
X147639Y84597D2*
Y83235D1*
Y84208D2*
X147931Y84500D1*
X148126Y84597D1*
X148416D1*
X148611Y84500D1*
X148708Y84208D1*
Y83235D1*
Y84208D2*
X149000Y84500D1*
X149195Y84597D1*
X149485D1*
X149681Y84500D1*
X149779Y84208D1*
Y83235D1*
X177263Y68574D2*
Y66825D1*
X176390Y67698D2*
X178139D1*
X178767Y68721D2*
X179544Y66680D1*
X180321Y68721D1*
X180949D2*
X181045Y68625D1*
X181144Y68721D1*
X181045Y68820D1*
X180949Y68721D1*
X181045Y68041D2*
Y66680D1*
X181772Y68041D2*
Y66680D1*
Y67652D2*
X182064Y67944D1*
X182259Y68041D1*
X182549D1*
X182744Y67944D1*
X182841Y67652D1*
Y66680D1*
X176705Y62932D2*
X177828D1*
X178455Y63954D2*
X179232Y61912D1*
X180010Y63954D1*
X180637D2*
X180734Y63857D1*
X180832Y63954D1*
X180734Y64053D1*
X180637Y63954D1*
X180734Y63273D2*
Y61912D1*
X181460Y63273D2*
Y61912D1*
Y62885D2*
X181752Y63177D1*
X181947Y63273D1*
X182237D1*
X182432Y63177D1*
X182529Y62885D1*
Y61912D1*
X143009Y69877D2*
Y68128D1*
X142135Y69001D2*
X143885D1*
X144512Y70024D2*
X145290Y67983D1*
X146067Y70024D1*
X147179Y69344D2*
X146986Y69247D1*
X146791Y69052D1*
X146694Y68760D1*
Y68567D1*
X146791Y68275D1*
X146986Y68082D1*
X147179Y67983D1*
X147471D1*
X147667Y68082D1*
X147860Y68275D1*
X147959Y68567D1*
Y68760D1*
X147860Y69052D1*
X147667Y69247D1*
X147471Y69344D1*
X147179D1*
X148586D2*
Y68371D1*
X148683Y68082D1*
X148878Y67983D1*
X149170D1*
X149363Y68082D1*
X149655Y68371D1*
Y69344D2*
Y67983D1*
X150575Y70024D2*
Y68371D1*
X150672Y68082D1*
X150867Y67983D1*
X151060D1*
X150283Y69344D2*
X150964D1*
X177070Y51917D2*
X177944D1*
X178236Y52016D1*
X178335Y52112D1*
X178432Y52306D1*
Y52501D1*
X178335Y52694D1*
X178236Y52793D1*
X177944Y52890D1*
X177070D1*
Y50848D1*
X177751Y51917D2*
X178432Y50848D1*
X179156Y51043D2*
X179059Y50944D1*
X179156Y50848D1*
X179254Y50944D1*
X179156Y51043D1*
X181340Y52404D2*
X181243Y52598D1*
X181048Y52793D1*
X180854Y52890D1*
X180466D1*
X180270Y52793D1*
X180077Y52598D1*
X179978Y52404D1*
X179882Y52112D1*
Y51625D1*
X179978Y51335D1*
X180077Y51140D1*
X180270Y50947D1*
X180466Y50848D1*
X180854D1*
X181048Y50947D1*
X181243Y51140D1*
X181340Y51335D1*
X182064Y51043D2*
X181967Y50944D1*
X182064Y50848D1*
X182163Y50944D1*
X182064Y51043D1*
X142450Y59155D2*
X143573D1*
X144201Y60177D2*
X144978Y58135D1*
X145755Y60177D1*
X146868Y59496D2*
X146675Y59400D1*
X146479Y59204D1*
X146383Y58912D1*
Y58719D1*
X146479Y58427D1*
X146675Y58234D1*
X146868Y58135D1*
X147160D1*
X147355Y58234D1*
X147548Y58427D1*
X147647Y58719D1*
Y58912D1*
X147548Y59204D1*
X147355Y59400D1*
X147160Y59496D1*
X146868D1*
X148275D2*
Y58524D1*
X148371Y58234D1*
X148567Y58135D1*
X148859D1*
X149052Y58234D1*
X149344Y58524D1*
Y59496D2*
Y58135D1*
X150263Y60177D2*
Y58524D1*
X150360Y58234D1*
X150555Y58135D1*
X150748D1*
X149971Y59496D2*
X150652D1*
X144101Y50987D2*
Y48945D1*
X143421Y50987D2*
X144782D1*
X145409Y50307D2*
Y48945D1*
Y49723D2*
X145508Y50015D1*
X145701Y50210D1*
X145897Y50307D1*
X146189D1*
X146816Y50987D2*
X146913Y50891D1*
X147011Y50987D1*
X146913Y51086D1*
X146816Y50987D1*
X146913Y50307D2*
Y48945D1*
X147639Y50307D2*
Y48945D1*
Y49918D2*
X147931Y50210D1*
X148126Y50307D1*
X148416D1*
X148611Y50210D1*
X148708Y49918D1*
Y48945D1*
Y49918D2*
X149000Y50210D1*
X149195Y50307D1*
X149485D1*
X149681Y50210D1*
X149779Y49918D1*
Y48945D1*
X177263Y34284D2*
Y32535D1*
X176390Y33408D2*
X178139D1*
X178767Y34431D2*
X179544Y32390D1*
X180321Y34431D1*
X180949D2*
X181045Y34335D1*
X181144Y34431D1*
X181045Y34530D1*
X180949Y34431D1*
X181045Y33751D2*
Y32390D1*
X181772Y33751D2*
Y32390D1*
Y33362D2*
X182064Y33654D1*
X182259Y33751D1*
X182549D1*
X182744Y33654D1*
X182841Y33362D1*
Y32390D1*
X176705Y28642D2*
X177828D1*
X178455Y29664D2*
X179232Y27622D1*
X180010Y29664D1*
X180637D2*
X180734Y29567D1*
X180832Y29664D1*
X180734Y29763D1*
X180637Y29664D1*
X180734Y28983D2*
Y27622D1*
X181460Y28983D2*
Y27622D1*
Y28595D2*
X181752Y28887D1*
X181947Y28983D1*
X182237D1*
X182432Y28887D1*
X182529Y28595D1*
Y27622D1*
X143009Y35587D2*
Y33838D1*
X142135Y34711D2*
X143885D1*
X144512Y35734D2*
X145290Y33693D1*
X146067Y35734D1*
X147179Y35054D2*
X146986Y34957D1*
X146791Y34762D1*
X146694Y34470D1*
Y34277D1*
X146791Y33985D1*
X146986Y33792D1*
X147179Y33693D1*
X147471D1*
X147667Y33792D1*
X147860Y33985D1*
X147959Y34277D1*
Y34470D1*
X147860Y34762D1*
X147667Y34957D1*
X147471Y35054D1*
X147179D1*
X148586D2*
Y34081D1*
X148683Y33792D1*
X148878Y33693D1*
X149170D1*
X149363Y33792D1*
X149655Y34081D1*
Y35054D2*
Y33693D1*
X150575Y35734D2*
Y34081D1*
X150672Y33792D1*
X150867Y33693D1*
X151060D1*
X150283Y35054D2*
X150964D1*
X177070Y17627D2*
X177944D1*
X178236Y17726D1*
X178335Y17822D1*
X178432Y18016D1*
Y18211D1*
X178335Y18404D1*
X178236Y18503D1*
X177944Y18600D1*
X177070D1*
Y16558D1*
X177751Y17627D2*
X178432Y16558D1*
X179156Y16753D2*
X179059Y16654D1*
X179156Y16558D1*
X179254Y16654D1*
X179156Y16753D1*
X181340Y18114D2*
X181243Y18308D1*
X181048Y18503D1*
X180854Y18600D1*
X180466D1*
X180270Y18503D1*
X180077Y18308D1*
X179978Y18114D1*
X179882Y17822D1*
Y17335D1*
X179978Y17045D1*
X180077Y16850D1*
X180270Y16657D1*
X180466Y16558D1*
X180854D1*
X181048Y16657D1*
X181243Y16850D1*
X181340Y17045D1*
X182064Y16753D2*
X181967Y16654D1*
X182064Y16558D1*
X182163Y16654D1*
X182064Y16753D1*
X142450Y24865D2*
X143573D1*
X144201Y25887D2*
X144978Y23845D1*
X145755Y25887D1*
X146868Y25206D2*
X146675Y25110D1*
X146479Y24914D1*
X146383Y24622D1*
Y24429D1*
X146479Y24137D1*
X146675Y23944D1*
X146868Y23845D1*
X147160D1*
X147355Y23944D1*
X147548Y24137D1*
X147647Y24429D1*
Y24622D1*
X147548Y24914D1*
X147355Y25110D1*
X147160Y25206D1*
X146868D1*
X148275D2*
Y24234D1*
X148371Y23944D1*
X148567Y23845D1*
X148859D1*
X149052Y23944D1*
X149344Y24234D1*
Y25206D2*
Y23845D1*
X150263Y25887D2*
Y24234D1*
X150360Y23944D1*
X150555Y23845D1*
X150748D1*
X149971Y25206D2*
X150652D1*
X144101Y16697D2*
Y14655D1*
X143421Y16697D2*
X144782D1*
X145409Y16017D2*
Y14655D1*
Y15433D2*
X145508Y15725D1*
X145701Y15920D1*
X145897Y16017D1*
X146189D1*
X146816Y16697D2*
X146913Y16601D1*
X147011Y16697D1*
X146913Y16796D1*
X146816Y16697D1*
X146913Y16017D2*
Y14655D1*
X147639Y16017D2*
Y14655D1*
Y15628D2*
X147931Y15920D1*
X148126Y16017D1*
X148416D1*
X148611Y15920D1*
X148708Y15628D1*
Y14655D1*
Y15628D2*
X149000Y15920D1*
X149195Y16017D1*
X149485D1*
X149681Y15920D1*
X149779Y15628D1*
Y14655D1*
M02*
