G04 DipTrace 2.4.0.2*
%INpsu_1.GBS*%
%MOMM*%
%ADD29R,1.8X1.8*%
%ADD32C,3.556*%
%ADD46C,5.08*%
%ADD47C,3.0*%
%ADD58C,2.1*%
%ADD59C,1.7*%
%ADD60R,2.1X2.1*%
%ADD61R,1.7X1.7*%
%ADD62O,1.6X2.0*%
%ADD64R,1.6X2.0*%
%ADD66C,1.724*%
%ADD68C,2.74*%
%ADD70C,2.74*%
%ADD72R,1.47X1.47*%
%ADD74C,1.47*%
%ADD76C,1.724*%
%ADD82C,2.0*%
%ADD84R,2.0X2.0*%
%ADD85R,1.5X1.7*%
%ADD87R,1.7X1.5*%
%ADD89C,1.8*%
%FSLAX53Y53*%
G04*
G71*
G90*
G75*
G01*
%LNBotMask*%
%LPD*%
D29*
X191610Y88740D3*
D89*
X194150D3*
D29*
X191610Y55720D3*
D89*
X194150D3*
D29*
X191610Y41750D3*
D89*
X194150D3*
Y96360D3*
D29*
X191610D3*
D89*
X194150Y63340D3*
D29*
X191610D3*
D89*
X194150Y34130D3*
D29*
X191610D3*
D87*
X185260Y65563D3*
Y63663D3*
Y99853D3*
Y97953D3*
Y31273D3*
Y29373D3*
X139540Y99853D3*
Y97953D3*
Y65563D3*
Y63663D3*
Y31273D3*
Y29373D3*
D89*
X133190Y97630D3*
D29*
Y100170D3*
D89*
Y63340D3*
D29*
Y65880D3*
D89*
Y29050D3*
D29*
Y31590D3*
X126840Y100170D3*
D89*
Y97630D3*
D29*
Y65880D3*
D89*
Y63340D3*
D29*
Y31590D3*
D89*
Y29050D3*
D85*
X91910Y64610D3*
X90010D3*
X90330Y31910D3*
X92230D3*
X90010Y99535D3*
X91910D3*
D89*
X91915Y96360D3*
D29*
X89375D3*
D89*
X90010Y68420D3*
D29*
X92550D3*
D89*
Y27780D3*
D29*
X90010D3*
X92550Y74770D3*
D89*
X90010D3*
D29*
X89375Y90010D3*
D89*
X91915D3*
D29*
X90010Y21430D3*
D89*
X92550D3*
X63975Y20160D3*
D29*
X61435D3*
D89*
X64610Y83660D3*
D29*
X67150D3*
X60800Y67150D3*
D89*
Y69690D3*
D29*
Y55720D3*
D89*
Y58260D3*
D29*
X35400Y88740D3*
D89*
Y86200D3*
D29*
X43020Y48100D3*
D89*
Y45560D3*
D84*
X72230Y76040D3*
D82*
X61180D3*
D84*
X62070Y50640D3*
D82*
X73120D3*
D84*
X54450Y76040D3*
D82*
Y64990D3*
D84*
Y58260D3*
D82*
Y47210D3*
D32*
X203040Y63340D3*
Y69182D3*
Y83340D3*
Y77498D3*
D47*
X15080Y15080D3*
Y105250D3*
X205580D3*
X121760D3*
Y15080D3*
X205580D3*
D61*
X106520Y84930D3*
D59*
Y87470D3*
D61*
Y51910D3*
D59*
Y49370D3*
D61*
Y20160D3*
D59*
Y22700D3*
D76*
X197960Y49370D3*
X203168D3*
X112870Y100170D3*
X118078D3*
X115410Y63340D3*
X120618D3*
X115410Y31590D3*
X120618D3*
D74*
X29050Y25240D3*
D72*
X26510D3*
D74*
X29050Y100170D3*
D72*
X26510D3*
D74*
X29050Y50640D3*
D72*
X26510D3*
D70*
X172560Y91280D3*
Y96360D3*
X152875Y83660D3*
Y103980D3*
Y93820D3*
X172560Y83660D3*
Y56990D3*
Y62070D3*
X152875Y49370D3*
Y69690D3*
Y59530D3*
X172560Y49370D3*
Y22700D3*
Y27780D3*
X152875Y15080D3*
Y35400D3*
Y25240D3*
X172560Y15080D3*
X139540Y93820D3*
Y83660D3*
Y103980D3*
X185260Y96360D3*
Y101440D3*
Y86200D3*
X139540Y59530D3*
Y49370D3*
Y69690D3*
X185260Y62070D3*
Y67150D3*
Y51910D3*
X139540Y25240D3*
Y15080D3*
Y35400D3*
X185260Y27780D3*
Y32860D3*
Y17620D3*
X89375Y103980D3*
D68*
X109695D3*
D70*
X90010Y60800D3*
D68*
X110330D3*
D70*
X90010Y35400D3*
D68*
X110330D3*
D76*
X78580Y63340D3*
D66*
Y76040D3*
D76*
Y58260D3*
D66*
Y45560D3*
D76*
X35400Y17620D3*
D66*
Y30320D3*
D76*
X49370Y76040D3*
D66*
Y63340D3*
D76*
Y58260D3*
D66*
Y45560D3*
D76*
X35400Y92550D3*
D66*
Y105250D3*
D76*
Y55720D3*
D66*
Y43020D3*
D70*
X131920Y87470D3*
D68*
X111600D3*
D70*
X131920Y50640D3*
D68*
X111600D3*
D70*
X131920Y22700D3*
D68*
X111600D3*
D61*
X72230Y69690D3*
D59*
X69690Y67150D3*
X67150Y69690D3*
D61*
X72230Y58260D3*
D59*
X69690Y55720D3*
X67150Y58260D3*
D64*
X66674Y29050D3*
D62*
X64964D3*
X63254D3*
X61544D3*
X59834D3*
D60*
X62070Y91280D3*
D58*
X64610D3*
X67150D3*
G36*
X21219Y65670D2*
X21581Y65606D1*
X21900Y65422D1*
X22137Y65141D1*
X22263Y64795D1*
Y64427D1*
X22138Y64081D1*
X21901Y63799D1*
X21583Y63615D1*
X21220Y63551D1*
X19101D1*
X18739Y63614D1*
X18420Y63798D1*
X18183Y64079D1*
X18057Y64425D1*
Y64793D1*
X18183Y65139D1*
X18419Y65421D1*
X18737Y65605D1*
X19100Y65670D1*
X21219D1*
G37*
G36*
X16227Y65770D2*
X16616Y65701D1*
X16965Y65500D1*
X17225Y65191D1*
X17363Y64813D1*
Y64409D1*
X17225Y64030D1*
X16967Y63721D1*
X16618Y63519D1*
X16229Y63451D1*
X14093D1*
X13704Y63519D1*
X13355Y63720D1*
X13096Y64029D1*
X12957Y64407D1*
Y64811D1*
X13095Y65190D1*
X13353Y65499D1*
X13702Y65701D1*
X14091Y65770D1*
X16227D1*
G37*
G36*
X14021Y69901D2*
X13659Y69964D1*
X13340Y70148D1*
X13103Y70429D1*
X12977Y70775D1*
Y71143D1*
X13103Y71489D1*
X13339Y71771D1*
X13657Y71955D1*
X14020Y72020D1*
X16139D1*
X16501Y71956D1*
X16820Y71772D1*
X17057Y71491D1*
X17183Y71145D1*
Y70777D1*
X17058Y70431D1*
X16821Y70149D1*
X16503Y69965D1*
X16140Y69901D1*
X14021D1*
G37*
G36*
X19013Y69801D2*
X18624Y69869D1*
X18275Y70070D1*
X18016Y70379D1*
X17877Y70757D1*
Y71161D1*
X18015Y71540D1*
X18273Y71849D1*
X18622Y72051D1*
X19011Y72120D1*
X21147D1*
X21536Y72051D1*
X21885Y71850D1*
X22145Y71541D1*
X22283Y71163D1*
Y70759D1*
X22145Y70380D1*
X21887Y70071D1*
X21538Y69869D1*
X21149Y69801D1*
X19013D1*
G37*
G36*
X21219Y78370D2*
X21581Y78306D1*
X21900Y78122D1*
X22137Y77841D1*
X22263Y77495D1*
Y77127D1*
X22138Y76781D1*
X21901Y76499D1*
X21583Y76315D1*
X21220Y76251D1*
X19101D1*
X18739Y76314D1*
X18420Y76498D1*
X18183Y76779D1*
X18057Y77125D1*
Y77493D1*
X18183Y77839D1*
X18419Y78121D1*
X18737Y78305D1*
X19100Y78370D1*
X21219D1*
G37*
G36*
X16227Y78470D2*
X16616Y78401D1*
X16965Y78200D1*
X17225Y77891D1*
X17363Y77513D1*
Y77109D1*
X17225Y76730D1*
X16967Y76421D1*
X16618Y76219D1*
X16229Y76151D1*
X14093D1*
X13704Y76219D1*
X13355Y76420D1*
X13096Y76729D1*
X12957Y77107D1*
Y77511D1*
X13095Y77890D1*
X13353Y78199D1*
X13702Y78401D1*
X14091Y78470D1*
X16227D1*
G37*
G36*
X199521Y96571D2*
X199159Y96634D1*
X198840Y96818D1*
X198603Y97099D1*
X198477Y97445D1*
Y97813D1*
X198603Y98159D1*
X198839Y98441D1*
X199157Y98625D1*
X199520Y98690D1*
X201639D1*
X202001Y98626D1*
X202320Y98442D1*
X202557Y98161D1*
X202683Y97815D1*
Y97447D1*
X202558Y97101D1*
X202321Y96819D1*
X202003Y96635D1*
X201640Y96571D1*
X199521D1*
G37*
G36*
X204513Y96471D2*
X204124Y96539D1*
X203775Y96740D1*
X203516Y97049D1*
X203377Y97427D1*
Y97831D1*
X203515Y98210D1*
X203773Y98519D1*
X204122Y98721D1*
X204511Y98790D1*
X206647D1*
X207036Y98721D1*
X207385Y98520D1*
X207645Y98211D1*
X207783Y97833D1*
Y97429D1*
X207645Y97050D1*
X207387Y96741D1*
X207038Y96539D1*
X206649Y96471D1*
X204513D1*
G37*
G36*
X14021Y26721D2*
X13659Y26784D1*
X13340Y26968D1*
X13103Y27249D1*
X12977Y27595D1*
Y27963D1*
X13103Y28309D1*
X13339Y28591D1*
X13657Y28775D1*
X14020Y28840D1*
X16139D1*
X16501Y28776D1*
X16820Y28592D1*
X17057Y28311D1*
X17183Y27965D1*
Y27597D1*
X17058Y27251D1*
X16821Y26969D1*
X16503Y26785D1*
X16140Y26721D1*
X14021D1*
G37*
G36*
X19013Y26621D2*
X18624Y26689D1*
X18275Y26890D1*
X18016Y27199D1*
X17877Y27577D1*
Y27981D1*
X18015Y28360D1*
X18273Y28669D1*
X18622Y28871D1*
X19011Y28940D1*
X21147D1*
X21536Y28871D1*
X21885Y28670D1*
X22145Y28361D1*
X22283Y27983D1*
Y27579D1*
X22145Y27200D1*
X21887Y26891D1*
X21538Y26689D1*
X21149Y26621D1*
X19013D1*
G37*
G36*
X14021Y20371D2*
X13659Y20434D1*
X13340Y20618D1*
X13103Y20899D1*
X12977Y21245D1*
Y21613D1*
X13103Y21959D1*
X13339Y22241D1*
X13657Y22425D1*
X14020Y22490D1*
X16139D1*
X16501Y22426D1*
X16820Y22242D1*
X17057Y21961D1*
X17183Y21615D1*
Y21247D1*
X17058Y20901D1*
X16821Y20619D1*
X16503Y20435D1*
X16140Y20371D1*
X14021D1*
G37*
G36*
X19013Y20271D2*
X18624Y20339D1*
X18275Y20540D1*
X18016Y20849D1*
X17877Y21227D1*
Y21631D1*
X18015Y22010D1*
X18273Y22319D1*
X18622Y22521D1*
X19011Y22590D1*
X21147D1*
X21536Y22521D1*
X21885Y22320D1*
X22145Y22011D1*
X22283Y21633D1*
Y21229D1*
X22145Y20850D1*
X21887Y20541D1*
X21538Y20339D1*
X21149Y20271D1*
X19013D1*
G37*
G36*
X21219Y35190D2*
X21581Y35126D1*
X21900Y34942D1*
X22137Y34661D1*
X22263Y34315D1*
Y33947D1*
X22138Y33601D1*
X21901Y33319D1*
X21583Y33135D1*
X21220Y33071D1*
X19101D1*
X18739Y33134D1*
X18420Y33318D1*
X18183Y33599D1*
X18057Y33945D1*
Y34313D1*
X18183Y34659D1*
X18419Y34941D1*
X18737Y35125D1*
X19100Y35190D1*
X21219D1*
G37*
G36*
X16227Y35290D2*
X16616Y35221D1*
X16965Y35020D1*
X17225Y34711D1*
X17363Y34333D1*
Y33929D1*
X17225Y33550D1*
X16967Y33241D1*
X16618Y33039D1*
X16229Y32971D1*
X14093D1*
X13704Y33039D1*
X13355Y33240D1*
X13096Y33549D1*
X12957Y33927D1*
Y34331D1*
X13095Y34710D1*
X13353Y35019D1*
X13702Y35221D1*
X14091Y35290D1*
X16227D1*
G37*
G36*
X199441Y91491D2*
X199079Y91554D1*
X198760Y91738D1*
X198523Y92019D1*
X198397Y92365D1*
Y92733D1*
X198523Y93079D1*
X198759Y93361D1*
X199077Y93545D1*
X199440Y93610D1*
X201559D1*
X201921Y93546D1*
X202240Y93362D1*
X202477Y93081D1*
X202603Y92735D1*
Y92367D1*
X202478Y92021D1*
X202241Y91739D1*
X201923Y91555D1*
X201560Y91491D1*
X199441D1*
G37*
G36*
X204433Y91391D2*
X204044Y91459D1*
X203695Y91660D1*
X203436Y91969D1*
X203297Y92347D1*
Y92751D1*
X203435Y93130D1*
X203693Y93439D1*
X204042Y93641D1*
X204431Y93710D1*
X206567D1*
X206956Y93641D1*
X207305Y93440D1*
X207565Y93131D1*
X207703Y92753D1*
Y92349D1*
X207565Y91970D1*
X207307Y91661D1*
X206958Y91459D1*
X206569Y91391D1*
X204433D1*
G37*
G36*
X21219Y99960D2*
X21581Y99896D1*
X21900Y99712D1*
X22137Y99431D1*
X22263Y99085D1*
Y98717D1*
X22138Y98371D1*
X21901Y98089D1*
X21583Y97905D1*
X21220Y97841D1*
X19101D1*
X18739Y97904D1*
X18420Y98088D1*
X18183Y98369D1*
X18057Y98715D1*
Y99083D1*
X18183Y99429D1*
X18419Y99711D1*
X18737Y99895D1*
X19100Y99960D1*
X21219D1*
G37*
G36*
X16227Y100060D2*
X16616Y99991D1*
X16965Y99790D1*
X17225Y99481D1*
X17363Y99103D1*
Y98699D1*
X17225Y98320D1*
X16967Y98011D1*
X16618Y97809D1*
X16229Y97741D1*
X14093D1*
X13704Y97809D1*
X13355Y98010D1*
X13096Y98319D1*
X12957Y98697D1*
Y99101D1*
X13095Y99480D1*
X13353Y99789D1*
X13702Y99991D1*
X14091Y100060D1*
X16227D1*
G37*
G36*
X14021Y91491D2*
X13659Y91554D1*
X13340Y91738D1*
X13103Y92019D1*
X12977Y92365D1*
Y92733D1*
X13103Y93079D1*
X13339Y93361D1*
X13657Y93545D1*
X14020Y93610D1*
X16139D1*
X16501Y93546D1*
X16820Y93362D1*
X17057Y93081D1*
X17183Y92735D1*
Y92367D1*
X17058Y92021D1*
X16821Y91739D1*
X16503Y91555D1*
X16140Y91491D1*
X14021D1*
G37*
G36*
X19013Y91391D2*
X18624Y91459D1*
X18275Y91660D1*
X18016Y91969D1*
X17877Y92347D1*
Y92751D1*
X18015Y93130D1*
X18273Y93439D1*
X18622Y93641D1*
X19011Y93710D1*
X21147D1*
X21536Y93641D1*
X21885Y93440D1*
X22145Y93131D1*
X22283Y92753D1*
Y92349D1*
X22145Y91970D1*
X21887Y91661D1*
X21538Y91459D1*
X21149Y91391D1*
X19013D1*
G37*
G36*
X14021Y85141D2*
X13659Y85204D1*
X13340Y85388D1*
X13103Y85669D1*
X12977Y86015D1*
Y86383D1*
X13103Y86729D1*
X13339Y87011D1*
X13657Y87195D1*
X14020Y87260D1*
X16139D1*
X16501Y87196D1*
X16820Y87012D1*
X17057Y86731D1*
X17183Y86385D1*
Y86017D1*
X17058Y85671D1*
X16821Y85389D1*
X16503Y85205D1*
X16140Y85141D1*
X14021D1*
G37*
G36*
X19013Y85041D2*
X18624Y85109D1*
X18275Y85310D1*
X18016Y85619D1*
X17877Y85997D1*
Y86401D1*
X18015Y86780D1*
X18273Y87089D1*
X18622Y87291D1*
X19011Y87360D1*
X21147D1*
X21536Y87291D1*
X21885Y87090D1*
X22145Y86781D1*
X22283Y86403D1*
Y85999D1*
X22145Y85620D1*
X21887Y85311D1*
X21538Y85109D1*
X21149Y85041D1*
X19013D1*
G37*
D46*
X50640Y25240D3*
X76040D3*
X51910Y95090D3*
X77310D3*
G36*
X21219Y56780D2*
X21581Y56716D1*
X21900Y56532D1*
X22137Y56251D1*
X22263Y55905D1*
Y55537D1*
X22138Y55191D1*
X21901Y54909D1*
X21583Y54725D1*
X21220Y54661D1*
X19101D1*
X18739Y54724D1*
X18420Y54908D1*
X18183Y55189D1*
X18057Y55535D1*
Y55903D1*
X18183Y56249D1*
X18419Y56531D1*
X18737Y56715D1*
X19100Y56780D1*
X21219D1*
G37*
G36*
X16227Y56880D2*
X16616Y56811D1*
X16965Y56610D1*
X17225Y56301D1*
X17363Y55923D1*
Y55519D1*
X17225Y55140D1*
X16967Y54831D1*
X16618Y54629D1*
X16229Y54561D1*
X14093D1*
X13704Y54629D1*
X13355Y54830D1*
X13096Y55139D1*
X12957Y55517D1*
Y55921D1*
X13095Y56300D1*
X13353Y56609D1*
X13702Y56811D1*
X14091Y56880D1*
X16227D1*
G37*
G36*
X21219Y44080D2*
X21581Y44016D1*
X21900Y43832D1*
X22137Y43551D1*
X22263Y43205D1*
Y42837D1*
X22138Y42491D1*
X21901Y42209D1*
X21583Y42025D1*
X21220Y41961D1*
X19101D1*
X18739Y42024D1*
X18420Y42208D1*
X18183Y42489D1*
X18057Y42835D1*
Y43203D1*
X18183Y43549D1*
X18419Y43831D1*
X18737Y44015D1*
X19100Y44080D1*
X21219D1*
G37*
G36*
X16227Y44180D2*
X16616Y44111D1*
X16965Y43910D1*
X17225Y43601D1*
X17363Y43223D1*
Y42819D1*
X17225Y42440D1*
X16967Y42131D1*
X16618Y41929D1*
X16229Y41861D1*
X14093D1*
X13704Y41929D1*
X13355Y42130D1*
X13096Y42439D1*
X12957Y42817D1*
Y43221D1*
X13095Y43600D1*
X13353Y43909D1*
X13702Y44111D1*
X14091Y44180D1*
X16227D1*
G37*
G36*
X14021Y48311D2*
X13659Y48374D1*
X13340Y48558D1*
X13103Y48839D1*
X12977Y49185D1*
Y49553D1*
X13103Y49899D1*
X13339Y50181D1*
X13657Y50365D1*
X14020Y50430D1*
X16139D1*
X16501Y50366D1*
X16820Y50182D1*
X17057Y49901D1*
X17183Y49555D1*
Y49187D1*
X17058Y48841D1*
X16821Y48559D1*
X16503Y48375D1*
X16140Y48311D1*
X14021D1*
G37*
G36*
X19013Y48211D2*
X18624Y48279D1*
X18275Y48480D1*
X18016Y48789D1*
X17877Y49167D1*
Y49571D1*
X18015Y49950D1*
X18273Y50259D1*
X18622Y50461D1*
X19011Y50530D1*
X21147D1*
X21536Y50461D1*
X21885Y50260D1*
X22145Y49951D1*
X22283Y49573D1*
Y49169D1*
X22145Y48790D1*
X21887Y48481D1*
X21538Y48279D1*
X21149Y48211D1*
X19013D1*
G37*
M02*
