M48
METRIC,0000.00
T01C0.635
T02C0.711
T03C0.9
T04C0.965
T05C1.0
T06C1.016
T07C1.1
T08C1.143
T09C1.2
T10C1.3
T11C1.575
T12C1.575
T13C2.54
T14C3.0
%
T01
X+019796Y+004937
X+020317Y+004937
X+012062Y+006334
X+011541Y+006334
X+011541Y+003159
X+012062Y+003159
X+011808Y+010017
X+011287Y+010017
T02
X+002905Y+002524
X+002651Y+002524
X+002651Y+005064
X+002905Y+005064
X+002905Y+010017
X+002651Y+010017
T03
X+019161Y+008874
X+019415Y+008874
X+019415Y+005572
X+019161Y+005572
X+019161Y+004175
X+019415Y+004175
X+012684Y+003159
X+012684Y+002905
X+010652Y+002270
X+010652Y+002016
X+009255Y+002143
X+009001Y+002143
X+010652Y+004937
X+010652Y+005191
X+012684Y+006334
X+012684Y+006588
X+010652Y+008493
X+010652Y+008747
X+009192Y+009001
X+008938Y+009001
X+009001Y+007477
X+009255Y+007477
X+007223Y+006969
X+006969Y+006715
X+006715Y+006969
X+006080Y+006969
X+006080Y+006715
X+006080Y+005826
X+006080Y+005572
X+006715Y+005826
X+006969Y+005572
X+007223Y+005826
X+004302Y+004810
X+004302Y+004556
X+003540Y+008620
X+003540Y+008874
X+012684Y+009763
X+012684Y+010017
T04
X+007858Y+006334
X+007858Y+005826
X+007858Y+004556
X+004937Y+004556
X+004937Y+005826
X+004937Y+006334
X+004937Y+007604
X+003540Y+009255
X+003540Y+010525
X+003540Y+005572
X+003540Y+004302
X+003540Y+003032
X+003540Y+001762
X+007858Y+007604
T05
X+019415Y+009636
X+019161Y+009636
X+019161Y+006334
X+019415Y+006334
X+019415Y+003413
X+019161Y+003413
X+013319Y+003159
X+013319Y+002905
X+013319Y+006334
X+013319Y+006588
X+013319Y+009763
X+013319Y+010017
X+009192Y+009636
X+008938Y+009636
X+006715Y+008366
X+006461Y+008366
X+009001Y+006842
X+009255Y+006842
X+009255Y+002778
X+009001Y+002778
X+006398Y+002016
X+006144Y+002016
T06
X+017256Y+009128
X+017256Y+009636
X+015288Y+009382
X+015288Y+010398
X+015288Y+008366
X+015288Y+006969
X+015288Y+005953
X+015288Y+004937
X+015288Y+003540
X+015288Y+002524
X+015288Y+001508
X+017256Y+002270
X+017256Y+002778
X+017256Y+005699
X+017256Y+006207
T07
X+006667Y+002905
X+006496Y+002905
X+006325Y+002905
X+006154Y+002905
X+005983Y+002905
X+006207Y+009128
X+006461Y+009128
X+006715Y+009128
T08
X+017256Y+008366
X+018526Y+008620
X+018526Y+009636
X+018526Y+010144
X+018526Y+006715
X+018526Y+006207
X+018526Y+005191
X+017256Y+004937
X+018526Y+003286
X+018526Y+002778
X+018526Y+001762
X+017256Y+001508
X+013954Y+001508
X+013954Y+002524
X+013954Y+003540
X+013954Y+004937
X+013954Y+005953
X+013954Y+006969
X+013954Y+008366
X+013954Y+009382
X+013954Y+010398
T09
X+007223Y+007604
X+006118Y+007604
X+005445Y+007604
X+005445Y+006499
X+005445Y+005826
X+006207Y+005064
X+005445Y+004721
X+007312Y+005064
T10
X+002016Y+006461
X+001516Y+006461
X+001508Y+007096
X+002008Y+007096
X+002016Y+007731
X+001516Y+007731
X+001508Y+008620
X+002008Y+008620
X+002008Y+009255
X+001508Y+009255
X+001516Y+009890
X+002016Y+009890
X+002016Y+005572
X+001516Y+005572
X+001508Y+004937
X+002008Y+004937
X+002016Y+004302
X+001516Y+004302
X+001516Y+003413
X+002016Y+003413
X+002008Y+002778
X+001508Y+002778
X+001508Y+002143
X+002008Y+002143
X+020050Y+009255
X+020550Y+009255
X+020558Y+009763
X+020058Y+009763
T11
X+008938Y+010398
X+009001Y+006080
X+009001Y+003540
X+013192Y+002270
X+013192Y+005064
X+013192Y+008747
T12
X+010970Y+010398
X+011160Y+008747
X+011033Y+006080
X+011160Y+005064
X+011033Y+003540
X+011160Y+002270
T13
X+020304Y+006334
X+020304Y+006918
X+020304Y+007750
X+020304Y+008334
X+007731Y+009509
X+005191Y+009509
X+005064Y+002524
X+007604Y+002524
T14
X+001508Y+001508
X+001508Y+010525
X+012176Y+010525
X+020558Y+010525
X+020558Y+001508
X+012176Y+001508
T00
M30
