G04 DipTrace 2.4.0.2*
%INpsu_1.GTL*%
%MOMM*%
%ADD13C,2.032*%
%ADD14C,1.524*%
%ADD15C,1.016*%
%ADD16C,1.27*%
%ADD17C,4.064*%
%ADD19C,2.54*%
%ADD21C,3.048*%
%ADD24C,0.635*%
%ADD25R,1.6X1.6*%
%ADD26C,1.6*%
%ADD29R,1.8X1.8*%
%ADD30C,1.8*%
%ADD32C,3.556*%
%ADD33R,1.5X1.5*%
%ADD34C,1.5*%
%ADD36R,1.27X1.27*%
%ADD37C,2.54*%
%ADD38C,1.524*%
%ADD39R,1.4X1.8*%
%ADD40O,1.4X1.8*%
%ADD41R,1.9X1.9*%
%ADD42C,1.9*%
%ADD46C,5.08*%
%FSLAX53Y53*%
G04*
G71*
G90*
G75*
G01*
%LNTop*%
%LPD*%
X194150Y96360D2*
D19*
X194468D1*
Y88740D1*
X194150D1*
X194468D2*
Y63340D1*
X194150D1*
X194468D2*
Y55720D1*
X194150D1*
X194468D2*
Y41750D1*
X194150D1*
X194468D2*
Y34130D1*
X194150D1*
X194468D2*
Y31908D1*
X190340Y27780D1*
X185260D1*
X194468Y63340D2*
Y59530D1*
X190340D1*
X187800Y62070D1*
X185260D1*
X194150Y96360D2*
Y92550D1*
X189070D1*
X185260Y96360D1*
X200580Y97630D2*
X195420D1*
X194150Y96360D1*
X200580Y97630D2*
D17*
X205580D1*
X185260Y62070D2*
D19*
X177640D1*
X172560Y56990D1*
X185260Y96360D2*
X177640D1*
X172560Y91280D1*
X185260Y27780D2*
X177640D1*
X172560Y22700D1*
X131920Y87470D2*
D21*
Y86200D1*
X126840Y81120D1*
X89058D1*
X84930D1*
X79850Y76040D1*
X78580D1*
X131920Y50640D2*
Y48100D1*
X128110Y44290D1*
X83660D1*
X82390Y45560D1*
X78580D1*
X131920Y22700D2*
X120490D1*
X111600Y13810D1*
X87471D1*
X78580D1*
X69690Y22700D1*
Y40480D1*
X74770Y45560D1*
X78580D1*
X92550Y74770D2*
D19*
X92868D1*
Y77311D1*
X89058Y81120D1*
X92550Y21430D2*
X92868D1*
Y19207D1*
X87471Y13810D1*
X61544Y29050D2*
D15*
Y20269D1*
X61435Y20160D1*
X91915Y90010D2*
D19*
Y83977D1*
X89058Y81120D1*
X18115Y106841D2*
D24*
X33248D1*
X37552D2*
X85824D1*
X18373Y106209D2*
X32891D1*
X37909D2*
X85824D1*
X18492Y105578D2*
X32732D1*
X38068D2*
X85824D1*
X18492Y104946D2*
X32722D1*
X38078D2*
X85824D1*
X18373Y104314D2*
X32881D1*
X37919D2*
X85824D1*
X18125Y103683D2*
X33228D1*
X37572D2*
X85824D1*
X17688Y103051D2*
X33893D1*
X36907D2*
X85824D1*
X16964Y102419D2*
X23941D1*
X30210D2*
X85824D1*
X12921Y101788D2*
X13652D1*
X16667D2*
X18653D1*
X21667D2*
X23941D1*
X31023D2*
X85824D1*
X23146Y101156D2*
X23941D1*
X31410D2*
X85824D1*
X31589Y100524D2*
X85824D1*
X31599Y99893D2*
X85824D1*
X31440Y99261D2*
X50423D1*
X53397D2*
X75823D1*
X78797D2*
X85824D1*
X31083Y98629D2*
X49222D1*
X54598D2*
X74622D1*
X79998D2*
X85824D1*
X30349Y97998D2*
X48538D1*
X55282D2*
X73938D1*
X80682D2*
X85824D1*
X23771Y97366D2*
X48071D1*
X55749D2*
X73471D1*
X81149D2*
X85824D1*
X23245Y96734D2*
X47754D1*
X56066D2*
X73154D1*
X81466D2*
X85824D1*
X17133Y96103D2*
X18187D1*
X22133D2*
X47555D1*
X56265D2*
X72955D1*
X81665D2*
X85824D1*
X12921Y95471D2*
X13821D1*
X16339D2*
X18812D1*
X21340D2*
X47456D1*
X56364D2*
X72856D1*
X81764D2*
X85824D1*
X23026Y94839D2*
X34042D1*
X36758D2*
X47446D1*
X56374D2*
X72846D1*
X81774D2*
X85824D1*
X23612Y94208D2*
X33298D1*
X37502D2*
X47526D1*
X56294D2*
X72926D1*
X81694D2*
X85824D1*
X23929Y93576D2*
X32921D1*
X37879D2*
X47704D1*
X56116D2*
X59194D1*
X68846D2*
X73104D1*
X81516D2*
X85824D1*
X24098Y92944D2*
X32742D1*
X38058D2*
X48002D1*
X55818D2*
X59194D1*
X69491D2*
X73402D1*
X81218D2*
X85824D1*
X24108Y92313D2*
X32722D1*
X38078D2*
X48428D1*
X55392D2*
X59194D1*
X69838D2*
X73828D1*
X80792D2*
X85824D1*
X23979Y91681D2*
X32851D1*
X37949D2*
X49054D1*
X54767D2*
X59194D1*
X69997D2*
X74454D1*
X80167D2*
X85824D1*
X23711Y91049D2*
X32672D1*
X38128D2*
X50085D1*
X53735D2*
X59194D1*
X70016D2*
X75485D1*
X79135D2*
X85824D1*
X23205Y90418D2*
X32672D1*
X38128D2*
X59194D1*
X69897D2*
X85824D1*
X17163Y89786D2*
X17998D1*
X22163D2*
X32672D1*
X38128D2*
X59194D1*
X69600D2*
X85824D1*
X12921Y89154D2*
X32672D1*
X38128D2*
X59194D1*
X69064D2*
X85824D1*
X22977Y88523D2*
X32672D1*
X38128D2*
X59194D1*
X65244D2*
X66516D1*
X67784D2*
X85824D1*
X23582Y87891D2*
X32672D1*
X38128D2*
X85824D1*
X23909Y87259D2*
X32672D1*
X38128D2*
X85824D1*
X24098Y86628D2*
X32672D1*
X38128D2*
X85824D1*
X24118Y85996D2*
X32682D1*
X38118D2*
X63262D1*
X69878D2*
X85824D1*
X23999Y85364D2*
X32801D1*
X37999D2*
X62498D1*
X69878D2*
X85824D1*
X23731Y84733D2*
X33109D1*
X37691D2*
X62101D1*
X69878D2*
X85824D1*
X23235Y84101D2*
X33694D1*
X37106D2*
X61912D1*
X69878D2*
X85824D1*
X17252Y83469D2*
X17909D1*
X22253D2*
X61882D1*
X69878D2*
X85824D1*
X12921Y82838D2*
X62011D1*
X69878D2*
X85824D1*
X12921Y82206D2*
X62309D1*
X69878D2*
X85824D1*
X12921Y81574D2*
X62885D1*
X69878D2*
X85824D1*
X12921Y80943D2*
X85824D1*
X12921Y80311D2*
X85824D1*
X22997Y79679D2*
X85824D1*
X23622Y79048D2*
X85824D1*
X23979Y78416D2*
X48180D1*
X50560D2*
X51623D1*
X57277D2*
X59700D1*
X62664D2*
X69403D1*
X75057D2*
X77390D1*
X79770D2*
X85824D1*
X24167Y77784D2*
X47337D1*
X57277D2*
X58965D1*
X63389D2*
X69403D1*
X75057D2*
X76547D1*
X80613D2*
X85824D1*
X24197Y77153D2*
X46920D1*
X57277D2*
X58588D1*
X63776D2*
X69403D1*
X75057D2*
X76130D1*
X81030D2*
X85824D1*
X24088Y76521D2*
X46722D1*
X57277D2*
X58390D1*
X63964D2*
X69403D1*
X75057D2*
X75932D1*
X81228D2*
X85824D1*
X23840Y75889D2*
X46682D1*
X57277D2*
X58350D1*
X64004D2*
X69403D1*
X75057D2*
X75892D1*
X81268D2*
X85824D1*
X23354Y75258D2*
X46801D1*
X57277D2*
X58459D1*
X63895D2*
X69403D1*
X75057D2*
X76011D1*
X81149D2*
X85824D1*
X17440Y74626D2*
X17879D1*
X22441D2*
X47089D1*
X57277D2*
X58737D1*
X63617D2*
X69403D1*
X75057D2*
X76299D1*
X80861D2*
X85824D1*
X12921Y73994D2*
X47655D1*
X51086D2*
X51623D1*
X57277D2*
X59253D1*
X63111D2*
X69403D1*
X75057D2*
X76865D1*
X80296D2*
X85824D1*
X22858Y73363D2*
X51623D1*
X57277D2*
X60424D1*
X61940D2*
X69403D1*
X75057D2*
X85824D1*
X23513Y72731D2*
X85824D1*
X23890Y72099D2*
X59591D1*
X62009D2*
X66070D1*
X68231D2*
X69552D1*
X74908D2*
X85824D1*
X24088Y71468D2*
X58747D1*
X62853D2*
X65167D1*
X69133D2*
X69559D1*
X74908D2*
X85824D1*
X24118Y70836D2*
X58330D1*
X63270D2*
X64730D1*
X74908D2*
X85824D1*
X24019Y70204D2*
X58122D1*
X63478D2*
X64522D1*
X74908D2*
X85824D1*
X23781Y69573D2*
X58072D1*
X63528D2*
X64472D1*
X74908D2*
X85824D1*
X23304Y68941D2*
X58072D1*
X63528D2*
X64581D1*
X74908D2*
X85824D1*
X22431Y68309D2*
X58072D1*
X63528D2*
X64859D1*
X74908D2*
X85824D1*
X12921Y67678D2*
X53727D1*
X55173D2*
X58072D1*
X63528D2*
X65415D1*
X74908D2*
X85824D1*
X22888Y67046D2*
X52536D1*
X56364D2*
X58072D1*
X63528D2*
X67012D1*
X72368D2*
X85824D1*
X23572Y66414D2*
X52010D1*
X56890D2*
X58072D1*
X63528D2*
X67111D1*
X72269D2*
X85824D1*
X23949Y65783D2*
X48339D1*
X50401D2*
X51732D1*
X57168D2*
X58072D1*
X63528D2*
X67399D1*
X71981D2*
X77549D1*
X79611D2*
X85824D1*
X24158Y65151D2*
X47397D1*
X57277D2*
X58072D1*
X63528D2*
X67935D1*
X71445D2*
X76607D1*
X80553D2*
X85824D1*
X24197Y64519D2*
X46960D1*
X57237D2*
X58072D1*
X63528D2*
X76170D1*
X80990D2*
X85824D1*
X24118Y63888D2*
X46732D1*
X57049D2*
X75942D1*
X81218D2*
X85824D1*
X23880Y63256D2*
X46682D1*
X56672D2*
X75892D1*
X81268D2*
X85824D1*
X23413Y62624D2*
X46781D1*
X51959D2*
X52953D1*
X55947D2*
X75991D1*
X81169D2*
X85824D1*
X22570Y61993D2*
X47049D1*
X51691D2*
X76259D1*
X80901D2*
X85824D1*
X12921Y61361D2*
X47575D1*
X51165D2*
X76785D1*
X80375D2*
X85824D1*
X12921Y60729D2*
X48409D1*
X50331D2*
X51623D1*
X57277D2*
X59729D1*
X61871D2*
X66218D1*
X68082D2*
X69552D1*
X74908D2*
X77619D1*
X79541D2*
X85824D1*
X12921Y60098D2*
X47426D1*
X57277D2*
X58807D1*
X62793D2*
X65226D1*
X69074D2*
X69552D1*
X74908D2*
X76636D1*
X80524D2*
X85824D1*
X12921Y59466D2*
X46970D1*
X57277D2*
X58360D1*
X63240D2*
X64760D1*
X74908D2*
X76180D1*
X80980D2*
X85824D1*
X12921Y58834D2*
X46742D1*
X57277D2*
X58132D1*
X63468D2*
X64532D1*
X74908D2*
X75952D1*
X81208D2*
X85824D1*
X22808Y58203D2*
X34468D1*
X36332D2*
X46682D1*
X57277D2*
X58072D1*
X63528D2*
X64472D1*
X74908D2*
X75892D1*
X81268D2*
X85824D1*
X23532Y57571D2*
X33466D1*
X37334D2*
X46771D1*
X57277D2*
X58072D1*
X63528D2*
X64561D1*
X74908D2*
X75981D1*
X81179D2*
X85824D1*
X23939Y56939D2*
X33010D1*
X37790D2*
X47029D1*
X57277D2*
X58072D1*
X63528D2*
X64829D1*
X74908D2*
X76239D1*
X80921D2*
X85824D1*
X24148Y56308D2*
X32772D1*
X38028D2*
X47545D1*
X51195D2*
X51623D1*
X57277D2*
X58072D1*
X63528D2*
X65345D1*
X74908D2*
X76755D1*
X80405D2*
X85824D1*
X24197Y55676D2*
X32712D1*
X38088D2*
X48825D1*
X49915D2*
X51623D1*
X57277D2*
X58072D1*
X63528D2*
X66675D1*
X74908D2*
X78035D1*
X79125D2*
X85824D1*
X24128Y55044D2*
X32792D1*
X38008D2*
X58072D1*
X63528D2*
X67101D1*
X72279D2*
X85824D1*
X23900Y54413D2*
X33059D1*
X37741D2*
X58072D1*
X63528D2*
X67359D1*
X72021D2*
X85824D1*
X23453Y53781D2*
X33565D1*
X37235D2*
X58072D1*
X63528D2*
X67865D1*
X71515D2*
X85824D1*
X22649Y53149D2*
X34786D1*
X36014D2*
X58072D1*
X64897D2*
X69135D1*
X70245D2*
X71894D1*
X74352D2*
X85824D1*
X12921Y52518D2*
X23941D1*
X30766D2*
X59243D1*
X64897D2*
X71021D1*
X75216D2*
X85824D1*
X22669Y51886D2*
X23941D1*
X31281D2*
X59243D1*
X64897D2*
X70584D1*
X75652D2*
X85824D1*
X23423Y51254D2*
X23941D1*
X31539D2*
X59243D1*
X64897D2*
X70356D1*
X75880D2*
X85824D1*
X31619Y50623D2*
X40292D1*
X45748D2*
X59243D1*
X64897D2*
X70286D1*
X75950D2*
X85824D1*
X31529Y49991D2*
X40292D1*
X45748D2*
X59243D1*
X64897D2*
X70366D1*
X75870D2*
X85824D1*
X31262Y49359D2*
X40292D1*
X45748D2*
X52645D1*
X56255D2*
X59243D1*
X64897D2*
X70604D1*
X75632D2*
X85824D1*
X30726Y48728D2*
X40292D1*
X45748D2*
X52070D1*
X56830D2*
X59243D1*
X64897D2*
X71060D1*
X75186D2*
X85824D1*
X23830Y48096D2*
X40292D1*
X45748D2*
X48617D1*
X50123D2*
X51762D1*
X57138D2*
X59243D1*
X64897D2*
X71973D1*
X74273D2*
X77827D1*
X79333D2*
X85824D1*
X23403Y47464D2*
X40292D1*
X45748D2*
X47496D1*
X51244D2*
X51633D1*
X57267D2*
X76706D1*
X80454D2*
X85824D1*
X22630Y46833D2*
X40292D1*
X45748D2*
X47010D1*
X57257D2*
X76220D1*
X80940D2*
X85824D1*
X12921Y46201D2*
X40292D1*
X45748D2*
X46762D1*
X57088D2*
X75972D1*
X81188D2*
X85824D1*
X22689Y45569D2*
X34697D1*
X36103D2*
X40292D1*
X45748D2*
X46682D1*
X56741D2*
X75892D1*
X81268D2*
X85824D1*
X23473Y44938D2*
X33536D1*
X37264D2*
X40362D1*
X45678D2*
X46752D1*
X51988D2*
X52804D1*
X56096D2*
X75962D1*
X81198D2*
X85824D1*
X23909Y44306D2*
X33040D1*
X37760D2*
X40600D1*
X45440D2*
X47000D1*
X51740D2*
X76210D1*
X80950D2*
X85824D1*
X24138Y43674D2*
X32792D1*
X38008D2*
X41066D1*
X44974D2*
X47476D1*
X51264D2*
X76686D1*
X80474D2*
X85824D1*
X24197Y43043D2*
X32712D1*
X38088D2*
X42078D1*
X43962D2*
X48547D1*
X50193D2*
X77757D1*
X79403D2*
X85824D1*
X24148Y42411D2*
X32782D1*
X38018D2*
X85824D1*
X23929Y41779D2*
X33020D1*
X37780D2*
X85824D1*
X23513Y41148D2*
X33496D1*
X37304D2*
X85824D1*
X22768Y40516D2*
X34538D1*
X36262D2*
X85824D1*
X12921Y39884D2*
X85824D1*
X12921Y39253D2*
X85824D1*
X12921Y38621D2*
X85824D1*
X12921Y37989D2*
X85824D1*
X12921Y37358D2*
X85824D1*
X22610Y36726D2*
X85824D1*
X23433Y36094D2*
X85824D1*
X23890Y35463D2*
X85824D1*
X24118Y34831D2*
X85824D1*
X24197Y34199D2*
X85824D1*
X24158Y33568D2*
X85824D1*
X23949Y32936D2*
X35074D1*
X35718D2*
X85824D1*
X23552Y32304D2*
X33615D1*
X37185D2*
X85824D1*
X22848Y31673D2*
X33079D1*
X37721D2*
X58926D1*
X69302D2*
X85824D1*
X12921Y31041D2*
X32811D1*
X37989D2*
X57934D1*
X69302D2*
X85824D1*
X22471Y30409D2*
X32712D1*
X38088D2*
X57477D1*
X69302D2*
X85824D1*
X23324Y29778D2*
X32762D1*
X38038D2*
X57259D1*
X69302D2*
X85824D1*
X23790Y29146D2*
X32980D1*
X37820D2*
X48538D1*
X52742D2*
X57199D1*
X69302D2*
X73938D1*
X78142D2*
X85824D1*
X24029Y28514D2*
X33427D1*
X37373D2*
X47625D1*
X53655D2*
X57229D1*
X69302D2*
X73025D1*
X79055D2*
X85824D1*
X24118Y27883D2*
X34349D1*
X36451D2*
X47049D1*
X54231D2*
X57398D1*
X69302D2*
X72449D1*
X79631D2*
X85824D1*
X30597Y27251D2*
X46652D1*
X54628D2*
X57765D1*
X69302D2*
X72052D1*
X80028D2*
X85824D1*
X31202Y26619D2*
X46394D1*
X54886D2*
X58499D1*
X69302D2*
X71794D1*
X80286D2*
X85824D1*
X23493Y25988D2*
X23941D1*
X31500D2*
X46236D1*
X55044D2*
X71636D1*
X80444D2*
X85824D1*
X22828Y25356D2*
X23941D1*
X31609D2*
X46176D1*
X55104D2*
X71576D1*
X80504D2*
X85824D1*
X12921Y24724D2*
X23941D1*
X31559D2*
X46196D1*
X55084D2*
X71596D1*
X80484D2*
X85824D1*
X17401Y24093D2*
X17752D1*
X22401D2*
X23941D1*
X31341D2*
X46325D1*
X54955D2*
X71725D1*
X80355D2*
X85824D1*
X23294Y23461D2*
X23941D1*
X30875D2*
X46543D1*
X54737D2*
X71943D1*
X80137D2*
X85824D1*
X29783Y22829D2*
X46891D1*
X54389D2*
X72291D1*
X79789D2*
X85824D1*
X24019Y22198D2*
X47387D1*
X53893D2*
X58707D1*
X65760D2*
X72787D1*
X79293D2*
X85824D1*
X24108Y21566D2*
X48141D1*
X53139D2*
X58707D1*
X66306D2*
X73541D1*
X78539D2*
X85824D1*
X24088Y20934D2*
X49639D1*
X51641D2*
X58707D1*
X66593D2*
X75039D1*
X77041D2*
X85824D1*
X23890Y20303D2*
X58707D1*
X66703D2*
X85824D1*
X23523Y19671D2*
X33694D1*
X37106D2*
X58707D1*
X66663D2*
X85824D1*
X22878Y19039D2*
X33129D1*
X37671D2*
X58707D1*
X66454D2*
X85824D1*
X12921Y18408D2*
X14506D1*
X15654D2*
X32831D1*
X37969D2*
X58707D1*
X66048D2*
X85824D1*
X17163Y17776D2*
X32712D1*
X38088D2*
X58707D1*
X65234D2*
X85824D1*
X17808Y17144D2*
X32752D1*
X38048D2*
X85824D1*
X18194Y16513D2*
X32950D1*
X37850D2*
X85824D1*
X18413Y15881D2*
X33367D1*
X37433D2*
X85824D1*
X18502Y15249D2*
X34200D1*
X36600D2*
X85824D1*
X18482Y14618D2*
X85824D1*
X18323Y13986D2*
X85824D1*
X18036Y13354D2*
X85824D1*
X66623Y19843D2*
X66567Y19531D1*
X66474Y19228D1*
X66345Y18937D1*
X66183Y18665D1*
X65990Y18413D1*
X65768Y18186D1*
X65521Y17987D1*
X65252Y17819D1*
X64965Y17684D1*
X64664Y17584D1*
X64353Y17520D1*
X64038Y17493D1*
X58768D1*
Y22827D1*
X64107Y22824D1*
X64423Y22789D1*
X64732Y22717D1*
X65030Y22609D1*
X65314Y22467D1*
X65578Y22291D1*
X65820Y22086D1*
X66036Y21853D1*
X66222Y21596D1*
X66377Y21319D1*
X66498Y21026D1*
X66582Y20720D1*
X66642Y20160D1*
X66623Y19843D1*
X64638Y80993D2*
X64483Y81003D1*
X64291Y81012D1*
X63857Y81102D1*
X63443Y81262D1*
X63061Y81489D1*
X62722Y81776D1*
X62436Y82115D1*
X62210Y82498D1*
X62050Y82912D1*
X61962Y83347D1*
X61946Y83791D1*
X62005Y84231D1*
X62136Y84655D1*
X62335Y85052D1*
X62597Y85410D1*
X62916Y85720D1*
X63281Y85972D1*
X63683Y86161D1*
X64111Y86280D1*
X64483Y86327D1*
X69817D1*
Y80993D1*
X64483D1*
X63459Y69817D2*
X63467Y68864D1*
Y64483D1*
X58133D1*
X58143Y69817D1*
X58152Y70010D1*
X58242Y70445D1*
X58403Y70859D1*
X58630Y71241D1*
X58917Y71579D1*
X59257Y71865D1*
X59639Y72091D1*
X60054Y72250D1*
X60489Y72339D1*
X60932Y72354D1*
X61373Y72295D1*
X61797Y72164D1*
X62193Y71964D1*
X62551Y71701D1*
X62861Y71383D1*
X63113Y71018D1*
X63301Y70615D1*
X63420Y70188D1*
X63464Y69816D1*
X63465Y58387D2*
X63467Y53408D1*
X64837Y53407D1*
Y47873D1*
X59303D1*
Y53062D1*
X59022Y53053D1*
X58133D1*
X58140Y58454D1*
X58182Y58769D1*
X58261Y59076D1*
X58376Y59372D1*
X58525Y59652D1*
X58706Y59912D1*
X58917Y60149D1*
X59155Y60359D1*
X59416Y60540D1*
X59697Y60688D1*
X59993Y60802D1*
X60301Y60880D1*
X60615Y60921D1*
X60932Y60924D1*
X61248Y60889D1*
X61557Y60817D1*
X61855Y60709D1*
X62139Y60567D1*
X62403Y60391D1*
X62645Y60186D1*
X62861Y59953D1*
X63047Y59696D1*
X63202Y59419D1*
X63323Y59126D1*
X63407Y58820D1*
X63467Y58260D1*
X63466Y58250D1*
X37764Y91407D2*
X38067D1*
X38057Y86073D1*
X38048Y85883D1*
X37959Y85448D1*
X37799Y85034D1*
X37572Y84652D1*
X37285Y84314D1*
X36946Y84027D1*
X36564Y83801D1*
X36150Y83641D1*
X35715Y83552D1*
X35271Y83536D1*
X34831Y83595D1*
X34407Y83725D1*
X34010Y83924D1*
X33652Y84186D1*
X33342Y84504D1*
X33089Y84869D1*
X32900Y85271D1*
X32781Y85699D1*
X32733Y86073D1*
Y91407D1*
X33041D1*
X32943Y91615D1*
X32848Y91917D1*
X32791Y92229D1*
X32771Y92546D1*
X32790Y92863D1*
X32846Y93175D1*
X32940Y93478D1*
X33070Y93768D1*
X33234Y94040D1*
X33429Y94290D1*
X33653Y94514D1*
X33902Y94711D1*
X34174Y94875D1*
X34463Y95006D1*
X34765Y95101D1*
X35077Y95159D1*
X35394Y95179D1*
X35711Y95160D1*
X36023Y95104D1*
X36326Y95010D1*
X36616Y94881D1*
X36888Y94717D1*
X37138Y94522D1*
X37363Y94299D1*
X37560Y94049D1*
X37724Y93778D1*
X37855Y93489D1*
X37951Y93186D1*
X38009Y92875D1*
X38029Y92550D1*
X38010Y92233D1*
X37953Y91921D1*
X37858Y91618D1*
X37765Y91410D1*
X40417Y50767D2*
X45687D1*
Y45560D1*
X45668Y45243D1*
X45612Y44931D1*
X45519Y44628D1*
X45390Y44337D1*
X45228Y44065D1*
X45035Y43813D1*
X44813Y43586D1*
X44566Y43387D1*
X44297Y43219D1*
X44010Y43084D1*
X43709Y42984D1*
X43398Y42920D1*
X43082Y42894D1*
X42765Y42905D1*
X42451Y42955D1*
X42146Y43041D1*
X41853Y43162D1*
X41576Y43318D1*
X41320Y43505D1*
X41088Y43722D1*
X40883Y43964D1*
X40709Y44229D1*
X40567Y44513D1*
X40460Y44812D1*
X40389Y45121D1*
X40353Y45560D1*
Y50767D1*
X40417D1*
X69781Y78807D2*
X74997D1*
Y73273D1*
X69463D1*
Y78807D1*
X69781D1*
X63929Y75723D2*
X63874Y75411D1*
X63785Y75106D1*
X63661Y74814D1*
X63504Y74538D1*
X63317Y74282D1*
X63101Y74049D1*
X62861Y73842D1*
X62598Y73664D1*
X62317Y73517D1*
X62020Y73404D1*
X61713Y73325D1*
X61399Y73282D1*
X61081Y73275D1*
X60765Y73304D1*
X60455Y73370D1*
X60154Y73470D1*
X59866Y73605D1*
X59596Y73771D1*
X59347Y73968D1*
X59122Y74191D1*
X58923Y74439D1*
X58755Y74708D1*
X58618Y74994D1*
X58515Y75294D1*
X58448Y75604D1*
X58416Y75920D1*
X58420Y76237D1*
X58461Y76552D1*
X58537Y76860D1*
X58649Y77157D1*
X58793Y77440D1*
X58969Y77704D1*
X59174Y77946D1*
X59406Y78163D1*
X59660Y78352D1*
X59935Y78511D1*
X60226Y78637D1*
X60530Y78729D1*
X60842Y78786D1*
X61159Y78807D1*
X61476Y78791D1*
X61789Y78739D1*
X62094Y78652D1*
X62387Y78530D1*
X62664Y78375D1*
X62922Y78190D1*
X63156Y77976D1*
X63365Y77737D1*
X63545Y77476D1*
X63694Y77196D1*
X63810Y76900D1*
X63891Y76594D1*
X63947Y76040D1*
X63929Y75723D1*
X75869Y50323D2*
X75814Y50011D1*
X75725Y49706D1*
X75601Y49414D1*
X75444Y49138D1*
X75257Y48882D1*
X75041Y48649D1*
X74801Y48442D1*
X74538Y48264D1*
X74257Y48117D1*
X73960Y48004D1*
X73653Y47925D1*
X73339Y47882D1*
X73021Y47875D1*
X72705Y47904D1*
X72395Y47970D1*
X72094Y48070D1*
X71806Y48205D1*
X71536Y48371D1*
X71287Y48568D1*
X71062Y48791D1*
X70863Y49039D1*
X70695Y49308D1*
X70558Y49594D1*
X70455Y49894D1*
X70388Y50204D1*
X70356Y50520D1*
X70360Y50837D1*
X70401Y51152D1*
X70477Y51460D1*
X70589Y51757D1*
X70733Y52040D1*
X70909Y52304D1*
X71114Y52546D1*
X71346Y52763D1*
X71600Y52952D1*
X71875Y53111D1*
X72166Y53237D1*
X72470Y53329D1*
X72782Y53386D1*
X73099Y53407D1*
X73416Y53391D1*
X73729Y53339D1*
X74034Y53252D1*
X74327Y53130D1*
X74604Y52975D1*
X74862Y52790D1*
X75096Y52576D1*
X75305Y52337D1*
X75485Y52076D1*
X75634Y51796D1*
X75750Y51500D1*
X75831Y51194D1*
X75887Y50640D1*
X75869Y50323D1*
X52001Y78807D2*
X57217D1*
Y73273D1*
X51683D1*
Y74791D1*
X51534Y74547D1*
X51338Y74297D1*
X51114Y74073D1*
X50864Y73877D1*
X50593Y73713D1*
X50304Y73582D1*
X50001Y73488D1*
X49689Y73431D1*
X49372Y73411D1*
X49055Y73430D1*
X48743Y73487D1*
X48440Y73581D1*
X48151Y73711D1*
X47879Y73875D1*
X47629Y74070D1*
X47404Y74294D1*
X47208Y74544D1*
X47044Y74815D1*
X46913Y75105D1*
X46818Y75407D1*
X46761Y75719D1*
X46741Y76036D1*
X46760Y76353D1*
X46816Y76665D1*
X46910Y76968D1*
X47040Y77258D1*
X47204Y77530D1*
X47399Y77780D1*
X47623Y78004D1*
X47872Y78201D1*
X48144Y78365D1*
X48433Y78496D1*
X48735Y78591D1*
X49047Y78649D1*
X49364Y78669D1*
X49681Y78650D1*
X49993Y78594D1*
X50296Y78500D1*
X50586Y78371D1*
X50858Y78207D1*
X51108Y78012D1*
X51333Y77789D1*
X51530Y77539D1*
X51679Y77294D1*
X51683Y78807D1*
X52001D1*
X57199Y64673D2*
X57144Y64361D1*
X57055Y64056D1*
X56931Y63764D1*
X56774Y63488D1*
X56587Y63232D1*
X56371Y62999D1*
X56131Y62792D1*
X55868Y62614D1*
X55587Y62467D1*
X55290Y62354D1*
X54983Y62275D1*
X54669Y62232D1*
X54351Y62225D1*
X54035Y62254D1*
X53725Y62320D1*
X53424Y62420D1*
X53136Y62555D1*
X52866Y62721D1*
X52617Y62918D1*
X52392Y63141D1*
X52193Y63389D1*
X51961Y63792D1*
X51999Y63340D1*
X51980Y63023D1*
X51923Y62711D1*
X51828Y62408D1*
X51698Y62119D1*
X51534Y61847D1*
X51338Y61597D1*
X51114Y61373D1*
X50864Y61177D1*
X50593Y61013D1*
X50304Y60882D1*
X50048Y60803D1*
X50586Y60591D1*
X50858Y60427D1*
X51108Y60232D1*
X51333Y60009D1*
X51530Y59759D1*
X51679Y59514D1*
X51683Y61027D1*
X57217D1*
Y55493D1*
X51683D1*
Y57011D1*
X51534Y56767D1*
X51338Y56517D1*
X51114Y56293D1*
X50864Y56097D1*
X50593Y55933D1*
X50304Y55802D1*
X50001Y55708D1*
X49689Y55651D1*
X49372Y55631D1*
X49055Y55650D1*
X48743Y55707D1*
X48440Y55801D1*
X48151Y55931D1*
X47879Y56095D1*
X47629Y56290D1*
X47404Y56514D1*
X47208Y56764D1*
X47044Y57035D1*
X46913Y57325D1*
X46818Y57627D1*
X46761Y57939D1*
X46741Y58256D1*
X46760Y58573D1*
X46816Y58885D1*
X46910Y59188D1*
X47040Y59478D1*
X47204Y59750D1*
X47399Y60000D1*
X47623Y60224D1*
X47872Y60421D1*
X48144Y60585D1*
X48433Y60716D1*
X48688Y60796D1*
X48151Y61011D1*
X47879Y61175D1*
X47629Y61370D1*
X47404Y61594D1*
X47208Y61844D1*
X47044Y62115D1*
X46913Y62405D1*
X46818Y62707D1*
X46761Y63019D1*
X46741Y63336D1*
X46760Y63653D1*
X46816Y63965D1*
X46910Y64268D1*
X47040Y64558D1*
X47204Y64830D1*
X47399Y65080D1*
X47623Y65304D1*
X47872Y65501D1*
X48144Y65665D1*
X48433Y65796D1*
X48735Y65891D1*
X49047Y65949D1*
X49364Y65969D1*
X49681Y65950D1*
X49993Y65894D1*
X50296Y65800D1*
X50586Y65671D1*
X50858Y65507D1*
X51108Y65312D1*
X51333Y65089D1*
X51530Y64839D1*
X51731Y64487D1*
X51686Y64870D1*
X51690Y65187D1*
X51731Y65502D1*
X51807Y65810D1*
X51919Y66107D1*
X52063Y66390D1*
X52239Y66654D1*
X52444Y66896D1*
X52676Y67113D1*
X52930Y67302D1*
X53205Y67461D1*
X53496Y67587D1*
X53800Y67679D1*
X54112Y67736D1*
X54429Y67757D1*
X54746Y67741D1*
X55059Y67689D1*
X55364Y67602D1*
X55657Y67480D1*
X55934Y67325D1*
X56192Y67140D1*
X56426Y66926D1*
X56635Y66687D1*
X56815Y66426D1*
X56964Y66146D1*
X57080Y65850D1*
X57161Y65544D1*
X57217Y64990D1*
X57199Y64673D1*
Y46893D2*
X57144Y46581D1*
X57055Y46276D1*
X56931Y45984D1*
X56774Y45708D1*
X56587Y45452D1*
X56371Y45219D1*
X56131Y45012D1*
X55868Y44834D1*
X55587Y44687D1*
X55290Y44574D1*
X54983Y44495D1*
X54669Y44452D1*
X54351Y44445D1*
X54035Y44474D1*
X53725Y44540D1*
X53424Y44640D1*
X53136Y44775D1*
X52866Y44941D1*
X52617Y45138D1*
X52392Y45361D1*
X52193Y45609D1*
X51961Y46012D1*
X51999Y45560D1*
X51980Y45243D1*
X51923Y44931D1*
X51828Y44628D1*
X51698Y44339D1*
X51534Y44067D1*
X51338Y43817D1*
X51114Y43593D1*
X50864Y43397D1*
X50593Y43233D1*
X50304Y43102D1*
X50001Y43008D1*
X49689Y42951D1*
X49372Y42931D1*
X49055Y42950D1*
X48743Y43007D1*
X48440Y43101D1*
X48151Y43231D1*
X47879Y43395D1*
X47629Y43590D1*
X47404Y43814D1*
X47208Y44064D1*
X47044Y44335D1*
X46913Y44625D1*
X46818Y44927D1*
X46761Y45239D1*
X46741Y45556D1*
X46760Y45873D1*
X46816Y46185D1*
X46910Y46488D1*
X47040Y46778D1*
X47204Y47050D1*
X47399Y47300D1*
X47623Y47524D1*
X47872Y47721D1*
X48144Y47885D1*
X48433Y48016D1*
X48735Y48111D1*
X49047Y48169D1*
X49364Y48189D1*
X49681Y48170D1*
X49993Y48114D1*
X50296Y48020D1*
X50586Y47891D1*
X50858Y47727D1*
X51108Y47532D1*
X51333Y47309D1*
X51530Y47059D1*
X51731Y46707D1*
X51686Y47090D1*
X51690Y47407D1*
X51731Y47722D1*
X51807Y48030D1*
X51919Y48327D1*
X52063Y48610D1*
X52239Y48874D1*
X52444Y49116D1*
X52676Y49333D1*
X52930Y49522D1*
X53205Y49681D1*
X53496Y49807D1*
X53800Y49899D1*
X54112Y49956D1*
X54429Y49977D1*
X54746Y49961D1*
X55059Y49909D1*
X55364Y49822D1*
X55657Y49700D1*
X55934Y49545D1*
X56192Y49360D1*
X56426Y49146D1*
X56635Y48907D1*
X56815Y48646D1*
X56964Y48366D1*
X57080Y48070D1*
X57161Y47764D1*
X57217Y47210D1*
X57199Y46893D1*
X18432Y14763D2*
X18313Y14140D1*
X18080Y13551D1*
X17740Y13015D1*
X17620Y12858D1*
X85883D1*
Y107473D1*
X36799D1*
X37138Y107222D1*
X37363Y106999D1*
X37560Y106749D1*
X37724Y106478D1*
X37855Y106189D1*
X37951Y105886D1*
X38009Y105575D1*
X38029Y105250D1*
X38010Y104933D1*
X37953Y104621D1*
X37858Y104318D1*
X37728Y104029D1*
X37564Y103757D1*
X37368Y103507D1*
X37144Y103283D1*
X36894Y103087D1*
X36623Y102923D1*
X36334Y102792D1*
X36031Y102698D1*
X35719Y102641D1*
X35402Y102621D1*
X35085Y102640D1*
X34773Y102697D1*
X34470Y102791D1*
X34181Y102921D1*
X33909Y103085D1*
X33659Y103280D1*
X33434Y103504D1*
X33238Y103754D1*
X33074Y104025D1*
X32943Y104315D1*
X32848Y104617D1*
X32791Y104929D1*
X32771Y105246D1*
X32790Y105563D1*
X32846Y105875D1*
X32940Y106178D1*
X33070Y106468D1*
X33234Y106740D1*
X33429Y106990D1*
X33653Y107214D1*
X34013Y107478D1*
X25558Y107473D1*
X17612Y107469D1*
X17984Y106955D1*
X18252Y106380D1*
X18407Y105765D1*
X18447Y105250D1*
X18387Y104619D1*
X18210Y104010D1*
X17922Y103445D1*
X17533Y102944D1*
X17058Y102525D1*
X16512Y102203D1*
X15915Y101988D1*
X15289Y101890D1*
X14655Y101910D1*
X14036Y102049D1*
X13455Y102301D1*
X12931Y102658D1*
X12858Y102710D1*
Y101549D1*
X13195Y101682D1*
X13774Y101798D1*
X14100Y101826D1*
X16219D1*
X16783Y101756D1*
X17142Y101677D1*
X17314Y101613D1*
X17666Y101426D1*
X18022Y101620D1*
X18195Y101682D1*
X18774Y101798D1*
X19100Y101826D1*
X21219D1*
X21783Y101756D1*
X22142Y101677D1*
X22314Y101613D1*
X22832Y101330D1*
X23036Y101194D1*
X23176Y101075D1*
X23566Y100632D1*
X23711Y100434D1*
X23802Y100275D1*
X24008Y99764D1*
Y102672D1*
X29325Y102657D1*
X29637Y102602D1*
X29940Y102508D1*
X30229Y102377D1*
X30499Y102210D1*
X30745Y102010D1*
X30964Y101781D1*
X31153Y101525D1*
X31308Y101248D1*
X31426Y100954D1*
X31506Y100647D1*
X31552Y100170D1*
X31532Y99853D1*
X31472Y99542D1*
X31373Y99240D1*
X31236Y98954D1*
X31065Y98687D1*
X30861Y98444D1*
X30628Y98229D1*
X30370Y98044D1*
X30090Y97894D1*
X29794Y97781D1*
X29485Y97706D1*
X29021Y97673D1*
X28123Y97668D1*
X24008D1*
Y98055D1*
X23794Y97510D1*
X23701Y97351D1*
X23332Y96890D1*
X23163Y96713D1*
X23022Y96596D1*
X22518Y96289D1*
X22298Y96180D1*
X22125Y96118D1*
X21546Y96002D1*
X21220Y95974D1*
X19101D1*
X18537Y96044D1*
X18178Y96123D1*
X18006Y96187D1*
X17654Y96374D1*
X17298Y96180D1*
X17125Y96118D1*
X16546Y96002D1*
X16220Y95974D1*
X14101D1*
X13537Y96044D1*
X13178Y96123D1*
X13000Y96190D1*
X12858Y96043D1*
Y95239D1*
X13115Y95332D1*
X13694Y95448D1*
X14020Y95476D1*
X16139D1*
X16703Y95406D1*
X17062Y95327D1*
X17234Y95263D1*
X17586Y95076D1*
X17942Y95270D1*
X18115Y95332D1*
X18694Y95448D1*
X19020Y95476D1*
X21139D1*
X21703Y95406D1*
X22062Y95327D1*
X22234Y95263D1*
X22752Y94980D1*
X22956Y94844D1*
X23096Y94725D1*
X23486Y94282D1*
X23631Y94084D1*
X23722Y93925D1*
X23937Y93375D1*
X24005Y93140D1*
X24036Y92959D1*
X24050Y92369D1*
X24034Y92124D1*
X24001Y91944D1*
X23812Y91384D1*
X23714Y91160D1*
X23621Y91001D1*
X23252Y90540D1*
X23083Y90363D1*
X22942Y90246D1*
X22438Y89939D1*
X22218Y89830D1*
X22045Y89768D1*
X21466Y89652D1*
X21140Y89624D1*
X19021D1*
X18457Y89694D1*
X18098Y89773D1*
X17926Y89837D1*
X17574Y90024D1*
X17218Y89830D1*
X17045Y89768D1*
X16466Y89652D1*
X16140Y89624D1*
X14021D1*
X13457Y89694D1*
X13098Y89773D1*
X12920Y89840D1*
X12858Y89693D1*
Y88889D1*
X13115Y88982D1*
X13694Y89098D1*
X14020Y89126D1*
X16139D1*
X16703Y89056D1*
X17062Y88977D1*
X17234Y88913D1*
X17586Y88726D1*
X17942Y88920D1*
X18115Y88982D1*
X18694Y89098D1*
X19020Y89126D1*
X21139D1*
X21703Y89056D1*
X22062Y88977D1*
X22234Y88913D1*
X22752Y88630D1*
X22956Y88494D1*
X23096Y88375D1*
X23486Y87932D1*
X23631Y87734D1*
X23722Y87575D1*
X23937Y87025D1*
X24005Y86790D1*
X24036Y86609D1*
X24050Y86019D1*
X24034Y85774D1*
X24001Y85594D1*
X23812Y85034D1*
X23714Y84810D1*
X23621Y84651D1*
X23252Y84190D1*
X23083Y84013D1*
X22942Y83896D1*
X22438Y83589D1*
X22218Y83480D1*
X22045Y83418D1*
X21466Y83302D1*
X21140Y83274D1*
X19021D1*
X18457Y83344D1*
X18098Y83423D1*
X17926Y83487D1*
X17574Y83674D1*
X17218Y83480D1*
X17045Y83418D1*
X16466Y83302D1*
X16140Y83274D1*
X14021D1*
X13457Y83344D1*
X13098Y83423D1*
X12920Y83490D1*
X12858Y83343D1*
Y79952D1*
X13149Y80077D1*
X13474Y80155D1*
X14026Y80235D1*
X16409Y80227D1*
X17028Y80119D1*
X17328Y80017D1*
X17659Y79839D1*
X18030Y80033D1*
X18333Y80128D1*
X18963Y80231D1*
X21068Y80236D1*
X21472Y80219D1*
X22089Y80102D1*
X22386Y79990D1*
X22940Y79673D1*
X23187Y79474D1*
X23492Y79129D1*
X23715Y78837D1*
X23861Y78555D1*
X24073Y77953D1*
X24124Y77640D1*
X24126Y77002D1*
X24078Y76688D1*
X23931Y76251D1*
X23790Y75912D1*
X23619Y75645D1*
X23203Y75161D1*
X22958Y74960D1*
X22406Y74639D1*
X22110Y74524D1*
X21658Y74432D1*
X21294Y74385D1*
X18911Y74393D1*
X18292Y74501D1*
X17992Y74603D1*
X17661Y74781D1*
X17290Y74587D1*
X16987Y74492D1*
X16357Y74389D1*
X14252Y74384D1*
X13848Y74401D1*
X13231Y74518D1*
X12934Y74630D1*
X12857Y74669D1*
X12858Y73649D1*
X13185Y73761D1*
X13820Y73876D1*
X14337Y73886D1*
X16329Y73877D1*
X16948Y73769D1*
X17248Y73667D1*
X17579Y73489D1*
X17950Y73683D1*
X18253Y73778D1*
X18883Y73881D1*
X20988Y73886D1*
X21392Y73869D1*
X22009Y73752D1*
X22306Y73640D1*
X22860Y73323D1*
X23107Y73124D1*
X23412Y72779D1*
X23635Y72487D1*
X23781Y72205D1*
X23993Y71603D1*
X24044Y71290D1*
X24046Y70652D1*
X23998Y70338D1*
X23851Y69901D1*
X23710Y69562D1*
X23539Y69295D1*
X23123Y68811D1*
X22878Y68610D1*
X22326Y68289D1*
X22030Y68174D1*
X21578Y68082D1*
X21214Y68035D1*
X18831Y68043D1*
X18212Y68151D1*
X17912Y68253D1*
X17581Y68431D1*
X17210Y68237D1*
X16907Y68142D1*
X16277Y68039D1*
X14172Y68034D1*
X13768Y68051D1*
X13151Y68168D1*
X12858Y68278D1*
Y67252D1*
X13149Y67377D1*
X13474Y67455D1*
X14026Y67535D1*
X16409Y67527D1*
X17028Y67419D1*
X17328Y67317D1*
X17659Y67139D1*
X18030Y67333D1*
X18333Y67428D1*
X18963Y67531D1*
X21068Y67536D1*
X21472Y67519D1*
X22089Y67402D1*
X22386Y67290D1*
X22940Y66973D1*
X23187Y66774D1*
X23492Y66429D1*
X23715Y66137D1*
X23861Y65855D1*
X24073Y65253D1*
X24124Y64940D1*
X24126Y64302D1*
X24078Y63988D1*
X23931Y63551D1*
X23790Y63212D1*
X23619Y62945D1*
X23203Y62461D1*
X22958Y62260D1*
X22406Y61939D1*
X22110Y61824D1*
X21658Y61732D1*
X21294Y61685D1*
X18911Y61693D1*
X18292Y61801D1*
X17992Y61903D1*
X17661Y62081D1*
X17290Y61887D1*
X16987Y61792D1*
X16357Y61689D1*
X14252Y61684D1*
X13848Y61701D1*
X13231Y61818D1*
X12934Y61930D1*
X12857Y61969D1*
X12858Y58369D1*
X13195Y58502D1*
X13774Y58618D1*
X14100Y58646D1*
X16219D1*
X16783Y58576D1*
X17142Y58497D1*
X17314Y58433D1*
X17666Y58246D1*
X18022Y58440D1*
X18195Y58502D1*
X18774Y58618D1*
X19100Y58646D1*
X21219D1*
X21783Y58576D1*
X22142Y58497D1*
X22314Y58433D1*
X22832Y58150D1*
X23036Y58014D1*
X23176Y57895D1*
X23566Y57452D1*
X23711Y57254D1*
X23802Y57095D1*
X24017Y56545D1*
X24085Y56310D1*
X24116Y56129D1*
X24130Y55539D1*
X24114Y55294D1*
X24081Y55114D1*
X23892Y54554D1*
X23794Y54330D1*
X23701Y54171D1*
X23332Y53710D1*
X23163Y53533D1*
X23022Y53416D1*
X22518Y53109D1*
X22298Y53000D1*
X22125Y52938D1*
X21546Y52822D1*
X21220Y52794D1*
X19101D1*
X18537Y52864D1*
X18178Y52943D1*
X18006Y53007D1*
X17654Y53194D1*
X17298Y53000D1*
X17125Y52938D1*
X16546Y52822D1*
X16220Y52794D1*
X14101D1*
X13537Y52864D1*
X13178Y52943D1*
X13000Y53010D1*
X12858Y52863D1*
Y52059D1*
X13115Y52152D1*
X13694Y52268D1*
X14020Y52296D1*
X16139D1*
X16703Y52226D1*
X17062Y52147D1*
X17234Y52083D1*
X17586Y51896D1*
X17942Y52090D1*
X18115Y52152D1*
X18694Y52268D1*
X19020Y52296D1*
X21139D1*
X21703Y52226D1*
X22062Y52147D1*
X22234Y52083D1*
X22752Y51800D1*
X22956Y51664D1*
X23096Y51545D1*
X23486Y51102D1*
X23631Y50904D1*
X23722Y50745D1*
X23937Y50195D1*
X23992Y50012D1*
X24008Y50361D1*
Y53142D1*
X29012Y53132D1*
X29261Y53133D1*
X29637Y53072D1*
X29999Y52955D1*
X30339Y52784D1*
X30650Y52564D1*
X30923Y52299D1*
X31153Y51995D1*
X31334Y51661D1*
X31463Y51302D1*
X31535Y50929D1*
X31549Y50513D1*
X31501Y50136D1*
X31396Y49770D1*
X31236Y49424D1*
X31027Y49106D1*
X30771Y48824D1*
X30476Y48584D1*
X30147Y48392D1*
X29794Y48251D1*
X29423Y48166D1*
X29012Y48138D1*
X24008D1*
X24001Y48764D1*
X23812Y48204D1*
X23714Y47980D1*
X23621Y47821D1*
X23252Y47360D1*
X23083Y47183D1*
X22942Y47066D1*
X22438Y46759D1*
X22218Y46650D1*
X22045Y46588D1*
X21466Y46472D1*
X21140Y46444D1*
X19021D1*
X18457Y46514D1*
X18098Y46593D1*
X17926Y46657D1*
X17574Y46844D1*
X17218Y46650D1*
X17045Y46588D1*
X16466Y46472D1*
X16140Y46444D1*
X14021D1*
X13457Y46514D1*
X13098Y46593D1*
X12920Y46660D1*
X12858Y46513D1*
Y45669D1*
X13195Y45802D1*
X13774Y45918D1*
X14100Y45946D1*
X16219D1*
X16783Y45876D1*
X17142Y45797D1*
X17314Y45733D1*
X17666Y45546D1*
X18022Y45740D1*
X18195Y45802D1*
X18774Y45918D1*
X19100Y45946D1*
X21219D1*
X21783Y45876D1*
X22142Y45797D1*
X22314Y45733D1*
X22832Y45450D1*
X23036Y45314D1*
X23176Y45195D1*
X23566Y44752D1*
X23711Y44554D1*
X23802Y44395D1*
X24017Y43845D1*
X24085Y43610D1*
X24116Y43429D1*
X24130Y42839D1*
X24114Y42594D1*
X24081Y42414D1*
X23892Y41854D1*
X23794Y41630D1*
X23701Y41471D1*
X23332Y41010D1*
X23163Y40833D1*
X23022Y40716D1*
X22518Y40409D1*
X22298Y40300D1*
X22125Y40238D1*
X21546Y40122D1*
X21220Y40094D1*
X19101D1*
X18537Y40164D1*
X18178Y40243D1*
X18006Y40307D1*
X17654Y40494D1*
X17298Y40300D1*
X17125Y40238D1*
X16546Y40122D1*
X16220Y40094D1*
X14101D1*
X13537Y40164D1*
X13178Y40243D1*
X13000Y40310D1*
X12858Y40163D1*
Y36779D1*
X13195Y36912D1*
X13774Y37028D1*
X14100Y37056D1*
X16219D1*
X16783Y36986D1*
X17142Y36907D1*
X17314Y36843D1*
X17666Y36656D1*
X18022Y36850D1*
X18195Y36912D1*
X18774Y37028D1*
X19100Y37056D1*
X21219D1*
X21783Y36986D1*
X22142Y36907D1*
X22314Y36843D1*
X22832Y36560D1*
X23036Y36424D1*
X23176Y36305D1*
X23566Y35862D1*
X23711Y35664D1*
X23802Y35505D1*
X24017Y34955D1*
X24085Y34720D1*
X24116Y34539D1*
X24130Y33949D1*
X24114Y33704D1*
X24081Y33524D1*
X23892Y32964D1*
X23794Y32740D1*
X23701Y32581D1*
X23332Y32120D1*
X23163Y31943D1*
X23022Y31826D1*
X22518Y31519D1*
X22298Y31410D1*
X22125Y31348D1*
X21546Y31232D1*
X21220Y31204D1*
X19101D1*
X18537Y31274D1*
X18178Y31353D1*
X18006Y31417D1*
X17654Y31604D1*
X17298Y31410D1*
X17125Y31348D1*
X16546Y31232D1*
X16220Y31204D1*
X14101D1*
X13537Y31274D1*
X13178Y31353D1*
X13000Y31420D1*
X12858Y31273D1*
Y30469D1*
X13115Y30562D1*
X13694Y30678D1*
X14020Y30706D1*
X16139D1*
X16703Y30636D1*
X17062Y30557D1*
X17234Y30493D1*
X17586Y30306D1*
X17942Y30500D1*
X18115Y30562D1*
X18694Y30678D1*
X19020Y30706D1*
X21139D1*
X21703Y30636D1*
X22062Y30557D1*
X22234Y30493D1*
X22752Y30210D1*
X22956Y30074D1*
X23096Y29955D1*
X23486Y29512D1*
X23631Y29314D1*
X23722Y29155D1*
X23937Y28605D1*
X24005Y28370D1*
X24036Y28189D1*
X24050Y27744D1*
X29012Y27740D1*
X29325Y27727D1*
X29637Y27672D1*
X29940Y27578D1*
X30229Y27447D1*
X30499Y27280D1*
X30745Y27080D1*
X30964Y26851D1*
X31153Y26595D1*
X31308Y26318D1*
X31426Y26024D1*
X31506Y25717D1*
X31552Y25240D1*
X31532Y24923D1*
X31472Y24612D1*
X31373Y24310D1*
X31236Y24024D1*
X31065Y23757D1*
X30861Y23514D1*
X30628Y23299D1*
X30370Y23114D1*
X30090Y22964D1*
X29794Y22851D1*
X29485Y22776D1*
X29021Y22743D1*
X28123Y22738D1*
X24008D1*
X24001Y27174D1*
X23812Y26614D1*
X23714Y26390D1*
X23621Y26231D1*
X23252Y25770D1*
X23083Y25593D1*
X22942Y25476D1*
X22438Y25169D1*
X22218Y25060D1*
X22045Y24998D1*
X21466Y24882D1*
X21140Y24854D1*
X19021D1*
X18457Y24924D1*
X18098Y25003D1*
X17926Y25067D1*
X17574Y25254D1*
X17218Y25060D1*
X17045Y24998D1*
X16466Y24882D1*
X16140Y24854D1*
X14021D1*
X13457Y24924D1*
X13098Y25003D1*
X12920Y25070D1*
X12858Y24923D1*
Y24119D1*
X13115Y24212D1*
X13694Y24328D1*
X14020Y24356D1*
X16139D1*
X16703Y24286D1*
X17062Y24207D1*
X17234Y24143D1*
X17586Y23956D1*
X17942Y24150D1*
X18115Y24212D1*
X18694Y24328D1*
X19020Y24356D1*
X21139D1*
X21703Y24286D1*
X22062Y24207D1*
X22234Y24143D1*
X22752Y23860D1*
X22956Y23724D1*
X23096Y23605D1*
X23486Y23162D1*
X23631Y22964D1*
X23722Y22805D1*
X23937Y22255D1*
X24005Y22020D1*
X24036Y21839D1*
X24050Y21249D1*
X24034Y21004D1*
X24001Y20824D1*
X23812Y20264D1*
X23714Y20040D1*
X23621Y19881D1*
X23252Y19420D1*
X23083Y19243D1*
X22942Y19126D1*
X22438Y18819D1*
X22218Y18710D1*
X22045Y18648D1*
X21466Y18532D1*
X21140Y18504D1*
X19021D1*
X18457Y18574D1*
X18098Y18653D1*
X17926Y18717D1*
X17574Y18904D1*
X17218Y18710D1*
X17045Y18648D1*
X16466Y18532D1*
X16140Y18504D1*
X14021D1*
X13457Y18574D1*
X13098Y18653D1*
X12920Y18720D1*
X12858Y18573D1*
Y17610D1*
X13283Y17927D1*
X13848Y18213D1*
X14457Y18389D1*
X15089Y18447D1*
X15720Y18386D1*
X16328Y18207D1*
X16892Y17917D1*
X17392Y17527D1*
X17810Y17050D1*
X18131Y16504D1*
X18344Y15906D1*
X18441Y15280D1*
X18432Y14763D1*
X81190Y63023D2*
X81133Y62711D1*
X81038Y62408D1*
X80908Y62119D1*
X80744Y61847D1*
X80548Y61597D1*
X80324Y61373D1*
X80074Y61177D1*
X79803Y61013D1*
X79514Y60882D1*
X79258Y60803D1*
X79796Y60591D1*
X80068Y60427D1*
X80318Y60232D1*
X80543Y60009D1*
X80740Y59759D1*
X80904Y59488D1*
X81035Y59199D1*
X81131Y58896D1*
X81189Y58585D1*
X81209Y58260D1*
X81190Y57943D1*
X81133Y57631D1*
X81038Y57328D1*
X80908Y57039D1*
X80744Y56767D1*
X80548Y56517D1*
X80324Y56293D1*
X80074Y56097D1*
X79803Y55933D1*
X79514Y55802D1*
X79211Y55708D1*
X78899Y55651D1*
X78582Y55631D1*
X78265Y55650D1*
X77953Y55707D1*
X77650Y55801D1*
X77361Y55931D1*
X77089Y56095D1*
X76839Y56290D1*
X76614Y56514D1*
X76418Y56764D1*
X76254Y57035D1*
X76123Y57325D1*
X76028Y57627D1*
X75971Y57939D1*
X75951Y58256D1*
X75970Y58573D1*
X76026Y58885D1*
X76120Y59188D1*
X76250Y59478D1*
X76414Y59750D1*
X76609Y60000D1*
X76833Y60224D1*
X77082Y60421D1*
X77354Y60585D1*
X77643Y60716D1*
X77898Y60796D1*
X77361Y61011D1*
X77089Y61175D1*
X76839Y61370D1*
X76614Y61594D1*
X76418Y61844D1*
X76254Y62115D1*
X76123Y62405D1*
X76028Y62707D1*
X75971Y63019D1*
X75951Y63336D1*
X75970Y63653D1*
X76026Y63965D1*
X76120Y64268D1*
X76250Y64558D1*
X76414Y64830D1*
X76609Y65080D1*
X76833Y65304D1*
X77082Y65501D1*
X77354Y65665D1*
X77643Y65796D1*
X77945Y65891D1*
X78257Y65949D1*
X78574Y65969D1*
X78891Y65950D1*
X79203Y65894D1*
X79506Y65800D1*
X79796Y65671D1*
X80068Y65507D1*
X80318Y65312D1*
X80543Y65089D1*
X80740Y64839D1*
X80904Y64568D1*
X81035Y64279D1*
X81131Y63976D1*
X81189Y63665D1*
X81209Y63340D1*
X81190Y63023D1*
X81208Y75977D2*
X81171Y75598D1*
X81080Y75228D1*
X80937Y74875D1*
X80744Y74547D1*
X80506Y74250D1*
X80227Y73991D1*
X79914Y73775D1*
X79573Y73606D1*
X79211Y73488D1*
X78836Y73424D1*
X78455Y73414D1*
X78077Y73460D1*
X77710Y73559D1*
X77361Y73711D1*
X77037Y73912D1*
X76746Y74157D1*
X76493Y74441D1*
X76284Y74760D1*
X76123Y75105D1*
X76014Y75469D1*
X75958Y75846D1*
Y76226D1*
X76012Y76603D1*
X76120Y76968D1*
X76280Y77314D1*
X76488Y77632D1*
X76740Y77918D1*
X77031Y78164D1*
X77354Y78365D1*
X77702Y78518D1*
X78069Y78619D1*
X78447Y78666D1*
X78828Y78657D1*
X79203Y78594D1*
X79565Y78477D1*
X79907Y78309D1*
X80221Y78094D1*
X80500Y77835D1*
X80740Y77539D1*
X80933Y77212D1*
X81078Y76859D1*
X81170Y76490D1*
X81208Y76111D1*
Y75977D1*
Y45497D2*
X81171Y45118D1*
X81080Y44748D1*
X80937Y44395D1*
X80744Y44067D1*
X80506Y43770D1*
X80227Y43511D1*
X79914Y43295D1*
X79573Y43126D1*
X79211Y43008D1*
X78836Y42944D1*
X78455Y42934D1*
X78077Y42980D1*
X77710Y43079D1*
X77361Y43231D1*
X77037Y43432D1*
X76746Y43677D1*
X76493Y43961D1*
X76284Y44280D1*
X76123Y44625D1*
X76014Y44989D1*
X75958Y45366D1*
Y45746D1*
X76012Y46123D1*
X76120Y46488D1*
X76280Y46834D1*
X76488Y47152D1*
X76740Y47438D1*
X77031Y47684D1*
X77354Y47885D1*
X77702Y48038D1*
X78069Y48139D1*
X78447Y48186D1*
X78828Y48177D1*
X79203Y48114D1*
X79565Y47997D1*
X79907Y47829D1*
X80221Y47614D1*
X80500Y47355D1*
X80740Y47059D1*
X80933Y46732D1*
X81078Y46379D1*
X81170Y46010D1*
X81208Y45631D1*
Y45497D1*
X38010Y17303D2*
X37953Y16991D1*
X37858Y16688D1*
X37728Y16399D1*
X37564Y16127D1*
X37368Y15877D1*
X37144Y15653D1*
X36894Y15457D1*
X36623Y15293D1*
X36334Y15162D1*
X36031Y15068D1*
X35719Y15011D1*
X35402Y14991D1*
X35085Y15010D1*
X34773Y15067D1*
X34470Y15161D1*
X34181Y15291D1*
X33909Y15455D1*
X33659Y15650D1*
X33434Y15874D1*
X33238Y16124D1*
X33074Y16395D1*
X32943Y16685D1*
X32848Y16987D1*
X32791Y17299D1*
X32771Y17616D1*
X32790Y17933D1*
X32846Y18245D1*
X32940Y18548D1*
X33070Y18838D1*
X33234Y19110D1*
X33429Y19360D1*
X33653Y19584D1*
X33902Y19781D1*
X34174Y19945D1*
X34463Y20076D1*
X34765Y20171D1*
X35077Y20229D1*
X35394Y20249D1*
X35711Y20230D1*
X36023Y20174D1*
X36326Y20080D1*
X36616Y19951D1*
X36888Y19787D1*
X37138Y19592D1*
X37363Y19369D1*
X37560Y19119D1*
X37724Y18848D1*
X37855Y18559D1*
X37951Y18256D1*
X38009Y17945D1*
X38029Y17620D1*
X38010Y17303D1*
Y30003D2*
X37953Y29691D1*
X37858Y29388D1*
X37728Y29099D1*
X37564Y28827D1*
X37368Y28577D1*
X37144Y28353D1*
X36894Y28157D1*
X36623Y27993D1*
X36334Y27862D1*
X36031Y27768D1*
X35719Y27711D1*
X35402Y27691D1*
X35085Y27710D1*
X34773Y27767D1*
X34470Y27861D1*
X34181Y27991D1*
X33909Y28155D1*
X33659Y28350D1*
X33434Y28574D1*
X33238Y28824D1*
X33074Y29095D1*
X32943Y29385D1*
X32848Y29687D1*
X32791Y29999D1*
X32771Y30316D1*
X32790Y30633D1*
X32846Y30945D1*
X32940Y31248D1*
X33070Y31538D1*
X33234Y31810D1*
X33429Y32060D1*
X33653Y32284D1*
X33902Y32481D1*
X34174Y32645D1*
X34463Y32776D1*
X34765Y32871D1*
X35077Y32929D1*
X35394Y32949D1*
X35711Y32930D1*
X36023Y32874D1*
X36326Y32780D1*
X36616Y32651D1*
X36888Y32487D1*
X37138Y32292D1*
X37363Y32069D1*
X37560Y31819D1*
X37724Y31548D1*
X37855Y31259D1*
X37951Y30956D1*
X38009Y30645D1*
X38029Y30320D1*
X38010Y30003D1*
Y55403D2*
X37953Y55091D1*
X37858Y54788D1*
X37728Y54499D1*
X37564Y54227D1*
X37368Y53977D1*
X37144Y53753D1*
X36894Y53557D1*
X36623Y53393D1*
X36334Y53262D1*
X36031Y53168D1*
X35719Y53111D1*
X35402Y53091D1*
X35085Y53110D1*
X34773Y53167D1*
X34470Y53261D1*
X34181Y53391D1*
X33909Y53555D1*
X33659Y53750D1*
X33434Y53974D1*
X33238Y54224D1*
X33074Y54495D1*
X32943Y54785D1*
X32848Y55087D1*
X32791Y55399D1*
X32771Y55716D1*
X32790Y56033D1*
X32846Y56345D1*
X32940Y56648D1*
X33070Y56938D1*
X33234Y57210D1*
X33429Y57460D1*
X33653Y57684D1*
X33902Y57881D1*
X34174Y58045D1*
X34463Y58176D1*
X34765Y58271D1*
X35077Y58329D1*
X35394Y58349D1*
X35711Y58330D1*
X36023Y58274D1*
X36326Y58180D1*
X36616Y58051D1*
X36888Y57887D1*
X37138Y57692D1*
X37363Y57469D1*
X37560Y57219D1*
X37724Y56948D1*
X37855Y56659D1*
X37951Y56356D1*
X38009Y56045D1*
X38029Y55720D1*
X38010Y55403D1*
Y42703D2*
X37953Y42391D1*
X37858Y42088D1*
X37728Y41799D1*
X37564Y41527D1*
X37368Y41277D1*
X37144Y41053D1*
X36894Y40857D1*
X36623Y40693D1*
X36334Y40562D1*
X36031Y40468D1*
X35719Y40411D1*
X35402Y40391D1*
X35085Y40410D1*
X34773Y40467D1*
X34470Y40561D1*
X34181Y40691D1*
X33909Y40855D1*
X33659Y41050D1*
X33434Y41274D1*
X33238Y41524D1*
X33074Y41795D1*
X32943Y42085D1*
X32848Y42387D1*
X32791Y42699D1*
X32771Y43016D1*
X32790Y43333D1*
X32846Y43645D1*
X32940Y43948D1*
X33070Y44238D1*
X33234Y44510D1*
X33429Y44760D1*
X33653Y44984D1*
X33902Y45181D1*
X34174Y45345D1*
X34463Y45476D1*
X34765Y45571D1*
X35077Y45629D1*
X35394Y45649D1*
X35711Y45630D1*
X36023Y45574D1*
X36326Y45480D1*
X36616Y45351D1*
X36888Y45187D1*
X37138Y44992D1*
X37363Y44769D1*
X37560Y44519D1*
X37724Y44248D1*
X37855Y43959D1*
X37951Y43656D1*
X38009Y43345D1*
X38029Y43020D1*
X38010Y42703D1*
X69931Y72307D2*
X74847D1*
Y67073D1*
X72297D1*
X72288Y66833D1*
X72230Y66521D1*
X72135Y66218D1*
X72005Y65929D1*
X71840Y65658D1*
X71644Y65409D1*
X71419Y65185D1*
X71168Y64990D1*
X70896Y64827D1*
X70606Y64699D1*
X70302Y64606D1*
X69990Y64550D1*
X69673Y64533D1*
X69357Y64554D1*
X69045Y64614D1*
X68743Y64711D1*
X68454Y64843D1*
X68184Y65010D1*
X67936Y65208D1*
X67714Y65434D1*
X67521Y65686D1*
X67360Y65959D1*
X67233Y66250D1*
X67142Y66554D1*
X67079Y67075D1*
X66817Y67094D1*
X66505Y67154D1*
X66203Y67251D1*
X65914Y67383D1*
X65644Y67550D1*
X65396Y67748D1*
X65174Y67974D1*
X64981Y68226D1*
X64820Y68499D1*
X64693Y68790D1*
X64602Y69094D1*
X64548Y69407D1*
X64533Y69724D1*
X64557Y70040D1*
X64618Y70352D1*
X64717Y70653D1*
X64851Y70941D1*
X65019Y71210D1*
X65219Y71456D1*
X65447Y71677D1*
X65700Y71868D1*
X65974Y72028D1*
X66266Y72153D1*
X66571Y72242D1*
X66884Y72293D1*
X67201Y72306D1*
X67517Y72281D1*
X67828Y72218D1*
X68129Y72117D1*
X68415Y71981D1*
X68683Y71811D1*
X68929Y71610D1*
X69148Y71380D1*
X69338Y71126D1*
X69495Y70851D1*
X69615Y70567D1*
X69613Y72307D1*
X69931D1*
Y60877D2*
X74847D1*
Y55643D1*
X72297D1*
X72288Y55403D1*
X72230Y55091D1*
X72135Y54788D1*
X72005Y54499D1*
X71840Y54228D1*
X71644Y53979D1*
X71419Y53755D1*
X71168Y53560D1*
X70896Y53397D1*
X70606Y53269D1*
X70302Y53176D1*
X69990Y53120D1*
X69673Y53103D1*
X69357Y53124D1*
X69045Y53184D1*
X68743Y53281D1*
X68454Y53413D1*
X68184Y53580D1*
X67936Y53778D1*
X67714Y54004D1*
X67521Y54256D1*
X67360Y54529D1*
X67233Y54820D1*
X67142Y55124D1*
X67079Y55645D1*
X66817Y55664D1*
X66505Y55724D1*
X66203Y55821D1*
X65914Y55953D1*
X65644Y56120D1*
X65396Y56318D1*
X65174Y56544D1*
X64981Y56796D1*
X64820Y57069D1*
X64693Y57360D1*
X64602Y57664D1*
X64548Y57977D1*
X64533Y58294D1*
X64557Y58610D1*
X64618Y58922D1*
X64717Y59223D1*
X64851Y59511D1*
X65019Y59780D1*
X65219Y60026D1*
X65447Y60247D1*
X65700Y60438D1*
X65974Y60598D1*
X66266Y60723D1*
X66571Y60812D1*
X66884Y60863D1*
X67201Y60876D1*
X67517Y60851D1*
X67828Y60788D1*
X68129Y60687D1*
X68415Y60551D1*
X68683Y60381D1*
X68929Y60180D1*
X69148Y59950D1*
X69338Y59696D1*
X69495Y59421D1*
X69615Y59137D1*
X69613Y60877D1*
X69931D1*
X64424Y31817D2*
X69241D1*
Y26283D1*
X64107D1*
X64095Y26425D1*
X63789Y26340D1*
X63476Y26293D1*
X63158Y26285D1*
X62843Y26316D1*
X62412Y26430D1*
X62017Y26327D1*
X61639Y26285D1*
X61258Y26299D1*
X60884Y26369D1*
X60675Y26425D1*
X60369Y26340D1*
X60056Y26293D1*
X59738Y26285D1*
X59423Y26316D1*
X59113Y26386D1*
X58815Y26494D1*
X58532Y26638D1*
X58269Y26815D1*
X58030Y27024D1*
X57818Y27260D1*
X57638Y27521D1*
X57490Y27802D1*
X57379Y28099D1*
X57305Y28408D1*
X57272Y28852D1*
X57277Y29250D1*
X57274Y29441D1*
X57317Y29755D1*
X57399Y30062D1*
X57517Y30356D1*
X57671Y30633D1*
X57859Y30889D1*
X58076Y31121D1*
X58320Y31323D1*
X58588Y31494D1*
X58874Y31631D1*
X59175Y31731D1*
X59486Y31793D1*
X59803Y31817D1*
X60119Y31801D1*
X60432Y31746D1*
X60703Y31675D1*
X61071Y31773D1*
X61449Y31815D1*
X61829Y31801D1*
X62204Y31731D1*
X62399Y31670D1*
X62906Y31793D1*
X63223Y31817D1*
X63539Y31801D1*
X63852Y31746D1*
X64107Y31681D1*
Y31817D1*
X64424D1*
X59571Y94097D2*
X64887Y94087D1*
X65299Y94011D1*
X65601Y93917D1*
X65883Y93792D1*
X66273Y93957D1*
X66580Y94039D1*
X66894Y94085D1*
X67211Y94096D1*
X67527Y94072D1*
X67839Y94011D1*
X68141Y93917D1*
X68432Y93788D1*
X68706Y93628D1*
X68960Y93438D1*
X69191Y93221D1*
X69397Y92979D1*
X69574Y92716D1*
X69720Y92434D1*
X69833Y92138D1*
X69913Y91831D1*
X69967Y91280D1*
X69949Y90963D1*
X69896Y90650D1*
X69807Y90346D1*
X69685Y90053D1*
X69531Y89775D1*
X69347Y89517D1*
X69135Y89281D1*
X68897Y89070D1*
X68638Y88888D1*
X68359Y88736D1*
X68065Y88616D1*
X67760Y88530D1*
X67447Y88479D1*
X67130Y88463D1*
X66813Y88483D1*
X66501Y88539D1*
X66197Y88629D1*
X65879Y88768D1*
X65525Y88616D1*
X65220Y88530D1*
X64907Y88479D1*
X63934Y88463D1*
X59253D1*
Y94097D1*
X59571D1*
X55035Y24923D2*
X54944Y24295D1*
X54764Y23687D1*
X54498Y23111D1*
X54153Y22579D1*
X53734Y22102D1*
X53251Y21690D1*
X52714Y21352D1*
X52135Y21094D1*
X51524Y20923D1*
X50895Y20840D1*
X50260Y20850D1*
X49634Y20950D1*
X49028Y21138D1*
X48456Y21412D1*
X47929Y21766D1*
X47458Y22191D1*
X47053Y22680D1*
X46723Y23221D1*
X46473Y23805D1*
X46311Y24418D1*
X46237Y25048D1*
X46255Y25682D1*
X46364Y26307D1*
X46562Y26910D1*
X46844Y27478D1*
X47205Y28000D1*
X47637Y28465D1*
X48131Y28863D1*
X48677Y29186D1*
X49264Y29427D1*
X49879Y29581D1*
X50511Y29645D1*
X51144Y29618D1*
X51768Y29500D1*
X52368Y29294D1*
X52932Y29004D1*
X53449Y28636D1*
X53907Y28197D1*
X54298Y27697D1*
X54613Y27147D1*
X54846Y26556D1*
X54991Y25939D1*
X55046Y25307D1*
X55035Y24923D1*
X80435D2*
X80344Y24295D1*
X80164Y23687D1*
X79898Y23111D1*
X79553Y22579D1*
X79134Y22102D1*
X78651Y21690D1*
X78114Y21352D1*
X77535Y21094D1*
X76924Y20923D1*
X76295Y20840D1*
X75660Y20850D1*
X75034Y20950D1*
X74428Y21138D1*
X73856Y21412D1*
X73329Y21766D1*
X72858Y22191D1*
X72453Y22680D1*
X72123Y23221D1*
X71873Y23805D1*
X71711Y24418D1*
X71637Y25048D1*
X71655Y25682D1*
X71764Y26307D1*
X71962Y26910D1*
X72244Y27478D1*
X72605Y28000D1*
X73037Y28465D1*
X73531Y28863D1*
X74077Y29186D1*
X74664Y29427D1*
X75279Y29581D1*
X75911Y29645D1*
X76544Y29618D1*
X77168Y29500D1*
X77768Y29294D1*
X78332Y29004D1*
X78849Y28636D1*
X79307Y28197D1*
X79698Y27697D1*
X80013Y27147D1*
X80246Y26556D1*
X80391Y25939D1*
X80446Y25307D1*
X80435Y24923D1*
X56305Y94773D2*
X56214Y94145D1*
X56034Y93537D1*
X55768Y92961D1*
X55423Y92429D1*
X55004Y91952D1*
X54521Y91540D1*
X53984Y91202D1*
X53405Y90944D1*
X52794Y90773D1*
X52165Y90690D1*
X51530Y90700D1*
X50904Y90800D1*
X50298Y90988D1*
X49726Y91262D1*
X49199Y91616D1*
X48728Y92041D1*
X48323Y92530D1*
X47993Y93071D1*
X47743Y93655D1*
X47581Y94268D1*
X47507Y94898D1*
X47525Y95532D1*
X47634Y96157D1*
X47832Y96760D1*
X48114Y97328D1*
X48475Y97850D1*
X48907Y98315D1*
X49401Y98713D1*
X49947Y99036D1*
X50534Y99277D1*
X51149Y99431D1*
X51781Y99495D1*
X52414Y99468D1*
X53038Y99350D1*
X53638Y99144D1*
X54202Y98854D1*
X54719Y98486D1*
X55177Y98047D1*
X55568Y97547D1*
X55883Y96997D1*
X56116Y96406D1*
X56261Y95789D1*
X56316Y95157D1*
X56305Y94773D1*
X81705D2*
X81614Y94145D1*
X81434Y93537D1*
X81168Y92961D1*
X80823Y92429D1*
X80404Y91952D1*
X79921Y91540D1*
X79384Y91202D1*
X78805Y90944D1*
X78194Y90773D1*
X77565Y90690D1*
X76930Y90700D1*
X76304Y90800D1*
X75698Y90988D1*
X75126Y91262D1*
X74599Y91616D1*
X74128Y92041D1*
X73723Y92530D1*
X73393Y93071D1*
X73143Y93655D1*
X72981Y94268D1*
X72907Y94898D1*
X72925Y95532D1*
X73034Y96157D1*
X73232Y96760D1*
X73514Y97328D1*
X73875Y97850D1*
X74307Y98315D1*
X74801Y98713D1*
X75347Y99036D1*
X75934Y99277D1*
X76549Y99431D1*
X77181Y99495D1*
X77814Y99468D1*
X78438Y99350D1*
X79038Y99144D1*
X79602Y98854D1*
X80119Y98486D1*
X80577Y98047D1*
X80968Y97547D1*
X81283Y96997D1*
X81516Y96406D1*
X81661Y95789D1*
X81716Y95157D1*
X81705Y94773D1*
X58769Y20160D2*
D13*
X61435D1*
X61944Y83660D2*
X64610D1*
X58134Y69690D2*
D14*
X63466D1*
X58134Y55720D2*
D13*
X63466D1*
X32734Y86200D2*
X38066D1*
X40354Y48100D2*
X45686D1*
X24009Y25240D2*
D14*
X26510D1*
X24009Y100170D2*
X26510D1*
X29050Y50640D2*
X31551D1*
X75952Y76040D2*
X81208D1*
X75952Y45560D2*
X81208D1*
X20160Y67537D2*
D19*
Y61683D1*
Y64610D2*
X24130D1*
X15160Y67537D2*
Y61683D1*
X15080Y73887D2*
Y68033D1*
X20080Y73887D2*
Y68033D1*
Y70960D2*
X24050D1*
X20160Y80237D2*
Y74383D1*
Y77310D2*
X24130D1*
X15160Y80237D2*
Y74383D1*
D25*
X191610Y88740D3*
D26*
X194150D3*
D25*
X191610Y55720D3*
D26*
X194150D3*
D25*
X191610Y41750D3*
D26*
X194150D3*
Y96360D3*
D25*
X191610D3*
D26*
X194150Y63340D3*
D25*
X191610D3*
D26*
X194150Y34130D3*
D25*
X191610D3*
D26*
X133190Y97630D3*
D25*
Y100170D3*
D26*
Y63340D3*
D25*
Y65880D3*
D26*
Y29050D3*
D25*
Y31590D3*
X126840Y100170D3*
D26*
Y97630D3*
D25*
Y65880D3*
D26*
Y63340D3*
D25*
Y31590D3*
D26*
Y29050D3*
X91915Y96360D3*
D25*
X89375D3*
D26*
X90010Y68420D3*
D25*
X92550D3*
D26*
Y27780D3*
D25*
X90010D3*
X92550Y74770D3*
D26*
X90010D3*
D25*
X89375Y90010D3*
D26*
X91915D3*
D25*
X90010Y21430D3*
D26*
X92550D3*
X63975Y20160D3*
D25*
X61435D3*
D26*
X64610Y83660D3*
D25*
X67150D3*
X60800Y67150D3*
D26*
Y69690D3*
D25*
Y55720D3*
D26*
Y58260D3*
D25*
X35400Y88740D3*
D26*
Y86200D3*
D25*
X43020Y48100D3*
D26*
Y45560D3*
D29*
X72230Y76040D3*
D30*
X61180D3*
D29*
X62070Y50640D3*
D30*
X73120D3*
D29*
X54450Y76040D3*
D30*
Y64990D3*
D29*
Y58260D3*
D30*
Y47210D3*
D32*
X203040Y63340D3*
Y69182D3*
Y83340D3*
Y77498D3*
D33*
X106520Y84930D3*
D34*
Y87470D3*
D33*
Y51910D3*
D34*
Y49370D3*
D33*
Y20160D3*
D34*
Y22700D3*
D14*
X197960Y49370D3*
X203168D3*
X112870Y100170D3*
X118078D3*
X115410Y63340D3*
X120618D3*
X115410Y31590D3*
X120618D3*
D16*
X29050Y25240D3*
D36*
X26510D3*
D16*
X29050Y100170D3*
D36*
X26510D3*
D16*
X29050Y50640D3*
D36*
X26510D3*
D19*
X172560Y91280D3*
Y96360D3*
X152875Y83660D3*
Y103980D3*
Y93820D3*
X172560Y83660D3*
Y56990D3*
Y62070D3*
X152875Y49370D3*
Y69690D3*
Y59530D3*
X172560Y49370D3*
Y22700D3*
Y27780D3*
X152875Y15080D3*
Y35400D3*
Y25240D3*
X172560Y15080D3*
X139540Y93820D3*
Y83660D3*
Y103980D3*
X185260Y96360D3*
Y101440D3*
Y86200D3*
X139540Y59530D3*
Y49370D3*
Y69690D3*
X185260Y62070D3*
Y67150D3*
Y51910D3*
X139540Y25240D3*
Y15080D3*
Y35400D3*
X185260Y27780D3*
Y32860D3*
Y17620D3*
X89375Y103980D3*
D37*
X109695D3*
D19*
X90010Y60800D3*
D37*
X110330D3*
D19*
X90010Y35400D3*
D37*
X110330D3*
D14*
X78580Y63340D3*
D38*
Y76040D3*
D14*
Y58260D3*
D38*
Y45560D3*
D14*
X35400Y17620D3*
D38*
Y30320D3*
D14*
X49370Y76040D3*
D38*
Y63340D3*
D14*
Y58260D3*
D38*
Y45560D3*
D14*
X35400Y92550D3*
D38*
Y105250D3*
D14*
Y55720D3*
D38*
Y43020D3*
D19*
X131920Y87470D3*
D37*
X111600D3*
D19*
X131920Y50640D3*
D37*
X111600D3*
D19*
X131920Y22700D3*
D37*
X111600D3*
D33*
X72230Y69690D3*
D34*
X69690Y67150D3*
X67150Y69690D3*
D33*
X72230Y58260D3*
D34*
X69690Y55720D3*
X67150Y58260D3*
D39*
X66674Y29050D3*
D40*
X64964D3*
X63254D3*
X61544D3*
X59834D3*
D41*
X62070Y91280D3*
D42*
X64610D3*
X67150D3*
G36*
X21219Y65670D2*
X21581Y65606D1*
X21900Y65422D1*
X22137Y65141D1*
X22263Y64795D1*
Y64427D1*
X22138Y64081D1*
X21901Y63799D1*
X21583Y63615D1*
X21220Y63551D1*
X19101D1*
X18739Y63614D1*
X18420Y63798D1*
X18183Y64079D1*
X18057Y64425D1*
Y64793D1*
X18183Y65139D1*
X18419Y65421D1*
X18737Y65605D1*
X19100Y65670D1*
X21219D1*
G37*
G36*
X16219D2*
X16581Y65606D1*
X16900Y65422D1*
X17137Y65141D1*
X17263Y64795D1*
Y64427D1*
X17138Y64081D1*
X16901Y63799D1*
X16583Y63615D1*
X16220Y63551D1*
X14101D1*
X13739Y63614D1*
X13420Y63798D1*
X13183Y64079D1*
X13057Y64425D1*
Y64793D1*
X13183Y65139D1*
X13419Y65421D1*
X13737Y65605D1*
X14100Y65670D1*
X16219D1*
G37*
G36*
X14021Y69901D2*
X13659Y69964D1*
X13340Y70148D1*
X13103Y70429D1*
X12977Y70775D1*
Y71143D1*
X13103Y71489D1*
X13339Y71771D1*
X13657Y71955D1*
X14020Y72020D1*
X16139D1*
X16501Y71956D1*
X16820Y71772D1*
X17057Y71491D1*
X17183Y71145D1*
Y70777D1*
X17058Y70431D1*
X16821Y70149D1*
X16503Y69965D1*
X16140Y69901D1*
X14021D1*
G37*
G36*
X19021D2*
X18659Y69964D1*
X18340Y70148D1*
X18103Y70429D1*
X17977Y70775D1*
Y71143D1*
X18103Y71489D1*
X18339Y71771D1*
X18657Y71955D1*
X19020Y72020D1*
X21139D1*
X21501Y71956D1*
X21820Y71772D1*
X22057Y71491D1*
X22183Y71145D1*
Y70777D1*
X22058Y70431D1*
X21821Y70149D1*
X21503Y69965D1*
X21140Y69901D1*
X19021D1*
G37*
G36*
X21219Y78370D2*
X21581Y78306D1*
X21900Y78122D1*
X22137Y77841D1*
X22263Y77495D1*
Y77127D1*
X22138Y76781D1*
X21901Y76499D1*
X21583Y76315D1*
X21220Y76251D1*
X19101D1*
X18739Y76314D1*
X18420Y76498D1*
X18183Y76779D1*
X18057Y77125D1*
Y77493D1*
X18183Y77839D1*
X18419Y78121D1*
X18737Y78305D1*
X19100Y78370D1*
X21219D1*
G37*
G36*
X16219D2*
X16581Y78306D1*
X16900Y78122D1*
X17137Y77841D1*
X17263Y77495D1*
Y77127D1*
X17138Y76781D1*
X16901Y76499D1*
X16583Y76315D1*
X16220Y76251D1*
X14101D1*
X13739Y76314D1*
X13420Y76498D1*
X13183Y76779D1*
X13057Y77125D1*
Y77493D1*
X13183Y77839D1*
X13419Y78121D1*
X13737Y78305D1*
X14100Y78370D1*
X16219D1*
G37*
G36*
X199521Y96571D2*
X199159Y96634D1*
X198840Y96818D1*
X198603Y97099D1*
X198477Y97445D1*
Y97813D1*
X198603Y98159D1*
X198839Y98441D1*
X199157Y98625D1*
X199520Y98690D1*
X201639D1*
X202001Y98626D1*
X202320Y98442D1*
X202557Y98161D1*
X202683Y97815D1*
Y97447D1*
X202558Y97101D1*
X202321Y96819D1*
X202003Y96635D1*
X201640Y96571D1*
X199521D1*
G37*
G36*
X204521D2*
X204159Y96634D1*
X203840Y96818D1*
X203603Y97099D1*
X203477Y97445D1*
Y97813D1*
X203603Y98159D1*
X203839Y98441D1*
X204157Y98625D1*
X204520Y98690D1*
X206639D1*
X207001Y98626D1*
X207320Y98442D1*
X207557Y98161D1*
X207683Y97815D1*
Y97447D1*
X207558Y97101D1*
X207321Y96819D1*
X207003Y96635D1*
X206640Y96571D1*
X204521D1*
G37*
G36*
X14021Y26721D2*
X13659Y26784D1*
X13340Y26968D1*
X13103Y27249D1*
X12977Y27595D1*
Y27963D1*
X13103Y28309D1*
X13339Y28591D1*
X13657Y28775D1*
X14020Y28840D1*
X16139D1*
X16501Y28776D1*
X16820Y28592D1*
X17057Y28311D1*
X17183Y27965D1*
Y27597D1*
X17058Y27251D1*
X16821Y26969D1*
X16503Y26785D1*
X16140Y26721D1*
X14021D1*
G37*
G36*
X19021D2*
X18659Y26784D1*
X18340Y26968D1*
X18103Y27249D1*
X17977Y27595D1*
Y27963D1*
X18103Y28309D1*
X18339Y28591D1*
X18657Y28775D1*
X19020Y28840D1*
X21139D1*
X21501Y28776D1*
X21820Y28592D1*
X22057Y28311D1*
X22183Y27965D1*
Y27597D1*
X22058Y27251D1*
X21821Y26969D1*
X21503Y26785D1*
X21140Y26721D1*
X19021D1*
G37*
G36*
X14021Y20371D2*
X13659Y20434D1*
X13340Y20618D1*
X13103Y20899D1*
X12977Y21245D1*
Y21613D1*
X13103Y21959D1*
X13339Y22241D1*
X13657Y22425D1*
X14020Y22490D1*
X16139D1*
X16501Y22426D1*
X16820Y22242D1*
X17057Y21961D1*
X17183Y21615D1*
Y21247D1*
X17058Y20901D1*
X16821Y20619D1*
X16503Y20435D1*
X16140Y20371D1*
X14021D1*
G37*
G36*
X19021D2*
X18659Y20434D1*
X18340Y20618D1*
X18103Y20899D1*
X17977Y21245D1*
Y21613D1*
X18103Y21959D1*
X18339Y22241D1*
X18657Y22425D1*
X19020Y22490D1*
X21139D1*
X21501Y22426D1*
X21820Y22242D1*
X22057Y21961D1*
X22183Y21615D1*
Y21247D1*
X22058Y20901D1*
X21821Y20619D1*
X21503Y20435D1*
X21140Y20371D1*
X19021D1*
G37*
G36*
X21219Y35190D2*
X21581Y35126D1*
X21900Y34942D1*
X22137Y34661D1*
X22263Y34315D1*
Y33947D1*
X22138Y33601D1*
X21901Y33319D1*
X21583Y33135D1*
X21220Y33071D1*
X19101D1*
X18739Y33134D1*
X18420Y33318D1*
X18183Y33599D1*
X18057Y33945D1*
Y34313D1*
X18183Y34659D1*
X18419Y34941D1*
X18737Y35125D1*
X19100Y35190D1*
X21219D1*
G37*
G36*
X16219D2*
X16581Y35126D1*
X16900Y34942D1*
X17137Y34661D1*
X17263Y34315D1*
Y33947D1*
X17138Y33601D1*
X16901Y33319D1*
X16583Y33135D1*
X16220Y33071D1*
X14101D1*
X13739Y33134D1*
X13420Y33318D1*
X13183Y33599D1*
X13057Y33945D1*
Y34313D1*
X13183Y34659D1*
X13419Y34941D1*
X13737Y35125D1*
X14100Y35190D1*
X16219D1*
G37*
G36*
X199441Y91491D2*
X199079Y91554D1*
X198760Y91738D1*
X198523Y92019D1*
X198397Y92365D1*
Y92733D1*
X198523Y93079D1*
X198759Y93361D1*
X199077Y93545D1*
X199440Y93610D1*
X201559D1*
X201921Y93546D1*
X202240Y93362D1*
X202477Y93081D1*
X202603Y92735D1*
Y92367D1*
X202478Y92021D1*
X202241Y91739D1*
X201923Y91555D1*
X201560Y91491D1*
X199441D1*
G37*
G36*
X204441D2*
X204079Y91554D1*
X203760Y91738D1*
X203523Y92019D1*
X203397Y92365D1*
Y92733D1*
X203523Y93079D1*
X203759Y93361D1*
X204077Y93545D1*
X204440Y93610D1*
X206559D1*
X206921Y93546D1*
X207240Y93362D1*
X207477Y93081D1*
X207603Y92735D1*
Y92367D1*
X207478Y92021D1*
X207241Y91739D1*
X206923Y91555D1*
X206560Y91491D1*
X204441D1*
G37*
G36*
X21219Y99960D2*
X21581Y99896D1*
X21900Y99712D1*
X22137Y99431D1*
X22263Y99085D1*
Y98717D1*
X22138Y98371D1*
X21901Y98089D1*
X21583Y97905D1*
X21220Y97841D1*
X19101D1*
X18739Y97904D1*
X18420Y98088D1*
X18183Y98369D1*
X18057Y98715D1*
Y99083D1*
X18183Y99429D1*
X18419Y99711D1*
X18737Y99895D1*
X19100Y99960D1*
X21219D1*
G37*
G36*
X16219D2*
X16581Y99896D1*
X16900Y99712D1*
X17137Y99431D1*
X17263Y99085D1*
Y98717D1*
X17138Y98371D1*
X16901Y98089D1*
X16583Y97905D1*
X16220Y97841D1*
X14101D1*
X13739Y97904D1*
X13420Y98088D1*
X13183Y98369D1*
X13057Y98715D1*
Y99083D1*
X13183Y99429D1*
X13419Y99711D1*
X13737Y99895D1*
X14100Y99960D1*
X16219D1*
G37*
G36*
X14021Y91491D2*
X13659Y91554D1*
X13340Y91738D1*
X13103Y92019D1*
X12977Y92365D1*
Y92733D1*
X13103Y93079D1*
X13339Y93361D1*
X13657Y93545D1*
X14020Y93610D1*
X16139D1*
X16501Y93546D1*
X16820Y93362D1*
X17057Y93081D1*
X17183Y92735D1*
Y92367D1*
X17058Y92021D1*
X16821Y91739D1*
X16503Y91555D1*
X16140Y91491D1*
X14021D1*
G37*
G36*
X19021D2*
X18659Y91554D1*
X18340Y91738D1*
X18103Y92019D1*
X17977Y92365D1*
Y92733D1*
X18103Y93079D1*
X18339Y93361D1*
X18657Y93545D1*
X19020Y93610D1*
X21139D1*
X21501Y93546D1*
X21820Y93362D1*
X22057Y93081D1*
X22183Y92735D1*
Y92367D1*
X22058Y92021D1*
X21821Y91739D1*
X21503Y91555D1*
X21140Y91491D1*
X19021D1*
G37*
G36*
X14021Y85141D2*
X13659Y85204D1*
X13340Y85388D1*
X13103Y85669D1*
X12977Y86015D1*
Y86383D1*
X13103Y86729D1*
X13339Y87011D1*
X13657Y87195D1*
X14020Y87260D1*
X16139D1*
X16501Y87196D1*
X16820Y87012D1*
X17057Y86731D1*
X17183Y86385D1*
Y86017D1*
X17058Y85671D1*
X16821Y85389D1*
X16503Y85205D1*
X16140Y85141D1*
X14021D1*
G37*
G36*
X19021D2*
X18659Y85204D1*
X18340Y85388D1*
X18103Y85669D1*
X17977Y86015D1*
Y86383D1*
X18103Y86729D1*
X18339Y87011D1*
X18657Y87195D1*
X19020Y87260D1*
X21139D1*
X21501Y87196D1*
X21820Y87012D1*
X22057Y86731D1*
X22183Y86385D1*
Y86017D1*
X22058Y85671D1*
X21821Y85389D1*
X21503Y85205D1*
X21140Y85141D1*
X19021D1*
G37*
D46*
X50640Y25240D3*
X76040D3*
X51910Y95090D3*
X77310D3*
G36*
X21219Y56780D2*
X21581Y56716D1*
X21900Y56532D1*
X22137Y56251D1*
X22263Y55905D1*
Y55537D1*
X22138Y55191D1*
X21901Y54909D1*
X21583Y54725D1*
X21220Y54661D1*
X19101D1*
X18739Y54724D1*
X18420Y54908D1*
X18183Y55189D1*
X18057Y55535D1*
Y55903D1*
X18183Y56249D1*
X18419Y56531D1*
X18737Y56715D1*
X19100Y56780D1*
X21219D1*
G37*
G36*
X16219D2*
X16581Y56716D1*
X16900Y56532D1*
X17137Y56251D1*
X17263Y55905D1*
Y55537D1*
X17138Y55191D1*
X16901Y54909D1*
X16583Y54725D1*
X16220Y54661D1*
X14101D1*
X13739Y54724D1*
X13420Y54908D1*
X13183Y55189D1*
X13057Y55535D1*
Y55903D1*
X13183Y56249D1*
X13419Y56531D1*
X13737Y56715D1*
X14100Y56780D1*
X16219D1*
G37*
G36*
X21219Y44080D2*
X21581Y44016D1*
X21900Y43832D1*
X22137Y43551D1*
X22263Y43205D1*
Y42837D1*
X22138Y42491D1*
X21901Y42209D1*
X21583Y42025D1*
X21220Y41961D1*
X19101D1*
X18739Y42024D1*
X18420Y42208D1*
X18183Y42489D1*
X18057Y42835D1*
Y43203D1*
X18183Y43549D1*
X18419Y43831D1*
X18737Y44015D1*
X19100Y44080D1*
X21219D1*
G37*
G36*
X16219D2*
X16581Y44016D1*
X16900Y43832D1*
X17137Y43551D1*
X17263Y43205D1*
Y42837D1*
X17138Y42491D1*
X16901Y42209D1*
X16583Y42025D1*
X16220Y41961D1*
X14101D1*
X13739Y42024D1*
X13420Y42208D1*
X13183Y42489D1*
X13057Y42835D1*
Y43203D1*
X13183Y43549D1*
X13419Y43831D1*
X13737Y44015D1*
X14100Y44080D1*
X16219D1*
G37*
G36*
X14021Y48311D2*
X13659Y48374D1*
X13340Y48558D1*
X13103Y48839D1*
X12977Y49185D1*
Y49553D1*
X13103Y49899D1*
X13339Y50181D1*
X13657Y50365D1*
X14020Y50430D1*
X16139D1*
X16501Y50366D1*
X16820Y50182D1*
X17057Y49901D1*
X17183Y49555D1*
Y49187D1*
X17058Y48841D1*
X16821Y48559D1*
X16503Y48375D1*
X16140Y48311D1*
X14021D1*
G37*
G36*
X19021D2*
X18659Y48374D1*
X18340Y48558D1*
X18103Y48839D1*
X17977Y49185D1*
Y49553D1*
X18103Y49899D1*
X18339Y50181D1*
X18657Y50365D1*
X19020Y50430D1*
X21139D1*
X21501Y50366D1*
X21820Y50182D1*
X22057Y49901D1*
X22183Y49555D1*
Y49187D1*
X22058Y48841D1*
X21821Y48559D1*
X21503Y48375D1*
X21140Y48311D1*
X19021D1*
G37*
M02*
